<svg width="3893pt" height="392pt"
 viewBox="0.00 0.00 3892.84 392.00" xmlns="http://www.w3.org/2000/svg" xmlns:xlink="http://www.w3.org/1999/xlink">
<g id="graph0" class="graph" transform="scale(1 1) rotate(0) translate(4 388)">
<title>Perl</title>
<polygon fill="#ffffff" stroke="transparent" points="-4,4 -4,-388 3888.8379,-388 3888.8379,4 -4,4"/>
<!-- study_funding -->
<g id="node1" class="node">
<title>study_funding</title>
<ellipse fill="none" stroke="#000000" cx="739.0433" cy="-105" rx="77.1866" ry="18"/>
<text text-anchor="middle" x="739.0433" y="-101.3" font-family="Times,serif" font-size="14.00" fill="#000000">study_funding</text>
</g>
<!-- study -->
<g id="node4" class="node">
<title>study</title>
<ellipse fill="none" stroke="#000000" cx="3143.0433" cy="-18" rx="36.2938" ry="18"/>
<text text-anchor="middle" x="3143.0433" y="-14.3" font-family="Times,serif" font-size="14.00" fill="#000000">study</text>
</g>
<!-- study_funding&#45;&gt;study -->
<g id="edge11" class="edge">
<title>study_funding&#45;&gt;study</title>
<path fill="none" stroke="#000000" d="M733.7777,-86.9956C731.753,-75.9526 731.6327,-62.3717 740.0433,-54 761.7319,-32.4114 2763.4377,-20.1488 3096.3618,-18.2578"/>
<polygon fill="#000000" stroke="#000000" points="3096.6323,-21.7564 3106.6123,-18.1999 3096.5926,-14.7565 3096.6323,-21.7564"/>
<text text-anchor="middle" x="802.0433" y="-57.8" font-family="Times,serif" font-size="14.00" fill="#000000">of_study_funding</text>
</g>
<!-- medical_history -->
<g id="node2" class="node">
<title>medical_history</title>
<ellipse fill="none" stroke="#000000" cx="1744.0433" cy="-192" rx="85.2851" ry="18"/>
<text text-anchor="middle" x="1744.0433" y="-188.3" font-family="Times,serif" font-size="14.00" fill="#000000">medical_history</text>
</g>
<!-- participant -->
<g id="node11" class="node">
<title>participant</title>
<ellipse fill="none" stroke="#000000" cx="2311.0433" cy="-105" rx="62.2891" ry="18"/>
<text text-anchor="middle" x="2311.0433" y="-101.3" font-family="Times,serif" font-size="14.00" fill="#000000">participant</text>
</g>
<!-- medical_history&#45;&gt;participant -->
<g id="edge21" class="edge">
<title>medical_history&#45;&gt;participant</title>
<path fill="none" stroke="#000000" d="M1765.8466,-174.5609C1781.8024,-162.852 1804.5132,-148.282 1827.0433,-141 1901.4655,-116.9459 2122.4795,-108.847 2238.3354,-106.2122"/>
<polygon fill="#000000" stroke="#000000" points="2238.6103,-109.7071 2248.531,-105.9883 2238.4566,-102.7088 2238.6103,-109.7071"/>
<text text-anchor="middle" x="1895.0433" y="-144.8" font-family="Times,serif" font-size="14.00" fill="#000000">of_medical_history</text>
</g>
<!-- family_relationship -->
<g id="node3" class="node">
<title>family_relationship</title>
<ellipse fill="none" stroke="#000000" cx="1947.0433" cy="-192" rx="100.1823" ry="18"/>
<text text-anchor="middle" x="1947.0433" y="-188.3" font-family="Times,serif" font-size="14.00" fill="#000000">family_relationship</text>
</g>
<!-- family_relationship&#45;&gt;participant -->
<g id="edge23" class="edge">
<title>family_relationship&#45;&gt;participant</title>
<path fill="none" stroke="#000000" d="M1954.9884,-173.8221C1960.9797,-162.4116 1970.3463,-148.4859 1983.0433,-141 2004.6337,-128.2706 2149.989,-116.1214 2239.8043,-109.7079"/>
<polygon fill="#000000" stroke="#000000" points="2240.2026,-113.1886 2249.9309,-108.9922 2239.709,-106.206 2240.2026,-113.1886"/>
<text text-anchor="middle" x="2062.5433" y="-144.8" font-family="Times,serif" font-size="14.00" fill="#000000">of_family_relationship</text>
</g>
<!-- diagnosis -->
<g id="node5" class="node">
<title>diagnosis</title>
<ellipse fill="none" stroke="#000000" cx="2120.0433" cy="-192" rx="54.6905" ry="18"/>
<text text-anchor="middle" x="2120.0433" y="-188.3" font-family="Times,serif" font-size="14.00" fill="#000000">diagnosis</text>
</g>
<!-- diagnosis&#45;&gt;participant -->
<g id="edge31" class="edge">
<title>diagnosis&#45;&gt;participant</title>
<path fill="none" stroke="#000000" d="M2130.6922,-173.8496C2138.1198,-162.7484 2149.0166,-149.1574 2162.0433,-141 2176.5159,-131.9371 2213.9218,-122.9138 2247.6314,-116.168"/>
<polygon fill="#000000" stroke="#000000" points="2248.3395,-119.5959 2257.4803,-114.239 2246.994,-112.7264 2248.3395,-119.5959"/>
<text text-anchor="middle" x="2206.5433" y="-144.8" font-family="Times,serif" font-size="14.00" fill="#000000">of_diagnosis</text>
</g>
<!-- follow_up -->
<g id="node6" class="node">
<title>follow_up</title>
<ellipse fill="none" stroke="#000000" cx="2248.0433" cy="-192" rx="55.4913" ry="18"/>
<text text-anchor="middle" x="2248.0433" y="-188.3" font-family="Times,serif" font-size="14.00" fill="#000000">follow_up</text>
</g>
<!-- follow_up&#45;&gt;participant -->
<g id="edge25" class="edge">
<title>follow_up&#45;&gt;participant</title>
<path fill="none" stroke="#000000" d="M2250.0478,-173.7622C2251.8827,-163.433 2255.3827,-150.683 2262.0433,-141 2265.4542,-136.0413 2269.7763,-131.5056 2274.4346,-127.4506"/>
<polygon fill="#000000" stroke="#000000" points="2276.8106,-130.0341 2282.4899,-121.0901 2272.4726,-124.5402 2276.8106,-130.0341"/>
<text text-anchor="middle" x="2307.0433" y="-144.8" font-family="Times,serif" font-size="14.00" fill="#000000">of_follow_up</text>
</g>
<!-- molecular_test -->
<g id="node7" class="node">
<title>molecular_test</title>
<ellipse fill="none" stroke="#000000" cx="2401.0433" cy="-192" rx="79.8859" ry="18"/>
<text text-anchor="middle" x="2401.0433" y="-188.3" font-family="Times,serif" font-size="14.00" fill="#000000">molecular_test</text>
</g>
<!-- molecular_test&#45;&gt;participant -->
<g id="edge34" class="edge">
<title>molecular_test&#45;&gt;participant</title>
<path fill="none" stroke="#000000" d="M2384.6199,-174.1737C2375.2704,-164.2134 2363.2255,-151.6917 2352.0433,-141 2347.9353,-137.0723 2343.5007,-133.0081 2339.1183,-129.0872"/>
<polygon fill="#000000" stroke="#000000" points="2341.1811,-126.2395 2331.3682,-122.2449 2336.5482,-131.487 2341.1811,-126.2395"/>
<text text-anchor="middle" x="2430.0433" y="-144.8" font-family="Times,serif" font-size="14.00" fill="#000000">of_molecular_test</text>
</g>
<!-- pdx -->
<g id="node8" class="node">
<title>pdx</title>
<ellipse fill="none" stroke="#000000" cx="913.0433" cy="-279" rx="27.8951" ry="18"/>
<text text-anchor="middle" x="913.0433" y="-275.3" font-family="Times,serif" font-size="14.00" fill="#000000">pdx</text>
</g>
<!-- pdx&#45;&gt;study -->
<g id="edge38" class="edge">
<title>pdx&#45;&gt;study</title>
<path fill="none" stroke="#000000" d="M903.8222,-261.5484C890.4166,-233.5124 869.7555,-177.8575 895.0433,-141 932.7728,-86.0083 969.6995,-100.3343 1035.0433,-87 1243.1394,-44.5351 2805.4433,-22.3677 3096.4515,-18.5856"/>
<polygon fill="#000000" stroke="#000000" points="3096.6989,-22.0828 3106.6528,-18.4538 3096.6084,-15.0834 3096.6989,-22.0828"/>
<text text-anchor="middle" x="919.0433" y="-144.8" font-family="Times,serif" font-size="14.00" fill="#000000">of_pdx</text>
</g>
<!-- sample -->
<g id="node23" class="node">
<title>sample</title>
<ellipse fill="none" stroke="#000000" cx="984.0433" cy="-192" rx="44.393" ry="18"/>
<text text-anchor="middle" x="984.0433" y="-188.3" font-family="Times,serif" font-size="14.00" fill="#000000">sample</text>
</g>
<!-- pdx&#45;&gt;sample -->
<g id="edge37" class="edge">
<title>pdx&#45;&gt;sample</title>
<path fill="none" stroke="#000000" d="M907.1343,-261.2017C904.7974,-250.774 903.9282,-237.7752 910.0433,-228 916.2552,-218.07 926.0779,-210.8079 936.5615,-205.5235"/>
<polygon fill="#000000" stroke="#000000" points="938.1635,-208.6414 945.8704,-201.3713 935.3119,-202.2485 938.1635,-208.6414"/>
<text text-anchor="middle" x="934.0433" y="-231.8" font-family="Times,serif" font-size="14.00" fill="#000000">of_pdx</text>
</g>
<!-- publication -->
<g id="node9" class="node">
<title>publication</title>
<ellipse fill="none" stroke="#000000" cx="3334.0433" cy="-105" rx="63.0888" ry="18"/>
<text text-anchor="middle" x="3334.0433" y="-101.3" font-family="Times,serif" font-size="14.00" fill="#000000">publication</text>
</g>
<!-- publication&#45;&gt;study -->
<g id="edge13" class="edge">
<title>publication&#45;&gt;study</title>
<path fill="none" stroke="#000000" d="M3312.1198,-88.0809C3297.2236,-77.2019 3276.7221,-63.3955 3257.0433,-54 3234.3041,-43.1434 3207.4934,-34.4875 3185.5871,-28.3867"/>
<polygon fill="#000000" stroke="#000000" points="3186.4665,-24.9988 3175.8994,-25.7646 3184.6377,-31.7557 3186.4665,-24.9988"/>
<text text-anchor="middle" x="3334.0433" y="-57.8" font-family="Times,serif" font-size="14.00" fill="#000000">of_publication</text>
</g>
<!-- study_admin -->
<g id="node10" class="node">
<title>study_admin</title>
<ellipse fill="none" stroke="#000000" cx="3485.0433" cy="-105" rx="70.3881" ry="18"/>
<text text-anchor="middle" x="3485.0433" y="-101.3" font-family="Times,serif" font-size="14.00" fill="#000000">study_admin</text>
</g>
<!-- study_admin&#45;&gt;study -->
<g id="edge24" class="edge">
<title>study_admin&#45;&gt;study</title>
<path fill="none" stroke="#000000" d="M3459.2383,-88.1458C3440.5071,-76.7126 3414.1499,-62.2316 3389.0433,-54 3321.8419,-31.967 3239.8927,-23.3906 3189.6011,-20.0711"/>
<polygon fill="#000000" stroke="#000000" points="3189.5632,-16.5622 3179.3666,-19.4396 3189.132,-23.5489 3189.5632,-16.5622"/>
<text text-anchor="middle" x="3480.5433" y="-57.8" font-family="Times,serif" font-size="14.00" fill="#000000">of_study_admin</text>
</g>
<!-- participant&#45;&gt;study -->
<g id="edge12" class="edge">
<title>participant&#45;&gt;study</title>
<path fill="none" stroke="#000000" d="M2369.8794,-98.8477C2527.321,-82.3844 2955.8675,-37.5725 3097.1681,-22.797"/>
<polygon fill="#000000" stroke="#000000" points="3097.6461,-26.2662 3107.2279,-21.7451 3096.9181,-19.3042 3097.6461,-26.2662"/>
<text text-anchor="middle" x="2827.5433" y="-57.8" font-family="Times,serif" font-size="14.00" fill="#000000">of_participant</text>
</g>
<!-- study_personnel -->
<g id="node12" class="node">
<title>study_personnel</title>
<ellipse fill="none" stroke="#000000" cx="3660.0433" cy="-105" rx="87.1846" ry="18"/>
<text text-anchor="middle" x="3660.0433" y="-101.3" font-family="Times,serif" font-size="14.00" fill="#000000">study_personnel</text>
</g>
<!-- study_personnel&#45;&gt;study -->
<g id="edge14" class="edge">
<title>study_personnel&#45;&gt;study</title>
<path fill="none" stroke="#000000" d="M3628.1782,-88.0727C3604.749,-76.4483 3571.7698,-61.7656 3541.0433,-54 3475.6128,-37.4636 3279.7757,-25.27 3189.5245,-20.3688"/>
<polygon fill="#000000" stroke="#000000" points="3189.4888,-16.8619 3179.3156,-19.8211 3189.1137,-23.8518 3189.4888,-16.8619"/>
<text text-anchor="middle" x="3653.5433" y="-57.8" font-family="Times,serif" font-size="14.00" fill="#000000">of_study_personnel</text>
</g>
<!-- study_arm -->
<g id="node13" class="node">
<title>study_arm</title>
<ellipse fill="none" stroke="#000000" cx="3825.0433" cy="-105" rx="59.5901" ry="18"/>
<text text-anchor="middle" x="3825.0433" y="-101.3" font-family="Times,serif" font-size="14.00" fill="#000000">study_arm</text>
</g>
<!-- study_arm&#45;&gt;study -->
<g id="edge36" class="edge">
<title>study_arm&#45;&gt;study</title>
<path fill="none" stroke="#000000" d="M3800.4647,-88.4973C3781.3377,-76.5991 3753.6565,-61.3856 3727.0433,-54 3626.328,-26.05 3310.1566,-19.7729 3190.0056,-18.3858"/>
<polygon fill="#000000" stroke="#000000" points="3189.7113,-14.8825 3179.6737,-18.2731 3189.6349,-21.882 3189.7113,-14.8825"/>
<text text-anchor="middle" x="3811.5433" y="-57.8" font-family="Times,serif" font-size="14.00" fill="#000000">of_study_arm</text>
</g>
<!-- synonym -->
<g id="node14" class="node">
<title>synonym</title>
<ellipse fill="none" stroke="#000000" cx="2517.0433" cy="-279" rx="51.9908" ry="18"/>
<text text-anchor="middle" x="2517.0433" y="-275.3" font-family="Times,serif" font-size="14.00" fill="#000000">synonym</text>
</g>
<!-- synonym&#45;&gt;study -->
<g id="edge6" class="edge">
<title>synonym&#45;&gt;study</title>
<path fill="none" stroke="#000000" d="M2569.0568,-277.7475C2724.6942,-273.4821 3178.8088,-257.0753 3224.0433,-210 3261.9513,-170.5492 3252.7089,-136.3287 3229.0433,-87 3218.3929,-64.8003 3196.7334,-47.4894 3177.8168,-35.7591"/>
<polygon fill="#000000" stroke="#000000" points="3179.4813,-32.6774 3169.0904,-30.6086 3175.9232,-38.7057 3179.4813,-32.6774"/>
<text text-anchor="middle" x="3291.5433" y="-144.8" font-family="Times,serif" font-size="14.00" fill="#000000">of_synonym</text>
</g>
<!-- synonym&#45;&gt;participant -->
<g id="edge5" class="edge">
<title>synonym&#45;&gt;participant</title>
<path fill="none" stroke="#000000" d="M2520.5001,-261.0111C2524.9978,-231.702 2528.991,-173.645 2498.0433,-141 2482.15,-124.2351 2427.8846,-115.046 2381.8765,-110.1574"/>
<polygon fill="#000000" stroke="#000000" points="2382.202,-106.6725 2371.9007,-109.1495 2381.4982,-113.6371 2382.202,-106.6725"/>
<text text-anchor="middle" x="2566.5433" y="-188.3" font-family="Times,serif" font-size="14.00" fill="#000000">of_synonym</text>
</g>
<!-- synonym&#45;&gt;sample -->
<g id="edge7" class="edge">
<title>synonym&#45;&gt;sample</title>
<path fill="none" stroke="#000000" d="M2465.6259,-275.9022C2331.2511,-267.8237 1958.4941,-245.5256 1648.0433,-228 1421.4212,-215.2067 1151.2385,-200.8298 1038.0783,-194.8478"/>
<polygon fill="#000000" stroke="#000000" points="1038.1162,-191.345 1027.9454,-194.3124 1037.7468,-198.3353 1038.1162,-191.345"/>
<text text-anchor="middle" x="1929.5433" y="-231.8" font-family="Times,serif" font-size="14.00" fill="#000000">of_synonym</text>
</g>
<!-- exposure -->
<g id="node15" class="node">
<title>exposure</title>
<ellipse fill="none" stroke="#000000" cx="2673.0433" cy="-192" rx="53.0913" ry="18"/>
<text text-anchor="middle" x="2673.0433" y="-188.3" font-family="Times,serif" font-size="14.00" fill="#000000">exposure</text>
</g>
<!-- exposure&#45;&gt;participant -->
<g id="edge35" class="edge">
<title>exposure&#45;&gt;participant</title>
<path fill="none" stroke="#000000" d="M2631.8053,-180.4713C2599.4263,-171.3121 2558.5873,-159.482 2551.0433,-156 2539.9626,-150.8857 2539.4163,-145.4263 2528.0433,-141 2481.588,-122.9202 2426.0879,-113.9182 2382.8453,-109.4372"/>
<polygon fill="#000000" stroke="#000000" points="2382.9857,-105.9344 2372.6925,-108.4444 2382.3044,-112.9011 2382.9857,-105.9344"/>
<text text-anchor="middle" x="2594.5433" y="-144.8" font-family="Times,serif" font-size="14.00" fill="#000000">of_exposure</text>
</g>
<!-- therapeutic_procedure -->
<g id="node16" class="node">
<title>therapeutic_procedure</title>
<ellipse fill="none" stroke="#000000" cx="2862.0433" cy="-192" rx="117.7793" ry="18"/>
<text text-anchor="middle" x="2862.0433" y="-188.3" font-family="Times,serif" font-size="14.00" fill="#000000">therapeutic_procedure</text>
</g>
<!-- therapeutic_procedure&#45;&gt;participant -->
<g id="edge4" class="edge">
<title>therapeutic_procedure&#45;&gt;participant</title>
<path fill="none" stroke="#000000" d="M2774.7201,-179.8661C2730.4321,-173.013 2681.722,-164.201 2661.0433,-156 2649.6988,-151.5009 2649.5332,-145.1133 2638.0433,-141 2592.6002,-124.7318 2464.6196,-114.2525 2382.8996,-109.0095"/>
<polygon fill="#000000" stroke="#000000" points="2382.8784,-105.5013 2372.6781,-108.3654 2382.4382,-112.4874 2382.8784,-105.5013"/>
<text text-anchor="middle" x="2754.0433" y="-144.8" font-family="Times,serif" font-size="14.00" fill="#000000">of_therapeutic_procedure</text>
</g>
<!-- cell_line -->
<g id="node17" class="node">
<title>cell_line</title>
<ellipse fill="none" stroke="#000000" cx="1093.0433" cy="-105" rx="49.2915" ry="18"/>
<text text-anchor="middle" x="1093.0433" y="-101.3" font-family="Times,serif" font-size="14.00" fill="#000000">cell_line</text>
</g>
<!-- cell_line&#45;&gt;study -->
<g id="edge32" class="edge">
<title>cell_line&#45;&gt;study</title>
<path fill="none" stroke="#000000" d="M1142.1976,-102.9139C1423.1047,-90.9925 2822.2524,-31.6141 3096.3983,-19.9796"/>
<polygon fill="#000000" stroke="#000000" points="3096.9355,-23.46 3106.7781,-19.5391 3096.6387,-16.4663 3096.9355,-23.46"/>
<text text-anchor="middle" x="2281.5433" y="-57.8" font-family="Times,serif" font-size="14.00" fill="#000000">of_cell_line</text>
</g>
<!-- cell_line&#45;&gt;sample -->
<g id="edge33" class="edge">
<title>cell_line&#45;&gt;sample</title>
<path fill="none" stroke="#000000" d="M1071.3957,-121.3322C1063.3835,-127.4423 1054.2542,-134.4815 1046.0433,-141 1034.561,-150.1155 1022.0472,-160.3504 1011.288,-169.2458"/>
<polygon fill="#000000" stroke="#000000" points="1008.9123,-166.669 1003.4487,-175.7464 1013.3806,-172.0575 1008.9123,-166.669"/>
<text text-anchor="middle" x="1086.5433" y="-144.8" font-family="Times,serif" font-size="14.00" fill="#000000">of_cell_line</text>
</g>
<!-- sequencing_file -->
<g id="node18" class="node">
<title>sequencing_file</title>
<ellipse fill="none" stroke="#000000" cx="1336.0433" cy="-366" rx="83.3857" ry="18"/>
<text text-anchor="middle" x="1336.0433" y="-362.3" font-family="Times,serif" font-size="14.00" fill="#000000">sequencing_file</text>
</g>
<!-- sequencing_file&#45;&gt;pdx -->
<g id="edge10" class="edge">
<title>sequencing_file&#45;&gt;pdx</title>
<path fill="none" stroke="#000000" d="M1275.4377,-353.535C1186.3838,-335.219 1022.8566,-301.5857 949.8864,-286.5777"/>
<polygon fill="#000000" stroke="#000000" points="950.2972,-283.089 939.7971,-284.5026 948.8869,-289.9454 950.2972,-283.089"/>
<text text-anchor="middle" x="1216.5433" y="-318.8" font-family="Times,serif" font-size="14.00" fill="#000000">of_sequencing_file</text>
</g>
<!-- sequencing_file&#45;&gt;cell_line -->
<g id="edge9" class="edge">
<title>sequencing_file&#45;&gt;cell_line</title>
<path fill="none" stroke="#000000" d="M1367.358,-349.1663C1401.1519,-329.0108 1453.0758,-291.772 1475.0433,-243 1482.2327,-227.0381 1478.9892,-163.9807 1452.0433,-141 1429.7695,-122.0039 1248.5947,-111.5544 1152.4642,-107.2989"/>
<polygon fill="#000000" stroke="#000000" points="1152.4488,-103.795 1142.3065,-106.8583 1152.1454,-110.7884 1152.4488,-103.795"/>
<text text-anchor="middle" x="1544.5433" y="-231.8" font-family="Times,serif" font-size="14.00" fill="#000000">of_sequencing_file</text>
</g>
<!-- sequencing_file&#45;&gt;sample -->
<g id="edge8" class="edge">
<title>sequencing_file&#45;&gt;sample</title>
<path fill="none" stroke="#000000" d="M1322.6715,-347.9043C1303.5688,-323.5741 1265.9908,-281.0582 1223.0433,-261 1180.9375,-241.335 1164.8817,-255.2113 1120.0433,-243 1086.8891,-233.9708 1050.4971,-220.1041 1023.7078,-209.1079"/>
<polygon fill="#000000" stroke="#000000" points="1024.8741,-205.8025 1014.2963,-205.2009 1022.1902,-212.2676 1024.8741,-205.8025"/>
<text text-anchor="middle" x="1341.5433" y="-275.3" font-family="Times,serif" font-size="14.00" fill="#000000">of_sequencing_file</text>
</g>
<!-- single_cell_sequencing_file -->
<g id="node19" class="node">
<title>single_cell_sequencing_file</title>
<ellipse fill="none" stroke="#000000" cx="308.0433" cy="-366" rx="137.5759" ry="18"/>
<text text-anchor="middle" x="308.0433" y="-362.3" font-family="Times,serif" font-size="14.00" fill="#000000">single_cell_sequencing_file</text>
</g>
<!-- single_cell_sequencing_file&#45;&gt;pdx -->
<g id="edge27" class="edge">
<title>single_cell_sequencing_file&#45;&gt;pdx</title>
<path fill="none" stroke="#000000" d="M364.5354,-349.5792C411.3109,-336.2474 474.1419,-319.0221 500.0433,-315 663.171,-289.6687 710.1838,-334.1022 871.0433,-297 874.4711,-296.2094 877.9716,-295.1526 881.4167,-293.9455"/>
<polygon fill="#000000" stroke="#000000" points="882.8379,-297.1478 890.873,-290.2422 880.2853,-290.6298 882.8379,-297.1478"/>
<text text-anchor="middle" x="608.5433" y="-318.8" font-family="Times,serif" font-size="14.00" fill="#000000">of_single_cell_sequencing_file</text>
</g>
<!-- single_cell_sequencing_file&#45;&gt;cell_line -->
<g id="edge26" class="edge">
<title>single_cell_sequencing_file&#45;&gt;cell_line</title>
<path fill="none" stroke="#000000" d="M290.948,-347.8909C286.9121,-342.5282 283.1679,-336.374 281.0433,-330 278.9351,-323.6754 279.8671,-321.5621 281.0433,-315 289.156,-269.7369 295.7174,-248.1678 337.0433,-228 460.8727,-167.5689 879.6456,-124.3731 1034.685,-110.1102"/>
<polygon fill="#000000" stroke="#000000" points="1035.3073,-113.568 1044.9475,-109.173 1034.6706,-106.597 1035.3073,-113.568"/>
<text text-anchor="middle" x="445.5433" y="-231.8" font-family="Times,serif" font-size="14.00" fill="#000000">of_single_cell_sequencing_file</text>
</g>
<!-- single_cell_sequencing_file&#45;&gt;sample -->
<g id="edge28" class="edge">
<title>single_cell_sequencing_file&#45;&gt;sample</title>
<path fill="none" stroke="#000000" d="M292.616,-347.8421C285.807,-337.5395 280.807,-324.7895 288.0433,-315 336.6797,-249.2032 384.1025,-278.4412 464.0433,-261 632.1349,-224.3262 835.3213,-204.2036 930.2649,-196.176"/>
<polygon fill="#000000" stroke="#000000" points="930.8042,-199.6433 940.4786,-195.3239 930.2222,-192.6675 930.8042,-199.6433"/>
<text text-anchor="middle" x="572.5433" y="-275.3" font-family="Times,serif" font-size="14.00" fill="#000000">of_single_cell_sequencing_file</text>
</g>
<!-- cytogenomic_file -->
<g id="node20" class="node">
<title>cytogenomic_file</title>
<ellipse fill="none" stroke="#000000" cx="1081.0433" cy="-366" rx="89.8845" ry="18"/>
<text text-anchor="middle" x="1081.0433" y="-362.3" font-family="Times,serif" font-size="14.00" fill="#000000">cytogenomic_file</text>
</g>
<!-- cytogenomic_file&#45;&gt;pdx -->
<g id="edge3" class="edge">
<title>cytogenomic_file&#45;&gt;pdx</title>
<path fill="none" stroke="#000000" d="M1004.7469,-356.3519C970.7709,-350.5252 935.7812,-341.8912 924.0433,-330 918.1375,-324.0171 915.0681,-315.6689 913.5547,-307.4568"/>
<polygon fill="#000000" stroke="#000000" points="917.0071,-306.8439 912.3736,-297.3159 910.0541,-307.6538 917.0071,-306.8439"/>
<text text-anchor="middle" x="995.5433" y="-318.8" font-family="Times,serif" font-size="14.00" fill="#000000">of_cytogenomic_file</text>
</g>
<!-- cytogenomic_file&#45;&gt;cell_line -->
<g id="edge2" class="edge">
<title>cytogenomic_file&#45;&gt;cell_line</title>
<path fill="none" stroke="#000000" d="M1163.3936,-358.7288C1208.4921,-353.2362 1258.6655,-344.166 1276.0433,-330 1301.6954,-309.0888 1285.3847,-288.3343 1304.0433,-261 1310.6013,-251.3927 1318.447,-253.6857 1323.0433,-243 1356.3688,-165.5226 1227.4135,-128.5992 1149.1216,-113.6276"/>
<polygon fill="#000000" stroke="#000000" points="1149.3708,-110.1145 1138.9018,-111.742 1148.1007,-116.9984 1149.3708,-110.1145"/>
<text text-anchor="middle" x="1399.5433" y="-231.8" font-family="Times,serif" font-size="14.00" fill="#000000">of_cytogenomic_file</text>
</g>
<!-- cytogenomic_file&#45;&gt;sample -->
<g id="edge1" class="edge">
<title>cytogenomic_file&#45;&gt;sample</title>
<path fill="none" stroke="#000000" d="M1081.1605,-347.9773C1080.4511,-319.6409 1075.35,-264.1775 1048.0433,-228 1042.2903,-220.3782 1034.4246,-214.1345 1026.175,-209.115"/>
<polygon fill="#000000" stroke="#000000" points="1027.6016,-205.9049 1017.1545,-204.1415 1024.2218,-212.0349 1027.6016,-205.9049"/>
<text text-anchor="middle" x="1147.5433" y="-275.3" font-family="Times,serif" font-size="14.00" fill="#000000">of_cytogenomic_file</text>
</g>
<!-- radiology_file -->
<g id="node21" class="node">
<title>radiology_file</title>
<ellipse fill="none" stroke="#000000" cx="1567.0433" cy="-192" rx="73.387" ry="18"/>
<text text-anchor="middle" x="1567.0433" y="-188.3" font-family="Times,serif" font-size="14.00" fill="#000000">radiology_file</text>
</g>
<!-- radiology_file&#45;&gt;participant -->
<g id="edge22" class="edge">
<title>radiology_file&#45;&gt;participant</title>
<path fill="none" stroke="#000000" d="M1594.5185,-175.2278C1615.4891,-163.3562 1645.5352,-148.2981 1674.0433,-141 1778.9001,-114.1566 2094.9045,-107.3176 2238.5585,-105.5841"/>
<polygon fill="#000000" stroke="#000000" points="2238.6396,-109.0835 2248.5984,-105.4679 2238.5586,-102.084 2238.6396,-109.0835"/>
<text text-anchor="middle" x="1733.0433" y="-144.8" font-family="Times,serif" font-size="14.00" fill="#000000">of_radiology_file</text>
</g>
<!-- clinical_measure_file -->
<g id="node22" class="node">
<title>clinical_measure_file</title>
<ellipse fill="none" stroke="#000000" cx="3106.0433" cy="-192" rx="108.5808" ry="18"/>
<text text-anchor="middle" x="3106.0433" y="-188.3" font-family="Times,serif" font-size="14.00" fill="#000000">clinical_measure_file</text>
</g>
<!-- clinical_measure_file&#45;&gt;study -->
<g id="edge29" class="edge">
<title>clinical_measure_file&#45;&gt;study</title>
<path fill="none" stroke="#000000" d="M3087.4717,-174.1098C3068.0957,-153.1682 3042.425,-117.4704 3057.0433,-87 3067.6937,-64.8003 3089.3531,-47.4894 3108.2697,-35.7591"/>
<polygon fill="#000000" stroke="#000000" points="3110.1633,-38.7057 3116.9961,-30.6086 3106.6052,-32.6774 3110.1633,-38.7057"/>
<text text-anchor="middle" x="3143.0433" y="-101.3" font-family="Times,serif" font-size="14.00" fill="#000000">of_clinical_measure_file</text>
</g>
<!-- clinical_measure_file&#45;&gt;participant -->
<g id="edge30" class="edge">
<title>clinical_measure_file&#45;&gt;participant</title>
<path fill="none" stroke="#000000" d="M3026.4327,-179.7246C3013.921,-177.8033 3001.1315,-175.8441 2989.0433,-174 2936.1645,-165.9332 2920.0288,-175.044 2870.0433,-156 2858.6389,-151.655 2858.6182,-144.8677 2847.0433,-141 2804.2608,-126.7044 2520.0374,-113.4561 2383.7208,-107.8363"/>
<polygon fill="#000000" stroke="#000000" points="2383.5097,-104.3248 2373.3748,-107.4127 2383.2233,-111.3189 2383.5097,-104.3248"/>
<text text-anchor="middle" x="2956.0433" y="-144.8" font-family="Times,serif" font-size="14.00" fill="#000000">of_clinical_measure_file</text>
</g>
<!-- sample&#45;&gt;pdx -->
<g id="edge16" class="edge">
<title>sample&#45;&gt;pdx</title>
<path fill="none" stroke="#000000" d="M978.8078,-210.2568C975.2293,-220.5924 969.7293,-233.3424 962.0433,-243 956.5626,-249.8864 949.4545,-256.1058 942.3603,-261.3621"/>
<polygon fill="#000000" stroke="#000000" points="940.3545,-258.4938 934.137,-267.0725 944.3472,-264.2435 940.3545,-258.4938"/>
<text text-anchor="middle" x="1007.5433" y="-231.8" font-family="Times,serif" font-size="14.00" fill="#000000">of_sample</text>
</g>
<!-- sample&#45;&gt;participant -->
<g id="edge17" class="edge">
<title>sample&#45;&gt;participant</title>
<path fill="none" stroke="#000000" d="M1027.1994,-187.5585C1122.7448,-177.8587 1359.4158,-154.5664 1558.0433,-141 1807.7889,-123.9422 2104.6811,-112.2777 2238.8585,-107.4694"/>
<polygon fill="#000000" stroke="#000000" points="2239.1413,-110.9616 2249.0103,-107.1076 2238.8919,-103.9661 2239.1413,-110.9616"/>
<text text-anchor="middle" x="1594.5433" y="-144.8" font-family="Times,serif" font-size="14.00" fill="#000000">of_sample</text>
</g>
<!-- sample&#45;&gt;cell_line -->
<g id="edge15" class="edge">
<title>sample&#45;&gt;cell_line</title>
<path fill="none" stroke="#000000" d="M962.5173,-176.1836C951.1497,-165.8935 941.2116,-152.3305 950.0433,-141 960.7867,-127.2167 1000.7409,-117.896 1035.6946,-112.1982"/>
<polygon fill="#000000" stroke="#000000" points="1036.5234,-115.6114 1045.8666,-110.6159 1035.4474,-108.6946 1036.5234,-115.6114"/>
<text text-anchor="middle" x="986.5433" y="-144.8" font-family="Times,serif" font-size="14.00" fill="#000000">of_sample</text>
</g>
<!-- pathology_file -->
<g id="node24" class="node">
<title>pathology_file</title>
<ellipse fill="none" stroke="#000000" cx="76.0433" cy="-366" rx="76.0865" ry="18"/>
<text text-anchor="middle" x="76.0433" y="-362.3" font-family="Times,serif" font-size="14.00" fill="#000000">pathology_file</text>
</g>
<!-- pathology_file&#45;&gt;pdx -->
<g id="edge19" class="edge">
<title>pathology_file&#45;&gt;pdx</title>
<path fill="none" stroke="#000000" d="M126.6659,-352.3971C174.5445,-340.1904 248.6092,-323.0028 314.0433,-315 436.9697,-299.9657 750.148,-323.8566 871.0433,-297 874.4774,-296.2371 877.982,-295.1984 881.4296,-294.0024"/>
<polygon fill="#000000" stroke="#000000" points="882.8442,-297.2076 890.8892,-290.3134 880.3009,-290.6859 882.8442,-297.2076"/>
<text text-anchor="middle" x="375.0433" y="-318.8" font-family="Times,serif" font-size="14.00" fill="#000000">of_pathology_file</text>
</g>
<!-- pathology_file&#45;&gt;cell_line -->
<g id="edge20" class="edge">
<title>pathology_file&#45;&gt;cell_line</title>
<path fill="none" stroke="#000000" d="M82.9258,-347.8374C86.8029,-337.9972 91.891,-325.6974 97.0433,-315 108.9569,-290.2645 107.5884,-280.3723 127.0433,-261 148.609,-239.5258 158.8619,-239.4907 187.0433,-228 269.919,-194.2083 293.3028,-191.6602 381.0433,-174 495.6679,-150.9286 525.7359,-152.9883 642.0433,-141 782.4458,-126.5281 947.9548,-114.6352 1034.146,-108.8312"/>
<polygon fill="#000000" stroke="#000000" points="1034.5133,-112.3146 1044.2569,-108.1538 1034.0453,-105.3302 1034.5133,-112.3146"/>
<text text-anchor="middle" x="248.0433" y="-231.8" font-family="Times,serif" font-size="14.00" fill="#000000">of_pathology_file</text>
</g>
<!-- pathology_file&#45;&gt;sample -->
<g id="edge18" class="edge">
<title>pathology_file&#45;&gt;sample</title>
<path fill="none" stroke="#000000" d="M87.4245,-348.0364C104.1331,-323.4458 137.8308,-280.1714 179.0433,-261 226.9335,-238.7222 363.4485,-247.8544 416.0433,-243 477.4767,-237.3298 492.6321,-233.9073 554.0433,-228 689.3782,-214.9817 848.9396,-202.3284 930.3592,-196.0655"/>
<polygon fill="#000000" stroke="#000000" points="930.6664,-199.5523 940.3693,-195.2974 930.1308,-192.5728 930.6664,-199.5523"/>
<text text-anchor="middle" x="240.0433" y="-275.3" font-family="Times,serif" font-size="14.00" fill="#000000">of_pathology_file</text>
</g>
<!-- methylation_array_file -->
<g id="node25" class="node">
<title>methylation_array_file</title>
<ellipse fill="none" stroke="#000000" cx="717.0433" cy="-366" rx="115.8798" ry="18"/>
<text text-anchor="middle" x="717.0433" y="-362.3" font-family="Times,serif" font-size="14.00" fill="#000000">methylation_array_file</text>
</g>
<!-- methylation_array_file&#45;&gt;pdx -->
<g id="edge40" class="edge">
<title>methylation_array_file&#45;&gt;pdx</title>
<path fill="none" stroke="#000000" d="M716.4494,-347.8476C717.121,-336.7456 719.9842,-323.1545 729.0433,-315 752.6843,-293.7196 840.3496,-305.3459 871.0433,-297 874.4378,-296.077 877.9166,-294.9337 881.3485,-293.674"/>
<polygon fill="#000000" stroke="#000000" points="882.8002,-296.8631 890.7877,-289.9025 880.2029,-290.3628 882.8002,-296.8631"/>
<text text-anchor="middle" x="820.5433" y="-318.8" font-family="Times,serif" font-size="14.00" fill="#000000">of_methylation_array_file</text>
</g>
<!-- methylation_array_file&#45;&gt;cell_line -->
<g id="edge39" class="edge">
<title>methylation_array_file&#45;&gt;cell_line</title>
<path fill="none" stroke="#000000" d="M823.1026,-358.7898C871.5636,-355.4969 929.7099,-351.548 982.0433,-348 1011.5986,-345.9962 1227.816,-351.6423 1248.0433,-330 1324.6843,-247.9974 1148.7344,-257.2559 1136.0433,-243 1105.7829,-209.0085 1145.7008,-182.5091 1127.0433,-141 1125.1687,-136.8295 1122.6054,-132.838 1119.7206,-129.1311"/>
<polygon fill="#000000" stroke="#000000" points="1122.2607,-126.7193 1113.0339,-121.5118 1116.9994,-131.3366 1122.2607,-126.7193"/>
<text text-anchor="middle" x="1227.5433" y="-231.8" font-family="Times,serif" font-size="14.00" fill="#000000">of_methylation_array_file</text>
</g>
<!-- methylation_array_file&#45;&gt;sample -->
<g id="edge41" class="edge">
<title>methylation_array_file&#45;&gt;sample</title>
<path fill="none" stroke="#000000" d="M704.7837,-348.0476C690.9939,-325.4066 672.9801,-286.3767 693.0433,-261 722.0683,-224.288 854.5149,-205.0646 930.3348,-196.904"/>
<polygon fill="#000000" stroke="#000000" points="931.0595,-200.3474 940.6408,-195.8253 930.3307,-193.3854 931.0595,-200.3474"/>
<text text-anchor="middle" x="784.5433" y="-275.3" font-family="Times,serif" font-size="14.00" fill="#000000">of_methylation_array_file</text>
</g>
</g>
</svg>
