<svg width="2895pt" height="392pt"
 viewBox="0.00 0.00 2895.14 392.00" xmlns="http://www.w3.org/2000/svg" xmlns:xlink="http://www.w3.org/1999/xlink">
<g id="graph0" class="graph" transform="scale(1 1) rotate(0) translate(4 388)">
<title>Perl</title>
<polygon fill="#ffffff" stroke="transparent" points="-4,4 -4,-388 2891.1367,-388 2891.1367,4 -4,4"/>
<!-- participant -->
<g id="node1" class="node">
<title>participant</title>
<ellipse fill="none" stroke="#000000" cx="1423.0444" cy="-105" rx="62.2891" ry="18"/>
<text text-anchor="middle" x="1423.0444" y="-101.3" font-family="Times,serif" font-size="14.00" fill="#000000">participant</text>
</g>
<!-- study -->
<g id="node8" class="node">
<title>study</title>
<ellipse fill="none" stroke="#000000" cx="2217.0444" cy="-18" rx="36.2938" ry="18"/>
<text text-anchor="middle" x="2217.0444" y="-14.3" font-family="Times,serif" font-size="14.00" fill="#000000">study</text>
</g>
<!-- participant&#45;&gt;study -->
<g id="edge2" class="edge">
<title>participant&#45;&gt;study</title>
<path fill="none" stroke="#000000" d="M1481.4291,-98.6027C1632.7382,-82.0235 2035.2313,-37.9216 2171.3332,-23.0087"/>
<polygon fill="#000000" stroke="#000000" points="2171.8596,-26.472 2181.4188,-21.9036 2171.0971,-19.5137 2171.8596,-26.472"/>
<text text-anchor="middle" x="1917.5444" y="-57.8" font-family="Times,serif" font-size="14.00" fill="#000000">of_participant</text>
</g>
<!-- publication -->
<g id="node2" class="node">
<title>publication</title>
<ellipse fill="none" stroke="#000000" cx="63.0444" cy="-105" rx="63.0888" ry="18"/>
<text text-anchor="middle" x="63.0444" y="-101.3" font-family="Times,serif" font-size="14.00" fill="#000000">publication</text>
</g>
<!-- publication&#45;&gt;study -->
<g id="edge29" class="edge">
<title>publication&#45;&gt;study</title>
<path fill="none" stroke="#000000" d="M68.4851,-87.0345C73.0381,-75.4041 80.799,-61.1421 93.0444,-54 139.4591,-26.9288 1862.5072,-19.3089 2170.2543,-18.1627"/>
<polygon fill="#000000" stroke="#000000" points="2170.6127,-21.6615 2180.5997,-18.1246 2170.5869,-14.6615 2170.6127,-21.6615"/>
<text text-anchor="middle" x="144.0444" y="-57.8" font-family="Times,serif" font-size="14.00" fill="#000000">of_publication</text>
</g>
<!-- therapeutic_procedure -->
<g id="node3" class="node">
<title>therapeutic_procedure</title>
<ellipse fill="none" stroke="#000000" cx="1085.0444" cy="-192" rx="117.7793" ry="18"/>
<text text-anchor="middle" x="1085.0444" y="-188.3" font-family="Times,serif" font-size="14.00" fill="#000000">therapeutic_procedure</text>
</g>
<!-- therapeutic_procedure&#45;&gt;participant -->
<g id="edge11" class="edge">
<title>therapeutic_procedure&#45;&gt;participant</title>
<path fill="none" stroke="#000000" d="M1092.3214,-173.8766C1097.8842,-162.4891 1106.7089,-148.5686 1119.0444,-141 1156.599,-117.9579 1273.0311,-109.662 1350.4126,-106.6766"/>
<polygon fill="#000000" stroke="#000000" points="1350.7227,-110.1677 1360.5885,-106.3057 1350.4677,-103.1723 1350.7227,-110.1677"/>
<text text-anchor="middle" x="1212.0444" y="-144.8" font-family="Times,serif" font-size="14.00" fill="#000000">of_therapeutic_procedure</text>
</g>
<!-- study_arm -->
<g id="node4" class="node">
<title>study_arm</title>
<ellipse fill="none" stroke="#000000" cx="204.0444" cy="-105" rx="59.5901" ry="18"/>
<text text-anchor="middle" x="204.0444" y="-101.3" font-family="Times,serif" font-size="14.00" fill="#000000">study_arm</text>
</g>
<!-- study_arm&#45;&gt;study -->
<g id="edge22" class="edge">
<title>study_arm&#45;&gt;study</title>
<path fill="none" stroke="#000000" d="M198.7872,-87.0039C196.7658,-75.9643 196.6461,-62.3839 205.0444,-54 223.0175,-36.0577 1869.558,-20.9985 2170.2014,-18.3971"/>
<polygon fill="#000000" stroke="#000000" points="2170.3541,-21.896 2180.3236,-18.3098 2170.2937,-14.8963 2170.3541,-21.896"/>
<text text-anchor="middle" x="253.5444" y="-57.8" font-family="Times,serif" font-size="14.00" fill="#000000">of_study_arm</text>
</g>
<!-- follow_up -->
<g id="node5" class="node">
<title>follow_up</title>
<ellipse fill="none" stroke="#000000" cx="1276.0444" cy="-192" rx="55.4913" ry="18"/>
<text text-anchor="middle" x="1276.0444" y="-188.3" font-family="Times,serif" font-size="14.00" fill="#000000">follow_up</text>
</g>
<!-- follow_up&#45;&gt;participant -->
<g id="edge5" class="edge">
<title>follow_up&#45;&gt;participant</title>
<path fill="none" stroke="#000000" d="M1290.8419,-174.5432C1300.757,-163.7187 1314.6013,-150.1755 1329.0444,-141 1336.8852,-136.0189 1354.425,-128.9664 1372.2558,-122.4219"/>
<polygon fill="#000000" stroke="#000000" points="1373.9157,-125.5437 1382.132,-118.8547 1371.5377,-118.96 1373.9157,-125.5437"/>
<text text-anchor="middle" x="1374.0444" y="-144.8" font-family="Times,serif" font-size="14.00" fill="#000000">of_follow_up</text>
</g>
<!-- radiology_file -->
<g id="node6" class="node">
<title>radiology_file</title>
<ellipse fill="none" stroke="#000000" cx="1423.0444" cy="-192" rx="73.387" ry="18"/>
<text text-anchor="middle" x="1423.0444" y="-188.3" font-family="Times,serif" font-size="14.00" fill="#000000">radiology_file</text>
</g>
<!-- radiology_file&#45;&gt;participant -->
<g id="edge18" class="edge">
<title>radiology_file&#45;&gt;participant</title>
<path fill="none" stroke="#000000" d="M1423.0444,-173.9735C1423.0444,-162.1918 1423.0444,-146.5607 1423.0444,-133.1581"/>
<polygon fill="#000000" stroke="#000000" points="1426.5445,-133.0033 1423.0444,-123.0034 1419.5445,-133.0034 1426.5445,-133.0033"/>
<text text-anchor="middle" x="1482.0444" y="-144.8" font-family="Times,serif" font-size="14.00" fill="#000000">of_radiology_file</text>
</g>
<!-- synonym -->
<g id="node7" class="node">
<title>synonym</title>
<ellipse fill="none" stroke="#000000" cx="758.0444" cy="-279" rx="51.9908" ry="18"/>
<text text-anchor="middle" x="758.0444" y="-275.3" font-family="Times,serif" font-size="14.00" fill="#000000">synonym</text>
</g>
<!-- synonym&#45;&gt;participant -->
<g id="edge24" class="edge">
<title>synonym&#45;&gt;participant</title>
<path fill="none" stroke="#000000" d="M753.5422,-260.7507C748.9818,-237.4267 745.3394,-197.2887 767.0444,-174 806.2711,-131.9114 1188.1653,-113.3821 1350.5589,-107.3603"/>
<polygon fill="#000000" stroke="#000000" points="1351.0664,-110.8442 1360.932,-106.9816 1350.811,-103.8488 1351.0664,-110.8442"/>
<text text-anchor="middle" x="809.5444" y="-188.3" font-family="Times,serif" font-size="14.00" fill="#000000">of_synonym</text>
</g>
<!-- synonym&#45;&gt;study -->
<g id="edge23" class="edge">
<title>synonym&#45;&gt;study</title>
<path fill="none" stroke="#000000" d="M707.6343,-274.4173C600.7162,-264.1884 358.9905,-238.1687 335.0444,-210 313.8186,-185.0312 332.0497,-156.2735 361.0444,-141 525.6302,-54.3014 1897.5761,-24.0262 2170.0903,-18.8418"/>
<polygon fill="#000000" stroke="#000000" points="2170.4859,-22.3351 2180.4182,-18.6474 2170.3541,-15.3363 2170.4859,-22.3351"/>
<text text-anchor="middle" x="403.5444" y="-144.8" font-family="Times,serif" font-size="14.00" fill="#000000">of_synonym</text>
</g>
<!-- sample -->
<g id="node16" class="node">
<title>sample</title>
<ellipse fill="none" stroke="#000000" cx="905.0444" cy="-192" rx="44.393" ry="18"/>
<text text-anchor="middle" x="905.0444" y="-188.3" font-family="Times,serif" font-size="14.00" fill="#000000">sample</text>
</g>
<!-- synonym&#45;&gt;sample -->
<g id="edge25" class="edge">
<title>synonym&#45;&gt;sample</title>
<path fill="none" stroke="#000000" d="M766.0899,-261.1373C771.8732,-250.1508 780.6549,-236.5797 792.0444,-228 793.5237,-226.8856 829.0558,-215.6457 859.8839,-206.0176"/>
<polygon fill="#000000" stroke="#000000" points="861.1741,-209.2816 869.6787,-202.9632 859.0901,-202.599 861.1741,-209.2816"/>
<text text-anchor="middle" x="834.5444" y="-231.8" font-family="Times,serif" font-size="14.00" fill="#000000">of_synonym</text>
</g>
<!-- single_cell_sequencing_file -->
<g id="node9" class="node">
<title>single_cell_sequencing_file</title>
<ellipse fill="none" stroke="#000000" cx="1177.0444" cy="-366" rx="137.5759" ry="18"/>
<text text-anchor="middle" x="1177.0444" y="-362.3" font-family="Times,serif" font-size="14.00" fill="#000000">single_cell_sequencing_file</text>
</g>
<!-- single_cell_sequencing_file&#45;&gt;sample -->
<g id="edge14" class="edge">
<title>single_cell_sequencing_file&#45;&gt;sample</title>
<path fill="none" stroke="#000000" d="M1076.9841,-353.55C1008.5107,-342.7368 926.3964,-324.4448 905.0444,-297 888.2514,-275.4151 891.1408,-243.0688 896.4108,-219.987"/>
<polygon fill="#000000" stroke="#000000" points="899.851,-220.6611 898.9376,-210.1057 893.0692,-218.9268 899.851,-220.6611"/>
<text text-anchor="middle" x="1013.5444" y="-275.3" font-family="Times,serif" font-size="14.00" fill="#000000">of_single_cell_sequencing_file</text>
</g>
<!-- pdx -->
<g id="node19" class="node">
<title>pdx</title>
<ellipse fill="none" stroke="#000000" cx="1495.0444" cy="-279" rx="27.8951" ry="18"/>
<text text-anchor="middle" x="1495.0444" y="-275.3" font-family="Times,serif" font-size="14.00" fill="#000000">pdx</text>
</g>
<!-- single_cell_sequencing_file&#45;&gt;pdx -->
<g id="edge13" class="edge">
<title>single_cell_sequencing_file&#45;&gt;pdx</title>
<path fill="none" stroke="#000000" d="M1177.1974,-347.7583C1178.3184,-336.6206 1181.7169,-323.0234 1191.0444,-315 1201.0338,-306.4072 1378.0322,-289.5191 1457.2513,-282.348"/>
<polygon fill="#000000" stroke="#000000" points="1457.6606,-285.8254 1467.3063,-281.4425 1457.0327,-278.8536 1457.6606,-285.8254"/>
<text text-anchor="middle" x="1299.5444" y="-318.8" font-family="Times,serif" font-size="14.00" fill="#000000">of_single_cell_sequencing_file</text>
</g>
<!-- cell_line -->
<g id="node22" class="node">
<title>cell_line</title>
<ellipse fill="none" stroke="#000000" cx="2417.0444" cy="-279" rx="49.2915" ry="18"/>
<text text-anchor="middle" x="2417.0444" y="-275.3" font-family="Times,serif" font-size="14.00" fill="#000000">cell_line</text>
</g>
<!-- single_cell_sequencing_file&#45;&gt;cell_line -->
<g id="edge12" class="edge">
<title>single_cell_sequencing_file&#45;&gt;cell_line</title>
<path fill="none" stroke="#000000" d="M1273.6597,-353.1292C1290.7545,-351.1719 1308.4046,-349.3564 1325.0444,-348 1372.9272,-344.0968 1711.9978,-346.6973 1757.0444,-330 1767.1325,-326.2607 1765.9368,-318.6863 1776.0444,-315 1836.4086,-292.9851 2290.5585,-306.9014 2354.0444,-297 2359.4533,-296.1564 2365.055,-294.9939 2370.5858,-293.6621"/>
<polygon fill="#000000" stroke="#000000" points="2371.6069,-297.0132 2380.4078,-291.1146 2369.8494,-290.2374 2371.6069,-297.0132"/>
<text text-anchor="middle" x="1884.5444" y="-318.8" font-family="Times,serif" font-size="14.00" fill="#000000">of_single_cell_sequencing_file</text>
</g>
<!-- study_funding -->
<g id="node10" class="node">
<title>study_funding</title>
<ellipse fill="none" stroke="#000000" cx="2422.0444" cy="-105" rx="77.1866" ry="18"/>
<text text-anchor="middle" x="2422.0444" y="-101.3" font-family="Times,serif" font-size="14.00" fill="#000000">study_funding</text>
</g>
<!-- study_funding&#45;&gt;study -->
<g id="edge4" class="edge">
<title>study_funding&#45;&gt;study</title>
<path fill="none" stroke="#000000" d="M2395.312,-88.0966C2377.5626,-77.3604 2353.4834,-63.7087 2331.0444,-54 2307.9183,-43.994 2281.0877,-35.3819 2259.2674,-29.092"/>
<polygon fill="#000000" stroke="#000000" points="2260.2006,-25.7188 2249.6257,-26.3689 2258.2979,-32.4552 2260.2006,-25.7188"/>
<text text-anchor="middle" x="2421.0444" y="-57.8" font-family="Times,serif" font-size="14.00" fill="#000000">of_study_funding</text>
</g>
<!-- diagnosis -->
<g id="node11" class="node">
<title>diagnosis</title>
<ellipse fill="none" stroke="#000000" cx="1569.0444" cy="-192" rx="54.6905" ry="18"/>
<text text-anchor="middle" x="1569.0444" y="-188.3" font-family="Times,serif" font-size="14.00" fill="#000000">diagnosis</text>
</g>
<!-- diagnosis&#45;&gt;participant -->
<g id="edge9" class="edge">
<title>diagnosis&#45;&gt;participant</title>
<path fill="none" stroke="#000000" d="M1564.5078,-173.6139C1560.9235,-162.7059 1554.849,-149.4094 1545.0444,-141 1535.2716,-132.6179 1509.0909,-124.4029 1483.4767,-117.9417"/>
<polygon fill="#000000" stroke="#000000" points="1484.2684,-114.5323 1473.723,-115.5546 1482.6043,-121.3316 1484.2684,-114.5323"/>
<text text-anchor="middle" x="1600.5444" y="-144.8" font-family="Times,serif" font-size="14.00" fill="#000000">of_diagnosis</text>
</g>
<!-- clinical_measure_file -->
<g id="node12" class="node">
<title>clinical_measure_file</title>
<ellipse fill="none" stroke="#000000" cx="2180.0444" cy="-192" rx="108.5808" ry="18"/>
<text text-anchor="middle" x="2180.0444" y="-188.3" font-family="Times,serif" font-size="14.00" fill="#000000">clinical_measure_file</text>
</g>
<!-- clinical_measure_file&#45;&gt;participant -->
<g id="edge6" class="edge">
<title>clinical_measure_file&#45;&gt;participant</title>
<path fill="none" stroke="#000000" d="M2099.4234,-179.8281C2057.386,-172.8496 2010.7177,-163.9277 1991.0444,-156 1979.7249,-151.4386 1979.6215,-144.8613 1968.0444,-141 1924.358,-126.4291 1633.1403,-113.242 1495.222,-107.729"/>
<polygon fill="#000000" stroke="#000000" points="1495.2931,-104.2291 1485.1621,-107.3296 1495.0154,-111.2236 1495.2931,-104.2291"/>
<text text-anchor="middle" x="2120.5444" y="-144.8" font-family="Times,serif" font-size="14.00" fill="#000000">of_clinical_measure_file_participant</text>
</g>
<!-- clinical_measure_file&#45;&gt;study -->
<g id="edge31" class="edge">
<title>clinical_measure_file&#45;&gt;study</title>
<path fill="none" stroke="#000000" d="M2228.2833,-175.6946C2247.1648,-166.7405 2261.8103,-154.6795 2250.0444,-141 2215.1638,-100.4466 2165.925,-163.5534 2131.0444,-123 2105.4441,-93.2361 2149.5938,-57.7392 2183.547,-36.5788"/>
<polygon fill="#000000" stroke="#000000" points="2185.5972,-39.4294 2192.348,-31.2638 2181.9785,-33.4373 2185.5972,-39.4294"/>
<text text-anchor="middle" x="2217.0444" y="-101.3" font-family="Times,serif" font-size="14.00" fill="#000000">of_clinical_measure_file</text>
</g>
<!-- pathology_file -->
<g id="node13" class="node">
<title>pathology_file</title>
<ellipse fill="none" stroke="#000000" cx="2551.0444" cy="-366" rx="76.0865" ry="18"/>
<text text-anchor="middle" x="2551.0444" y="-362.3" font-family="Times,serif" font-size="14.00" fill="#000000">pathology_file</text>
</g>
<!-- pathology_file&#45;&gt;sample -->
<g id="edge28" class="edge">
<title>pathology_file&#45;&gt;sample</title>
<path fill="none" stroke="#000000" d="M2618.671,-357.525C2652.1419,-350.3893 2682.0992,-337.5774 2665.0444,-315 2546.8892,-158.5845 2538.134,-257.8328 1632.0444,-228 1482.2944,-223.0695 1105.5334,-236.3892 958.0444,-210 954.3347,-209.3363 950.5327,-208.4605 946.7514,-207.4523"/>
<polygon fill="#000000" stroke="#000000" points="947.4505,-204.0092 936.8684,-204.5284 945.4647,-210.7216 947.4505,-204.0092"/>
<text text-anchor="middle" x="2710.0444" y="-275.3" font-family="Times,serif" font-size="14.00" fill="#000000">of_pathology_file</text>
</g>
<!-- pathology_file&#45;&gt;pdx -->
<g id="edge27" class="edge">
<title>pathology_file&#45;&gt;pdx</title>
<path fill="none" stroke="#000000" d="M2486.3193,-356.5117C2459.6321,-351.0274 2428.9551,-342.6267 2403.0444,-330 2393.3728,-325.2869 2394.1347,-318.7334 2384.0444,-315 2343.6439,-300.0518 1698.4691,-283.8162 1533.3141,-279.8902"/>
<polygon fill="#000000" stroke="#000000" points="1533.2213,-276.3871 1523.1413,-279.6495 1533.0557,-283.3851 1533.2213,-276.3871"/>
<text text-anchor="middle" x="2464.0444" y="-318.8" font-family="Times,serif" font-size="14.00" fill="#000000">of_pathology_file</text>
</g>
<!-- pathology_file&#45;&gt;cell_line -->
<g id="edge26" class="edge">
<title>pathology_file&#45;&gt;cell_line</title>
<path fill="none" stroke="#000000" d="M2547.1923,-347.7178C2544.0221,-336.8489 2538.4674,-323.557 2529.0444,-315 2513.7166,-301.0809 2492.9657,-292.5404 2473.4902,-287.3013"/>
<polygon fill="#000000" stroke="#000000" points="2474.3061,-283.8977 2463.7605,-284.9186 2472.641,-290.6968 2474.3061,-283.8977"/>
<text text-anchor="middle" x="2600.0444" y="-318.8" font-family="Times,serif" font-size="14.00" fill="#000000">of_pathology_file</text>
</g>
<!-- methylation_array_file -->
<g id="node14" class="node">
<title>methylation_array_file</title>
<ellipse fill="none" stroke="#000000" cx="2167.0444" cy="-366" rx="115.8798" ry="18"/>
<text text-anchor="middle" x="2167.0444" y="-362.3" font-family="Times,serif" font-size="14.00" fill="#000000">methylation_array_file</text>
</g>
<!-- methylation_array_file&#45;&gt;sample -->
<g id="edge34" class="edge">
<title>methylation_array_file&#45;&gt;sample</title>
<path fill="none" stroke="#000000" d="M2166.953,-347.964C2165.8729,-336.7629 2162.4966,-323.0188 2153.0444,-315 2011.2871,-194.7397 1506.3924,-242.2754 1321.0444,-228 1159.9898,-215.5957 1116.7155,-240.2644 958.0444,-210 954.3933,-209.3036 950.65,-208.4134 946.9236,-207.403"/>
<polygon fill="#000000" stroke="#000000" points="947.7572,-203.9994 937.1741,-204.4978 945.7581,-210.7079 947.7572,-203.9994"/>
<text text-anchor="middle" x="2217.5444" y="-275.3" font-family="Times,serif" font-size="14.00" fill="#000000">of_methylation_array_file</text>
</g>
<!-- methylation_array_file&#45;&gt;pdx -->
<g id="edge35" class="edge">
<title>methylation_array_file&#45;&gt;pdx</title>
<path fill="none" stroke="#000000" d="M2053.6003,-362.2411C1894.145,-356.4805 1618.1735,-344.5881 1574.0444,-330 1562.4571,-326.1695 1561.2885,-321.6331 1551.0444,-315 1542.0946,-309.205 1532.3232,-302.9117 1523.4844,-297.2318"/>
<polygon fill="#000000" stroke="#000000" points="1525.3273,-294.2557 1515.0216,-291.7975 1521.545,-300.1459 1525.3273,-294.2557"/>
<text text-anchor="middle" x="1665.5444" y="-318.8" font-family="Times,serif" font-size="14.00" fill="#000000">of_methylation_array_file</text>
</g>
<!-- methylation_array_file&#45;&gt;cell_line -->
<g id="edge36" class="edge">
<title>methylation_array_file&#45;&gt;cell_line</title>
<path fill="none" stroke="#000000" d="M2174.3195,-347.8735C2179.8815,-336.4847 2188.7061,-322.5639 2201.0444,-315 2259.4176,-279.215 2286.9092,-310.4486 2354.0444,-297 2359.074,-295.9925 2364.2864,-294.7814 2369.4612,-293.4697"/>
<polygon fill="#000000" stroke="#000000" points="2370.5441,-296.8035 2379.3084,-290.8504 2368.7447,-290.0387 2370.5441,-296.8035"/>
<text text-anchor="middle" x="2292.5444" y="-318.8" font-family="Times,serif" font-size="14.00" fill="#000000">of_methylation_array_file</text>
</g>
<!-- medical_history -->
<g id="node15" class="node">
<title>medical_history</title>
<ellipse fill="none" stroke="#000000" cx="1727.0444" cy="-192" rx="85.2851" ry="18"/>
<text text-anchor="middle" x="1727.0444" y="-188.3" font-family="Times,serif" font-size="14.00" fill="#000000">medical_history</text>
</g>
<!-- medical_history&#45;&gt;participant -->
<g id="edge17" class="edge">
<title>medical_history&#45;&gt;participant</title>
<path fill="none" stroke="#000000" d="M1705.5549,-174.3611C1690.6067,-163.0295 1669.722,-148.9849 1649.0444,-141 1621.0439,-130.1873 1547.3675,-119.5974 1491.6869,-112.7341"/>
<polygon fill="#000000" stroke="#000000" points="1491.864,-109.2299 1481.5145,-111.4967 1491.0187,-116.1787 1491.864,-109.2299"/>
<text text-anchor="middle" x="1746.0444" y="-144.8" font-family="Times,serif" font-size="14.00" fill="#000000">of_medical_history</text>
</g>
<!-- sample&#45;&gt;participant -->
<g id="edge16" class="edge">
<title>sample&#45;&gt;participant</title>
<path fill="none" stroke="#000000" d="M932.0828,-177.7436C956.0717,-165.7992 992.4254,-149.3935 1026.0444,-141 1085.7878,-126.0842 1254.3035,-114.5099 1351.5024,-108.8389"/>
<polygon fill="#000000" stroke="#000000" points="1351.7643,-112.3297 1361.5459,-108.2591 1351.3608,-105.3414 1351.7643,-112.3297"/>
<text text-anchor="middle" x="1062.5444" y="-144.8" font-family="Times,serif" font-size="14.00" fill="#000000">of_sample</text>
</g>
<!-- study_admin -->
<g id="node17" class="node">
<title>study_admin</title>
<ellipse fill="none" stroke="#000000" cx="2625.0444" cy="-105" rx="70.3881" ry="18"/>
<text text-anchor="middle" x="2625.0444" y="-101.3" font-family="Times,serif" font-size="14.00" fill="#000000">study_admin</text>
</g>
<!-- study_admin&#45;&gt;study -->
<g id="edge1" class="edge">
<title>study_admin&#45;&gt;study</title>
<path fill="none" stroke="#000000" d="M2602.8607,-87.8172C2586.6573,-76.2291 2563.6549,-61.6981 2541.0444,-54 2490.8984,-36.927 2340.8464,-25.5734 2263.8103,-20.7038"/>
<polygon fill="#000000" stroke="#000000" points="2263.6405,-17.1866 2253.4427,-20.0598 2263.2065,-24.1731 2263.6405,-17.1866"/>
<text text-anchor="middle" x="2628.5444" y="-57.8" font-family="Times,serif" font-size="14.00" fill="#000000">of_study_admin</text>
</g>
<!-- study_personnel -->
<g id="node18" class="node">
<title>study_personnel</title>
<ellipse fill="none" stroke="#000000" cx="2800.0444" cy="-105" rx="87.1846" ry="18"/>
<text text-anchor="middle" x="2800.0444" y="-101.3" font-family="Times,serif" font-size="14.00" fill="#000000">study_personnel</text>
</g>
<!-- study_personnel&#45;&gt;study -->
<g id="edge15" class="edge">
<title>study_personnel&#45;&gt;study</title>
<path fill="none" stroke="#000000" d="M2770.4951,-87.9099C2748.7251,-76.2067 2717.9921,-61.4967 2689.0444,-54 2609.5322,-33.4083 2366.4311,-23.0252 2263.6768,-19.4627"/>
<polygon fill="#000000" stroke="#000000" points="2263.7122,-15.962 2253.5989,-19.1197 2263.474,-22.9579 2263.7122,-15.962"/>
<text text-anchor="middle" x="2799.5444" y="-57.8" font-family="Times,serif" font-size="14.00" fill="#000000">of_study_personnel</text>
</g>
<!-- pdx&#45;&gt;study -->
<g id="edge8" class="edge">
<title>pdx&#45;&gt;study</title>
<path fill="none" stroke="#000000" d="M1523.2722,-278.7148C1659.3048,-277.0618 2242.9397,-266.6872 2298.0444,-210 2336.18,-170.7692 2326.71,-136.3287 2303.0444,-87 2292.394,-64.8003 2270.7345,-47.4894 2251.818,-35.7591"/>
<polygon fill="#000000" stroke="#000000" points="2253.4824,-32.6774 2243.0915,-30.6086 2249.9244,-38.7057 2253.4824,-32.6774"/>
<text text-anchor="middle" x="2347.0444" y="-144.8" font-family="Times,serif" font-size="14.00" fill="#000000">of_pdx</text>
</g>
<!-- pdx&#45;&gt;sample -->
<g id="edge7" class="edge">
<title>pdx&#45;&gt;sample</title>
<path fill="none" stroke="#000000" d="M1468.0369,-274.3452C1410.9542,-264.6322 1273.7775,-241.9523 1158.0444,-228 1069.4378,-217.318 1045.3582,-228.4806 958.0444,-210 954.4585,-209.241 950.7787,-208.3149 947.1106,-207.2875"/>
<polygon fill="#000000" stroke="#000000" points="948.0857,-203.9258 937.5004,-204.376 946.0561,-210.6252 948.0857,-203.9258"/>
<text text-anchor="middle" x="1293.0444" y="-231.8" font-family="Times,serif" font-size="14.00" fill="#000000">of_pdx</text>
</g>
<!-- exposure -->
<g id="node20" class="node">
<title>exposure</title>
<ellipse fill="none" stroke="#000000" cx="1883.0444" cy="-192" rx="53.0913" ry="18"/>
<text text-anchor="middle" x="1883.0444" y="-188.3" font-family="Times,serif" font-size="14.00" fill="#000000">exposure</text>
</g>
<!-- exposure&#45;&gt;participant -->
<g id="edge3" class="edge">
<title>exposure&#45;&gt;participant</title>
<path fill="none" stroke="#000000" d="M1866.597,-174.6415C1854.3973,-162.9706 1836.7073,-148.4129 1818.0444,-141 1761.2567,-118.444 1593.3742,-109.8605 1495.7188,-106.7169"/>
<polygon fill="#000000" stroke="#000000" points="1495.7267,-103.2156 1485.6228,-106.4032 1495.5092,-110.2122 1495.7267,-103.2156"/>
<text text-anchor="middle" x="1886.5444" y="-144.8" font-family="Times,serif" font-size="14.00" fill="#000000">of_exposure</text>
</g>
<!-- molecular_test -->
<g id="node21" class="node">
<title>molecular_test</title>
<ellipse fill="none" stroke="#000000" cx="424.0444" cy="-192" rx="79.8859" ry="18"/>
<text text-anchor="middle" x="424.0444" y="-188.3" font-family="Times,serif" font-size="14.00" fill="#000000">molecular_test</text>
</g>
<!-- molecular_test&#45;&gt;participant -->
<g id="edge10" class="edge">
<title>molecular_test&#45;&gt;participant</title>
<path fill="none" stroke="#000000" d="M434.202,-173.9406C441.8517,-162.2684 453.5015,-147.9948 468.0444,-141 507.5805,-121.984 1133.8429,-109.8138 1350.1998,-106.1598"/>
<polygon fill="#000000" stroke="#000000" points="1350.5556,-109.6545 1360.4955,-105.9872 1350.4382,-102.6555 1350.5556,-109.6545"/>
<text text-anchor="middle" x="532.0444" y="-144.8" font-family="Times,serif" font-size="14.00" fill="#000000">of_molecular_test</text>
</g>
<!-- cell_line&#45;&gt;participant -->
<g id="edge32" class="edge">
<title>cell_line&#45;&gt;participant</title>
<path fill="none" stroke="#000000" d="M2378.8759,-267.5004C2370.7173,-265.2094 2362.1231,-262.9205 2354.0444,-261 2277.8914,-242.8965 2258.5633,-238.8548 2181.0444,-228 2136.8515,-221.8118 2019.5172,-232.6087 1981.0444,-210 1949.0541,-191.2008 1966.2158,-159.4877 1934.0444,-141 1896.9852,-119.7034 1627.4231,-110.0909 1495.4499,-106.6238"/>
<polygon fill="#000000" stroke="#000000" points="1495.5089,-103.1243 1485.422,-106.3652 1495.3284,-110.1219 1495.5089,-103.1243"/>
<text text-anchor="middle" x="2021.5444" y="-188.3" font-family="Times,serif" font-size="14.00" fill="#000000">of_cell_line</text>
</g>
<!-- cell_line&#45;&gt;study -->
<g id="edge33" class="edge">
<title>cell_line&#45;&gt;study</title>
<path fill="none" stroke="#000000" d="M2432.1405,-261.7942C2469.4626,-217.4098 2558.0708,-99.3565 2487.0444,-54 2451.009,-30.9883 2331.1689,-22.5237 2263.8947,-19.5368"/>
<polygon fill="#000000" stroke="#000000" points="2263.7079,-16.0259 2253.5698,-19.1031 2263.4141,-23.0198 2263.7079,-16.0259"/>
<text text-anchor="middle" x="2546.5444" y="-144.8" font-family="Times,serif" font-size="14.00" fill="#000000">of_cell_line</text>
</g>
<!-- family_relationship -->
<g id="node23" class="node">
<title>family_relationship</title>
<ellipse fill="none" stroke="#000000" cx="622.0444" cy="-192" rx="100.1823" ry="18"/>
<text text-anchor="middle" x="622.0444" y="-188.3" font-family="Times,serif" font-size="14.00" fill="#000000">family_relationship</text>
</g>
<!-- family_relationship&#45;&gt;participant -->
<g id="edge30" class="edge">
<title>family_relationship&#45;&gt;participant</title>
<path fill="none" stroke="#000000" d="M607.4345,-173.9975C600.5285,-163.2338 595.4751,-149.9543 604.0444,-141 629.633,-114.262 1154.4472,-107.2071 1350.2399,-105.5019"/>
<polygon fill="#000000" stroke="#000000" points="1350.459,-109.0003 1360.4289,-105.4155 1350.3995,-102.0005 1350.459,-109.0003"/>
<text text-anchor="middle" x="683.5444" y="-144.8" font-family="Times,serif" font-size="14.00" fill="#000000">of_family_relationship</text>
</g>
<!-- sequencing_file -->
<g id="node24" class="node">
<title>sequencing_file</title>
<ellipse fill="none" stroke="#000000" cx="1417.0444" cy="-366" rx="83.3857" ry="18"/>
<text text-anchor="middle" x="1417.0444" y="-362.3" font-family="Times,serif" font-size="14.00" fill="#000000">sequencing_file</text>
</g>
<!-- sequencing_file&#45;&gt;sample -->
<g id="edge19" class="edge">
<title>sequencing_file&#45;&gt;sample</title>
<path fill="none" stroke="#000000" d="M1356.1197,-353.581C1345.4516,-351.5859 1334.4409,-349.6406 1324.0444,-348 1259.0276,-337.7401 1234.4949,-362.1229 1177.0444,-330 1142.8148,-310.8608 1154.4191,-283.1326 1122.0444,-261 1059.0303,-217.9211 1030.6336,-233.6088 958.0444,-210 954.9486,-208.9931 951.7555,-207.9416 948.5435,-206.8742"/>
<polygon fill="#000000" stroke="#000000" points="949.5233,-203.5113 938.9294,-203.6537 947.2999,-210.1488 949.5233,-203.5113"/>
<text text-anchor="middle" x="1214.5444" y="-275.3" font-family="Times,serif" font-size="14.00" fill="#000000">of_sequencing_file</text>
</g>
<!-- sequencing_file&#45;&gt;pdx -->
<g id="edge20" class="edge">
<title>sequencing_file&#45;&gt;pdx</title>
<path fill="none" stroke="#000000" d="M1412.91,-347.6274C1411.6152,-337.2532 1411.8652,-324.5032 1418.0444,-315 1427.1508,-300.995 1443.2601,-292.3365 1458.3983,-287.0347"/>
<polygon fill="#000000" stroke="#000000" points="1459.6118,-290.3228 1468.1227,-284.0129 1457.5345,-283.6381 1459.6118,-290.3228"/>
<text text-anchor="middle" x="1484.5444" y="-318.8" font-family="Times,serif" font-size="14.00" fill="#000000">of_sequencing_file</text>
</g>
<!-- sequencing_file&#45;&gt;cell_line -->
<g id="edge21" class="edge">
<title>sequencing_file&#45;&gt;cell_line</title>
<path fill="none" stroke="#000000" d="M1499.3927,-363.1643C1636.0561,-358.0758 1903.8902,-346.3764 1997.0444,-330 2020.3143,-325.9092 2024.7679,-319.0532 2048.0444,-315 2182.2598,-291.6288 2219.7394,-319.8509 2354.0444,-297 2359.3711,-296.0937 2364.89,-294.904 2370.3464,-293.5674"/>
<polygon fill="#000000" stroke="#000000" points="2371.2558,-296.9473 2380.0455,-291.032 2369.4854,-290.1749 2371.2558,-296.9473"/>
<text text-anchor="middle" x="2114.5444" y="-318.8" font-family="Times,serif" font-size="14.00" fill="#000000">of_sequencing_file</text>
</g>
</g>
</svg>
