<svg width="2948pt" height="305pt"
 viewBox="0.00 0.00 2948.04 305.00" xmlns="http://www.w3.org/2000/svg" xmlns:xlink="http://www.w3.org/1999/xlink">
<g id="graph0" class="graph" transform="scale(1 1) rotate(0) translate(4 301)">
<title>Perl</title>
<polygon fill="#ffffff" stroke="transparent" points="-4,4 -4,-301 2944.0398,-301 2944.0398,4 -4,4"/>
<!-- participant -->
<g id="node1" class="node">
<title>participant</title>
<ellipse fill="none" stroke="#000000" cx="1426.9475" cy="-105" rx="62.2891" ry="18"/>
<text text-anchor="middle" x="1426.9475" y="-101.3" font-family="Times,serif" font-size="14.00" fill="#000000">participant</text>
</g>
<!-- study -->
<g id="node16" class="node">
<title>study</title>
<ellipse fill="none" stroke="#000000" cx="2271.9475" cy="-18" rx="36.2938" ry="18"/>
<text text-anchor="middle" x="2271.9475" y="-14.3" font-family="Times,serif" font-size="14.00" fill="#000000">study</text>
</g>
<!-- participant&#45;&gt;study -->
<g id="edge16" class="edge">
<title>participant&#45;&gt;study</title>
<path fill="none" stroke="#000000" d="M1482.4781,-96.6649C1557.0479,-85.6921 1693.7372,-66.3509 1810.9475,-54 1962.3485,-38.0463 2142.4152,-25.9738 2225.5961,-20.787"/>
<polygon fill="#000000" stroke="#000000" points="2225.963,-24.271 2235.7275,-20.1594 2225.5302,-17.2844 2225.963,-24.271"/>
<text text-anchor="middle" x="1861.4475" y="-57.8" font-family="Times,serif" font-size="14.00" fill="#000000">of_participant</text>
</g>
<!-- pdx -->
<g id="node2" class="node">
<title>pdx</title>
<ellipse fill="none" stroke="#000000" cx="27.9475" cy="-279" rx="27.8951" ry="18"/>
<text text-anchor="middle" x="27.9475" y="-275.3" font-family="Times,serif" font-size="14.00" fill="#000000">pdx</text>
</g>
<!-- sample -->
<g id="node4" class="node">
<title>sample</title>
<ellipse fill="none" stroke="#000000" cx="535.9475" cy="-192" rx="44.393" ry="18"/>
<text text-anchor="middle" x="535.9475" y="-188.3" font-family="Times,serif" font-size="14.00" fill="#000000">sample</text>
</g>
<!-- pdx&#45;&gt;sample -->
<g id="edge14" class="edge">
<title>pdx&#45;&gt;sample</title>
<path fill="none" stroke="#000000" d="M50.0956,-267.8065C54.95,-265.4709 60.0906,-263.0866 64.9475,-261 74.5422,-256.878 142.771,-230.3425 152.9475,-228 214.128,-213.9171 392.0117,-201.103 482.1901,-195.2895"/>
<polygon fill="#000000" stroke="#000000" points="482.4575,-198.7796 492.2139,-194.6488 482.011,-191.7939 482.4575,-198.7796"/>
<text text-anchor="middle" x="176.9475" y="-231.8" font-family="Times,serif" font-size="14.00" fill="#000000">of_pdx</text>
</g>
<!-- pdx&#45;&gt;study -->
<g id="edge13" class="edge">
<title>pdx&#45;&gt;study</title>
<path fill="none" stroke="#000000" d="M21.6226,-261.3239C19.0076,-250.6831 17.9927,-237.4181 24.9475,-228 151.4683,-56.6685 273.0184,-122.9408 482.9475,-87 832.3533,-27.1802 1979.3973,-19.1815 2225.2782,-18.1485"/>
<polygon fill="#000000" stroke="#000000" points="2225.3248,-21.6484 2235.3106,-18.1082 2225.2966,-14.6485 2225.3248,-21.6484"/>
<text text-anchor="middle" x="139.9475" y="-144.8" font-family="Times,serif" font-size="14.00" fill="#000000">of_pdx</text>
</g>
<!-- study_funding -->
<g id="node3" class="node">
<title>study_funding</title>
<ellipse fill="none" stroke="#000000" cx="2192.9475" cy="-105" rx="77.1866" ry="18"/>
<text text-anchor="middle" x="2192.9475" y="-101.3" font-family="Times,serif" font-size="14.00" fill="#000000">study_funding</text>
</g>
<!-- study_funding&#45;&gt;study -->
<g id="edge12" class="edge">
<title>study_funding&#45;&gt;study</title>
<path fill="none" stroke="#000000" d="M2193.576,-86.9158C2194.7678,-76.3867 2197.7498,-63.3818 2204.9475,-54 2211.9629,-44.8558 2221.9828,-37.7622 2232.143,-32.3839"/>
<polygon fill="#000000" stroke="#000000" points="2233.9359,-35.4054 2241.4311,-27.9172 2230.9021,-29.097 2233.9359,-35.4054"/>
<text text-anchor="middle" x="2266.9475" y="-57.8" font-family="Times,serif" font-size="14.00" fill="#000000">of_study_funding</text>
</g>
<!-- sample&#45;&gt;participant -->
<g id="edge2" class="edge">
<title>sample&#45;&gt;participant</title>
<path fill="none" stroke="#000000" d="M567.1836,-179.1262C598.4193,-166.9084 648.1286,-149.2273 692.9475,-141 818.271,-117.9945 1194.8634,-108.9728 1354.3361,-106.1186"/>
<polygon fill="#000000" stroke="#000000" points="1354.5845,-109.6149 1364.5213,-105.9394 1354.4613,-102.6159 1354.5845,-109.6149"/>
<text text-anchor="middle" x="729.4475" y="-144.8" font-family="Times,serif" font-size="14.00" fill="#000000">of_sample</text>
</g>
<!-- sample&#45;&gt;pdx -->
<g id="edge3" class="edge">
<title>sample&#45;&gt;pdx</title>
<path fill="none" stroke="#000000" d="M491.6656,-193.7267C372.653,-198.5613 53.7142,-212.8718 36.9475,-228 30.5882,-233.7379 27.7155,-242.2678 26.6152,-250.7173"/>
<polygon fill="#000000" stroke="#000000" points="23.1159,-250.6064 26.0368,-260.7906 30.1044,-251.0077 23.1159,-250.6064"/>
<text text-anchor="middle" x="73.4475" y="-231.8" font-family="Times,serif" font-size="14.00" fill="#000000">of_sample</text>
</g>
<!-- cell_line -->
<g id="node9" class="node">
<title>cell_line</title>
<ellipse fill="none" stroke="#000000" cx="540.9475" cy="-105" rx="49.2915" ry="18"/>
<text text-anchor="middle" x="540.9475" y="-101.3" font-family="Times,serif" font-size="14.00" fill="#000000">cell_line</text>
</g>
<!-- sample&#45;&gt;cell_line -->
<g id="edge1" class="edge">
<title>sample&#45;&gt;cell_line</title>
<path fill="none" stroke="#000000" d="M536.9835,-173.9735C537.6606,-162.1918 538.559,-146.5607 539.3292,-133.1581"/>
<polygon fill="#000000" stroke="#000000" points="542.8332,-133.1877 539.9128,-123.0034 535.8448,-132.786 542.8332,-133.1877"/>
<text text-anchor="middle" x="575.4475" y="-144.8" font-family="Times,serif" font-size="14.00" fill="#000000">of_sample</text>
</g>
<!-- follow_up -->
<g id="node5" class="node">
<title>follow_up</title>
<ellipse fill="none" stroke="#000000" cx="1388.9475" cy="-192" rx="55.4913" ry="18"/>
<text text-anchor="middle" x="1388.9475" y="-188.3" font-family="Times,serif" font-size="14.00" fill="#000000">follow_up</text>
</g>
<!-- follow_up&#45;&gt;participant -->
<g id="edge29" class="edge">
<title>follow_up&#45;&gt;participant</title>
<path fill="none" stroke="#000000" d="M1378.4119,-174.2884C1373.8167,-164.1345 1370.5667,-151.3845 1375.9475,-141 1378.6945,-135.6985 1382.6213,-131.0115 1387.0927,-126.92"/>
<polygon fill="#000000" stroke="#000000" points="1389.3872,-129.5668 1395.02,-120.5934 1385.0207,-124.0956 1389.3872,-129.5668"/>
<text text-anchor="middle" x="1420.9475" y="-144.8" font-family="Times,serif" font-size="14.00" fill="#000000">of_follow_up</text>
</g>
<!-- family_relationship -->
<g id="node6" class="node">
<title>family_relationship</title>
<ellipse fill="none" stroke="#000000" cx="1682.9475" cy="-192" rx="100.1823" ry="18"/>
<text text-anchor="middle" x="1682.9475" y="-188.3" font-family="Times,serif" font-size="14.00" fill="#000000">family_relationship</text>
</g>
<!-- family_relationship&#45;&gt;participant -->
<g id="edge10" class="edge">
<title>family_relationship&#45;&gt;participant</title>
<path fill="none" stroke="#000000" d="M1625.5258,-177.2317C1603.3183,-171.1606 1577.795,-163.7408 1554.9475,-156 1526.7459,-146.4453 1495.707,-134.1245 1471.2577,-123.9866"/>
<polygon fill="#000000" stroke="#000000" points="1472.4682,-120.6993 1461.8916,-120.0764 1469.7713,-127.1589 1472.4682,-120.6993"/>
<text text-anchor="middle" x="1634.4475" y="-144.8" font-family="Times,serif" font-size="14.00" fill="#000000">of_family_relationship</text>
</g>
<!-- publication -->
<g id="node7" class="node">
<title>publication</title>
<ellipse fill="none" stroke="#000000" cx="2350.9475" cy="-105" rx="63.0888" ry="18"/>
<text text-anchor="middle" x="2350.9475" y="-101.3" font-family="Times,serif" font-size="14.00" fill="#000000">publication</text>
</g>
<!-- publication&#45;&gt;study -->
<g id="edge31" class="edge">
<title>publication&#45;&gt;study</title>
<path fill="none" stroke="#000000" d="M2346.1255,-87.0221C2342.6396,-76.5307 2337.0937,-63.5281 2328.9475,-54 2322.924,-46.9547 2315.1724,-40.8231 2307.3382,-35.7143"/>
<polygon fill="#000000" stroke="#000000" points="2308.9122,-32.5756 2298.5459,-30.3865 2305.2845,-38.5623 2308.9122,-32.5756"/>
<text text-anchor="middle" x="2388.9475" y="-57.8" font-family="Times,serif" font-size="14.00" fill="#000000">of_publication</text>
</g>
<!-- radiology_file -->
<g id="node8" class="node">
<title>radiology_file</title>
<ellipse fill="none" stroke="#000000" cx="1874.9475" cy="-192" rx="73.387" ry="18"/>
<text text-anchor="middle" x="1874.9475" y="-188.3" font-family="Times,serif" font-size="14.00" fill="#000000">radiology_file</text>
</g>
<!-- radiology_file&#45;&gt;participant -->
<g id="edge4" class="edge">
<title>radiology_file&#45;&gt;participant</title>
<path fill="none" stroke="#000000" d="M1820.7745,-179.7529C1788.9408,-172.1897 1752.0617,-162.687 1736.9475,-156 1725.787,-151.0622 1725.406,-145.2001 1713.9475,-141 1675.5246,-126.916 1569.6956,-116.1734 1497.8638,-110.2262"/>
<polygon fill="#000000" stroke="#000000" points="1497.7757,-106.7076 1487.5244,-109.3838 1497.2071,-113.6844 1497.7757,-106.7076"/>
<text text-anchor="middle" x="1795.9475" y="-144.8" font-family="Times,serif" font-size="14.00" fill="#000000">of_radiology_file</text>
</g>
<!-- cell_line&#45;&gt;sample -->
<g id="edge21" class="edge">
<title>cell_line&#45;&gt;sample</title>
<path fill="none" stroke="#000000" d="M496.2606,-112.7581C480.1474,-117.9469 463.5765,-126.5949 453.9475,-141 441.8159,-159.1492 463.2414,-172.0302 487.225,-180.3067"/>
<polygon fill="#000000" stroke="#000000" points="486.2484,-183.6687 496.8387,-183.3608 488.3678,-176.9973 486.2484,-183.6687"/>
<text text-anchor="middle" x="494.4475" y="-144.8" font-family="Times,serif" font-size="14.00" fill="#000000">of_cell_line</text>
</g>
<!-- cell_line&#45;&gt;study -->
<g id="edge22" class="edge">
<title>cell_line&#45;&gt;study</title>
<path fill="none" stroke="#000000" d="M589.9646,-102.5364C840.9717,-89.9208 1980.104,-32.668 2225.3407,-20.3425"/>
<polygon fill="#000000" stroke="#000000" points="2225.8678,-23.8205 2235.6794,-19.8228 2225.5163,-16.8293 2225.8678,-23.8205"/>
<text text-anchor="middle" x="1550.4475" y="-57.8" font-family="Times,serif" font-size="14.00" fill="#000000">of_cell_line</text>
</g>
<!-- medical_history -->
<g id="node10" class="node">
<title>medical_history</title>
<ellipse fill="none" stroke="#000000" cx="2051.9475" cy="-192" rx="85.2851" ry="18"/>
<text text-anchor="middle" x="2051.9475" y="-188.3" font-family="Times,serif" font-size="14.00" fill="#000000">medical_history</text>
</g>
<!-- medical_history&#45;&gt;participant -->
<g id="edge5" class="edge">
<title>medical_history&#45;&gt;participant</title>
<path fill="none" stroke="#000000" d="M1988.0088,-179.9683C1942.7351,-171.2448 1888.2862,-160.2614 1877.9475,-156 1866.6644,-151.3493 1866.4894,-144.9651 1854.9475,-141 1791.2193,-119.1068 1604.1528,-110.1832 1499.6604,-106.8284"/>
<polygon fill="#000000" stroke="#000000" points="1499.6083,-103.3252 1489.504,-106.5115 1499.3899,-110.3218 1499.6083,-103.3252"/>
<text text-anchor="middle" x="1945.9475" y="-144.8" font-family="Times,serif" font-size="14.00" fill="#000000">of_medical_history</text>
</g>
<!-- cytogenomic_file -->
<g id="node11" class="node">
<title>cytogenomic_file</title>
<ellipse fill="none" stroke="#000000" cx="347.9475" cy="-279" rx="89.8845" ry="18"/>
<text text-anchor="middle" x="347.9475" y="-275.3" font-family="Times,serif" font-size="14.00" fill="#000000">cytogenomic_file</text>
</g>
<!-- cytogenomic_file&#45;&gt;sample -->
<g id="edge11" class="edge">
<title>cytogenomic_file&#45;&gt;sample</title>
<path fill="none" stroke="#000000" d="M357.1968,-260.8415C363.7631,-249.737 373.5956,-236.1455 385.9475,-228 402.092,-217.3534 447.7602,-207.2619 484.5024,-200.4875"/>
<polygon fill="#000000" stroke="#000000" points="485.3769,-203.8864 494.5969,-198.6671 484.1345,-196.9975 485.3769,-203.8864"/>
<text text-anchor="middle" x="457.4475" y="-231.8" font-family="Times,serif" font-size="14.00" fill="#000000">of_cytogenomic_file</text>
</g>
<!-- diagnosis -->
<g id="node12" class="node">
<title>diagnosis</title>
<ellipse fill="none" stroke="#000000" cx="1224.9475" cy="-279" rx="54.6905" ry="18"/>
<text text-anchor="middle" x="1224.9475" y="-275.3" font-family="Times,serif" font-size="14.00" fill="#000000">diagnosis</text>
</g>
<!-- diagnosis&#45;&gt;participant -->
<g id="edge9" class="edge">
<title>diagnosis&#45;&gt;participant</title>
<path fill="none" stroke="#000000" d="M1221.5022,-260.9183C1218.2485,-238.1409 1216.3998,-198.9669 1235.9475,-174 1252.7073,-152.5939 1318.5894,-131.9381 1368.3274,-118.897"/>
<polygon fill="#000000" stroke="#000000" points="1369.2311,-122.2785 1378.0404,-116.3923 1367.4832,-115.5002 1369.2311,-122.2785"/>
<text text-anchor="middle" x="1280.4475" y="-188.3" font-family="Times,serif" font-size="14.00" fill="#000000">of_diagnosis</text>
</g>
<!-- diagnosis&#45;&gt;sample -->
<g id="edge8" class="edge">
<title>diagnosis&#45;&gt;sample</title>
<path fill="none" stroke="#000000" d="M1184.2368,-266.9191C1165.458,-260.737 1143.1284,-252.5067 1123.9475,-243 1113.0129,-237.5804 1112.5749,-231.7071 1100.9475,-228 1004.1155,-197.1278 745.0509,-220.3748 643.9475,-210 624.8018,-208.0353 603.9066,-204.8091 585.6407,-201.6265"/>
<polygon fill="#000000" stroke="#000000" points="586.2502,-198.1801 575.7912,-199.8712 585.022,-205.0715 586.2502,-198.1801"/>
<text text-anchor="middle" x="1168.4475" y="-231.8" font-family="Times,serif" font-size="14.00" fill="#000000">of_diagnosis</text>
</g>
<!-- sequencing_file -->
<g id="node13" class="node">
<title>sequencing_file</title>
<ellipse fill="none" stroke="#000000" cx="156.9475" cy="-279" rx="83.3857" ry="18"/>
<text text-anchor="middle" x="156.9475" y="-275.3" font-family="Times,serif" font-size="14.00" fill="#000000">sequencing_file</text>
</g>
<!-- sequencing_file&#45;&gt;sample -->
<g id="edge32" class="edge">
<title>sequencing_file&#45;&gt;sample</title>
<path fill="none" stroke="#000000" d="M177.7051,-261.3425C192.423,-249.8496 213.1755,-235.6253 233.9475,-228 278.2112,-211.751 407.7034,-200.6524 481.9599,-195.4265"/>
<polygon fill="#000000" stroke="#000000" points="482.322,-198.9099 492.0566,-194.7282 481.8389,-191.9266 482.322,-198.9099"/>
<text text-anchor="middle" x="300.4475" y="-231.8" font-family="Times,serif" font-size="14.00" fill="#000000">of_sequencing_file</text>
</g>
<!-- pathology_file -->
<g id="node14" class="node">
<title>pathology_file</title>
<ellipse fill="none" stroke="#000000" cx="531.9475" cy="-279" rx="76.0865" ry="18"/>
<text text-anchor="middle" x="531.9475" y="-275.3" font-family="Times,serif" font-size="14.00" fill="#000000">pathology_file</text>
</g>
<!-- pathology_file&#45;&gt;sample -->
<g id="edge18" class="edge">
<title>pathology_file&#45;&gt;sample</title>
<path fill="none" stroke="#000000" d="M532.0266,-260.5772C532.1396,-250.8784 532.3927,-238.7899 532.9475,-228 533.0725,-225.569 533.2286,-223.0477 533.4034,-220.5192"/>
<polygon fill="#000000" stroke="#000000" points="536.9122,-220.5397 534.1962,-210.299 529.9332,-219.9983 536.9122,-220.5397"/>
<text text-anchor="middle" x="593.9475" y="-231.8" font-family="Times,serif" font-size="14.00" fill="#000000">of_pathology_file</text>
</g>
<!-- methylation_array_file -->
<g id="node15" class="node">
<title>methylation_array_file</title>
<ellipse fill="none" stroke="#000000" cx="741.9475" cy="-279" rx="115.8798" ry="18"/>
<text text-anchor="middle" x="741.9475" y="-275.3" font-family="Times,serif" font-size="14.00" fill="#000000">methylation_array_file</text>
</g>
<!-- methylation_array_file&#45;&gt;sample -->
<g id="edge19" class="edge">
<title>methylation_array_file&#45;&gt;sample</title>
<path fill="none" stroke="#000000" d="M710.1341,-261.645C699.7862,-255.8567 688.303,-249.28 677.9475,-243 667.5124,-236.6717 666.0107,-233.1521 654.9475,-228 632.6347,-217.6088 606.5877,-209.3319 584.5607,-203.3474"/>
<polygon fill="#000000" stroke="#000000" points="585.313,-199.9262 574.751,-200.7597 583.5275,-206.6946 585.313,-199.9262"/>
<text text-anchor="middle" x="769.4475" y="-231.8" font-family="Times,serif" font-size="14.00" fill="#000000">of_methylation_array_file</text>
</g>
<!-- study_admin -->
<g id="node17" class="node">
<title>study_admin</title>
<ellipse fill="none" stroke="#000000" cx="2501.9475" cy="-105" rx="70.3881" ry="18"/>
<text text-anchor="middle" x="2501.9475" y="-101.3" font-family="Times,serif" font-size="14.00" fill="#000000">study_admin</text>
</g>
<!-- study_admin&#45;&gt;study -->
<g id="edge30" class="edge">
<title>study_admin&#45;&gt;study</title>
<path fill="none" stroke="#000000" d="M2486.4135,-87.2649C2475.6066,-76.0413 2460.2568,-62.1576 2443.9475,-54 2404.3374,-34.1877 2354.341,-25.2688 2318.4751,-21.2598"/>
<polygon fill="#000000" stroke="#000000" points="2318.5966,-17.7538 2308.2905,-20.2103 2317.879,-24.717 2318.5966,-17.7538"/>
<text text-anchor="middle" x="2521.4475" y="-57.8" font-family="Times,serif" font-size="14.00" fill="#000000">of_study_admin</text>
</g>
<!-- single_cell_sequencing_file -->
<g id="node18" class="node">
<title>single_cell_sequencing_file</title>
<ellipse fill="none" stroke="#000000" cx="1012.9475" cy="-279" rx="137.5759" ry="18"/>
<text text-anchor="middle" x="1012.9475" y="-275.3" font-family="Times,serif" font-size="14.00" fill="#000000">single_cell_sequencing_file</text>
</g>
<!-- single_cell_sequencing_file&#45;&gt;sample -->
<g id="edge23" class="edge">
<title>single_cell_sequencing_file&#45;&gt;sample</title>
<path fill="none" stroke="#000000" d="M942.2765,-263.4599C922.9393,-258.0922 902.2707,-251.2933 883.9475,-243 872.8293,-237.9678 872.4917,-231.9584 860.9475,-228 769.404,-196.6102 739.9807,-221.9651 643.9475,-210 625.0958,-207.6512 604.5032,-204.393 586.4021,-201.2933"/>
<polygon fill="#000000" stroke="#000000" points="586.7996,-197.81 576.3478,-199.5448 585.6002,-204.7065 586.7996,-197.81"/>
<text text-anchor="middle" x="992.4475" y="-231.8" font-family="Times,serif" font-size="14.00" fill="#000000">of_single_cell_sequencing_file</text>
</g>
<!-- study_arm -->
<g id="node19" class="node">
<title>study_arm</title>
<ellipse fill="none" stroke="#000000" cx="2649.9475" cy="-105" rx="59.5901" ry="18"/>
<text text-anchor="middle" x="2649.9475" y="-101.3" font-family="Times,serif" font-size="14.00" fill="#000000">study_arm</text>
</g>
<!-- study_arm&#45;&gt;study -->
<g id="edge15" class="edge">
<title>study_arm&#45;&gt;study</title>
<path fill="none" stroke="#000000" d="M2632.2583,-87.5414C2619.4099,-75.9824 2600.9998,-61.5999 2581.9475,-54 2535.1449,-35.3305 2392.7034,-24.7859 2318.3066,-20.4152"/>
<polygon fill="#000000" stroke="#000000" points="2318.4618,-16.9185 2308.2775,-19.8393 2318.0604,-23.907 2318.4618,-16.9185"/>
<text text-anchor="middle" x="2656.4475" y="-57.8" font-family="Times,serif" font-size="14.00" fill="#000000">of_study_arm</text>
</g>
<!-- molecular_test -->
<g id="node20" class="node">
<title>molecular_test</title>
<ellipse fill="none" stroke="#000000" cx="732.9475" cy="-192" rx="79.8859" ry="18"/>
<text text-anchor="middle" x="732.9475" y="-188.3" font-family="Times,serif" font-size="14.00" fill="#000000">molecular_test</text>
</g>
<!-- molecular_test&#45;&gt;participant -->
<g id="edge20" class="edge">
<title>molecular_test&#45;&gt;participant</title>
<path fill="none" stroke="#000000" d="M748.6544,-174.1988C760.1758,-162.4826 776.9037,-148.0532 794.9475,-141 845.8525,-121.1017 1199.267,-110.39 1354.3125,-106.603"/>
<polygon fill="#000000" stroke="#000000" points="1354.767,-110.0931 1364.6797,-106.3529 1354.5981,-103.0952 1354.767,-110.0931"/>
<text text-anchor="middle" x="858.9475" y="-144.8" font-family="Times,serif" font-size="14.00" fill="#000000">of_molecular_test</text>
</g>
<!-- synonym -->
<g id="node21" class="node">
<title>synonym</title>
<ellipse fill="none" stroke="#000000" cx="1479.9475" cy="-279" rx="51.9908" ry="18"/>
<text text-anchor="middle" x="1479.9475" y="-275.3" font-family="Times,serif" font-size="14.00" fill="#000000">synonym</text>
</g>
<!-- synonym&#45;&gt;participant -->
<g id="edge28" class="edge">
<title>synonym&#45;&gt;participant</title>
<path fill="none" stroke="#000000" d="M1482.0237,-260.9022C1484.3459,-233.4173 1485.532,-180.2089 1465.9475,-141 1463.7961,-136.6928 1460.8983,-132.6442 1457.6484,-128.928"/>
<polygon fill="#000000" stroke="#000000" points="1460.1231,-126.4528 1450.6092,-121.7905 1455.1391,-131.3682 1460.1231,-126.4528"/>
<text text-anchor="middle" x="1524.4475" y="-188.3" font-family="Times,serif" font-size="14.00" fill="#000000">of_synonym</text>
</g>
<!-- synonym&#45;&gt;sample -->
<g id="edge26" class="edge">
<title>synonym&#45;&gt;sample</title>
<path fill="none" stroke="#000000" d="M1437.4505,-268.5782C1385.7188,-256.3994 1295.5243,-236.7955 1216.9475,-228 963.7366,-199.6568 897.5104,-234.9997 643.9475,-210 624.7941,-208.1116 603.8973,-204.9013 585.6323,-201.7101"/>
<polygon fill="#000000" stroke="#000000" points="586.2437,-198.264 575.7835,-199.9477 585.0106,-205.1545 586.2437,-198.264"/>
<text text-anchor="middle" x="1353.4475" y="-231.8" font-family="Times,serif" font-size="14.00" fill="#000000">of_synonym</text>
</g>
<!-- synonym&#45;&gt;study -->
<g id="edge27" class="edge">
<title>synonym&#45;&gt;study</title>
<path fill="none" stroke="#000000" d="M1531.9394,-278.2203C1670.8442,-275.4492 2061.8138,-263.1409 2381.9475,-210 2534.5478,-184.669 2624.2184,-245.2902 2718.9475,-123 2737.9236,-98.5029 2733.0543,-73.4695 2708.9475,-54 2679.1084,-29.901 2425.4078,-21.4343 2318.8143,-18.9226"/>
<polygon fill="#000000" stroke="#000000" points="2318.746,-15.4202 2308.6687,-18.6911 2318.5863,-22.4184 2318.746,-15.4202"/>
<text text-anchor="middle" x="2745.4475" y="-144.8" font-family="Times,serif" font-size="14.00" fill="#000000">of_synonym</text>
</g>
<!-- clinical_measure_file -->
<g id="node22" class="node">
<title>clinical_measure_file</title>
<ellipse fill="none" stroke="#000000" cx="2263.9475" cy="-192" rx="108.5808" ry="18"/>
<text text-anchor="middle" x="2263.9475" y="-188.3" font-family="Times,serif" font-size="14.00" fill="#000000">clinical_measure_file</text>
</g>
<!-- clinical_measure_file&#45;&gt;participant -->
<g id="edge6" class="edge">
<title>clinical_measure_file&#45;&gt;participant</title>
<path fill="none" stroke="#000000" d="M2184.0619,-179.7264C2120.1094,-169.8392 2040.4908,-157.3645 2036.9475,-156 2025.5588,-151.6143 2025.5336,-144.8341 2013.9475,-141 1966.2922,-125.2299 1645.4599,-112.4446 1499.273,-107.3644"/>
<polygon fill="#000000" stroke="#000000" points="1499.1703,-103.8589 1489.0556,-107.012 1498.929,-110.8547 1499.1703,-103.8589"/>
<text text-anchor="middle" x="2122.9475" y="-144.8" font-family="Times,serif" font-size="14.00" fill="#000000">of_clinical_measure_file</text>
</g>
<!-- clinical_measure_file&#45;&gt;study -->
<g id="edge7" class="edge">
<title>clinical_measure_file&#45;&gt;study</title>
<path fill="none" stroke="#000000" d="M2250.1837,-174.0126C2240.1454,-162.3724 2225.4525,-148.1077 2208.9475,-141 2094.9487,-91.9073 1856.4758,-183.1666 1934.9475,-87 1971.102,-42.6929 2141.7631,-26.0621 2225.4497,-20.4948"/>
<polygon fill="#000000" stroke="#000000" points="2225.6952,-23.9864 2235.4512,-19.8548 2225.2481,-17.0007 2225.6952,-23.9864"/>
<text text-anchor="middle" x="2020.9475" y="-101.3" font-family="Times,serif" font-size="14.00" fill="#000000">of_clinical_measure_file</text>
</g>
<!-- exposure -->
<g id="node23" class="node">
<title>exposure</title>
<ellipse fill="none" stroke="#000000" cx="883.9475" cy="-192" rx="53.0913" ry="18"/>
<text text-anchor="middle" x="883.9475" y="-188.3" font-family="Times,serif" font-size="14.00" fill="#000000">exposure</text>
</g>
<!-- exposure&#45;&gt;participant -->
<g id="edge24" class="edge">
<title>exposure&#45;&gt;participant</title>
<path fill="none" stroke="#000000" d="M901.8862,-174.8078C915.3454,-163.0552 934.842,-148.3281 954.9475,-141 991.5129,-127.6726 1232.3916,-114.3577 1355.2042,-108.3338"/>
<polygon fill="#000000" stroke="#000000" points="1355.4569,-111.8257 1365.2748,-107.8432 1355.1163,-104.834 1355.4569,-111.8257"/>
<text text-anchor="middle" x="998.4475" y="-144.8" font-family="Times,serif" font-size="14.00" fill="#000000">of_exposure</text>
</g>
<!-- therapeutic_procedure -->
<g id="node24" class="node">
<title>therapeutic_procedure</title>
<ellipse fill="none" stroke="#000000" cx="1072.9475" cy="-192" rx="117.7793" ry="18"/>
<text text-anchor="middle" x="1072.9475" y="-188.3" font-family="Times,serif" font-size="14.00" fill="#000000">therapeutic_procedure</text>
</g>
<!-- therapeutic_procedure&#45;&gt;participant -->
<g id="edge17" class="edge">
<title>therapeutic_procedure&#45;&gt;participant</title>
<path fill="none" stroke="#000000" d="M1056.0781,-173.8395C1048.3214,-163.2835 1042.5164,-150.2769 1050.9475,-141 1070.9285,-119.0145 1251.0293,-110.1159 1354.5487,-106.793"/>
<polygon fill="#000000" stroke="#000000" points="1354.7404,-110.2888 1364.6267,-106.4793 1354.5226,-103.2922 1354.7404,-110.2888"/>
<text text-anchor="middle" x="1143.9475" y="-144.8" font-family="Times,serif" font-size="14.00" fill="#000000">of_therapeutic_procedure</text>
</g>
<!-- study_personnel -->
<g id="node25" class="node">
<title>study_personnel</title>
<ellipse fill="none" stroke="#000000" cx="2852.9475" cy="-105" rx="87.1846" ry="18"/>
<text text-anchor="middle" x="2852.9475" y="-101.3" font-family="Times,serif" font-size="14.00" fill="#000000">study_personnel</text>
</g>
<!-- study_personnel&#45;&gt;study -->
<g id="edge25" class="edge">
<title>study_personnel&#45;&gt;study</title>
<path fill="none" stroke="#000000" d="M2826.2691,-87.8637C2806.5613,-76.1382 2778.6321,-61.4205 2751.9475,-54 2671.2868,-31.5696 2422.841,-22.1976 2318.6706,-19.1835"/>
<polygon fill="#000000" stroke="#000000" points="2318.5559,-15.679 2308.461,-18.8952 2318.3582,-22.6762 2318.5559,-15.679"/>
<text text-anchor="middle" x="2858.4475" y="-57.8" font-family="Times,serif" font-size="14.00" fill="#000000">of_study_personnel</text>
</g>
</g>
</svg>
