<svg width="3072pt" height="392pt"
 viewBox="0.00 0.00 3072.29 392.00" xmlns="http://www.w3.org/2000/svg" xmlns:xlink="http://www.w3.org/1999/xlink">
<g id="graph0" class="graph" transform="scale(1 1) rotate(0) translate(4 388)">
<title>Perl</title>
<polygon fill="#ffffff" stroke="transparent" points="-4,4 -4,-388 3068.286,-388 3068.286,4 -4,4"/>
<!-- study_personnel -->
<g id="node1" class="node">
<title>study_personnel</title>
<ellipse fill="none" stroke="#000000" cx="87.0923" cy="-105" rx="87.1846" ry="18"/>
<text text-anchor="middle" x="87.0923" y="-101.3" font-family="Times,serif" font-size="14.00" fill="#000000">study_personnel</text>
</g>
<!-- study -->
<g id="node13" class="node">
<title>study</title>
<ellipse fill="none" stroke="#000000" cx="661.0923" cy="-18" rx="36.2938" ry="18"/>
<text text-anchor="middle" x="661.0923" y="-14.3" font-family="Times,serif" font-size="14.00" fill="#000000">study</text>
</g>
<!-- study_personnel&#45;&gt;study -->
<g id="edge1" class="edge">
<title>study_personnel&#45;&gt;study</title>
<path fill="none" stroke="#000000" d="M88.1702,-86.9962C89.8704,-75.6593 94.04,-61.7501 104.0923,-54 124.1731,-38.5181 483.842,-24.2845 614.3103,-19.6095"/>
<polygon fill="#000000" stroke="#000000" points="614.5252,-23.1041 624.3945,-19.2508 614.2764,-16.1085 614.5252,-23.1041"/>
<text text-anchor="middle" x="173.5923" y="-57.8" font-family="Times,serif" font-size="14.00" fill="#000000">of_study_personnel</text>
</g>
<!-- survival -->
<g id="node2" class="node">
<title>survival</title>
<ellipse fill="none" stroke="#000000" cx="1760.0923" cy="-279" rx="48.1917" ry="18"/>
<text text-anchor="middle" x="1760.0923" y="-275.3" font-family="Times,serif" font-size="14.00" fill="#000000">survival</text>
</g>
<!-- participant -->
<g id="node14" class="node">
<title>participant</title>
<ellipse fill="none" stroke="#000000" cx="1561.0923" cy="-192" rx="62.2891" ry="18"/>
<text text-anchor="middle" x="1561.0923" y="-188.3" font-family="Times,serif" font-size="14.00" fill="#000000">participant</text>
</g>
<!-- survival&#45;&gt;participant -->
<g id="edge34" class="edge">
<title>survival&#45;&gt;participant</title>
<path fill="none" stroke="#000000" d="M1753.1478,-261.0183C1747.9144,-249.8395 1739.6474,-236.0998 1728.0923,-228 1711.9289,-216.6699 1667.4267,-207.3896 1628.4244,-201.0904"/>
<polygon fill="#000000" stroke="#000000" points="1628.5461,-197.5668 1618.1244,-199.4738 1627.4607,-204.4821 1628.5461,-197.5668"/>
<text text-anchor="middle" x="1781.5923" y="-231.8" font-family="Times,serif" font-size="14.00" fill="#000000">of_survival</text>
</g>
<!-- treatment -->
<g id="node3" class="node">
<title>treatment</title>
<ellipse fill="none" stroke="#000000" cx="2176.0923" cy="-279" rx="57.6901" ry="18"/>
<text text-anchor="middle" x="2176.0923" y="-275.3" font-family="Times,serif" font-size="14.00" fill="#000000">treatment</text>
</g>
<!-- treatment&#45;&gt;participant -->
<g id="edge31" class="edge">
<title>treatment&#45;&gt;participant</title>
<path fill="none" stroke="#000000" d="M2141.3826,-264.5209C2111.2078,-252.6058 2066.0282,-236.3653 2025.0923,-228 1952.1653,-213.0974 1743.8624,-200.9983 1632.8245,-195.3868"/>
<polygon fill="#000000" stroke="#000000" points="1632.8794,-191.8852 1622.7167,-194.8803 1632.529,-198.8764 1632.8794,-191.8852"/>
<text text-anchor="middle" x="2127.0923" y="-231.8" font-family="Times,serif" font-size="14.00" fill="#000000">of_treatment</text>
</g>
<!-- study_arm -->
<g id="node4" class="node">
<title>study_arm</title>
<ellipse fill="none" stroke="#000000" cx="252.0923" cy="-105" rx="59.5901" ry="18"/>
<text text-anchor="middle" x="252.0923" y="-101.3" font-family="Times,serif" font-size="14.00" fill="#000000">study_arm</text>
</g>
<!-- study_arm&#45;&gt;study -->
<g id="edge27" class="edge">
<title>study_arm&#45;&gt;study</title>
<path fill="none" stroke="#000000" d="M246.9532,-86.7085C245.0973,-75.836 245.1139,-62.5437 253.0923,-54 277.3446,-28.0293 512.4622,-20.6671 614.3716,-18.6874"/>
<polygon fill="#000000" stroke="#000000" points="614.4527,-22.1865 624.3861,-18.5019 614.323,-15.1877 614.4527,-22.1865"/>
<text text-anchor="middle" x="301.5923" y="-57.8" font-family="Times,serif" font-size="14.00" fill="#000000">of_study_arm</text>
</g>
<!-- laboratory_test -->
<g id="node5" class="node">
<title>laboratory_test</title>
<ellipse fill="none" stroke="#000000" cx="1781.0923" cy="-366" rx="81.7856" ry="18"/>
<text text-anchor="middle" x="1781.0923" y="-362.3" font-family="Times,serif" font-size="14.00" fill="#000000">laboratory_test</text>
</g>
<!-- sample -->
<g id="node12" class="node">
<title>sample</title>
<ellipse fill="none" stroke="#000000" cx="770.0923" cy="-279" rx="44.393" ry="18"/>
<text text-anchor="middle" x="770.0923" y="-275.3" font-family="Times,serif" font-size="14.00" fill="#000000">sample</text>
</g>
<!-- laboratory_test&#45;&gt;sample -->
<g id="edge40" class="edge">
<title>laboratory_test&#45;&gt;sample</title>
<path fill="none" stroke="#000000" d="M1728.8972,-352.0566C1680.3904,-339.7927 1605.9291,-322.7263 1540.0923,-315 1381.7951,-296.4231 980.0067,-324.9461 823.0923,-297 819.3821,-296.3392 815.5797,-295.4656 811.7982,-294.4587"/>
<polygon fill="#000000" stroke="#000000" points="812.4968,-291.0155 801.9148,-291.537 810.5123,-297.7284 812.4968,-291.0155"/>
<text text-anchor="middle" x="1692.5923" y="-318.8" font-family="Times,serif" font-size="14.00" fill="#000000">of_laboratory_test</text>
</g>
<!-- laboratory_test&#45;&gt;participant -->
<g id="edge39" class="edge">
<title>laboratory_test&#45;&gt;participant</title>
<path fill="none" stroke="#000000" d="M1796.4278,-348.1308C1819.0834,-319.5084 1855.6849,-263.0475 1825.0923,-228 1812.5088,-213.5842 1705.8991,-202.7639 1632.0692,-196.9138"/>
<polygon fill="#000000" stroke="#000000" points="1632.1235,-193.4075 1621.8822,-196.1214 1631.5806,-200.3864 1632.1235,-193.4075"/>
<text text-anchor="middle" x="1902.5923" y="-275.3" font-family="Times,serif" font-size="14.00" fill="#000000">of_laboratory_test</text>
</g>
<!-- family_relationship -->
<g id="node6" class="node">
<title>family_relationship</title>
<ellipse fill="none" stroke="#000000" cx="2560.0923" cy="-279" rx="100.1823" ry="18"/>
<text text-anchor="middle" x="2560.0923" y="-275.3" font-family="Times,serif" font-size="14.00" fill="#000000">family_relationship</text>
</g>
<!-- family_relationship&#45;&gt;participant -->
<g id="edge28" class="edge">
<title>family_relationship&#45;&gt;participant</title>
<path fill="none" stroke="#000000" d="M2497.4228,-264.9579C2441.7154,-253.0665 2357.9008,-236.6181 2284.0923,-228 2159.6556,-213.4704 1790.5215,-199.7371 1633.3046,-194.3724"/>
<polygon fill="#000000" stroke="#000000" points="1633.3734,-190.8728 1623.2603,-194.0312 1633.1357,-197.8687 1633.3734,-190.8728"/>
<text text-anchor="middle" x="2462.5923" y="-231.8" font-family="Times,serif" font-size="14.00" fill="#000000">of_family_relationship</text>
</g>
<!-- pdx -->
<g id="node7" class="node">
<title>pdx</title>
<ellipse fill="none" stroke="#000000" cx="397.0923" cy="-366" rx="27.8951" ry="18"/>
<text text-anchor="middle" x="397.0923" y="-362.3" font-family="Times,serif" font-size="14.00" fill="#000000">pdx</text>
</g>
<!-- pdx&#45;&gt;sample -->
<g id="edge19" class="edge">
<title>pdx&#45;&gt;sample</title>
<path fill="none" stroke="#000000" d="M401.7942,-347.7765C405.7569,-336.3467 412.6627,-322.4167 424.0923,-315 473.9778,-282.629 632.2541,-305.632 691.0923,-297 701.3219,-295.4992 712.1895,-293.3765 722.4857,-291.1126"/>
<polygon fill="#000000" stroke="#000000" points="723.5743,-294.4543 732.5465,-288.8194 722.0187,-287.6293 723.5743,-294.4543"/>
<text text-anchor="middle" x="448.0923" y="-318.8" font-family="Times,serif" font-size="14.00" fill="#000000">of_pdx</text>
</g>
<!-- pdx&#45;&gt;study -->
<g id="edge18" class="edge">
<title>pdx&#45;&gt;study</title>
<path fill="none" stroke="#000000" d="M386.4692,-349.0566C376.8223,-332.0255 364.0923,-304.6852 364.0923,-279 364.0923,-279 364.0923,-279 364.0923,-105 364.0923,-53.3576 531.5591,-30.2165 614.9887,-21.8923"/>
<polygon fill="#000000" stroke="#000000" points="615.3545,-25.3733 624.9712,-20.927 614.6807,-18.4058 615.3545,-25.3733"/>
<text text-anchor="middle" x="388.0923" y="-188.3" font-family="Times,serif" font-size="14.00" fill="#000000">of_pdx</text>
</g>
<!-- exposure -->
<g id="node8" class="node">
<title>exposure</title>
<ellipse fill="none" stroke="#000000" cx="885.0923" cy="-279" rx="53.0913" ry="18"/>
<text text-anchor="middle" x="885.0923" y="-275.3" font-family="Times,serif" font-size="14.00" fill="#000000">exposure</text>
</g>
<!-- exposure&#45;&gt;participant -->
<g id="edge8" class="edge">
<title>exposure&#45;&gt;participant</title>
<path fill="none" stroke="#000000" d="M899.9437,-261.4641C911.0491,-249.7096 927.3281,-235.1248 945.0923,-228 994.3578,-208.2407 1336.565,-197.4988 1488.5917,-193.6552"/>
<polygon fill="#000000" stroke="#000000" points="1488.8545,-197.1498 1498.764,-193.4011 1488.6797,-190.152 1488.8545,-197.1498"/>
<text text-anchor="middle" x="988.5923" y="-231.8" font-family="Times,serif" font-size="14.00" fill="#000000">of_exposure</text>
</g>
<!-- medical_history -->
<g id="node9" class="node">
<title>medical_history</title>
<ellipse fill="none" stroke="#000000" cx="1041.0923" cy="-279" rx="85.2851" ry="18"/>
<text text-anchor="middle" x="1041.0923" y="-275.3" font-family="Times,serif" font-size="14.00" fill="#000000">medical_history</text>
</g>
<!-- medical_history&#45;&gt;participant -->
<g id="edge21" class="edge">
<title>medical_history&#45;&gt;participant</title>
<path fill="none" stroke="#000000" d="M1035.897,-260.6556C1034.02,-249.7632 1034.0341,-236.4685 1042.0923,-228 1057.2491,-212.0713 1349.7092,-199.5435 1488.7853,-194.4607"/>
<polygon fill="#000000" stroke="#000000" points="1489.0648,-197.953 1498.9315,-194.0932 1488.8113,-190.9575 1489.0648,-197.953"/>
<text text-anchor="middle" x="1110.0923" y="-231.8" font-family="Times,serif" font-size="14.00" fill="#000000">of_medical_history</text>
</g>
<!-- publication -->
<g id="node10" class="node">
<title>publication</title>
<ellipse fill="none" stroke="#000000" cx="455.0923" cy="-105" rx="63.0888" ry="18"/>
<text text-anchor="middle" x="455.0923" y="-101.3" font-family="Times,serif" font-size="14.00" fill="#000000">publication</text>
</g>
<!-- publication&#45;&gt;study -->
<g id="edge35" class="edge">
<title>publication&#45;&gt;study</title>
<path fill="none" stroke="#000000" d="M449.3195,-86.9917C447.0688,-76.2258 446.5678,-62.9461 454.0923,-54 474.1651,-30.135 559.7635,-22.0896 614.4054,-19.3779"/>
<polygon fill="#000000" stroke="#000000" points="614.7276,-22.867 624.5587,-18.9173 614.4103,-15.8742 614.7276,-22.867"/>
<text text-anchor="middle" x="505.0923" y="-57.8" font-family="Times,serif" font-size="14.00" fill="#000000">of_publication</text>
</g>
<!-- synonym -->
<g id="node11" class="node">
<title>synonym</title>
<ellipse fill="none" stroke="#000000" cx="544.0923" cy="-366" rx="51.9908" ry="18"/>
<text text-anchor="middle" x="544.0923" y="-362.3" font-family="Times,serif" font-size="14.00" fill="#000000">synonym</text>
</g>
<!-- synonym&#45;&gt;sample -->
<g id="edge36" class="edge">
<title>synonym&#45;&gt;sample</title>
<path fill="none" stroke="#000000" d="M566.3742,-349.4748C582.304,-338.344 604.6348,-324.0896 626.0923,-315 635.0228,-311.217 683.2493,-299.4334 721.4655,-290.3674"/>
<polygon fill="#000000" stroke="#000000" points="722.5096,-293.7172 731.4357,-288.0097 720.8986,-286.905 722.5096,-293.7172"/>
<text text-anchor="middle" x="668.5923" y="-318.8" font-family="Times,serif" font-size="14.00" fill="#000000">of_synonym</text>
</g>
<!-- synonym&#45;&gt;study -->
<g id="edge37" class="edge">
<title>synonym&#45;&gt;study</title>
<path fill="none" stroke="#000000" d="M543.4682,-347.9619C542.8257,-313.259 544.1029,-235.2188 565.0923,-174 582.3646,-123.6225 618.1214,-72.397 640.7869,-42.9918"/>
<polygon fill="#000000" stroke="#000000" points="643.6788,-44.9755 647.0859,-34.9435 638.1664,-40.6612 643.6788,-44.9755"/>
<text text-anchor="middle" x="607.5923" y="-188.3" font-family="Times,serif" font-size="14.00" fill="#000000">of_synonym</text>
</g>
<!-- synonym&#45;&gt;participant -->
<g id="edge38" class="edge">
<title>synonym&#45;&gt;participant</title>
<path fill="none" stroke="#000000" d="M555.6365,-348.1047C559.3242,-342.3419 563.4047,-335.9166 567.0923,-330 595.1529,-284.9775 583.3629,-254.8932 629.0923,-228 665.9137,-206.3456 1275.4287,-195.9283 1488.3677,-192.9373"/>
<polygon fill="#000000" stroke="#000000" points="1488.556,-196.4351 1498.5063,-192.7963 1488.4586,-189.4358 1488.556,-196.4351"/>
<text text-anchor="middle" x="639.5923" y="-275.3" font-family="Times,serif" font-size="14.00" fill="#000000">of_synonym</text>
</g>
<!-- sample&#45;&gt;pdx -->
<g id="edge15" class="edge">
<title>sample&#45;&gt;pdx</title>
<path fill="none" stroke="#000000" d="M732.5,-288.5224C719.4553,-291.5713 704.691,-294.739 691.0923,-297 616.1432,-309.4613 594.7485,-296.3614 521.0923,-315 488.4206,-323.2675 453.0428,-338.4959 428.4697,-350.1673"/>
<polygon fill="#000000" stroke="#000000" points="426.7691,-347.1017 419.2867,-354.6026 429.8136,-353.405 426.7691,-347.1017"/>
<text text-anchor="middle" x="557.5923" y="-318.8" font-family="Times,serif" font-size="14.00" fill="#000000">of_sample</text>
</g>
<!-- sample&#45;&gt;participant -->
<g id="edge16" class="edge">
<title>sample&#45;&gt;participant</title>
<path fill="none" stroke="#000000" d="M788.2538,-262.3978C802.5522,-250.4475 823.5956,-235.2123 845.0923,-228 904.8617,-207.9469 1318.5186,-197.0857 1488.4561,-193.4277"/>
<polygon fill="#000000" stroke="#000000" points="1488.6374,-196.9247 1498.5606,-193.2125 1488.4883,-189.9263 1488.6374,-196.9247"/>
<text text-anchor="middle" x="881.5923" y="-231.8" font-family="Times,serif" font-size="14.00" fill="#000000">of_sample</text>
</g>
<!-- cell_line -->
<g id="node15" class="node">
<title>cell_line</title>
<ellipse fill="none" stroke="#000000" cx="708.0923" cy="-192" rx="49.2915" ry="18"/>
<text text-anchor="middle" x="708.0923" y="-188.3" font-family="Times,serif" font-size="14.00" fill="#000000">cell_line</text>
</g>
<!-- sample&#45;&gt;cell_line -->
<g id="edge14" class="edge">
<title>sample&#45;&gt;cell_line</title>
<path fill="none" stroke="#000000" d="M754.9585,-261.7994C750.0434,-255.9652 744.6782,-249.3222 740.0923,-243 734.4736,-235.254 728.7813,-226.5261 723.7865,-218.5091"/>
<polygon fill="#000000" stroke="#000000" points="726.6914,-216.5507 718.4847,-209.85 720.7215,-220.206 726.6914,-216.5507"/>
<text text-anchor="middle" x="776.5923" y="-231.8" font-family="Times,serif" font-size="14.00" fill="#000000">of_sample</text>
</g>
<!-- consent_group -->
<g id="node23" class="node">
<title>consent_group</title>
<ellipse fill="none" stroke="#000000" cx="839.0923" cy="-105" rx="79.0865" ry="18"/>
<text text-anchor="middle" x="839.0923" y="-101.3" font-family="Times,serif" font-size="14.00" fill="#000000">consent_group</text>
</g>
<!-- participant&#45;&gt;consent_group -->
<g id="edge7" class="edge">
<title>participant&#45;&gt;consent_group</title>
<path fill="none" stroke="#000000" d="M1500.6299,-187.2535C1387.7147,-177.9807 1137.2819,-155.4864 928.0923,-123 921.2893,-121.9435 914.2173,-120.7237 907.1661,-119.4269"/>
<polygon fill="#000000" stroke="#000000" points="907.3601,-115.9016 896.8838,-117.4821 906.0591,-122.7797 907.3601,-115.9016"/>
<text text-anchor="middle" x="1221.5923" y="-144.8" font-family="Times,serif" font-size="14.00" fill="#000000">of_participant</text>
</g>
<!-- cell_line&#45;&gt;sample -->
<g id="edge3" class="edge">
<title>cell_line&#45;&gt;sample</title>
<path fill="none" stroke="#000000" d="M669.1019,-203.442C645.7993,-212.3246 623.0427,-225.9819 636.0923,-243 638.8507,-246.5973 684.7061,-258.4135 722.0162,-267.538"/>
<polygon fill="#000000" stroke="#000000" points="721.233,-270.9495 731.7769,-269.9118 722.8872,-264.1477 721.233,-270.9495"/>
<text text-anchor="middle" x="676.5923" y="-231.8" font-family="Times,serif" font-size="14.00" fill="#000000">of_cell_line</text>
</g>
<!-- cell_line&#45;&gt;study -->
<g id="edge2" class="edge">
<title>cell_line&#45;&gt;study</title>
<path fill="none" stroke="#000000" d="M695.7343,-174.4757C686.9597,-161.0513 675.7678,-141.7145 670.0923,-123 662.4611,-97.8369 660.5617,-67.834 660.3635,-46.3561"/>
<polygon fill="#000000" stroke="#000000" points="663.8637,-46.2735 660.3893,-36.2645 656.8637,-46.2555 663.8637,-46.2735"/>
<text text-anchor="middle" x="710.5923" y="-101.3" font-family="Times,serif" font-size="14.00" fill="#000000">of_cell_line</text>
</g>
<!-- pathology_file -->
<g id="node16" class="node">
<title>pathology_file</title>
<ellipse fill="none" stroke="#000000" cx="888.0923" cy="-366" rx="76.0865" ry="18"/>
<text text-anchor="middle" x="888.0923" y="-362.3" font-family="Times,serif" font-size="14.00" fill="#000000">pathology_file</text>
</g>
<!-- pathology_file&#45;&gt;sample -->
<g id="edge6" class="edge">
<title>pathology_file&#45;&gt;sample</title>
<path fill="none" stroke="#000000" d="M884.0945,-347.8745C880.8694,-337.0646 875.3082,-323.7796 866.0923,-315 863.9305,-312.9406 837.6586,-303.149 813.1462,-294.297"/>
<polygon fill="#000000" stroke="#000000" points="814.1325,-290.9323 803.5381,-290.8418 811.7637,-297.5194 814.1325,-290.9323"/>
<text text-anchor="middle" x="938.0923" y="-318.8" font-family="Times,serif" font-size="14.00" fill="#000000">of_pathology_file</text>
</g>
<!-- sequencing_file -->
<g id="node17" class="node">
<title>sequencing_file</title>
<ellipse fill="none" stroke="#000000" cx="1065.0923" cy="-366" rx="83.3857" ry="18"/>
<text text-anchor="middle" x="1065.0923" y="-362.3" font-family="Times,serif" font-size="14.00" fill="#000000">sequencing_file</text>
</g>
<!-- sequencing_file&#45;&gt;sample -->
<g id="edge32" class="edge">
<title>sequencing_file&#45;&gt;sample</title>
<path fill="none" stroke="#000000" d="M1049.0378,-348.1886C1037.4814,-336.627 1020.8524,-322.3839 1003.0923,-315 928.8538,-284.135 901.6653,-314.0378 823.0923,-297 819.5102,-296.2233 815.8331,-295.2846 812.1667,-294.2487"/>
<polygon fill="#000000" stroke="#000000" points="813.1454,-290.8881 802.5595,-291.3237 811.1065,-297.5846 813.1454,-290.8881"/>
<text text-anchor="middle" x="1094.5923" y="-318.8" font-family="Times,serif" font-size="14.00" fill="#000000">of_sequencing_file</text>
</g>
<!-- diagnosis -->
<g id="node18" class="node">
<title>diagnosis</title>
<ellipse fill="none" stroke="#000000" cx="1973.0923" cy="-366" rx="54.6905" ry="18"/>
<text text-anchor="middle" x="1973.0923" y="-362.3" font-family="Times,serif" font-size="14.00" fill="#000000">diagnosis</text>
</g>
<!-- diagnosis&#45;&gt;sample -->
<g id="edge26" class="edge">
<title>diagnosis&#45;&gt;sample</title>
<path fill="none" stroke="#000000" d="M1933.1308,-353.5775C1891.0554,-341.1535 1822.6442,-322.8032 1762.0923,-315 1555.099,-288.3251 1028.6717,-332.9844 823.0923,-297 819.3801,-296.3502 815.5764,-295.4842 811.794,-294.4825"/>
<polygon fill="#000000" stroke="#000000" points="812.4908,-291.039 801.9092,-291.5688 810.5115,-297.7534 812.4908,-291.039"/>
<text text-anchor="middle" x="1883.5923" y="-318.8" font-family="Times,serif" font-size="14.00" fill="#000000">of_diagnosis</text>
</g>
<!-- diagnosis&#45;&gt;participant -->
<g id="edge25" class="edge">
<title>diagnosis&#45;&gt;participant</title>
<path fill="none" stroke="#000000" d="M1978.9743,-347.8774C1985.1519,-325.0568 1991.5282,-285.8371 1972.0923,-261 1951.2834,-234.4085 1742.2863,-209.909 1630.6149,-198.5897"/>
<polygon fill="#000000" stroke="#000000" points="1630.7493,-195.0857 1620.4495,-197.5685 1630.0495,-202.0506 1630.7493,-195.0857"/>
<text text-anchor="middle" x="2029.5923" y="-275.3" font-family="Times,serif" font-size="14.00" fill="#000000">of_diagnosis</text>
</g>
<!-- clinical_measure_file -->
<g id="node19" class="node">
<title>clinical_measure_file</title>
<ellipse fill="none" stroke="#000000" cx="2270.0923" cy="-366" rx="108.5808" ry="18"/>
<text text-anchor="middle" x="2270.0923" y="-362.3" font-family="Times,serif" font-size="14.00" fill="#000000">clinical_measure_file</text>
</g>
<!-- clinical_measure_file&#45;&gt;sample -->
<g id="edge23" class="edge">
<title>clinical_measure_file&#45;&gt;sample</title>
<path fill="none" stroke="#000000" d="M2198.5485,-352.3651C2130.3573,-340.0447 2024.6472,-322.6992 1932.0923,-315 1809.278,-304.7837 944.5162,-318.0702 823.0923,-297 819.3792,-296.3557 815.5748,-295.4935 811.7919,-294.4942"/>
<polygon fill="#000000" stroke="#000000" points="812.4878,-291.0507 801.9064,-291.5845 810.5112,-297.7658 812.4878,-291.0507"/>
<text text-anchor="middle" x="2140.0923" y="-318.8" font-family="Times,serif" font-size="14.00" fill="#000000">of_clinical_measure_file</text>
</g>
<!-- clinical_measure_file&#45;&gt;study -->
<g id="edge24" class="edge">
<title>clinical_measure_file&#45;&gt;study</title>
<path fill="none" stroke="#000000" d="M2359.1344,-355.571C2469.5453,-341.8822 2646.0932,-317.2205 2669.0923,-297 2690.5774,-278.1106 2688.0923,-264.108 2688.0923,-235.5 2688.0923,-235.5 2688.0923,-235.5 2688.0923,-105 2688.0923,-53.736 1010.92,-23.7487 707.7681,-18.7472"/>
<polygon fill="#000000" stroke="#000000" points="707.6249,-15.2445 697.5687,-18.5798 707.5099,-22.2435 707.6249,-15.2445"/>
<text text-anchor="middle" x="2774.0923" y="-188.3" font-family="Times,serif" font-size="14.00" fill="#000000">of_clinical_measure_file</text>
</g>
<!-- clinical_measure_file&#45;&gt;participant -->
<g id="edge22" class="edge">
<title>clinical_measure_file&#45;&gt;participant</title>
<path fill="none" stroke="#000000" d="M2269.8245,-347.6589C2268.5792,-324.9673 2263.357,-286.2474 2243.0923,-261 2222.8122,-235.7335 2209.3683,-236.4553 2178.0923,-228 2077.4814,-200.8005 1774.272,-194.151 1633.8806,-192.5256"/>
<polygon fill="#000000" stroke="#000000" points="1633.6903,-189.0234 1623.6523,-192.4128 1633.613,-196.023 1633.6903,-189.0234"/>
<text text-anchor="middle" x="2346.0923" y="-275.3" font-family="Times,serif" font-size="14.00" fill="#000000">of_clinical_measure_file</text>
</g>
<!-- study_funding -->
<g id="node20" class="node">
<title>study_funding</title>
<ellipse fill="none" stroke="#000000" cx="1014.0923" cy="-105" rx="77.1866" ry="18"/>
<text text-anchor="middle" x="1014.0923" y="-101.3" font-family="Times,serif" font-size="14.00" fill="#000000">study_funding</text>
</g>
<!-- study_funding&#45;&gt;study -->
<g id="edge33" class="edge">
<title>study_funding&#45;&gt;study</title>
<path fill="none" stroke="#000000" d="M981.2115,-88.6979C957.0888,-77.3761 923.2426,-62.7984 892.0923,-54 829.4512,-36.3071 754.6396,-26.6538 707.4888,-21.9107"/>
<polygon fill="#000000" stroke="#000000" points="707.5746,-18.4026 697.2826,-20.9174 706.8965,-25.3697 707.5746,-18.4026"/>
<text text-anchor="middle" x="996.0923" y="-57.8" font-family="Times,serif" font-size="14.00" fill="#000000">of_study_funding</text>
</g>
<!-- cytogenomic_file -->
<g id="node21" class="node">
<title>cytogenomic_file</title>
<ellipse fill="none" stroke="#000000" cx="704.0923" cy="-366" rx="89.8845" ry="18"/>
<text text-anchor="middle" x="704.0923" y="-362.3" font-family="Times,serif" font-size="14.00" fill="#000000">cytogenomic_file</text>
</g>
<!-- cytogenomic_file&#45;&gt;sample -->
<g id="edge20" class="edge">
<title>cytogenomic_file&#45;&gt;sample</title>
<path fill="none" stroke="#000000" d="M708.1979,-347.7924C711.1498,-337.4732 715.8998,-324.7232 723.0923,-315 727.0234,-309.6857 731.9456,-304.7695 737.1128,-300.3868"/>
<polygon fill="#000000" stroke="#000000" points="739.6092,-302.8776 745.3272,-293.9582 735.2951,-297.365 739.6092,-302.8776"/>
<text text-anchor="middle" x="794.5923" y="-318.8" font-family="Times,serif" font-size="14.00" fill="#000000">of_cytogenomic_file</text>
</g>
<!-- generic_file -->
<g id="node22" class="node">
<title>generic_file</title>
<ellipse fill="none" stroke="#000000" cx="2762.0923" cy="-366" rx="65.7887" ry="18"/>
<text text-anchor="middle" x="2762.0923" y="-362.3" font-family="Times,serif" font-size="14.00" fill="#000000">generic_file</text>
</g>
<!-- generic_file&#45;&gt;sample -->
<g id="edge11" class="edge">
<title>generic_file&#45;&gt;sample</title>
<path fill="none" stroke="#000000" d="M2701.9782,-358.6C2603.5375,-346.851 2401.7234,-324.3085 2230.0923,-315 2073.9756,-306.5329 977.1821,-323.4659 823.0923,-297 819.3781,-296.3621 815.5729,-295.5043 811.7895,-294.508"/>
<polygon fill="#000000" stroke="#000000" points="812.4844,-291.0643 801.9032,-291.6029 810.5108,-297.7803 812.4844,-291.0643"/>
<text text-anchor="middle" x="2473.0923" y="-318.8" font-family="Times,serif" font-size="14.00" fill="#000000">of_generic_file</text>
</g>
<!-- generic_file&#45;&gt;study -->
<g id="edge12" class="edge">
<title>generic_file&#45;&gt;study</title>
<path fill="none" stroke="#000000" d="M2813.1342,-354.6502C2851.0025,-342.8675 2896.0923,-320.1895 2896.0923,-279 2896.0923,-279 2896.0923,-279 2896.0923,-105 2896.0923,-48.2168 1029.2441,-22.5568 707.9069,-18.5605"/>
<polygon fill="#000000" stroke="#000000" points="707.6032,-15.0566 697.5607,-18.4327 707.5167,-22.0561 707.6032,-15.0566"/>
<text text-anchor="middle" x="2949.0923" y="-188.3" font-family="Times,serif" font-size="14.00" fill="#000000">of_generic_file</text>
</g>
<!-- generic_file&#45;&gt;participant -->
<g id="edge10" class="edge">
<title>generic_file&#45;&gt;participant</title>
<path fill="none" stroke="#000000" d="M2750.9369,-347.8502C2735.4845,-324.2544 2705.3326,-283.4203 2669.0923,-261 2620.9589,-231.2219 2602.0624,-236.4205 2546.0923,-228 2370.1871,-201.5358 1830.3371,-194.3124 1633.7014,-192.5323"/>
<polygon fill="#000000" stroke="#000000" points="1633.5107,-189.0306 1623.4801,-192.4419 1633.4487,-196.0303 1633.5107,-189.0306"/>
<text text-anchor="middle" x="2764.0923" y="-275.3" font-family="Times,serif" font-size="14.00" fill="#000000">of_generic_file</text>
</g>
<!-- consent_group&#45;&gt;study -->
<g id="edge9" class="edge">
<title>consent_group&#45;&gt;study</title>
<path fill="none" stroke="#000000" d="M805.6118,-88.636C774.4901,-73.4248 728.2879,-50.8428 696.5475,-35.3292"/>
<polygon fill="#000000" stroke="#000000" points="697.7152,-32.0043 687.194,-30.7576 694.6413,-38.2933 697.7152,-32.0043"/>
<text text-anchor="middle" x="824.5923" y="-57.8" font-family="Times,serif" font-size="14.00" fill="#000000">of_consent_group</text>
</g>
<!-- methylation_array_file -->
<g id="node24" class="node">
<title>methylation_array_file</title>
<ellipse fill="none" stroke="#000000" cx="1282.0923" cy="-366" rx="115.8798" ry="18"/>
<text text-anchor="middle" x="1282.0923" y="-362.3" font-family="Times,serif" font-size="14.00" fill="#000000">methylation_array_file</text>
</g>
<!-- methylation_array_file&#45;&gt;sample -->
<g id="edge17" class="edge">
<title>methylation_array_file&#45;&gt;sample</title>
<path fill="none" stroke="#000000" d="M1235.107,-349.3564C1220.4645,-343.7087 1204.4084,-337.0342 1190.0923,-330 1178.4626,-324.2858 1177.4845,-318.7859 1165.0923,-315 1092.308,-292.7639 897.828,-311.3725 823.0923,-297 819.4422,-296.298 815.6996,-295.404 811.9738,-294.391"/>
<polygon fill="#000000" stroke="#000000" points="812.8083,-290.9876 802.225,-291.4816 810.8065,-297.6952 812.8083,-290.9876"/>
<text text-anchor="middle" x="1281.5923" y="-318.8" font-family="Times,serif" font-size="14.00" fill="#000000">of_methylation_array_file</text>
</g>
<!-- study_admin -->
<g id="node25" class="node">
<title>study_admin</title>
<ellipse fill="none" stroke="#000000" cx="2994.0923" cy="-105" rx="70.3881" ry="18"/>
<text text-anchor="middle" x="2994.0923" y="-101.3" font-family="Times,serif" font-size="14.00" fill="#000000">study_admin</text>
</g>
<!-- study_admin&#45;&gt;study -->
<g id="edge13" class="edge">
<title>study_admin&#45;&gt;study</title>
<path fill="none" stroke="#000000" d="M2972.8033,-87.6614C2956.6685,-75.6716 2933.3695,-60.7144 2910.0923,-54 2800.5922,-22.4143 1020.2097,-18.4981 707.727,-18.0535"/>
<polygon fill="#000000" stroke="#000000" points="707.657,-14.5535 697.6522,-18.0396 707.6473,-21.5535 707.657,-14.5535"/>
<text text-anchor="middle" x="2998.5923" y="-57.8" font-family="Times,serif" font-size="14.00" fill="#000000">of_study_admin</text>
</g>
<!-- radiology_file -->
<g id="node26" class="node">
<title>radiology_file</title>
<ellipse fill="none" stroke="#000000" cx="1393.0923" cy="-279" rx="73.387" ry="18"/>
<text text-anchor="middle" x="1393.0923" y="-275.3" font-family="Times,serif" font-size="14.00" fill="#000000">radiology_file</text>
</g>
<!-- radiology_file&#45;&gt;participant -->
<g id="edge29" class="edge">
<title>radiology_file&#45;&gt;participant</title>
<path fill="none" stroke="#000000" d="M1404.5623,-261.0598C1412.4688,-250.0424 1423.9061,-236.4659 1437.0923,-228 1454.9242,-216.5514 1476.4948,-208.6491 1496.6115,-203.2351"/>
<polygon fill="#000000" stroke="#000000" points="1497.511,-206.6179 1506.3474,-200.7726 1495.7945,-199.8316 1497.511,-206.6179"/>
<text text-anchor="middle" x="1496.0923" y="-231.8" font-family="Times,serif" font-size="14.00" fill="#000000">of_radiology_file</text>
</g>
<!-- treatment_response -->
<g id="node27" class="node">
<title>treatment_response</title>
<ellipse fill="none" stroke="#000000" cx="1589.0923" cy="-279" rx="104.7816" ry="18"/>
<text text-anchor="middle" x="1589.0923" y="-275.3" font-family="Times,serif" font-size="14.00" fill="#000000">treatment_response</text>
</g>
<!-- treatment_response&#45;&gt;participant -->
<g id="edge30" class="edge">
<title>treatment_response&#45;&gt;participant</title>
<path fill="none" stroke="#000000" d="M1572.0795,-260.863C1568.044,-255.5001 1564.2793,-249.3528 1562.0923,-243 1559.6627,-235.9427 1558.7245,-228.0044 1558.559,-220.5302"/>
<polygon fill="#000000" stroke="#000000" points="1562.0606,-220.4823 1558.7646,-210.4132 1555.062,-220.34 1562.0606,-220.4823"/>
<text text-anchor="middle" x="1645.0923" y="-231.8" font-family="Times,serif" font-size="14.00" fill="#000000">of_treatment_response</text>
</g>
<!-- genetic_analysis -->
<g id="node28" class="node">
<title>genetic_analysis</title>
<ellipse fill="none" stroke="#000000" cx="1530.0923" cy="-366" rx="87.9851" ry="18"/>
<text text-anchor="middle" x="1530.0923" y="-362.3" font-family="Times,serif" font-size="14.00" fill="#000000">genetic_analysis</text>
</g>
<!-- genetic_analysis&#45;&gt;sample -->
<g id="edge4" class="edge">
<title>genetic_analysis&#45;&gt;sample</title>
<path fill="none" stroke="#000000" d="M1466.9755,-353.3884C1444.102,-347.6979 1418.4156,-339.9738 1396.0923,-330 1384.9498,-325.0217 1384.7319,-318.6684 1373.0923,-315 1256.4599,-278.2418 943.4029,-318.9001 823.0923,-297 819.3846,-296.3251 815.584,-295.4416 811.8037,-294.4282"/>
<polygon fill="#000000" stroke="#000000" points="812.5046,-290.9854 801.9221,-291.4962 810.5134,-297.6962 812.5046,-290.9854"/>
<text text-anchor="middle" x="1466.0923" y="-318.8" font-family="Times,serif" font-size="14.00" fill="#000000">of_genetic_analysis</text>
</g>
<!-- genetic_analysis&#45;&gt;participant -->
<g id="edge5" class="edge">
<title>genetic_analysis&#45;&gt;participant</title>
<path fill="none" stroke="#000000" d="M1538.6626,-347.6944C1542.3573,-336.8167 1544.2061,-323.5238 1536.0923,-315 1508.0963,-285.5894 1199.0882,-326.4106 1171.0923,-297 1160.0607,-285.411 1160.8112,-273.2597 1171.0923,-261 1210.8179,-213.629 1387.1676,-198.7625 1488.6,-194.1094"/>
<polygon fill="#000000" stroke="#000000" points="1488.9391,-197.598 1498.7769,-193.6652 1488.6338,-190.6047 1488.9391,-197.598"/>
<text text-anchor="middle" x="1241.0923" y="-275.3" font-family="Times,serif" font-size="14.00" fill="#000000">of_genetic_analysis</text>
</g>
</g>
</svg>
