<svg width="2909pt" height="392pt"
 viewBox="0.00 0.00 2909.14 392.00" xmlns="http://www.w3.org/2000/svg" xmlns:xlink="http://www.w3.org/1999/xlink">
<g id="graph0" class="graph" transform="scale(1 1) rotate(0) translate(4 388)">
<title>Perl</title>
<polygon fill="#ffffff" stroke="transparent" points="-4,4 -4,-388 2905.1367,-388 2905.1367,4 -4,4"/>
<!-- participant -->
<g id="node1" class="node">
<title>participant</title>
<ellipse fill="none" stroke="#000000" cx="1430.0923" cy="-105" rx="62.2891" ry="18"/>
<text text-anchor="middle" x="1430.0923" y="-101.3" font-family="Times,serif" font-size="14.00" fill="#000000">participant</text>
</g>
<!-- study -->
<g id="node4" class="node">
<title>study</title>
<ellipse fill="none" stroke="#000000" cx="2260.0923" cy="-18" rx="36.2938" ry="18"/>
<text text-anchor="middle" x="2260.0923" y="-14.3" font-family="Times,serif" font-size="14.00" fill="#000000">study</text>
</g>
<!-- participant&#45;&gt;study -->
<g id="edge30" class="edge">
<title>participant&#45;&gt;study</title>
<path fill="none" stroke="#000000" d="M1488.787,-98.8477C1645.8502,-82.3844 2073.3665,-37.5725 2214.3274,-22.797"/>
<polygon fill="#000000" stroke="#000000" points="2214.7824,-26.2686 2224.363,-21.7451 2214.0526,-19.3068 2214.7824,-26.2686"/>
<text text-anchor="middle" x="1944.5923" y="-57.8" font-family="Times,serif" font-size="14.00" fill="#000000">of_participant</text>
</g>
<!-- follow_up -->
<g id="node2" class="node">
<title>follow_up</title>
<ellipse fill="none" stroke="#000000" cx="1547.0923" cy="-192" rx="55.4913" ry="18"/>
<text text-anchor="middle" x="1547.0923" y="-188.3" font-family="Times,serif" font-size="14.00" fill="#000000">follow_up</text>
</g>
<!-- follow_up&#45;&gt;participant -->
<g id="edge25" class="edge">
<title>follow_up&#45;&gt;participant</title>
<path fill="none" stroke="#000000" d="M1536.2143,-174.1996C1528.9921,-163.512 1518.7207,-150.2414 1507.0923,-141 1498.5124,-134.1814 1488.4304,-128.2893 1478.4399,-123.3599"/>
<polygon fill="#000000" stroke="#000000" points="1479.8777,-120.1685 1469.3364,-119.1046 1476.9135,-126.5099 1479.8777,-120.1685"/>
<text text-anchor="middle" x="1567.0923" y="-144.8" font-family="Times,serif" font-size="14.00" fill="#000000">of_follow_up</text>
</g>
<!-- study_personnel -->
<g id="node3" class="node">
<title>study_personnel</title>
<ellipse fill="none" stroke="#000000" cx="87.0923" cy="-105" rx="87.1846" ry="18"/>
<text text-anchor="middle" x="87.0923" y="-101.3" font-family="Times,serif" font-size="14.00" fill="#000000">study_personnel</text>
</g>
<!-- study_personnel&#45;&gt;study -->
<g id="edge38" class="edge">
<title>study_personnel&#45;&gt;study</title>
<path fill="none" stroke="#000000" d="M81.8313,-87.0002C79.8084,-75.959 79.6884,-62.3784 88.0923,-54 107.5888,-34.5625 1899.9845,-20.6232 2213.5492,-18.3323"/>
<polygon fill="#000000" stroke="#000000" points="2213.6823,-21.8315 2223.6566,-18.2587 2213.6313,-14.8317 2213.6823,-21.8315"/>
<text text-anchor="middle" x="157.5923" y="-57.8" font-family="Times,serif" font-size="14.00" fill="#000000">of_study_personnel</text>
</g>
<!-- single_cell_sequencing_file -->
<g id="node5" class="node">
<title>single_cell_sequencing_file</title>
<ellipse fill="none" stroke="#000000" cx="1851.0923" cy="-366" rx="137.5759" ry="18"/>
<text text-anchor="middle" x="1851.0923" y="-362.3" font-family="Times,serif" font-size="14.00" fill="#000000">single_cell_sequencing_file</text>
</g>
<!-- cell_line -->
<g id="node7" class="node">
<title>cell_line</title>
<ellipse fill="none" stroke="#000000" cx="821.0923" cy="-279" rx="49.2915" ry="18"/>
<text text-anchor="middle" x="821.0923" y="-275.3" font-family="Times,serif" font-size="14.00" fill="#000000">cell_line</text>
</g>
<!-- single_cell_sequencing_file&#45;&gt;cell_line -->
<g id="edge13" class="edge">
<title>single_cell_sequencing_file&#45;&gt;cell_line</title>
<path fill="none" stroke="#000000" d="M1742.1709,-354.8957C1689.4606,-348.512 1632.4139,-339.8179 1608.0923,-330 1597.4564,-325.7066 1597.9297,-318.7558 1587.0923,-315 1578.7575,-312.1115 1058.7823,-289.3131 880.3939,-281.566"/>
<polygon fill="#000000" stroke="#000000" points="880.289,-278.0583 870.1466,-281.1212 879.9854,-285.0517 880.289,-278.0583"/>
<text text-anchor="middle" x="1716.5923" y="-318.8" font-family="Times,serif" font-size="14.00" fill="#000000">of_single_cell_sequencing_file</text>
</g>
<!-- sample -->
<g id="node8" class="node">
<title>sample</title>
<ellipse fill="none" stroke="#000000" cx="1430.0923" cy="-192" rx="44.393" ry="18"/>
<text text-anchor="middle" x="1430.0923" y="-188.3" font-family="Times,serif" font-size="14.00" fill="#000000">sample</text>
</g>
<!-- single_cell_sequencing_file&#45;&gt;sample -->
<g id="edge12" class="edge">
<title>single_cell_sequencing_file&#45;&gt;sample</title>
<path fill="none" stroke="#000000" d="M1974.9606,-358.109C2018.7994,-352.8932 2061.1967,-344.2612 2077.0923,-330 2100.112,-309.3472 2107.0188,-283.7711 2086.0923,-261 2040.5945,-211.4918 1548.9114,-223.7462 1483.0923,-210 1479.5043,-209.2507 1475.8231,-208.3314 1472.154,-207.3085"/>
<polygon fill="#000000" stroke="#000000" points="1473.1272,-203.9464 1462.5423,-204.4045 1471.1026,-210.6472 1473.1272,-203.9464"/>
<text text-anchor="middle" x="2206.5923" y="-275.3" font-family="Times,serif" font-size="14.00" fill="#000000">of_single_cell_sequencing_file</text>
</g>
<!-- pdx -->
<g id="node20" class="node">
<title>pdx</title>
<ellipse fill="none" stroke="#000000" cx="1456.0923" cy="-279" rx="27.8951" ry="18"/>
<text text-anchor="middle" x="1456.0923" y="-275.3" font-family="Times,serif" font-size="14.00" fill="#000000">pdx</text>
</g>
<!-- single_cell_sequencing_file&#45;&gt;pdx -->
<g id="edge11" class="edge">
<title>single_cell_sequencing_file&#45;&gt;pdx</title>
<path fill="none" stroke="#000000" d="M1848.1079,-347.9796C1845.2365,-336.6357 1839.6899,-322.7249 1829.0923,-315 1802.4161,-295.555 1583.5804,-284.3143 1494.052,-280.4914"/>
<polygon fill="#000000" stroke="#000000" points="1494.1835,-276.994 1484.0457,-280.0722 1493.8904,-283.9878 1494.1835,-276.994"/>
<text text-anchor="middle" x="1949.5923" y="-318.8" font-family="Times,serif" font-size="14.00" fill="#000000">of_single_cell_sequencing_file</text>
</g>
<!-- clinical_measure_file -->
<g id="node6" class="node">
<title>clinical_measure_file</title>
<ellipse fill="none" stroke="#000000" cx="378.0923" cy="-192" rx="108.5808" ry="18"/>
<text text-anchor="middle" x="378.0923" y="-188.3" font-family="Times,serif" font-size="14.00" fill="#000000">clinical_measure_file</text>
</g>
<!-- clinical_measure_file&#45;&gt;participant -->
<g id="edge37" class="edge">
<title>clinical_measure_file&#45;&gt;participant</title>
<path fill="none" stroke="#000000" d="M378.7244,-173.9272C380.1632,-162.5611 384.0513,-148.6454 394.0923,-141 432.322,-111.8914 1127.9498,-106.2953 1357.3698,-105.24"/>
<polygon fill="#000000" stroke="#000000" points="1357.6291,-108.739 1367.6134,-105.1945 1357.5979,-101.7391 1357.6291,-108.739"/>
<text text-anchor="middle" x="523.5923" y="-144.8" font-family="Times,serif" font-size="14.00" fill="#000000">of_clinical_measure_file_participant</text>
</g>
<!-- clinical_measure_file&#45;&gt;study -->
<g id="edge18" class="edge">
<title>clinical_measure_file&#45;&gt;study</title>
<path fill="none" stroke="#000000" d="M373.305,-173.5961C371.6597,-162.6814 371.9366,-149.3841 380.0923,-141 446.0612,-73.1834 1928.8122,-27.4699 2213.1746,-19.3105"/>
<polygon fill="#000000" stroke="#000000" points="2213.6481,-22.7985 2223.5441,-19.0144 2213.4482,-15.8013 2213.6481,-22.7985"/>
<text text-anchor="middle" x="827.0923" y="-101.3" font-family="Times,serif" font-size="14.00" fill="#000000">of_clinical_measure_file</text>
</g>
<!-- cell_line&#45;&gt;participant -->
<g id="edge34" class="edge">
<title>cell_line&#45;&gt;participant</title>
<path fill="none" stroke="#000000" d="M862.3606,-269.0257C911.2038,-257.5593 995.1245,-238.9195 1068.0923,-228 1110.4741,-221.6576 1221.31,-228.2313 1260.0923,-210 1280.5699,-200.3736 1277.8148,-187.3392 1296.0923,-174 1323.6969,-153.8537 1358.0115,-136.3048 1385.0051,-123.9466"/>
<polygon fill="#000000" stroke="#000000" points="1386.5429,-127.0926 1394.2247,-119.796 1383.6694,-120.7096 1386.5429,-127.0926"/>
<text text-anchor="middle" x="1336.5923" y="-188.3" font-family="Times,serif" font-size="14.00" fill="#000000">of_cell_line</text>
</g>
<!-- cell_line&#45;&gt;study -->
<g id="edge36" class="edge">
<title>cell_line&#45;&gt;study</title>
<path fill="none" stroke="#000000" d="M786.2572,-266.1386C779.9459,-264.1679 773.3732,-262.3453 767.0923,-261 656.3684,-237.284 336.0491,-293.9808 260.0923,-210 237.7784,-185.329 261.6758,-159.8389 289.0923,-141 346.1132,-101.8187 367.3671,-101.1376 435.0923,-87 613.6943,-49.717 1946.49,-23.697 2213.5751,-18.8266"/>
<polygon fill="#000000" stroke="#000000" points="2213.769,-22.3238 2223.7038,-18.6428 2213.6419,-15.325 2213.769,-22.3238"/>
<text text-anchor="middle" x="329.5923" y="-144.8" font-family="Times,serif" font-size="14.00" fill="#000000">of_cell_line</text>
</g>
<!-- cell_line&#45;&gt;sample -->
<g id="edge35" class="edge">
<title>cell_line&#45;&gt;sample</title>
<path fill="none" stroke="#000000" d="M866.595,-271.8881C934.9646,-261.3573 1068.3152,-241.4192 1182.0923,-228 1266.3309,-218.0647 1288.9218,-226.6594 1372.0923,-210 1376.8186,-209.0533 1381.7067,-207.8706 1386.5479,-206.5665"/>
<polygon fill="#000000" stroke="#000000" points="1387.7045,-209.876 1396.3527,-203.7557 1385.7754,-203.1471 1387.7045,-209.876"/>
<text text-anchor="middle" x="1222.5923" y="-231.8" font-family="Times,serif" font-size="14.00" fill="#000000">of_cell_line</text>
</g>
<!-- sample&#45;&gt;participant -->
<g id="edge10" class="edge">
<title>sample&#45;&gt;participant</title>
<path fill="none" stroke="#000000" d="M1430.0923,-173.9735C1430.0923,-162.1918 1430.0923,-146.5607 1430.0923,-133.1581"/>
<polygon fill="#000000" stroke="#000000" points="1433.5924,-133.0033 1430.0923,-123.0034 1426.5924,-133.0034 1433.5924,-133.0033"/>
<text text-anchor="middle" x="1466.5923" y="-144.8" font-family="Times,serif" font-size="14.00" fill="#000000">of_sample</text>
</g>
<!-- study_admin -->
<g id="node9" class="node">
<title>study_admin</title>
<ellipse fill="none" stroke="#000000" cx="2377.0923" cy="-105" rx="70.3881" ry="18"/>
<text text-anchor="middle" x="2377.0923" y="-101.3" font-family="Times,serif" font-size="14.00" fill="#000000">study_admin</text>
</g>
<!-- study_admin&#45;&gt;study -->
<g id="edge9" class="edge">
<title>study_admin&#45;&gt;study</title>
<path fill="none" stroke="#000000" d="M2353.9768,-87.8116C2335.2133,-73.8592 2308.6703,-54.1221 2288.5918,-39.192"/>
<polygon fill="#000000" stroke="#000000" points="2290.5372,-36.277 2280.4241,-33.1185 2286.3602,-41.8942 2290.5372,-36.277"/>
<text text-anchor="middle" x="2381.5923" y="-57.8" font-family="Times,serif" font-size="14.00" fill="#000000">of_study_admin</text>
</g>
<!-- study_arm -->
<g id="node10" class="node">
<title>study_arm</title>
<ellipse fill="none" stroke="#000000" cx="2525.0923" cy="-105" rx="59.5901" ry="18"/>
<text text-anchor="middle" x="2525.0923" y="-101.3" font-family="Times,serif" font-size="14.00" fill="#000000">study_arm</text>
</g>
<!-- study_arm&#45;&gt;study -->
<g id="edge39" class="edge">
<title>study_arm&#45;&gt;study</title>
<path fill="none" stroke="#000000" d="M2502.6463,-88.149C2486.5716,-76.8688 2463.9832,-62.5696 2442.0923,-54 2397.6791,-36.6135 2343.7519,-27.2958 2306.1769,-22.5297"/>
<polygon fill="#000000" stroke="#000000" points="2306.3819,-19.029 2296.034,-21.3031 2305.5415,-25.9784 2306.3819,-19.029"/>
<text text-anchor="middle" x="2518.5923" y="-57.8" font-family="Times,serif" font-size="14.00" fill="#000000">of_study_arm</text>
</g>
<!-- molecular_test -->
<g id="node11" class="node">
<title>molecular_test</title>
<ellipse fill="none" stroke="#000000" cx="1700.0923" cy="-192" rx="79.8859" ry="18"/>
<text text-anchor="middle" x="1700.0923" y="-188.3" font-family="Times,serif" font-size="14.00" fill="#000000">molecular_test</text>
</g>
<!-- molecular_test&#45;&gt;participant -->
<g id="edge29" class="edge">
<title>molecular_test&#45;&gt;participant</title>
<path fill="none" stroke="#000000" d="M1676.6494,-174.6417C1660.4209,-163.4318 1637.8971,-149.4177 1616.0923,-141 1578.8096,-126.6071 1535.0167,-117.767 1499.2924,-112.4509"/>
<polygon fill="#000000" stroke="#000000" points="1499.3571,-108.9248 1488.9631,-110.9777 1498.3687,-115.8547 1499.3571,-108.9248"/>
<text text-anchor="middle" x="1709.0923" y="-144.8" font-family="Times,serif" font-size="14.00" fill="#000000">of_molecular_test</text>
</g>
<!-- study_funding -->
<g id="node12" class="node">
<title>study_funding</title>
<ellipse fill="none" stroke="#000000" cx="2680.0923" cy="-105" rx="77.1866" ry="18"/>
<text text-anchor="middle" x="2680.0923" y="-101.3" font-family="Times,serif" font-size="14.00" fill="#000000">study_funding</text>
</g>
<!-- study_funding&#45;&gt;study -->
<g id="edge1" class="edge">
<title>study_funding&#45;&gt;study</title>
<path fill="none" stroke="#000000" d="M2651.0233,-88.2388C2629.6203,-76.6949 2599.4324,-62.0401 2571.0923,-54 2522.4622,-40.2036 2380.3209,-27.4508 2306.2249,-21.5083"/>
<polygon fill="#000000" stroke="#000000" points="2306.4836,-18.0179 2296.238,-20.7155 2305.9297,-24.9959 2306.4836,-18.0179"/>
<text text-anchor="middle" x="2673.0923" y="-57.8" font-family="Times,serif" font-size="14.00" fill="#000000">of_study_funding</text>
</g>
<!-- publication -->
<g id="node13" class="node">
<title>publication</title>
<ellipse fill="none" stroke="#000000" cx="2838.0923" cy="-105" rx="63.0888" ry="18"/>
<text text-anchor="middle" x="2838.0923" y="-101.3" font-family="Times,serif" font-size="14.00" fill="#000000">publication</text>
</g>
<!-- publication&#45;&gt;study -->
<g id="edge20" class="edge">
<title>publication&#45;&gt;study</title>
<path fill="none" stroke="#000000" d="M2812.8054,-88.3558C2793.4712,-76.5496 2765.6985,-61.5171 2739.0923,-54 2658.6917,-31.2842 2410.7114,-22.0735 2306.731,-19.1431"/>
<polygon fill="#000000" stroke="#000000" points="2306.6324,-15.6392 2296.5401,-18.8631 2306.4401,-22.6365 2306.6324,-15.6392"/>
<text text-anchor="middle" x="2826.0923" y="-57.8" font-family="Times,serif" font-size="14.00" fill="#000000">of_publication</text>
</g>
<!-- methylation_array_file -->
<g id="node14" class="node">
<title>methylation_array_file</title>
<ellipse fill="none" stroke="#000000" cx="572.0923" cy="-366" rx="115.8798" ry="18"/>
<text text-anchor="middle" x="572.0923" y="-362.3" font-family="Times,serif" font-size="14.00" fill="#000000">methylation_array_file</text>
</g>
<!-- methylation_array_file&#45;&gt;cell_line -->
<g id="edge27" class="edge">
<title>methylation_array_file&#45;&gt;cell_line</title>
<path fill="none" stroke="#000000" d="M567.1242,-347.8637C565.3327,-337.0497 565.3568,-323.7643 573.0923,-315 576.2522,-311.4198 691.781,-295.8106 764.0239,-286.3608"/>
<polygon fill="#000000" stroke="#000000" points="764.887,-289.7779 774.3501,-285.0134 763.9813,-282.8367 764.887,-289.7779"/>
<text text-anchor="middle" x="664.5923" y="-318.8" font-family="Times,serif" font-size="14.00" fill="#000000">of_methylation_array_file</text>
</g>
<!-- methylation_array_file&#45;&gt;sample -->
<g id="edge28" class="edge">
<title>methylation_array_file&#45;&gt;sample</title>
<path fill="none" stroke="#000000" d="M467.1015,-358.307C369.8592,-350.6628 239.0445,-338.836 231.0923,-330 226.6325,-325.0447 226.7536,-320.0616 231.0923,-315 234.2844,-311.276 575.2173,-261.541 580.0923,-261 796.1503,-237.0246 851.1322,-241.5739 1068.0923,-228 1207.1613,-219.2993 1244.6617,-238.3304 1381.0923,-210 1383.8791,-209.4213 1386.7196,-208.7137 1389.5587,-207.9175"/>
<polygon fill="#000000" stroke="#000000" points="1390.6251,-211.2513 1399.126,-204.9278 1388.5372,-204.5699 1390.6251,-211.2513"/>
<text text-anchor="middle" x="671.5923" y="-275.3" font-family="Times,serif" font-size="14.00" fill="#000000">of_methylation_array_file</text>
</g>
<!-- methylation_array_file&#45;&gt;pdx -->
<g id="edge26" class="edge">
<title>methylation_array_file&#45;&gt;pdx</title>
<path fill="none" stroke="#000000" d="M683.3927,-360.8795C766.3002,-355.8237 871.8264,-346.4052 912.0923,-330 922.0559,-325.9406 920.9959,-318.7172 931.0923,-315 1031.8859,-277.8908 1309.2984,-320.5518 1414.0923,-297 1417.5245,-296.2286 1421.0279,-295.1844 1424.4747,-293.985"/>
<polygon fill="#000000" stroke="#000000" points="1425.8914,-297.1893 1433.9333,-290.2916 1423.3452,-290.6688 1425.8914,-297.1893"/>
<text text-anchor="middle" x="1022.5923" y="-318.8" font-family="Times,serif" font-size="14.00" fill="#000000">of_methylation_array_file</text>
</g>
<!-- exposure -->
<g id="node15" class="node">
<title>exposure</title>
<ellipse fill="none" stroke="#000000" cx="1851.0923" cy="-192" rx="53.0913" ry="18"/>
<text text-anchor="middle" x="1851.0923" y="-188.3" font-family="Times,serif" font-size="14.00" fill="#000000">exposure</text>
</g>
<!-- exposure&#45;&gt;participant -->
<g id="edge22" class="edge">
<title>exposure&#45;&gt;participant</title>
<path fill="none" stroke="#000000" d="M1832.2051,-174.9809C1818.085,-163.3121 1797.7326,-148.6141 1777.0923,-141 1728.2406,-122.979 1588.4753,-112.9255 1501.958,-108.2663"/>
<polygon fill="#000000" stroke="#000000" points="1502.1112,-104.7696 1491.9408,-107.7381 1501.7425,-111.7599 1502.1112,-104.7696"/>
<text text-anchor="middle" x="1848.5923" y="-144.8" font-family="Times,serif" font-size="14.00" fill="#000000">of_exposure</text>
</g>
<!-- medical_history -->
<g id="node16" class="node">
<title>medical_history</title>
<ellipse fill="none" stroke="#000000" cx="2007.0923" cy="-192" rx="85.2851" ry="18"/>
<text text-anchor="middle" x="2007.0923" y="-188.3" font-family="Times,serif" font-size="14.00" fill="#000000">medical_history</text>
</g>
<!-- medical_history&#45;&gt;participant -->
<g id="edge21" class="edge">
<title>medical_history&#45;&gt;participant</title>
<path fill="none" stroke="#000000" d="M1977.5408,-174.9184C1955.7696,-163.2194 1925.0363,-148.5109 1896.0923,-141 1823.7358,-122.2238 1614.1461,-111.8269 1502.3423,-107.4739"/>
<polygon fill="#000000" stroke="#000000" points="1502.291,-103.9694 1492.1643,-107.0838 1502.0228,-110.9643 1502.291,-103.9694"/>
<text text-anchor="middle" x="2005.0923" y="-144.8" font-family="Times,serif" font-size="14.00" fill="#000000">of_medical_history</text>
</g>
<!-- family_relationship -->
<g id="node17" class="node">
<title>family_relationship</title>
<ellipse fill="none" stroke="#000000" cx="605.0923" cy="-192" rx="100.1823" ry="18"/>
<text text-anchor="middle" x="605.0923" y="-188.3" font-family="Times,serif" font-size="14.00" fill="#000000">family_relationship</text>
</g>
<!-- family_relationship&#45;&gt;participant -->
<g id="edge2" class="edge">
<title>family_relationship&#45;&gt;participant</title>
<path fill="none" stroke="#000000" d="M627.1355,-174.3825C643.2727,-162.5895 666.2536,-147.9923 689.0923,-141 751.7688,-121.8109 1183.3251,-110.3759 1357.4662,-106.4969"/>
<polygon fill="#000000" stroke="#000000" points="1357.6414,-109.994 1367.5617,-106.2741 1357.4869,-102.9957 1357.6414,-109.994"/>
<text text-anchor="middle" x="768.5923" y="-144.8" font-family="Times,serif" font-size="14.00" fill="#000000">of_family_relationship</text>
</g>
<!-- cytogenomic_file -->
<g id="node18" class="node">
<title>cytogenomic_file</title>
<ellipse fill="none" stroke="#000000" cx="240.0923" cy="-366" rx="89.8845" ry="18"/>
<text text-anchor="middle" x="240.0923" y="-362.3" font-family="Times,serif" font-size="14.00" fill="#000000">cytogenomic_file</text>
</g>
<!-- cytogenomic_file&#45;&gt;cell_line -->
<g id="edge31" class="edge">
<title>cytogenomic_file&#45;&gt;cell_line</title>
<path fill="none" stroke="#000000" d="M234.8147,-347.5761C232.9068,-336.6539 232.9172,-323.3557 241.0923,-315 257.9687,-297.7509 651.0416,-298.978 675.0923,-297 704.8844,-294.5498 737.9544,-290.5773 765.0769,-286.9868"/>
<polygon fill="#000000" stroke="#000000" points="765.7158,-290.4325 775.1614,-285.6333 764.7847,-283.4947 765.7158,-290.4325"/>
<text text-anchor="middle" x="312.5923" y="-318.8" font-family="Times,serif" font-size="14.00" fill="#000000">of_cytogenomic_file</text>
</g>
<!-- cytogenomic_file&#45;&gt;sample -->
<g id="edge32" class="edge">
<title>cytogenomic_file&#45;&gt;sample</title>
<path fill="none" stroke="#000000" d="M222.1709,-348.2765C201.2877,-325.5211 172.4724,-285.997 196.0923,-261 241.3485,-213.105 1316.3956,-222.5057 1381.0923,-210 1383.9285,-209.4518 1386.8181,-208.761 1389.7039,-207.9717"/>
<polygon fill="#000000" stroke="#000000" points="1390.8948,-211.2671 1399.4169,-204.9723 1388.8294,-204.5787 1390.8948,-211.2671"/>
<text text-anchor="middle" x="267.5923" y="-275.3" font-family="Times,serif" font-size="14.00" fill="#000000">of_cytogenomic_file</text>
</g>
<!-- cytogenomic_file&#45;&gt;pdx -->
<g id="edge33" class="edge">
<title>cytogenomic_file&#45;&gt;pdx</title>
<path fill="none" stroke="#000000" d="M301.6305,-352.7587C327.3649,-346.6702 357.4285,-338.8327 384.0923,-330 400.5463,-324.5494 403.127,-318.5531 420.0923,-315 636.326,-269.7136 1198.09,-343.3779 1414.0923,-297 1417.5317,-296.2615 1421.0398,-295.2388 1424.4895,-294.0525"/>
<polygon fill="#000000" stroke="#000000" points="1425.8983,-297.2601 1433.9519,-290.376 1423.3631,-290.7353 1425.8983,-297.2601"/>
<text text-anchor="middle" x="491.5923" y="-318.8" font-family="Times,serif" font-size="14.00" fill="#000000">of_cytogenomic_file</text>
</g>
<!-- synonym -->
<g id="node19" class="node">
<title>synonym</title>
<ellipse fill="none" stroke="#000000" cx="2395.0923" cy="-279" rx="51.9908" ry="18"/>
<text text-anchor="middle" x="2395.0923" y="-275.3" font-family="Times,serif" font-size="14.00" fill="#000000">synonym</text>
</g>
<!-- synonym&#45;&gt;participant -->
<g id="edge5" class="edge">
<title>synonym&#45;&gt;participant</title>
<path fill="none" stroke="#000000" d="M2359.1134,-265.7925C2340.817,-259.0391 2318.244,-250.6508 2298.0923,-243 2260.2059,-228.6161 2250.0965,-226.5214 2213.0923,-210 2151.2019,-182.3675 2142.5485,-158.5915 2077.0923,-141 2022.8406,-126.4197 1659.3773,-112.676 1502.2427,-107.3393"/>
<polygon fill="#000000" stroke="#000000" points="1502.3088,-103.8397 1492.1963,-107.0001 1502.0725,-110.8357 1502.3088,-103.8397"/>
<text text-anchor="middle" x="2255.5923" y="-188.3" font-family="Times,serif" font-size="14.00" fill="#000000">of_synonym</text>
</g>
<!-- synonym&#45;&gt;study -->
<g id="edge3" class="edge">
<title>synonym&#45;&gt;study</title>
<path fill="none" stroke="#000000" d="M2382.4689,-261.45C2362.6125,-233.2866 2323.7099,-175.7943 2298.0923,-123 2285.8009,-97.6692 2275.2254,-67.2851 2268.3749,-45.7343"/>
<polygon fill="#000000" stroke="#000000" points="2271.6352,-44.4322 2265.3199,-35.9252 2264.9518,-46.5137 2271.6352,-44.4322"/>
<text text-anchor="middle" x="2357.5923" y="-144.8" font-family="Times,serif" font-size="14.00" fill="#000000">of_synonym</text>
</g>
<!-- synonym&#45;&gt;sample -->
<g id="edge4" class="edge">
<title>synonym&#45;&gt;sample</title>
<path fill="none" stroke="#000000" d="M2355.5389,-267.1392C2346.8824,-264.8452 2337.7255,-262.6465 2329.0923,-261 2257.9318,-247.4284 2237.9922,-257.8726 2167.0923,-243 2145.2176,-238.4114 2141.1373,-231.6842 2119.0923,-228 1840.1805,-181.3883 1761.4118,-260.0269 1483.0923,-210 1479.3831,-209.3333 1475.5815,-208.4555 1471.8005,-207.4459"/>
<polygon fill="#000000" stroke="#000000" points="1472.5001,-204.0029 1461.9178,-204.5199 1470.5128,-210.7149 1472.5001,-204.0029"/>
<text text-anchor="middle" x="2209.5923" y="-231.8" font-family="Times,serif" font-size="14.00" fill="#000000">of_synonym</text>
</g>
<!-- pdx&#45;&gt;study -->
<g id="edge23" class="edge">
<title>pdx&#45;&gt;study</title>
<path fill="none" stroke="#000000" d="M1484.0507,-277.2137C1538.6364,-273.7646 1663.2285,-266.0806 1768.0923,-261 1793.582,-259.765 2208.1129,-260.0597 2227.0923,-243 2241.5396,-230.0139 2253.2777,-104.0049 2257.933,-46.435"/>
<polygon fill="#000000" stroke="#000000" points="2261.4426,-46.4507 2258.7436,-36.2055 2254.4645,-45.8977 2261.4426,-46.4507"/>
<text text-anchor="middle" x="2272.0923" y="-144.8" font-family="Times,serif" font-size="14.00" fill="#000000">of_pdx</text>
</g>
<!-- pdx&#45;&gt;sample -->
<g id="edge24" class="edge">
<title>pdx&#45;&gt;sample</title>
<path fill="none" stroke="#000000" d="M1450.7051,-260.9735C1447.1492,-249.0751 1442.4201,-233.2508 1438.3886,-219.7606"/>
<polygon fill="#000000" stroke="#000000" points="1441.6895,-218.5825 1435.4726,-210.0034 1434.9826,-220.5869 1441.6895,-218.5825"/>
<text text-anchor="middle" x="1468.0923" y="-231.8" font-family="Times,serif" font-size="14.00" fill="#000000">of_pdx</text>
</g>
<!-- therapeutic_procedure -->
<g id="node21" class="node">
<title>therapeutic_procedure</title>
<ellipse fill="none" stroke="#000000" cx="841.0923" cy="-192" rx="117.7793" ry="18"/>
<text text-anchor="middle" x="841.0923" y="-188.3" font-family="Times,serif" font-size="14.00" fill="#000000">therapeutic_procedure</text>
</g>
<!-- therapeutic_procedure&#45;&gt;participant -->
<g id="edge40" class="edge">
<title>therapeutic_procedure&#45;&gt;participant</title>
<path fill="none" stroke="#000000" d="M845.0734,-173.8012C848.5853,-162.3819 854.9442,-148.4543 866.0923,-141 905.9922,-114.3204 1214.419,-107.3936 1357.5529,-105.6105"/>
<polygon fill="#000000" stroke="#000000" points="1357.6095,-109.1102 1367.5669,-105.4908 1357.5258,-102.1107 1357.6095,-109.1102"/>
<text text-anchor="middle" x="959.0923" y="-144.8" font-family="Times,serif" font-size="14.00" fill="#000000">of_therapeutic_procedure</text>
</g>
<!-- radiology_file -->
<g id="node22" class="node">
<title>radiology_file</title>
<ellipse fill="none" stroke="#000000" cx="1050.0923" cy="-192" rx="73.387" ry="18"/>
<text text-anchor="middle" x="1050.0923" y="-188.3" font-family="Times,serif" font-size="14.00" fill="#000000">radiology_file</text>
</g>
<!-- radiology_file&#45;&gt;participant -->
<g id="edge19" class="edge">
<title>radiology_file&#45;&gt;participant</title>
<path fill="none" stroke="#000000" d="M1051.2975,-173.8597C1053.0582,-162.6158 1057.2473,-148.8632 1067.0923,-141 1089.2859,-123.274 1258.6431,-112.7126 1358.0043,-107.9794"/>
<polygon fill="#000000" stroke="#000000" points="1358.4551,-111.4622 1368.2806,-107.4987 1358.128,-104.4699 1358.4551,-111.4622"/>
<text text-anchor="middle" x="1126.0923" y="-144.8" font-family="Times,serif" font-size="14.00" fill="#000000">of_radiology_file</text>
</g>
<!-- diagnosis -->
<g id="node23" class="node">
<title>diagnosis</title>
<ellipse fill="none" stroke="#000000" cx="1196.0923" cy="-192" rx="54.6905" ry="18"/>
<text text-anchor="middle" x="1196.0923" y="-188.3" font-family="Times,serif" font-size="14.00" fill="#000000">diagnosis</text>
</g>
<!-- diagnosis&#45;&gt;participant -->
<g id="edge14" class="edge">
<title>diagnosis&#45;&gt;participant</title>
<path fill="none" stroke="#000000" d="M1190.2563,-173.9379C1187.9817,-163.1518 1187.4779,-149.8697 1195.0923,-141 1205.8266,-128.4961 1294.6275,-117.5825 1359.9134,-111.1413"/>
<polygon fill="#000000" stroke="#000000" points="1360.5585,-114.5953 1370.174,-110.1464 1359.8828,-107.628 1360.5585,-114.5953"/>
<text text-anchor="middle" x="1239.5923" y="-144.8" font-family="Times,serif" font-size="14.00" fill="#000000">of_diagnosis</text>
</g>
<!-- pathology_file -->
<g id="node24" class="node">
<title>pathology_file</title>
<ellipse fill="none" stroke="#000000" cx="1466.0923" cy="-366" rx="76.0865" ry="18"/>
<text text-anchor="middle" x="1466.0923" y="-362.3" font-family="Times,serif" font-size="14.00" fill="#000000">pathology_file</text>
</g>
<!-- pathology_file&#45;&gt;cell_line -->
<g id="edge17" class="edge">
<title>pathology_file&#45;&gt;cell_line</title>
<path fill="none" stroke="#000000" d="M1408.0136,-354.3421C1395.2276,-352.022 1381.7303,-349.7614 1369.0923,-348 1284.2052,-336.1693 1261.5465,-344.6032 1177.0923,-330 1150.4315,-325.39 1144.688,-319.9714 1118.0923,-315 1035.9237,-299.6406 939.6869,-289.365 879.5455,-283.8517"/>
<polygon fill="#000000" stroke="#000000" points="879.7542,-280.3563 869.4799,-282.9425 879.1245,-287.328 879.7542,-280.3563"/>
<text text-anchor="middle" x="1238.0923" y="-318.8" font-family="Times,serif" font-size="14.00" fill="#000000">of_pathology_file</text>
</g>
<!-- pathology_file&#45;&gt;sample -->
<g id="edge16" class="edge">
<title>pathology_file&#45;&gt;sample</title>
<path fill="none" stroke="#000000" d="M1538.1847,-360.0719C1585.3635,-356.3098 1648.3656,-351.5077 1704.0923,-348 1723.967,-346.749 2048.369,-344.4306 2062.0923,-330 2066.6864,-325.169 2066.3651,-320.1174 2062.0923,-315 2061.7649,-314.6079 1483.5868,-210.1281 1483.0923,-210 1479.7453,-209.1333 1476.305,-208.1598 1472.862,-207.1259"/>
<polygon fill="#000000" stroke="#000000" points="1473.816,-203.757 1463.2264,-204.0912 1471.7131,-210.4337 1473.816,-203.757"/>
<text text-anchor="middle" x="2021.0923" y="-275.3" font-family="Times,serif" font-size="14.00" fill="#000000">of_pathology_file</text>
</g>
<!-- pathology_file&#45;&gt;pdx -->
<g id="edge15" class="edge">
<title>pathology_file&#45;&gt;pdx</title>
<path fill="none" stroke="#000000" d="M1464.0203,-347.9735C1462.666,-336.1918 1460.8694,-320.5607 1459.3288,-307.1581"/>
<polygon fill="#000000" stroke="#000000" points="1462.7807,-306.5383 1458.1616,-297.0034 1455.8265,-307.3376 1462.7807,-306.5383"/>
<text text-anchor="middle" x="1522.0923" y="-318.8" font-family="Times,serif" font-size="14.00" fill="#000000">of_pathology_file</text>
</g>
<!-- sequencing_file -->
<g id="node25" class="node">
<title>sequencing_file</title>
<ellipse fill="none" stroke="#000000" cx="1277.0923" cy="-366" rx="83.3857" ry="18"/>
<text text-anchor="middle" x="1277.0923" y="-362.3" font-family="Times,serif" font-size="14.00" fill="#000000">sequencing_file</text>
</g>
<!-- sequencing_file&#45;&gt;cell_line -->
<g id="edge7" class="edge">
<title>sequencing_file&#45;&gt;cell_line</title>
<path fill="none" stroke="#000000" d="M1194.9329,-362.9523C1057.1332,-357.4375 793.0229,-344.974 779.0923,-330 770.5422,-320.8095 776.9777,-310.1566 787.1488,-300.9711"/>
<polygon fill="#000000" stroke="#000000" points="789.4755,-303.5909 795.0544,-294.5839 785.0763,-298.146 789.4755,-303.5909"/>
<text text-anchor="middle" x="845.5923" y="-318.8" font-family="Times,serif" font-size="14.00" fill="#000000">of_sequencing_file</text>
</g>
<!-- sequencing_file&#45;&gt;sample -->
<g id="edge6" class="edge">
<title>sequencing_file&#45;&gt;sample</title>
<path fill="none" stroke="#000000" d="M1273.5844,-347.8659C1270.2883,-325.3879 1268.2008,-286.8883 1286.0923,-261 1298.354,-243.2578 1348.9063,-221.5932 1386.6738,-207.3285"/>
<polygon fill="#000000" stroke="#000000" points="1388.3037,-210.4565 1396.456,-203.6896 1385.8632,-203.8957 1388.3037,-210.4565"/>
<text text-anchor="middle" x="1352.5923" y="-275.3" font-family="Times,serif" font-size="14.00" fill="#000000">of_sequencing_file</text>
</g>
<!-- sequencing_file&#45;&gt;pdx -->
<g id="edge8" class="edge">
<title>sequencing_file&#45;&gt;pdx</title>
<path fill="none" stroke="#000000" d="M1288.6417,-348.1626C1296.8872,-336.8958 1308.9881,-323.0024 1323.0923,-315 1358.9506,-294.6546 1374.7067,-309.1871 1414.0923,-297 1417.2753,-296.0151 1420.5443,-294.8688 1423.7856,-293.6407"/>
<polygon fill="#000000" stroke="#000000" points="1425.3522,-296.7827 1433.3118,-289.7902 1422.7289,-290.2928 1425.3522,-296.7827"/>
<text text-anchor="middle" x="1389.5923" y="-318.8" font-family="Times,serif" font-size="14.00" fill="#000000">of_sequencing_file</text>
</g>
</g>
</svg>
