<svg width="2370pt" height="305pt"
 viewBox="0.00 0.00 2370.32 305.00" xmlns="http://www.w3.org/2000/svg" xmlns:xlink="http://www.w3.org/1999/xlink">
<g id="graph0" class="graph" transform="scale(1 1) rotate(0) translate(4 301)">
<title>Perl</title>
<polygon fill="#ffffff" stroke="transparent" points="-4,4 -4,-301 2366.3244,-301 2366.3244,4 -4,4"/>
<!-- diagnosis -->
<g id="node1" class="node">
<title>diagnosis</title>
<ellipse fill="none" stroke="#000000" cx="1997.3244" cy="-192" rx="54.6905" ry="18"/>
<text text-anchor="middle" x="1997.3244" y="-188.3" font-family="Times,serif" font-size="14.00" fill="#000000">diagnosis</text>
</g>
<!-- participant -->
<g id="node22" class="node">
<title>participant</title>
<ellipse fill="none" stroke="#000000" cx="1194.3244" cy="-105" rx="62.2891" ry="18"/>
<text text-anchor="middle" x="1194.3244" y="-101.3" font-family="Times,serif" font-size="14.00" fill="#000000">participant</text>
</g>
<!-- diagnosis&#45;&gt;participant -->
<g id="edge11" class="edge">
<title>diagnosis&#45;&gt;participant</title>
<path fill="none" stroke="#000000" d="M1975.1122,-175.4929C1957.4696,-163.4237 1931.6372,-147.9905 1906.3244,-141 1768.9655,-103.0664 1406.4667,-142.6284 1265.3244,-123 1259.8927,-122.2446 1254.2762,-121.233 1248.6914,-120.0728"/>
<polygon fill="#000000" stroke="#000000" points="1249.2417,-116.6096 1238.7194,-117.8473 1247.7169,-123.4415 1249.2417,-116.6096"/>
<text text-anchor="middle" x="1984.8244" y="-144.8" font-family="Times,serif" font-size="14.00" fill="#000000">of_diagnosis</text>
</g>
<!-- methylation_array_file -->
<g id="node2" class="node">
<title>methylation_array_file</title>
<ellipse fill="none" stroke="#000000" cx="1880.3244" cy="-279" rx="115.8798" ry="18"/>
<text text-anchor="middle" x="1880.3244" y="-275.3" font-family="Times,serif" font-size="14.00" fill="#000000">methylation_array_file</text>
</g>
<!-- sample -->
<g id="node3" class="node">
<title>sample</title>
<ellipse fill="none" stroke="#000000" cx="1880.3244" cy="-192" rx="44.393" ry="18"/>
<text text-anchor="middle" x="1880.3244" y="-188.3" font-family="Times,serif" font-size="14.00" fill="#000000">sample</text>
</g>
<!-- methylation_array_file&#45;&gt;sample -->
<g id="edge7" class="edge">
<title>methylation_array_file&#45;&gt;sample</title>
<path fill="none" stroke="#000000" d="M1880.3244,-260.9735C1880.3244,-249.1918 1880.3244,-233.5607 1880.3244,-220.1581"/>
<polygon fill="#000000" stroke="#000000" points="1883.8245,-220.0033 1880.3244,-210.0034 1876.8245,-220.0034 1883.8245,-220.0033"/>
<text text-anchor="middle" x="1971.8244" y="-231.8" font-family="Times,serif" font-size="14.00" fill="#000000">of_methylation_array_file</text>
</g>
<!-- sample&#45;&gt;participant -->
<g id="edge20" class="edge">
<title>sample&#45;&gt;participant</title>
<path fill="none" stroke="#000000" d="M1860.8373,-175.5379C1845.2862,-163.4929 1822.3595,-148.0703 1799.3244,-141 1685.8168,-106.1604 1382.8802,-139.6852 1265.3244,-123 1259.8949,-122.2294 1254.2798,-121.2076 1248.6958,-120.0411"/>
<polygon fill="#000000" stroke="#000000" points="1249.2481,-116.5782 1238.7249,-117.8082 1247.7183,-123.409 1249.2481,-116.5782"/>
<text text-anchor="middle" x="1865.8244" y="-144.8" font-family="Times,serif" font-size="14.00" fill="#000000">of_sample</text>
</g>
<!-- family_relationship -->
<g id="node4" class="node">
<title>family_relationship</title>
<ellipse fill="none" stroke="#000000" cx="2170.3244" cy="-192" rx="100.1823" ry="18"/>
<text text-anchor="middle" x="2170.3244" y="-188.3" font-family="Times,serif" font-size="14.00" fill="#000000">family_relationship</text>
</g>
<!-- family_relationship&#45;&gt;participant -->
<g id="edge8" class="edge">
<title>family_relationship&#45;&gt;participant</title>
<path fill="none" stroke="#000000" d="M2134.9264,-175.092C2107.8053,-163.067 2069.089,-147.8746 2033.3244,-141 1865.6798,-108.7758 1434.4648,-146.1221 1265.3244,-123 1259.8122,-122.2465 1254.1105,-121.2248 1248.4449,-120.0486"/>
<polygon fill="#000000" stroke="#000000" points="1248.8574,-116.5545 1238.3348,-117.7892 1247.3306,-123.386 1248.8574,-116.5545"/>
<text text-anchor="middle" x="2162.8244" y="-144.8" font-family="Times,serif" font-size="14.00" fill="#000000">of_family_relationship</text>
</g>
<!-- pathology_file -->
<g id="node5" class="node">
<title>pathology_file</title>
<ellipse fill="none" stroke="#000000" cx="2090.3244" cy="-279" rx="76.0865" ry="18"/>
<text text-anchor="middle" x="2090.3244" y="-275.3" font-family="Times,serif" font-size="14.00" fill="#000000">pathology_file</text>
</g>
<!-- pathology_file&#45;&gt;sample -->
<g id="edge25" class="edge">
<title>pathology_file&#45;&gt;sample</title>
<path fill="none" stroke="#000000" d="M2086.814,-260.8402C2083.6603,-249.5884 2077.8392,-235.8341 2067.3244,-228 2019.1378,-192.0984 1991.8261,-223.7265 1933.3244,-210 1929.9097,-209.1988 1926.4043,-208.2657 1922.9017,-207.2538"/>
<polygon fill="#000000" stroke="#000000" points="1923.7028,-203.8384 1913.1155,-204.2377 1921.6411,-210.5279 1923.7028,-203.8384"/>
<text text-anchor="middle" x="2140.3244" y="-231.8" font-family="Times,serif" font-size="14.00" fill="#000000">of_pathology_file</text>
</g>
<!-- sequencing_file -->
<g id="node6" class="node">
<title>sequencing_file</title>
<ellipse fill="none" stroke="#000000" cx="2267.3244" cy="-279" rx="83.3857" ry="18"/>
<text text-anchor="middle" x="2267.3244" y="-275.3" font-family="Times,serif" font-size="14.00" fill="#000000">sequencing_file</text>
</g>
<!-- sequencing_file&#45;&gt;sample -->
<g id="edge5" class="edge">
<title>sequencing_file&#45;&gt;sample</title>
<path fill="none" stroke="#000000" d="M2251.597,-261.2506C2240.0663,-249.5582 2223.3356,-235.1359 2205.3244,-228 2149.0067,-205.6874 1992.7324,-221.8411 1933.3244,-210 1929.6791,-209.2734 1925.9399,-208.3621 1922.2163,-207.3375"/>
<polygon fill="#000000" stroke="#000000" points="1923.0554,-203.9351 1912.4712,-204.4098 1921.0412,-210.6391 1923.0554,-203.9351"/>
<text text-anchor="middle" x="2295.8244" y="-231.8" font-family="Times,serif" font-size="14.00" fill="#000000">of_sequencing_file</text>
</g>
<!-- clinical_measure_file -->
<g id="node7" class="node">
<title>clinical_measure_file</title>
<ellipse fill="none" stroke="#000000" cx="498.3244" cy="-192" rx="108.5808" ry="18"/>
<text text-anchor="middle" x="498.3244" y="-188.3" font-family="Times,serif" font-size="14.00" fill="#000000">clinical_measure_file</text>
</g>
<!-- study -->
<g id="node11" class="node">
<title>study</title>
<ellipse fill="none" stroke="#000000" cx="423.3244" cy="-18" rx="36.2938" ry="18"/>
<text text-anchor="middle" x="423.3244" y="-14.3" font-family="Times,serif" font-size="14.00" fill="#000000">study</text>
</g>
<!-- clinical_measure_file&#45;&gt;study -->
<g id="edge24" class="edge">
<title>clinical_measure_file&#45;&gt;study</title>
<path fill="none" stroke="#000000" d="M495.9268,-173.9331C491.3457,-141.2749 480.696,-73.9515 468.3244,-54 464.7111,-48.1729 459.8075,-42.8857 454.5633,-38.267"/>
<polygon fill="#000000" stroke="#000000" points="456.7366,-35.5234 446.7471,-31.9934 452.3549,-40.9824 456.7366,-35.5234"/>
<text text-anchor="middle" x="574.3244" y="-101.3" font-family="Times,serif" font-size="14.00" fill="#000000">of_clinical_measure_file</text>
</g>
<!-- clinical_measure_file&#45;&gt;participant -->
<g id="edge15" class="edge">
<title>clinical_measure_file&#45;&gt;participant</title>
<path fill="none" stroke="#000000" d="M502.2806,-173.7639C505.7821,-162.3288 512.1387,-148.3976 523.3244,-141 526.425,-138.9494 950.416,-117.3196 1122.7412,-108.6067"/>
<polygon fill="#000000" stroke="#000000" points="1122.924,-112.1021 1132.7346,-108.1017 1122.5706,-105.111 1122.924,-112.1021"/>
<text text-anchor="middle" x="652.8244" y="-144.8" font-family="Times,serif" font-size="14.00" fill="#000000">of_clinical_measure_file_participant</text>
</g>
<!-- radiology_file -->
<g id="node8" class="node">
<title>radiology_file</title>
<ellipse fill="none" stroke="#000000" cx="751.3244" cy="-192" rx="73.387" ry="18"/>
<text text-anchor="middle" x="751.3244" y="-188.3" font-family="Times,serif" font-size="14.00" fill="#000000">radiology_file</text>
</g>
<!-- radiology_file&#45;&gt;participant -->
<g id="edge12" class="edge">
<title>radiology_file&#45;&gt;participant</title>
<path fill="none" stroke="#000000" d="M766.1033,-174.1537C776.8072,-162.5765 792.3339,-148.3291 809.3244,-141 863.7433,-117.5255 1026.2412,-109.307 1121.844,-106.4669"/>
<polygon fill="#000000" stroke="#000000" points="1122.1232,-109.9604 1132.0196,-106.1774 1121.924,-102.9633 1122.1232,-109.9604"/>
<text text-anchor="middle" x="868.3244" y="-144.8" font-family="Times,serif" font-size="14.00" fill="#000000">of_radiology_file</text>
</g>
<!-- study_admin -->
<g id="node9" class="node">
<title>study_admin</title>
<ellipse fill="none" stroke="#000000" cx="94.3244" cy="-105" rx="70.3881" ry="18"/>
<text text-anchor="middle" x="94.3244" y="-101.3" font-family="Times,serif" font-size="14.00" fill="#000000">study_admin</text>
</g>
<!-- study_admin&#45;&gt;study -->
<g id="edge13" class="edge">
<title>study_admin&#45;&gt;study</title>
<path fill="none" stroke="#000000" d="M104.3506,-86.8474C111.6601,-75.4476 122.6596,-61.5243 136.3244,-54 176.5965,-31.8249 306.0791,-22.9544 376.5573,-19.7006"/>
<polygon fill="#000000" stroke="#000000" points="377.0888,-23.1806 386.9247,-19.2429 376.78,-16.1875 377.0888,-23.1806"/>
<text text-anchor="middle" x="192.8244" y="-57.8" font-family="Times,serif" font-size="14.00" fill="#000000">of_study_admin</text>
</g>
<!-- study_arm -->
<g id="node10" class="node">
<title>study_arm</title>
<ellipse fill="none" stroke="#000000" cx="242.3244" cy="-105" rx="59.5901" ry="18"/>
<text text-anchor="middle" x="242.3244" y="-101.3" font-family="Times,serif" font-size="14.00" fill="#000000">study_arm</text>
</g>
<!-- study_arm&#45;&gt;study -->
<g id="edge21" class="edge">
<title>study_arm&#45;&gt;study</title>
<path fill="none" stroke="#000000" d="M245.4044,-86.9286C248.2229,-75.8589 253.5169,-62.2734 263.3244,-54 280.3777,-39.6143 336.5143,-29.3503 377.491,-23.5528"/>
<polygon fill="#000000" stroke="#000000" points="378.1166,-26.9999 387.5491,-22.1754 377.1667,-20.0647 378.1166,-26.9999"/>
<text text-anchor="middle" x="311.8244" y="-57.8" font-family="Times,serif" font-size="14.00" fill="#000000">of_study_arm</text>
</g>
<!-- follow_up -->
<g id="node12" class="node">
<title>follow_up</title>
<ellipse fill="none" stroke="#000000" cx="898.3244" cy="-192" rx="55.4913" ry="18"/>
<text text-anchor="middle" x="898.3244" y="-188.3" font-family="Times,serif" font-size="14.00" fill="#000000">follow_up</text>
</g>
<!-- follow_up&#45;&gt;participant -->
<g id="edge9" class="edge">
<title>follow_up&#45;&gt;participant</title>
<path fill="none" stroke="#000000" d="M911.9645,-174.4389C921.8768,-162.989 936.318,-148.7765 952.3244,-141 981.7593,-126.6993 1063.4326,-116.5716 1123.7963,-110.7744"/>
<polygon fill="#000000" stroke="#000000" points="1124.4156,-114.2317 1134.0444,-109.8117 1123.7609,-107.2624 1124.4156,-114.2317"/>
<text text-anchor="middle" x="997.3244" y="-144.8" font-family="Times,serif" font-size="14.00" fill="#000000">of_follow_up</text>
</g>
<!-- publication -->
<g id="node13" class="node">
<title>publication</title>
<ellipse fill="none" stroke="#000000" cx="383.3244" cy="-105" rx="63.0888" ry="18"/>
<text text-anchor="middle" x="383.3244" y="-101.3" font-family="Times,serif" font-size="14.00" fill="#000000">publication</text>
</g>
<!-- publication&#45;&gt;study -->
<g id="edge10" class="edge">
<title>publication&#45;&gt;study</title>
<path fill="none" stroke="#000000" d="M370.4994,-87.3468C364.8078,-77.2124 360.5578,-64.4624 366.3244,-54 370.71,-46.0431 377.6767,-39.6017 385.2561,-34.4882"/>
<polygon fill="#000000" stroke="#000000" points="387.5213,-37.2125 394.3171,-29.0842 383.9358,-31.2005 387.5213,-37.2125"/>
<text text-anchor="middle" x="417.3244" y="-57.8" font-family="Times,serif" font-size="14.00" fill="#000000">of_publication</text>
</g>
<!-- molecular_test -->
<g id="node14" class="node">
<title>molecular_test</title>
<ellipse fill="none" stroke="#000000" cx="1051.3244" cy="-192" rx="79.8859" ry="18"/>
<text text-anchor="middle" x="1051.3244" y="-188.3" font-family="Times,serif" font-size="14.00" fill="#000000">molecular_test</text>
</g>
<!-- molecular_test&#45;&gt;participant -->
<g id="edge23" class="edge">
<title>molecular_test&#45;&gt;participant</title>
<path fill="none" stroke="#000000" d="M1046.6101,-173.6502C1045.0196,-163.027 1045.1657,-150.0163 1052.3244,-141 1062.028,-128.7784 1095.0593,-120.0015 1126.8233,-114.1752"/>
<polygon fill="#000000" stroke="#000000" points="1127.8123,-117.5555 1137.0606,-112.3866 1126.6074,-110.66 1127.8123,-117.5555"/>
<text text-anchor="middle" x="1116.3244" y="-144.8" font-family="Times,serif" font-size="14.00" fill="#000000">of_molecular_test</text>
</g>
<!-- single_cell_sequencing_file -->
<g id="node15" class="node">
<title>single_cell_sequencing_file</title>
<ellipse fill="none" stroke="#000000" cx="1506.3244" cy="-279" rx="137.5759" ry="18"/>
<text text-anchor="middle" x="1506.3244" y="-275.3" font-family="Times,serif" font-size="14.00" fill="#000000">single_cell_sequencing_file</text>
</g>
<!-- single_cell_sequencing_file&#45;&gt;sample -->
<g id="edge14" class="edge">
<title>single_cell_sequencing_file&#45;&gt;sample</title>
<path fill="none" stroke="#000000" d="M1522.3088,-261.0167C1533.8341,-249.3783 1550.4545,-235.1141 1568.3244,-228 1621.9272,-206.6604 1770.7617,-221.3712 1827.3244,-210 1830.9684,-209.2674 1834.7067,-208.3519 1838.4298,-207.3245"/>
<polygon fill="#000000" stroke="#000000" points="1839.6068,-210.6254 1848.174,-204.3922 1837.5896,-203.9223 1839.6068,-210.6254"/>
<text text-anchor="middle" x="1676.8244" y="-231.8" font-family="Times,serif" font-size="14.00" fill="#000000">of_single_cell_sequencing_file</text>
</g>
<!-- synonym -->
<g id="node16" class="node">
<title>synonym</title>
<ellipse fill="none" stroke="#000000" cx="1167.3244" cy="-279" rx="51.9908" ry="18"/>
<text text-anchor="middle" x="1167.3244" y="-275.3" font-family="Times,serif" font-size="14.00" fill="#000000">synonym</text>
</g>
<!-- synonym&#45;&gt;sample -->
<g id="edge18" class="edge">
<title>synonym&#45;&gt;sample</title>
<path fill="none" stroke="#000000" d="M1211.3189,-269.3773C1267.4231,-257.5235 1367.5747,-237.7605 1454.3244,-228 1619.2544,-209.4431 1664.2722,-240.988 1827.3244,-210 1830.976,-209.306 1834.7196,-208.4176 1838.4462,-207.4083"/>
<polygon fill="#000000" stroke="#000000" points="1839.6109,-210.7134 1848.1961,-204.5049 1837.6131,-204.0045 1839.6109,-210.7134"/>
<text text-anchor="middle" x="1496.8244" y="-231.8" font-family="Times,serif" font-size="14.00" fill="#000000">of_synonym</text>
</g>
<!-- synonym&#45;&gt;study -->
<g id="edge16" class="edge">
<title>synonym&#45;&gt;study</title>
<path fill="none" stroke="#000000" d="M1115.7977,-276.1487C901.0023,-263.7245 84.7817,-210.9588 15.3244,-123 -44.2868,-47.5101 88.7051,-59.6985 114.3244,-54 206.0247,-33.6032 315.7624,-24.3042 376.694,-20.4384"/>
<polygon fill="#000000" stroke="#000000" points="376.9988,-23.9263 386.7659,-19.8209 376.5704,-16.9394 376.9988,-23.9263"/>
<text text-anchor="middle" x="115.8244" y="-144.8" font-family="Times,serif" font-size="14.00" fill="#000000">of_synonym</text>
</g>
<!-- synonym&#45;&gt;participant -->
<g id="edge17" class="edge">
<title>synonym&#45;&gt;participant</title>
<path fill="none" stroke="#000000" d="M1167.9533,-260.6701C1168.893,-239.6203 1171.1448,-204.1121 1176.3244,-174 1177.693,-166.0432 1182.3395,-148.2832 1186.5685,-132.7746"/>
<polygon fill="#000000" stroke="#000000" points="1189.9702,-133.6043 1189.2486,-123.0341 1183.221,-131.7472 1189.9702,-133.6043"/>
<text text-anchor="middle" x="1218.8244" y="-188.3" font-family="Times,serif" font-size="14.00" fill="#000000">of_synonym</text>
</g>
<!-- therapeutic_procedure -->
<g id="node17" class="node">
<title>therapeutic_procedure</title>
<ellipse fill="none" stroke="#000000" cx="1388.3244" cy="-192" rx="117.7793" ry="18"/>
<text text-anchor="middle" x="1388.3244" y="-188.3" font-family="Times,serif" font-size="14.00" fill="#000000">therapeutic_procedure</text>
</g>
<!-- therapeutic_procedure&#45;&gt;participant -->
<g id="edge19" class="edge">
<title>therapeutic_procedure&#45;&gt;participant</title>
<path fill="none" stroke="#000000" d="M1349.9962,-174.8116C1317.596,-160.2816 1271.2064,-139.478 1237.502,-124.3632"/>
<polygon fill="#000000" stroke="#000000" points="1238.9109,-121.1592 1228.3542,-120.2608 1236.0465,-127.5464 1238.9109,-121.1592"/>
<text text-anchor="middle" x="1396.3244" y="-144.8" font-family="Times,serif" font-size="14.00" fill="#000000">of_therapeutic_procedure</text>
</g>
<!-- medical_history -->
<g id="node18" class="node">
<title>medical_history</title>
<ellipse fill="none" stroke="#000000" cx="1609.3244" cy="-192" rx="85.2851" ry="18"/>
<text text-anchor="middle" x="1609.3244" y="-188.3" font-family="Times,serif" font-size="14.00" fill="#000000">medical_history</text>
</g>
<!-- medical_history&#45;&gt;participant -->
<g id="edge6" class="edge">
<title>medical_history&#45;&gt;participant</title>
<path fill="none" stroke="#000000" d="M1578.341,-174.9536C1555.5404,-163.2717 1523.4058,-148.569 1493.3244,-141 1394.7484,-116.1965 1365.6168,-139.5493 1265.3244,-123 1259.992,-122.1201 1254.4734,-121.0363 1248.9772,-119.8404"/>
<polygon fill="#000000" stroke="#000000" points="1249.6829,-116.4115 1239.1534,-117.5869 1248.1177,-123.2343 1249.6829,-116.4115"/>
<text text-anchor="middle" x="1603.3244" y="-144.8" font-family="Times,serif" font-size="14.00" fill="#000000">of_medical_history</text>
</g>
<!-- study_funding -->
<g id="node19" class="node">
<title>study_funding</title>
<ellipse fill="none" stroke="#000000" cx="749.3244" cy="-105" rx="77.1866" ry="18"/>
<text text-anchor="middle" x="749.3244" y="-101.3" font-family="Times,serif" font-size="14.00" fill="#000000">study_funding</text>
</g>
<!-- study_funding&#45;&gt;study -->
<g id="edge1" class="edge">
<title>study_funding&#45;&gt;study</title>
<path fill="none" stroke="#000000" d="M698.3869,-91.4063C634.2283,-74.2842 525.1745,-45.1809 465.4722,-29.248"/>
<polygon fill="#000000" stroke="#000000" points="466.1887,-25.8168 455.6244,-26.6199 464.3837,-32.5801 466.1887,-25.8168"/>
<text text-anchor="middle" x="668.3244" y="-57.8" font-family="Times,serif" font-size="14.00" fill="#000000">of_study_funding</text>
</g>
<!-- pdx -->
<g id="node20" class="node">
<title>pdx</title>
<ellipse fill="none" stroke="#000000" cx="1718.3244" cy="-279" rx="27.8951" ry="18"/>
<text text-anchor="middle" x="1718.3244" y="-275.3" font-family="Times,serif" font-size="14.00" fill="#000000">pdx</text>
</g>
<!-- pdx&#45;&gt;sample -->
<g id="edge2" class="edge">
<title>pdx&#45;&gt;sample</title>
<path fill="none" stroke="#000000" d="M1739.8367,-267.4471C1766.5493,-253.1014 1812.4992,-228.4246 1844.5483,-211.2131"/>
<polygon fill="#000000" stroke="#000000" points="1846.447,-214.1662 1853.601,-206.3514 1843.1351,-207.9993 1846.447,-214.1662"/>
<text text-anchor="middle" x="1832.3244" y="-231.8" font-family="Times,serif" font-size="14.00" fill="#000000">of_pdx</text>
</g>
<!-- exposure -->
<g id="node21" class="node">
<title>exposure</title>
<ellipse fill="none" stroke="#000000" cx="1765.3244" cy="-192" rx="53.0913" ry="18"/>
<text text-anchor="middle" x="1765.3244" y="-188.3" font-family="Times,serif" font-size="14.00" fill="#000000">exposure</text>
</g>
<!-- exposure&#45;&gt;participant -->
<g id="edge3" class="edge">
<title>exposure&#45;&gt;participant</title>
<path fill="none" stroke="#000000" d="M1742.9909,-175.3561C1725.5502,-163.384 1700.1807,-148.1398 1675.3244,-141 1587.6699,-115.822 1355.5519,-136.2752 1265.3244,-123 1259.8989,-122.2017 1254.2865,-121.1616 1248.7041,-119.9838"/>
<polygon fill="#000000" stroke="#000000" points="1249.2599,-116.5214 1238.7351,-117.7375 1247.7211,-123.3501 1249.2599,-116.5214"/>
<text text-anchor="middle" x="1751.8244" y="-144.8" font-family="Times,serif" font-size="14.00" fill="#000000">of_exposure</text>
</g>
<!-- participant&#45;&gt;study -->
<g id="edge4" class="edge">
<title>participant&#45;&gt;study</title>
<path fill="none" stroke="#000000" d="M1136.058,-98.4252C988.5037,-81.7751 602.3817,-38.2049 469.2395,-23.1811"/>
<polygon fill="#000000" stroke="#000000" points="469.3184,-19.6679 458.9889,-22.0244 468.5334,-26.6237 469.3184,-19.6679"/>
<text text-anchor="middle" x="905.8244" y="-57.8" font-family="Times,serif" font-size="14.00" fill="#000000">of_participant</text>
</g>
<!-- study_personnel -->
<g id="node23" class="node">
<title>study_personnel</title>
<ellipse fill="none" stroke="#000000" cx="1361.3244" cy="-105" rx="87.1846" ry="18"/>
<text text-anchor="middle" x="1361.3244" y="-101.3" font-family="Times,serif" font-size="14.00" fill="#000000">study_personnel</text>
</g>
<!-- study_personnel&#45;&gt;study -->
<g id="edge22" class="edge">
<title>study_personnel&#45;&gt;study</title>
<path fill="none" stroke="#000000" d="M1298.4417,-92.487C1287.4287,-90.5023 1276.0606,-88.5849 1265.3244,-87 964.3634,-42.5718 598.3475,-24.8411 470.2684,-19.7116"/>
<polygon fill="#000000" stroke="#000000" points="470.1674,-16.205 460.0374,-19.3085 469.8918,-23.1995 470.1674,-16.205"/>
<text text-anchor="middle" x="1197.8244" y="-57.8" font-family="Times,serif" font-size="14.00" fill="#000000">of_study_personnel</text>
</g>
</g>
</svg>
