<svg width="2816pt" height="305pt"
 viewBox="0.00 0.00 2816.19 305.00" xmlns="http://www.w3.org/2000/svg" xmlns:xlink="http://www.w3.org/1999/xlink">
<g id="graph0" class="graph" transform="scale(1 1) rotate(0) translate(4 301)">
<title>Perl</title>
<polygon fill="#ffffff" stroke="transparent" points="-4,4 -4,-301 2812.1926,-301 2812.1926,4 -4,4"/>
<!-- sample -->
<g id="node1" class="node">
<title>sample</title>
<ellipse fill="none" stroke="#000000" cx="603.1926" cy="-192" rx="44.393" ry="18"/>
<text text-anchor="middle" x="603.1926" y="-188.3" font-family="Times,serif" font-size="14.00" fill="#000000">sample</text>
</g>
<!-- participant -->
<g id="node7" class="node">
<title>participant</title>
<ellipse fill="none" stroke="#000000" cx="1715.1926" cy="-105" rx="62.2891" ry="18"/>
<text text-anchor="middle" x="1715.1926" y="-101.3" font-family="Times,serif" font-size="14.00" fill="#000000">participant</text>
</g>
<!-- sample&#45;&gt;participant -->
<g id="edge11" class="edge">
<title>sample&#45;&gt;participant</title>
<path fill="none" stroke="#000000" d="M646.1466,-187.254C701.6417,-180.7516 794.9515,-168.4542 827.1926,-156 838.5768,-151.6025 838.5347,-144.6098 850.1926,-141 934.4888,-114.8979 1556.7563,-134.9187 1644.1926,-123 1649.705,-122.2486 1655.407,-121.2283 1661.0727,-120.053"/>
<polygon fill="#000000" stroke="#000000" points="1662.1865,-123.3905 1671.183,-117.7945 1660.6604,-116.5588 1662.1865,-123.3905"/>
<text text-anchor="middle" x="886.6926" y="-144.8" font-family="Times,serif" font-size="14.00" fill="#000000">of_sample</text>
</g>
<!-- cell_line -->
<g id="node15" class="node">
<title>cell_line</title>
<ellipse fill="none" stroke="#000000" cx="578.1926" cy="-105" rx="49.2915" ry="18"/>
<text text-anchor="middle" x="578.1926" y="-101.3" font-family="Times,serif" font-size="14.00" fill="#000000">cell_line</text>
</g>
<!-- sample&#45;&gt;cell_line -->
<g id="edge10" class="edge">
<title>sample&#45;&gt;cell_line</title>
<path fill="none" stroke="#000000" d="M564.0943,-183.4456C537.9802,-176.8488 507.0336,-167.0116 499.1926,-156 495.3257,-150.5694 495.5861,-146.6069 499.1926,-141 505.6902,-130.8986 515.7974,-123.5978 526.6373,-118.3327"/>
<polygon fill="#000000" stroke="#000000" points="528.0469,-121.5365 535.8521,-114.372 525.2827,-115.1054 528.0469,-121.5365"/>
<text text-anchor="middle" x="535.6926" y="-144.8" font-family="Times,serif" font-size="14.00" fill="#000000">of_sample</text>
</g>
<!-- pdx -->
<g id="node23" class="node">
<title>pdx</title>
<ellipse fill="none" stroke="#000000" cx="1607.1926" cy="-105" rx="27.8951" ry="18"/>
<text text-anchor="middle" x="1607.1926" y="-101.3" font-family="Times,serif" font-size="14.00" fill="#000000">pdx</text>
</g>
<!-- sample&#45;&gt;pdx -->
<g id="edge12" class="edge">
<title>sample&#45;&gt;pdx</title>
<path fill="none" stroke="#000000" d="M642.9284,-184.1067C668.7706,-178.1859 702.8144,-168.8789 731.1926,-156 742.3057,-150.9565 742.5336,-144.6063 754.1926,-141 840.8314,-114.2015 1482.0478,-144.3293 1570.1926,-123 1572.3927,-122.4676 1574.615,-121.7913 1576.8204,-121.0147"/>
<polygon fill="#000000" stroke="#000000" points="1578.3598,-124.1655 1586.2587,-117.1046 1575.6806,-117.6985 1578.3598,-124.1655"/>
<text text-anchor="middle" x="790.6926" y="-144.8" font-family="Times,serif" font-size="14.00" fill="#000000">of_sample</text>
</g>
<!-- treatment -->
<g id="node2" class="node">
<title>treatment</title>
<ellipse fill="none" stroke="#000000" cx="1078.1926" cy="-192" rx="57.6901" ry="18"/>
<text text-anchor="middle" x="1078.1926" y="-188.3" font-family="Times,serif" font-size="14.00" fill="#000000">treatment</text>
</g>
<!-- treatment&#45;&gt;participant -->
<g id="edge13" class="edge">
<title>treatment&#45;&gt;participant</title>
<path fill="none" stroke="#000000" d="M1103.7946,-175.828C1124.3765,-163.7701 1154.4925,-148.1937 1183.1926,-141 1282.6388,-116.0739 1542.7262,-137.6776 1644.1926,-123 1649.6201,-122.2149 1655.2337,-121.1835 1660.8169,-120.0111"/>
<polygon fill="#000000" stroke="#000000" points="1661.7972,-123.3782 1670.7868,-117.7712 1660.2627,-116.5484 1661.7972,-123.3782"/>
<text text-anchor="middle" x="1230.1926" y="-144.8" font-family="Times,serif" font-size="14.00" fill="#000000">of_treatment</text>
</g>
<!-- survival -->
<g id="node3" class="node">
<title>survival</title>
<ellipse fill="none" stroke="#000000" cx="1897.1926" cy="-192" rx="48.1917" ry="18"/>
<text text-anchor="middle" x="1897.1926" y="-188.3" font-family="Times,serif" font-size="14.00" fill="#000000">survival</text>
</g>
<!-- survival&#45;&gt;participant -->
<g id="edge28" class="edge">
<title>survival&#45;&gt;participant</title>
<path fill="none" stroke="#000000" d="M1893.7418,-173.9121C1890.6997,-162.8358 1885.1382,-149.2491 1875.1926,-141 1860.92,-129.162 1819.7503,-120.0507 1782.749,-113.956"/>
<polygon fill="#000000" stroke="#000000" points="1782.8749,-110.4321 1772.4491,-112.3172 1781.7749,-117.3451 1782.8749,-110.4321"/>
<text text-anchor="middle" x="1925.6926" y="-144.8" font-family="Times,serif" font-size="14.00" fill="#000000">of_survival</text>
</g>
<!-- treatment_response -->
<g id="node4" class="node">
<title>treatment_response</title>
<ellipse fill="none" stroke="#000000" cx="2068.1926" cy="-192" rx="104.7816" ry="18"/>
<text text-anchor="middle" x="2068.1926" y="-188.3" font-family="Times,serif" font-size="14.00" fill="#000000">treatment_response</text>
</g>
<!-- treatment_response&#45;&gt;participant -->
<g id="edge27" class="edge">
<title>treatment_response&#45;&gt;participant</title>
<path fill="none" stroke="#000000" d="M2040.2658,-174.3943C2021.0101,-163.077 1994.4319,-149.036 1969.1926,-141 1909.4137,-121.9668 1838.5195,-112.9797 1786.8403,-108.7458"/>
<polygon fill="#000000" stroke="#000000" points="1787.0115,-105.2486 1776.7697,-107.9609 1786.4674,-112.2275 1787.0115,-105.2486"/>
<text text-anchor="middle" x="2088.1926" y="-144.8" font-family="Times,serif" font-size="14.00" fill="#000000">of_treatment_response</text>
</g>
<!-- sequencing_file -->
<g id="node5" class="node">
<title>sequencing_file</title>
<ellipse fill="none" stroke="#000000" cx="83.1926" cy="-279" rx="83.3857" ry="18"/>
<text text-anchor="middle" x="83.1926" y="-275.3" font-family="Times,serif" font-size="14.00" fill="#000000">sequencing_file</text>
</g>
<!-- sequencing_file&#45;&gt;sample -->
<g id="edge5" class="edge">
<title>sequencing_file&#45;&gt;sample</title>
<path fill="none" stroke="#000000" d="M103.5431,-261.3449C118.2389,-249.6957 139.1295,-235.2863 160.1926,-228 230.6065,-203.6419 446.8818,-195.5472 548.8825,-193.0402"/>
<polygon fill="#000000" stroke="#000000" points="549.0624,-196.537 558.9768,-192.8012 548.8967,-189.539 549.0624,-196.537"/>
<text text-anchor="middle" x="226.6926" y="-231.8" font-family="Times,serif" font-size="14.00" fill="#000000">of_sequencing_file</text>
</g>
<!-- pathology_file -->
<g id="node6" class="node">
<title>pathology_file</title>
<ellipse fill="none" stroke="#000000" cx="458.1926" cy="-279" rx="76.0865" ry="18"/>
<text text-anchor="middle" x="458.1926" y="-275.3" font-family="Times,serif" font-size="14.00" fill="#000000">pathology_file</text>
</g>
<!-- pathology_file&#45;&gt;sample -->
<g id="edge19" class="edge">
<title>pathology_file&#45;&gt;sample</title>
<path fill="none" stroke="#000000" d="M459.2299,-260.7098C460.7934,-249.8379 464.5101,-236.5456 473.1926,-228 484.6012,-216.7714 520.8961,-207.2693 552.2454,-200.8517"/>
<polygon fill="#000000" stroke="#000000" points="553.0824,-204.254 562.2121,-198.8781 551.7227,-197.3873 553.0824,-204.254"/>
<text text-anchor="middle" x="534.1926" y="-231.8" font-family="Times,serif" font-size="14.00" fill="#000000">of_pathology_file</text>
</g>
<!-- study -->
<g id="node10" class="node">
<title>study</title>
<ellipse fill="none" stroke="#000000" cx="1679.1926" cy="-18" rx="36.2938" ry="18"/>
<text text-anchor="middle" x="1679.1926" y="-14.3" font-family="Times,serif" font-size="14.00" fill="#000000">study</text>
</g>
<!-- participant&#45;&gt;study -->
<g id="edge31" class="edge">
<title>participant&#45;&gt;study</title>
<path fill="none" stroke="#000000" d="M1707.7334,-86.9735C1702.7285,-74.8784 1696.0449,-58.7263 1690.4037,-45.0934"/>
<polygon fill="#000000" stroke="#000000" points="1693.5768,-43.6076 1686.5191,-35.7057 1687.1086,-46.2841 1693.5768,-43.6076"/>
<text text-anchor="middle" x="1749.6926" y="-57.8" font-family="Times,serif" font-size="14.00" fill="#000000">of_participant</text>
</g>
<!-- study_personnel -->
<g id="node8" class="node">
<title>study_personnel</title>
<ellipse fill="none" stroke="#000000" cx="1192.1926" cy="-105" rx="87.1846" ry="18"/>
<text text-anchor="middle" x="1192.1926" y="-101.3" font-family="Times,serif" font-size="14.00" fill="#000000">study_personnel</text>
</g>
<!-- study_personnel&#45;&gt;study -->
<g id="edge9" class="edge">
<title>study_personnel&#45;&gt;study</title>
<path fill="none" stroke="#000000" d="M1205.6777,-87.1062C1215.5208,-75.5078 1229.943,-61.2545 1246.1926,-54 1280.7795,-38.5589 1527.633,-25.187 1632.3831,-20.1424"/>
<polygon fill="#000000" stroke="#000000" points="1632.8365,-23.6249 1642.6584,-19.6524 1632.503,-16.6328 1632.8365,-23.6249"/>
<text text-anchor="middle" x="1315.6926" y="-57.8" font-family="Times,serif" font-size="14.00" fill="#000000">of_study_personnel</text>
</g>
<!-- publication -->
<g id="node9" class="node">
<title>publication</title>
<ellipse fill="none" stroke="#000000" cx="1360.1926" cy="-105" rx="63.0888" ry="18"/>
<text text-anchor="middle" x="1360.1926" y="-101.3" font-family="Times,serif" font-size="14.00" fill="#000000">publication</text>
</g>
<!-- publication&#45;&gt;study -->
<g id="edge26" class="edge">
<title>publication&#45;&gt;study</title>
<path fill="none" stroke="#000000" d="M1372.9121,-86.8639C1381.9446,-75.4711 1395.1135,-61.5494 1410.1926,-54 1448.1858,-34.9786 1566.1562,-24.8909 1632.5595,-20.5899"/>
<polygon fill="#000000" stroke="#000000" points="1632.9934,-24.0697 1642.754,-19.9489 1632.554,-17.0835 1632.9934,-24.0697"/>
<text text-anchor="middle" x="1461.1926" y="-57.8" font-family="Times,serif" font-size="14.00" fill="#000000">of_publication</text>
</g>
<!-- methylation_array_file -->
<g id="node11" class="node">
<title>methylation_array_file</title>
<ellipse fill="none" stroke="#000000" cx="668.1926" cy="-279" rx="115.8798" ry="18"/>
<text text-anchor="middle" x="668.1926" y="-275.3" font-family="Times,serif" font-size="14.00" fill="#000000">methylation_array_file</text>
</g>
<!-- methylation_array_file&#45;&gt;sample -->
<g id="edge32" class="edge">
<title>methylation_array_file&#45;&gt;sample</title>
<path fill="none" stroke="#000000" d="M623.8341,-262.1496C616.0276,-257.1714 608.9039,-250.8774 604.1926,-243 600.1925,-236.3118 598.8243,-228.1953 598.7513,-220.4229"/>
<polygon fill="#000000" stroke="#000000" points="602.2589,-220.3853 599.3289,-210.2037 595.27,-219.9903 602.2589,-220.3853"/>
<text text-anchor="middle" x="695.6926" y="-231.8" font-family="Times,serif" font-size="14.00" fill="#000000">of_methylation_array_file</text>
</g>
<!-- diagnosis -->
<g id="node12" class="node">
<title>diagnosis</title>
<ellipse fill="none" stroke="#000000" cx="885.1926" cy="-279" rx="54.6905" ry="18"/>
<text text-anchor="middle" x="885.1926" y="-275.3" font-family="Times,serif" font-size="14.00" fill="#000000">diagnosis</text>
</g>
<!-- diagnosis&#45;&gt;sample -->
<g id="edge21" class="edge">
<title>diagnosis&#45;&gt;sample</title>
<path fill="none" stroke="#000000" d="M852.6045,-264.4879C839.2578,-258.2546 823.7855,-250.6518 810.1926,-243 799.5578,-237.0134 798.5007,-232.5896 787.1926,-228 745.1504,-210.9363 694.3387,-201.7816 656.7727,-196.9821"/>
<polygon fill="#000000" stroke="#000000" points="656.8956,-193.4715 646.5467,-195.741 656.0521,-200.4205 656.8956,-193.4715"/>
<text text-anchor="middle" x="854.6926" y="-231.8" font-family="Times,serif" font-size="14.00" fill="#000000">of_diagnosis</text>
</g>
<!-- diagnosis&#45;&gt;participant -->
<g id="edge20" class="edge">
<title>diagnosis&#45;&gt;participant</title>
<path fill="none" stroke="#000000" d="M892.3456,-261.1201C894.597,-255.3581 897.0529,-248.9294 899.1926,-243 910.1652,-212.5937 897.4683,-194.8242 922.1926,-174 996.8066,-111.1558 1042.0634,-150.0859 1139.1926,-141 1362.8034,-120.0825 1421.8648,-154.7752 1644.1926,-123 1649.6214,-122.2241 1655.2359,-121.1988 1660.8196,-120.0302"/>
<polygon fill="#000000" stroke="#000000" points="1661.7981,-123.3978 1670.7902,-117.7948 1660.2667,-116.5674 1661.7981,-123.3978"/>
<text text-anchor="middle" x="966.6926" y="-188.3" font-family="Times,serif" font-size="14.00" fill="#000000">of_diagnosis</text>
</g>
<!-- molecular_test -->
<g id="node13" class="node">
<title>molecular_test</title>
<ellipse fill="none" stroke="#000000" cx="2392.1926" cy="-192" rx="79.8859" ry="18"/>
<text text-anchor="middle" x="2392.1926" y="-188.3" font-family="Times,serif" font-size="14.00" fill="#000000">molecular_test</text>
</g>
<!-- molecular_test&#45;&gt;participant -->
<g id="edge30" class="edge">
<title>molecular_test&#45;&gt;participant</title>
<path fill="none" stroke="#000000" d="M2332.9214,-179.8271C2298.7258,-172.3854 2259.3797,-162.9871 2243.1926,-156 2231.9879,-151.1635 2231.7596,-144.8915 2220.1926,-141 2142.1784,-114.7537 1908.0154,-107.6424 1787.9394,-105.7158"/>
<polygon fill="#000000" stroke="#000000" points="1787.79,-102.2132 1777.7377,-105.5602 1787.6832,-109.2124 1787.79,-102.2132"/>
<text text-anchor="middle" x="2307.1926" y="-144.8" font-family="Times,serif" font-size="14.00" fill="#000000">of_molecular_test</text>
</g>
<!-- study_arm -->
<g id="node14" class="node">
<title>study_arm</title>
<ellipse fill="none" stroke="#000000" cx="1501.1926" cy="-105" rx="59.5901" ry="18"/>
<text text-anchor="middle" x="1501.1926" y="-101.3" font-family="Times,serif" font-size="14.00" fill="#000000">study_arm</text>
</g>
<!-- study_arm&#45;&gt;study -->
<g id="edge1" class="edge">
<title>study_arm&#45;&gt;study</title>
<path fill="none" stroke="#000000" d="M1506.8794,-86.8882C1511.2676,-75.8024 1518.435,-62.2141 1529.1926,-54 1545.4873,-41.558 1595.9442,-31.1216 1633.8722,-24.7422"/>
<polygon fill="#000000" stroke="#000000" points="1634.8954,-28.1214 1644.1988,-23.0522 1633.7648,-21.2133 1634.8954,-28.1214"/>
<text text-anchor="middle" x="1577.6926" y="-57.8" font-family="Times,serif" font-size="14.00" fill="#000000">of_study_arm</text>
</g>
<!-- cell_line&#45;&gt;sample -->
<g id="edge4" class="edge">
<title>cell_line&#45;&gt;sample</title>
<path fill="none" stroke="#000000" d="M576.0959,-123.3373C575.5703,-133.2286 575.9075,-145.5216 579.1926,-156 580.2586,-159.4001 581.7536,-162.7763 583.482,-166.0206"/>
<polygon fill="#000000" stroke="#000000" points="580.6037,-168.0225 588.8089,-174.7252 586.5745,-164.3687 580.6037,-168.0225"/>
<text text-anchor="middle" x="619.6926" y="-144.8" font-family="Times,serif" font-size="14.00" fill="#000000">of_cell_line</text>
</g>
<!-- cell_line&#45;&gt;study -->
<g id="edge3" class="edge">
<title>cell_line&#45;&gt;study</title>
<path fill="none" stroke="#000000" d="M626.187,-100.244C723.0896,-90.7283 949.0765,-68.9767 1139.1926,-54 1321.6058,-39.6301 1538.9841,-26.2901 1632.5682,-20.7289"/>
<polygon fill="#000000" stroke="#000000" points="1633.0521,-24.2064 1642.8275,-20.1209 1632.638,-17.2187 1633.0521,-24.2064"/>
<text text-anchor="middle" x="1179.6926" y="-57.8" font-family="Times,serif" font-size="14.00" fill="#000000">of_cell_line</text>
</g>
<!-- cytogenomic_file -->
<g id="node16" class="node">
<title>cytogenomic_file</title>
<ellipse fill="none" stroke="#000000" cx="274.1926" cy="-279" rx="89.8845" ry="18"/>
<text text-anchor="middle" x="274.1926" y="-275.3" font-family="Times,serif" font-size="14.00" fill="#000000">cytogenomic_file</text>
</g>
<!-- cytogenomic_file&#45;&gt;sample -->
<g id="edge25" class="edge">
<title>cytogenomic_file&#45;&gt;sample</title>
<path fill="none" stroke="#000000" d="M284.2189,-260.8474C291.5283,-249.4476 302.5278,-235.5243 316.1926,-228 355.08,-206.5874 477.1484,-197.5802 548.9521,-194.0565"/>
<polygon fill="#000000" stroke="#000000" points="549.3412,-197.5421 559.1655,-193.5756 549.0119,-190.5499 549.3412,-197.5421"/>
<text text-anchor="middle" x="387.6926" y="-231.8" font-family="Times,serif" font-size="14.00" fill="#000000">of_cytogenomic_file</text>
</g>
<!-- synonym -->
<g id="node17" class="node">
<title>synonym</title>
<ellipse fill="none" stroke="#000000" cx="2209.1926" cy="-279" rx="51.9908" ry="18"/>
<text text-anchor="middle" x="2209.1926" y="-275.3" font-family="Times,serif" font-size="14.00" fill="#000000">synonym</text>
</g>
<!-- synonym&#45;&gt;sample -->
<g id="edge23" class="edge">
<title>synonym&#45;&gt;sample</title>
<path fill="none" stroke="#000000" d="M2157.6828,-276.4911C1981.1349,-267.8519 1384.1617,-238.3085 891.1926,-210 809.5673,-205.3127 714.9683,-199.2863 657.1107,-195.5332"/>
<polygon fill="#000000" stroke="#000000" points="657.3032,-192.0384 647.0973,-194.8825 656.8493,-199.0237 657.3032,-192.0384"/>
<text text-anchor="middle" x="1511.6926" y="-231.8" font-family="Times,serif" font-size="14.00" fill="#000000">of_synonym</text>
</g>
<!-- synonym&#45;&gt;participant -->
<g id="edge24" class="edge">
<title>synonym&#45;&gt;participant</title>
<path fill="none" stroke="#000000" d="M2210.7817,-260.8349C2212.2998,-230.7282 2210.3746,-170.8546 2175.1926,-141 2146.3796,-116.55 1910.1228,-108.5849 1787.8862,-106.0866"/>
<polygon fill="#000000" stroke="#000000" points="1787.9218,-102.5867 1777.8546,-105.8887 1787.7836,-109.5854 1787.9218,-102.5867"/>
<text text-anchor="middle" x="2250.6926" y="-188.3" font-family="Times,serif" font-size="14.00" fill="#000000">of_synonym</text>
</g>
<!-- synonym&#45;&gt;study -->
<g id="edge22" class="edge">
<title>synonym&#45;&gt;study</title>
<path fill="none" stroke="#000000" d="M2260.6654,-275.7797C2383.6275,-267.5642 2686.4687,-244.0431 2716.1926,-210 2737.0164,-186.1502 2719.9559,-113.0082 2697.1926,-87 2668.8584,-54.6266 2648.4126,-62.2666 2606.1926,-54 2519.5976,-37.0449 1901.94,-22.7371 1725.9076,-18.9692"/>
<polygon fill="#000000" stroke="#000000" points="1725.7528,-15.4652 1715.6805,-18.7515 1725.6038,-22.4636 1725.7528,-15.4652"/>
<text text-anchor="middle" x="2765.6926" y="-144.8" font-family="Times,serif" font-size="14.00" fill="#000000">of_synonym</text>
</g>
<!-- clinical_measure_file -->
<g id="node18" class="node">
<title>clinical_measure_file</title>
<ellipse fill="none" stroke="#000000" cx="2598.1926" cy="-192" rx="108.5808" ry="18"/>
<text text-anchor="middle" x="2598.1926" y="-188.3" font-family="Times,serif" font-size="14.00" fill="#000000">clinical_measure_file</text>
</g>
<!-- clinical_measure_file&#45;&gt;participant -->
<g id="edge7" class="edge">
<title>clinical_measure_file&#45;&gt;participant</title>
<path fill="none" stroke="#000000" d="M2519.0933,-179.5979C2466.8863,-171.1434 2406.0038,-160.6668 2394.1926,-156 2382.8424,-151.5154 2382.791,-144.7968 2371.1926,-141 2343.8355,-132.0445 1951.6041,-114.8231 1787.0402,-107.9441"/>
<polygon fill="#000000" stroke="#000000" points="1787.1457,-104.4455 1777.0086,-107.5258 1786.854,-111.4394 1787.1457,-104.4455"/>
<text text-anchor="middle" x="2480.1926" y="-144.8" font-family="Times,serif" font-size="14.00" fill="#000000">of_clinical_measure_file</text>
</g>
<!-- clinical_measure_file&#45;&gt;study -->
<g id="edge8" class="edge">
<title>clinical_measure_file&#45;&gt;study</title>
<path fill="none" stroke="#000000" d="M2591.8896,-173.873C2586.8482,-162.3294 2578.5527,-148.2319 2566.1926,-141 2530.4755,-120.1019 2235.2528,-128.1485 2194.1926,-123 2016.5253,-100.7224 1808.637,-50.9036 1721.2485,-28.8551"/>
<polygon fill="#000000" stroke="#000000" points="1721.9978,-25.4344 1711.4444,-26.3702 1720.2779,-32.2198 1721.9978,-25.4344"/>
<text text-anchor="middle" x="2280.1926" y="-101.3" font-family="Times,serif" font-size="14.00" fill="#000000">of_clinical_measure_file</text>
</g>
<!-- study_admin -->
<g id="node19" class="node">
<title>study_admin</title>
<ellipse fill="none" stroke="#000000" cx="2445.1926" cy="-105" rx="70.3881" ry="18"/>
<text text-anchor="middle" x="2445.1926" y="-101.3" font-family="Times,serif" font-size="14.00" fill="#000000">study_admin</text>
</g>
<!-- study_admin&#45;&gt;study -->
<g id="edge18" class="edge">
<title>study_admin&#45;&gt;study</title>
<path fill="none" stroke="#000000" d="M2394.6643,-92.3795C2345.181,-80.5302 2267.4793,-63.2777 2199.1926,-54 2025.4285,-30.3917 1816.7754,-21.8969 1725.6172,-19.1622"/>
<polygon fill="#000000" stroke="#000000" points="1725.7075,-15.6635 1715.6099,-18.8712 1725.5039,-22.6605 1725.7075,-15.6635"/>
<text text-anchor="middle" x="2343.6926" y="-57.8" font-family="Times,serif" font-size="14.00" fill="#000000">of_study_admin</text>
</g>
<!-- study_funding -->
<g id="node20" class="node">
<title>study_funding</title>
<ellipse fill="none" stroke="#000000" cx="2611.1926" cy="-105" rx="77.1866" ry="18"/>
<text text-anchor="middle" x="2611.1926" y="-101.3" font-family="Times,serif" font-size="14.00" fill="#000000">study_funding</text>
</g>
<!-- study_funding&#45;&gt;study -->
<g id="edge29" class="edge">
<title>study_funding&#45;&gt;study</title>
<path fill="none" stroke="#000000" d="M2564.0207,-90.6289C2522.3946,-78.6109 2459.8559,-62.1618 2404.1926,-54 2272.4911,-34.6889 1864.4742,-22.7348 1725.8417,-19.1454"/>
<polygon fill="#000000" stroke="#000000" points="1725.6513,-15.6395 1715.5649,-18.882 1725.4719,-22.6372 1725.6513,-15.6395"/>
<text text-anchor="middle" x="2540.1926" y="-57.8" font-family="Times,serif" font-size="14.00" fill="#000000">of_study_funding</text>
</g>
<!-- radiology_file -->
<g id="node21" class="node">
<title>radiology_file</title>
<ellipse fill="none" stroke="#000000" cx="1227.1926" cy="-192" rx="73.387" ry="18"/>
<text text-anchor="middle" x="1227.1926" y="-188.3" font-family="Times,serif" font-size="14.00" fill="#000000">radiology_file</text>
</g>
<!-- radiology_file&#45;&gt;participant -->
<g id="edge17" class="edge">
<title>radiology_file&#45;&gt;participant</title>
<path fill="none" stroke="#000000" d="M1250.0687,-174.6808C1267.0615,-162.8668 1291.334,-148.1184 1315.1926,-141 1385.3567,-120.0659 1571.8106,-134.0486 1644.1926,-123 1649.6138,-122.1725 1655.2232,-121.113 1660.8038,-119.9231"/>
<polygon fill="#000000" stroke="#000000" points="1661.7925,-123.2879 1670.7706,-117.6626 1660.2441,-116.4613 1661.7925,-123.2879"/>
<text text-anchor="middle" x="1374.1926" y="-144.8" font-family="Times,serif" font-size="14.00" fill="#000000">of_radiology_file</text>
</g>
<!-- medical_history -->
<g id="node22" class="node">
<title>medical_history</title>
<ellipse fill="none" stroke="#000000" cx="1404.1926" cy="-192" rx="85.2851" ry="18"/>
<text text-anchor="middle" x="1404.1926" y="-188.3" font-family="Times,serif" font-size="14.00" fill="#000000">medical_history</text>
</g>
<!-- medical_history&#45;&gt;participant -->
<g id="edge14" class="edge">
<title>medical_history&#45;&gt;participant</title>
<path fill="none" stroke="#000000" d="M1418.3478,-174.1786C1428.6317,-162.6126 1443.6091,-148.3682 1460.1926,-141 1535.2827,-107.637 1563.2496,-137.1364 1644.1926,-123 1649.3071,-122.1068 1654.5961,-121.0406 1659.8738,-119.8794"/>
<polygon fill="#000000" stroke="#000000" points="1661.0049,-123.2104 1669.9607,-117.5497 1659.4295,-116.39 1661.0049,-123.2104"/>
<text text-anchor="middle" x="1528.1926" y="-144.8" font-family="Times,serif" font-size="14.00" fill="#000000">of_medical_history</text>
</g>
<!-- pdx&#45;&gt;sample -->
<g id="edge16" class="edge">
<title>pdx&#45;&gt;sample</title>
<path fill="none" stroke="#000000" d="M1586.2605,-117.1118C1581.1602,-119.5136 1575.6094,-121.6946 1570.1926,-123 1473.9285,-146.1995 772.4034,-107.5821 679.1926,-141 669.065,-144.631 668.9752,-149.7855 660.1926,-156 652.7649,-161.2558 644.5918,-166.6394 636.8111,-171.5885"/>
<polygon fill="#000000" stroke="#000000" points="634.8616,-168.6798 628.2538,-176.9616 638.5839,-174.6081 634.8616,-168.6798"/>
<text text-anchor="middle" x="703.1926" y="-144.8" font-family="Times,serif" font-size="14.00" fill="#000000">of_pdx</text>
</g>
<!-- pdx&#45;&gt;study -->
<g id="edge15" class="edge">
<title>pdx&#45;&gt;study</title>
<path fill="none" stroke="#000000" d="M1617.7444,-87.8556C1624.3112,-77.6597 1633.1962,-64.6749 1642.1926,-54 1645.8746,-49.631 1650.0172,-45.2056 1654.1628,-41.0227"/>
<polygon fill="#000000" stroke="#000000" points="1656.8259,-43.3138 1661.5291,-33.82 1651.9321,-38.3088 1656.8259,-43.3138"/>
<text text-anchor="middle" x="1666.1926" y="-57.8" font-family="Times,serif" font-size="14.00" fill="#000000">of_pdx</text>
</g>
<!-- exposure -->
<g id="node24" class="node">
<title>exposure</title>
<ellipse fill="none" stroke="#000000" cx="1560.1926" cy="-192" rx="53.0913" ry="18"/>
<text text-anchor="middle" x="1560.1926" y="-188.3" font-family="Times,serif" font-size="14.00" fill="#000000">exposure</text>
</g>
<!-- exposure&#45;&gt;participant -->
<g id="edge6" class="edge">
<title>exposure&#45;&gt;participant</title>
<path fill="none" stroke="#000000" d="M1578.1049,-174.9906C1590.1488,-164.2109 1606.7705,-150.5506 1623.1926,-141 1635.7199,-133.7146 1649.9996,-127.3167 1663.5105,-122.0141"/>
<polygon fill="#000000" stroke="#000000" points="1665.0667,-125.1673 1673.1765,-118.3496 1662.5852,-118.6219 1665.0667,-125.1673"/>
<text text-anchor="middle" x="1666.6926" y="-144.8" font-family="Times,serif" font-size="14.00" fill="#000000">of_exposure</text>
</g>
<!-- family_relationship -->
<g id="node25" class="node">
<title>family_relationship</title>
<ellipse fill="none" stroke="#000000" cx="1731.1926" cy="-192" rx="100.1823" ry="18"/>
<text text-anchor="middle" x="1731.1926" y="-188.3" font-family="Times,serif" font-size="14.00" fill="#000000">family_relationship</text>
</g>
<!-- family_relationship&#45;&gt;participant -->
<g id="edge2" class="edge">
<title>family_relationship&#45;&gt;participant</title>
<path fill="none" stroke="#000000" d="M1722.0322,-173.7422C1719.6723,-168.1833 1717.4462,-161.9634 1716.1926,-156 1714.6572,-148.6958 1714.0243,-140.6732 1713.8662,-133.197"/>
<polygon fill="#000000" stroke="#000000" points="1717.3664,-133.1401 1713.9142,-123.1235 1710.3665,-133.1067 1717.3664,-133.1401"/>
<text text-anchor="middle" x="1795.6926" y="-144.8" font-family="Times,serif" font-size="14.00" fill="#000000">of_family_relationship</text>
</g>
</g>
</svg>
