<svg width="3087pt" height="392pt"
 viewBox="0.00 0.00 3086.74 392.00" xmlns="http://www.w3.org/2000/svg" xmlns:xlink="http://www.w3.org/1999/xlink">
<g id="graph0" class="graph" transform="scale(1 1) rotate(0) translate(4 388)">
<title>Perl</title>
<polygon fill="#ffffff" stroke="transparent" points="-4,4 -4,-388 3082.7422,-388 3082.7422,4 -4,4"/>
<!-- participant -->
<g id="node1" class="node">
<title>participant</title>
<ellipse fill="none" stroke="#000000" cx="1686.7422" cy="-192" rx="62.2891" ry="18"/>
<text text-anchor="middle" x="1686.7422" y="-188.3" font-family="Times,serif" font-size="14.00" fill="#000000">participant</text>
</g>
<!-- consent_group -->
<g id="node4" class="node">
<title>consent_group</title>
<ellipse fill="none" stroke="#000000" cx="1674.7422" cy="-105" rx="79.0865" ry="18"/>
<text text-anchor="middle" x="1674.7422" y="-101.3" font-family="Times,serif" font-size="14.00" fill="#000000">consent_group</text>
</g>
<!-- participant&#45;&gt;consent_group -->
<g id="edge18" class="edge">
<title>participant&#45;&gt;consent_group</title>
<path fill="none" stroke="#000000" d="M1684.2558,-173.9735C1682.6307,-162.1918 1680.4747,-146.5607 1678.6261,-133.1581"/>
<polygon fill="#000000" stroke="#000000" points="1682.0591,-132.4313 1677.2254,-123.0034 1675.1247,-133.3878 1682.0591,-132.4313"/>
<text text-anchor="middle" x="1731.2422" y="-144.8" font-family="Times,serif" font-size="14.00" fill="#000000">of_participant</text>
</g>
<!-- treatment_response -->
<g id="node2" class="node">
<title>treatment_response</title>
<ellipse fill="none" stroke="#000000" cx="2305.7422" cy="-279" rx="104.7816" ry="18"/>
<text text-anchor="middle" x="2305.7422" y="-275.3" font-family="Times,serif" font-size="14.00" fill="#000000">treatment_response</text>
</g>
<!-- treatment_response&#45;&gt;participant -->
<g id="edge4" class="edge">
<title>treatment_response&#45;&gt;participant</title>
<path fill="none" stroke="#000000" d="M2264.0944,-262.3732C2233.0804,-250.7372 2189.4227,-235.9109 2149.7422,-228 2076.9969,-213.4972 1869.6251,-201.244 1758.7409,-195.4992"/>
<polygon fill="#000000" stroke="#000000" points="1758.8116,-191.9983 1748.6451,-194.9803 1758.4522,-198.989 1758.8116,-191.9983"/>
<text text-anchor="middle" x="2288.7422" y="-231.8" font-family="Times,serif" font-size="14.00" fill="#000000">of_treatment_response</text>
</g>
<!-- sample -->
<g id="node3" class="node">
<title>sample</title>
<ellipse fill="none" stroke="#000000" cx="804.7422" cy="-279" rx="44.393" ry="18"/>
<text text-anchor="middle" x="804.7422" y="-275.3" font-family="Times,serif" font-size="14.00" fill="#000000">sample</text>
</g>
<!-- sample&#45;&gt;participant -->
<g id="edge13" class="edge">
<title>sample&#45;&gt;participant</title>
<path fill="none" stroke="#000000" d="M838.2355,-267.0897C844.6752,-264.952 851.3916,-262.826 857.7422,-261 891.1028,-251.4078 900.0148,-251.2096 933.7422,-243 960.4498,-236.4991 966.5571,-232.0653 993.7422,-228 1111.6718,-210.3648 1461.5776,-198.4775 1614.1974,-193.9933"/>
<polygon fill="#000000" stroke="#000000" points="1614.5062,-197.4859 1624.4,-193.696 1614.3022,-190.4889 1614.5062,-197.4859"/>
<text text-anchor="middle" x="1030.2422" y="-231.8" font-family="Times,serif" font-size="14.00" fill="#000000">of_sample</text>
</g>
<!-- pdx -->
<g id="node20" class="node">
<title>pdx</title>
<ellipse fill="none" stroke="#000000" cx="815.7422" cy="-192" rx="27.8951" ry="18"/>
<text text-anchor="middle" x="815.7422" y="-188.3" font-family="Times,serif" font-size="14.00" fill="#000000">pdx</text>
</g>
<!-- sample&#45;&gt;pdx -->
<g id="edge12" class="edge">
<title>sample&#45;&gt;pdx</title>
<path fill="none" stroke="#000000" d="M803.9977,-260.9716C803.8682,-251.1707 804.1525,-238.8656 805.7422,-228 806.1422,-225.2662 806.6859,-222.4455 807.3144,-219.6426"/>
<polygon fill="#000000" stroke="#000000" points="810.7561,-220.3118 809.8573,-209.7552 803.9768,-218.5682 810.7561,-220.3118"/>
<text text-anchor="middle" x="842.2422" y="-231.8" font-family="Times,serif" font-size="14.00" fill="#000000">of_sample</text>
</g>
<!-- cell_line -->
<g id="node23" class="node">
<title>cell_line</title>
<ellipse fill="none" stroke="#000000" cx="698.7422" cy="-192" rx="49.2915" ry="18"/>
<text text-anchor="middle" x="698.7422" y="-188.3" font-family="Times,serif" font-size="14.00" fill="#000000">cell_line</text>
</g>
<!-- sample&#45;&gt;cell_line -->
<g id="edge14" class="edge">
<title>sample&#45;&gt;cell_line</title>
<path fill="none" stroke="#000000" d="M769.423,-267.8153C755.2737,-262.0579 739.5601,-253.9117 727.7422,-243 720.5651,-236.3732 714.6954,-227.5538 710.1609,-219.1147"/>
<polygon fill="#000000" stroke="#000000" points="713.1716,-217.3064 705.6099,-209.8854 706.8934,-220.4022 713.1716,-217.3064"/>
<text text-anchor="middle" x="764.2422" y="-231.8" font-family="Times,serif" font-size="14.00" fill="#000000">of_sample</text>
</g>
<!-- study -->
<g id="node27" class="node">
<title>study</title>
<ellipse fill="none" stroke="#000000" cx="1339.7422" cy="-18" rx="36.2938" ry="18"/>
<text text-anchor="middle" x="1339.7422" y="-14.3" font-family="Times,serif" font-size="14.00" fill="#000000">study</text>
</g>
<!-- consent_group&#45;&gt;study -->
<g id="edge6" class="edge">
<title>consent_group&#45;&gt;study</title>
<path fill="none" stroke="#000000" d="M1650.5566,-87.5884C1633.5297,-76.2053 1609.7558,-62.0112 1586.7422,-54 1550.5689,-41.4078 1446.578,-29.0405 1385.6767,-22.5917"/>
<polygon fill="#000000" stroke="#000000" points="1385.8711,-19.093 1375.5611,-21.533 1385.1424,-26.0549 1385.8711,-19.093"/>
<text text-anchor="middle" x="1682.2422" y="-57.8" font-family="Times,serif" font-size="14.00" fill="#000000">of_consent_group</text>
</g>
<!-- sequencing_file -->
<g id="node5" class="node">
<title>sequencing_file</title>
<ellipse fill="none" stroke="#000000" cx="892.7422" cy="-366" rx="83.3857" ry="18"/>
<text text-anchor="middle" x="892.7422" y="-362.3" font-family="Times,serif" font-size="14.00" fill="#000000">sequencing_file</text>
</g>
<!-- sequencing_file&#45;&gt;sample -->
<g id="edge38" class="edge">
<title>sequencing_file&#45;&gt;sample</title>
<path fill="none" stroke="#000000" d="M874.9341,-348.3943C861.6762,-335.287 843.43,-317.2482 828.8639,-302.8476"/>
<polygon fill="#000000" stroke="#000000" points="831.2002,-300.2356 821.6281,-295.694 826.2788,-305.2136 831.2002,-300.2356"/>
<text text-anchor="middle" x="921.2422" y="-318.8" font-family="Times,serif" font-size="14.00" fill="#000000">of_sequencing_file</text>
</g>
<!-- clinical_measure_file -->
<g id="node6" class="node">
<title>clinical_measure_file</title>
<ellipse fill="none" stroke="#000000" cx="975.7422" cy="-279" rx="108.5808" ry="18"/>
<text text-anchor="middle" x="975.7422" y="-275.3" font-family="Times,serif" font-size="14.00" fill="#000000">clinical_measure_file</text>
</g>
<!-- clinical_measure_file&#45;&gt;participant -->
<g id="edge8" class="edge">
<title>clinical_measure_file&#45;&gt;participant</title>
<path fill="none" stroke="#000000" d="M1024.4531,-262.8373C1039.5822,-257.2122 1056.1184,-250.4296 1070.7422,-243 1081.6226,-237.4723 1082.1549,-231.8305 1093.7422,-228 1141.9475,-212.0644 1466.803,-199.3455 1614.2271,-194.3222"/>
<polygon fill="#000000" stroke="#000000" points="1614.6528,-197.8099 1624.5288,-193.9739 1614.4162,-190.8139 1614.6528,-197.8099"/>
<text text-anchor="middle" x="1179.7422" y="-231.8" font-family="Times,serif" font-size="14.00" fill="#000000">of_clinical_measure_file</text>
</g>
<!-- clinical_measure_file&#45;&gt;study -->
<g id="edge7" class="edge">
<title>clinical_measure_file&#45;&gt;study</title>
<path fill="none" stroke="#000000" d="M973.6751,-260.9679C973.2004,-250.9432 973.7474,-238.4257 977.7422,-228 1006.8791,-151.9595 1027.1378,-132.3955 1094.7422,-87 1155.9619,-45.8917 1241.4731,-29.0576 1293.5936,-22.3187"/>
<polygon fill="#000000" stroke="#000000" points="1294.0538,-25.7886 1303.5553,-21.1013 1293.2046,-18.8402 1294.0538,-25.7886"/>
<text text-anchor="middle" x="1112.7422" y="-144.8" font-family="Times,serif" font-size="14.00" fill="#000000">of_clinical_measure_file</text>
</g>
<!-- study_arm -->
<g id="node7" class="node">
<title>study_arm</title>
<ellipse fill="none" stroke="#000000" cx="941.7422" cy="-105" rx="59.5901" ry="18"/>
<text text-anchor="middle" x="941.7422" y="-101.3" font-family="Times,serif" font-size="14.00" fill="#000000">study_arm</text>
</g>
<!-- study_arm&#45;&gt;study -->
<g id="edge15" class="edge">
<title>study_arm&#45;&gt;study</title>
<path fill="none" stroke="#000000" d="M933.7807,-86.7942C930.3933,-75.954 928.8163,-62.6655 936.7422,-54 960.3804,-28.156 1191.7878,-20.7304 1292.8837,-18.7107"/>
<polygon fill="#000000" stroke="#000000" points="1293.1807,-22.2058 1303.1123,-18.516 1293.0475,-15.2071 1293.1807,-22.2058"/>
<text text-anchor="middle" x="985.2422" y="-57.8" font-family="Times,serif" font-size="14.00" fill="#000000">of_study_arm</text>
</g>
<!-- survival -->
<g id="node8" class="node">
<title>survival</title>
<ellipse fill="none" stroke="#000000" cx="1442.7422" cy="-279" rx="48.1917" ry="18"/>
<text text-anchor="middle" x="1442.7422" y="-275.3" font-family="Times,serif" font-size="14.00" fill="#000000">survival</text>
</g>
<!-- survival&#45;&gt;participant -->
<g id="edge19" class="edge">
<title>survival&#45;&gt;participant</title>
<path fill="none" stroke="#000000" d="M1448.7522,-261.1091C1453.487,-249.8199 1461.2345,-235.9214 1472.7422,-228 1495.5919,-212.2713 1562.9646,-202.7258 1616.0775,-197.4545"/>
<polygon fill="#000000" stroke="#000000" points="1616.5332,-200.9269 1626.1533,-196.488 1615.8647,-193.9589 1616.5332,-200.9269"/>
<text text-anchor="middle" x="1512.2422" y="-231.8" font-family="Times,serif" font-size="14.00" fill="#000000">of_survival</text>
</g>
<!-- radiology_file -->
<g id="node9" class="node">
<title>radiology_file</title>
<ellipse fill="none" stroke="#000000" cx="1582.7422" cy="-279" rx="73.387" ry="18"/>
<text text-anchor="middle" x="1582.7422" y="-275.3" font-family="Times,serif" font-size="14.00" fill="#000000">radiology_file</text>
</g>
<!-- radiology_file&#45;&gt;participant -->
<g id="edge31" class="edge">
<title>radiology_file&#45;&gt;participant</title>
<path fill="none" stroke="#000000" d="M1565.9781,-261.4179C1558.178,-251.0668 1552.1279,-238.0727 1559.7422,-228 1567.8041,-217.3352 1594.8964,-208.9139 1621.9985,-202.9063"/>
<polygon fill="#000000" stroke="#000000" points="1622.889,-206.2955 1631.9487,-200.8025 1621.4409,-199.4469 1622.889,-206.2955"/>
<text text-anchor="middle" x="1618.7422" y="-231.8" font-family="Times,serif" font-size="14.00" fill="#000000">of_radiology_file</text>
</g>
<!-- diagnosis -->
<g id="node10" class="node">
<title>diagnosis</title>
<ellipse fill="none" stroke="#000000" cx="1084.7422" cy="-366" rx="54.6905" ry="18"/>
<text text-anchor="middle" x="1084.7422" y="-362.3" font-family="Times,serif" font-size="14.00" fill="#000000">diagnosis</text>
</g>
<!-- diagnosis&#45;&gt;participant -->
<g id="edge20" class="edge">
<title>diagnosis&#45;&gt;participant</title>
<path fill="none" stroke="#000000" d="M1095.8502,-348.2999C1114.2439,-319.1068 1149.4388,-263.7851 1153.7422,-261 1196.0683,-233.6078 1217.5603,-257.8434 1265.7422,-243 1280.7532,-238.3756 1282.5846,-232.1185 1297.7422,-228 1355.6817,-212.257 1519.5408,-201.0706 1615.0993,-195.6681"/>
<polygon fill="#000000" stroke="#000000" points="1615.4752,-199.1527 1625.2645,-195.1006 1615.085,-192.1635 1615.4752,-199.1527"/>
<text text-anchor="middle" x="1198.2422" y="-275.3" font-family="Times,serif" font-size="14.00" fill="#000000">of_diagnosis</text>
</g>
<!-- diagnosis&#45;&gt;sample -->
<g id="edge21" class="edge">
<title>diagnosis&#45;&gt;sample</title>
<path fill="none" stroke="#000000" d="M1055.6167,-350.5968C1043.8158,-344.2919 1030.0859,-336.8748 1017.7422,-330 1006.0872,-323.5087 1004.37,-319.3028 991.7422,-315 934.8631,-295.6189 916.2439,-310.7265 857.7422,-297 854.3275,-296.1988 850.8221,-295.2657 847.3195,-294.2538"/>
<polygon fill="#000000" stroke="#000000" points="848.1207,-290.8384 837.5334,-291.2377 846.0589,-297.5279 848.1207,-290.8384"/>
<text text-anchor="middle" x="1062.2422" y="-318.8" font-family="Times,serif" font-size="14.00" fill="#000000">of_diagnosis</text>
</g>
<!-- generic_file -->
<g id="node11" class="node">
<title>generic_file</title>
<ellipse fill="none" stroke="#000000" cx="2704.7422" cy="-366" rx="65.7887" ry="18"/>
<text text-anchor="middle" x="2704.7422" y="-362.3" font-family="Times,serif" font-size="14.00" fill="#000000">generic_file</text>
</g>
<!-- generic_file&#45;&gt;participant -->
<g id="edge10" class="edge">
<title>generic_file&#45;&gt;participant</title>
<path fill="none" stroke="#000000" d="M2703.7526,-347.8355C2700.8118,-315.0169 2689.1318,-247.4394 2642.7422,-228 2602.2374,-211.0266 1975.9244,-197.5234 1759.5792,-193.3447"/>
<polygon fill="#000000" stroke="#000000" points="1759.3495,-189.8397 1749.2841,-193.1469 1759.215,-196.8385 1759.3495,-189.8397"/>
<text text-anchor="middle" x="2746.7422" y="-275.3" font-family="Times,serif" font-size="14.00" fill="#000000">of_generic_file</text>
</g>
<!-- generic_file&#45;&gt;sample -->
<g id="edge11" class="edge">
<title>generic_file&#45;&gt;sample</title>
<path fill="none" stroke="#000000" d="M2639.6107,-363.3437C2448.4035,-355.572 1872.0432,-332.3344 1393.7422,-315 1274.6421,-310.6836 974.9846,-318.3933 857.7422,-297 854.0348,-296.3235 850.2344,-295.4389 846.4542,-294.4248"/>
<polygon fill="#000000" stroke="#000000" points="847.1555,-290.982 836.5729,-291.4917 845.1635,-297.6926 847.1555,-290.982"/>
<text text-anchor="middle" x="1842.7422" y="-318.8" font-family="Times,serif" font-size="14.00" fill="#000000">of_generic_file</text>
</g>
<!-- generic_file&#45;&gt;study -->
<g id="edge9" class="edge">
<title>generic_file&#45;&gt;study</title>
<path fill="none" stroke="#000000" d="M2764.8866,-358.7222C2843.902,-347.4504 2972.7422,-322.4147 2972.7422,-279 2972.7422,-279 2972.7422,-279 2972.7422,-105 2972.7422,-77.2551 2961.2311,-67.0412 2936.7422,-54 2901.6398,-35.3067 1646.5958,-21.2032 1386.5968,-18.4783"/>
<polygon fill="#000000" stroke="#000000" points="1386.4004,-14.9762 1376.3644,-18.3716 1386.3273,-21.9758 1386.4004,-14.9762"/>
<text text-anchor="middle" x="3025.7422" y="-188.3" font-family="Times,serif" font-size="14.00" fill="#000000">of_generic_file</text>
</g>
<!-- study_admin -->
<g id="node12" class="node">
<title>study_admin</title>
<ellipse fill="none" stroke="#000000" cx="1173.7422" cy="-105" rx="70.3881" ry="18"/>
<text text-anchor="middle" x="1173.7422" y="-101.3" font-family="Times,serif" font-size="14.00" fill="#000000">study_admin</text>
</g>
<!-- study_admin&#45;&gt;study -->
<g id="edge30" class="edge">
<title>study_admin&#45;&gt;study</title>
<path fill="none" stroke="#000000" d="M1186.9752,-87.1697C1195.9635,-76.1962 1208.7321,-62.6272 1222.7422,-54 1244.8114,-40.4101 1272.4056,-31.5983 1295.2526,-26.0964"/>
<polygon fill="#000000" stroke="#000000" points="1296.0763,-29.4985 1305.0502,-23.8665 1294.5228,-22.673 1296.0763,-29.4985"/>
<text text-anchor="middle" x="1279.2422" y="-57.8" font-family="Times,serif" font-size="14.00" fill="#000000">of_study_admin</text>
</g>
<!-- genetic_analysis -->
<g id="node13" class="node">
<title>genetic_analysis</title>
<ellipse fill="none" stroke="#000000" cx="87.7422" cy="-366" rx="87.9851" ry="18"/>
<text text-anchor="middle" x="87.7422" y="-362.3" font-family="Times,serif" font-size="14.00" fill="#000000">genetic_analysis</text>
</g>
<!-- genetic_analysis&#45;&gt;sample -->
<g id="edge32" class="edge">
<title>genetic_analysis&#45;&gt;sample</title>
<path fill="none" stroke="#000000" d="M115.2469,-348.7395C135.5565,-336.9538 164.3209,-322.2152 191.7422,-315 296.3877,-287.4652 620.5333,-280.9621 750.2588,-279.4496"/>
<polygon fill="#000000" stroke="#000000" points="750.4017,-282.9483 760.3622,-279.3374 750.3239,-275.9487 750.4017,-282.9483"/>
<text text-anchor="middle" x="261.7422" y="-318.8" font-family="Times,serif" font-size="14.00" fill="#000000">of_genetic_analysis</text>
</g>
<!-- family_relationship -->
<g id="node14" class="node">
<title>family_relationship</title>
<ellipse fill="none" stroke="#000000" cx="1894.7422" cy="-279" rx="100.1823" ry="18"/>
<text text-anchor="middle" x="1894.7422" y="-275.3" font-family="Times,serif" font-size="14.00" fill="#000000">family_relationship</text>
</g>
<!-- family_relationship&#45;&gt;participant -->
<g id="edge29" class="edge">
<title>family_relationship&#45;&gt;participant</title>
<path fill="none" stroke="#000000" d="M1855.1294,-262.4312C1819.9642,-247.7226 1768.6071,-226.2415 1731.8677,-210.8746"/>
<polygon fill="#000000" stroke="#000000" points="1732.9667,-207.5405 1722.3906,-206.9106 1730.2655,-213.9984 1732.9667,-207.5405"/>
<text text-anchor="middle" x="1882.2422" y="-231.8" font-family="Times,serif" font-size="14.00" fill="#000000">of_family_relationship</text>
</g>
<!-- study_funding -->
<g id="node15" class="node">
<title>study_funding</title>
<ellipse fill="none" stroke="#000000" cx="1339.7422" cy="-105" rx="77.1866" ry="18"/>
<text text-anchor="middle" x="1339.7422" y="-101.3" font-family="Times,serif" font-size="14.00" fill="#000000">study_funding</text>
</g>
<!-- study_funding&#45;&gt;study -->
<g id="edge28" class="edge">
<title>study_funding&#45;&gt;study</title>
<path fill="none" stroke="#000000" d="M1339.7422,-86.9735C1339.7422,-75.1918 1339.7422,-59.5607 1339.7422,-46.1581"/>
<polygon fill="#000000" stroke="#000000" points="1343.2423,-46.0033 1339.7422,-36.0034 1336.2423,-46.0034 1343.2423,-46.0033"/>
<text text-anchor="middle" x="1401.7422" y="-57.8" font-family="Times,serif" font-size="14.00" fill="#000000">of_study_funding</text>
</g>
<!-- cytogenomic_file -->
<g id="node16" class="node">
<title>cytogenomic_file</title>
<ellipse fill="none" stroke="#000000" cx="282.7422" cy="-366" rx="89.8845" ry="18"/>
<text text-anchor="middle" x="282.7422" y="-362.3" font-family="Times,serif" font-size="14.00" fill="#000000">cytogenomic_file</text>
</g>
<!-- cytogenomic_file&#45;&gt;sample -->
<g id="edge25" class="edge">
<title>cytogenomic_file&#45;&gt;sample</title>
<path fill="none" stroke="#000000" d="M305.508,-348.3704C321.8686,-336.733 344.9709,-322.3271 367.7422,-315 437.4689,-292.5641 649.3057,-283.5163 750.1982,-280.4065"/>
<polygon fill="#000000" stroke="#000000" points="750.591,-283.8964 760.4816,-280.0983 750.3813,-276.8995 750.591,-283.8964"/>
<text text-anchor="middle" x="439.2422" y="-318.8" font-family="Times,serif" font-size="14.00" fill="#000000">of_cytogenomic_file</text>
</g>
<!-- medical_history -->
<g id="node17" class="node">
<title>medical_history</title>
<ellipse fill="none" stroke="#000000" cx="2097.7422" cy="-279" rx="85.2851" ry="18"/>
<text text-anchor="middle" x="2097.7422" y="-275.3" font-family="Times,serif" font-size="14.00" fill="#000000">medical_history</text>
</g>
<!-- medical_history&#45;&gt;participant -->
<g id="edge35" class="edge">
<title>medical_history&#45;&gt;participant</title>
<path fill="none" stroke="#000000" d="M2062.0891,-262.5294C2035.9519,-251.1262 1999.3185,-236.5201 1965.7422,-228 1896.2999,-210.3787 1814.8316,-201.1314 1757.9208,-196.4472"/>
<polygon fill="#000000" stroke="#000000" points="1758.1898,-192.9577 1747.9433,-195.652 1757.6336,-199.9355 1758.1898,-192.9577"/>
<text text-anchor="middle" x="2077.7422" y="-231.8" font-family="Times,serif" font-size="14.00" fill="#000000">of_medical_history</text>
</g>
<!-- publication -->
<g id="node18" class="node">
<title>publication</title>
<ellipse fill="none" stroke="#000000" cx="1497.7422" cy="-105" rx="63.0888" ry="18"/>
<text text-anchor="middle" x="1497.7422" y="-101.3" font-family="Times,serif" font-size="14.00" fill="#000000">publication</text>
</g>
<!-- publication&#45;&gt;study -->
<g id="edge5" class="edge">
<title>publication&#45;&gt;study</title>
<path fill="none" stroke="#000000" d="M1491.2246,-87.0168C1486.3535,-75.9822 1478.645,-62.4028 1467.7422,-54 1454.502,-43.7958 1415.2765,-33.6154 1383.7043,-26.6978"/>
<polygon fill="#000000" stroke="#000000" points="1384.2762,-23.241 1373.7651,-24.5706 1382.8111,-30.086 1384.2762,-23.241"/>
<text text-anchor="middle" x="1531.7422" y="-57.8" font-family="Times,serif" font-size="14.00" fill="#000000">of_publication</text>
</g>
<!-- laboratory_test -->
<g id="node19" class="node">
<title>laboratory_test</title>
<ellipse fill="none" stroke="#000000" cx="1405.7422" cy="-366" rx="81.7856" ry="18"/>
<text text-anchor="middle" x="1405.7422" y="-362.3" font-family="Times,serif" font-size="14.00" fill="#000000">laboratory_test</text>
</g>
<!-- laboratory_test&#45;&gt;participant -->
<g id="edge26" class="edge">
<title>laboratory_test&#45;&gt;participant</title>
<path fill="none" stroke="#000000" d="M1475.9644,-356.6469C1511.2281,-349.1579 1542.6437,-336.283 1522.7422,-315 1481.9739,-271.4017 1295.5105,-340.5983 1254.7422,-297 1243.8142,-285.3134 1244.3952,-273.2041 1254.7422,-261 1277.8359,-233.7614 1500.1607,-209.3038 1616.5168,-198.2425"/>
<polygon fill="#000000" stroke="#000000" points="1617.1265,-201.7007 1626.7541,-197.2779 1616.4698,-194.7315 1617.1265,-201.7007"/>
<text text-anchor="middle" x="1320.2422" y="-275.3" font-family="Times,serif" font-size="14.00" fill="#000000">of_laboratory_test</text>
</g>
<!-- laboratory_test&#45;&gt;sample -->
<g id="edge27" class="edge">
<title>laboratory_test&#45;&gt;sample</title>
<path fill="none" stroke="#000000" d="M1330.3685,-358.8939C1280.1602,-353.2568 1212.96,-343.9697 1154.7422,-330 1134.6518,-325.1792 1130.9919,-319.1004 1110.7422,-315 1000.2559,-292.6275 968.2414,-319.3088 857.7422,-297 854.0988,-296.2644 850.3609,-295.3468 846.6381,-294.318"/>
<polygon fill="#000000" stroke="#000000" points="847.4788,-290.916 836.8943,-291.3835 845.4602,-297.6186 847.4788,-290.916"/>
<text text-anchor="middle" x="1220.2422" y="-318.8" font-family="Times,serif" font-size="14.00" fill="#000000">of_laboratory_test</text>
</g>
<!-- pdx&#45;&gt;sample -->
<g id="edge36" class="edge">
<title>pdx&#45;&gt;sample</title>
<path fill="none" stroke="#000000" d="M840.7134,-200.0839C863.0886,-208.762 890.6832,-223.9118 878.7422,-243 874.7332,-249.4085 861.3944,-256.6702 847.1239,-262.9847"/>
<polygon fill="#000000" stroke="#000000" points="845.5415,-259.8539 837.7003,-266.979 848.2733,-266.2989 845.5415,-259.8539"/>
<text text-anchor="middle" x="905.7422" y="-231.8" font-family="Times,serif" font-size="14.00" fill="#000000">of_pdx</text>
</g>
<!-- pdx&#45;&gt;study -->
<g id="edge37" class="edge">
<title>pdx&#45;&gt;study</title>
<path fill="none" stroke="#000000" d="M811.7441,-173.8493C807.8365,-150.999 805.0093,-111.7481 824.7422,-87 854.7105,-49.4152 880.6172,-63.4843 927.7422,-54 996.6204,-40.1376 1200.9729,-26.4307 1293.4094,-20.7432"/>
<polygon fill="#000000" stroke="#000000" points="1293.816,-24.225 1303.584,-20.1218 1293.3892,-17.238 1293.816,-24.225"/>
<text text-anchor="middle" x="848.7422" y="-101.3" font-family="Times,serif" font-size="14.00" fill="#000000">of_pdx</text>
</g>
<!-- methylation_array_file -->
<g id="node21" class="node">
<title>methylation_array_file</title>
<ellipse fill="none" stroke="#000000" cx="505.7422" cy="-366" rx="115.8798" ry="18"/>
<text text-anchor="middle" x="505.7422" y="-362.3" font-family="Times,serif" font-size="14.00" fill="#000000">methylation_array_file</text>
</g>
<!-- methylation_array_file&#45;&gt;sample -->
<g id="edge16" class="edge">
<title>methylation_array_file&#45;&gt;sample</title>
<path fill="none" stroke="#000000" d="M508.139,-347.884C510.6122,-336.65 515.6205,-322.8994 525.7422,-315 543.117,-301.4401 674.705,-289.104 750.8005,-283.0077"/>
<polygon fill="#000000" stroke="#000000" points="751.4589,-286.4667 761.1519,-282.1894 750.9072,-279.4884 751.4589,-286.4667"/>
<text text-anchor="middle" x="617.2422" y="-318.8" font-family="Times,serif" font-size="14.00" fill="#000000">of_methylation_array_file</text>
</g>
<!-- exposure -->
<g id="node22" class="node">
<title>exposure</title>
<ellipse fill="none" stroke="#000000" cx="2481.7422" cy="-279" rx="53.0913" ry="18"/>
<text text-anchor="middle" x="2481.7422" y="-275.3" font-family="Times,serif" font-size="14.00" fill="#000000">exposure</text>
</g>
<!-- exposure&#45;&gt;participant -->
<g id="edge17" class="edge">
<title>exposure&#45;&gt;participant</title>
<path fill="none" stroke="#000000" d="M2456.2746,-263.1805C2435.4607,-251.1487 2404.8269,-235.4365 2375.7422,-228 2317.2742,-213.0507 1923.8684,-199.3282 1759.1043,-194.1655"/>
<polygon fill="#000000" stroke="#000000" points="1759.1653,-190.6658 1749.0611,-193.8525 1758.9472,-197.6624 1759.1653,-190.6658"/>
<text text-anchor="middle" x="2458.2422" y="-231.8" font-family="Times,serif" font-size="14.00" fill="#000000">of_exposure</text>
</g>
<!-- cell_line&#45;&gt;sample -->
<g id="edge33" class="edge">
<title>cell_line&#45;&gt;sample</title>
<path fill="none" stroke="#000000" d="M661.4741,-204.0566C639.257,-213.2289 617.6972,-226.9797 630.7422,-243 645.7272,-261.4026 705.5543,-270.6887 750.9076,-275.1692"/>
<polygon fill="#000000" stroke="#000000" points="750.6416,-278.6595 760.9239,-276.1052 751.2929,-271.6899 750.6416,-278.6595"/>
<text text-anchor="middle" x="671.2422" y="-231.8" font-family="Times,serif" font-size="14.00" fill="#000000">of_cell_line</text>
</g>
<!-- cell_line&#45;&gt;study -->
<g id="edge34" class="edge">
<title>cell_line&#45;&gt;study</title>
<path fill="none" stroke="#000000" d="M698.2497,-173.8088C698.6405,-150.5476 702.9077,-110.4774 725.7422,-87 762.8163,-48.8822 788.3873,-63.2964 840.7422,-54 926.9196,-38.6979 1186.679,-25.1772 1293.3006,-20.117"/>
<polygon fill="#000000" stroke="#000000" points="1293.6063,-23.6066 1303.4306,-19.6399 1293.2769,-16.6143 1293.6063,-23.6066"/>
<text text-anchor="middle" x="766.2422" y="-101.3" font-family="Times,serif" font-size="14.00" fill="#000000">of_cell_line</text>
</g>
<!-- treatment -->
<g id="node24" class="node">
<title>treatment</title>
<ellipse fill="none" stroke="#000000" cx="2610.7422" cy="-279" rx="57.6901" ry="18"/>
<text text-anchor="middle" x="2610.7422" y="-275.3" font-family="Times,serif" font-size="14.00" fill="#000000">treatment</text>
</g>
<!-- treatment&#45;&gt;participant -->
<g id="edge1" class="edge">
<title>treatment&#45;&gt;participant</title>
<path fill="none" stroke="#000000" d="M2584.7061,-262.6191C2564.1306,-250.6177 2534.2282,-235.2142 2505.7422,-228 2434.5748,-209.9764 1946.1105,-197.6206 1759.2381,-193.5043"/>
<polygon fill="#000000" stroke="#000000" points="1759.3084,-190.0051 1749.2342,-193.2855 1759.1552,-197.0035 1759.3084,-190.0051"/>
<text text-anchor="middle" x="2591.7422" y="-231.8" font-family="Times,serif" font-size="14.00" fill="#000000">of_treatment</text>
</g>
<!-- pathology_file -->
<g id="node25" class="node">
<title>pathology_file</title>
<ellipse fill="none" stroke="#000000" cx="715.7422" cy="-366" rx="76.0865" ry="18"/>
<text text-anchor="middle" x="715.7422" y="-362.3" font-family="Times,serif" font-size="14.00" fill="#000000">pathology_file</text>
</g>
<!-- pathology_file&#45;&gt;sample -->
<g id="edge2" class="edge">
<title>pathology_file&#45;&gt;sample</title>
<path fill="none" stroke="#000000" d="M711.931,-347.965C710.7415,-337.4534 711.1543,-324.4495 717.7422,-315 726.3253,-302.6888 739.9422,-294.5777 753.8782,-289.2376"/>
<polygon fill="#000000" stroke="#000000" points="755.1745,-292.4938 763.5193,-285.9658 752.9249,-285.8651 755.1745,-292.4938"/>
<text text-anchor="middle" x="778.7422" y="-318.8" font-family="Times,serif" font-size="14.00" fill="#000000">of_pathology_file</text>
</g>
<!-- study_personnel -->
<g id="node26" class="node">
<title>study_personnel</title>
<ellipse fill="none" stroke="#000000" cx="2857.7422" cy="-105" rx="87.1846" ry="18"/>
<text text-anchor="middle" x="2857.7422" y="-101.3" font-family="Times,serif" font-size="14.00" fill="#000000">study_personnel</text>
</g>
<!-- study_personnel&#45;&gt;study -->
<g id="edge3" class="edge">
<title>study_personnel&#45;&gt;study</title>
<path fill="none" stroke="#000000" d="M2831.5869,-87.7161C2811.9095,-75.7535 2783.7927,-60.8064 2756.7422,-54 2688.9156,-36.9336 1623.7927,-21.7847 1386.402,-18.6097"/>
<polygon fill="#000000" stroke="#000000" points="1386.4152,-15.1097 1376.3695,-18.4761 1386.3219,-22.1091 1386.4152,-15.1097"/>
<text text-anchor="middle" x="2863.2422" y="-57.8" font-family="Times,serif" font-size="14.00" fill="#000000">of_study_personnel</text>
</g>
<!-- synonym -->
<g id="node28" class="node">
<title>synonym</title>
<ellipse fill="none" stroke="#000000" cx="1691.7422" cy="-366" rx="51.9908" ry="18"/>
<text text-anchor="middle" x="1691.7422" y="-362.3" font-family="Times,serif" font-size="14.00" fill="#000000">synonym</text>
</g>
<!-- synonym&#45;&gt;participant -->
<g id="edge24" class="edge">
<title>synonym&#45;&gt;participant</title>
<path fill="none" stroke="#000000" d="M1691.2166,-347.7078C1690.344,-317.3436 1688.5906,-256.3226 1687.5568,-220.3464"/>
<polygon fill="#000000" stroke="#000000" points="1691.0467,-219.9424 1687.2608,-210.0471 1684.0496,-220.1435 1691.0467,-219.9424"/>
<text text-anchor="middle" x="1731.2422" y="-275.3" font-family="Times,serif" font-size="14.00" fill="#000000">of_synonym</text>
</g>
<!-- synonym&#45;&gt;sample -->
<g id="edge23" class="edge">
<title>synonym&#45;&gt;sample</title>
<path fill="none" stroke="#000000" d="M1641.1876,-361.3259C1537.5886,-351.7372 1310.6881,-330.6792 1308.7422,-330 1297.2199,-325.9783 1297.3646,-318.7226 1285.7422,-315 1195.0837,-285.9629 951.318,-314.4842 857.7422,-297 854.0885,-296.3173 850.3434,-295.4368 846.6158,-294.4328"/>
<polygon fill="#000000" stroke="#000000" points="847.4469,-291.0286 836.8643,-291.5378 845.4547,-297.7391 847.4469,-291.0286"/>
<text text-anchor="middle" x="1351.2422" y="-318.8" font-family="Times,serif" font-size="14.00" fill="#000000">of_synonym</text>
</g>
<!-- synonym&#45;&gt;study -->
<g id="edge22" class="edge">
<title>synonym&#45;&gt;study</title>
<path fill="none" stroke="#000000" d="M1743.7936,-364.7325C1958.649,-359.2521 2767.0024,-336.0902 2803.7422,-297 2814.7,-285.3412 2813.8565,-273.3976 2803.7422,-261 2791.3817,-245.8489 2740.7268,-193.6605 1749.7422,-54 1618.6433,-35.5241 1462.5396,-24.9345 1386.3019,-20.4939"/>
<polygon fill="#000000" stroke="#000000" points="1386.2694,-16.9863 1376.0854,-19.9079 1385.8685,-23.9749 1386.2694,-16.9863"/>
<text text-anchor="middle" x="2709.2422" y="-188.3" font-family="Times,serif" font-size="14.00" fill="#000000">of_synonym</text>
</g>
</g>
</svg>
