<svg width="2977pt" height="305pt"
 viewBox="0.00 0.00 2977.49 305.00" xmlns="http://www.w3.org/2000/svg" xmlns:xlink="http://www.w3.org/1999/xlink">
<g id="graph0" class="graph" transform="scale(1 1) rotate(0) translate(4 301)">
<title>Perl</title>
<polygon fill="#ffffff" stroke="transparent" points="-4,4 -4,-301 2973.4879,-301 2973.4879,4 -4,4"/>
<!-- survival -->
<g id="node1" class="node">
<title>survival</title>
<ellipse fill="none" stroke="#000000" cx="2040.3956" cy="-192" rx="48.1917" ry="18"/>
<text text-anchor="middle" x="2040.3956" y="-188.3" font-family="Times,serif" font-size="14.00" fill="#000000">survival</text>
</g>
<!-- participant -->
<g id="node8" class="node">
<title>participant</title>
<ellipse fill="none" stroke="#000000" cx="1635.3956" cy="-105" rx="62.2891" ry="18"/>
<text text-anchor="middle" x="1635.3956" y="-101.3" font-family="Times,serif" font-size="14.00" fill="#000000">participant</text>
</g>
<!-- survival&#45;&gt;participant -->
<g id="edge16" class="edge">
<title>survival&#45;&gt;participant</title>
<path fill="none" stroke="#000000" d="M2029.3864,-174.288C2021.0641,-162.6127 2008.5064,-148.1955 1993.3956,-141 1935.6999,-113.5262 1769.528,-132.8946 1706.3956,-123 1701.0563,-122.1632 1695.533,-121.1081 1690.034,-119.9303"/>
<polygon fill="#000000" stroke="#000000" points="1690.7336,-116.5002 1680.2067,-117.6984 1689.1832,-123.3263 1690.7336,-116.5002"/>
<text text-anchor="middle" x="2051.8956" y="-144.8" font-family="Times,serif" font-size="14.00" fill="#000000">of_survival</text>
</g>
<!-- pathology_file -->
<g id="node2" class="node">
<title>pathology_file</title>
<ellipse fill="none" stroke="#000000" cx="629.3956" cy="-279" rx="76.0865" ry="18"/>
<text text-anchor="middle" x="629.3956" y="-275.3" font-family="Times,serif" font-size="14.00" fill="#000000">pathology_file</text>
</g>
<!-- sample -->
<g id="node19" class="node">
<title>sample</title>
<ellipse fill="none" stroke="#000000" cx="611.3956" cy="-192" rx="44.393" ry="18"/>
<text text-anchor="middle" x="611.3956" y="-188.3" font-family="Times,serif" font-size="14.00" fill="#000000">sample</text>
</g>
<!-- pathology_file&#45;&gt;sample -->
<g id="edge21" class="edge">
<title>pathology_file&#45;&gt;sample</title>
<path fill="none" stroke="#000000" d="M619.0136,-260.8593C616.339,-255.3037 613.8162,-249.0563 612.3956,-243 610.6912,-235.7334 610.0006,-227.7236 609.8411,-220.2477"/>
<polygon fill="#000000" stroke="#000000" points="613.3415,-220.1943 609.9189,-210.1676 606.3418,-220.1403 613.3415,-220.1943"/>
<text text-anchor="middle" x="673.3956" y="-231.8" font-family="Times,serif" font-size="14.00" fill="#000000">of_pathology_file</text>
</g>
<!-- cell_line -->
<g id="node3" class="node">
<title>cell_line</title>
<ellipse fill="none" stroke="#000000" cx="49.3956" cy="-279" rx="49.2915" ry="18"/>
<text text-anchor="middle" x="49.3956" y="-275.3" font-family="Times,serif" font-size="14.00" fill="#000000">cell_line</text>
</g>
<!-- cell_line&#45;&gt;sample -->
<g id="edge7" class="edge">
<title>cell_line&#45;&gt;sample</title>
<path fill="none" stroke="#000000" d="M43.7677,-260.6949C41.6497,-249.8173 41.3998,-236.5244 49.3956,-228 66.5892,-209.6698 418.8055,-197.5586 556.7082,-193.5031"/>
<polygon fill="#000000" stroke="#000000" points="557.1461,-196.992 567.0401,-193.2026 556.9425,-189.9949 557.1461,-196.992"/>
<text text-anchor="middle" x="89.8956" y="-231.8" font-family="Times,serif" font-size="14.00" fill="#000000">of_cell_line</text>
</g>
<!-- study -->
<g id="node21" class="node">
<title>study</title>
<ellipse fill="none" stroke="#000000" cx="1852.3956" cy="-18" rx="36.2938" ry="18"/>
<text text-anchor="middle" x="1852.3956" y="-14.3" font-family="Times,serif" font-size="14.00" fill="#000000">study</text>
</g>
<!-- cell_line&#45;&gt;study -->
<g id="edge8" class="edge">
<title>cell_line&#45;&gt;study</title>
<path fill="none" stroke="#000000" d="M39.4823,-261.3113C34.9694,-250.6657 32.0821,-237.4001 39.3956,-228 232.5445,20.2563 413.9369,-97.945 725.3956,-54 939.0748,-23.8511 1620.587,-18.9307 1805.6434,-18.1456"/>
<polygon fill="#000000" stroke="#000000" points="1805.8667,-21.6449 1815.8524,-18.1044 1805.8384,-14.6449 1805.8667,-21.6449"/>
<text text-anchor="middle" x="159.8956" y="-144.8" font-family="Times,serif" font-size="14.00" fill="#000000">of_cell_line</text>
</g>
<!-- radiology_file -->
<g id="node4" class="node">
<title>radiology_file</title>
<ellipse fill="none" stroke="#000000" cx="939.3956" cy="-192" rx="73.387" ry="18"/>
<text text-anchor="middle" x="939.3956" y="-188.3" font-family="Times,serif" font-size="14.00" fill="#000000">radiology_file</text>
</g>
<!-- radiology_file&#45;&gt;participant -->
<g id="edge22" class="edge">
<title>radiology_file&#45;&gt;participant</title>
<path fill="none" stroke="#000000" d="M967.4366,-175.2729C988.8257,-163.4244 1019.4439,-148.3754 1048.3956,-141 1143.6193,-116.742 1427.5053,-108.6105 1562.5104,-106.0688"/>
<polygon fill="#000000" stroke="#000000" points="1562.8185,-109.5638 1572.7527,-105.8813 1562.6903,-102.565 1562.8185,-109.5638"/>
<text text-anchor="middle" x="1107.3956" y="-144.8" font-family="Times,serif" font-size="14.00" fill="#000000">of_radiology_file</text>
</g>
<!-- molecular_test -->
<g id="node5" class="node">
<title>molecular_test</title>
<ellipse fill="none" stroke="#000000" cx="1110.3956" cy="-192" rx="79.8859" ry="18"/>
<text text-anchor="middle" x="1110.3956" y="-188.3" font-family="Times,serif" font-size="14.00" fill="#000000">molecular_test</text>
</g>
<!-- molecular_test&#45;&gt;participant -->
<g id="edge24" class="edge">
<title>molecular_test&#45;&gt;participant</title>
<path fill="none" stroke="#000000" d="M1135.6531,-174.9166C1154.3367,-163.2168 1180.8664,-148.5079 1206.3956,-141 1271.2786,-121.9185 1458.8181,-111.8246 1563.1702,-107.547"/>
<polygon fill="#000000" stroke="#000000" points="1563.4594,-111.0383 1573.3106,-107.1389 1563.1779,-104.044 1563.4594,-111.0383"/>
<text text-anchor="middle" x="1270.3956" y="-144.8" font-family="Times,serif" font-size="14.00" fill="#000000">of_molecular_test</text>
</g>
<!-- study_arm -->
<g id="node6" class="node">
<title>study_arm</title>
<ellipse fill="none" stroke="#000000" cx="1775.3956" cy="-105" rx="59.5901" ry="18"/>
<text text-anchor="middle" x="1775.3956" y="-101.3" font-family="Times,serif" font-size="14.00" fill="#000000">study_arm</text>
</g>
<!-- study_arm&#45;&gt;study -->
<g id="edge30" class="edge">
<title>study_arm&#45;&gt;study</title>
<path fill="none" stroke="#000000" d="M1786.4383,-87.236C1793.1192,-77.0647 1802.1192,-64.3147 1811.3956,-54 1815.5347,-49.3977 1820.232,-44.7994 1824.9329,-40.5029"/>
<polygon fill="#000000" stroke="#000000" points="1827.5643,-42.8489 1832.7496,-33.6097 1822.9344,-37.5987 1827.5643,-42.8489"/>
<text text-anchor="middle" x="1859.8956" y="-57.8" font-family="Times,serif" font-size="14.00" fill="#000000">of_study_arm</text>
</g>
<!-- family_relationship -->
<g id="node7" class="node">
<title>family_relationship</title>
<ellipse fill="none" stroke="#000000" cx="1308.3956" cy="-192" rx="100.1823" ry="18"/>
<text text-anchor="middle" x="1308.3956" y="-188.3" font-family="Times,serif" font-size="14.00" fill="#000000">family_relationship</text>
</g>
<!-- family_relationship&#45;&gt;participant -->
<g id="edge23" class="edge">
<title>family_relationship&#45;&gt;participant</title>
<path fill="none" stroke="#000000" d="M1321.7682,-173.8482C1331.223,-162.4488 1344.9324,-148.5255 1360.3956,-141 1395.2137,-124.055 1494.8333,-114.1919 1564.0833,-109.2007"/>
<polygon fill="#000000" stroke="#000000" points="1564.3387,-112.6915 1574.0689,-108.4994 1563.8482,-105.7087 1564.3387,-112.6915"/>
<text text-anchor="middle" x="1439.8956" y="-144.8" font-family="Times,serif" font-size="14.00" fill="#000000">of_family_relationship</text>
</g>
<!-- participant&#45;&gt;study -->
<g id="edge25" class="edge">
<title>participant&#45;&gt;study</title>
<path fill="none" stroke="#000000" d="M1651.3031,-87.3674C1662.3409,-76.1872 1677.9654,-62.3132 1694.3956,-54 1729.6191,-36.178 1773.6963,-27.0776 1806.3399,-22.4921"/>
<polygon fill="#000000" stroke="#000000" points="1807.0518,-25.9288 1816.5111,-21.1567 1806.1405,-18.9884 1807.0518,-25.9288"/>
<text text-anchor="middle" x="1744.8956" y="-57.8" font-family="Times,serif" font-size="14.00" fill="#000000">of_participant</text>
</g>
<!-- diagnosis -->
<g id="node9" class="node">
<title>diagnosis</title>
<ellipse fill="none" stroke="#000000" cx="2193.3956" cy="-279" rx="54.6905" ry="18"/>
<text text-anchor="middle" x="2193.3956" y="-275.3" font-family="Times,serif" font-size="14.00" fill="#000000">diagnosis</text>
</g>
<!-- diagnosis&#45;&gt;participant -->
<g id="edge13" class="edge">
<title>diagnosis&#45;&gt;participant</title>
<path fill="none" stroke="#000000" d="M2204.0763,-261.138C2215.8137,-238.9406 2230.8378,-200.7305 2213.3956,-174 2193.4946,-143.5013 2173.8699,-149.2341 2138.3956,-141 1951.2055,-97.5506 1896.5465,-150.7602 1706.3956,-123 1700.9692,-122.2078 1695.3562,-121.1717 1689.7735,-119.9964"/>
<polygon fill="#000000" stroke="#000000" points="1690.3286,-116.5338 1679.8041,-117.753 1688.7917,-123.363 1690.3286,-116.5338"/>
<text text-anchor="middle" x="2264.8956" y="-188.3" font-family="Times,serif" font-size="14.00" fill="#000000">of_diagnosis</text>
</g>
<!-- diagnosis&#45;&gt;sample -->
<g id="edge14" class="edge">
<title>diagnosis&#45;&gt;sample</title>
<path fill="none" stroke="#000000" d="M2138.9684,-276.6083C1957.2573,-268.5338 1354.9022,-241.0452 857.3956,-210 791.1596,-205.8668 714.9647,-200.1412 665.1429,-196.266"/>
<polygon fill="#000000" stroke="#000000" points="665.1669,-192.7573 654.9249,-195.4684 664.6221,-199.7361 665.1669,-192.7573"/>
<text text-anchor="middle" x="1451.8956" y="-231.8" font-family="Times,serif" font-size="14.00" fill="#000000">of_diagnosis</text>
</g>
<!-- study_funding -->
<g id="node10" class="node">
<title>study_funding</title>
<ellipse fill="none" stroke="#000000" cx="1930.3956" cy="-105" rx="77.1866" ry="18"/>
<text text-anchor="middle" x="1930.3956" y="-101.3" font-family="Times,serif" font-size="14.00" fill="#000000">study_funding</text>
</g>
<!-- study_funding&#45;&gt;study -->
<g id="edge3" class="edge">
<title>study_funding&#45;&gt;study</title>
<path fill="none" stroke="#000000" d="M1925.383,-86.5602C1921.8787,-76.1636 1916.3787,-63.4136 1908.3956,-54 1902.5928,-47.1574 1895.1602,-41.1545 1887.6198,-36.1112"/>
<polygon fill="#000000" stroke="#000000" points="1889.151,-32.9421 1878.8096,-30.6388 1885.4575,-38.8884 1889.151,-32.9421"/>
<text text-anchor="middle" x="1979.3956" y="-57.8" font-family="Times,serif" font-size="14.00" fill="#000000">of_study_funding</text>
</g>
<!-- study_admin -->
<g id="node11" class="node">
<title>study_admin</title>
<ellipse fill="none" stroke="#000000" cx="2096.3956" cy="-105" rx="70.3881" ry="18"/>
<text text-anchor="middle" x="2096.3956" y="-101.3" font-family="Times,serif" font-size="14.00" fill="#000000">study_admin</text>
</g>
<!-- study_admin&#45;&gt;study -->
<g id="edge15" class="edge">
<title>study_admin&#45;&gt;study</title>
<path fill="none" stroke="#000000" d="M2083.2145,-87.12C2073.9139,-75.8353 2060.4619,-61.9378 2045.3956,-54 2020.4098,-40.836 1946.9009,-29.6299 1898.158,-23.3629"/>
<polygon fill="#000000" stroke="#000000" points="1898.5185,-19.8807 1888.1591,-22.1016 1897.6424,-26.8257 1898.5185,-19.8807"/>
<text text-anchor="middle" x="2121.8956" y="-57.8" font-family="Times,serif" font-size="14.00" fill="#000000">of_study_admin</text>
</g>
<!-- methylation_array_file -->
<g id="node12" class="node">
<title>methylation_array_file</title>
<ellipse fill="none" stroke="#000000" cx="235.3956" cy="-279" rx="115.8798" ry="18"/>
<text text-anchor="middle" x="235.3956" y="-275.3" font-family="Times,serif" font-size="14.00" fill="#000000">methylation_array_file</text>
</g>
<!-- methylation_array_file&#45;&gt;sample -->
<g id="edge31" class="edge">
<title>methylation_array_file&#45;&gt;sample</title>
<path fill="none" stroke="#000000" d="M245.0402,-260.7735C252.1153,-249.3425 262.8393,-235.4122 276.3956,-228 323.3994,-202.2997 474.6378,-194.9467 556.89,-192.843"/>
<polygon fill="#000000" stroke="#000000" points="557.1379,-196.3382 567.0517,-192.6009 556.9711,-189.3402 557.1379,-196.3382"/>
<text text-anchor="middle" x="367.8956" y="-231.8" font-family="Times,serif" font-size="14.00" fill="#000000">of_methylation_array_file</text>
</g>
<!-- sequencing_file -->
<g id="node13" class="node">
<title>sequencing_file</title>
<ellipse fill="none" stroke="#000000" cx="452.3956" cy="-279" rx="83.3857" ry="18"/>
<text text-anchor="middle" x="452.3956" y="-275.3" font-family="Times,serif" font-size="14.00" fill="#000000">sequencing_file</text>
</g>
<!-- sequencing_file&#45;&gt;sample -->
<g id="edge2" class="edge">
<title>sequencing_file&#45;&gt;sample</title>
<path fill="none" stroke="#000000" d="M455.7016,-260.5456C458.5882,-249.6119 463.8739,-236.3123 473.3956,-228 486.4116,-216.6373 526.2503,-206.9643 559.7976,-200.5157"/>
<polygon fill="#000000" stroke="#000000" points="560.7808,-203.8928 569.9701,-198.6197 559.4981,-197.0113 560.7808,-203.8928"/>
<text text-anchor="middle" x="539.8956" y="-231.8" font-family="Times,serif" font-size="14.00" fill="#000000">of_sequencing_file</text>
</g>
<!-- exposure -->
<g id="node14" class="node">
<title>exposure</title>
<ellipse fill="none" stroke="#000000" cx="1479.3956" cy="-192" rx="53.0913" ry="18"/>
<text text-anchor="middle" x="1479.3956" y="-188.3" font-family="Times,serif" font-size="14.00" fill="#000000">exposure</text>
</g>
<!-- exposure&#45;&gt;participant -->
<g id="edge20" class="edge">
<title>exposure&#45;&gt;participant</title>
<path fill="none" stroke="#000000" d="M1497.9762,-175.0495C1510.4433,-164.2939 1527.6008,-150.6384 1544.3956,-141 1556.8462,-133.8547 1570.9909,-127.5045 1584.3553,-122.2028"/>
<polygon fill="#000000" stroke="#000000" points="1585.8334,-125.3845 1593.9134,-118.5313 1583.3233,-118.85 1585.8334,-125.3845"/>
<text text-anchor="middle" x="1587.8956" y="-144.8" font-family="Times,serif" font-size="14.00" fill="#000000">of_exposure</text>
</g>
<!-- pdx -->
<g id="node15" class="node">
<title>pdx</title>
<ellipse fill="none" stroke="#000000" cx="646.3956" cy="-105" rx="27.8951" ry="18"/>
<text text-anchor="middle" x="646.3956" y="-101.3" font-family="Times,serif" font-size="14.00" fill="#000000">pdx</text>
</g>
<!-- pdx&#45;&gt;sample -->
<g id="edge9" class="edge">
<title>pdx&#45;&gt;sample</title>
<path fill="none" stroke="#000000" d="M619.9933,-110.9833C604.0862,-116.0955 585.0875,-125.2193 575.3956,-141 569.605,-150.4285 574.1586,-160.4481 581.7268,-169.0877"/>
<polygon fill="#000000" stroke="#000000" points="579.406,-171.7155 588.9694,-176.2753 584.3368,-166.7469 579.406,-171.7155"/>
<text text-anchor="middle" x="599.3956" y="-144.8" font-family="Times,serif" font-size="14.00" fill="#000000">of_pdx</text>
</g>
<!-- pdx&#45;&gt;study -->
<g id="edge10" class="edge">
<title>pdx&#45;&gt;study</title>
<path fill="none" stroke="#000000" d="M668.2306,-93.7628C693.504,-81.3967 736.7447,-62.1885 776.3956,-54 877.949,-33.0278 1611.9988,-21.3634 1805.6568,-18.6292"/>
<polygon fill="#000000" stroke="#000000" points="1805.8399,-22.1271 1815.7899,-18.4874 1805.7419,-15.1278 1805.8399,-22.1271"/>
<text text-anchor="middle" x="800.3956" y="-57.8" font-family="Times,serif" font-size="14.00" fill="#000000">of_pdx</text>
</g>
<!-- clinical_measure_file -->
<g id="node16" class="node">
<title>clinical_measure_file</title>
<ellipse fill="none" stroke="#000000" cx="2461.3956" cy="-192" rx="108.5808" ry="18"/>
<text text-anchor="middle" x="2461.3956" y="-188.3" font-family="Times,serif" font-size="14.00" fill="#000000">clinical_measure_file</text>
</g>
<!-- clinical_measure_file&#45;&gt;participant -->
<g id="edge18" class="edge">
<title>clinical_measure_file&#45;&gt;participant</title>
<path fill="none" stroke="#000000" d="M2381.5651,-179.6747C2340.3224,-172.6859 2294.6799,-163.8041 2275.3956,-156 2264.0829,-151.4218 2264.0348,-144.6698 2252.3956,-141 2136.6149,-104.495 1826.5965,-140.0153 1706.3956,-123 1700.9658,-122.2314 1695.3506,-121.2109 1689.7665,-120.0453"/>
<polygon fill="#000000" stroke="#000000" points="1690.3185,-116.5823 1679.7954,-117.8134 1688.7894,-123.4133 1690.3185,-116.5823"/>
<text text-anchor="middle" x="2361.3956" y="-144.8" font-family="Times,serif" font-size="14.00" fill="#000000">of_clinical_measure_file</text>
</g>
<!-- clinical_measure_file&#45;&gt;study -->
<g id="edge17" class="edge">
<title>clinical_measure_file&#45;&gt;study</title>
<path fill="none" stroke="#000000" d="M2460.6052,-173.8739C2459.2128,-163.0637 2455.7518,-149.7787 2447.3956,-141 2361.9282,-51.2112 2303.5584,-80.1974 2182.3956,-54 2082.8804,-32.4832 1963.5581,-23.5193 1899.159,-20.0299"/>
<polygon fill="#000000" stroke="#000000" points="1899.0958,-16.522 1888.9272,-19.4969 1898.7315,-23.5125 1899.0958,-16.522"/>
<text text-anchor="middle" x="2513.3956" y="-101.3" font-family="Times,serif" font-size="14.00" fill="#000000">of_clinical_measure_file</text>
</g>
<!-- synonym -->
<g id="node17" class="node">
<title>synonym</title>
<ellipse fill="none" stroke="#000000" cx="1022.3956" cy="-279" rx="51.9908" ry="18"/>
<text text-anchor="middle" x="1022.3956" y="-275.3" font-family="Times,serif" font-size="14.00" fill="#000000">synonym</text>
</g>
<!-- synonym&#45;&gt;participant -->
<g id="edge28" class="edge">
<title>synonym&#45;&gt;participant</title>
<path fill="none" stroke="#000000" d="M1074.4859,-277.6164C1284.8278,-271.7809 2062.0136,-247.7258 2097.3956,-210 2118.383,-187.6223 2117.2438,-162.5381 2095.3956,-141 2079.989,-125.812 1727.7957,-126.1745 1706.3956,-123 1700.971,-122.1953 1695.3593,-121.151 1689.7773,-119.9705"/>
<polygon fill="#000000" stroke="#000000" points="1690.334,-116.5082 1679.8088,-117.721 1688.7931,-123.3365 1690.334,-116.5082"/>
<text text-anchor="middle" x="2154.8956" y="-188.3" font-family="Times,serif" font-size="14.00" fill="#000000">of_synonym</text>
</g>
<!-- synonym&#45;&gt;sample -->
<g id="edge27" class="edge">
<title>synonym&#45;&gt;sample</title>
<path fill="none" stroke="#000000" d="M982.9825,-266.9832C964.4797,-260.7621 942.3736,-252.4816 923.3956,-243 912.4783,-237.5456 911.8559,-232.1952 900.3956,-228 858.4221,-212.6349 736.5765,-201.3218 665.2059,-195.7928"/>
<polygon fill="#000000" stroke="#000000" points="665.2947,-192.2895 655.0575,-195.0192 664.7625,-199.2692 665.2947,-192.2895"/>
<text text-anchor="middle" x="965.8956" y="-231.8" font-family="Times,serif" font-size="14.00" fill="#000000">of_synonym</text>
</g>
<!-- synonym&#45;&gt;study -->
<g id="edge26" class="edge">
<title>synonym&#45;&gt;study</title>
<path fill="none" stroke="#000000" d="M1022.2405,-260.7607C1021.1187,-249.624 1017.72,-236.027 1008.3956,-228 982.7851,-205.9529 879.8322,-235.27 857.3956,-210 846.7726,-198.0354 849.2044,-187.7443 857.3956,-174 906.9787,-90.8027 1616.0357,-34.7646 1805.9119,-21.193"/>
<polygon fill="#000000" stroke="#000000" points="1806.3892,-24.668 1816.1163,-20.4689 1805.8936,-17.6856 1806.3892,-24.668"/>
<text text-anchor="middle" x="951.8956" y="-144.8" font-family="Times,serif" font-size="14.00" fill="#000000">of_synonym</text>
</g>
<!-- medical_history -->
<g id="node18" class="node">
<title>medical_history</title>
<ellipse fill="none" stroke="#000000" cx="1635.3956" cy="-192" rx="85.2851" ry="18"/>
<text text-anchor="middle" x="1635.3956" y="-188.3" font-family="Times,serif" font-size="14.00" fill="#000000">medical_history</text>
</g>
<!-- medical_history&#45;&gt;participant -->
<g id="edge29" class="edge">
<title>medical_history&#45;&gt;participant</title>
<path fill="none" stroke="#000000" d="M1635.3956,-173.9735C1635.3956,-162.1918 1635.3956,-146.5607 1635.3956,-133.1581"/>
<polygon fill="#000000" stroke="#000000" points="1638.8957,-133.0033 1635.3956,-123.0034 1631.8957,-133.0034 1638.8957,-133.0033"/>
<text text-anchor="middle" x="1703.3956" y="-144.8" font-family="Times,serif" font-size="14.00" fill="#000000">of_medical_history</text>
</g>
<!-- sample&#45;&gt;cell_line -->
<g id="edge4" class="edge">
<title>sample&#45;&gt;cell_line</title>
<path fill="none" stroke="#000000" d="M567.4896,-194.1104C473.3569,-198.8914 254.7982,-211.4332 182.3956,-228 149.8686,-235.4427 114.6819,-249.2076 88.6753,-260.5627"/>
<polygon fill="#000000" stroke="#000000" points="87.2516,-257.3653 79.5311,-264.621 90.0912,-263.7635 87.2516,-257.3653"/>
<text text-anchor="middle" x="218.8956" y="-231.8" font-family="Times,serif" font-size="14.00" fill="#000000">of_sample</text>
</g>
<!-- sample&#45;&gt;participant -->
<g id="edge5" class="edge">
<title>sample&#45;&gt;participant</title>
<path fill="none" stroke="#000000" d="M644.7728,-180.0749C663.5518,-173.25 687.3783,-164.3979 708.3956,-156 724.1114,-149.7205 726.8893,-144.7365 743.3956,-141 822.1891,-123.1638 1364.3283,-110.5011 1562.8008,-106.4161"/>
<polygon fill="#000000" stroke="#000000" points="1562.9111,-109.9147 1572.8374,-106.2108 1562.7679,-102.9161 1562.9111,-109.9147"/>
<text text-anchor="middle" x="779.8956" y="-144.8" font-family="Times,serif" font-size="14.00" fill="#000000">of_sample</text>
</g>
<!-- sample&#45;&gt;pdx -->
<g id="edge6" class="edge">
<title>sample&#45;&gt;pdx</title>
<path fill="none" stroke="#000000" d="M618.6476,-173.9735C623.5135,-161.8784 630.0115,-145.7263 635.496,-132.0934"/>
<polygon fill="#000000" stroke="#000000" points="638.7874,-133.2894 639.2726,-122.7057 632.2932,-130.6768 638.7874,-133.2894"/>
<text text-anchor="middle" x="667.8956" y="-144.8" font-family="Times,serif" font-size="14.00" fill="#000000">of_sample</text>
</g>
<!-- publication -->
<g id="node20" class="node">
<title>publication</title>
<ellipse fill="none" stroke="#000000" cx="2714.3956" cy="-105" rx="63.0888" ry="18"/>
<text text-anchor="middle" x="2714.3956" y="-101.3" font-family="Times,serif" font-size="14.00" fill="#000000">publication</text>
</g>
<!-- publication&#45;&gt;study -->
<g id="edge11" class="edge">
<title>publication&#45;&gt;study</title>
<path fill="none" stroke="#000000" d="M2668.0691,-92.7826C2620.1994,-80.7105 2543.1329,-62.8102 2475.3956,-54 2261.4274,-26.1705 2003.3184,-19.8535 1899.2503,-18.4203"/>
<polygon fill="#000000" stroke="#000000" points="1899.1255,-14.9185 1889.0812,-18.2892 1899.0352,-21.9179 1899.1255,-14.9185"/>
<text text-anchor="middle" x="2612.3956" y="-57.8" font-family="Times,serif" font-size="14.00" fill="#000000">of_publication</text>
</g>
<!-- therapeutic_procedure -->
<g id="node22" class="node">
<title>therapeutic_procedure</title>
<ellipse fill="none" stroke="#000000" cx="1856.3956" cy="-192" rx="117.7793" ry="18"/>
<text text-anchor="middle" x="1856.3956" y="-188.3" font-family="Times,serif" font-size="14.00" fill="#000000">therapeutic_procedure</text>
</g>
<!-- therapeutic_procedure&#45;&gt;participant -->
<g id="edge19" class="edge">
<title>therapeutic_procedure&#45;&gt;participant</title>
<path fill="none" stroke="#000000" d="M1832.6749,-174.2948C1817.0804,-163.3712 1795.8461,-149.8109 1775.3956,-141 1773.346,-140.1169 1730.3266,-129.0945 1692.5127,-119.4765"/>
<polygon fill="#000000" stroke="#000000" points="1693.0871,-116.0113 1682.533,-116.94 1691.3627,-122.7956 1693.0871,-116.0113"/>
<text text-anchor="middle" x="1896.3956" y="-144.8" font-family="Times,serif" font-size="14.00" fill="#000000">of_therapeutic_procedure</text>
</g>
<!-- cytogenomic_file -->
<g id="node23" class="node">
<title>cytogenomic_file</title>
<ellipse fill="none" stroke="#000000" cx="813.3956" cy="-279" rx="89.8845" ry="18"/>
<text text-anchor="middle" x="813.3956" y="-275.3" font-family="Times,serif" font-size="14.00" fill="#000000">cytogenomic_file</text>
</g>
<!-- cytogenomic_file&#45;&gt;sample -->
<g id="edge1" class="edge">
<title>cytogenomic_file&#45;&gt;sample</title>
<path fill="none" stroke="#000000" d="M786.3133,-261.6405C777.1253,-255.7377 766.8062,-249.0934 757.3956,-243 747.1516,-236.3669 745.482,-233.1021 734.3956,-228 710.9786,-217.2231 683.5651,-208.8274 660.5684,-202.8649"/>
<polygon fill="#000000" stroke="#000000" points="661.2282,-199.4219 650.6766,-200.3779 659.5213,-206.2106 661.2282,-199.4219"/>
<text text-anchor="middle" x="828.8956" y="-231.8" font-family="Times,serif" font-size="14.00" fill="#000000">of_cytogenomic_file</text>
</g>
<!-- study_personnel -->
<g id="node24" class="node">
<title>study_personnel</title>
<ellipse fill="none" stroke="#000000" cx="2882.3956" cy="-105" rx="87.1846" ry="18"/>
<text text-anchor="middle" x="2882.3956" y="-101.3" font-family="Times,serif" font-size="14.00" fill="#000000">study_personnel</text>
</g>
<!-- study_personnel&#45;&gt;study -->
<g id="edge12" class="edge">
<title>study_personnel&#45;&gt;study</title>
<path fill="none" stroke="#000000" d="M2832.0828,-90.2162C2788.8334,-78.1972 2724.5776,-61.9721 2667.3956,-54 2517.3952,-33.0874 2049.2127,-21.9911 1899.1676,-18.905"/>
<polygon fill="#000000" stroke="#000000" points="1898.992,-15.4008 1888.9229,-18.6967 1898.8496,-22.3994 1898.992,-15.4008"/>
<text text-anchor="middle" x="2813.8956" y="-57.8" font-family="Times,serif" font-size="14.00" fill="#000000">of_study_personnel</text>
</g>
</g>
</svg>
