<svg width="2956pt" height="392pt"
 viewBox="0.00 0.00 2956.24 392.00" xmlns="http://www.w3.org/2000/svg" xmlns:xlink="http://www.w3.org/1999/xlink">
<g id="graph0" class="graph" transform="scale(1 1) rotate(0) translate(4 388)">
<title>Perl</title>
<polygon fill="#ffffff" stroke="transparent" points="-4,4 -4,-388 2952.2382,-388 2952.2382,4 -4,4"/>
<!-- cell_line -->
<g id="node1" class="node">
<title>cell_line</title>
<ellipse fill="none" stroke="#000000" cx="1653.0444" cy="-279" rx="49.2915" ry="18"/>
<text text-anchor="middle" x="1653.0444" y="-275.3" font-family="Times,serif" font-size="14.00" fill="#000000">cell_line</text>
</g>
<!-- study -->
<g id="node2" class="node">
<title>study</title>
<ellipse fill="none" stroke="#000000" cx="2259.0444" cy="-18" rx="36.2938" ry="18"/>
<text text-anchor="middle" x="2259.0444" y="-14.3" font-family="Times,serif" font-size="14.00" fill="#000000">study</text>
</g>
<!-- cell_line&#45;&gt;study -->
<g id="edge25" class="edge">
<title>cell_line&#45;&gt;study</title>
<path fill="none" stroke="#000000" d="M1702.4211,-278.2885C1837.3509,-276.0305 2205.4587,-267.6582 2254.0444,-243 2303.5262,-217.8871 2353.0194,-189.4919 2326.0444,-141 2318.67,-127.7433 2306.5981,-134.7835 2297.0444,-123 2278.9158,-100.6402 2269.0331,-68.8945 2263.9295,-46.1731"/>
<polygon fill="#000000" stroke="#000000" points="2267.305,-45.2129 2261.8506,-36.13 2260.4503,-46.6319 2267.305,-45.2129"/>
<text text-anchor="middle" x="2372.5444" y="-144.8" font-family="Times,serif" font-size="14.00" fill="#000000">of_cell_line</text>
</g>
<!-- participant -->
<g id="node11" class="node">
<title>participant</title>
<ellipse fill="none" stroke="#000000" cx="1294.0444" cy="-105" rx="62.2891" ry="18"/>
<text text-anchor="middle" x="1294.0444" y="-101.3" font-family="Times,serif" font-size="14.00" fill="#000000">participant</text>
</g>
<!-- cell_line&#45;&gt;participant -->
<g id="edge24" class="edge">
<title>cell_line&#45;&gt;participant</title>
<path fill="none" stroke="#000000" d="M1677.6309,-263.2391C1706.1577,-242.9129 1746.788,-206.326 1726.0444,-174 1707.0335,-144.3741 1688.0193,-150.2098 1654.0444,-141 1601.3618,-126.7189 1454.2807,-115.2359 1365.2605,-109.334"/>
<polygon fill="#000000" stroke="#000000" points="1365.4432,-105.8386 1355.2356,-108.6767 1364.9851,-112.8236 1365.4432,-105.8386"/>
<text text-anchor="middle" x="1772.5444" y="-188.3" font-family="Times,serif" font-size="14.00" fill="#000000">of_cell_line</text>
</g>
<!-- pathology_file -->
<g id="node3" class="node">
<title>pathology_file</title>
<ellipse fill="none" stroke="#000000" cx="1448.0444" cy="-366" rx="76.0865" ry="18"/>
<text text-anchor="middle" x="1448.0444" y="-362.3" font-family="Times,serif" font-size="14.00" fill="#000000">pathology_file</text>
</g>
<!-- pathology_file&#45;&gt;cell_line -->
<g id="edge33" class="edge">
<title>pathology_file&#45;&gt;cell_line</title>
<path fill="none" stroke="#000000" d="M1512.9783,-356.4505C1551.6437,-349.8831 1596.3413,-340.4779 1613.0444,-330 1622.8687,-323.8372 1631.2657,-314.3706 1637.7925,-305.2592"/>
<polygon fill="#000000" stroke="#000000" points="1640.829,-307.0141 1643.4625,-296.7518 1635.0041,-303.1319 1640.829,-307.0141"/>
<text text-anchor="middle" x="1690.0444" y="-318.8" font-family="Times,serif" font-size="14.00" fill="#000000">of_pathology_file</text>
</g>
<!-- sample -->
<g id="node7" class="node">
<title>sample</title>
<ellipse fill="none" stroke="#000000" cx="548.0444" cy="-192" rx="44.393" ry="18"/>
<text text-anchor="middle" x="548.0444" y="-188.3" font-family="Times,serif" font-size="14.00" fill="#000000">sample</text>
</g>
<!-- pathology_file&#45;&gt;sample -->
<g id="edge32" class="edge">
<title>pathology_file&#45;&gt;sample</title>
<path fill="none" stroke="#000000" d="M1397.6065,-352.3378C1384.0295,-346.953 1370.068,-339.6755 1359.0444,-330 1332.5695,-306.7628 1349.8229,-279.8184 1320.0444,-261 1184.6371,-175.4298 758.0591,-241.6825 601.0444,-210 597.4009,-209.2648 593.6629,-208.3475 589.9401,-207.3188"/>
<polygon fill="#000000" stroke="#000000" points="590.7808,-203.9168 580.1963,-204.3847 588.7623,-210.6195 590.7808,-203.9168"/>
<text text-anchor="middle" x="1403.0444" y="-275.3" font-family="Times,serif" font-size="14.00" fill="#000000">of_pathology_file</text>
</g>
<!-- pdx -->
<g id="node12" class="node">
<title>pdx</title>
<ellipse fill="none" stroke="#000000" cx="455.0444" cy="-279" rx="27.8951" ry="18"/>
<text text-anchor="middle" x="455.0444" y="-275.3" font-family="Times,serif" font-size="14.00" fill="#000000">pdx</text>
</g>
<!-- pathology_file&#45;&gt;pdx -->
<g id="edge34" class="edge">
<title>pathology_file&#45;&gt;pdx</title>
<path fill="none" stroke="#000000" d="M1394.3244,-353.138C1383.997,-351.088 1373.2267,-349.2378 1363.0444,-348 1243.6347,-333.4841 936.7605,-366.1885 822.0444,-330 810.4058,-326.3285 810.6217,-318.8606 799.0444,-315 683.6922,-276.5339 646.1444,-316.0201 526.0444,-297 514.3128,-295.1421 501.69,-292.2436 490.3882,-289.3113"/>
<polygon fill="#000000" stroke="#000000" points="491.0096,-285.8542 480.4438,-286.6377 489.1921,-292.6141 491.0096,-285.8542"/>
<text text-anchor="middle" x="883.0444" y="-318.8" font-family="Times,serif" font-size="14.00" fill="#000000">of_pathology_file</text>
</g>
<!-- follow_up -->
<g id="node4" class="node">
<title>follow_up</title>
<ellipse fill="none" stroke="#000000" cx="1031.0444" cy="-192" rx="55.4913" ry="18"/>
<text text-anchor="middle" x="1031.0444" y="-188.3" font-family="Times,serif" font-size="14.00" fill="#000000">follow_up</text>
</g>
<!-- follow_up&#45;&gt;participant -->
<g id="edge28" class="edge">
<title>follow_up&#45;&gt;participant</title>
<path fill="none" stroke="#000000" d="M1046.3385,-174.595C1057.3431,-163.2149 1073.1695,-149.0215 1090.0444,-141 1113.6707,-129.7692 1176.3229,-119.6771 1226.0167,-113.0563"/>
<polygon fill="#000000" stroke="#000000" points="1226.6249,-116.5067 1236.086,-111.7382 1225.7162,-109.5659 1226.6249,-116.5067"/>
<text text-anchor="middle" x="1135.0444" y="-144.8" font-family="Times,serif" font-size="14.00" fill="#000000">of_follow_up</text>
</g>
<!-- diagnosis -->
<g id="node5" class="node">
<title>diagnosis</title>
<ellipse fill="none" stroke="#000000" cx="1159.0444" cy="-192" rx="54.6905" ry="18"/>
<text text-anchor="middle" x="1159.0444" y="-188.3" font-family="Times,serif" font-size="14.00" fill="#000000">diagnosis</text>
</g>
<!-- diagnosis&#45;&gt;participant -->
<g id="edge36" class="edge">
<title>diagnosis&#45;&gt;participant</title>
<path fill="none" stroke="#000000" d="M1169.684,-173.8877C1176.8164,-163.0827 1187.0771,-149.7983 1199.0444,-141 1210.5937,-132.509 1224.3848,-125.7809 1237.8302,-120.5522"/>
<polygon fill="#000000" stroke="#000000" points="1239.3339,-123.729 1247.5225,-117.0061 1236.9287,-117.1552 1239.3339,-123.729"/>
<text text-anchor="middle" x="1243.5444" y="-144.8" font-family="Times,serif" font-size="14.00" fill="#000000">of_diagnosis</text>
</g>
<!-- family_relationship -->
<g id="node6" class="node">
<title>family_relationship</title>
<ellipse fill="none" stroke="#000000" cx="1332.0444" cy="-192" rx="100.1823" ry="18"/>
<text text-anchor="middle" x="1332.0444" y="-188.3" font-family="Times,serif" font-size="14.00" fill="#000000">family_relationship</text>
</g>
<!-- family_relationship&#45;&gt;participant -->
<g id="edge9" class="edge">
<title>family_relationship&#45;&gt;participant</title>
<path fill="none" stroke="#000000" d="M1308.439,-174.4374C1303.0545,-169.1565 1298.0408,-162.9064 1295.0444,-156 1291.9911,-148.9624 1290.8896,-140.8481 1290.7687,-133.1914"/>
<polygon fill="#000000" stroke="#000000" points="1294.2671,-133.2952 1291.1203,-123.1785 1287.2714,-133.0494 1294.2671,-133.2952"/>
<text text-anchor="middle" x="1374.5444" y="-144.8" font-family="Times,serif" font-size="14.00" fill="#000000">of_family_relationship</text>
</g>
<!-- sample&#45;&gt;participant -->
<g id="edge26" class="edge">
<title>sample&#45;&gt;participant</title>
<path fill="none" stroke="#000000" d="M574.5401,-177.4627C598.0712,-165.3383 633.7877,-148.8262 667.0444,-141 770.3933,-116.6791 1079.3653,-108.5278 1221.2941,-106.0195"/>
<polygon fill="#000000" stroke="#000000" points="1221.6914,-109.5133 1231.6297,-105.8417 1221.5709,-102.5144 1221.6914,-109.5133"/>
<text text-anchor="middle" x="703.5444" y="-144.8" font-family="Times,serif" font-size="14.00" fill="#000000">of_sample</text>
</g>
<!-- radiology_file -->
<g id="node8" class="node">
<title>radiology_file</title>
<ellipse fill="none" stroke="#000000" cx="1644.0444" cy="-192" rx="73.387" ry="18"/>
<text text-anchor="middle" x="1644.0444" y="-188.3" font-family="Times,serif" font-size="14.00" fill="#000000">radiology_file</text>
</g>
<!-- radiology_file&#45;&gt;participant -->
<g id="edge13" class="edge">
<title>radiology_file&#45;&gt;participant</title>
<path fill="none" stroke="#000000" d="M1601.7933,-177.2197C1569.3259,-166.2237 1523.2143,-151.3851 1482.0444,-141 1441.3987,-130.7471 1395.1638,-121.8577 1358.7161,-115.4775"/>
<polygon fill="#000000" stroke="#000000" points="1359.1587,-112.0021 1348.7083,-113.7454 1357.9649,-118.8996 1359.1587,-112.0021"/>
<text text-anchor="middle" x="1591.0444" y="-144.8" font-family="Times,serif" font-size="14.00" fill="#000000">of_radiology_file</text>
</g>
<!-- publication -->
<g id="node9" class="node">
<title>publication</title>
<ellipse fill="none" stroke="#000000" cx="63.0444" cy="-105" rx="63.0888" ry="18"/>
<text text-anchor="middle" x="63.0444" y="-101.3" font-family="Times,serif" font-size="14.00" fill="#000000">publication</text>
</g>
<!-- publication&#45;&gt;study -->
<g id="edge2" class="edge">
<title>publication&#45;&gt;study</title>
<path fill="none" stroke="#000000" d="M57.7829,-86.9997C55.7598,-75.9583 55.6398,-62.3777 64.0444,-54 83.749,-34.3585 1895.1236,-20.5874 2212.0085,-18.3276"/>
<polygon fill="#000000" stroke="#000000" points="2212.248,-21.8261 2222.2229,-18.255 2212.1983,-14.8262 2212.248,-21.8261"/>
<text text-anchor="middle" x="115.0444" y="-57.8" font-family="Times,serif" font-size="14.00" fill="#000000">of_publication</text>
</g>
<!-- clinical_measure_file -->
<g id="node10" class="node">
<title>clinical_measure_file</title>
<ellipse fill="none" stroke="#000000" cx="326.0444" cy="-192" rx="108.5808" ry="18"/>
<text text-anchor="middle" x="326.0444" y="-188.3" font-family="Times,serif" font-size="14.00" fill="#000000">clinical_measure_file</text>
</g>
<!-- clinical_measure_file&#45;&gt;study -->
<g id="edge14" class="edge">
<title>clinical_measure_file&#45;&gt;study</title>
<path fill="none" stroke="#000000" d="M326.4384,-173.8425C327.7172,-162.5916 331.3589,-148.8376 341.0444,-141 587.0553,58.0728 735.2766,-108.0244 1051.0444,-87 1503.283,-56.8891 2051.311,-28.5203 2212.4134,-20.3464"/>
<polygon fill="#000000" stroke="#000000" points="2212.6502,-23.839 2222.4602,-19.8374 2212.2959,-16.8479 2212.6502,-23.839"/>
<text text-anchor="middle" x="1137.0444" y="-101.3" font-family="Times,serif" font-size="14.00" fill="#000000">of_clinical_measure_file</text>
</g>
<!-- clinical_measure_file&#45;&gt;participant -->
<g id="edge35" class="edge">
<title>clinical_measure_file&#45;&gt;participant</title>
<path fill="none" stroke="#000000" d="M333.3505,-173.7903C339.0435,-162.2108 348.1614,-148.1043 361.0444,-141 398.4908,-120.3503 1008.2799,-109.2811 1221.2959,-106.0302"/>
<polygon fill="#000000" stroke="#000000" points="1221.4923,-109.5278 1231.4382,-105.8768 1221.3864,-102.5286 1221.4923,-109.5278"/>
<text text-anchor="middle" x="490.5444" y="-144.8" font-family="Times,serif" font-size="14.00" fill="#000000">of_clinical_measure_file_participant</text>
</g>
<!-- participant&#45;&gt;study -->
<g id="edge18" class="edge">
<title>participant&#45;&gt;study</title>
<path fill="none" stroke="#000000" d="M1353.6812,-99.6234C1531.229,-83.6165 2053.8712,-36.4975 2212.7225,-22.1762"/>
<polygon fill="#000000" stroke="#000000" points="2213.4422,-25.6256 2223.0876,-21.2417 2212.8136,-18.6538 2213.4422,-25.6256"/>
<text text-anchor="middle" x="1885.5444" y="-57.8" font-family="Times,serif" font-size="14.00" fill="#000000">of_participant</text>
</g>
<!-- pdx&#45;&gt;study -->
<g id="edge20" class="edge">
<title>pdx&#45;&gt;study</title>
<path fill="none" stroke="#000000" d="M434.4952,-266.7093C430.4574,-264.6066 426.1871,-262.5909 422.0444,-261 326.198,-224.1936 156.2935,-262.674 208.0444,-174 270.774,-66.5142 338.4055,-75.1636 461.0444,-54 637.8982,-23.4807 1947.4888,-18.7429 2212.3995,-18.0945"/>
<polygon fill="#000000" stroke="#000000" points="2212.4607,-21.5944 2222.4523,-18.0706 2212.444,-14.5945 2212.4607,-21.5944"/>
<text text-anchor="middle" x="254.0444" y="-144.8" font-family="Times,serif" font-size="14.00" fill="#000000">of_pdx</text>
</g>
<!-- pdx&#45;&gt;sample -->
<g id="edge21" class="edge">
<title>pdx&#45;&gt;sample</title>
<path fill="none" stroke="#000000" d="M462.9428,-261.4334C468.3397,-250.8337 476.2764,-237.5736 486.0444,-228 492.8336,-221.3459 501.0902,-215.458 509.3344,-210.4713"/>
<polygon fill="#000000" stroke="#000000" points="511.2471,-213.4099 518.2053,-205.4203 507.7834,-207.3268 511.2471,-213.4099"/>
<text text-anchor="middle" x="510.0444" y="-231.8" font-family="Times,serif" font-size="14.00" fill="#000000">of_pdx</text>
</g>
<!-- study_personnel -->
<g id="node13" class="node">
<title>study_personnel</title>
<ellipse fill="none" stroke="#000000" cx="2393.0444" cy="-105" rx="87.1846" ry="18"/>
<text text-anchor="middle" x="2393.0444" y="-101.3" font-family="Times,serif" font-size="14.00" fill="#000000">study_personnel</text>
</g>
<!-- study_personnel&#45;&gt;study -->
<g id="edge19" class="edge">
<title>study_personnel&#45;&gt;study</title>
<path fill="none" stroke="#000000" d="M2366.5703,-87.8116C2344.5221,-73.4967 2313.0951,-53.0926 2289.9078,-38.0382"/>
<polygon fill="#000000" stroke="#000000" points="2291.7544,-35.0642 2281.4612,-32.5542 2287.9426,-40.9353 2291.7544,-35.0642"/>
<text text-anchor="middle" x="2403.5444" y="-57.8" font-family="Times,serif" font-size="14.00" fill="#000000">of_study_personnel</text>
</g>
<!-- therapeutic_procedure -->
<g id="node14" class="node">
<title>therapeutic_procedure</title>
<ellipse fill="none" stroke="#000000" cx="1970.0444" cy="-192" rx="117.7793" ry="18"/>
<text text-anchor="middle" x="1970.0444" y="-188.3" font-family="Times,serif" font-size="14.00" fill="#000000">therapeutic_procedure</text>
</g>
<!-- therapeutic_procedure&#45;&gt;participant -->
<g id="edge1" class="edge">
<title>therapeutic_procedure&#45;&gt;participant</title>
<path fill="none" stroke="#000000" d="M1916.7107,-175.9537C1876.0674,-164.3741 1818.515,-149.3618 1767.0444,-141 1626.4015,-118.1515 1459.8167,-109.7435 1366.5943,-106.6934"/>
<polygon fill="#000000" stroke="#000000" points="1366.5303,-103.1897 1356.4248,-106.3725 1366.3094,-110.1862 1366.5303,-103.1897"/>
<text text-anchor="middle" x="1934.0444" y="-144.8" font-family="Times,serif" font-size="14.00" fill="#000000">of_therapeutic_procedure</text>
</g>
<!-- single_cell_sequencing_file -->
<g id="node15" class="node">
<title>single_cell_sequencing_file</title>
<ellipse fill="none" stroke="#000000" cx="1216.0444" cy="-366" rx="137.5759" ry="18"/>
<text text-anchor="middle" x="1216.0444" y="-362.3" font-family="Times,serif" font-size="14.00" fill="#000000">single_cell_sequencing_file</text>
</g>
<!-- single_cell_sequencing_file&#45;&gt;cell_line -->
<g id="edge17" class="edge">
<title>single_cell_sequencing_file&#45;&gt;cell_line</title>
<path fill="none" stroke="#000000" d="M1269.5183,-349.2698C1312.1991,-336.1487 1368.5932,-319.3946 1392.0444,-315 1481.071,-298.3172 1506.1792,-314.5222 1595.0444,-297 1599.1174,-296.1969 1603.3095,-295.215 1607.4879,-294.1284"/>
<polygon fill="#000000" stroke="#000000" points="1608.4554,-297.4922 1617.1497,-291.4375 1606.5772,-290.7488 1608.4554,-297.4922"/>
<text text-anchor="middle" x="1500.5444" y="-318.8" font-family="Times,serif" font-size="14.00" fill="#000000">of_single_cell_sequencing_file</text>
</g>
<!-- single_cell_sequencing_file&#45;&gt;sample -->
<g id="edge16" class="edge">
<title>single_cell_sequencing_file&#45;&gt;sample</title>
<path fill="none" stroke="#000000" d="M1281.7442,-350.0516C1303.8162,-341.6615 1319.7461,-329.9704 1306.0444,-315 1290.7561,-298.2961 1125.4973,-299.9359 1103.0444,-297 878.5188,-267.6414 820.4699,-265.912 601.0444,-210 597.6941,-209.1463 594.2514,-208.1823 590.8066,-207.155"/>
<polygon fill="#000000" stroke="#000000" points="591.7573,-203.7851 581.1682,-204.1317 589.6622,-210.4642 591.7573,-203.7851"/>
<text text-anchor="middle" x="1211.5444" y="-275.3" font-family="Times,serif" font-size="14.00" fill="#000000">of_single_cell_sequencing_file</text>
</g>
<!-- single_cell_sequencing_file&#45;&gt;pdx -->
<g id="edge15" class="edge">
<title>single_cell_sequencing_file&#45;&gt;pdx</title>
<path fill="none" stroke="#000000" d="M1079.3925,-363.4175C921.9782,-359.5312 673.3082,-350.3405 582.0444,-330 563.4971,-325.8662 518.5468,-306.988 487.4284,-293.4042"/>
<polygon fill="#000000" stroke="#000000" points="488.8231,-290.1941 478.2596,-289.3807 486.0103,-296.6041 488.8231,-290.1941"/>
<text text-anchor="middle" x="690.5444" y="-318.8" font-family="Times,serif" font-size="14.00" fill="#000000">of_single_cell_sequencing_file</text>
</g>
<!-- exposure -->
<g id="node16" class="node">
<title>exposure</title>
<ellipse fill="none" stroke="#000000" cx="2159.0444" cy="-192" rx="53.0913" ry="18"/>
<text text-anchor="middle" x="2159.0444" y="-188.3" font-family="Times,serif" font-size="14.00" fill="#000000">exposure</text>
</g>
<!-- exposure&#45;&gt;participant -->
<g id="edge8" class="edge">
<title>exposure&#45;&gt;participant</title>
<path fill="none" stroke="#000000" d="M2129.4166,-176.9286C2104.0266,-164.8195 2066.1078,-148.6196 2031.0444,-141 1905.9486,-113.8154 1526.9722,-107.1351 1366.7765,-105.5125"/>
<polygon fill="#000000" stroke="#000000" points="1366.5798,-102.0105 1356.5461,-105.4128 1366.5115,-109.0102 1366.5798,-102.0105"/>
<text text-anchor="middle" x="2122.5444" y="-144.8" font-family="Times,serif" font-size="14.00" fill="#000000">of_exposure</text>
</g>
<!-- medical_history -->
<g id="node17" class="node">
<title>medical_history</title>
<ellipse fill="none" stroke="#000000" cx="695.0444" cy="-192" rx="85.2851" ry="18"/>
<text text-anchor="middle" x="695.0444" y="-188.3" font-family="Times,serif" font-size="14.00" fill="#000000">medical_history</text>
</g>
<!-- medical_history&#45;&gt;participant -->
<g id="edge7" class="edge">
<title>medical_history&#45;&gt;participant</title>
<path fill="none" stroke="#000000" d="M715.3498,-174.5177C730.2574,-162.7885 751.572,-148.2119 773.0444,-141 814.4564,-127.091 1088.8067,-113.7206 1221.8898,-107.9612"/>
<polygon fill="#000000" stroke="#000000" points="1222.1564,-111.4531 1231.9968,-107.5267 1221.8556,-104.4596 1222.1564,-111.4531"/>
<text text-anchor="middle" x="841.0444" y="-144.8" font-family="Times,serif" font-size="14.00" fill="#000000">of_medical_history</text>
</g>
<!-- study_funding -->
<g id="node18" class="node">
<title>study_funding</title>
<ellipse fill="none" stroke="#000000" cx="2575.0444" cy="-105" rx="77.1866" ry="18"/>
<text text-anchor="middle" x="2575.0444" y="-101.3" font-family="Times,serif" font-size="14.00" fill="#000000">study_funding</text>
</g>
<!-- study_funding&#45;&gt;study -->
<g id="edge22" class="edge">
<title>study_funding&#45;&gt;study</title>
<path fill="none" stroke="#000000" d="M2548.194,-88.0619C2529.0547,-76.7417 2502.3364,-62.4307 2477.0444,-54 2419.6499,-34.8685 2350.2327,-25.6461 2305.3904,-21.3847"/>
<polygon fill="#000000" stroke="#000000" points="2305.6513,-17.8941 2295.3761,-20.4768 2305.0192,-24.8655 2305.6513,-17.8941"/>
<text text-anchor="middle" x="2572.0444" y="-57.8" font-family="Times,serif" font-size="14.00" fill="#000000">of_study_funding</text>
</g>
<!-- molecular_test -->
<g id="node19" class="node">
<title>molecular_test</title>
<ellipse fill="none" stroke="#000000" cx="878.0444" cy="-192" rx="79.8859" ry="18"/>
<text text-anchor="middle" x="878.0444" y="-188.3" font-family="Times,serif" font-size="14.00" fill="#000000">molecular_test</text>
</g>
<!-- molecular_test&#45;&gt;participant -->
<g id="edge3" class="edge">
<title>molecular_test&#45;&gt;participant</title>
<path fill="none" stroke="#000000" d="M892.5225,-174.1906C903.0213,-162.6299 918.2747,-148.387 935.0444,-141 984.7214,-119.1175 1131.6884,-110.3639 1221.4379,-106.9922"/>
<polygon fill="#000000" stroke="#000000" points="1221.684,-110.4856 1231.5508,-106.6259 1221.4306,-103.4902 1221.684,-110.4856"/>
<text text-anchor="middle" x="999.0444" y="-144.8" font-family="Times,serif" font-size="14.00" fill="#000000">of_molecular_test</text>
</g>
<!-- study_arm -->
<g id="node20" class="node">
<title>study_arm</title>
<ellipse fill="none" stroke="#000000" cx="2730.0444" cy="-105" rx="59.5901" ry="18"/>
<text text-anchor="middle" x="2730.0444" y="-101.3" font-family="Times,serif" font-size="14.00" fill="#000000">study_arm</text>
</g>
<!-- study_arm&#45;&gt;study -->
<g id="edge23" class="edge">
<title>study_arm&#45;&gt;study</title>
<path fill="none" stroke="#000000" d="M2706.2975,-88.2325C2688.4122,-76.5266 2662.8151,-61.6744 2638.0444,-54 2577.1489,-35.1335 2392.8196,-24.2586 2305.6616,-20.0442"/>
<polygon fill="#000000" stroke="#000000" points="2305.6838,-16.5414 2295.5291,-19.5632 2305.3518,-23.5336 2305.6838,-16.5414"/>
<text text-anchor="middle" x="2720.5444" y="-57.8" font-family="Times,serif" font-size="14.00" fill="#000000">of_study_arm</text>
</g>
<!-- study_admin -->
<g id="node21" class="node">
<title>study_admin</title>
<ellipse fill="none" stroke="#000000" cx="2878.0444" cy="-105" rx="70.3881" ry="18"/>
<text text-anchor="middle" x="2878.0444" y="-101.3" font-family="Times,serif" font-size="14.00" fill="#000000">study_admin</text>
</g>
<!-- study_admin&#45;&gt;study -->
<g id="edge27" class="edge">
<title>study_admin&#45;&gt;study</title>
<path fill="none" stroke="#000000" d="M2851.0961,-88.3337C2830.5244,-76.5162 2801.0426,-61.4793 2773.0444,-54 2685.5534,-30.6281 2414.9411,-21.7071 2305.5931,-18.9982"/>
<polygon fill="#000000" stroke="#000000" points="2305.6076,-15.4976 2295.526,-18.7552 2305.4386,-22.4956 2305.6076,-15.4976"/>
<text text-anchor="middle" x="2868.5444" y="-57.8" font-family="Times,serif" font-size="14.00" fill="#000000">of_study_admin</text>
</g>
<!-- synonym -->
<g id="node22" class="node">
<title>synonym</title>
<ellipse fill="none" stroke="#000000" cx="1534.0444" cy="-279" rx="51.9908" ry="18"/>
<text text-anchor="middle" x="1534.0444" y="-275.3" font-family="Times,serif" font-size="14.00" fill="#000000">synonym</text>
</g>
<!-- synonym&#45;&gt;study -->
<g id="edge29" class="edge">
<title>synonym&#45;&gt;study</title>
<path fill="none" stroke="#000000" d="M1571.8224,-266.5424C1579.4419,-264.402 1587.4458,-262.415 1595.0444,-261 1663.6509,-248.2239 2168.9648,-256.4522 2221.0444,-210 2224.1137,-207.2624 2244.2851,-98.7931 2253.9275,-46.126"/>
<polygon fill="#000000" stroke="#000000" points="2257.4071,-46.5544 2255.7614,-36.0881 2250.521,-45.2962 2257.4071,-46.5544"/>
<text text-anchor="middle" x="2277.5444" y="-144.8" font-family="Times,serif" font-size="14.00" fill="#000000">of_synonym</text>
</g>
<!-- synonym&#45;&gt;sample -->
<g id="edge30" class="edge">
<title>synonym&#45;&gt;sample</title>
<path fill="none" stroke="#000000" d="M1493.6891,-267.4256C1485.2481,-265.1648 1476.3804,-262.9067 1468.0444,-261 1425.3012,-251.2232 1411.7524,-259.2919 1371.0444,-243 1359.7141,-238.4654 1359.6998,-231.6182 1348.0444,-228 1268.753,-203.3857 682.7896,-224.5162 601.0444,-210 597.3339,-209.3411 593.5312,-208.4687 589.7496,-207.4627"/>
<polygon fill="#000000" stroke="#000000" points="590.4479,-204.0195 579.866,-204.5424 588.4643,-210.7326 590.4479,-204.0195"/>
<text text-anchor="middle" x="1413.5444" y="-231.8" font-family="Times,serif" font-size="14.00" fill="#000000">of_synonym</text>
</g>
<!-- synonym&#45;&gt;participant -->
<g id="edge31" class="edge">
<title>synonym&#45;&gt;participant</title>
<path fill="none" stroke="#000000" d="M1516.8272,-261.8962C1504.3389,-248.6864 1487.8156,-229.4339 1477.0444,-210 1461.374,-181.7267 1478.0206,-162.6814 1454.0444,-141 1440.2908,-128.5628 1399.1119,-119.462 1361.9765,-113.5223"/>
<polygon fill="#000000" stroke="#000000" points="1362.0518,-109.9928 1351.6357,-111.9307 1360.9869,-116.9113 1362.0518,-109.9928"/>
<text text-anchor="middle" x="1519.5444" y="-188.3" font-family="Times,serif" font-size="14.00" fill="#000000">of_synonym</text>
</g>
<!-- sequencing_file -->
<g id="node23" class="node">
<title>sequencing_file</title>
<ellipse fill="none" stroke="#000000" cx="548.0444" cy="-366" rx="83.3857" ry="18"/>
<text text-anchor="middle" x="548.0444" y="-362.3" font-family="Times,serif" font-size="14.00" fill="#000000">sequencing_file</text>
</g>
<!-- sequencing_file&#45;&gt;cell_line -->
<g id="edge5" class="edge">
<title>sequencing_file&#45;&gt;cell_line</title>
<path fill="none" stroke="#000000" d="M630.426,-363.4354C771.2977,-358.6544 1052.6882,-347.273 1150.0444,-330 1172.8883,-325.947 1177.1723,-318.8908 1200.0444,-315 1373.2933,-285.5286 1421.9369,-327.2909 1595.0444,-297 1599.1921,-296.2742 1603.4572,-295.3368 1607.7022,-294.2715"/>
<polygon fill="#000000" stroke="#000000" points="1608.7821,-297.6048 1617.506,-291.5929 1606.9371,-290.8523 1608.7821,-297.6048"/>
<text text-anchor="middle" x="1266.5444" y="-318.8" font-family="Times,serif" font-size="14.00" fill="#000000">of_sequencing_file</text>
</g>
<!-- sequencing_file&#45;&gt;sample -->
<g id="edge4" class="edge">
<title>sequencing_file&#45;&gt;sample</title>
<path fill="none" stroke="#000000" d="M548.0444,-347.7078C548.0444,-317.3436 548.0444,-256.3226 548.0444,-220.3464"/>
<polygon fill="#000000" stroke="#000000" points="551.5445,-220.0471 548.0444,-210.0471 544.5445,-220.0471 551.5445,-220.0471"/>
<text text-anchor="middle" x="614.5444" y="-275.3" font-family="Times,serif" font-size="14.00" fill="#000000">of_sequencing_file</text>
</g>
<!-- sequencing_file&#45;&gt;pdx -->
<g id="edge6" class="edge">
<title>sequencing_file&#45;&gt;pdx</title>
<path fill="none" stroke="#000000" d="M475.9025,-356.8158C443.6843,-351.088 410.7762,-342.4027 401.0444,-330 390.4019,-316.4366 405.6035,-303.1303 422.5578,-293.5118"/>
<polygon fill="#000000" stroke="#000000" points="424.2317,-296.5861 431.4561,-288.8363 420.9757,-290.3894 424.2317,-296.5861"/>
<text text-anchor="middle" x="467.5444" y="-318.8" font-family="Times,serif" font-size="14.00" fill="#000000">of_sequencing_file</text>
</g>
<!-- methylation_array_file -->
<g id="node24" class="node">
<title>methylation_array_file</title>
<ellipse fill="none" stroke="#000000" cx="194.0444" cy="-366" rx="115.8798" ry="18"/>
<text text-anchor="middle" x="194.0444" y="-362.3" font-family="Times,serif" font-size="14.00" fill="#000000">methylation_array_file</text>
</g>
<!-- methylation_array_file&#45;&gt;cell_line -->
<g id="edge11" class="edge">
<title>methylation_array_file&#45;&gt;cell_line</title>
<path fill="none" stroke="#000000" d="M298.2261,-358.0807C346.255,-354.6256 404.0264,-350.7455 456.0444,-348 510.2281,-345.1402 893.123,-348.7367 944.0444,-330 954.1414,-326.2848 952.9319,-318.6728 963.0444,-315 1029.0749,-291.018 1525.7443,-308.5178 1595.0444,-297 1599.1981,-296.3096 1603.4674,-295.3966 1607.7152,-294.3472"/>
<polygon fill="#000000" stroke="#000000" points="1608.7852,-297.6835 1617.5229,-291.6915 1606.9556,-290.9268 1608.7852,-297.6835"/>
<text text-anchor="middle" x="1054.5444" y="-318.8" font-family="Times,serif" font-size="14.00" fill="#000000">of_methylation_array_file</text>
</g>
<!-- methylation_array_file&#45;&gt;sample -->
<g id="edge10" class="edge">
<title>methylation_array_file&#45;&gt;sample</title>
<path fill="none" stroke="#000000" d="M192.7225,-347.5868C192.6012,-337.6733 193.4184,-325.3832 197.0444,-315 206.7199,-287.2941 210.6147,-277.2611 235.0444,-261 256.7498,-246.5523 414.4569,-216.2728 497.3809,-201.089"/>
<polygon fill="#000000" stroke="#000000" points="498.1419,-204.508 507.3514,-199.2701 496.8856,-197.6217 498.1419,-204.508"/>
<text text-anchor="middle" x="326.5444" y="-275.3" font-family="Times,serif" font-size="14.00" fill="#000000">of_methylation_array_file</text>
</g>
<!-- methylation_array_file&#45;&gt;pdx -->
<g id="edge12" class="edge">
<title>methylation_array_file&#45;&gt;pdx</title>
<path fill="none" stroke="#000000" d="M195.2639,-347.8776C197.0305,-336.641 201.2208,-322.8898 211.0444,-315 241.0078,-290.9349 345.1979,-303.677 383.0444,-297 395.0174,-294.8877 407.946,-291.8871 419.4991,-288.94"/>
<polygon fill="#000000" stroke="#000000" points="420.4531,-292.3082 429.2392,-286.3875 418.6786,-285.5369 420.4531,-292.3082"/>
<text text-anchor="middle" x="302.5444" y="-318.8" font-family="Times,serif" font-size="14.00" fill="#000000">of_methylation_array_file</text>
</g>
</g>
</svg>
