<svg width="2604pt" height="305pt"
 viewBox="0.00 0.00 2604.31 305.00" xmlns="http://www.w3.org/2000/svg" xmlns:xlink="http://www.w3.org/1999/xlink">
<g id="graph0" class="graph" transform="scale(1 1) rotate(0) translate(4 301)">
<title>Perl</title>
<polygon fill="#ffffff" stroke="transparent" points="-4,4 -4,-301 2600.311,-301 2600.311,4 -4,4"/>
<!-- pathology_file -->
<g id="node1" class="node">
<title>pathology_file</title>
<ellipse fill="none" stroke="#000000" cx="2520.2677" cy="-279" rx="76.0865" ry="18"/>
<text text-anchor="middle" x="2520.2677" y="-275.3" font-family="Times,serif" font-size="14.00" fill="#000000">pathology_file</text>
</g>
<!-- sample -->
<g id="node14" class="node">
<title>sample</title>
<ellipse fill="none" stroke="#000000" cx="1960.2677" cy="-192" rx="44.393" ry="18"/>
<text text-anchor="middle" x="1960.2677" y="-188.3" font-family="Times,serif" font-size="14.00" fill="#000000">sample</text>
</g>
<!-- pathology_file&#45;&gt;sample -->
<g id="edge32" class="edge">
<title>pathology_file&#45;&gt;sample</title>
<path fill="none" stroke="#000000" d="M2500.8467,-261.5478C2486.5612,-249.8327 2466.0821,-235.2607 2445.2677,-228 2367.1684,-200.7565 2124.5216,-194.1272 2014.9478,-192.5162"/>
<polygon fill="#000000" stroke="#000000" points="2014.8168,-189.0141 2004.7693,-192.3754 2014.7199,-196.0134 2014.8168,-189.0141"/>
<text text-anchor="middle" x="2534.2677" y="-231.8" font-family="Times,serif" font-size="14.00" fill="#000000">of_pathology_file</text>
</g>
<!-- pdx -->
<g id="node2" class="node">
<title>pdx</title>
<ellipse fill="none" stroke="#000000" cx="1864.2677" cy="-105" rx="27.8951" ry="18"/>
<text text-anchor="middle" x="1864.2677" y="-101.3" font-family="Times,serif" font-size="14.00" fill="#000000">pdx</text>
</g>
<!-- study -->
<g id="node5" class="node">
<title>study</title>
<ellipse fill="none" stroke="#000000" cx="1641.2677" cy="-18" rx="36.2938" ry="18"/>
<text text-anchor="middle" x="1641.2677" y="-14.3" font-family="Times,serif" font-size="14.00" fill="#000000">study</text>
</g>
<!-- pdx&#45;&gt;study -->
<g id="edge26" class="edge">
<title>pdx&#45;&gt;study</title>
<path fill="none" stroke="#000000" d="M1858.5643,-87.1828C1854.0321,-75.9246 1846.5529,-62.0331 1835.2677,-54 1812.0796,-37.494 1737.248,-27.2476 1687.5916,-22.0895"/>
<polygon fill="#000000" stroke="#000000" points="1687.7052,-18.5834 1677.4053,-21.0656 1687.0051,-25.5483 1687.7052,-18.5834"/>
<text text-anchor="middle" x="1873.2677" y="-57.8" font-family="Times,serif" font-size="14.00" fill="#000000">of_pdx</text>
</g>
<!-- pdx&#45;&gt;sample -->
<g id="edge27" class="edge">
<title>pdx&#45;&gt;sample</title>
<path fill="none" stroke="#000000" d="M1886.8596,-115.9836C1908.6113,-126.5597 1938.2365,-140.9673 1938.2677,-141 1944.4245,-147.4436 1949.0032,-155.8818 1952.3408,-164.0347"/>
<polygon fill="#000000" stroke="#000000" points="1949.1355,-165.4638 1955.8191,-173.6845 1955.7207,-163.0901 1949.1355,-165.4638"/>
<text text-anchor="middle" x="1973.2677" y="-144.8" font-family="Times,serif" font-size="14.00" fill="#000000">of_pdx</text>
</g>
<!-- publication -->
<g id="node3" class="node">
<title>publication</title>
<ellipse fill="none" stroke="#000000" cx="1392.2677" cy="-105" rx="63.0888" ry="18"/>
<text text-anchor="middle" x="1392.2677" y="-101.3" font-family="Times,serif" font-size="14.00" fill="#000000">publication</text>
</g>
<!-- publication&#45;&gt;study -->
<g id="edge5" class="edge">
<title>publication&#45;&gt;study</title>
<path fill="none" stroke="#000000" d="M1409.122,-87.4612C1420.9773,-76.1729 1437.7912,-62.1392 1455.2677,-54 1499.881,-33.2225 1555.8849,-24.4349 1594.723,-20.7194"/>
<polygon fill="#000000" stroke="#000000" points="1595.0492,-24.2043 1604.7033,-19.8399 1594.4346,-17.2313 1595.0492,-24.2043"/>
<text text-anchor="middle" x="1506.2677" y="-57.8" font-family="Times,serif" font-size="14.00" fill="#000000">of_publication</text>
</g>
<!-- exposure -->
<g id="node4" class="node">
<title>exposure</title>
<ellipse fill="none" stroke="#000000" cx="607.2677" cy="-192" rx="53.0913" ry="18"/>
<text text-anchor="middle" x="607.2677" y="-188.3" font-family="Times,serif" font-size="14.00" fill="#000000">exposure</text>
</g>
<!-- participant -->
<g id="node20" class="node">
<title>participant</title>
<ellipse fill="none" stroke="#000000" cx="1038.2677" cy="-105" rx="62.2891" ry="18"/>
<text text-anchor="middle" x="1038.2677" y="-101.3" font-family="Times,serif" font-size="14.00" fill="#000000">participant</text>
</g>
<!-- exposure&#45;&gt;participant -->
<g id="edge4" class="edge">
<title>exposure&#45;&gt;participant</title>
<path fill="none" stroke="#000000" d="M627.0109,-175.2295C641.9807,-163.5222 663.6109,-148.6694 685.2677,-141 735.3996,-123.2466 878.4886,-113.0647 966.3365,-108.3171"/>
<polygon fill="#000000" stroke="#000000" points="966.7014,-111.8027 976.5022,-107.7785 966.331,-104.8125 966.7014,-111.8027"/>
<text text-anchor="middle" x="728.7677" y="-144.8" font-family="Times,serif" font-size="14.00" fill="#000000">of_exposure</text>
</g>
<!-- cell_line -->
<g id="node6" class="node">
<title>cell_line</title>
<ellipse fill="none" stroke="#000000" cx="1959.2677" cy="-105" rx="49.2915" ry="18"/>
<text text-anchor="middle" x="1959.2677" y="-101.3" font-family="Times,serif" font-size="14.00" fill="#000000">cell_line</text>
</g>
<!-- cell_line&#45;&gt;study -->
<g id="edge25" class="edge">
<title>cell_line&#45;&gt;study</title>
<path fill="none" stroke="#000000" d="M1944.3825,-87.3927C1933.6312,-75.9222 1918.0915,-61.7041 1901.2677,-54 1864.2773,-37.0611 1752.3974,-26.2378 1688.0945,-21.2396"/>
<polygon fill="#000000" stroke="#000000" points="1688.0552,-17.7267 1677.8188,-20.459 1687.5249,-24.7065 1688.0552,-17.7267"/>
<text text-anchor="middle" x="1965.7677" y="-57.8" font-family="Times,serif" font-size="14.00" fill="#000000">of_cell_line</text>
</g>
<!-- cell_line&#45;&gt;sample -->
<g id="edge24" class="edge">
<title>cell_line&#45;&gt;sample</title>
<path fill="none" stroke="#000000" d="M1989.0128,-119.61C1997.0619,-125.1287 2004.7813,-132.2414 2009.2677,-141 2015.2587,-152.6959 2007.6766,-163.5261 1996.823,-172.1703"/>
<polygon fill="#000000" stroke="#000000" points="1994.636,-169.43 1988.489,-178.0594 1998.6757,-175.1468 1994.636,-169.43"/>
<text text-anchor="middle" x="2052.7677" y="-144.8" font-family="Times,serif" font-size="14.00" fill="#000000">of_cell_line</text>
</g>
<!-- study_personnel -->
<g id="node7" class="node">
<title>study_personnel</title>
<ellipse fill="none" stroke="#000000" cx="1560.2677" cy="-105" rx="87.1846" ry="18"/>
<text text-anchor="middle" x="1560.2677" y="-101.3" font-family="Times,serif" font-size="14.00" fill="#000000">study_personnel</text>
</g>
<!-- study_personnel&#45;&gt;study -->
<g id="edge30" class="edge">
<title>study_personnel&#45;&gt;study</title>
<path fill="none" stroke="#000000" d="M1558.7302,-86.9341C1558.7505,-76.4116 1560.449,-63.407 1567.2677,-54 1575.0747,-43.2295 1586.9918,-35.5314 1598.9964,-30.0956"/>
<polygon fill="#000000" stroke="#000000" points="1600.62,-33.2138 1608.5659,-26.2057 1597.984,-26.7291 1600.62,-33.2138"/>
<text text-anchor="middle" x="1636.7677" y="-57.8" font-family="Times,serif" font-size="14.00" fill="#000000">of_study_personnel</text>
</g>
<!-- survival -->
<g id="node8" class="node">
<title>survival</title>
<ellipse fill="none" stroke="#000000" cx="726.2677" cy="-192" rx="48.1917" ry="18"/>
<text text-anchor="middle" x="726.2677" y="-188.3" font-family="Times,serif" font-size="14.00" fill="#000000">survival</text>
</g>
<!-- survival&#45;&gt;participant -->
<g id="edge31" class="edge">
<title>survival&#45;&gt;participant</title>
<path fill="none" stroke="#000000" d="M746.4222,-175.5673C761.6625,-164.0279 783.5991,-149.2372 805.2677,-141 834.5031,-129.8863 911.868,-119.2123 969.4801,-112.4136"/>
<polygon fill="#000000" stroke="#000000" points="970.1011,-115.865 979.6291,-111.2316 969.2913,-108.912 970.1011,-115.865"/>
<text text-anchor="middle" x="844.7677" y="-144.8" font-family="Times,serif" font-size="14.00" fill="#000000">of_survival</text>
</g>
<!-- sequencing_file -->
<g id="node9" class="node">
<title>sequencing_file</title>
<ellipse fill="none" stroke="#000000" cx="1896.2677" cy="-279" rx="83.3857" ry="18"/>
<text text-anchor="middle" x="1896.2677" y="-275.3" font-family="Times,serif" font-size="14.00" fill="#000000">sequencing_file</text>
</g>
<!-- sequencing_file&#45;&gt;sample -->
<g id="edge29" class="edge">
<title>sequencing_file&#45;&gt;sample</title>
<path fill="none" stroke="#000000" d="M1909.5285,-260.9735C1918.7459,-248.4437 1931.1661,-231.56 1941.4109,-217.6335"/>
<polygon fill="#000000" stroke="#000000" points="1944.3542,-219.5389 1947.4606,-209.4097 1938.7155,-215.3909 1944.3542,-219.5389"/>
<text text-anchor="middle" x="1998.7677" y="-231.8" font-family="Times,serif" font-size="14.00" fill="#000000">of_sequencing_file</text>
</g>
<!-- methylation_array_file -->
<g id="node10" class="node">
<title>methylation_array_file</title>
<ellipse fill="none" stroke="#000000" cx="2113.2677" cy="-279" rx="115.8798" ry="18"/>
<text text-anchor="middle" x="2113.2677" y="-275.3" font-family="Times,serif" font-size="14.00" fill="#000000">methylation_array_file</text>
</g>
<!-- methylation_array_file&#45;&gt;sample -->
<g id="edge15" class="edge">
<title>methylation_array_file&#45;&gt;sample</title>
<path fill="none" stroke="#000000" d="M2101.3328,-260.7304C2093.4001,-249.8662 2082.103,-236.5748 2069.2677,-228 2051.5475,-216.1617 2029.6127,-207.932 2010.076,-202.3618"/>
<polygon fill="#000000" stroke="#000000" points="2010.977,-198.9798 2000.4111,-199.7617 2009.1585,-205.7395 2010.977,-198.9798"/>
<text text-anchor="middle" x="2177.7677" y="-231.8" font-family="Times,serif" font-size="14.00" fill="#000000">of_methylation_array_file</text>
</g>
<!-- medical_history -->
<g id="node11" class="node">
<title>medical_history</title>
<ellipse fill="none" stroke="#000000" cx="877.2677" cy="-192" rx="85.2851" ry="18"/>
<text text-anchor="middle" x="877.2677" y="-188.3" font-family="Times,serif" font-size="14.00" fill="#000000">medical_history</text>
</g>
<!-- medical_history&#45;&gt;participant -->
<g id="edge10" class="edge">
<title>medical_history&#45;&gt;participant</title>
<path fill="none" stroke="#000000" d="M880.5635,-173.5339C883.4462,-162.5957 888.7315,-149.2957 898.2677,-141 909.9285,-130.8561 942.7769,-122.1398 973.7255,-115.8255"/>
<polygon fill="#000000" stroke="#000000" points="974.5448,-119.2313 983.6777,-113.861 973.1892,-112.3639 974.5448,-119.2313"/>
<text text-anchor="middle" x="966.2677" y="-144.8" font-family="Times,serif" font-size="14.00" fill="#000000">of_medical_history</text>
</g>
<!-- study_admin -->
<g id="node12" class="node">
<title>study_admin</title>
<ellipse fill="none" stroke="#000000" cx="1735.2677" cy="-105" rx="70.3881" ry="18"/>
<text text-anchor="middle" x="1735.2677" y="-101.3" font-family="Times,serif" font-size="14.00" fill="#000000">study_admin</text>
</g>
<!-- study_admin&#45;&gt;study -->
<g id="edge14" class="edge">
<title>study_admin&#45;&gt;study</title>
<path fill="none" stroke="#000000" d="M1727.9501,-86.8637C1723.0143,-76.3162 1715.6831,-63.3101 1706.2677,-54 1698.4128,-46.2329 1688.5399,-39.634 1678.8779,-34.2907"/>
<polygon fill="#000000" stroke="#000000" points="1680.2401,-31.0544 1669.7518,-29.5554 1677.0161,-37.2678 1680.2401,-31.0544"/>
<text text-anchor="middle" x="1774.7677" y="-57.8" font-family="Times,serif" font-size="14.00" fill="#000000">of_study_admin</text>
</g>
<!-- treatment_response -->
<g id="node13" class="node">
<title>treatment_response</title>
<ellipse fill="none" stroke="#000000" cx="1602.2677" cy="-192" rx="104.7816" ry="18"/>
<text text-anchor="middle" x="1602.2677" y="-188.3" font-family="Times,serif" font-size="14.00" fill="#000000">treatment_response</text>
</g>
<!-- treatment_response&#45;&gt;participant -->
<g id="edge9" class="edge">
<title>treatment_response&#45;&gt;participant</title>
<path fill="none" stroke="#000000" d="M1568.7395,-174.8916C1544.3116,-163.2596 1510.0666,-148.6443 1478.2677,-141 1443.4551,-132.6312 1225.0369,-117.2992 1109.5968,-109.628"/>
<polygon fill="#000000" stroke="#000000" points="1109.6432,-106.1235 1099.4337,-108.9548 1109.1805,-113.1082 1109.6432,-106.1235"/>
<text text-anchor="middle" x="1607.2677" y="-144.8" font-family="Times,serif" font-size="14.00" fill="#000000">of_treatment_response</text>
</g>
<!-- sample&#45;&gt;pdx -->
<g id="edge16" class="edge">
<title>sample&#45;&gt;pdx</title>
<path fill="none" stroke="#000000" d="M1922.7925,-182.4449C1899.3382,-175.6306 1872.2802,-165.9465 1865.2677,-156 1860.6552,-149.4576 1859.1753,-141.1771 1859.1908,-133.2015"/>
<polygon fill="#000000" stroke="#000000" points="1862.6934,-133.2937 1859.935,-123.0642 1855.7121,-132.7811 1862.6934,-133.2937"/>
<text text-anchor="middle" x="1901.7677" y="-144.8" font-family="Times,serif" font-size="14.00" fill="#000000">of_sample</text>
</g>
<!-- sample&#45;&gt;cell_line -->
<g id="edge17" class="edge">
<title>sample&#45;&gt;cell_line</title>
<path fill="none" stroke="#000000" d="M2003.3389,-187.7826C2043.6887,-182.8361 2099.7563,-173.0596 2113.2677,-156 2117.4068,-150.7739 2117.5204,-146.1341 2113.2677,-141 2085.8549,-107.9054 2059.9922,-133.2852 2018.2677,-123 2014.232,-122.0052 2010.0639,-120.8983 2005.8962,-119.7361"/>
<polygon fill="#000000" stroke="#000000" points="2006.8132,-116.358 1996.235,-116.951 2004.8741,-123.0841 2006.8132,-116.358"/>
<text text-anchor="middle" x="2153.7677" y="-144.8" font-family="Times,serif" font-size="14.00" fill="#000000">of_sample</text>
</g>
<!-- sample&#45;&gt;participant -->
<g id="edge18" class="edge">
<title>sample&#45;&gt;participant</title>
<path fill="none" stroke="#000000" d="M1918.6031,-185.7584C1882.3911,-179.8068 1828.7522,-169.7172 1783.2677,-156 1766.279,-150.8766 1763.6085,-144.7631 1746.2677,-141 1653.6717,-120.9061 1414.8859,-128.0181 1320.2677,-123 1248.2889,-119.1826 1166.0406,-113.8178 1109.0211,-109.9393"/>
<polygon fill="#000000" stroke="#000000" points="1109.2462,-106.4466 1099.0311,-109.2574 1108.7695,-113.4304 1109.2462,-106.4466"/>
<text text-anchor="middle" x="1819.7677" y="-144.8" font-family="Times,serif" font-size="14.00" fill="#000000">of_sample</text>
</g>
<!-- diagnosis -->
<g id="node15" class="node">
<title>diagnosis</title>
<ellipse fill="none" stroke="#000000" cx="1740.2677" cy="-279" rx="54.6905" ry="18"/>
<text text-anchor="middle" x="1740.2677" y="-275.3" font-family="Times,serif" font-size="14.00" fill="#000000">diagnosis</text>
</g>
<!-- diagnosis&#45;&gt;sample -->
<g id="edge7" class="edge">
<title>diagnosis&#45;&gt;sample</title>
<path fill="none" stroke="#000000" d="M1765.6414,-262.8291C1783.6856,-251.8608 1808.791,-237.6549 1832.2677,-228 1857.5802,-217.5901 1886.9017,-209.1008 1911.0894,-202.986"/>
<polygon fill="#000000" stroke="#000000" points="1912.2444,-206.306 1921.1146,-200.512 1910.5673,-199.5099 1912.2444,-206.306"/>
<text text-anchor="middle" x="1876.7677" y="-231.8" font-family="Times,serif" font-size="14.00" fill="#000000">of_diagnosis</text>
</g>
<!-- diagnosis&#45;&gt;participant -->
<g id="edge8" class="edge">
<title>diagnosis&#45;&gt;participant</title>
<path fill="none" stroke="#000000" d="M1740.9966,-260.9283C1741.1332,-229.2117 1736.0166,-164.6519 1694.2677,-141 1658.0694,-120.4927 1361.8063,-125.3252 1320.2677,-123 1248.3004,-118.9716 1166.0504,-113.638 1109.0274,-109.8244"/>
<polygon fill="#000000" stroke="#000000" points="1109.2484,-106.3315 1099.0367,-109.1545 1108.7801,-113.3158 1109.2484,-106.3315"/>
<text text-anchor="middle" x="1780.7677" y="-188.3" font-family="Times,serif" font-size="14.00" fill="#000000">of_diagnosis</text>
</g>
<!-- clinical_measure_file -->
<g id="node16" class="node">
<title>clinical_measure_file</title>
<ellipse fill="none" stroke="#000000" cx="128.2677" cy="-192" rx="108.5808" ry="18"/>
<text text-anchor="middle" x="128.2677" y="-188.3" font-family="Times,serif" font-size="14.00" fill="#000000">clinical_measure_file</text>
</g>
<!-- clinical_measure_file&#45;&gt;study -->
<g id="edge2" class="edge">
<title>clinical_measure_file&#45;&gt;study</title>
<path fill="none" stroke="#000000" d="M118.3147,-173.835C113.8651,-163.0102 111.2208,-149.7235 119.2677,-141 170.6277,-85.322 1343.8087,-31.0056 1594.4309,-20.0132"/>
<polygon fill="#000000" stroke="#000000" points="1594.8157,-23.4998 1604.6533,-19.5664 1594.51,-16.5065 1594.8157,-23.4998"/>
<text text-anchor="middle" x="538.2677" y="-101.3" font-family="Times,serif" font-size="14.00" fill="#000000">of_clinical_measure_file</text>
</g>
<!-- clinical_measure_file&#45;&gt;participant -->
<g id="edge1" class="edge">
<title>clinical_measure_file&#45;&gt;participant</title>
<path fill="none" stroke="#000000" d="M122.9847,-173.5708C121.0746,-162.6465 121.0848,-149.3481 129.2677,-141 143.8589,-126.1144 752.8714,-111.2914 965.7367,-106.556"/>
<polygon fill="#000000" stroke="#000000" points="965.952,-110.0522 975.872,-106.3315 965.7969,-103.0539 965.952,-110.0522"/>
<text text-anchor="middle" x="215.2677" y="-144.8" font-family="Times,serif" font-size="14.00" fill="#000000">of_clinical_measure_file</text>
</g>
<!-- study_funding -->
<g id="node17" class="node">
<title>study_funding</title>
<ellipse fill="none" stroke="#000000" cx="2104.2677" cy="-105" rx="77.1866" ry="18"/>
<text text-anchor="middle" x="2104.2677" y="-101.3" font-family="Times,serif" font-size="14.00" fill="#000000">study_funding</text>
</g>
<!-- study_funding&#45;&gt;study -->
<g id="edge11" class="edge">
<title>study_funding&#45;&gt;study</title>
<path fill="none" stroke="#000000" d="M2079.1669,-87.7639C2060.9044,-76.1506 2035.1216,-61.6115 2010.2677,-54 1951.1867,-35.9065 1773.178,-24.7038 1687.8562,-20.2329"/>
<polygon fill="#000000" stroke="#000000" points="1687.8461,-16.7278 1677.6792,-19.7086 1687.4859,-23.7185 1687.8461,-16.7278"/>
<text text-anchor="middle" x="2108.2677" y="-57.8" font-family="Times,serif" font-size="14.00" fill="#000000">of_study_funding</text>
</g>
<!-- molecular_test -->
<g id="node18" class="node">
<title>molecular_test</title>
<ellipse fill="none" stroke="#000000" cx="456.2677" cy="-192" rx="79.8859" ry="18"/>
<text text-anchor="middle" x="456.2677" y="-188.3" font-family="Times,serif" font-size="14.00" fill="#000000">molecular_test</text>
</g>
<!-- molecular_test&#45;&gt;participant -->
<g id="edge23" class="edge">
<title>molecular_test&#45;&gt;participant</title>
<path fill="none" stroke="#000000" d="M473.8512,-174.2674C486.6512,-162.5828 505.0468,-148.1628 524.2677,-141 564.5536,-125.9873 834.188,-113.221 965.9971,-107.7931"/>
<polygon fill="#000000" stroke="#000000" points="966.163,-111.2894 976.0117,-107.384 965.8771,-104.2952 966.163,-111.2894"/>
<text text-anchor="middle" x="588.2677" y="-144.8" font-family="Times,serif" font-size="14.00" fill="#000000">of_molecular_test</text>
</g>
<!-- synonym -->
<g id="node19" class="node">
<title>synonym</title>
<ellipse fill="none" stroke="#000000" cx="273.2677" cy="-279" rx="51.9908" ry="18"/>
<text text-anchor="middle" x="273.2677" y="-275.3" font-family="Times,serif" font-size="14.00" fill="#000000">synonym</text>
</g>
<!-- synonym&#45;&gt;study -->
<g id="edge20" class="edge">
<title>synonym&#45;&gt;study</title>
<path fill="none" stroke="#000000" d="M223.7804,-273.1841C155.0362,-263.9711 36.1465,-243.5441 10.2677,-210 -8.902,-185.1522 2.2647,-162.3483 25.2677,-141 76.2845,-93.6531 104.1348,-101.2248 172.2677,-87 453.5156,-28.2809 1375.6557,-19.4771 1594.4177,-18.2069"/>
<polygon fill="#000000" stroke="#000000" points="1594.6135,-21.7059 1604.5939,-18.1503 1594.5746,-14.706 1594.6135,-21.7059"/>
<text text-anchor="middle" x="67.7677" y="-144.8" font-family="Times,serif" font-size="14.00" fill="#000000">of_synonym</text>
</g>
<!-- synonym&#45;&gt;sample -->
<g id="edge21" class="edge">
<title>synonym&#45;&gt;sample</title>
<path fill="none" stroke="#000000" d="M325.3423,-278.5899C522.8866,-276.634 1244.733,-265.8497 1836.2677,-210 1860.401,-207.7215 1887.0194,-204.016 1909.3867,-200.5576"/>
<polygon fill="#000000" stroke="#000000" points="1910.0056,-204.0034 1919.3403,-198.992 1908.9179,-197.0884 1910.0056,-204.0034"/>
<text text-anchor="middle" x="1623.7677" y="-231.8" font-family="Times,serif" font-size="14.00" fill="#000000">of_synonym</text>
</g>
<!-- synonym&#45;&gt;participant -->
<g id="edge19" class="edge">
<title>synonym&#45;&gt;participant</title>
<path fill="none" stroke="#000000" d="M268.7603,-260.7458C264.1943,-237.4166 260.5458,-197.2729 282.2677,-174 328.3601,-124.6164 785.5056,-110.0765 965.7501,-106.244"/>
<polygon fill="#000000" stroke="#000000" points="966.0039,-109.7395 975.9291,-106.0327 965.8586,-102.741 966.0039,-109.7395"/>
<text text-anchor="middle" x="324.7677" y="-188.3" font-family="Times,serif" font-size="14.00" fill="#000000">of_synonym</text>
</g>
<!-- participant&#45;&gt;study -->
<g id="edge28" class="edge">
<title>participant&#45;&gt;study</title>
<path fill="none" stroke="#000000" d="M1090.2428,-94.8966C1148.161,-83.863 1244.6701,-66.1473 1328.2677,-54 1422.9319,-40.2446 1534.3282,-28.4825 1595.4187,-22.4097"/>
<polygon fill="#000000" stroke="#000000" points="1595.8956,-25.8797 1605.5031,-21.4135 1595.2075,-18.9136 1595.8956,-25.8797"/>
<text text-anchor="middle" x="1378.7677" y="-57.8" font-family="Times,serif" font-size="14.00" fill="#000000">of_participant</text>
</g>
<!-- study_arm -->
<g id="node21" class="node">
<title>study_arm</title>
<ellipse fill="none" stroke="#000000" cx="2259.2677" cy="-105" rx="59.5901" ry="18"/>
<text text-anchor="middle" x="2259.2677" y="-101.3" font-family="Times,serif" font-size="14.00" fill="#000000">study_arm</text>
</g>
<!-- study_arm&#45;&gt;study -->
<g id="edge12" class="edge">
<title>study_arm&#45;&gt;study</title>
<path fill="none" stroke="#000000" d="M2237.5843,-88.0177C2221.1874,-76.2051 2197.585,-61.3134 2174.2677,-54 2084.1611,-25.7383 1800.1351,-19.6595 1687.7254,-18.3551"/>
<polygon fill="#000000" stroke="#000000" points="1687.748,-14.8552 1677.7105,-18.2464 1687.6719,-21.8548 1687.748,-14.8552"/>
<text text-anchor="middle" x="2255.7677" y="-57.8" font-family="Times,serif" font-size="14.00" fill="#000000">of_study_arm</text>
</g>
<!-- treatment -->
<g id="node22" class="node">
<title>treatment</title>
<ellipse fill="none" stroke="#000000" cx="1038.2677" cy="-192" rx="57.6901" ry="18"/>
<text text-anchor="middle" x="1038.2677" y="-188.3" font-family="Times,serif" font-size="14.00" fill="#000000">treatment</text>
</g>
<!-- treatment&#45;&gt;participant -->
<g id="edge13" class="edge">
<title>treatment&#45;&gt;participant</title>
<path fill="none" stroke="#000000" d="M1038.2677,-173.9735C1038.2677,-162.1918 1038.2677,-146.5607 1038.2677,-133.1581"/>
<polygon fill="#000000" stroke="#000000" points="1041.7678,-133.0033 1038.2677,-123.0034 1034.7678,-133.0034 1041.7678,-133.0033"/>
<text text-anchor="middle" x="1085.2677" y="-144.8" font-family="Times,serif" font-size="14.00" fill="#000000">of_treatment</text>
</g>
<!-- family_relationship -->
<g id="node23" class="node">
<title>family_relationship</title>
<ellipse fill="none" stroke="#000000" cx="1214.2677" cy="-192" rx="100.1823" ry="18"/>
<text text-anchor="middle" x="1214.2677" y="-188.3" font-family="Times,serif" font-size="14.00" fill="#000000">family_relationship</text>
</g>
<!-- family_relationship&#45;&gt;participant -->
<g id="edge6" class="edge">
<title>family_relationship&#45;&gt;participant</title>
<path fill="none" stroke="#000000" d="M1190.5275,-174.4432C1175.4929,-163.8473 1155.3515,-150.5876 1136.2677,-141 1121.9187,-133.7912 1105.7643,-127.2603 1090.7726,-121.8016"/>
<polygon fill="#000000" stroke="#000000" points="1091.7142,-118.4219 1081.1195,-118.3729 1089.3712,-125.0181 1091.7142,-118.4219"/>
<text text-anchor="middle" x="1240.7677" y="-144.8" font-family="Times,serif" font-size="14.00" fill="#000000">of_family_relationship</text>
</g>
<!-- cytogenomic_file -->
<g id="node24" class="node">
<title>cytogenomic_file</title>
<ellipse fill="none" stroke="#000000" cx="2336.2677" cy="-279" rx="89.8845" ry="18"/>
<text text-anchor="middle" x="2336.2677" y="-275.3" font-family="Times,serif" font-size="14.00" fill="#000000">cytogenomic_file</text>
</g>
<!-- cytogenomic_file&#45;&gt;sample -->
<g id="edge3" class="edge">
<title>cytogenomic_file&#45;&gt;sample</title>
<path fill="none" stroke="#000000" d="M2319.8643,-261.274C2308.0812,-249.7506 2291.173,-235.5179 2273.2677,-228 2227.9297,-208.964 2091.8876,-198.9096 2014.9107,-194.6105"/>
<polygon fill="#000000" stroke="#000000" points="2014.6319,-191.0902 2004.4565,-194.0417 2014.2516,-198.0799 2014.6319,-191.0902"/>
<text text-anchor="middle" x="2369.7677" y="-231.8" font-family="Times,serif" font-size="14.00" fill="#000000">of_cytogenomic_file</text>
</g>
<!-- radiology_file -->
<g id="node25" class="node">
<title>radiology_file</title>
<ellipse fill="none" stroke="#000000" cx="1406.2677" cy="-192" rx="73.387" ry="18"/>
<text text-anchor="middle" x="1406.2677" y="-188.3" font-family="Times,serif" font-size="14.00" fill="#000000">radiology_file</text>
</g>
<!-- radiology_file&#45;&gt;participant -->
<g id="edge22" class="edge">
<title>radiology_file&#45;&gt;participant</title>
<path fill="none" stroke="#000000" d="M1384.3026,-174.6599C1368.5181,-163.1553 1346.2307,-148.7891 1324.2677,-141 1285.8871,-127.3884 1180.7191,-116.534 1109.1923,-110.4322"/>
<polygon fill="#000000" stroke="#000000" points="1109.1533,-106.9167 1098.8952,-109.5667 1108.5669,-113.8921 1109.1533,-106.9167"/>
<text text-anchor="middle" x="1415.2677" y="-144.8" font-family="Times,serif" font-size="14.00" fill="#000000">of_radiology_file</text>
</g>
</g>
</svg>
