<svg width="3452pt" height="392pt"
 viewBox="0.00 0.00 3452.34 392.00" xmlns="http://www.w3.org/2000/svg" xmlns:xlink="http://www.w3.org/1999/xlink">
<g id="graph0" class="graph" transform="scale(1 1) rotate(0) translate(4 388)">
<title>Perl</title>
<polygon fill="#ffffff" stroke="transparent" points="-4,4 -4,-388 3448.3351,-388 3448.3351,4 -4,4"/>
<!-- pdx -->
<g id="node1" class="node">
<title>pdx</title>
<ellipse fill="none" stroke="#000000" cx="2514.5404" cy="-279" rx="27.8951" ry="18"/>
<text text-anchor="middle" x="2514.5404" y="-275.3" font-family="Times,serif" font-size="14.00" fill="#000000">pdx</text>
</g>
<!-- study -->
<g id="node12" class="node">
<title>study</title>
<ellipse fill="none" stroke="#000000" cx="1624.5404" cy="-18" rx="36.2938" ry="18"/>
<text text-anchor="middle" x="1624.5404" y="-14.3" font-family="Times,serif" font-size="14.00" fill="#000000">study</text>
</g>
<!-- pdx&#45;&gt;study -->
<g id="edge38" class="edge">
<title>pdx&#45;&gt;study</title>
<path fill="none" stroke="#000000" d="M2541.919,-275.1927C2572.8442,-271.0387 2624.7075,-264.5132 2669.5404,-261 2693.9858,-259.0844 3093.5591,-260.6886 3110.5404,-243 3115.1573,-238.1908 3114.7598,-233.1615 3110.5404,-228 2827.7874,117.8775 2565.3983,-95.0102 2120.5404,-54 1955.5174,-38.787 1759.1141,-26.1483 1671.1625,-20.7762"/>
<polygon fill="#000000" stroke="#000000" points="1671.1777,-17.2708 1660.9837,-20.1574 1670.7529,-24.2579 1671.1777,-17.2708"/>
<text text-anchor="middle" x="3062.5404" y="-144.8" font-family="Times,serif" font-size="14.00" fill="#000000">of_pdx</text>
</g>
<!-- sample -->
<g id="node20" class="node">
<title>sample</title>
<ellipse fill="none" stroke="#000000" cx="2346.5404" cy="-192" rx="44.393" ry="18"/>
<text text-anchor="middle" x="2346.5404" y="-188.3" font-family="Times,serif" font-size="14.00" fill="#000000">sample</text>
</g>
<!-- pdx&#45;&gt;sample -->
<g id="edge37" class="edge">
<title>pdx&#45;&gt;sample</title>
<path fill="none" stroke="#000000" d="M2507.5847,-261.443C2502.3042,-250.2947 2493.9884,-236.4279 2482.5404,-228 2468.8596,-217.9284 2429.889,-208.1725 2397.153,-201.3631"/>
<polygon fill="#000000" stroke="#000000" points="2397.7252,-197.9079 2387.2286,-199.3473 2396.3319,-204.7678 2397.7252,-197.9079"/>
<text text-anchor="middle" x="2520.5404" y="-231.8" font-family="Times,serif" font-size="14.00" fill="#000000">of_pdx</text>
</g>
<!-- publication -->
<g id="node2" class="node">
<title>publication</title>
<ellipse fill="none" stroke="#000000" cx="758.5404" cy="-105" rx="63.0888" ry="18"/>
<text text-anchor="middle" x="758.5404" y="-101.3" font-family="Times,serif" font-size="14.00" fill="#000000">publication</text>
</g>
<!-- publication&#45;&gt;study -->
<g id="edge1" class="edge">
<title>publication&#45;&gt;study</title>
<path fill="none" stroke="#000000" d="M796.5958,-90.5395C830.2325,-78.4643 880.9019,-61.9813 926.5404,-54 1052.2069,-32.0233 1442.3452,-21.8612 1577.7125,-18.932"/>
<polygon fill="#000000" stroke="#000000" points="1577.8413,-22.4301 1587.7644,-18.7177 1577.692,-15.4317 1577.8413,-22.4301"/>
<text text-anchor="middle" x="977.5404" y="-57.8" font-family="Times,serif" font-size="14.00" fill="#000000">of_publication</text>
</g>
<!-- methylation_array_file -->
<g id="node3" class="node">
<title>methylation_array_file</title>
<ellipse fill="none" stroke="#000000" cx="2062.5404" cy="-366" rx="115.8798" ry="18"/>
<text text-anchor="middle" x="2062.5404" y="-362.3" font-family="Times,serif" font-size="14.00" fill="#000000">methylation_array_file</text>
</g>
<!-- methylation_array_file&#45;&gt;pdx -->
<g id="edge6" class="edge">
<title>methylation_array_file&#45;&gt;pdx</title>
<path fill="none" stroke="#000000" d="M2096.3124,-348.7146C2120.9246,-336.998 2155.4415,-322.3544 2187.5404,-315 2311.2538,-286.6552 2349.0798,-326.4267 2472.5404,-297 2475.9623,-296.1844 2479.459,-295.1112 2482.9018,-293.8943"/>
<polygon fill="#000000" stroke="#000000" points="2484.3289,-297.094 2492.3551,-290.1781 2481.7679,-290.5793 2484.3289,-297.094"/>
<text text-anchor="middle" x="2279.0404" y="-318.8" font-family="Times,serif" font-size="14.00" fill="#000000">of_methylation_array_file</text>
</g>
<!-- cell_line -->
<g id="node13" class="node">
<title>cell_line</title>
<ellipse fill="none" stroke="#000000" cx="2357.5404" cy="-105" rx="49.2915" ry="18"/>
<text text-anchor="middle" x="2357.5404" y="-101.3" font-family="Times,serif" font-size="14.00" fill="#000000">cell_line</text>
</g>
<!-- methylation_array_file&#45;&gt;cell_line -->
<g id="edge7" class="edge">
<title>methylation_array_file&#45;&gt;cell_line</title>
<path fill="none" stroke="#000000" d="M1992.7784,-351.5883C1969.1924,-343.4956 1951.8924,-331.612 1965.5404,-315 1991.7122,-283.1443 2027.9349,-326.6897 2056.5404,-297 2078.0867,-274.6371 2062.1174,-258.5767 2067.5404,-228 2074.4204,-189.2074 2055.8336,-167.9837 2084.5404,-141 2099.8439,-126.615 2222.7828,-115.0152 2298.3703,-109.1554"/>
<polygon fill="#000000" stroke="#000000" points="2299.0009,-112.6176 2308.7056,-108.367 2298.4683,-105.6379 2299.0009,-112.6176"/>
<text text-anchor="middle" x="2159.0404" y="-231.8" font-family="Times,serif" font-size="14.00" fill="#000000">of_methylation_array_file</text>
</g>
<!-- methylation_array_file&#45;&gt;sample -->
<g id="edge5" class="edge">
<title>methylation_array_file&#45;&gt;sample</title>
<path fill="none" stroke="#000000" d="M1999.206,-350.8235C1976.8806,-342.4732 1960.2685,-330.5974 1973.5404,-315 1989.7343,-295.9684 2060.6249,-304.2455 2084.5404,-297 2121.4677,-285.8124 2126.8116,-272.8232 2163.5404,-261 2202.7852,-248.3668 2215.8222,-257.1652 2254.5404,-243 2275.5711,-235.3058 2297.5632,-223.281 2314.7702,-212.8398"/>
<polygon fill="#000000" stroke="#000000" points="2316.6434,-215.7966 2323.3017,-207.5554 2312.9574,-209.8457 2316.6434,-215.7966"/>
<text text-anchor="middle" x="2255.0404" y="-275.3" font-family="Times,serif" font-size="14.00" fill="#000000">of_methylation_array_file</text>
</g>
<!-- study_personnel -->
<g id="node4" class="node">
<title>study_personnel</title>
<ellipse fill="none" stroke="#000000" cx="926.5404" cy="-105" rx="87.1846" ry="18"/>
<text text-anchor="middle" x="926.5404" y="-101.3" font-family="Times,serif" font-size="14.00" fill="#000000">study_personnel</text>
</g>
<!-- study_personnel&#45;&gt;study -->
<g id="edge15" class="edge">
<title>study_personnel&#45;&gt;study</title>
<path fill="none" stroke="#000000" d="M968.2528,-89.1489C1001.2122,-77.3507 1048.6484,-61.965 1091.5404,-54 1184.1838,-36.7962 1465.5545,-24.2224 1577.6886,-19.7673"/>
<polygon fill="#000000" stroke="#000000" points="1578.1453,-23.2521 1587.9999,-19.3616 1577.87,-16.2575 1578.1453,-23.2521"/>
<text text-anchor="middle" x="1161.0404" y="-57.8" font-family="Times,serif" font-size="14.00" fill="#000000">of_study_personnel</text>
</g>
<!-- study_admin -->
<g id="node5" class="node">
<title>study_admin</title>
<ellipse fill="none" stroke="#000000" cx="1101.5404" cy="-105" rx="70.3881" ry="18"/>
<text text-anchor="middle" x="1101.5404" y="-101.3" font-family="Times,serif" font-size="14.00" fill="#000000">study_admin</text>
</g>
<!-- study_admin&#45;&gt;study -->
<g id="edge12" class="edge">
<title>study_admin&#45;&gt;study</title>
<path fill="none" stroke="#000000" d="M1147.1402,-91.2884C1187.0103,-79.7738 1246.6429,-63.6917 1299.5404,-54 1397.9243,-35.9743 1514.8308,-25.7083 1578.1606,-21.0592"/>
<polygon fill="#000000" stroke="#000000" points="1578.5039,-24.5437 1588.2268,-20.3346 1578.0013,-17.5617 1578.5039,-24.5437"/>
<text text-anchor="middle" x="1356.0404" y="-57.8" font-family="Times,serif" font-size="14.00" fill="#000000">of_study_admin</text>
</g>
<!-- pathology_file -->
<g id="node6" class="node">
<title>pathology_file</title>
<ellipse fill="none" stroke="#000000" cx="2379.5404" cy="-366" rx="76.0865" ry="18"/>
<text text-anchor="middle" x="2379.5404" y="-362.3" font-family="Times,serif" font-size="14.00" fill="#000000">pathology_file</text>
</g>
<!-- pathology_file&#45;&gt;pdx -->
<g id="edge16" class="edge">
<title>pathology_file&#45;&gt;pdx</title>
<path fill="none" stroke="#000000" d="M2374.7252,-347.9954C2372.9913,-337.231 2373.0222,-323.9514 2380.5404,-315 2407.3364,-283.0958 2432.7254,-309.2748 2472.5404,-297 2475.7244,-296.0184 2478.9941,-294.8743 2482.2358,-293.6476"/>
<polygon fill="#000000" stroke="#000000" points="2483.8016,-296.79 2491.7626,-289.7991 2481.1796,-290.2995 2483.8016,-296.79"/>
<text text-anchor="middle" x="2441.5404" y="-318.8" font-family="Times,serif" font-size="14.00" fill="#000000">of_pathology_file</text>
</g>
<!-- pathology_file&#45;&gt;cell_line -->
<g id="edge17" class="edge">
<title>pathology_file&#45;&gt;cell_line</title>
<path fill="none" stroke="#000000" d="M2451.2517,-359.9687C2496.611,-356.2576 2556.4891,-351.5491 2609.5404,-348 2627.5279,-346.7966 2921.1514,-343.0963 2933.5404,-330 2948.0607,-314.6506 2955.4132,-291.1465 2920.5404,-261 2887.284,-232.2509 2766.2699,-253.3287 2723.5404,-243 2605.6955,-214.5142 2584.6015,-182.0965 2470.5404,-141 2449.3992,-133.3828 2425.7456,-125.7172 2405.5645,-119.4289"/>
<polygon fill="#000000" stroke="#000000" points="2406.5503,-116.0703 2395.9626,-116.4589 2404.4817,-122.7577 2406.5503,-116.0703"/>
<text text-anchor="middle" x="2784.5404" y="-231.8" font-family="Times,serif" font-size="14.00" fill="#000000">of_pathology_file</text>
</g>
<!-- pathology_file&#45;&gt;sample -->
<g id="edge18" class="edge">
<title>pathology_file&#45;&gt;sample</title>
<path fill="none" stroke="#000000" d="M2371.8513,-347.9049C2366.3687,-334.1891 2359.3233,-314.738 2355.5404,-297 2350.0558,-271.2835 2347.8928,-241.3486 2347.0505,-220.0368"/>
<polygon fill="#000000" stroke="#000000" points="2350.5485,-219.9168 2346.727,-210.0352 2343.5522,-220.1432 2350.5485,-219.9168"/>
<text text-anchor="middle" x="2416.5404" y="-275.3" font-family="Times,serif" font-size="14.00" fill="#000000">of_pathology_file</text>
</g>
<!-- participant -->
<g id="node7" class="node">
<title>participant</title>
<ellipse fill="none" stroke="#000000" cx="1252.5404" cy="-105" rx="62.2891" ry="18"/>
<text text-anchor="middle" x="1252.5404" y="-101.3" font-family="Times,serif" font-size="14.00" fill="#000000">participant</text>
</g>
<!-- participant&#45;&gt;study -->
<g id="edge11" class="edge">
<title>participant&#45;&gt;study</title>
<path fill="none" stroke="#000000" d="M1301.1729,-93.6263C1374.4743,-76.4832 1512.0864,-44.2997 1581.7727,-28.0021"/>
<polygon fill="#000000" stroke="#000000" points="1582.6055,-31.4019 1591.5457,-25.7165 1581.0114,-24.5858 1582.6055,-31.4019"/>
<text text-anchor="middle" x="1512.0404" y="-57.8" font-family="Times,serif" font-size="14.00" fill="#000000">of_participant</text>
</g>
<!-- cytogenomic_file -->
<g id="node8" class="node">
<title>cytogenomic_file</title>
<ellipse fill="none" stroke="#000000" cx="3099.5404" cy="-366" rx="89.8845" ry="18"/>
<text text-anchor="middle" x="3099.5404" y="-362.3" font-family="Times,serif" font-size="14.00" fill="#000000">cytogenomic_file</text>
</g>
<!-- cytogenomic_file&#45;&gt;pdx -->
<g id="edge31" class="edge">
<title>cytogenomic_file&#45;&gt;pdx</title>
<path fill="none" stroke="#000000" d="M3027.2212,-355.2448C2901.6994,-336.5775 2647.7747,-298.8143 2552.1267,-284.5898"/>
<polygon fill="#000000" stroke="#000000" points="2552.4584,-281.1007 2542.0523,-283.0915 2551.4286,-288.0245 2552.4584,-281.1007"/>
<text text-anchor="middle" x="2913.0404" y="-318.8" font-family="Times,serif" font-size="14.00" fill="#000000">of_cytogenomic_file</text>
</g>
<!-- cytogenomic_file&#45;&gt;cell_line -->
<g id="edge30" class="edge">
<title>cytogenomic_file&#45;&gt;cell_line</title>
<path fill="none" stroke="#000000" d="M3167.2349,-354.0765C3200.097,-344.5121 3236.6843,-327.4157 3256.5404,-297 3297.1482,-234.7967 3223.6803,-167.5765 3176.5404,-141 3143.5895,-122.423 2600.4079,-109.8708 2417.2767,-106.1504"/>
<polygon fill="#000000" stroke="#000000" points="2417.0935,-102.6461 2407.025,-105.9438 2416.9524,-109.6447 2417.0935,-102.6461"/>
<text text-anchor="middle" x="3337.0404" y="-231.8" font-family="Times,serif" font-size="14.00" fill="#000000">of_cytogenomic_file</text>
</g>
<!-- cytogenomic_file&#45;&gt;sample -->
<g id="edge32" class="edge">
<title>cytogenomic_file&#45;&gt;sample</title>
<path fill="none" stroke="#000000" d="M3104.2605,-347.6042C3110.6996,-317.71 3118.0318,-258.8312 3085.5404,-228 3060.7699,-204.4953 2567.1369,-195.1984 2400.7526,-192.7247"/>
<polygon fill="#000000" stroke="#000000" points="2400.7896,-189.225 2390.7394,-192.5783 2400.6871,-196.2242 2400.7896,-189.225"/>
<text text-anchor="middle" x="3181.0404" y="-275.3" font-family="Times,serif" font-size="14.00" fill="#000000">of_cytogenomic_file</text>
</g>
<!-- family_relationship -->
<g id="node9" class="node">
<title>family_relationship</title>
<ellipse fill="none" stroke="#000000" cx="463.5404" cy="-192" rx="100.1823" ry="18"/>
<text text-anchor="middle" x="463.5404" y="-188.3" font-family="Times,serif" font-size="14.00" fill="#000000">family_relationship</text>
</g>
<!-- family_relationship&#45;&gt;participant -->
<g id="edge22" class="edge">
<title>family_relationship&#45;&gt;participant</title>
<path fill="none" stroke="#000000" d="M454.8973,-173.6244C451.1753,-162.7203 449.3233,-149.4242 457.5404,-141 485.5955,-112.2377 1140.7265,-128.4051 1180.5404,-123 1186.2658,-122.2227 1192.1947,-121.1654 1198.0801,-119.9501"/>
<polygon fill="#000000" stroke="#000000" points="1198.8926,-123.355 1207.9001,-117.777 1197.3801,-116.5204 1198.8926,-123.355"/>
<text text-anchor="middle" x="537.0404" y="-144.8" font-family="Times,serif" font-size="14.00" fill="#000000">of_family_relationship</text>
</g>
<!-- single_cell_sequencing_file -->
<g id="node10" class="node">
<title>single_cell_sequencing_file</title>
<ellipse fill="none" stroke="#000000" cx="2756.5404" cy="-366" rx="137.5759" ry="18"/>
<text text-anchor="middle" x="2756.5404" y="-362.3" font-family="Times,serif" font-size="14.00" fill="#000000">single_cell_sequencing_file</text>
</g>
<!-- single_cell_sequencing_file&#45;&gt;pdx -->
<g id="edge3" class="edge">
<title>single_cell_sequencing_file&#45;&gt;pdx</title>
<path fill="none" stroke="#000000" d="M2629.8598,-358.8641C2584.882,-353.7608 2541.4432,-345.0087 2525.5404,-330 2519.2649,-324.0774 2516.1368,-315.5002 2514.6825,-307.0643"/>
<polygon fill="#000000" stroke="#000000" points="2518.155,-306.6169 2513.6398,-297.0323 2511.1925,-307.3406 2518.155,-306.6169"/>
<text text-anchor="middle" x="2634.0404" y="-318.8" font-family="Times,serif" font-size="14.00" fill="#000000">of_single_cell_sequencing_file</text>
</g>
<!-- single_cell_sequencing_file&#45;&gt;cell_line -->
<g id="edge4" class="edge">
<title>single_cell_sequencing_file&#45;&gt;cell_line</title>
<path fill="none" stroke="#000000" d="M2874.8333,-356.6857C2909.3258,-351.3649 2940.6942,-343.0319 2951.5404,-330 2961.6756,-317.8223 2975.9021,-297.7833 2946.5404,-261 2879.7307,-177.3033 2550.153,-128.415 2415.2563,-111.6306"/>
<polygon fill="#000000" stroke="#000000" points="2415.4701,-108.1306 2405.1177,-110.3841 2414.6159,-115.0783 2415.4701,-108.1306"/>
<text text-anchor="middle" x="3034.0404" y="-231.8" font-family="Times,serif" font-size="14.00" fill="#000000">of_single_cell_sequencing_file</text>
</g>
<!-- single_cell_sequencing_file&#45;&gt;sample -->
<g id="edge2" class="edge">
<title>single_cell_sequencing_file&#45;&gt;sample</title>
<path fill="none" stroke="#000000" d="M2755.3494,-347.6842C2753.7967,-337.073 2750.3079,-324.0631 2742.5404,-315 2681.0476,-243.2503 2638.8441,-255.832 2548.5404,-228 2499.1132,-212.7663 2440.7736,-203.2323 2399.5311,-197.8329"/>
<polygon fill="#000000" stroke="#000000" points="2399.7916,-194.338 2389.4299,-196.5484 2398.9084,-201.282 2399.7916,-194.338"/>
<text text-anchor="middle" x="2833.0404" y="-275.3" font-family="Times,serif" font-size="14.00" fill="#000000">of_single_cell_sequencing_file</text>
</g>
<!-- clinical_measure_file -->
<g id="node11" class="node">
<title>clinical_measure_file</title>
<ellipse fill="none" stroke="#000000" cx="108.5404" cy="-192" rx="108.5808" ry="18"/>
<text text-anchor="middle" x="108.5404" y="-188.3" font-family="Times,serif" font-size="14.00" fill="#000000">clinical_measure_file</text>
</g>
<!-- clinical_measure_file&#45;&gt;participant -->
<g id="edge24" class="edge">
<title>clinical_measure_file&#45;&gt;participant</title>
<path fill="none" stroke="#000000" d="M119.7695,-174.0649C128.2622,-162.2874 141.0852,-147.8396 156.5404,-141 208.5708,-117.9744 1124.1323,-130.4479 1180.5404,-123 1186.3505,-122.2329 1192.3689,-121.1701 1198.3381,-119.941"/>
<polygon fill="#000000" stroke="#000000" points="1199.2845,-123.3163 1208.2921,-117.7382 1197.772,-116.4816 1199.2845,-123.3163"/>
<text text-anchor="middle" x="242.5404" y="-144.8" font-family="Times,serif" font-size="14.00" fill="#000000">of_clinical_measure_file</text>
</g>
<!-- clinical_measure_file&#45;&gt;study -->
<g id="edge23" class="edge">
<title>clinical_measure_file&#45;&gt;study</title>
<path fill="none" stroke="#000000" d="M112.4326,-173.8465C115.8175,-162.5973 121.9104,-148.8435 132.5404,-141 270.5121,-39.1949 344.2567,-107.0988 514.5404,-87 668.8299,-68.789 707.5699,-65.0023 862.5404,-54 1002.86,-44.0379 1435.0134,-25.8197 1578.0375,-19.9074"/>
<polygon fill="#000000" stroke="#000000" points="1578.3757,-23.3965 1588.2228,-19.487 1578.0869,-16.4025 1578.3757,-23.3965"/>
<text text-anchor="middle" x="600.5404" y="-101.3" font-family="Times,serif" font-size="14.00" fill="#000000">of_clinical_measure_file</text>
</g>
<!-- cell_line&#45;&gt;study -->
<g id="edge21" class="edge">
<title>cell_line&#45;&gt;study</title>
<path fill="none" stroke="#000000" d="M2310.5729,-99.4254C2177.8233,-83.6693 1801.0202,-38.9464 1670.0617,-23.4029"/>
<polygon fill="#000000" stroke="#000000" points="1670.3156,-19.9086 1659.9728,-22.2055 1669.4905,-26.8598 1670.3156,-19.9086"/>
<text text-anchor="middle" x="2076.0404" y="-57.8" font-family="Times,serif" font-size="14.00" fill="#000000">of_cell_line</text>
</g>
<!-- cell_line&#45;&gt;sample -->
<g id="edge20" class="edge">
<title>cell_line&#45;&gt;sample</title>
<path fill="none" stroke="#000000" d="M2374.6135,-122.1731C2382.1892,-131.929 2388.4116,-144.4639 2383.5404,-156 2381.5945,-160.6082 2378.7385,-164.9182 2375.4616,-168.841"/>
<polygon fill="#000000" stroke="#000000" points="2372.6881,-166.6768 2368.301,-176.3207 2377.7445,-171.5175 2372.6881,-166.6768"/>
<text text-anchor="middle" x="2426.0404" y="-144.8" font-family="Times,serif" font-size="14.00" fill="#000000">of_cell_line</text>
</g>
<!-- synonym -->
<g id="node14" class="node">
<title>synonym</title>
<ellipse fill="none" stroke="#000000" cx="1701.5404" cy="-279" rx="51.9908" ry="18"/>
<text text-anchor="middle" x="1701.5404" y="-275.3" font-family="Times,serif" font-size="14.00" fill="#000000">synonym</text>
</g>
<!-- synonym&#45;&gt;participant -->
<g id="edge34" class="edge">
<title>synonym&#45;&gt;participant</title>
<path fill="none" stroke="#000000" d="M1649.6613,-277.679C1437.3996,-272.0266 644.5936,-248.401 608.5404,-210 549.5724,-147.192 618.0429,-161.5083 814.5404,-141 976.5238,-124.0939 1019.435,-146.8644 1180.5404,-123 1186.256,-122.1534 1192.1785,-121.051 1198.06,-119.8085"/>
<polygon fill="#000000" stroke="#000000" points="1198.885,-123.2105 1207.8758,-117.6055 1197.352,-116.3804 1198.885,-123.2105"/>
<text text-anchor="middle" x="651.0404" y="-188.3" font-family="Times,serif" font-size="14.00" fill="#000000">of_synonym</text>
</g>
<!-- synonym&#45;&gt;study -->
<g id="edge33" class="edge">
<title>synonym&#45;&gt;study</title>
<path fill="none" stroke="#000000" d="M1711.0208,-261.1425C1717.6773,-247.5481 1725.9991,-228.1446 1729.5404,-210 1732.6053,-194.2963 1732.3164,-189.7573 1729.5404,-174 1720.0137,-119.925 1677.684,-69.569 1649.7653,-41.3856"/>
<polygon fill="#000000" stroke="#000000" points="1651.8912,-38.5666 1642.3122,-34.0397 1646.9774,-43.5521 1651.8912,-38.5666"/>
<text text-anchor="middle" x="1768.0404" y="-144.8" font-family="Times,serif" font-size="14.00" fill="#000000">of_synonym</text>
</g>
<!-- synonym&#45;&gt;sample -->
<g id="edge35" class="edge">
<title>synonym&#45;&gt;sample</title>
<path fill="none" stroke="#000000" d="M1753.2667,-276.2428C1797.6164,-272.4997 1862.5483,-263.693 1915.5404,-243 1926.9084,-238.5609 1927.0066,-231.9887 1938.5404,-228 2002.4895,-205.8845 2196.847,-196.755 2292.3737,-193.526"/>
<polygon fill="#000000" stroke="#000000" points="2292.5315,-197.0228 2302.4112,-193.1962 2292.3016,-190.0266 2292.5315,-197.0228"/>
<text text-anchor="middle" x="1981.0404" y="-231.8" font-family="Times,serif" font-size="14.00" fill="#000000">of_synonym</text>
</g>
<!-- diagnosis -->
<g id="node15" class="node">
<title>diagnosis</title>
<ellipse fill="none" stroke="#000000" cx="757.5404" cy="-192" rx="54.6905" ry="18"/>
<text text-anchor="middle" x="757.5404" y="-188.3" font-family="Times,serif" font-size="14.00" fill="#000000">diagnosis</text>
</g>
<!-- diagnosis&#45;&gt;participant -->
<g id="edge25" class="edge">
<title>diagnosis&#45;&gt;participant</title>
<path fill="none" stroke="#000000" d="M781.4373,-175.6946C800.3616,-163.7338 827.9492,-148.3481 854.5404,-141 994.408,-102.3498 1037.0617,-144.6948 1180.5404,-123 1186.0344,-122.1693 1191.7207,-121.1076 1197.3785,-119.9164"/>
<polygon fill="#000000" stroke="#000000" points="1198.4901,-123.2543 1207.484,-117.6543 1196.9609,-116.4233 1198.4901,-123.2543"/>
<text text-anchor="middle" x="899.0404" y="-144.8" font-family="Times,serif" font-size="14.00" fill="#000000">of_diagnosis</text>
</g>
<!-- molecular_test -->
<g id="node16" class="node">
<title>molecular_test</title>
<ellipse fill="none" stroke="#000000" cx="910.5404" cy="-192" rx="79.8859" ry="18"/>
<text text-anchor="middle" x="910.5404" y="-188.3" font-family="Times,serif" font-size="14.00" fill="#000000">molecular_test</text>
</g>
<!-- molecular_test&#45;&gt;participant -->
<g id="edge40" class="edge">
<title>molecular_test&#45;&gt;participant</title>
<path fill="none" stroke="#000000" d="M925.9327,-174.1096C937.0519,-162.5127 953.1268,-148.2599 970.5404,-141 1057.0026,-104.9529 1088.1408,-138.4088 1180.5404,-123 1185.9418,-122.0992 1191.5342,-121.0015 1197.1052,-119.7969"/>
<polygon fill="#000000" stroke="#000000" points="1198.089,-123.1627 1207.0643,-117.5329 1196.5372,-116.3368 1198.089,-123.1627"/>
<text text-anchor="middle" x="1034.5404" y="-144.8" font-family="Times,serif" font-size="14.00" fill="#000000">of_molecular_test</text>
</g>
<!-- medical_history -->
<g id="node17" class="node">
<title>medical_history</title>
<ellipse fill="none" stroke="#000000" cx="1093.5404" cy="-192" rx="85.2851" ry="18"/>
<text text-anchor="middle" x="1093.5404" y="-188.3" font-family="Times,serif" font-size="14.00" fill="#000000">medical_history</text>
</g>
<!-- medical_history&#45;&gt;participant -->
<g id="edge14" class="edge">
<title>medical_history&#45;&gt;participant</title>
<path fill="none" stroke="#000000" d="M1095.6808,-173.582C1097.8941,-162.6619 1102.3939,-149.364 1111.5404,-141 1112.3783,-140.2338 1156.7719,-128.9675 1195.5205,-119.2401"/>
<polygon fill="#000000" stroke="#000000" points="1196.3721,-122.635 1205.2203,-116.8075 1194.6692,-115.8452 1196.3721,-122.635"/>
<text text-anchor="middle" x="1179.5404" y="-144.8" font-family="Times,serif" font-size="14.00" fill="#000000">of_medical_history</text>
</g>
<!-- exposure -->
<g id="node18" class="node">
<title>exposure</title>
<ellipse fill="none" stroke="#000000" cx="1249.5404" cy="-192" rx="53.0913" ry="18"/>
<text text-anchor="middle" x="1249.5404" y="-188.3" font-family="Times,serif" font-size="14.00" fill="#000000">exposure</text>
</g>
<!-- exposure&#45;&gt;participant -->
<g id="edge36" class="edge">
<title>exposure&#45;&gt;participant</title>
<path fill="none" stroke="#000000" d="M1250.162,-173.9735C1250.5682,-162.1918 1251.1072,-146.5607 1251.5694,-133.1581"/>
<polygon fill="#000000" stroke="#000000" points="1255.0728,-133.1181 1251.9196,-123.0034 1248.0769,-132.8768 1255.0728,-133.1181"/>
<text text-anchor="middle" x="1295.0404" y="-144.8" font-family="Times,serif" font-size="14.00" fill="#000000">of_exposure</text>
</g>
<!-- study_funding -->
<g id="node19" class="node">
<title>study_funding</title>
<ellipse fill="none" stroke="#000000" cx="3229.5404" cy="-105" rx="77.1866" ry="18"/>
<text text-anchor="middle" x="3229.5404" y="-101.3" font-family="Times,serif" font-size="14.00" fill="#000000">study_funding</text>
</g>
<!-- study_funding&#45;&gt;study -->
<g id="edge39" class="edge">
<title>study_funding&#45;&gt;study</title>
<path fill="none" stroke="#000000" d="M3206.2314,-87.7079C3188.6299,-75.7412 3163.3441,-60.7925 3138.5404,-54 3066.1593,-34.1783 1918.3391,-21.0753 1671.1932,-18.4756"/>
<polygon fill="#000000" stroke="#000000" points="1671.143,-14.975 1661.1069,-18.3701 1671.0697,-21.9746 1671.143,-14.975"/>
<text text-anchor="middle" x="3234.5404" y="-57.8" font-family="Times,serif" font-size="14.00" fill="#000000">of_study_funding</text>
</g>
<!-- sample&#45;&gt;pdx -->
<g id="edge10" class="edge">
<title>sample&#45;&gt;pdx</title>
<path fill="none" stroke="#000000" d="M2363.374,-208.8084C2375.3491,-219.9224 2392.31,-234.0426 2409.5404,-243 2435.378,-256.432 2445.1025,-251.2449 2472.5404,-261 2475.6798,-262.1162 2478.9195,-263.3506 2482.1422,-264.6344"/>
<polygon fill="#000000" stroke="#000000" points="2481.0633,-267.9757 2491.6418,-268.5653 2483.7399,-261.5076 2481.0633,-267.9757"/>
<text text-anchor="middle" x="2446.0404" y="-231.8" font-family="Times,serif" font-size="14.00" fill="#000000">of_sample</text>
</g>
<!-- sample&#45;&gt;participant -->
<g id="edge8" class="edge">
<title>sample&#45;&gt;participant</title>
<path fill="none" stroke="#000000" d="M2303.6894,-187.1451C2216.1844,-177.3553 2010.6004,-154.9897 1837.5404,-141 1652.6361,-126.0528 1434.407,-114.1374 1324.091,-108.516"/>
<polygon fill="#000000" stroke="#000000" points="1324.2436,-105.0194 1314.0791,-108.0081 1323.8888,-112.0104 1324.2436,-105.0194"/>
<text text-anchor="middle" x="2029.0404" y="-144.8" font-family="Times,serif" font-size="14.00" fill="#000000">of_sample</text>
</g>
<!-- sample&#45;&gt;cell_line -->
<g id="edge9" class="edge">
<title>sample&#45;&gt;cell_line</title>
<path fill="none" stroke="#000000" d="M2324.4295,-176.279C2313.6843,-166.5877 2304.3034,-153.6335 2310.5404,-141 2313.222,-135.5681 2317.16,-130.7292 2321.6338,-126.4981"/>
<polygon fill="#000000" stroke="#000000" points="2324.0689,-129.0261 2329.5415,-119.9541 2319.6059,-123.6333 2324.0689,-129.0261"/>
<text text-anchor="middle" x="2347.0404" y="-144.8" font-family="Times,serif" font-size="14.00" fill="#000000">of_sample</text>
</g>
<!-- therapeutic_procedure -->
<g id="node21" class="node">
<title>therapeutic_procedure</title>
<ellipse fill="none" stroke="#000000" cx="1438.5404" cy="-192" rx="117.7793" ry="18"/>
<text text-anchor="middle" x="1438.5404" y="-188.3" font-family="Times,serif" font-size="14.00" fill="#000000">therapeutic_procedure</text>
</g>
<!-- therapeutic_procedure&#45;&gt;participant -->
<g id="edge19" class="edge">
<title>therapeutic_procedure&#45;&gt;participant</title>
<path fill="none" stroke="#000000" d="M1407.8393,-174.6021C1389.2039,-164.3163 1364.7958,-151.3261 1342.5404,-141 1329.1509,-134.7875 1314.3714,-128.6061 1300.7262,-123.1637"/>
<polygon fill="#000000" stroke="#000000" points="1301.6138,-119.7516 1291.0269,-119.3415 1299.0474,-126.2642 1301.6138,-119.7516"/>
<text text-anchor="middle" x="1465.5404" y="-144.8" font-family="Times,serif" font-size="14.00" fill="#000000">of_therapeutic_procedure</text>
</g>
<!-- radiology_file -->
<g id="node22" class="node">
<title>radiology_file</title>
<ellipse fill="none" stroke="#000000" cx="1647.5404" cy="-192" rx="73.387" ry="18"/>
<text text-anchor="middle" x="1647.5404" y="-188.3" font-family="Times,serif" font-size="14.00" fill="#000000">radiology_file</text>
</g>
<!-- radiology_file&#45;&gt;participant -->
<g id="edge41" class="edge">
<title>radiology_file&#45;&gt;participant</title>
<path fill="none" stroke="#000000" d="M1625.0488,-174.8565C1608.6318,-163.287 1585.349,-148.762 1562.5404,-141 1519.7721,-126.4456 1401.1772,-115.5768 1323.6936,-109.7679"/>
<polygon fill="#000000" stroke="#000000" points="1323.7469,-106.2624 1313.5162,-109.0162 1323.2312,-113.2434 1323.7469,-106.2624"/>
<text text-anchor="middle" x="1654.5404" y="-144.8" font-family="Times,serif" font-size="14.00" fill="#000000">of_radiology_file</text>
</g>
<!-- sequencing_file -->
<g id="node23" class="node">
<title>sequencing_file</title>
<ellipse fill="none" stroke="#000000" cx="1845.5404" cy="-366" rx="83.3857" ry="18"/>
<text text-anchor="middle" x="1845.5404" y="-362.3" font-family="Times,serif" font-size="14.00" fill="#000000">sequencing_file</text>
</g>
<!-- sequencing_file&#45;&gt;pdx -->
<g id="edge29" class="edge">
<title>sequencing_file&#45;&gt;pdx</title>
<path fill="none" stroke="#000000" d="M1885.2263,-350.0379C1917.1526,-338.0113 1963.4702,-322.3753 2005.5404,-315 2210.1299,-279.1333 2269.9148,-342.6746 2472.5404,-297 2475.9721,-296.2264 2479.4751,-295.1808 2482.9218,-293.9805"/>
<polygon fill="#000000" stroke="#000000" points="2484.339,-297.1846 2492.3801,-290.286 2481.7921,-290.6643 2484.339,-297.1846"/>
<text text-anchor="middle" x="2072.0404" y="-318.8" font-family="Times,serif" font-size="14.00" fill="#000000">of_sequencing_file</text>
</g>
<!-- sequencing_file&#45;&gt;cell_line -->
<g id="edge28" class="edge">
<title>sequencing_file&#45;&gt;cell_line</title>
<path fill="none" stroke="#000000" d="M1825.2018,-348.2709C1796.1747,-320.8108 1749.4287,-267.0883 1778.5404,-228 1840.3828,-144.9639 2163.5876,-116.4412 2298.3981,-108.0602"/>
<polygon fill="#000000" stroke="#000000" points="2298.7728,-111.544 2308.5428,-107.4455 2298.3494,-104.5568 2298.7728,-111.544"/>
<text text-anchor="middle" x="1845.0404" y="-231.8" font-family="Times,serif" font-size="14.00" fill="#000000">of_sequencing_file</text>
</g>
<!-- sequencing_file&#45;&gt;sample -->
<g id="edge27" class="edge">
<title>sequencing_file&#45;&gt;sample</title>
<path fill="none" stroke="#000000" d="M1857.801,-348.1152C1875.0166,-324.4278 1908.6399,-283.0783 1947.5404,-261 1977.7292,-243.8661 1991.0801,-255.2991 2023.5404,-243 2036.7422,-237.9979 2038.0812,-232.2613 2051.5404,-228 2095.2002,-214.177 2220.1611,-202.214 2292.675,-196.1783"/>
<polygon fill="#000000" stroke="#000000" points="2293.2977,-199.639 2302.9773,-195.3313 2292.7241,-192.6625 2293.2977,-199.639"/>
<text text-anchor="middle" x="2014.0404" y="-275.3" font-family="Times,serif" font-size="14.00" fill="#000000">of_sequencing_file</text>
</g>
<!-- study_arm -->
<g id="node24" class="node">
<title>study_arm</title>
<ellipse fill="none" stroke="#000000" cx="3384.5404" cy="-105" rx="59.5901" ry="18"/>
<text text-anchor="middle" x="3384.5404" y="-101.3" font-family="Times,serif" font-size="14.00" fill="#000000">study_arm</text>
</g>
<!-- study_arm&#45;&gt;study -->
<g id="edge26" class="edge">
<title>study_arm&#45;&gt;study</title>
<path fill="none" stroke="#000000" d="M3363.5803,-87.9517C3347.4284,-75.9393 3323.963,-60.8258 3300.5404,-54 3220.316,-30.6211 1934.8316,-20.2139 1671.4632,-18.3217"/>
<polygon fill="#000000" stroke="#000000" points="1671.1311,-14.8194 1661.1064,-18.248 1671.0812,-21.8192 1671.1311,-14.8194"/>
<text text-anchor="middle" x="3380.0404" y="-57.8" font-family="Times,serif" font-size="14.00" fill="#000000">of_study_arm</text>
</g>
<!-- follow_up -->
<g id="node25" class="node">
<title>follow_up</title>
<ellipse fill="none" stroke="#000000" cx="290.5404" cy="-192" rx="55.4913" ry="18"/>
<text text-anchor="middle" x="290.5404" y="-188.3" font-family="Times,serif" font-size="14.00" fill="#000000">follow_up</text>
</g>
<!-- follow_up&#45;&gt;participant -->
<g id="edge13" class="edge">
<title>follow_up&#45;&gt;participant</title>
<path fill="none" stroke="#000000" d="M307.2018,-174.7383C319.9787,-162.7868 338.7346,-147.8437 358.5404,-141 444.8861,-111.1639 1089.9972,-135.154 1180.5404,-123 1186.3488,-122.2203 1192.3661,-121.1495 1198.3347,-119.9155"/>
<polygon fill="#000000" stroke="#000000" points="1199.2833,-123.2903 1208.288,-117.7075 1197.7673,-116.4564 1199.2833,-123.2903"/>
<text text-anchor="middle" x="403.5404" y="-144.8" font-family="Times,serif" font-size="14.00" fill="#000000">of_follow_up</text>
</g>
</g>
</svg>
