<svg width="3359pt" height="392pt"
 viewBox="0.00 0.00 3358.74 392.00" xmlns="http://www.w3.org/2000/svg" xmlns:xlink="http://www.w3.org/1999/xlink">
<g id="graph0" class="graph" transform="scale(1 1) rotate(0) translate(4 388)">
<title>Perl</title>
<polygon fill="#ffffff" stroke="transparent" points="-4,4 -4,-388 3354.744,-388 3354.744,4 -4,4"/>
<!-- pathology_file -->
<g id="node1" class="node">
<title>pathology_file</title>
<ellipse fill="none" stroke="#000000" cx="1910.6518" cy="-366" rx="76.0865" ry="18"/>
<text text-anchor="middle" x="1910.6518" y="-362.3" font-family="Times,serif" font-size="14.00" fill="#000000">pathology_file</text>
</g>
<!-- sample -->
<g id="node9" class="node">
<title>sample</title>
<ellipse fill="none" stroke="#000000" cx="1415.6518" cy="-279" rx="44.393" ry="18"/>
<text text-anchor="middle" x="1415.6518" y="-275.3" font-family="Times,serif" font-size="14.00" fill="#000000">sample</text>
</g>
<!-- pathology_file&#45;&gt;sample -->
<g id="edge32" class="edge">
<title>pathology_file&#45;&gt;sample</title>
<path fill="none" stroke="#000000" d="M1841.8634,-358.2627C1792.7464,-352.1525 1725.268,-342.5638 1666.6518,-330 1642.7147,-324.8693 1637.6356,-319.9077 1613.6518,-315 1552.1909,-302.4236 1534.9499,-310.3471 1473.6518,-297 1469.0031,-295.9878 1464.1911,-294.7731 1459.4179,-293.4589"/>
<polygon fill="#000000" stroke="#000000" points="1460.3183,-290.0759 1449.7393,-290.6542 1458.37,-296.7993 1460.3183,-290.0759"/>
<text text-anchor="middle" x="1727.6518" y="-318.8" font-family="Times,serif" font-size="14.00" fill="#000000">of_pathology_file</text>
</g>
<!-- cell_line -->
<g id="node10" class="node">
<title>cell_line</title>
<ellipse fill="none" stroke="#000000" cx="1140.6518" cy="-192" rx="49.2915" ry="18"/>
<text text-anchor="middle" x="1140.6518" y="-188.3" font-family="Times,serif" font-size="14.00" fill="#000000">cell_line</text>
</g>
<!-- pathology_file&#45;&gt;cell_line -->
<g id="edge31" class="edge">
<title>pathology_file&#45;&gt;cell_line</title>
<path fill="none" stroke="#000000" d="M1920.637,-347.9495C1924.882,-337.6826 1927.632,-324.9326 1921.6518,-315 1895.1938,-271.0559 1868.3542,-277.0991 1819.6518,-261 1556.7157,-174.0839 1471.463,-257.5795 1198.6518,-210 1194.5037,-209.2766 1190.2383,-208.3408 1185.9931,-207.2765"/>
<polygon fill="#000000" stroke="#000000" points="1186.7578,-203.8572 1176.189,-204.5994 1184.9139,-210.61 1186.7578,-203.8572"/>
<text text-anchor="middle" x="1969.6518" y="-275.3" font-family="Times,serif" font-size="14.00" fill="#000000">of_pathology_file</text>
</g>
<!-- pdx -->
<g id="node22" class="node">
<title>pdx</title>
<ellipse fill="none" stroke="#000000" cx="976.6518" cy="-192" rx="27.8951" ry="18"/>
<text text-anchor="middle" x="976.6518" y="-188.3" font-family="Times,serif" font-size="14.00" fill="#000000">pdx</text>
</g>
<!-- pathology_file&#45;&gt;pdx -->
<g id="edge33" class="edge">
<title>pathology_file&#45;&gt;pdx</title>
<path fill="none" stroke="#000000" d="M1910.717,-347.7737C1909.7012,-336.4945 1906.3376,-322.7349 1896.6518,-315 1861.8005,-287.1686 1535.0862,-317.8356 1495.6518,-297 1477.9683,-287.6568 1484.8091,-272.7873 1468.6518,-261 1448.8941,-246.5862 1439.0567,-252.8053 1416.6518,-243 1403.7184,-237.3399 1402.2379,-231.8374 1388.6518,-228 1257.5461,-190.9687 1218.0106,-225.427 1082.6518,-210 1059.5937,-207.372 1033.9308,-203.0511 1013.6317,-199.3015"/>
<polygon fill="#000000" stroke="#000000" points="1014.0225,-195.8137 1003.5478,-197.4047 1012.7284,-202.693 1014.0225,-195.8137"/>
<text text-anchor="middle" x="1556.6518" y="-275.3" font-family="Times,serif" font-size="14.00" fill="#000000">of_pathology_file</text>
</g>
<!-- study_arm -->
<g id="node2" class="node">
<title>study_arm</title>
<ellipse fill="none" stroke="#000000" cx="704.6518" cy="-105" rx="59.5901" ry="18"/>
<text text-anchor="middle" x="704.6518" y="-101.3" font-family="Times,serif" font-size="14.00" fill="#000000">study_arm</text>
</g>
<!-- study -->
<g id="node18" class="node">
<title>study</title>
<ellipse fill="none" stroke="#000000" cx="1267.6518" cy="-18" rx="36.2938" ry="18"/>
<text text-anchor="middle" x="1267.6518" y="-14.3" font-family="Times,serif" font-size="14.00" fill="#000000">study</text>
</g>
<!-- study_arm&#45;&gt;study -->
<g id="edge9" class="edge">
<title>study_arm&#45;&gt;study</title>
<path fill="none" stroke="#000000" d="M720.753,-87.5336C732.7211,-75.8118 750.1248,-61.2377 768.6518,-54 810.0851,-37.8138 1104.7381,-24.4801 1220.8195,-19.7984"/>
<polygon fill="#000000" stroke="#000000" points="1221.3037,-23.282 1231.156,-19.3854 1221.0242,-16.2875 1221.3037,-23.282"/>
<text text-anchor="middle" x="817.1518" y="-57.8" font-family="Times,serif" font-size="14.00" fill="#000000">of_study_arm</text>
</g>
<!-- molecular_test -->
<g id="node3" class="node">
<title>molecular_test</title>
<ellipse fill="none" stroke="#000000" cx="2544.6518" cy="-192" rx="79.8859" ry="18"/>
<text text-anchor="middle" x="2544.6518" y="-188.3" font-family="Times,serif" font-size="14.00" fill="#000000">molecular_test</text>
</g>
<!-- participant -->
<g id="node23" class="node">
<title>participant</title>
<ellipse fill="none" stroke="#000000" cx="2040.6518" cy="-105" rx="62.2891" ry="18"/>
<text text-anchor="middle" x="2040.6518" y="-101.3" font-family="Times,serif" font-size="14.00" fill="#000000">participant</text>
</g>
<!-- molecular_test&#45;&gt;participant -->
<g id="edge30" class="edge">
<title>molecular_test&#45;&gt;participant</title>
<path fill="none" stroke="#000000" d="M2504.6275,-176.407C2473.2741,-164.8291 2428.3053,-149.6111 2387.6518,-141 2293.9044,-121.1427 2183.491,-112.0795 2112.8214,-108.0531"/>
<polygon fill="#000000" stroke="#000000" points="2112.8673,-104.5504 2102.6899,-107.4949 2112.4822,-111.5398 2112.8673,-104.5504"/>
<text text-anchor="middle" x="2503.6518" y="-144.8" font-family="Times,serif" font-size="14.00" fill="#000000">of_molecular_test</text>
</g>
<!-- study_funding -->
<g id="node4" class="node">
<title>study_funding</title>
<ellipse fill="none" stroke="#000000" cx="859.6518" cy="-105" rx="77.1866" ry="18"/>
<text text-anchor="middle" x="859.6518" y="-101.3" font-family="Times,serif" font-size="14.00" fill="#000000">study_funding</text>
</g>
<!-- study_funding&#45;&gt;study -->
<g id="edge1" class="edge">
<title>study_funding&#45;&gt;study</title>
<path fill="none" stroke="#000000" d="M862.6279,-86.9684C865.4959,-75.6196 871.0417,-61.7078 881.6518,-54 908.5777,-34.4393 1124.3208,-23.6145 1221.0364,-19.7033"/>
<polygon fill="#000000" stroke="#000000" points="1221.2662,-23.197 1231.1196,-19.3032 1220.9886,-16.2025 1221.2662,-23.197"/>
<text text-anchor="middle" x="943.6518" y="-57.8" font-family="Times,serif" font-size="14.00" fill="#000000">of_study_funding</text>
</g>
<!-- single_cell_sequencing_file -->
<g id="node5" class="node">
<title>single_cell_sequencing_file</title>
<ellipse fill="none" stroke="#000000" cx="594.6518" cy="-366" rx="137.5759" ry="18"/>
<text text-anchor="middle" x="594.6518" y="-362.3" font-family="Times,serif" font-size="14.00" fill="#000000">single_cell_sequencing_file</text>
</g>
<!-- single_cell_sequencing_file&#45;&gt;sample -->
<g id="edge22" class="edge">
<title>single_cell_sequencing_file&#45;&gt;sample</title>
<path fill="none" stroke="#000000" d="M714.015,-356.9478C784.7531,-350.8821 876.0429,-341.8334 956.6518,-330 991.1476,-324.936 999.0537,-319.3104 1033.6518,-315 1176.7674,-297.1698 1215.7138,-322.5659 1357.6518,-297 1362.4573,-296.1344 1367.4223,-294.9929 1372.3318,-293.7037"/>
<polygon fill="#000000" stroke="#000000" points="1373.5948,-296.9837 1382.2624,-290.8909 1371.6871,-290.2487 1373.5948,-296.9837"/>
<text text-anchor="middle" x="1142.1518" y="-318.8" font-family="Times,serif" font-size="14.00" fill="#000000">of_single_cell_sequencing_file</text>
</g>
<!-- single_cell_sequencing_file&#45;&gt;cell_line -->
<g id="edge23" class="edge">
<title>single_cell_sequencing_file&#45;&gt;cell_line</title>
<path fill="none" stroke="#000000" d="M582.4865,-347.8433C568.5798,-324.6195 550.4307,-284.5896 572.6518,-261 595.6248,-236.6121 840.4058,-247.1516 873.6518,-243 949.1001,-233.5783 1035.3372,-215.815 1088.8984,-203.9418"/>
<polygon fill="#000000" stroke="#000000" points="1089.8384,-207.3182 1098.8355,-201.7234 1088.3132,-200.4864 1089.8384,-207.3182"/>
<text text-anchor="middle" x="681.1518" y="-275.3" font-family="Times,serif" font-size="14.00" fill="#000000">of_single_cell_sequencing_file</text>
</g>
<!-- single_cell_sequencing_file&#45;&gt;pdx -->
<g id="edge24" class="edge">
<title>single_cell_sequencing_file&#45;&gt;pdx</title>
<path fill="none" stroke="#000000" d="M494.0826,-353.67C366.8353,-337.5852 162.7581,-309.9701 151.6518,-297 141.245,-284.8468 140.8198,-272.7757 151.6518,-261 205.5129,-202.4461 783.3387,-193.5632 938.4922,-192.2317"/>
<polygon fill="#000000" stroke="#000000" points="938.5346,-195.7316 948.5061,-192.1514 938.4783,-188.7318 938.5346,-195.7316"/>
<text text-anchor="middle" x="260.1518" y="-275.3" font-family="Times,serif" font-size="14.00" fill="#000000">of_single_cell_sequencing_file</text>
</g>
<!-- cytogenomic_file -->
<g id="node6" class="node">
<title>cytogenomic_file</title>
<ellipse fill="none" stroke="#000000" cx="1210.6518" cy="-366" rx="89.8845" ry="18"/>
<text text-anchor="middle" x="1210.6518" y="-362.3" font-family="Times,serif" font-size="14.00" fill="#000000">cytogenomic_file</text>
</g>
<!-- cytogenomic_file&#45;&gt;sample -->
<g id="edge27" class="edge">
<title>cytogenomic_file&#45;&gt;sample</title>
<path fill="none" stroke="#000000" d="M1229.4171,-348.1752C1242.1091,-337.0608 1259.7629,-323.3338 1277.6518,-315 1310.6872,-299.6099 1322.4427,-306.4085 1357.6518,-297 1362.0094,-295.8356 1366.5304,-294.5576 1371.0384,-293.2366"/>
<polygon fill="#000000" stroke="#000000" points="1372.2451,-296.5288 1380.818,-290.3034 1370.2341,-289.8239 1372.2451,-296.5288"/>
<text text-anchor="middle" x="1349.1518" y="-318.8" font-family="Times,serif" font-size="14.00" fill="#000000">of_cytogenomic_file</text>
</g>
<!-- cytogenomic_file&#45;&gt;cell_line -->
<g id="edge26" class="edge">
<title>cytogenomic_file&#45;&gt;cell_line</title>
<path fill="none" stroke="#000000" d="M1205.9625,-347.9943C1203.3482,-338.2001 1199.9601,-325.8941 1196.6518,-315 1189.3007,-290.7934 1188.7956,-284.1755 1178.6518,-261 1172.2977,-246.483 1163.9104,-230.9711 1156.6323,-218.3393"/>
<polygon fill="#000000" stroke="#000000" points="1159.6489,-216.5644 1151.5736,-209.7057 1153.6093,-220.1032 1159.6489,-216.5644"/>
<text text-anchor="middle" x="1263.1518" y="-275.3" font-family="Times,serif" font-size="14.00" fill="#000000">of_cytogenomic_file</text>
</g>
<!-- cytogenomic_file&#45;&gt;pdx -->
<g id="edge25" class="edge">
<title>cytogenomic_file&#45;&gt;pdx</title>
<path fill="none" stroke="#000000" d="M1120.9777,-364.3565C1007.6257,-361.3325 824.6373,-352.9236 803.6518,-330 792.8148,-318.1622 777.8234,-275.7223 826.6518,-228 842.4313,-212.5779 900.0413,-202.0943 939.0957,-196.5811"/>
<polygon fill="#000000" stroke="#000000" points="939.6416,-200.0392 949.078,-195.2222 938.6973,-193.1031 939.6416,-200.0392"/>
<text text-anchor="middle" x="873.1518" y="-275.3" font-family="Times,serif" font-size="14.00" fill="#000000">of_cytogenomic_file</text>
</g>
<!-- publication -->
<g id="node7" class="node">
<title>publication</title>
<ellipse fill="none" stroke="#000000" cx="1017.6518" cy="-105" rx="63.0888" ry="18"/>
<text text-anchor="middle" x="1017.6518" y="-101.3" font-family="Times,serif" font-size="14.00" fill="#000000">publication</text>
</g>
<!-- publication&#45;&gt;study -->
<g id="edge8" class="edge">
<title>publication&#45;&gt;study</title>
<path fill="none" stroke="#000000" d="M1010.8211,-86.9188C1008.0158,-76.1255 1006.9784,-62.8425 1014.6518,-54 1027.9796,-38.6415 1151.9795,-26.8173 1221.2967,-21.3424"/>
<polygon fill="#000000" stroke="#000000" points="1221.8177,-24.8126 1231.5171,-20.5498 1221.2764,-17.8335 1221.8177,-24.8126"/>
<text text-anchor="middle" x="1065.6518" y="-57.8" font-family="Times,serif" font-size="14.00" fill="#000000">of_publication</text>
</g>
<!-- diagnosis -->
<g id="node8" class="node">
<title>diagnosis</title>
<ellipse fill="none" stroke="#000000" cx="2735.6518" cy="-192" rx="54.6905" ry="18"/>
<text text-anchor="middle" x="2735.6518" y="-188.3" font-family="Times,serif" font-size="14.00" fill="#000000">diagnosis</text>
</g>
<!-- diagnosis&#45;&gt;participant -->
<g id="edge29" class="edge">
<title>diagnosis&#45;&gt;participant</title>
<path fill="none" stroke="#000000" d="M2718.3472,-174.6954C2705.3295,-162.8884 2686.4037,-148.1424 2666.6518,-141 2615.8333,-122.6238 2267.2402,-111.0961 2113.3743,-106.8483"/>
<polygon fill="#000000" stroke="#000000" points="2113.1745,-103.3416 2103.0825,-106.5671 2112.9832,-110.339 2113.1745,-103.3416"/>
<text text-anchor="middle" x="2737.1518" y="-144.8" font-family="Times,serif" font-size="14.00" fill="#000000">of_diagnosis</text>
</g>
<!-- sample&#45;&gt;cell_line -->
<g id="edge5" class="edge">
<title>sample&#45;&gt;cell_line</title>
<path fill="none" stroke="#000000" d="M1451.9734,-268.5966C1477.8945,-259.4366 1505.5752,-244.9388 1489.6518,-228 1467.4633,-204.3967 1230.5157,-215.8427 1198.6518,-210 1194.5101,-209.2406 1190.2491,-208.28 1186.0068,-207.1996"/>
<polygon fill="#000000" stroke="#000000" points="1186.7775,-203.7815 1176.207,-204.4992 1184.9178,-210.53 1186.7775,-203.7815"/>
<text text-anchor="middle" x="1531.1518" y="-231.8" font-family="Times,serif" font-size="14.00" fill="#000000">of_sample</text>
</g>
<!-- sample&#45;&gt;pdx -->
<g id="edge7" class="edge">
<title>sample&#45;&gt;pdx</title>
<path fill="none" stroke="#000000" d="M1379.6473,-268.2866C1360.2382,-261.9579 1336.1361,-253.1931 1315.6518,-243 1304.7257,-237.5631 1304.1905,-231.9743 1292.6518,-228 1204.0826,-197.4942 1175.5746,-221.8515 1082.6518,-210 1059.6309,-207.0639 1033.9691,-202.7341 1013.6613,-199.0569"/>
<polygon fill="#000000" stroke="#000000" points="1014.0397,-195.568 1003.572,-197.2043 1012.7754,-202.4529 1014.0397,-195.568"/>
<text text-anchor="middle" x="1352.1518" y="-231.8" font-family="Times,serif" font-size="14.00" fill="#000000">of_sample</text>
</g>
<!-- sample&#45;&gt;participant -->
<g id="edge6" class="edge">
<title>sample&#45;&gt;participant</title>
<path fill="none" stroke="#000000" d="M1449.0441,-267.1259C1457.0153,-264.7143 1465.5604,-262.4693 1473.6518,-261 1569.2536,-243.6393 2272.114,-272.3316 2346.6518,-210 2370.5908,-189.9812 2380.4439,-164.2705 2359.6518,-141 2343.4721,-122.8917 2201.4723,-112.7542 2112.4665,-108.1273"/>
<polygon fill="#000000" stroke="#000000" points="2112.5869,-104.629 2102.4221,-107.6168 2112.2315,-111.62 2112.5869,-104.629"/>
<text text-anchor="middle" x="2406.1518" y="-188.3" font-family="Times,serif" font-size="14.00" fill="#000000">of_sample</text>
</g>
<!-- cell_line&#45;&gt;sample -->
<g id="edge2" class="edge">
<title>cell_line&#45;&gt;sample</title>
<path fill="none" stroke="#000000" d="M1176.5517,-204.4113C1183.7981,-206.5555 1191.4142,-208.5558 1198.6518,-210 1240.894,-218.4292 1356.3942,-203.2541 1391.6518,-228 1399.5663,-233.5549 1404.9467,-242.4198 1408.5701,-251.2119"/>
<polygon fill="#000000" stroke="#000000" points="1405.3598,-252.6361 1411.9558,-260.9272 1411.9699,-250.3324 1405.3598,-252.6361"/>
<text text-anchor="middle" x="1445.1518" y="-231.8" font-family="Times,serif" font-size="14.00" fill="#000000">of_cell_line</text>
</g>
<!-- cell_line&#45;&gt;study -->
<g id="edge4" class="edge">
<title>cell_line&#45;&gt;study</title>
<path fill="none" stroke="#000000" d="M1153.5281,-174.3584C1176.0841,-143.4549 1222.823,-79.419 1248.9475,-43.6264"/>
<polygon fill="#000000" stroke="#000000" points="1252.0494,-45.3132 1255.1179,-35.1725 1246.3952,-41.1863 1252.0494,-45.3132"/>
<text text-anchor="middle" x="1258.1518" y="-101.3" font-family="Times,serif" font-size="14.00" fill="#000000">of_cell_line</text>
</g>
<!-- cell_line&#45;&gt;participant -->
<g id="edge3" class="edge">
<title>cell_line&#45;&gt;participant</title>
<path fill="none" stroke="#000000" d="M1173.2358,-178.4168C1204.1455,-166.224 1252.1972,-149.0457 1295.6518,-141 1360.5297,-128.9877 1794.3266,-113.2837 1968.4878,-107.3805"/>
<polygon fill="#000000" stroke="#000000" points="1968.7057,-110.8752 1978.5818,-107.0394 1968.4693,-103.8792 1968.7057,-110.8752"/>
<text text-anchor="middle" x="1336.1518" y="-144.8" font-family="Times,serif" font-size="14.00" fill="#000000">of_cell_line</text>
</g>
<!-- radiology_file -->
<g id="node11" class="node">
<title>radiology_file</title>
<ellipse fill="none" stroke="#000000" cx="2881.6518" cy="-192" rx="73.387" ry="18"/>
<text text-anchor="middle" x="2881.6518" y="-188.3" font-family="Times,serif" font-size="14.00" fill="#000000">radiology_file</text>
</g>
<!-- radiology_file&#45;&gt;participant -->
<g id="edge34" class="edge">
<title>radiology_file&#45;&gt;participant</title>
<path fill="none" stroke="#000000" d="M2856.868,-174.8934C2838.2028,-163.019 2811.492,-148.1045 2785.6518,-141 2722.0319,-123.5084 2287.4899,-111.0499 2112.9726,-106.6974"/>
<polygon fill="#000000" stroke="#000000" points="2112.9414,-103.1957 2102.8578,-106.447 2112.7681,-110.1935 2112.9414,-103.1957"/>
<text text-anchor="middle" x="2879.6518" y="-144.8" font-family="Times,serif" font-size="14.00" fill="#000000">of_radiology_file</text>
</g>
<!-- therapeutic_procedure -->
<g id="node12" class="node">
<title>therapeutic_procedure</title>
<ellipse fill="none" stroke="#000000" cx="1560.6518" cy="-192" rx="117.7793" ry="18"/>
<text text-anchor="middle" x="1560.6518" y="-188.3" font-family="Times,serif" font-size="14.00" fill="#000000">therapeutic_procedure</text>
</g>
<!-- therapeutic_procedure&#45;&gt;participant -->
<g id="edge42" class="edge">
<title>therapeutic_procedure&#45;&gt;participant</title>
<path fill="none" stroke="#000000" d="M1574.4589,-174.1118C1584.5165,-162.516 1599.2147,-148.2634 1615.6518,-141 1647.0552,-127.123 1856.0122,-114.4585 1968.7824,-108.5328"/>
<polygon fill="#000000" stroke="#000000" points="1969.2501,-112.0133 1979.0544,-107.9977 1968.8858,-105.0228 1969.2501,-112.0133"/>
<text text-anchor="middle" x="1708.6518" y="-144.8" font-family="Times,serif" font-size="14.00" fill="#000000">of_therapeutic_procedure</text>
</g>
<!-- clinical_measure_file -->
<g id="node13" class="node">
<title>clinical_measure_file</title>
<ellipse fill="none" stroke="#000000" cx="1316.6518" cy="-192" rx="108.5808" ry="18"/>
<text text-anchor="middle" x="1316.6518" y="-188.3" font-family="Times,serif" font-size="14.00" fill="#000000">clinical_measure_file</text>
</g>
<!-- clinical_measure_file&#45;&gt;study -->
<g id="edge36" class="edge">
<title>clinical_measure_file&#45;&gt;study</title>
<path fill="none" stroke="#000000" d="M1319.4099,-173.9002C1320.3951,-164.0784 1320.7973,-151.7761 1318.6518,-141 1311.7179,-106.1736 1294.7429,-68.8561 1282.2734,-44.5759"/>
<polygon fill="#000000" stroke="#000000" points="1285.326,-42.8607 1277.5799,-35.6324 1279.1277,-46.1135 1285.326,-42.8607"/>
<text text-anchor="middle" x="1400.6518" y="-101.3" font-family="Times,serif" font-size="14.00" fill="#000000">of_clinical_measure_file</text>
</g>
<!-- clinical_measure_file&#45;&gt;participant -->
<g id="edge35" class="edge">
<title>clinical_measure_file&#45;&gt;participant</title>
<path fill="none" stroke="#000000" d="M1343.7125,-174.4738C1363.3777,-162.7238 1391.0942,-148.1406 1417.6518,-141 1469.588,-127.0358 1815.7601,-113.0759 1968.4834,-107.5146"/>
<polygon fill="#000000" stroke="#000000" points="1968.8317,-111.0044 1978.6984,-107.1447 1968.5783,-104.009 1968.8317,-111.0044"/>
<text text-anchor="middle" x="1503.6518" y="-144.8" font-family="Times,serif" font-size="14.00" fill="#000000">of_clinical_measure_file</text>
</g>
<!-- sequencing_file -->
<g id="node14" class="node">
<title>sequencing_file</title>
<ellipse fill="none" stroke="#000000" cx="355.6518" cy="-366" rx="83.3857" ry="18"/>
<text text-anchor="middle" x="355.6518" y="-362.3" font-family="Times,serif" font-size="14.00" fill="#000000">sequencing_file</text>
</g>
<!-- sequencing_file&#45;&gt;sample -->
<g id="edge11" class="edge">
<title>sequencing_file&#45;&gt;sample</title>
<path fill="none" stroke="#000000" d="M415.3791,-353.372C426.0915,-351.3764 437.1777,-349.485 447.6518,-348 611.9908,-324.6994 653.9775,-325.1123 819.6518,-315 939.052,-307.7122 1239.6972,-316.9058 1357.6518,-297 1362.4665,-296.1875 1367.4374,-295.0798 1372.3504,-293.8104"/>
<polygon fill="#000000" stroke="#000000" points="1373.6038,-297.0939 1382.285,-291.0204 1371.7111,-290.3546 1373.6038,-297.0939"/>
<text text-anchor="middle" x="886.1518" y="-318.8" font-family="Times,serif" font-size="14.00" fill="#000000">of_sequencing_file</text>
</g>
<!-- sequencing_file&#45;&gt;cell_line -->
<g id="edge10" class="edge">
<title>sequencing_file&#45;&gt;cell_line</title>
<path fill="none" stroke="#000000" d="M362.0033,-347.8189C371.5953,-323.3897 392.2851,-280.7594 425.6518,-261 538.5052,-194.1695 883.3408,-224.8748 1013.6518,-210 1037.1556,-207.3171 1063.0216,-203.7613 1085.2422,-200.519"/>
<polygon fill="#000000" stroke="#000000" points="1085.7906,-203.9761 1095.1736,-199.0557 1084.7701,-197.0509 1085.7906,-203.9761"/>
<text text-anchor="middle" x="492.1518" y="-275.3" font-family="Times,serif" font-size="14.00" fill="#000000">of_sequencing_file</text>
</g>
<!-- sequencing_file&#45;&gt;pdx -->
<g id="edge12" class="edge">
<title>sequencing_file&#45;&gt;pdx</title>
<path fill="none" stroke="#000000" d="M274.6544,-361.5076C182.5981,-354.5105 40.7794,-337.3409 7.6518,-297 -2.5023,-284.6349 -2.5851,-273.2966 7.6518,-261 59.4095,-198.8282 106.28,-237.1961 186.6518,-228 335.048,-211.0205 801.8702,-196.8981 938.6421,-193.0418"/>
<polygon fill="#000000" stroke="#000000" points="938.7501,-196.5402 948.6482,-192.7614 938.554,-189.543 938.7501,-196.5402"/>
<text text-anchor="middle" x="74.1518" y="-275.3" font-family="Times,serif" font-size="14.00" fill="#000000">of_sequencing_file</text>
</g>
<!-- follow_up -->
<g id="node15" class="node">
<title>follow_up</title>
<ellipse fill="none" stroke="#000000" cx="1751.6518" cy="-192" rx="55.4913" ry="18"/>
<text text-anchor="middle" x="1751.6518" y="-188.3" font-family="Times,serif" font-size="14.00" fill="#000000">follow_up</text>
</g>
<!-- follow_up&#45;&gt;participant -->
<g id="edge20" class="edge">
<title>follow_up&#45;&gt;participant</title>
<path fill="none" stroke="#000000" d="M1773.3945,-175.2265C1789.2532,-163.8312 1811.7212,-149.3625 1833.6518,-141 1877.169,-124.4061 1928.7692,-115.4096 1969.5647,-110.5598"/>
<polygon fill="#000000" stroke="#000000" points="1970.1491,-114.0161 1979.6922,-109.4141 1969.3621,-107.0605 1970.1491,-114.0161"/>
<text text-anchor="middle" x="1878.6518" y="-144.8" font-family="Times,serif" font-size="14.00" fill="#000000">of_follow_up</text>
</g>
<!-- exposure -->
<g id="node16" class="node">
<title>exposure</title>
<ellipse fill="none" stroke="#000000" cx="1878.6518" cy="-192" rx="53.0913" ry="18"/>
<text text-anchor="middle" x="1878.6518" y="-188.3" font-family="Times,serif" font-size="14.00" fill="#000000">exposure</text>
</g>
<!-- exposure&#45;&gt;participant -->
<g id="edge28" class="edge">
<title>exposure&#45;&gt;participant</title>
<path fill="none" stroke="#000000" d="M1899.1905,-175.1708C1912.9083,-164.4651 1931.6694,-150.8194 1949.6518,-141 1962.3709,-134.0546 1976.7168,-127.7409 1990.1932,-122.409"/>
<polygon fill="#000000" stroke="#000000" points="1991.7414,-125.5635 1999.8168,-118.7051 1989.227,-119.0307 1991.7414,-125.5635"/>
<text text-anchor="middle" x="1993.1518" y="-144.8" font-family="Times,serif" font-size="14.00" fill="#000000">of_exposure</text>
</g>
<!-- synonym -->
<g id="node17" class="node">
<title>synonym</title>
<ellipse fill="none" stroke="#000000" cx="2652.6518" cy="-366" rx="51.9908" ry="18"/>
<text text-anchor="middle" x="2652.6518" y="-362.3" font-family="Times,serif" font-size="14.00" fill="#000000">synonym</text>
</g>
<!-- synonym&#45;&gt;sample -->
<g id="edge38" class="edge">
<title>synonym&#45;&gt;sample</title>
<path fill="none" stroke="#000000" d="M2601.0396,-362.9195C2467.0192,-354.9279 2096.9187,-332.9058 1788.6518,-315 1648.6594,-306.8685 1611.6396,-321.9671 1473.6518,-297 1468.847,-296.1306 1463.8824,-294.9867 1458.9731,-293.696"/>
<polygon fill="#000000" stroke="#000000" points="1459.6182,-290.2411 1449.0428,-290.8816 1457.7094,-296.9758 1459.6182,-290.2411"/>
<text text-anchor="middle" x="2069.1518" y="-318.8" font-family="Times,serif" font-size="14.00" fill="#000000">of_synonym</text>
</g>
<!-- synonym&#45;&gt;study -->
<g id="edge37" class="edge">
<title>synonym&#45;&gt;study</title>
<path fill="none" stroke="#000000" d="M2704.3546,-363.3861C2799.0385,-357.1768 2990.6518,-337.3968 2990.6518,-279 2990.6518,-279 2990.6518,-279 2990.6518,-105 2990.6518,-61.7754 1588.8863,-25.7461 1314.0733,-19.098"/>
<polygon fill="#000000" stroke="#000000" points="1314.1181,-15.5981 1304.0366,-18.8562 1313.9494,-22.5961 1314.1181,-15.5981"/>
<text text-anchor="middle" x="3033.1518" y="-188.3" font-family="Times,serif" font-size="14.00" fill="#000000">of_synonym</text>
</g>
<!-- synonym&#45;&gt;participant -->
<g id="edge39" class="edge">
<title>synonym&#45;&gt;participant</title>
<path fill="none" stroke="#000000" d="M2656.0758,-348.0146C2661.9569,-311.6899 2670.0936,-228.4084 2633.6518,-174 2616.2805,-148.0643 2601.6655,-149.5788 2571.6518,-141 2487.7241,-117.011 2238.4425,-108.8224 2113.5987,-106.1784"/>
<polygon fill="#000000" stroke="#000000" points="2113.441,-102.6745 2103.3712,-105.9683 2113.2971,-109.673 2113.441,-102.6745"/>
<text text-anchor="middle" x="2700.1518" y="-231.8" font-family="Times,serif" font-size="14.00" fill="#000000">of_synonym</text>
</g>
<!-- family_relationship -->
<g id="node19" class="node">
<title>family_relationship</title>
<ellipse fill="none" stroke="#000000" cx="2049.6518" cy="-192" rx="100.1823" ry="18"/>
<text text-anchor="middle" x="2049.6518" y="-188.3" font-family="Times,serif" font-size="14.00" fill="#000000">family_relationship</text>
</g>
<!-- family_relationship&#45;&gt;participant -->
<g id="edge18" class="edge">
<title>family_relationship&#45;&gt;participant</title>
<path fill="none" stroke="#000000" d="M2044.8707,-173.8072C2043.582,-168.1428 2042.3519,-161.8485 2041.6518,-156 2040.789,-148.7924 2040.3762,-140.9718 2040.2137,-133.6697"/>
<polygon fill="#000000" stroke="#000000" points="2043.7121,-133.4454 2040.1314,-123.474 2036.7123,-133.502 2043.7121,-133.4454"/>
<text text-anchor="middle" x="2121.1518" y="-144.8" font-family="Times,serif" font-size="14.00" fill="#000000">of_family_relationship</text>
</g>
<!-- methylation_array_file -->
<g id="node20" class="node">
<title>methylation_array_file</title>
<ellipse fill="none" stroke="#000000" cx="1434.6518" cy="-366" rx="115.8798" ry="18"/>
<text text-anchor="middle" x="1434.6518" y="-362.3" font-family="Times,serif" font-size="14.00" fill="#000000">methylation_array_file</text>
</g>
<!-- methylation_array_file&#45;&gt;sample -->
<g id="edge17" class="edge">
<title>methylation_array_file&#45;&gt;sample</title>
<path fill="none" stroke="#000000" d="M1430.715,-347.9735C1428.1419,-336.1918 1424.7282,-320.5607 1421.8012,-307.1581"/>
<polygon fill="#000000" stroke="#000000" points="1425.1366,-306.0263 1419.5835,-297.0034 1418.2978,-307.5199 1425.1366,-306.0263"/>
<text text-anchor="middle" x="1518.1518" y="-318.8" font-family="Times,serif" font-size="14.00" fill="#000000">of_methylation_array_file</text>
</g>
<!-- methylation_array_file&#45;&gt;cell_line -->
<g id="edge16" class="edge">
<title>methylation_array_file&#45;&gt;cell_line</title>
<path fill="none" stroke="#000000" d="M1531.1284,-355.9418C1566.5833,-350.3528 1601.1408,-342.0279 1613.6518,-330 1635.9071,-308.604 1636.282,-288.1854 1621.6518,-261 1609.0338,-237.5538 1596.961,-236.2693 1571.6518,-228 1492.7701,-202.2269 1280.3759,-224.4133 1198.6518,-210 1194.5051,-209.2687 1190.2406,-208.3274 1185.996,-207.2596"/>
<polygon fill="#000000" stroke="#000000" points="1186.7621,-203.8406 1176.1929,-204.5774 1184.9147,-210.5925 1186.7621,-203.8406"/>
<text text-anchor="middle" x="1724.1518" y="-275.3" font-family="Times,serif" font-size="14.00" fill="#000000">of_methylation_array_file</text>
</g>
<!-- methylation_array_file&#45;&gt;pdx -->
<g id="edge15" class="edge">
<title>methylation_array_file&#45;&gt;pdx</title>
<path fill="none" stroke="#000000" d="M1347.188,-354.1191C1316.1895,-348.546 1281.3895,-340.71 1250.6518,-330 1236.9488,-325.2254 1235.6067,-318.9784 1221.6518,-315 1172.3488,-300.9442 1029.041,-332.0769 991.6518,-297 971.1797,-277.794 969.77,-244.2294 971.9795,-220.2169"/>
<polygon fill="#000000" stroke="#000000" points="975.4583,-220.6015 973.1481,-210.2616 968.506,-219.7853 975.4583,-220.6015"/>
<text text-anchor="middle" x="1083.1518" y="-275.3" font-family="Times,serif" font-size="14.00" fill="#000000">of_methylation_array_file</text>
</g>
<!-- medical_history -->
<g id="node21" class="node">
<title>medical_history</title>
<ellipse fill="none" stroke="#000000" cx="2252.6518" cy="-192" rx="85.2851" ry="18"/>
<text text-anchor="middle" x="2252.6518" y="-188.3" font-family="Times,serif" font-size="14.00" fill="#000000">medical_history</text>
</g>
<!-- medical_history&#45;&gt;participant -->
<g id="edge13" class="edge">
<title>medical_history&#45;&gt;participant</title>
<path fill="none" stroke="#000000" d="M2238.6183,-173.8113C2229.0837,-162.6949 2215.534,-149.1013 2200.6518,-141 2173.1371,-126.0221 2139.718,-117.269 2110.5525,-112.1567"/>
<polygon fill="#000000" stroke="#000000" points="2110.8651,-108.6613 2100.4303,-110.496 2109.7317,-115.5689 2110.8651,-108.6613"/>
<text text-anchor="middle" x="2288.6518" y="-144.8" font-family="Times,serif" font-size="14.00" fill="#000000">of_medical_history</text>
</g>
<!-- pdx&#45;&gt;sample -->
<g id="edge40" class="edge">
<title>pdx&#45;&gt;sample</title>
<path fill="none" stroke="#000000" d="M1003.5728,-197.5531C1051.2544,-207.3098 1153.7231,-227.9223 1240.6518,-243 1292.4896,-251.9912 1306.3871,-249.1705 1357.6518,-261 1362.2876,-262.0697 1367.0912,-263.3216 1371.8594,-264.6582"/>
<polygon fill="#000000" stroke="#000000" points="1370.9515,-268.0392 1381.5321,-267.4895 1372.918,-261.3211 1370.9515,-268.0392"/>
<text text-anchor="middle" x="1264.6518" y="-231.8" font-family="Times,serif" font-size="14.00" fill="#000000">of_pdx</text>
</g>
<!-- pdx&#45;&gt;study -->
<g id="edge41" class="edge">
<title>pdx&#45;&gt;study</title>
<path fill="none" stroke="#000000" d="M997.7761,-179.7498C1020.7036,-166.3045 1058.246,-143.8513 1089.6518,-123 1112.4645,-107.8539 1116.44,-101.5272 1139.6518,-87 1170.1464,-67.9147 1206.3526,-48.6971 1232.463,-35.4081"/>
<polygon fill="#000000" stroke="#000000" points="1234.2507,-38.4263 1241.5966,-30.7916 1231.093,-32.179 1234.2507,-38.4263"/>
<text text-anchor="middle" x="1163.6518" y="-101.3" font-family="Times,serif" font-size="14.00" fill="#000000">of_pdx</text>
</g>
<!-- participant&#45;&gt;study -->
<g id="edge14" class="edge">
<title>participant&#45;&gt;study</title>
<path fill="none" stroke="#000000" d="M1982.2343,-98.4252C1834.2972,-81.7751 1447.1736,-38.2049 1313.6861,-23.1811"/>
<polygon fill="#000000" stroke="#000000" points="1313.7376,-19.6649 1303.4089,-22.0244 1312.9546,-26.621 1313.7376,-19.6649"/>
<text text-anchor="middle" x="1751.1518" y="-57.8" font-family="Times,serif" font-size="14.00" fill="#000000">of_participant</text>
</g>
<!-- study_admin -->
<g id="node24" class="node">
<title>study_admin</title>
<ellipse fill="none" stroke="#000000" cx="3088.6518" cy="-105" rx="70.3881" ry="18"/>
<text text-anchor="middle" x="3088.6518" y="-101.3" font-family="Times,serif" font-size="14.00" fill="#000000">study_admin</text>
</g>
<!-- study_admin&#45;&gt;study -->
<g id="edge19" class="edge">
<title>study_admin&#45;&gt;study</title>
<path fill="none" stroke="#000000" d="M3067.3533,-87.694C3051.2139,-75.7205 3027.9131,-60.7693 3004.6518,-54 2921.3246,-29.751 1583.6174,-20.0045 1314.5717,-18.2848"/>
<polygon fill="#000000" stroke="#000000" points="1314.3883,-14.7837 1304.3663,-18.2202 1314.3439,-21.7836 1314.3883,-14.7837"/>
<text text-anchor="middle" x="3092.1518" y="-57.8" font-family="Times,serif" font-size="14.00" fill="#000000">of_study_admin</text>
</g>
<!-- study_personnel -->
<g id="node25" class="node">
<title>study_personnel</title>
<ellipse fill="none" stroke="#000000" cx="3263.6518" cy="-105" rx="87.1846" ry="18"/>
<text text-anchor="middle" x="3263.6518" y="-101.3" font-family="Times,serif" font-size="14.00" fill="#000000">study_personnel</text>
</g>
<!-- study_personnel&#45;&gt;study -->
<g id="edge21" class="edge">
<title>study_personnel&#45;&gt;study</title>
<path fill="none" stroke="#000000" d="M3235.1432,-87.915C3213.3855,-75.8838 3182.2149,-60.763 3152.6518,-54 3060.409,-32.8982 1596.3505,-20.5419 1314.4202,-18.352"/>
<polygon fill="#000000" stroke="#000000" points="1314.1631,-14.85 1304.1363,-18.2726 1314.109,-21.8498 1314.1631,-14.85"/>
<text text-anchor="middle" x="3263.1518" y="-57.8" font-family="Times,serif" font-size="14.00" fill="#000000">of_study_personnel</text>
</g>
</g>
</svg>
