<svg width="3420pt" height="305pt"
 viewBox="0.00 0.00 3419.74 305.00" xmlns="http://www.w3.org/2000/svg" xmlns:xlink="http://www.w3.org/1999/xlink">
<g id="graph0" class="graph" transform="scale(1 1) rotate(0) translate(4 301)">
<title>Perl</title>
<polygon fill="#ffffff" stroke="transparent" points="-4,4 -4,-301 3415.7388,-301 3415.7388,4 -4,4"/>
<!-- treatment_response -->
<g id="node1" class="node">
<title>treatment_response</title>
<ellipse fill="none" stroke="#000000" cx="2576.3956" cy="-192" rx="104.7816" ry="18"/>
<text text-anchor="middle" x="2576.3956" y="-188.3" font-family="Times,serif" font-size="14.00" fill="#000000">treatment_response</text>
</g>
<!-- participant -->
<g id="node4" class="node">
<title>participant</title>
<ellipse fill="none" stroke="#000000" cx="1905.3956" cy="-105" rx="62.2891" ry="18"/>
<text text-anchor="middle" x="1905.3956" y="-101.3" font-family="Times,serif" font-size="14.00" fill="#000000">participant</text>
</g>
<!-- treatment_response&#45;&gt;participant -->
<g id="edge14" class="edge">
<title>treatment_response&#45;&gt;participant</title>
<path fill="none" stroke="#000000" d="M2542.8797,-174.8665C2518.2479,-163.1423 2483.5985,-148.4251 2451.3956,-141 2363.4082,-120.7126 2105.0148,-110.7039 1977.8165,-106.8954"/>
<polygon fill="#000000" stroke="#000000" points="1977.8759,-103.3957 1967.7771,-106.5995 1977.6696,-110.3927 1977.8759,-103.3957"/>
<text text-anchor="middle" x="2579.3956" y="-144.8" font-family="Times,serif" font-size="14.00" fill="#000000">of_treatment_response</text>
</g>
<!-- clinical_measure_file -->
<g id="node2" class="node">
<title>clinical_measure_file</title>
<ellipse fill="none" stroke="#000000" cx="1222.3956" cy="-192" rx="108.5808" ry="18"/>
<text text-anchor="middle" x="1222.3956" y="-188.3" font-family="Times,serif" font-size="14.00" fill="#000000">clinical_measure_file</text>
</g>
<!-- clinical_measure_file&#45;&gt;participant -->
<g id="edge16" class="edge">
<title>clinical_measure_file&#45;&gt;participant</title>
<path fill="none" stroke="#000000" d="M1239.3393,-174.1996C1251.7065,-162.4838 1269.5442,-148.0545 1288.3956,-141 1338.1895,-122.3663 1680.7063,-111.0071 1832.8459,-106.8273"/>
<polygon fill="#000000" stroke="#000000" points="1833.1245,-110.3212 1843.0257,-106.5506 1832.9342,-103.3237 1833.1245,-110.3212"/>
<text text-anchor="middle" x="1374.3956" y="-144.8" font-family="Times,serif" font-size="14.00" fill="#000000">of_clinical_measure_file</text>
</g>
<!-- study -->
<g id="node9" class="node">
<title>study</title>
<ellipse fill="none" stroke="#000000" cx="2641.3956" cy="-18" rx="36.2938" ry="18"/>
<text text-anchor="middle" x="2641.3956" y="-14.3" font-family="Times,serif" font-size="14.00" fill="#000000">study</text>
</g>
<!-- clinical_measure_file&#45;&gt;study -->
<g id="edge15" class="edge">
<title>clinical_measure_file&#45;&gt;study</title>
<path fill="none" stroke="#000000" d="M1230.7432,-173.9141C1236.9777,-162.5425 1246.6217,-148.6256 1259.3956,-141 1414.5622,-48.3711 1482.619,-105.3616 1662.3956,-87 2020.4147,-50.4335 2454.0846,-27.2363 2594.8631,-20.239"/>
<polygon fill="#000000" stroke="#000000" points="2595.061,-23.7336 2604.876,-19.7442 2594.7154,-16.7422 2595.061,-23.7336"/>
<text text-anchor="middle" x="1748.3956" y="-101.3" font-family="Times,serif" font-size="14.00" fill="#000000">of_clinical_measure_file</text>
</g>
<!-- methylation_array_file -->
<g id="node3" class="node">
<title>methylation_array_file</title>
<ellipse fill="none" stroke="#000000" cx="235.3956" cy="-279" rx="115.8798" ry="18"/>
<text text-anchor="middle" x="235.3956" y="-275.3" font-family="Times,serif" font-size="14.00" fill="#000000">methylation_array_file</text>
</g>
<!-- sample -->
<g id="node10" class="node">
<title>sample</title>
<ellipse fill="none" stroke="#000000" cx="631.3956" cy="-192" rx="44.393" ry="18"/>
<text text-anchor="middle" x="631.3956" y="-188.3" font-family="Times,serif" font-size="14.00" fill="#000000">sample</text>
</g>
<!-- methylation_array_file&#45;&gt;sample -->
<g id="edge1" class="edge">
<title>methylation_array_file&#45;&gt;sample</title>
<path fill="none" stroke="#000000" d="M245.3644,-260.7415C252.6496,-249.297 263.6436,-235.3636 277.3956,-228 303.215,-214.1748 485.0429,-201.0772 577.5732,-195.2159"/>
<polygon fill="#000000" stroke="#000000" points="577.8287,-198.7069 587.5899,-194.5876 577.3904,-191.7206 577.8287,-198.7069"/>
<text text-anchor="middle" x="368.8956" y="-231.8" font-family="Times,serif" font-size="14.00" fill="#000000">of_methylation_array_file</text>
</g>
<!-- participant&#45;&gt;study -->
<g id="edge3" class="edge">
<title>participant&#45;&gt;study</title>
<path fill="none" stroke="#000000" d="M1963.1483,-98.1733C2104.881,-81.4195 2467.6455,-38.5384 2595.7522,-23.3954"/>
<polygon fill="#000000" stroke="#000000" points="2596.4699,-26.835 2605.9899,-22.1852 2595.6481,-19.8834 2596.4699,-26.835"/>
<text text-anchor="middle" x="2367.8956" y="-57.8" font-family="Times,serif" font-size="14.00" fill="#000000">of_participant</text>
</g>
<!-- cytogenomic_file -->
<g id="node5" class="node">
<title>cytogenomic_file</title>
<ellipse fill="none" stroke="#000000" cx="813.3956" cy="-279" rx="89.8845" ry="18"/>
<text text-anchor="middle" x="813.3956" y="-275.3" font-family="Times,serif" font-size="14.00" fill="#000000">cytogenomic_file</text>
</g>
<!-- cytogenomic_file&#45;&gt;sample -->
<g id="edge4" class="edge">
<title>cytogenomic_file&#45;&gt;sample</title>
<path fill="none" stroke="#000000" d="M786.3133,-261.6405C777.1253,-255.7377 766.8062,-249.0934 757.3956,-243 747.1516,-236.3669 745.3469,-233.3859 734.3956,-228 716.4678,-219.183 695.8295,-211.5205 677.757,-205.5579"/>
<polygon fill="#000000" stroke="#000000" points="678.6057,-202.1543 668.0143,-202.4237 676.4619,-208.818 678.6057,-202.1543"/>
<text text-anchor="middle" x="828.8956" y="-231.8" font-family="Times,serif" font-size="14.00" fill="#000000">of_cytogenomic_file</text>
</g>
<!-- cell_line -->
<g id="node6" class="node">
<title>cell_line</title>
<ellipse fill="none" stroke="#000000" cx="49.3956" cy="-279" rx="49.2915" ry="18"/>
<text text-anchor="middle" x="49.3956" y="-275.3" font-family="Times,serif" font-size="14.00" fill="#000000">cell_line</text>
</g>
<!-- cell_line&#45;&gt;study -->
<g id="edge30" class="edge">
<title>cell_line&#45;&gt;study</title>
<path fill="none" stroke="#000000" d="M39.3939,-261.2415C34.8477,-250.5697 31.9565,-237.301 39.3956,-228 217.5285,-5.2818 383.9591,-133.1325 665.3956,-87 805.6166,-64.0153 841.5813,-62.883 983.3956,-54 1309.3789,-33.581 2359.8852,-21.0782 2594.595,-18.4986"/>
<polygon fill="#000000" stroke="#000000" points="2594.8722,-21.9959 2604.8334,-18.3867 2594.7957,-14.9963 2594.8722,-21.9959"/>
<text text-anchor="middle" x="170.8956" y="-144.8" font-family="Times,serif" font-size="14.00" fill="#000000">of_cell_line</text>
</g>
<!-- cell_line&#45;&gt;sample -->
<g id="edge31" class="edge">
<title>cell_line&#45;&gt;sample</title>
<path fill="none" stroke="#000000" d="M43.7611,-260.6887C41.6406,-249.8088 41.3905,-236.5156 49.3956,-228 67.3007,-208.9532 435.2927,-197.2039 576.7039,-193.3774"/>
<polygon fill="#000000" stroke="#000000" points="576.9828,-196.8713 586.8856,-193.105 576.7956,-189.8738 576.9828,-196.8713"/>
<text text-anchor="middle" x="89.8956" y="-231.8" font-family="Times,serif" font-size="14.00" fill="#000000">of_cell_line</text>
</g>
<!-- study_arm -->
<g id="node7" class="node">
<title>study_arm</title>
<ellipse fill="none" stroke="#000000" cx="2685.3956" cy="-105" rx="59.5901" ry="18"/>
<text text-anchor="middle" x="2685.3956" y="-101.3" font-family="Times,serif" font-size="14.00" fill="#000000">study_arm</text>
</g>
<!-- study_arm&#45;&gt;study -->
<g id="edge18" class="edge">
<title>study_arm&#45;&gt;study</title>
<path fill="none" stroke="#000000" d="M2676.2788,-86.9735C2670.1023,-74.7609 2661.834,-58.4123 2654.8976,-44.697"/>
<polygon fill="#000000" stroke="#000000" points="2657.9867,-43.0498 2650.3502,-35.7057 2651.7401,-46.209 2657.9867,-43.0498"/>
<text text-anchor="middle" x="2713.8956" y="-57.8" font-family="Times,serif" font-size="14.00" fill="#000000">of_study_arm</text>
</g>
<!-- study_personnel -->
<g id="node8" class="node">
<title>study_personnel</title>
<ellipse fill="none" stroke="#000000" cx="2850.3956" cy="-105" rx="87.1846" ry="18"/>
<text text-anchor="middle" x="2850.3956" y="-101.3" font-family="Times,serif" font-size="14.00" fill="#000000">study_personnel</text>
</g>
<!-- study_personnel&#45;&gt;study -->
<g id="edge12" class="edge">
<title>study_personnel&#45;&gt;study</title>
<path fill="none" stroke="#000000" d="M2825.613,-87.5438C2809.368,-76.7195 2787.3346,-63.1763 2766.3956,-54 2740.1261,-42.4876 2709.1567,-33.5376 2684.616,-27.441"/>
<polygon fill="#000000" stroke="#000000" points="2685.4102,-24.0323 2674.8677,-25.0844 2683.7653,-30.8363 2685.4102,-24.0323"/>
<text text-anchor="middle" x="2863.8956" y="-57.8" font-family="Times,serif" font-size="14.00" fill="#000000">of_study_personnel</text>
</g>
<!-- sample&#45;&gt;participant -->
<g id="edge6" class="edge">
<title>sample&#45;&gt;participant</title>
<path fill="none" stroke="#000000" d="M670.2807,-183.3417C725.3896,-171.4773 829.5171,-150.5521 919.3956,-141 942.069,-138.5903 1609.4513,-115.2736 1833.1312,-107.5044"/>
<polygon fill="#000000" stroke="#000000" points="1833.2538,-111.0024 1843.1263,-107.1574 1833.0108,-104.0066 1833.2538,-111.0024"/>
<text text-anchor="middle" x="955.8956" y="-144.8" font-family="Times,serif" font-size="14.00" fill="#000000">of_sample</text>
</g>
<!-- sample&#45;&gt;cell_line -->
<g id="edge7" class="edge">
<title>sample&#45;&gt;cell_line</title>
<path fill="none" stroke="#000000" d="M587.2874,-193.9306C489.8088,-198.458 258.6593,-210.6986 182.3956,-228 149.8548,-235.3823 114.6689,-249.1505 88.666,-260.5222"/>
<polygon fill="#000000" stroke="#000000" points="87.239,-257.3262 79.5234,-264.5871 90.0829,-263.7225 87.239,-257.3262"/>
<text text-anchor="middle" x="218.8956" y="-231.8" font-family="Times,serif" font-size="14.00" fill="#000000">of_sample</text>
</g>
<!-- pdx -->
<g id="node14" class="node">
<title>pdx</title>
<ellipse fill="none" stroke="#000000" cx="702.3956" cy="-105" rx="27.8951" ry="18"/>
<text text-anchor="middle" x="702.3956" y="-101.3" font-family="Times,serif" font-size="14.00" fill="#000000">pdx</text>
</g>
<!-- sample&#45;&gt;pdx -->
<g id="edge8" class="edge">
<title>sample&#45;&gt;pdx</title>
<path fill="none" stroke="#000000" d="M656.7364,-177.2139C665.0855,-171.4134 673.8879,-164.177 680.3956,-156 685.9453,-149.0268 690.3553,-140.4413 693.7252,-132.3166"/>
<polygon fill="#000000" stroke="#000000" points="697.0701,-133.3658 697.3265,-122.7741 690.521,-130.8941 697.0701,-133.3658"/>
<text text-anchor="middle" x="725.8956" y="-144.8" font-family="Times,serif" font-size="14.00" fill="#000000">of_sample</text>
</g>
<!-- study_admin -->
<g id="node11" class="node">
<title>study_admin</title>
<ellipse fill="none" stroke="#000000" cx="3025.3956" cy="-105" rx="70.3881" ry="18"/>
<text text-anchor="middle" x="3025.3956" y="-101.3" font-family="Times,serif" font-size="14.00" fill="#000000">study_admin</text>
</g>
<!-- study_admin&#45;&gt;study -->
<g id="edge21" class="edge">
<title>study_admin&#45;&gt;study</title>
<path fill="none" stroke="#000000" d="M3002.0044,-87.9108C2984.9581,-76.3668 2960.8374,-61.85 2937.3956,-54 2892.1874,-38.861 2758.8012,-26.8706 2687.528,-21.3351"/>
<polygon fill="#000000" stroke="#000000" points="2687.719,-17.8395 2677.4809,-20.5656 2687.1844,-24.8191 2687.719,-17.8395"/>
<text text-anchor="middle" x="3026.8956" y="-57.8" font-family="Times,serif" font-size="14.00" fill="#000000">of_study_admin</text>
</g>
<!-- publication -->
<g id="node12" class="node">
<title>publication</title>
<ellipse fill="none" stroke="#000000" cx="3176.3956" cy="-105" rx="63.0888" ry="18"/>
<text text-anchor="middle" x="3176.3956" y="-101.3" font-family="Times,serif" font-size="14.00" fill="#000000">publication</text>
</g>
<!-- publication&#45;&gt;study -->
<g id="edge22" class="edge">
<title>publication&#45;&gt;study</title>
<path fill="none" stroke="#000000" d="M3153.5375,-88.1192C3136.2922,-76.357 3111.5508,-61.484 3087.3956,-54 3013.9225,-31.2359 2787.2309,-22.1483 2688.3388,-19.2"/>
<polygon fill="#000000" stroke="#000000" points="2688.1486,-15.6931 2678.0514,-18.9018 2687.9457,-22.6901 2688.1486,-15.6931"/>
<text text-anchor="middle" x="3171.3956" y="-57.8" font-family="Times,serif" font-size="14.00" fill="#000000">of_publication</text>
</g>
<!-- exposure -->
<g id="node13" class="node">
<title>exposure</title>
<ellipse fill="none" stroke="#000000" cx="1402.3956" cy="-192" rx="53.0913" ry="18"/>
<text text-anchor="middle" x="1402.3956" y="-188.3" font-family="Times,serif" font-size="14.00" fill="#000000">exposure</text>
</g>
<!-- exposure&#45;&gt;participant -->
<g id="edge19" class="edge">
<title>exposure&#45;&gt;participant</title>
<path fill="none" stroke="#000000" d="M1426.9064,-175.9546C1446.2859,-164.1335 1474.4708,-148.809 1501.3956,-141 1561.7333,-123.5003 1734.2328,-112.9058 1833.224,-108.0924"/>
<polygon fill="#000000" stroke="#000000" points="1833.628,-111.5772 1843.4492,-107.603 1833.2933,-104.5852 1833.628,-111.5772"/>
<text text-anchor="middle" x="1544.8956" y="-144.8" font-family="Times,serif" font-size="14.00" fill="#000000">of_exposure</text>
</g>
<!-- pdx&#45;&gt;study -->
<g id="edge28" class="edge">
<title>pdx&#45;&gt;study</title>
<path fill="none" stroke="#000000" d="M729.8539,-100.9709C799.3797,-90.9599 988.1037,-64.9744 1146.3956,-54 1438.1745,-33.7709 2374.391,-21.2639 2594.6697,-18.5559"/>
<polygon fill="#000000" stroke="#000000" points="2594.9538,-22.0528 2604.9103,-18.4308 2594.8682,-15.0533 2594.9538,-22.0528"/>
<text text-anchor="middle" x="1170.3956" y="-57.8" font-family="Times,serif" font-size="14.00" fill="#000000">of_pdx</text>
</g>
<!-- pdx&#45;&gt;sample -->
<g id="edge27" class="edge">
<title>pdx&#45;&gt;sample</title>
<path fill="none" stroke="#000000" d="M675.6525,-110.4564C658.941,-115.3969 638.7003,-124.5275 628.3956,-141 624.2092,-147.6922 623.2962,-155.8954 623.8866,-163.75"/>
<polygon fill="#000000" stroke="#000000" points="620.437,-164.3475 625.3799,-173.7186 627.3597,-163.3104 620.437,-164.3475"/>
<text text-anchor="middle" x="652.3956" y="-144.8" font-family="Times,serif" font-size="14.00" fill="#000000">of_pdx</text>
</g>
<!-- diagnosis -->
<g id="node15" class="node">
<title>diagnosis</title>
<ellipse fill="none" stroke="#000000" cx="1001.3956" cy="-279" rx="54.6905" ry="18"/>
<text text-anchor="middle" x="1001.3956" y="-275.3" font-family="Times,serif" font-size="14.00" fill="#000000">diagnosis</text>
</g>
<!-- diagnosis&#45;&gt;participant -->
<g id="edge10" class="edge">
<title>diagnosis&#45;&gt;participant</title>
<path fill="none" stroke="#000000" d="M1007.9024,-260.9023C1009.6717,-255.2418 1011.3784,-248.9258 1012.3956,-243 1017.5887,-212.7468 994.7,-196.6697 1015.3956,-174 1042.8663,-143.909 1625.9419,-116.6878 1833.1327,-107.9321"/>
<polygon fill="#000000" stroke="#000000" points="1833.4561,-111.4217 1843.3001,-107.5045 1833.1619,-104.4278 1833.4561,-111.4217"/>
<text text-anchor="middle" x="1059.8956" y="-188.3" font-family="Times,serif" font-size="14.00" fill="#000000">of_diagnosis</text>
</g>
<!-- diagnosis&#45;&gt;sample -->
<g id="edge9" class="edge">
<title>diagnosis&#45;&gt;sample</title>
<path fill="none" stroke="#000000" d="M967.4629,-264.6317C953.5761,-258.4204 937.4913,-250.7951 923.3956,-243 912.7159,-237.0939 911.8367,-232.2474 900.3956,-228 862.083,-213.7768 752.1779,-202.2995 685.2965,-196.3775"/>
<polygon fill="#000000" stroke="#000000" points="685.2157,-192.8572 674.9494,-195.4752 684.6075,-199.8308 685.2157,-192.8572"/>
<text text-anchor="middle" x="967.8956" y="-231.8" font-family="Times,serif" font-size="14.00" fill="#000000">of_diagnosis</text>
</g>
<!-- treatment -->
<g id="node16" class="node">
<title>treatment</title>
<ellipse fill="none" stroke="#000000" cx="1531.3956" cy="-192" rx="57.6901" ry="18"/>
<text text-anchor="middle" x="1531.3956" y="-188.3" font-family="Times,serif" font-size="14.00" fill="#000000">treatment</text>
</g>
<!-- treatment&#45;&gt;participant -->
<g id="edge2" class="edge">
<title>treatment&#45;&gt;participant</title>
<path fill="none" stroke="#000000" d="M1556.5288,-175.7726C1575.7197,-164.1791 1603.2323,-149.2302 1629.3956,-141 1666.5541,-129.311 1766.3771,-118.0666 1835.197,-111.3429"/>
<polygon fill="#000000" stroke="#000000" points="1835.9208,-114.7893 1845.5378,-110.3437 1835.2475,-107.8218 1835.9208,-114.7893"/>
<text text-anchor="middle" x="1676.3956" y="-144.8" font-family="Times,serif" font-size="14.00" fill="#000000">of_treatment</text>
</g>
<!-- synonym -->
<g id="node17" class="node">
<title>synonym</title>
<ellipse fill="none" stroke="#000000" cx="2717.3956" cy="-279" rx="51.9908" ry="18"/>
<text text-anchor="middle" x="2717.3956" y="-275.3" font-family="Times,serif" font-size="14.00" fill="#000000">synonym</text>
</g>
<!-- synonym&#45;&gt;participant -->
<g id="edge24" class="edge">
<title>synonym&#45;&gt;participant</title>
<path fill="none" stroke="#000000" d="M2717.4911,-260.8059C2716.5126,-228.895 2709.1089,-164.0377 2666.3956,-141 2636.4221,-124.8336 2162.0102,-111.3761 1977.7663,-106.7345"/>
<polygon fill="#000000" stroke="#000000" points="1977.7172,-103.2322 1967.6327,-106.4807 1977.5419,-110.23 1977.7172,-103.2322"/>
<text text-anchor="middle" x="2752.8956" y="-188.3" font-family="Times,serif" font-size="14.00" fill="#000000">of_synonym</text>
</g>
<!-- synonym&#45;&gt;study -->
<g id="edge26" class="edge">
<title>synonym&#45;&gt;study</title>
<path fill="none" stroke="#000000" d="M2744.64,-263.5208C2776.9038,-243.1921 2823.4192,-206.2884 2799.3956,-174 2768.9274,-133.0498 2738.6339,-154.4473 2689.3956,-141 2657.16,-132.1962 2637.0028,-149.3056 2616.3956,-123 2598.6217,-100.3111 2611.2299,-66.9831 2624.1282,-43.9905"/>
<polygon fill="#000000" stroke="#000000" points="2627.2941,-45.5143 2629.3973,-35.1303 2621.2776,-41.9363 2627.2941,-45.5143"/>
<text text-anchor="middle" x="2821.8956" y="-144.8" font-family="Times,serif" font-size="14.00" fill="#000000">of_synonym</text>
</g>
<!-- synonym&#45;&gt;sample -->
<g id="edge25" class="edge">
<title>synonym&#45;&gt;sample</title>
<path fill="none" stroke="#000000" d="M2665.6401,-277.1503C2455.863,-269.6086 1648.4041,-240.1473 984.3956,-210 878.5666,-205.1952 754.939,-198.6849 685.646,-194.9545"/>
<polygon fill="#000000" stroke="#000000" points="685.588,-191.4464 675.414,-194.4026 685.2109,-198.4362 685.588,-191.4464"/>
<text text-anchor="middle" x="1786.8956" y="-231.8" font-family="Times,serif" font-size="14.00" fill="#000000">of_synonym</text>
</g>
<!-- family_relationship -->
<g id="node18" class="node">
<title>family_relationship</title>
<ellipse fill="none" stroke="#000000" cx="1707.3956" cy="-192" rx="100.1823" ry="18"/>
<text text-anchor="middle" x="1707.3956" y="-188.3" font-family="Times,serif" font-size="14.00" fill="#000000">family_relationship</text>
</g>
<!-- family_relationship&#45;&gt;participant -->
<g id="edge5" class="edge">
<title>family_relationship&#45;&gt;participant</title>
<path fill="none" stroke="#000000" d="M1715.4061,-174.0225C1721.3005,-162.8454 1730.3764,-149.106 1742.3956,-141 1758.2759,-130.2899 1801.2162,-121.0418 1839.0373,-114.6014"/>
<polygon fill="#000000" stroke="#000000" points="1839.7388,-118.033 1849.0309,-112.9431 1838.5928,-111.1274 1839.7388,-118.033"/>
<text text-anchor="middle" x="1821.8956" y="-144.8" font-family="Times,serif" font-size="14.00" fill="#000000">of_family_relationship</text>
</g>
<!-- molecular_test -->
<g id="node19" class="node">
<title>molecular_test</title>
<ellipse fill="none" stroke="#000000" cx="1905.3956" cy="-192" rx="79.8859" ry="18"/>
<text text-anchor="middle" x="1905.3956" y="-188.3" font-family="Times,serif" font-size="14.00" fill="#000000">molecular_test</text>
</g>
<!-- molecular_test&#45;&gt;participant -->
<g id="edge17" class="edge">
<title>molecular_test&#45;&gt;participant</title>
<path fill="none" stroke="#000000" d="M1905.3956,-173.9735C1905.3956,-162.1918 1905.3956,-146.5607 1905.3956,-133.1581"/>
<polygon fill="#000000" stroke="#000000" points="1908.8957,-133.0033 1905.3956,-123.0034 1901.8957,-133.0034 1908.8957,-133.0033"/>
<text text-anchor="middle" x="1969.3956" y="-144.8" font-family="Times,serif" font-size="14.00" fill="#000000">of_molecular_test</text>
</g>
<!-- medical_history -->
<g id="node20" class="node">
<title>medical_history</title>
<ellipse fill="none" stroke="#000000" cx="2088.3956" cy="-192" rx="85.2851" ry="18"/>
<text text-anchor="middle" x="2088.3956" y="-188.3" font-family="Times,serif" font-size="14.00" fill="#000000">medical_history</text>
</g>
<!-- medical_history&#45;&gt;participant -->
<g id="edge29" class="edge">
<title>medical_history&#45;&gt;participant</title>
<path fill="none" stroke="#000000" d="M2074.5751,-174.0298C2065.2011,-163.0004 2051.908,-149.4219 2037.3956,-141 2017.1743,-129.2651 1992.9897,-121.2322 1970.8786,-115.7893"/>
<polygon fill="#000000" stroke="#000000" points="1971.4198,-112.3218 1960.887,-113.4668 1969.8349,-119.1401 1971.4198,-112.3218"/>
<text text-anchor="middle" x="2123.3956" y="-144.8" font-family="Times,serif" font-size="14.00" fill="#000000">of_medical_history</text>
</g>
<!-- radiology_file -->
<g id="node21" class="node">
<title>radiology_file</title>
<ellipse fill="none" stroke="#000000" cx="2265.3956" cy="-192" rx="73.387" ry="18"/>
<text text-anchor="middle" x="2265.3956" y="-188.3" font-family="Times,serif" font-size="14.00" fill="#000000">radiology_file</text>
</g>
<!-- radiology_file&#45;&gt;participant -->
<g id="edge11" class="edge">
<title>radiology_file&#45;&gt;participant</title>
<path fill="none" stroke="#000000" d="M2246.7879,-174.3458C2233.5253,-162.8544 2214.6916,-148.6305 2195.3956,-141 2156.8135,-125.7428 2049.1571,-115.2864 1976.4375,-109.7241"/>
<polygon fill="#000000" stroke="#000000" points="1976.6532,-106.2306 1966.4191,-108.9718 1976.1289,-113.2109 1976.6532,-106.2306"/>
<text text-anchor="middle" x="2281.3956" y="-144.8" font-family="Times,serif" font-size="14.00" fill="#000000">of_radiology_file</text>
</g>
<!-- study_funding -->
<g id="node22" class="node">
<title>study_funding</title>
<ellipse fill="none" stroke="#000000" cx="3334.3956" cy="-105" rx="77.1866" ry="18"/>
<text text-anchor="middle" x="3334.3956" y="-101.3" font-family="Times,serif" font-size="14.00" fill="#000000">study_funding</text>
</g>
<!-- study_funding&#45;&gt;study -->
<g id="edge20" class="edge">
<title>study_funding&#45;&gt;study</title>
<path fill="none" stroke="#000000" d="M3306.1861,-88.023C3285.0249,-76.213 3254.915,-61.3223 3226.3956,-54 3124.9848,-27.9629 2808.5899,-20.5233 2688.378,-18.6065"/>
<polygon fill="#000000" stroke="#000000" points="2688.0936,-15.1019 2678.041,-18.4477 2687.986,-22.101 2688.0936,-15.1019"/>
<text text-anchor="middle" x="3328.3956" y="-57.8" font-family="Times,serif" font-size="14.00" fill="#000000">of_study_funding</text>
</g>
<!-- survival -->
<g id="node23" class="node">
<title>survival</title>
<ellipse fill="none" stroke="#000000" cx="2405.3956" cy="-192" rx="48.1917" ry="18"/>
<text text-anchor="middle" x="2405.3956" y="-188.3" font-family="Times,serif" font-size="14.00" fill="#000000">survival</text>
</g>
<!-- survival&#45;&gt;participant -->
<g id="edge13" class="edge">
<title>survival&#45;&gt;participant</title>
<path fill="none" stroke="#000000" d="M2390.1863,-174.5911C2378.8438,-162.8964 2362.2767,-148.331 2344.3956,-141 2311.3851,-127.4662 2093.2155,-114.5334 1977.3816,-108.5173"/>
<polygon fill="#000000" stroke="#000000" points="1977.348,-105.0111 1967.1811,-107.9917 1976.9877,-112.0018 1977.348,-105.0111"/>
<text text-anchor="middle" x="2407.8956" y="-144.8" font-family="Times,serif" font-size="14.00" fill="#000000">of_survival</text>
</g>
<!-- sequencing_file -->
<g id="node24" class="node">
<title>sequencing_file</title>
<ellipse fill="none" stroke="#000000" cx="452.3956" cy="-279" rx="83.3857" ry="18"/>
<text text-anchor="middle" x="452.3956" y="-275.3" font-family="Times,serif" font-size="14.00" fill="#000000">sequencing_file</text>
</g>
<!-- sequencing_file&#45;&gt;sample -->
<g id="edge32" class="edge">
<title>sequencing_file&#45;&gt;sample</title>
<path fill="none" stroke="#000000" d="M456.2313,-260.9155C459.5025,-249.8406 465.3325,-236.2542 475.3956,-228 491.1284,-215.0953 539.8944,-205.1759 578.7614,-199.0483"/>
<polygon fill="#000000" stroke="#000000" points="579.5567,-202.4675 588.9132,-197.497 578.4992,-195.5478 579.5567,-202.4675"/>
<text text-anchor="middle" x="541.8956" y="-231.8" font-family="Times,serif" font-size="14.00" fill="#000000">of_sequencing_file</text>
</g>
<!-- pathology_file -->
<g id="node25" class="node">
<title>pathology_file</title>
<ellipse fill="none" stroke="#000000" cx="629.3956" cy="-279" rx="76.0865" ry="18"/>
<text text-anchor="middle" x="629.3956" y="-275.3" font-family="Times,serif" font-size="14.00" fill="#000000">pathology_file</text>
</g>
<!-- pathology_file&#45;&gt;sample -->
<g id="edge23" class="edge">
<title>pathology_file&#45;&gt;sample</title>
<path fill="none" stroke="#000000" d="M618.0482,-260.793C613.3905,-251.1532 609.658,-239.0524 612.3956,-228 613.1528,-224.9431 614.2221,-221.8596 615.4719,-218.8514"/>
<polygon fill="#000000" stroke="#000000" points="618.7305,-220.1515 619.9181,-209.6234 612.4243,-217.1131 618.7305,-220.1515"/>
<text text-anchor="middle" x="673.3956" y="-231.8" font-family="Times,serif" font-size="14.00" fill="#000000">of_pathology_file</text>
</g>
</g>
</svg>
