<svg width="1856pt" height="305pt"
 viewBox="0.00 0.00 1855.58 305.00" xmlns="http://www.w3.org/2000/svg" xmlns:xlink="http://www.w3.org/1999/xlink">
<g id="graph0" class="graph" transform="scale(1 1) rotate(0) translate(4 301)">
<title>Perl</title>
<polygon fill="#ffffff" stroke="transparent" points="-4,4 -4,-301 1851.5825,-301 1851.5825,4 -4,4"/>
<!-- clinical_measure_file -->
<g id="node1" class="node">
<title>clinical_measure_file</title>
<ellipse fill="none" stroke="#000000" cx="127.9429" cy="-192" rx="108.5808" ry="18"/>
<text text-anchor="middle" x="127.9429" y="-188.3" font-family="Times,serif" font-size="14.00" fill="#000000">clinical_measure_file</text>
</g>
<!-- participant -->
<g id="node10" class="node">
<title>participant</title>
<ellipse fill="none" stroke="#000000" cx="675.9429" cy="-105" rx="62.2891" ry="18"/>
<text text-anchor="middle" x="675.9429" y="-101.3" font-family="Times,serif" font-size="14.00" fill="#000000">participant</text>
</g>
<!-- clinical_measure_file&#45;&gt;participant -->
<g id="edge3" class="edge">
<title>clinical_measure_file&#45;&gt;participant</title>
<path fill="none" stroke="#000000" d="M121.8419,-173.7003C119.4676,-162.8247 118.952,-149.532 126.9429,-141 134.998,-132.3994 457.0182,-115.6593 604.0518,-108.4447"/>
<polygon fill="#000000" stroke="#000000" points="604.512,-111.9265 614.329,-107.942 604.1699,-104.9348 604.512,-111.9265"/>
<text text-anchor="middle" x="256.4429" y="-144.8" font-family="Times,serif" font-size="14.00" fill="#000000">of_clinical_measure_file_participant</text>
</g>
<!-- study -->
<g id="node21" class="node">
<title>study</title>
<ellipse fill="none" stroke="#000000" cx="900.9429" cy="-18" rx="36.2938" ry="18"/>
<text text-anchor="middle" x="900.9429" y="-14.3" font-family="Times,serif" font-size="14.00" fill="#000000">study</text>
</g>
<!-- clinical_measure_file&#45;&gt;study -->
<g id="edge14" class="edge">
<title>clinical_measure_file&#45;&gt;study</title>
<path fill="none" stroke="#000000" d="M117.0538,-173.6385C112.3054,-163.0112 109.3502,-150.0002 116.9429,-141 165.0806,-83.9384 693.6849,-35.3312 854.6807,-21.7649"/>
<polygon fill="#000000" stroke="#000000" points="855.0715,-25.2446 864.7446,-20.9223 854.4874,-18.269 855.0715,-25.2446"/>
<text text-anchor="middle" x="375.9429" y="-101.3" font-family="Times,serif" font-size="14.00" fill="#000000">of_clinical_measure_file</text>
</g>
<!-- family_relationship -->
<g id="node2" class="node">
<title>family_relationship</title>
<ellipse fill="none" stroke="#000000" cx="1315.9429" cy="-192" rx="100.1823" ry="18"/>
<text text-anchor="middle" x="1315.9429" y="-188.3" font-family="Times,serif" font-size="14.00" fill="#000000">family_relationship</text>
</g>
<!-- family_relationship&#45;&gt;participant -->
<g id="edge5" class="edge">
<title>family_relationship&#45;&gt;participant</title>
<path fill="none" stroke="#000000" d="M1282.4313,-175.0053C1257.1656,-163.1039 1221.2816,-148.1067 1187.9429,-141 996.5245,-100.1961 941.6662,-150.8795 747.9429,-123 742.2238,-122.1769 736.2991,-121.0899 730.4162,-119.8566"/>
<polygon fill="#000000" stroke="#000000" points="731.1215,-116.428 720.599,-117.6639 729.5955,-123.2597 731.1215,-116.428"/>
<text text-anchor="middle" x="1314.4429" y="-144.8" font-family="Times,serif" font-size="14.00" fill="#000000">of_family_relationship</text>
</g>
<!-- molecular_test -->
<g id="node3" class="node">
<title>molecular_test</title>
<ellipse fill="none" stroke="#000000" cx="1513.9429" cy="-192" rx="79.8859" ry="18"/>
<text text-anchor="middle" x="1513.9429" y="-188.3" font-family="Times,serif" font-size="14.00" fill="#000000">molecular_test</text>
</g>
<!-- molecular_test&#45;&gt;participant -->
<g id="edge24" class="edge">
<title>molecular_test&#45;&gt;participant</title>
<path fill="none" stroke="#000000" d="M1484.5097,-175.243C1461.6913,-163.2116 1428.8518,-147.9427 1397.9429,-141 1256.956,-109.3317 891.1019,-142.639 747.9429,-123 742.2185,-122.2147 736.2903,-121.1522 730.4054,-119.9337"/>
<polygon fill="#000000" stroke="#000000" points="731.1063,-116.5042 720.5858,-117.7572 729.5915,-123.3384 731.1063,-116.5042"/>
<text text-anchor="middle" x="1503.9429" y="-144.8" font-family="Times,serif" font-size="14.00" fill="#000000">of_molecular_test</text>
</g>
<!-- pathology_file -->
<g id="node4" class="node">
<title>pathology_file</title>
<ellipse fill="none" stroke="#000000" cx="1095.9429" cy="-279" rx="76.0865" ry="18"/>
<text text-anchor="middle" x="1095.9429" y="-275.3" font-family="Times,serif" font-size="14.00" fill="#000000">pathology_file</text>
</g>
<!-- sample -->
<g id="node12" class="node">
<title>sample</title>
<ellipse fill="none" stroke="#000000" cx="675.9429" cy="-192" rx="44.393" ry="18"/>
<text text-anchor="middle" x="675.9429" y="-188.3" font-family="Times,serif" font-size="14.00" fill="#000000">sample</text>
</g>
<!-- pathology_file&#45;&gt;sample -->
<g id="edge16" class="edge">
<title>pathology_file&#45;&gt;sample</title>
<path fill="none" stroke="#000000" d="M1076.8494,-261.4659C1062.7867,-249.7123 1042.5912,-235.1278 1021.9429,-228 898.6165,-185.4274 856.9536,-235.2007 728.9429,-210 725.2959,-209.282 721.5556,-208.3768 717.8311,-207.3562"/>
<polygon fill="#000000" stroke="#000000" points="718.6686,-203.9535 708.0847,-204.4349 716.6588,-210.6588 718.6686,-203.9535"/>
<text text-anchor="middle" x="1110.9429" y="-231.8" font-family="Times,serif" font-size="14.00" fill="#000000">of_pathology_file</text>
</g>
<!-- therapeutic_procedure -->
<g id="node5" class="node">
<title>therapeutic_procedure</title>
<ellipse fill="none" stroke="#000000" cx="1729.9429" cy="-192" rx="117.7793" ry="18"/>
<text text-anchor="middle" x="1729.9429" y="-188.3" font-family="Times,serif" font-size="14.00" fill="#000000">therapeutic_procedure</text>
</g>
<!-- therapeutic_procedure&#45;&gt;participant -->
<g id="edge23" class="edge">
<title>therapeutic_procedure&#45;&gt;participant</title>
<path fill="none" stroke="#000000" d="M1688.8526,-175.0934C1657.4364,-163.069 1612.7299,-147.8769 1571.9429,-141 1391.3372,-110.549 929.4702,-147.3622 747.9429,-123 742.1344,-122.2205 736.1171,-121.1497 730.1485,-119.9158"/>
<polygon fill="#000000" stroke="#000000" points="730.7159,-116.4567 720.1952,-117.7079 729.1999,-123.2906 730.7159,-116.4567"/>
<text text-anchor="middle" x="1721.9429" y="-144.8" font-family="Times,serif" font-size="14.00" fill="#000000">of_therapeutic_procedure</text>
</g>
<!-- synonym -->
<g id="node6" class="node">
<title>synonym</title>
<ellipse fill="none" stroke="#000000" cx="221.9429" cy="-279" rx="51.9908" ry="18"/>
<text text-anchor="middle" x="221.9429" y="-275.3" font-family="Times,serif" font-size="14.00" fill="#000000">synonym</text>
</g>
<!-- synonym&#45;&gt;participant -->
<g id="edge19" class="edge">
<title>synonym&#45;&gt;participant</title>
<path fill="none" stroke="#000000" d="M226.995,-260.8621C234.6738,-236.8879 251.6873,-195.2145 281.9429,-174 320.3514,-147.0689 339.9299,-165.1269 385.9429,-156 415.8747,-150.0629 422.978,-146.7676 452.9429,-141 505.4612,-130.8914 565.31,-121.3364 609.7748,-114.6139"/>
<polygon fill="#000000" stroke="#000000" points="610.5062,-118.0434 619.8747,-113.0956 609.4655,-111.1212 610.5062,-118.0434"/>
<text text-anchor="middle" x="324.4429" y="-188.3" font-family="Times,serif" font-size="14.00" fill="#000000">of_synonym</text>
</g>
<!-- synonym&#45;&gt;sample -->
<g id="edge21" class="edge">
<title>synonym&#45;&gt;sample</title>
<path fill="none" stroke="#000000" d="M251.6048,-264.082C277.0155,-252.0665 314.9456,-235.9179 349.9429,-228 468.5422,-201.1675 503.689,-233.7545 622.9429,-210 626.5882,-209.2739 630.3275,-208.3629 634.0511,-207.3385"/>
<polygon fill="#000000" stroke="#000000" points="635.2261,-210.6401 643.7963,-204.4111 633.2122,-203.9361 635.2261,-210.6401"/>
<text text-anchor="middle" x="392.4429" y="-231.8" font-family="Times,serif" font-size="14.00" fill="#000000">of_synonym</text>
</g>
<!-- synonym&#45;&gt;study -->
<g id="edge20" class="edge">
<title>synonym&#45;&gt;study</title>
<path fill="none" stroke="#000000" d="M175.7422,-270.4872C119.5156,-259.078 29.6156,-237.0913 9.9429,-210 -8.4435,-184.68 1.8891,-163.1989 23.9429,-141 66.595,-98.0673 90.5545,-102.9127 148.9429,-87 283.1431,-50.4262 711.5144,-27.0776 854.2012,-20.1573"/>
<polygon fill="#000000" stroke="#000000" points="854.5471,-23.6448 864.3676,-19.6687 854.211,-16.6529 854.5471,-23.6448"/>
<text text-anchor="middle" x="66.4429" y="-144.8" font-family="Times,serif" font-size="14.00" fill="#000000">of_synonym</text>
</g>
<!-- follow_up -->
<g id="node7" class="node">
<title>follow_up</title>
<ellipse fill="none" stroke="#000000" cx="430.9429" cy="-192" rx="55.4913" ry="18"/>
<text text-anchor="middle" x="430.9429" y="-188.3" font-family="Times,serif" font-size="14.00" fill="#000000">follow_up</text>
</g>
<!-- follow_up&#45;&gt;participant -->
<g id="edge18" class="edge">
<title>follow_up&#45;&gt;participant</title>
<path fill="none" stroke="#000000" d="M442.4496,-174.0865C450.6771,-162.7877 462.774,-148.8871 476.9429,-141 498.9239,-128.7643 558.6553,-118.9463 606.9843,-112.6734"/>
<polygon fill="#000000" stroke="#000000" points="607.6265,-116.1201 617.1064,-111.3891 606.7453,-109.1757 607.6265,-116.1201"/>
<text text-anchor="middle" x="521.9429" y="-144.8" font-family="Times,serif" font-size="14.00" fill="#000000">of_follow_up</text>
</g>
<!-- pdx -->
<g id="node8" class="node">
<title>pdx</title>
<ellipse fill="none" stroke="#000000" cx="1238.9429" cy="-279" rx="27.8951" ry="18"/>
<text text-anchor="middle" x="1238.9429" y="-275.3" font-family="Times,serif" font-size="14.00" fill="#000000">pdx</text>
</g>
<!-- pdx&#45;&gt;sample -->
<g id="edge6" class="edge">
<title>pdx&#45;&gt;sample</title>
<path fill="none" stroke="#000000" d="M1224.6925,-262.8564C1212.956,-250.8142 1195.1684,-235.245 1175.9429,-228 1082.9152,-192.9433 826.6818,-228.1718 728.9429,-210 725.2885,-209.3206 721.543,-208.4423 717.8151,-207.4399"/>
<polygon fill="#000000" stroke="#000000" points="718.6457,-204.0356 708.0632,-204.5473 716.6551,-210.7466 718.6457,-204.0356"/>
<text text-anchor="middle" x="1223.9429" y="-231.8" font-family="Times,serif" font-size="14.00" fill="#000000">of_pdx</text>
</g>
<!-- diagnosis -->
<g id="node9" class="node">
<title>diagnosis</title>
<ellipse fill="none" stroke="#000000" cx="558.9429" cy="-192" rx="54.6905" ry="18"/>
<text text-anchor="middle" x="558.9429" y="-188.3" font-family="Times,serif" font-size="14.00" fill="#000000">diagnosis</text>
</g>
<!-- diagnosis&#45;&gt;participant -->
<g id="edge13" class="edge">
<title>diagnosis&#45;&gt;participant</title>
<path fill="none" stroke="#000000" d="M563.7292,-173.8931C567.4074,-163.0902 573.493,-149.8061 582.9429,-141 592.6326,-131.9705 604.8359,-125.1228 617.1853,-119.9593"/>
<polygon fill="#000000" stroke="#000000" points="618.5415,-123.1877 626.6182,-116.3307 616.0283,-116.6544 618.5415,-123.1877"/>
<text text-anchor="middle" x="627.4429" y="-144.8" font-family="Times,serif" font-size="14.00" fill="#000000">of_diagnosis</text>
</g>
<!-- participant&#45;&gt;study -->
<g id="edge9" class="edge">
<title>participant&#45;&gt;study</title>
<path fill="none" stroke="#000000" d="M689.1757,-87.2171C698.4983,-75.9734 711.9551,-62.0852 726.9429,-54 748.7472,-42.2377 811.6891,-31.0633 855.5626,-24.3695"/>
<polygon fill="#000000" stroke="#000000" points="856.3449,-27.7915 865.7158,-22.8481 855.3075,-20.8688 856.3449,-27.7915"/>
<text text-anchor="middle" x="777.4429" y="-57.8" font-family="Times,serif" font-size="14.00" fill="#000000">of_participant</text>
</g>
<!-- single_cell_sequencing_file -->
<g id="node11" class="node">
<title>single_cell_sequencing_file</title>
<ellipse fill="none" stroke="#000000" cx="429.9429" cy="-279" rx="137.5759" ry="18"/>
<text text-anchor="middle" x="429.9429" y="-275.3" font-family="Times,serif" font-size="14.00" fill="#000000">single_cell_sequencing_file</text>
</g>
<!-- single_cell_sequencing_file&#45;&gt;sample -->
<g id="edge2" class="edge">
<title>single_cell_sequencing_file&#45;&gt;sample</title>
<path fill="none" stroke="#000000" d="M432.6449,-260.7791C435.3178,-249.5022 440.5916,-235.7429 450.9429,-228 481.7169,-204.9805 585.4036,-218.2305 622.9429,-210 626.5232,-209.215 630.199,-208.2706 633.8645,-207.2307"/>
<polygon fill="#000000" stroke="#000000" points="634.9274,-210.5658 643.4704,-204.2994 632.8842,-203.8706 634.9274,-210.5658"/>
<text text-anchor="middle" x="559.4429" y="-231.8" font-family="Times,serif" font-size="14.00" fill="#000000">of_single_cell_sequencing_file</text>
</g>
<!-- sample&#45;&gt;participant -->
<g id="edge22" class="edge">
<title>sample&#45;&gt;participant</title>
<path fill="none" stroke="#000000" d="M675.9429,-173.9735C675.9429,-162.1918 675.9429,-146.5607 675.9429,-133.1581"/>
<polygon fill="#000000" stroke="#000000" points="679.443,-133.0033 675.9429,-123.0034 672.443,-133.0034 679.443,-133.0033"/>
<text text-anchor="middle" x="712.4429" y="-144.8" font-family="Times,serif" font-size="14.00" fill="#000000">of_sample</text>
</g>
<!-- study_admin -->
<g id="node13" class="node">
<title>study_admin</title>
<ellipse fill="none" stroke="#000000" cx="826.9429" cy="-105" rx="70.3881" ry="18"/>
<text text-anchor="middle" x="826.9429" y="-101.3" font-family="Times,serif" font-size="14.00" fill="#000000">study_admin</text>
</g>
<!-- study_admin&#45;&gt;study -->
<g id="edge7" class="edge">
<title>study_admin&#45;&gt;study</title>
<path fill="none" stroke="#000000" d="M828.179,-86.5168C829.6744,-76.1058 832.9244,-63.3558 839.9429,-54 845.9674,-45.9692 854.3533,-39.3993 862.9816,-34.1752"/>
<polygon fill="#000000" stroke="#000000" points="864.9081,-37.1097 871.9723,-29.2136 861.5259,-30.981 864.9081,-37.1097"/>
<text text-anchor="middle" x="896.4429" y="-57.8" font-family="Times,serif" font-size="14.00" fill="#000000">of_study_admin</text>
</g>
<!-- study_arm -->
<g id="node14" class="node">
<title>study_arm</title>
<ellipse fill="none" stroke="#000000" cx="974.9429" cy="-105" rx="59.5901" ry="18"/>
<text text-anchor="middle" x="974.9429" y="-101.3" font-family="Times,serif" font-size="14.00" fill="#000000">study_arm</text>
</g>
<!-- study_arm&#45;&gt;study -->
<g id="edge11" class="edge">
<title>study_arm&#45;&gt;study</title>
<path fill="none" stroke="#000000" d="M969.8086,-86.6615C966.2638,-76.2987 960.7638,-63.5487 952.9429,-54 947.7574,-47.6689 941.1837,-41.9729 934.4697,-37.0787"/>
<polygon fill="#000000" stroke="#000000" points="936.2242,-34.0396 925.9841,-31.3209 932.2937,-39.832 936.2242,-34.0396"/>
<text text-anchor="middle" x="1010.4429" y="-57.8" font-family="Times,serif" font-size="14.00" fill="#000000">of_study_arm</text>
</g>
<!-- sequencing_file -->
<g id="node15" class="node">
<title>sequencing_file</title>
<ellipse fill="none" stroke="#000000" cx="668.9429" cy="-279" rx="83.3857" ry="18"/>
<text text-anchor="middle" x="668.9429" y="-275.3" font-family="Times,serif" font-size="14.00" fill="#000000">sequencing_file</text>
</g>
<!-- sequencing_file&#45;&gt;sample -->
<g id="edge12" class="edge">
<title>sequencing_file&#45;&gt;sample</title>
<path fill="none" stroke="#000000" d="M670.3933,-260.9735C671.3413,-249.1918 672.5989,-233.5607 673.6773,-220.1581"/>
<polygon fill="#000000" stroke="#000000" points="677.181,-220.2519 674.4943,-210.0034 670.2035,-219.6904 677.181,-220.2519"/>
<text text-anchor="middle" x="738.4429" y="-231.8" font-family="Times,serif" font-size="14.00" fill="#000000">of_sequencing_file</text>
</g>
<!-- study_personnel -->
<g id="node16" class="node">
<title>study_personnel</title>
<ellipse fill="none" stroke="#000000" cx="1139.9429" cy="-105" rx="87.1846" ry="18"/>
<text text-anchor="middle" x="1139.9429" y="-101.3" font-family="Times,serif" font-size="14.00" fill="#000000">study_personnel</text>
</g>
<!-- study_personnel&#45;&gt;study -->
<g id="edge8" class="edge">
<title>study_personnel&#45;&gt;study</title>
<path fill="none" stroke="#000000" d="M1118.2771,-87.5095C1103.4897,-76.3893 1083.0126,-62.5288 1062.9429,-54 1025.3356,-38.0185 979.6751,-28.6954 946.4276,-23.5582"/>
<polygon fill="#000000" stroke="#000000" points="946.9348,-20.0953 936.5305,-22.0956 945.9114,-27.0201 946.9348,-20.0953"/>
<text text-anchor="middle" x="1158.4429" y="-57.8" font-family="Times,serif" font-size="14.00" fill="#000000">of_study_personnel</text>
</g>
<!-- medical_history -->
<g id="node17" class="node">
<title>medical_history</title>
<ellipse fill="none" stroke="#000000" cx="822.9429" cy="-192" rx="85.2851" ry="18"/>
<text text-anchor="middle" x="822.9429" y="-188.3" font-family="Times,serif" font-size="14.00" fill="#000000">medical_history</text>
</g>
<!-- medical_history&#45;&gt;participant -->
<g id="edge25" class="edge">
<title>medical_history&#45;&gt;participant</title>
<path fill="none" stroke="#000000" d="M801.304,-174.561C787.8355,-164.1368 769.9031,-151.017 752.9429,-141 742.8206,-135.0216 731.5416,-129.2778 720.8061,-124.2016"/>
<polygon fill="#000000" stroke="#000000" points="722.1001,-120.9439 711.5545,-119.9234 719.162,-127.2975 722.1001,-120.9439"/>
<text text-anchor="middle" x="841.9429" y="-144.8" font-family="Times,serif" font-size="14.00" fill="#000000">of_medical_history</text>
</g>
<!-- methylation_array_file -->
<g id="node18" class="node">
<title>methylation_array_file</title>
<ellipse fill="none" stroke="#000000" cx="885.9429" cy="-279" rx="115.8798" ry="18"/>
<text text-anchor="middle" x="885.9429" y="-275.3" font-family="Times,serif" font-size="14.00" fill="#000000">methylation_array_file</text>
</g>
<!-- methylation_array_file&#45;&gt;sample -->
<g id="edge15" class="edge">
<title>methylation_array_file&#45;&gt;sample</title>
<path fill="none" stroke="#000000" d="M863.9425,-261.2814C849.178,-250.2106 828.8538,-236.4924 808.9429,-228 775.4203,-213.702 764.0243,-219.8738 728.9429,-210 725.7625,-209.1049 722.492,-208.13 719.2115,-207.1123"/>
<polygon fill="#000000" stroke="#000000" points="720.011,-203.6931 709.4197,-203.9681 717.8708,-210.3579 720.011,-203.6931"/>
<text text-anchor="middle" x="926.4429" y="-231.8" font-family="Times,serif" font-size="14.00" fill="#000000">of_methylation_array_file</text>
</g>
<!-- radiology_file -->
<g id="node19" class="node">
<title>radiology_file</title>
<ellipse fill="none" stroke="#000000" cx="999.9429" cy="-192" rx="73.387" ry="18"/>
<text text-anchor="middle" x="999.9429" y="-188.3" font-family="Times,serif" font-size="14.00" fill="#000000">radiology_file</text>
</g>
<!-- radiology_file&#45;&gt;participant -->
<g id="edge1" class="edge">
<title>radiology_file&#45;&gt;participant</title>
<path fill="none" stroke="#000000" d="M977.1736,-174.8076C960.5573,-163.2149 936.9985,-148.6825 913.9429,-141 843.5383,-117.5403 821.0003,-136.0299 747.9429,-123 742.552,-122.0385 736.9666,-120.9002 731.3999,-119.6702"/>
<polygon fill="#000000" stroke="#000000" points="731.9768,-116.2115 721.4461,-117.3757 730.4043,-123.0326 731.9768,-116.2115"/>
<text text-anchor="middle" x="1004.9429" y="-144.8" font-family="Times,serif" font-size="14.00" fill="#000000">of_radiology_file</text>
</g>
<!-- study_funding -->
<g id="node20" class="node">
<title>study_funding</title>
<ellipse fill="none" stroke="#000000" cx="1321.9429" cy="-105" rx="77.1866" ry="18"/>
<text text-anchor="middle" x="1321.9429" y="-101.3" font-family="Times,serif" font-size="14.00" fill="#000000">study_funding</text>
</g>
<!-- study_funding&#45;&gt;study -->
<g id="edge17" class="edge">
<title>study_funding&#45;&gt;study</title>
<path fill="none" stroke="#000000" d="M1297.9923,-87.8286C1280.5456,-76.2458 1255.8725,-61.7166 1231.9429,-54 1180.1479,-37.2976 1025.4737,-25.6893 947.2833,-20.7174"/>
<polygon fill="#000000" stroke="#000000" points="947.4295,-17.2198 937.2303,-20.088 946.992,-24.2061 947.4295,-17.2198"/>
<text text-anchor="middle" x="1326.9429" y="-57.8" font-family="Times,serif" font-size="14.00" fill="#000000">of_study_funding</text>
</g>
<!-- publication -->
<g id="node22" class="node">
<title>publication</title>
<ellipse fill="none" stroke="#000000" cx="1479.9429" cy="-105" rx="63.0888" ry="18"/>
<text text-anchor="middle" x="1479.9429" y="-101.3" font-family="Times,serif" font-size="14.00" fill="#000000">publication</text>
</g>
<!-- publication&#45;&gt;study -->
<g id="edge10" class="edge">
<title>publication&#45;&gt;study</title>
<path fill="none" stroke="#000000" d="M1457.6737,-88.0607C1440.8535,-76.2695 1416.6819,-61.3857 1392.9429,-54 1310.6341,-28.392 1053.5667,-20.7974 947.4626,-18.721"/>
<polygon fill="#000000" stroke="#000000" points="947.4411,-15.2201 937.3771,-18.5315 947.3095,-22.2189 947.4411,-15.2201"/>
<text text-anchor="middle" x="1475.9429" y="-57.8" font-family="Times,serif" font-size="14.00" fill="#000000">of_publication</text>
</g>
<!-- exposure -->
<g id="node23" class="node">
<title>exposure</title>
<ellipse fill="none" stroke="#000000" cx="1144.9429" cy="-192" rx="53.0913" ry="18"/>
<text text-anchor="middle" x="1144.9429" y="-188.3" font-family="Times,serif" font-size="14.00" fill="#000000">exposure</text>
</g>
<!-- exposure&#45;&gt;participant -->
<g id="edge4" class="edge">
<title>exposure&#45;&gt;participant</title>
<path fill="none" stroke="#000000" d="M1125.8991,-175.1855C1111.1797,-163.2923 1089.7038,-148.2257 1067.9429,-141 1000.3483,-118.5552 818.3604,-133.6847 747.9429,-123 742.4492,-122.1664 736.7633,-121.1029 731.1057,-119.9105"/>
<polygon fill="#000000" stroke="#000000" points="731.5236,-116.4175 721.0004,-117.647 729.9935,-123.2482 731.5236,-116.4175"/>
<text text-anchor="middle" x="1140.4429" y="-144.8" font-family="Times,serif" font-size="14.00" fill="#000000">of_exposure</text>
</g>
</g>
</svg>
