<svg width="2966pt" height="392pt"
 viewBox="0.00 0.00 2966.35 392.00" xmlns="http://www.w3.org/2000/svg" xmlns:xlink="http://www.w3.org/1999/xlink">
<g id="graph0" class="graph" transform="scale(1 1) rotate(0) translate(4 388)">
<title>Perl</title>
<polygon fill="#ffffff" stroke="transparent" points="-4,4 -4,-388 2962.3544,-388 2962.3544,4 -4,4"/>
<!-- molecular_test -->
<g id="node1" class="node">
<title>molecular_test</title>
<ellipse fill="none" stroke="#000000" cx="628.3544" cy="-192" rx="79.8859" ry="18"/>
<text text-anchor="middle" x="628.3544" y="-188.3" font-family="Times,serif" font-size="14.00" fill="#000000">molecular_test</text>
</g>
<!-- participant -->
<g id="node16" class="node">
<title>participant</title>
<ellipse fill="none" stroke="#000000" cx="1154.3544" cy="-105" rx="62.2891" ry="18"/>
<text text-anchor="middle" x="1154.3544" y="-101.3" font-family="Times,serif" font-size="14.00" fill="#000000">participant</text>
</g>
<!-- molecular_test&#45;&gt;participant -->
<g id="edge8" class="edge">
<title>molecular_test&#45;&gt;participant</title>
<path fill="none" stroke="#000000" d="M645.0345,-174.3157C657.2111,-162.6531 674.7776,-148.2397 693.3544,-141 728.6045,-127.2624 961.9018,-114.2365 1082.4688,-108.3229"/>
<polygon fill="#000000" stroke="#000000" points="1082.8979,-111.8063 1092.7158,-107.8241 1082.5575,-104.8146 1082.8979,-111.8063"/>
<text text-anchor="middle" x="757.3544" y="-144.8" font-family="Times,serif" font-size="14.00" fill="#000000">of_molecular_test</text>
</g>
<!-- study -->
<g id="node2" class="node">
<title>study</title>
<ellipse fill="none" stroke="#000000" cx="1586.3544" cy="-18" rx="36.2938" ry="18"/>
<text text-anchor="middle" x="1586.3544" y="-14.3" font-family="Times,serif" font-size="14.00" fill="#000000">study</text>
</g>
<!-- synonym -->
<g id="node3" class="node">
<title>synonym</title>
<ellipse fill="none" stroke="#000000" cx="833.3544" cy="-279" rx="51.9908" ry="18"/>
<text text-anchor="middle" x="833.3544" y="-275.3" font-family="Times,serif" font-size="14.00" fill="#000000">synonym</text>
</g>
<!-- synonym&#45;&gt;study -->
<g id="edge16" class="edge">
<title>synonym&#45;&gt;study</title>
<path fill="none" stroke="#000000" d="M781.1659,-278.6205C608.4645,-276.8292 63.4885,-266.6936 11.3544,-210 -9.7686,-187.0295 2.855,-163.6186 24.3544,-141 147.903,-11.0201 239.5309,-67.4587 418.3544,-54 641.9694,-37.1703 1350.3891,-22.5611 1539.5441,-18.8878"/>
<polygon fill="#000000" stroke="#000000" points="1539.7783,-22.384 1549.7087,-18.6912 1539.6429,-15.3853 1539.7783,-22.384"/>
<text text-anchor="middle" x="66.8544" y="-144.8" font-family="Times,serif" font-size="14.00" fill="#000000">of_synonym</text>
</g>
<!-- synonym&#45;&gt;participant -->
<g id="edge14" class="edge">
<title>synonym&#45;&gt;participant</title>
<path fill="none" stroke="#000000" d="M848.9291,-261.3453C859.7531,-250.1557 875.1068,-236.2797 891.3544,-228 923.8258,-211.4529 939.4303,-227.5796 971.3544,-210 991.1754,-199.0853 988.8356,-187.002 1007.3544,-174 1037.856,-152.5851 1076.0541,-134.8879 1105.8669,-122.7792"/>
<polygon fill="#000000" stroke="#000000" points="1107.238,-126.0005 1115.2313,-119.0465 1104.6461,-119.498 1107.238,-126.0005"/>
<text text-anchor="middle" x="1049.8544" y="-188.3" font-family="Times,serif" font-size="14.00" fill="#000000">of_synonym</text>
</g>
<!-- sample -->
<g id="node21" class="node">
<title>sample</title>
<ellipse fill="none" stroke="#000000" cx="1398.3544" cy="-192" rx="44.393" ry="18"/>
<text text-anchor="middle" x="1398.3544" y="-188.3" font-family="Times,serif" font-size="14.00" fill="#000000">sample</text>
</g>
<!-- synonym&#45;&gt;sample -->
<g id="edge15" class="edge">
<title>synonym&#45;&gt;sample</title>
<path fill="none" stroke="#000000" d="M857.9529,-262.8893C880.7413,-247.9682 911.1619,-228.0617 911.3544,-228 1003.273,-198.5294 1250.464,-227.7014 1345.3544,-210 1349.0084,-209.3184 1352.7536,-208.4386 1356.4813,-207.4351"/>
<polygon fill="#000000" stroke="#000000" points="1357.6421,-210.7416 1366.2329,-204.5409 1355.6504,-204.0309 1357.6421,-210.7416"/>
<text text-anchor="middle" x="953.8544" y="-231.8" font-family="Times,serif" font-size="14.00" fill="#000000">of_synonym</text>
</g>
<!-- cytogenomic_file -->
<g id="node4" class="node">
<title>cytogenomic_file</title>
<ellipse fill="none" stroke="#000000" cx="2232.3544" cy="-366" rx="89.8845" ry="18"/>
<text text-anchor="middle" x="2232.3544" y="-362.3" font-family="Times,serif" font-size="14.00" fill="#000000">cytogenomic_file</text>
</g>
<!-- pdx -->
<g id="node6" class="node">
<title>pdx</title>
<ellipse fill="none" stroke="#000000" cx="1511.3544" cy="-279" rx="27.8951" ry="18"/>
<text text-anchor="middle" x="1511.3544" y="-275.3" font-family="Times,serif" font-size="14.00" fill="#000000">pdx</text>
</g>
<!-- cytogenomic_file&#45;&gt;pdx -->
<g id="edge26" class="edge">
<title>cytogenomic_file&#45;&gt;pdx</title>
<path fill="none" stroke="#000000" d="M2143.1938,-363.8577C1960.5918,-359.1342 1559.0741,-346.8873 1534.3544,-330 1526.4296,-324.5861 1521.1958,-315.7533 1517.7564,-306.9476"/>
<polygon fill="#000000" stroke="#000000" points="1521.0081,-305.6287 1514.5878,-297.2007 1514.351,-307.7929 1521.0081,-305.6287"/>
<text text-anchor="middle" x="1605.8544" y="-318.8" font-family="Times,serif" font-size="14.00" fill="#000000">of_cytogenomic_file</text>
</g>
<!-- cytogenomic_file&#45;&gt;sample -->
<g id="edge25" class="edge">
<title>cytogenomic_file&#45;&gt;sample</title>
<path fill="none" stroke="#000000" d="M2232.3783,-347.8251C2231.3455,-336.567 2227.9786,-322.8115 2218.3544,-315 2192.7713,-294.2351 1955.0604,-300.9999 1922.3544,-297 1711.0543,-271.1581 1657.3438,-263.7023 1451.3544,-210 1448.0089,-209.1278 1444.5697,-208.1504 1441.1273,-207.1138"/>
<polygon fill="#000000" stroke="#000000" points="1442.0827,-203.7453 1431.493,-204.0743 1439.9766,-210.4209 1442.0827,-203.7453"/>
<text text-anchor="middle" x="1993.8544" y="-275.3" font-family="Times,serif" font-size="14.00" fill="#000000">of_cytogenomic_file</text>
</g>
<!-- cell_line -->
<g id="node25" class="node">
<title>cell_line</title>
<ellipse fill="none" stroke="#000000" cx="2123.3544" cy="-279" rx="49.2915" ry="18"/>
<text text-anchor="middle" x="2123.3544" y="-275.3" font-family="Times,serif" font-size="14.00" fill="#000000">cell_line</text>
</g>
<!-- cytogenomic_file&#45;&gt;cell_line -->
<g id="edge24" class="edge">
<title>cytogenomic_file&#45;&gt;cell_line</title>
<path fill="none" stroke="#000000" d="M2242.8338,-347.9632C2247.4369,-337.451 2250.3834,-324.4471 2243.3544,-315 2235.1443,-303.9654 2205.7596,-295.0474 2178.1253,-288.8478"/>
<polygon fill="#000000" stroke="#000000" points="2178.5778,-285.3653 2168.0659,-286.6879 2177.1082,-292.2093 2178.5778,-285.3653"/>
<text text-anchor="middle" x="2318.8544" y="-318.8" font-family="Times,serif" font-size="14.00" fill="#000000">of_cytogenomic_file</text>
</g>
<!-- sequencing_file -->
<g id="node5" class="node">
<title>sequencing_file</title>
<ellipse fill="none" stroke="#000000" cx="1380.3544" cy="-366" rx="83.3857" ry="18"/>
<text text-anchor="middle" x="1380.3544" y="-362.3" font-family="Times,serif" font-size="14.00" fill="#000000">sequencing_file</text>
</g>
<!-- sequencing_file&#45;&gt;pdx -->
<g id="edge4" class="edge">
<title>sequencing_file&#45;&gt;pdx</title>
<path fill="none" stroke="#000000" d="M1374.0636,-347.5661C1371.672,-336.9131 1371.0419,-323.9006 1378.3544,-315 1404.5263,-283.1443 1429.9688,-309.1871 1469.3544,-297 1472.5374,-296.0151 1475.8065,-294.8688 1479.0477,-293.6407"/>
<polygon fill="#000000" stroke="#000000" points="1480.6143,-296.7827 1488.574,-289.7902 1477.9911,-290.2928 1480.6143,-296.7827"/>
<text text-anchor="middle" x="1444.8544" y="-318.8" font-family="Times,serif" font-size="14.00" fill="#000000">of_sequencing_file</text>
</g>
<!-- sequencing_file&#45;&gt;sample -->
<g id="edge5" class="edge">
<title>sequencing_file&#45;&gt;sample</title>
<path fill="none" stroke="#000000" d="M1320.0922,-353.549C1309.538,-351.5574 1298.6435,-349.6216 1288.3544,-348 1255.1913,-342.7733 1160.6347,-355.1138 1138.3544,-330 1133.9301,-325.013 1133.9083,-319.9675 1138.3544,-315 1162.5114,-288.0103 1267.9831,-313.2511 1300.3544,-297 1319.116,-287.5813 1355.5931,-245.1286 1378.3653,-217.1714"/>
<polygon fill="#000000" stroke="#000000" points="1381.1137,-219.339 1384.6781,-209.3617 1375.6698,-214.9385 1381.1137,-219.339"/>
<text text-anchor="middle" x="1405.8544" y="-275.3" font-family="Times,serif" font-size="14.00" fill="#000000">of_sequencing_file</text>
</g>
<!-- sequencing_file&#45;&gt;cell_line -->
<g id="edge6" class="edge">
<title>sequencing_file&#45;&gt;cell_line</title>
<path fill="none" stroke="#000000" d="M1463.3491,-364.5555C1632.9631,-361.1781 2007.9736,-351.377 2062.3544,-330 2076.9308,-324.2701 2090.5689,-313.6012 2101.2371,-303.4968"/>
<polygon fill="#000000" stroke="#000000" points="2103.8317,-305.8525 2108.4512,-296.3178 2098.8941,-300.8907 2103.8317,-305.8525"/>
<text text-anchor="middle" x="2152.8544" y="-318.8" font-family="Times,serif" font-size="14.00" fill="#000000">of_sequencing_file</text>
</g>
<!-- pdx&#45;&gt;study -->
<g id="edge19" class="edge">
<title>pdx&#45;&gt;study</title>
<path fill="none" stroke="#000000" d="M1538.8788,-275.5254C1617.1975,-265.3661 1836.9601,-234.863 1857.3544,-210 1877.9463,-184.8962 1861.4658,-157.2472 1833.3544,-141 1767.9556,-103.2022 1726.0328,-166.6058 1664.3544,-123 1636.5973,-103.3761 1652.4927,-80.622 1631.3544,-54 1627.0073,-48.5251 1621.6807,-43.3568 1616.2331,-38.7358"/>
<polygon fill="#000000" stroke="#000000" points="1618.2668,-35.881 1608.2654,-32.3849 1613.9037,-41.3549 1618.2668,-35.881"/>
<text text-anchor="middle" x="1876.3544" y="-144.8" font-family="Times,serif" font-size="14.00" fill="#000000">of_pdx</text>
</g>
<!-- pdx&#45;&gt;sample -->
<g id="edge20" class="edge">
<title>pdx&#45;&gt;sample</title>
<path fill="none" stroke="#000000" d="M1493.199,-265.0219C1475.4332,-251.3438 1448.0903,-230.2922 1427.3192,-214.3003"/>
<polygon fill="#000000" stroke="#000000" points="1429.2092,-211.3382 1419.1503,-208.011 1424.9388,-216.8848 1429.2092,-211.3382"/>
<text text-anchor="middle" x="1485.3544" y="-231.8" font-family="Times,serif" font-size="14.00" fill="#000000">of_pdx</text>
</g>
<!-- therapeutic_procedure -->
<g id="node7" class="node">
<title>therapeutic_procedure</title>
<ellipse fill="none" stroke="#000000" cx="844.3544" cy="-192" rx="117.7793" ry="18"/>
<text text-anchor="middle" x="844.3544" y="-188.3" font-family="Times,serif" font-size="14.00" fill="#000000">therapeutic_procedure</text>
</g>
<!-- therapeutic_procedure&#45;&gt;participant -->
<g id="edge10" class="edge">
<title>therapeutic_procedure&#45;&gt;participant</title>
<path fill="none" stroke="#000000" d="M831.9932,-174.0514C826.2462,-163.308 822.2715,-150.0308 830.3544,-141 846.8458,-122.5748 991.819,-112.5288 1082.1659,-108.0085"/>
<polygon fill="#000000" stroke="#000000" points="1082.5406,-111.4944 1092.3578,-107.5103 1082.1988,-104.5028 1082.5406,-111.4944"/>
<text text-anchor="middle" x="923.3544" y="-144.8" font-family="Times,serif" font-size="14.00" fill="#000000">of_therapeutic_procedure</text>
</g>
<!-- clinical_measure_file -->
<g id="node8" class="node">
<title>clinical_measure_file</title>
<ellipse fill="none" stroke="#000000" cx="129.3544" cy="-192" rx="108.5808" ry="18"/>
<text text-anchor="middle" x="129.3544" y="-188.3" font-family="Times,serif" font-size="14.00" fill="#000000">clinical_measure_file</text>
</g>
<!-- clinical_measure_file&#45;&gt;study -->
<g id="edge11" class="edge">
<title>clinical_measure_file&#45;&gt;study</title>
<path fill="none" stroke="#000000" d="M117.9146,-173.915C112.6708,-163.1203 109.2264,-149.8371 117.3544,-141 215.9428,-33.8119 1300.5265,-19.9942 1539.8191,-18.2478"/>
<polygon fill="#000000" stroke="#000000" points="1539.9494,-21.7471 1549.9248,-18.1777 1539.9007,-14.7473 1539.9494,-21.7471"/>
<text text-anchor="middle" x="366.3544" y="-101.3" font-family="Times,serif" font-size="14.00" fill="#000000">of_clinical_measure_file</text>
</g>
<!-- clinical_measure_file&#45;&gt;participant -->
<g id="edge28" class="edge">
<title>clinical_measure_file&#45;&gt;participant</title>
<path fill="none" stroke="#000000" d="M122.6828,-173.6174C120.0156,-162.7107 119.2299,-149.4143 127.3544,-141 143.9263,-123.837 850.1981,-110.2158 1081.7088,-106.205"/>
<polygon fill="#000000" stroke="#000000" points="1082.1045,-109.6988 1092.0426,-106.0269 1081.9838,-102.6999 1082.1045,-109.6988"/>
<text text-anchor="middle" x="256.8544" y="-144.8" font-family="Times,serif" font-size="14.00" fill="#000000">of_clinical_measure_file_participant</text>
</g>
<!-- exposure -->
<g id="node9" class="node">
<title>exposure</title>
<ellipse fill="none" stroke="#000000" cx="1154.3544" cy="-192" rx="53.0913" ry="18"/>
<text text-anchor="middle" x="1154.3544" y="-188.3" font-family="Times,serif" font-size="14.00" fill="#000000">exposure</text>
</g>
<!-- exposure&#45;&gt;participant -->
<g id="edge17" class="edge">
<title>exposure&#45;&gt;participant</title>
<path fill="none" stroke="#000000" d="M1154.3544,-173.9735C1154.3544,-162.1918 1154.3544,-146.5607 1154.3544,-133.1581"/>
<polygon fill="#000000" stroke="#000000" points="1157.8545,-133.0033 1154.3544,-123.0034 1150.8545,-133.0034 1157.8545,-133.0033"/>
<text text-anchor="middle" x="1197.8544" y="-144.8" font-family="Times,serif" font-size="14.00" fill="#000000">of_exposure</text>
</g>
<!-- follow_up -->
<g id="node10" class="node">
<title>follow_up</title>
<ellipse fill="none" stroke="#000000" cx="1281.3544" cy="-192" rx="55.4913" ry="18"/>
<text text-anchor="middle" x="1281.3544" y="-188.3" font-family="Times,serif" font-size="14.00" fill="#000000">follow_up</text>
</g>
<!-- follow_up&#45;&gt;participant -->
<g id="edge12" class="edge">
<title>follow_up&#45;&gt;participant</title>
<path fill="none" stroke="#000000" d="M1272.1128,-173.9196C1265.8194,-163.1266 1256.5995,-149.8436 1245.3544,-141 1234.8188,-132.7143 1222.1347,-126.1165 1209.6267,-120.9532"/>
<polygon fill="#000000" stroke="#000000" points="1210.724,-117.625 1200.1347,-117.2803 1208.1978,-124.1533 1210.724,-117.625"/>
<text text-anchor="middle" x="1304.3544" y="-144.8" font-family="Times,serif" font-size="14.00" fill="#000000">of_follow_up</text>
</g>
<!-- study_funding -->
<g id="node11" class="node">
<title>study_funding</title>
<ellipse fill="none" stroke="#000000" cx="1370.3544" cy="-105" rx="77.1866" ry="18"/>
<text text-anchor="middle" x="1370.3544" y="-101.3" font-family="Times,serif" font-size="14.00" fill="#000000">study_funding</text>
</g>
<!-- study_funding&#45;&gt;study -->
<g id="edge27" class="edge">
<title>study_funding&#45;&gt;study</title>
<path fill="none" stroke="#000000" d="M1375.0943,-86.9835C1378.976,-75.7904 1385.6193,-62.0479 1396.3544,-54 1418.6118,-37.3141 1491.6675,-27.1457 1540.4301,-22.0487"/>
<polygon fill="#000000" stroke="#000000" points="1540.8423,-25.5249 1550.4398,-21.0375 1540.1386,-18.5604 1540.8423,-25.5249"/>
<text text-anchor="middle" x="1458.3544" y="-57.8" font-family="Times,serif" font-size="14.00" fill="#000000">of_study_funding</text>
</g>
<!-- family_relationship -->
<g id="node12" class="node">
<title>family_relationship</title>
<ellipse fill="none" stroke="#000000" cx="1560.3544" cy="-192" rx="100.1823" ry="18"/>
<text text-anchor="middle" x="1560.3544" y="-188.3" font-family="Times,serif" font-size="14.00" fill="#000000">family_relationship</text>
</g>
<!-- family_relationship&#45;&gt;participant -->
<g id="edge36" class="edge">
<title>family_relationship&#45;&gt;participant</title>
<path fill="none" stroke="#000000" d="M1529.4993,-174.7125C1507.5483,-163.232 1476.9899,-148.873 1448.3544,-141 1377.6514,-121.561 1357.123,-132.0294 1284.3544,-123 1263.5604,-120.4198 1240.93,-117.3705 1220.4661,-114.5222"/>
<polygon fill="#000000" stroke="#000000" points="1220.6874,-111.0191 1210.2987,-113.0989 1219.7169,-117.9515 1220.6874,-111.0191"/>
<text text-anchor="middle" x="1568.8544" y="-144.8" font-family="Times,serif" font-size="14.00" fill="#000000">of_family_relationship</text>
</g>
<!-- medical_history -->
<g id="node13" class="node">
<title>medical_history</title>
<ellipse fill="none" stroke="#000000" cx="1763.3544" cy="-192" rx="85.2851" ry="18"/>
<text text-anchor="middle" x="1763.3544" y="-188.3" font-family="Times,serif" font-size="14.00" fill="#000000">medical_history</text>
</g>
<!-- medical_history&#45;&gt;participant -->
<g id="edge18" class="edge">
<title>medical_history&#45;&gt;participant</title>
<path fill="none" stroke="#000000" d="M1734.3266,-174.9217C1712.5603,-163.0614 1681.6076,-148.152 1652.3544,-141 1572.8214,-121.5552 1365.8744,-130.6222 1284.3544,-123 1263.1042,-121.0131 1239.9998,-118.0702 1219.2433,-115.1371"/>
<polygon fill="#000000" stroke="#000000" points="1219.6571,-111.6606 1209.2608,-113.7021 1218.661,-118.5894 1219.6571,-111.6606"/>
<text text-anchor="middle" x="1761.3544" y="-144.8" font-family="Times,serif" font-size="14.00" fill="#000000">of_medical_history</text>
</g>
<!-- publication -->
<g id="node14" class="node">
<title>publication</title>
<ellipse fill="none" stroke="#000000" cx="1528.3544" cy="-105" rx="63.0888" ry="18"/>
<text text-anchor="middle" x="1528.3544" y="-101.3" font-family="Times,serif" font-size="14.00" fill="#000000">publication</text>
</g>
<!-- publication&#45;&gt;study -->
<g id="edge9" class="edge">
<title>publication&#45;&gt;study</title>
<path fill="none" stroke="#000000" d="M1524.6779,-86.905C1523.5357,-76.6233 1523.7857,-63.8733 1529.3544,-54 1533.8178,-46.0865 1540.8152,-39.6621 1548.3995,-34.5514"/>
<polygon fill="#000000" stroke="#000000" points="1550.6636,-37.276 1557.4557,-29.1448 1547.0753,-31.2657 1550.6636,-37.276"/>
<text text-anchor="middle" x="1580.3544" y="-57.8" font-family="Times,serif" font-size="14.00" fill="#000000">of_publication</text>
</g>
<!-- methylation_array_file -->
<g id="node15" class="node">
<title>methylation_array_file</title>
<ellipse fill="none" stroke="#000000" cx="2637.3544" cy="-366" rx="115.8798" ry="18"/>
<text text-anchor="middle" x="2637.3544" y="-362.3" font-family="Times,serif" font-size="14.00" fill="#000000">methylation_array_file</text>
</g>
<!-- methylation_array_file&#45;&gt;pdx -->
<g id="edge33" class="edge">
<title>methylation_array_file&#45;&gt;pdx</title>
<path fill="none" stroke="#000000" d="M2545.1814,-355.0961C2508.3723,-349.4598 2465.8952,-341.3268 2428.3544,-330 2412.5421,-325.2291 2410.4522,-318.6951 2394.3544,-315 2285.3402,-289.9769 2003.1072,-301.6462 1891.3544,-297 1766.3913,-291.8046 1618.3721,-284.4461 1549.7856,-280.9675"/>
<polygon fill="#000000" stroke="#000000" points="1549.6405,-277.4557 1539.4756,-280.4435 1549.285,-284.4467 1549.6405,-277.4557"/>
<text text-anchor="middle" x="2519.8544" y="-318.8" font-family="Times,serif" font-size="14.00" fill="#000000">of_methylation_array_file</text>
</g>
<!-- methylation_array_file&#45;&gt;sample -->
<g id="edge32" class="edge">
<title>methylation_array_file&#45;&gt;sample</title>
<path fill="none" stroke="#000000" d="M2737.1329,-356.7371C2771.3811,-351.3332 2803.789,-342.9307 2814.3544,-330 2818.5726,-324.8375 2818.7912,-319.9759 2814.3544,-315 2758.0087,-251.8076 2141.7995,-234.0956 2057.3544,-228 1922.978,-218.3001 1583.9387,-233.9274 1451.3544,-210 1447.6458,-209.3307 1443.8444,-208.4511 1440.0636,-207.4403"/>
<polygon fill="#000000" stroke="#000000" points="1440.7637,-203.9974 1430.1814,-204.5124 1438.7751,-210.709 1440.7637,-203.9974"/>
<text text-anchor="middle" x="2866.8544" y="-275.3" font-family="Times,serif" font-size="14.00" fill="#000000">of_methylation_array_file</text>
</g>
<!-- methylation_array_file&#45;&gt;cell_line -->
<g id="edge34" class="edge">
<title>methylation_array_file&#45;&gt;cell_line</title>
<path fill="none" stroke="#000000" d="M2634.4286,-347.8983C2631.582,-336.52 2626.0409,-322.6016 2615.3544,-315 2597.9811,-302.6418 2309.8884,-287.7248 2182.7946,-281.7091"/>
<polygon fill="#000000" stroke="#000000" points="2182.6206,-278.1971 2172.4671,-281.2231 2182.2915,-285.1894 2182.6206,-278.1971"/>
<text text-anchor="middle" x="2718.8544" y="-318.8" font-family="Times,serif" font-size="14.00" fill="#000000">of_methylation_array_file</text>
</g>
<!-- participant&#45;&gt;study -->
<g id="edge37" class="edge">
<title>participant&#45;&gt;study</title>
<path fill="none" stroke="#000000" d="M1185.6462,-89.3204C1210.2374,-77.696 1245.6789,-62.4576 1278.3544,-54 1369.0083,-30.5354 1478.66,-22.3374 1539.6438,-19.4927"/>
<polygon fill="#000000" stroke="#000000" points="1539.8889,-22.9854 1549.7261,-19.0508 1539.5824,-15.9921 1539.8889,-22.9854"/>
<text text-anchor="middle" x="1328.8544" y="-57.8" font-family="Times,serif" font-size="14.00" fill="#000000">of_participant</text>
</g>
<!-- study_arm -->
<g id="node17" class="node">
<title>study_arm</title>
<ellipse fill="none" stroke="#000000" cx="1733.3544" cy="-105" rx="59.5901" ry="18"/>
<text text-anchor="middle" x="1733.3544" y="-101.3" font-family="Times,serif" font-size="14.00" fill="#000000">study_arm</text>
</g>
<!-- study_arm&#45;&gt;study -->
<g id="edge31" class="edge">
<title>study_arm&#45;&gt;study</title>
<path fill="none" stroke="#000000" d="M1710.9155,-88.2685C1696.5253,-77.8601 1677.2509,-64.5049 1659.3544,-54 1647.7191,-47.1703 1634.6087,-40.4274 1622.7419,-34.6567"/>
<polygon fill="#000000" stroke="#000000" points="1624.0747,-31.4144 1613.5436,-30.254 1621.0525,-37.7284 1624.0747,-31.4144"/>
<text text-anchor="middle" x="1730.8544" y="-57.8" font-family="Times,serif" font-size="14.00" fill="#000000">of_study_arm</text>
</g>
<!-- radiology_file -->
<g id="node18" class="node">
<title>radiology_file</title>
<ellipse fill="none" stroke="#000000" cx="329.3544" cy="-192" rx="73.387" ry="18"/>
<text text-anchor="middle" x="329.3544" y="-188.3" font-family="Times,serif" font-size="14.00" fill="#000000">radiology_file</text>
</g>
<!-- radiology_file&#45;&gt;participant -->
<g id="edge29" class="edge">
<title>radiology_file&#45;&gt;participant</title>
<path fill="none" stroke="#000000" d="M357.2594,-175.2377C381.747,-160.561 413.7232,-141.4903 415.3544,-141 477.9595,-122.1831 908.2933,-110.5284 1081.9367,-106.5437"/>
<polygon fill="#000000" stroke="#000000" points="1082.0855,-110.0413 1092.0033,-106.3147 1081.9263,-103.0432 1082.0855,-110.0413"/>
<text text-anchor="middle" x="474.3544" y="-144.8" font-family="Times,serif" font-size="14.00" fill="#000000">of_radiology_file</text>
</g>
<!-- single_cell_sequencing_file -->
<g id="node19" class="node">
<title>single_cell_sequencing_file</title>
<ellipse fill="none" stroke="#000000" cx="1141.3544" cy="-366" rx="137.5759" ry="18"/>
<text text-anchor="middle" x="1141.3544" y="-362.3" font-family="Times,serif" font-size="14.00" fill="#000000">single_cell_sequencing_file</text>
</g>
<!-- single_cell_sequencing_file&#45;&gt;pdx -->
<g id="edge39" class="edge">
<title>single_cell_sequencing_file&#45;&gt;pdx</title>
<path fill="none" stroke="#000000" d="M1139.7903,-347.9534C1139.893,-336.748 1142.1717,-323.003 1151.3544,-315 1178.0339,-291.7481 1434.9023,-305.0928 1469.3544,-297 1472.7791,-296.1956 1476.2775,-295.1297 1479.7213,-293.9172"/>
<polygon fill="#000000" stroke="#000000" points="1481.1458,-297.1181 1489.176,-290.2068 1478.5885,-290.6019 1481.1458,-297.1181"/>
<text text-anchor="middle" x="1259.8544" y="-318.8" font-family="Times,serif" font-size="14.00" fill="#000000">of_single_cell_sequencing_file</text>
</g>
<!-- single_cell_sequencing_file&#45;&gt;sample -->
<g id="edge38" class="edge">
<title>single_cell_sequencing_file&#45;&gt;sample</title>
<path fill="none" stroke="#000000" d="M1117.7605,-348.1886C1091.7031,-326.379 1056.2924,-288.9037 1079.3544,-261 1156.0413,-168.2132 1228.9758,-240.7618 1345.3544,-210 1348.697,-209.1165 1352.1341,-208.1309 1355.575,-207.0886"/>
<polygon fill="#000000" stroke="#000000" points="1356.7296,-210.3944 1365.2067,-204.0391 1354.6166,-203.7209 1356.7296,-210.3944"/>
<text text-anchor="middle" x="1187.8544" y="-275.3" font-family="Times,serif" font-size="14.00" fill="#000000">of_single_cell_sequencing_file</text>
</g>
<!-- single_cell_sequencing_file&#45;&gt;cell_line -->
<g id="edge40" class="edge">
<title>single_cell_sequencing_file&#45;&gt;cell_line</title>
<path fill="none" stroke="#000000" d="M1237.3063,-353.015C1254.2868,-351.0702 1271.8207,-349.2884 1288.3544,-348 1347.542,-343.3878 1766.6069,-350.4122 1822.3544,-330 1832.4574,-326.3008 1831.3438,-318.9422 1841.3544,-315 1932.224,-279.2158 1964.2734,-314.4991 2060.3544,-297 2065.4691,-296.0685 2070.7655,-294.8959 2076.0157,-293.5979"/>
<polygon fill="#000000" stroke="#000000" points="2077.2119,-296.9026 2085.9954,-290.9779 2075.4344,-290.132 2077.2119,-296.9026"/>
<text text-anchor="middle" x="1949.8544" y="-318.8" font-family="Times,serif" font-size="14.00" fill="#000000">of_single_cell_sequencing_file</text>
</g>
<!-- pathology_file -->
<g id="node20" class="node">
<title>pathology_file</title>
<ellipse fill="none" stroke="#000000" cx="909.3544" cy="-366" rx="76.0865" ry="18"/>
<text text-anchor="middle" x="909.3544" y="-362.3" font-family="Times,serif" font-size="14.00" fill="#000000">pathology_file</text>
</g>
<!-- pathology_file&#45;&gt;pdx -->
<g id="edge2" class="edge">
<title>pathology_file&#45;&gt;pdx</title>
<path fill="none" stroke="#000000" d="M936.7946,-349.0881C957.7472,-337.1453 987.7863,-322.0592 1016.3544,-315 1211.9633,-266.6649 1272.8205,-341.4243 1469.3544,-297 1472.7857,-296.2244 1476.2885,-295.1774 1479.735,-293.9763"/>
<polygon fill="#000000" stroke="#000000" points="1481.1526,-297.1802 1489.193,-290.2808 1478.605,-290.6602 1481.1526,-297.1802"/>
<text text-anchor="middle" x="1077.3544" y="-318.8" font-family="Times,serif" font-size="14.00" fill="#000000">of_pathology_file</text>
</g>
<!-- pathology_file&#45;&gt;sample -->
<g id="edge1" class="edge">
<title>pathology_file&#45;&gt;sample</title>
<path fill="none" stroke="#000000" d="M910.3428,-347.8759C912.6384,-324.3087 920.2392,-283.5062 945.3544,-261 957.8211,-249.8284 1075.7925,-230.4341 1092.3544,-228 1203.885,-211.6081 1234.8553,-232.3088 1345.3544,-210 1348.9979,-209.2644 1352.7358,-208.3468 1356.4586,-207.318"/>
<polygon fill="#000000" stroke="#000000" points="1357.6365,-210.6186 1366.2024,-204.3835 1355.6179,-203.916 1357.6365,-210.6186"/>
<text text-anchor="middle" x="1006.3544" y="-275.3" font-family="Times,serif" font-size="14.00" fill="#000000">of_pathology_file</text>
</g>
<!-- pathology_file&#45;&gt;cell_line -->
<g id="edge3" class="edge">
<title>pathology_file&#45;&gt;cell_line</title>
<path fill="none" stroke="#000000" d="M963.0676,-353.0811C973.3957,-351.0364 984.1679,-349.2026 994.3544,-348 1069.7461,-339.0993 1605.9722,-355.8399 1677.3544,-330 1687.4709,-326.3379 1686.2809,-318.7785 1696.3544,-315 1772.1834,-286.5573 1980.4515,-310.2109 2060.3544,-297 2065.6853,-296.1186 2071.2068,-294.9446 2076.6648,-293.6169"/>
<polygon fill="#000000" stroke="#000000" points="2077.57,-296.998 2086.3654,-291.0911 2075.8062,-290.2238 2077.57,-296.998"/>
<text text-anchor="middle" x="1757.3544" y="-318.8" font-family="Times,serif" font-size="14.00" fill="#000000">of_pathology_file</text>
</g>
<!-- sample&#45;&gt;participant -->
<g id="edge35" class="edge">
<title>sample&#45;&gt;participant</title>
<path fill="none" stroke="#000000" d="M1387.1822,-174.0866C1379.1691,-162.7878 1367.3432,-148.8872 1353.3544,-141 1341.7182,-134.4392 1273.5853,-122.9558 1220.2426,-114.7215"/>
<polygon fill="#000000" stroke="#000000" points="1220.5472,-111.2274 1210.1323,-113.1721 1219.4867,-118.1466 1220.5472,-111.2274"/>
<text text-anchor="middle" x="1407.8544" y="-144.8" font-family="Times,serif" font-size="14.00" fill="#000000">of_sample</text>
</g>
<!-- diagnosis -->
<g id="node22" class="node">
<title>diagnosis</title>
<ellipse fill="none" stroke="#000000" cx="475.3544" cy="-192" rx="54.6905" ry="18"/>
<text text-anchor="middle" x="475.3544" y="-188.3" font-family="Times,serif" font-size="14.00" fill="#000000">diagnosis</text>
</g>
<!-- diagnosis&#45;&gt;participant -->
<g id="edge13" class="edge">
<title>diagnosis&#45;&gt;participant</title>
<path fill="none" stroke="#000000" d="M499.8074,-175.75C519.1559,-163.819 547.3271,-148.4464 574.3544,-141 667.8456,-115.242 947.9954,-107.8686 1081.7422,-105.7936"/>
<polygon fill="#000000" stroke="#000000" points="1081.9448,-109.2911 1091.8913,-105.642 1081.8401,-102.2918 1081.9448,-109.2911"/>
<text text-anchor="middle" x="618.8544" y="-144.8" font-family="Times,serif" font-size="14.00" fill="#000000">of_diagnosis</text>
</g>
<!-- study_admin -->
<g id="node23" class="node">
<title>study_admin</title>
<ellipse fill="none" stroke="#000000" cx="1881.3544" cy="-105" rx="70.3881" ry="18"/>
<text text-anchor="middle" x="1881.3544" y="-101.3" font-family="Times,serif" font-size="14.00" fill="#000000">study_admin</text>
</g>
<!-- study_admin&#45;&gt;study -->
<g id="edge30" class="edge">
<title>study_admin&#45;&gt;study</title>
<path fill="none" stroke="#000000" d="M1854.4584,-88.1971C1835.2981,-76.9389 1808.5735,-62.6464 1783.3544,-54 1733.2827,-36.8328 1673.0917,-27.3521 1632.5272,-22.4871"/>
<polygon fill="#000000" stroke="#000000" points="1632.7348,-18.9879 1622.3997,-21.3195 1631.933,-25.9419 1632.7348,-18.9879"/>
<text text-anchor="middle" x="1872.8544" y="-57.8" font-family="Times,serif" font-size="14.00" fill="#000000">of_study_admin</text>
</g>
<!-- study_personnel -->
<g id="node24" class="node">
<title>study_personnel</title>
<ellipse fill="none" stroke="#000000" cx="2056.3544" cy="-105" rx="87.1846" ry="18"/>
<text text-anchor="middle" x="2056.3544" y="-101.3" font-family="Times,serif" font-size="14.00" fill="#000000">study_personnel</text>
</g>
<!-- study_personnel&#45;&gt;study -->
<g id="edge7" class="edge">
<title>study_personnel&#45;&gt;study</title>
<path fill="none" stroke="#000000" d="M2023.3194,-88.2193C1999.0548,-76.6659 1964.9505,-62.0078 1933.3544,-54 1877.6586,-39.8842 1713.9171,-26.9176 1632.8765,-21.1504"/>
<polygon fill="#000000" stroke="#000000" points="1632.6995,-17.6294 1622.4782,-20.4177 1632.2074,-24.612 1632.6995,-17.6294"/>
<text text-anchor="middle" x="2047.8544" y="-57.8" font-family="Times,serif" font-size="14.00" fill="#000000">of_study_personnel</text>
</g>
<!-- cell_line&#45;&gt;study -->
<g id="edge21" class="edge">
<title>cell_line&#45;&gt;study</title>
<path fill="none" stroke="#000000" d="M2131.1964,-261.227C2150.6436,-214.349 2194.449,-88.5825 2121.3544,-54 2077.8141,-33.4002 1754.9888,-22.5786 1632.9233,-19.189"/>
<polygon fill="#000000" stroke="#000000" points="1632.8657,-15.6862 1622.7737,-18.9115 1632.6743,-22.6836 1632.8657,-15.6862"/>
<text text-anchor="middle" x="2201.8544" y="-144.8" font-family="Times,serif" font-size="14.00" fill="#000000">of_cell_line</text>
</g>
<!-- cell_line&#45;&gt;participant -->
<g id="edge23" class="edge">
<title>cell_line&#45;&gt;participant</title>
<path fill="none" stroke="#000000" d="M2105.798,-261.926C2093.9746,-251.1198 2077.6226,-237.4542 2061.3544,-228 1967.58,-173.5032 1939.6814,-162.4042 1833.3544,-141 1713.6895,-116.9108 1405.9774,-133.3851 1284.3544,-123 1262.9914,-121.1759 1239.7684,-118.2606 1218.9394,-115.3029"/>
<polygon fill="#000000" stroke="#000000" points="1219.3237,-111.8222 1208.9252,-113.8522 1218.32,-118.7498 1219.3237,-111.8222"/>
<text text-anchor="middle" x="2069.8544" y="-188.3" font-family="Times,serif" font-size="14.00" fill="#000000">of_cell_line</text>
</g>
<!-- cell_line&#45;&gt;sample -->
<g id="edge22" class="edge">
<title>cell_line&#45;&gt;sample</title>
<path fill="none" stroke="#000000" d="M2084.8165,-267.5456C2076.7604,-265.2761 2068.3006,-262.9842 2060.3544,-261 2023.311,-251.7502 2013.3095,-252.5969 1976.3544,-243 1954.3103,-237.2753 1949.8113,-231.7955 1927.3544,-228 1718.6082,-192.7192 1659.5416,-248.4429 1451.3544,-210 1447.6993,-209.3251 1443.9532,-208.45 1440.2249,-207.4496"/>
<polygon fill="#000000" stroke="#000000" points="1441.0546,-204.0451 1430.4723,-204.5604 1439.0663,-210.7568 1441.0546,-204.0451"/>
<text text-anchor="middle" x="2016.8544" y="-231.8" font-family="Times,serif" font-size="14.00" fill="#000000">of_cell_line</text>
</g>
</g>
</svg>
