<svg width="3778pt" height="305pt"
 viewBox="0.00 0.00 3777.95 305.00" xmlns="http://www.w3.org/2000/svg" xmlns:xlink="http://www.w3.org/1999/xlink">
<g id="graph0" class="graph" transform="scale(1 1) rotate(0) translate(4 301)">
<title>Perl</title>
<polygon fill="#ffffff" stroke="transparent" points="-4,4 -4,-301 3773.9475,-301 3773.9475,4 -4,4"/>
<!-- treatment_response -->
<g id="node1" class="node">
<title>treatment_response</title>
<ellipse fill="none" stroke="#000000" cx="1880.9475" cy="-192" rx="104.7816" ry="18"/>
<text text-anchor="middle" x="1880.9475" y="-188.3" font-family="Times,serif" font-size="14.00" fill="#000000">treatment_response</text>
</g>
<!-- participant -->
<g id="node11" class="node">
<title>participant</title>
<ellipse fill="none" stroke="#000000" cx="1774.9475" cy="-105" rx="62.2891" ry="18"/>
<text text-anchor="middle" x="1774.9475" y="-101.3" font-family="Times,serif" font-size="14.00" fill="#000000">participant</text>
</g>
<!-- treatment_response&#45;&gt;participant -->
<g id="edge2" class="edge">
<title>treatment_response&#45;&gt;participant</title>
<path fill="none" stroke="#000000" d="M1859.2411,-174.1843C1843.3131,-161.1114 1821.5104,-143.2167 1804.0693,-128.9019"/>
<polygon fill="#000000" stroke="#000000" points="1805.8529,-125.8378 1795.9026,-122.199 1801.4119,-131.2487 1805.8529,-125.8378"/>
<text text-anchor="middle" x="1916.9475" y="-144.8" font-family="Times,serif" font-size="14.00" fill="#000000">of_treatment_response</text>
</g>
<!-- sequencing_file -->
<g id="node2" class="node">
<title>sequencing_file</title>
<ellipse fill="none" stroke="#000000" cx="156.9475" cy="-279" rx="83.3857" ry="18"/>
<text text-anchor="middle" x="156.9475" y="-275.3" font-family="Times,serif" font-size="14.00" fill="#000000">sequencing_file</text>
</g>
<!-- sample -->
<g id="node16" class="node">
<title>sample</title>
<ellipse fill="none" stroke="#000000" cx="662.9475" cy="-192" rx="44.393" ry="18"/>
<text text-anchor="middle" x="662.9475" y="-188.3" font-family="Times,serif" font-size="14.00" fill="#000000">sample</text>
</g>
<!-- sequencing_file&#45;&gt;sample -->
<g id="edge3" class="edge">
<title>sequencing_file&#45;&gt;sample</title>
<path fill="none" stroke="#000000" d="M179.9604,-261.6519C196.7599,-249.9859 220.5894,-235.4298 243.9475,-228 310.4063,-206.8607 511.0101,-197.2238 608.5386,-193.6942"/>
<polygon fill="#000000" stroke="#000000" points="608.9074,-197.1835 618.7776,-193.3325 608.6602,-190.1878 608.9074,-197.1835"/>
<text text-anchor="middle" x="310.4475" y="-231.8" font-family="Times,serif" font-size="14.00" fill="#000000">of_sequencing_file</text>
</g>
<!-- exposure -->
<g id="node3" class="node">
<title>exposure</title>
<ellipse fill="none" stroke="#000000" cx="2056.9475" cy="-192" rx="53.0913" ry="18"/>
<text text-anchor="middle" x="2056.9475" y="-188.3" font-family="Times,serif" font-size="14.00" fill="#000000">exposure</text>
</g>
<!-- exposure&#45;&gt;participant -->
<g id="edge4" class="edge">
<title>exposure&#45;&gt;participant</title>
<path fill="none" stroke="#000000" d="M2043.606,-174.4792C2033.8978,-163.0473 2019.7295,-148.8398 2003.9475,-141 1976.6613,-127.4454 1901.5464,-117.3314 1844.7235,-111.3296"/>
<polygon fill="#000000" stroke="#000000" points="1845.0075,-107.8404 1834.7005,-110.2931 1844.2874,-114.8032 1845.0075,-107.8404"/>
<text text-anchor="middle" x="2068.4475" y="-144.8" font-family="Times,serif" font-size="14.00" fill="#000000">of_exposure</text>
</g>
<!-- pdx -->
<g id="node4" class="node">
<title>pdx</title>
<ellipse fill="none" stroke="#000000" cx="27.9475" cy="-279" rx="27.8951" ry="18"/>
<text text-anchor="middle" x="27.9475" y="-275.3" font-family="Times,serif" font-size="14.00" fill="#000000">pdx</text>
</g>
<!-- study -->
<g id="node9" class="node">
<title>study</title>
<ellipse fill="none" stroke="#000000" cx="2958.9475" cy="-18" rx="36.2938" ry="18"/>
<text text-anchor="middle" x="2958.9475" y="-14.3" font-family="Times,serif" font-size="14.00" fill="#000000">study</text>
</g>
<!-- pdx&#45;&gt;study -->
<g id="edge21" class="edge">
<title>pdx&#45;&gt;study</title>
<path fill="none" stroke="#000000" d="M26.0789,-260.7827C26.0013,-249.9383 27.876,-236.6492 35.9475,-228 227.8641,-22.3475 373.9625,-122.9484 652.9475,-87 1112.7831,-27.7483 2626.8785,-19.2336 2912.3136,-18.1468"/>
<polygon fill="#000000" stroke="#000000" points="2912.3415,-21.6468 2922.3285,-18.1098 2912.3156,-14.6469 2912.3415,-21.6468"/>
<text text-anchor="middle" x="162.9475" y="-144.8" font-family="Times,serif" font-size="14.00" fill="#000000">of_pdx</text>
</g>
<!-- pdx&#45;&gt;sample -->
<g id="edge20" class="edge">
<title>pdx&#45;&gt;sample</title>
<path fill="none" stroke="#000000" d="M49.9933,-267.5569C54.8541,-265.2368 60.0232,-262.922 64.9475,-261 90.8829,-250.8774 98.7772,-252.4988 124.9475,-243 140.856,-237.2259 143.5013,-231.9928 159.9475,-228 243.7909,-207.6446 496.6895,-197.2935 608.6296,-193.6077"/>
<polygon fill="#000000" stroke="#000000" points="608.8104,-197.1038 618.6919,-193.2819 608.5838,-190.1074 608.8104,-197.1038"/>
<text text-anchor="middle" x="183.9475" y="-231.8" font-family="Times,serif" font-size="14.00" fill="#000000">of_pdx</text>
</g>
<!-- publication -->
<g id="node5" class="node">
<title>publication</title>
<ellipse fill="none" stroke="#000000" cx="2958.9475" cy="-105" rx="63.0888" ry="18"/>
<text text-anchor="middle" x="2958.9475" y="-101.3" font-family="Times,serif" font-size="14.00" fill="#000000">publication</text>
</g>
<!-- publication&#45;&gt;study -->
<g id="edge35" class="edge">
<title>publication&#45;&gt;study</title>
<path fill="none" stroke="#000000" d="M2958.9475,-86.9735C2958.9475,-75.1918 2958.9475,-59.5607 2958.9475,-46.1581"/>
<polygon fill="#000000" stroke="#000000" points="2962.4476,-46.0033 2958.9475,-36.0034 2955.4476,-46.0034 2962.4476,-46.0033"/>
<text text-anchor="middle" x="3009.9475" y="-57.8" font-family="Times,serif" font-size="14.00" fill="#000000">of_publication</text>
</g>
<!-- study_admin -->
<g id="node6" class="node">
<title>study_admin</title>
<ellipse fill="none" stroke="#000000" cx="3109.9475" cy="-105" rx="70.3881" ry="18"/>
<text text-anchor="middle" x="3109.9475" y="-101.3" font-family="Times,serif" font-size="14.00" fill="#000000">study_admin</text>
</g>
<!-- study_admin&#45;&gt;study -->
<g id="edge25" class="edge">
<title>study_admin&#45;&gt;study</title>
<path fill="none" stroke="#000000" d="M3097.6325,-86.7768C3089.4786,-75.9301 3077.9198,-62.6408 3064.9475,-54 3046.267,-41.5569 3022.8684,-33.0141 3002.8105,-27.3849"/>
<polygon fill="#000000" stroke="#000000" points="3003.532,-23.9554 2992.969,-24.7765 3001.7386,-30.7217 3003.532,-23.9554"/>
<text text-anchor="middle" x="3137.4475" y="-57.8" font-family="Times,serif" font-size="14.00" fill="#000000">of_study_admin</text>
</g>
<!-- treatment -->
<g id="node7" class="node">
<title>treatment</title>
<ellipse fill="none" stroke="#000000" cx="2185.9475" cy="-192" rx="57.6901" ry="18"/>
<text text-anchor="middle" x="2185.9475" y="-188.3" font-family="Times,serif" font-size="14.00" fill="#000000">treatment</text>
</g>
<!-- treatment&#45;&gt;participant -->
<g id="edge13" class="edge">
<title>treatment&#45;&gt;participant</title>
<path fill="none" stroke="#000000" d="M2167.9561,-174.733C2154.6865,-163.1052 2135.5932,-148.5614 2115.9475,-141 2068.433,-122.7121 1932.1807,-112.791 1846.9831,-108.2204"/>
<polygon fill="#000000" stroke="#000000" points="1847.0252,-104.7179 1836.8556,-107.6893 1846.6586,-111.7082 1847.0252,-104.7179"/>
<text text-anchor="middle" x="2189.9475" y="-144.8" font-family="Times,serif" font-size="14.00" fill="#000000">of_treatment</text>
</g>
<!-- diagnosis -->
<g id="node8" class="node">
<title>diagnosis</title>
<ellipse fill="none" stroke="#000000" cx="1080.9475" cy="-279" rx="54.6905" ry="18"/>
<text text-anchor="middle" x="1080.9475" y="-275.3" font-family="Times,serif" font-size="14.00" fill="#000000">diagnosis</text>
</g>
<!-- diagnosis&#45;&gt;participant -->
<g id="edge27" class="edge">
<title>diagnosis&#45;&gt;participant</title>
<path fill="none" stroke="#000000" d="M1134.6647,-275.473C1184.1833,-270.3138 1246.0663,-257.8214 1217.9475,-228 1171.2167,-178.4396 958.6783,-259.5604 911.9475,-210 900.971,-198.3588 901.5231,-186.138 911.9475,-174 975.2198,-100.3269 1031.3543,-151.0425 1127.9475,-141 1335.6181,-119.4091 1582.227,-110.2028 1702.1703,-106.772"/>
<polygon fill="#000000" stroke="#000000" points="1702.4332,-110.2661 1712.331,-106.4865 1702.2366,-103.2688 1702.4332,-110.2661"/>
<text text-anchor="middle" x="956.4475" y="-188.3" font-family="Times,serif" font-size="14.00" fill="#000000">of_diagnosis</text>
</g>
<!-- diagnosis&#45;&gt;sample -->
<g id="edge26" class="edge">
<title>diagnosis&#45;&gt;sample</title>
<path fill="none" stroke="#000000" d="M1028.062,-274.488C989.2807,-269.8655 935.9414,-260.7281 891.9475,-243 880.628,-238.4386 880.3014,-232.4752 868.9475,-228 819.6452,-208.5673 759.5943,-199.5911 717.0801,-195.4649"/>
<polygon fill="#000000" stroke="#000000" points="717.2139,-191.9627 706.9374,-194.54 716.5782,-198.9337 717.2139,-191.9627"/>
<text text-anchor="middle" x="936.4475" y="-231.8" font-family="Times,serif" font-size="14.00" fill="#000000">of_diagnosis</text>
</g>
<!-- pathology_file -->
<g id="node10" class="node">
<title>pathology_file</title>
<ellipse fill="none" stroke="#000000" cx="780.9475" cy="-279" rx="76.0865" ry="18"/>
<text text-anchor="middle" x="780.9475" y="-275.3" font-family="Times,serif" font-size="14.00" fill="#000000">pathology_file</text>
</g>
<!-- pathology_file&#45;&gt;sample -->
<g id="edge10" class="edge">
<title>pathology_file&#45;&gt;sample</title>
<path fill="none" stroke="#000000" d="M762.7364,-261.0259C751.916,-250.7845 737.666,-238.0345 723.9475,-228 715.9918,-222.1807 707.0378,-216.4763 698.4906,-211.3852"/>
<polygon fill="#000000" stroke="#000000" points="700.1933,-208.3266 689.7897,-206.3227 696.673,-214.377 700.1933,-208.3266"/>
<text text-anchor="middle" x="803.9475" y="-231.8" font-family="Times,serif" font-size="14.00" fill="#000000">of_pathology_file</text>
</g>
<!-- participant&#45;&gt;study -->
<g id="edge29" class="edge">
<title>participant&#45;&gt;study</title>
<path fill="none" stroke="#000000" d="M1835.7,-100.5359C2044.2278,-85.2134 2728.1332,-34.9602 2912.6981,-21.3984"/>
<polygon fill="#000000" stroke="#000000" points="2913.1585,-24.8741 2922.8751,-20.6506 2912.6455,-17.8929 2913.1585,-24.8741"/>
<text text-anchor="middle" x="2487.4475" y="-57.8" font-family="Times,serif" font-size="14.00" fill="#000000">of_participant</text>
</g>
<!-- study_funding -->
<g id="node12" class="node">
<title>study_funding</title>
<ellipse fill="none" stroke="#000000" cx="3275.9475" cy="-105" rx="77.1866" ry="18"/>
<text text-anchor="middle" x="3275.9475" y="-101.3" font-family="Times,serif" font-size="14.00" fill="#000000">study_funding</text>
</g>
<!-- study_funding&#45;&gt;study -->
<g id="edge33" class="edge">
<title>study_funding&#45;&gt;study</title>
<path fill="none" stroke="#000000" d="M3254.806,-87.5526C3239.8459,-76.1535 3218.8099,-61.955 3197.9475,-54 3163.6423,-40.9192 3064.5608,-28.9001 3005.2905,-22.6034"/>
<polygon fill="#000000" stroke="#000000" points="3005.3781,-19.0935 2995.0677,-21.5321 3004.6484,-26.0554 3005.3781,-19.0935"/>
<text text-anchor="middle" x="3288.9475" y="-57.8" font-family="Times,serif" font-size="14.00" fill="#000000">of_study_funding</text>
</g>
<!-- synonym -->
<g id="node13" class="node">
<title>synonym</title>
<ellipse fill="none" stroke="#000000" cx="1672.9475" cy="-279" rx="51.9908" ry="18"/>
<text text-anchor="middle" x="1672.9475" y="-275.3" font-family="Times,serif" font-size="14.00" fill="#000000">synonym</text>
</g>
<!-- synonym&#45;&gt;study -->
<g id="edge32" class="edge">
<title>synonym&#45;&gt;study</title>
<path fill="none" stroke="#000000" d="M1725.0418,-277.5884C1946.9518,-271.3666 2804.132,-245.1333 2848.9475,-210 2893.976,-174.6997 2856.8876,-135.6835 2886.9475,-87 2898.2294,-68.7285 2915.4803,-51.9651 2930.268,-39.5374"/>
<polygon fill="#000000" stroke="#000000" points="2932.6324,-42.1258 2938.1764,-33.0972 2928.2122,-36.6979 2932.6324,-42.1258"/>
<text text-anchor="middle" x="2915.4475" y="-144.8" font-family="Times,serif" font-size="14.00" fill="#000000">of_synonym</text>
</g>
<!-- synonym&#45;&gt;participant -->
<g id="edge31" class="edge">
<title>synonym&#45;&gt;participant</title>
<path fill="none" stroke="#000000" d="M1670.223,-260.9956C1667.8078,-238.9915 1666.7019,-201.3202 1681.9475,-174 1693.4496,-153.3882 1713.9623,-137.1695 1732.8015,-125.6497"/>
<polygon fill="#000000" stroke="#000000" points="1734.7065,-128.5905 1741.5839,-120.5312 1731.1818,-122.5427 1734.7065,-128.5905"/>
<text text-anchor="middle" x="1724.4475" y="-188.3" font-family="Times,serif" font-size="14.00" fill="#000000">of_synonym</text>
</g>
<!-- synonym&#45;&gt;sample -->
<g id="edge30" class="edge">
<title>synonym&#45;&gt;sample</title>
<path fill="none" stroke="#000000" d="M1621.0068,-277.7545C1474.003,-274.0124 1061.9229,-261.9445 1003.9475,-243 992.3471,-239.2094 992.4311,-232.131 980.9475,-228 956.7005,-219.2777 800.604,-204.2921 716.4824,-196.7011"/>
<polygon fill="#000000" stroke="#000000" points="716.6199,-193.1994 706.3469,-195.7908 715.9937,-200.1713 716.6199,-193.1994"/>
<text text-anchor="middle" x="1046.4475" y="-231.8" font-family="Times,serif" font-size="14.00" fill="#000000">of_synonym</text>
</g>
<!-- study_personnel -->
<g id="node14" class="node">
<title>study_personnel</title>
<ellipse fill="none" stroke="#000000" cx="3457.9475" cy="-105" rx="87.1846" ry="18"/>
<text text-anchor="middle" x="3457.9475" y="-101.3" font-family="Times,serif" font-size="14.00" fill="#000000">study_personnel</text>
</g>
<!-- study_personnel&#45;&gt;study -->
<g id="edge12" class="edge">
<title>study_personnel&#45;&gt;study</title>
<path fill="none" stroke="#000000" d="M3430.2283,-87.7515C3410.1158,-76.1324 3381.8318,-61.5914 3354.9475,-54 3322.0161,-44.701 3102.5475,-28.2111 3005.2474,-21.2473"/>
<polygon fill="#000000" stroke="#000000" points="3005.3364,-17.7449 2995.1128,-20.5249 3004.8386,-24.7272 3005.3364,-17.7449"/>
<text text-anchor="middle" x="3462.4475" y="-57.8" font-family="Times,serif" font-size="14.00" fill="#000000">of_study_personnel</text>
</g>
<!-- study_arm -->
<g id="node15" class="node">
<title>study_arm</title>
<ellipse fill="none" stroke="#000000" cx="3622.9475" cy="-105" rx="59.5901" ry="18"/>
<text text-anchor="middle" x="3622.9475" y="-101.3" font-family="Times,serif" font-size="14.00" fill="#000000">study_arm</text>
</g>
<!-- study_arm&#45;&gt;study -->
<g id="edge28" class="edge">
<title>study_arm&#45;&gt;study</title>
<path fill="none" stroke="#000000" d="M3601.0558,-88.2344C3584.2335,-76.3662 3559.8933,-61.3094 3535.9475,-54 3485.8774,-38.7163 3134.1809,-24.4335 3005.7529,-19.6715"/>
<polygon fill="#000000" stroke="#000000" points="3005.5847,-16.163 2995.4626,-19.2926 3005.327,-23.1583 3005.5847,-16.163"/>
<text text-anchor="middle" x="3616.4475" y="-57.8" font-family="Times,serif" font-size="14.00" fill="#000000">of_study_arm</text>
</g>
<!-- sample&#45;&gt;pdx -->
<g id="edge16" class="edge">
<title>sample&#45;&gt;pdx</title>
<path fill="none" stroke="#000000" d="M618.5257,-193.3793C481.8438,-197.7854 75.3514,-212.1631 51.9475,-228 43.8532,-233.4773 38.4217,-242.4433 34.8073,-251.3422"/>
<polygon fill="#000000" stroke="#000000" points="31.4958,-250.2093 31.5585,-260.8039 38.1164,-252.4826 31.4958,-250.2093"/>
<text text-anchor="middle" x="88.4475" y="-231.8" font-family="Times,serif" font-size="14.00" fill="#000000">of_sample</text>
</g>
<!-- sample&#45;&gt;participant -->
<g id="edge14" class="edge">
<title>sample&#45;&gt;participant</title>
<path fill="none" stroke="#000000" d="M700.0525,-182.0328C723.7249,-175.366 754.9254,-166.0059 781.9475,-156 797.4361,-150.2648 799.853,-144.7092 815.9475,-141 901.3153,-121.326 1493.7284,-109.6798 1702.4081,-106.1502"/>
<polygon fill="#000000" stroke="#000000" points="1702.7046,-109.6458 1712.6444,-105.9784 1702.587,-102.6468 1702.7046,-109.6458"/>
<text text-anchor="middle" x="852.4475" y="-144.8" font-family="Times,serif" font-size="14.00" fill="#000000">of_sample</text>
</g>
<!-- cell_line -->
<g id="node18" class="node">
<title>cell_line</title>
<ellipse fill="none" stroke="#000000" cx="710.9475" cy="-105" rx="49.2915" ry="18"/>
<text text-anchor="middle" x="710.9475" y="-101.3" font-family="Times,serif" font-size="14.00" fill="#000000">cell_line</text>
</g>
<!-- sample&#45;&gt;cell_line -->
<g id="edge15" class="edge">
<title>sample&#45;&gt;cell_line</title>
<path fill="none" stroke="#000000" d="M635.5148,-177.7702C620.4897,-168.0267 606.6435,-154.4754 615.9475,-141 621.6314,-132.7678 640.9314,-124.7626 660.6645,-118.3996"/>
<polygon fill="#000000" stroke="#000000" points="661.8073,-121.7098 670.3287,-115.4141 659.7411,-115.0217 661.8073,-121.7098"/>
<text text-anchor="middle" x="652.4475" y="-144.8" font-family="Times,serif" font-size="14.00" fill="#000000">of_sample</text>
</g>
<!-- methylation_array_file -->
<g id="node17" class="node">
<title>methylation_array_file</title>
<ellipse fill="none" stroke="#000000" cx="373.9475" cy="-279" rx="115.8798" ry="18"/>
<text text-anchor="middle" x="373.9475" y="-275.3" font-family="Times,serif" font-size="14.00" fill="#000000">methylation_array_file</text>
</g>
<!-- methylation_array_file&#45;&gt;sample -->
<g id="edge17" class="edge">
<title>methylation_array_file&#45;&gt;sample</title>
<path fill="none" stroke="#000000" d="M375.2399,-260.967C377.0363,-249.7671 381.2326,-236.0233 390.9475,-228 407.4342,-214.3842 534.602,-202.1583 609.0801,-196.0708"/>
<polygon fill="#000000" stroke="#000000" points="609.5363,-199.5455 619.2226,-195.2531 608.9736,-192.5682 609.5363,-199.5455"/>
<text text-anchor="middle" x="482.4475" y="-231.8" font-family="Times,serif" font-size="14.00" fill="#000000">of_methylation_array_file</text>
</g>
<!-- cell_line&#45;&gt;study -->
<g id="edge22" class="edge">
<title>cell_line&#45;&gt;study</title>
<path fill="none" stroke="#000000" d="M760.2551,-103.0917C1058.7016,-91.5415 2620.4463,-31.1004 2912.0355,-19.8155"/>
<polygon fill="#000000" stroke="#000000" points="2912.4019,-23.3041 2922.2591,-19.4199 2912.1312,-16.3093 2912.4019,-23.3041"/>
<text text-anchor="middle" x="2009.4475" y="-57.8" font-family="Times,serif" font-size="14.00" fill="#000000">of_cell_line</text>
</g>
<!-- cell_line&#45;&gt;sample -->
<g id="edge23" class="edge">
<title>cell_line&#45;&gt;sample</title>
<path fill="none" stroke="#000000" d="M704.3305,-122.9237C700.3695,-132.9144 694.9463,-145.4342 688.9475,-156 686.9908,-159.4465 684.7715,-162.9604 682.474,-166.3758"/>
<polygon fill="#000000" stroke="#000000" points="679.6015,-164.3761 676.7069,-174.5679 685.3254,-168.4057 679.6015,-164.3761"/>
<text text-anchor="middle" x="737.4475" y="-144.8" font-family="Times,serif" font-size="14.00" fill="#000000">of_cell_line</text>
</g>
<!-- cytogenomic_file -->
<g id="node19" class="node">
<title>cytogenomic_file</title>
<ellipse fill="none" stroke="#000000" cx="596.9475" cy="-279" rx="89.8845" ry="18"/>
<text text-anchor="middle" x="596.9475" y="-275.3" font-family="Times,serif" font-size="14.00" fill="#000000">cytogenomic_file</text>
</g>
<!-- cytogenomic_file&#45;&gt;sample -->
<g id="edge34" class="edge">
<title>cytogenomic_file&#45;&gt;sample</title>
<path fill="none" stroke="#000000" d="M584.0762,-260.9587C578.4525,-250.6949 574.4525,-237.9449 580.9475,-228 588.4675,-216.4858 600.5804,-208.6305 613.2145,-203.2803"/>
<polygon fill="#000000" stroke="#000000" points="614.7673,-206.4366 622.9101,-199.6582 612.3175,-199.8792 614.7673,-206.4366"/>
<text text-anchor="middle" x="652.4475" y="-231.8" font-family="Times,serif" font-size="14.00" fill="#000000">of_cytogenomic_file</text>
</g>
<!-- family_relationship -->
<g id="node20" class="node">
<title>family_relationship</title>
<ellipse fill="none" stroke="#000000" cx="2361.9475" cy="-192" rx="100.1823" ry="18"/>
<text text-anchor="middle" x="2361.9475" y="-188.3" font-family="Times,serif" font-size="14.00" fill="#000000">family_relationship</text>
</g>
<!-- family_relationship&#45;&gt;participant -->
<g id="edge24" class="edge">
<title>family_relationship&#45;&gt;participant</title>
<path fill="none" stroke="#000000" d="M2329.5434,-174.959C2305.7188,-163.2797 2272.1848,-148.578 2240.9475,-141 2168.3017,-123.3766 1958.8392,-112.4731 1847.1293,-107.7455"/>
<polygon fill="#000000" stroke="#000000" points="1847.0974,-104.2413 1836.96,-107.3208 1846.8052,-111.2352 1847.0974,-104.2413"/>
<text text-anchor="middle" x="2364.4475" y="-144.8" font-family="Times,serif" font-size="14.00" fill="#000000">of_family_relationship</text>
</g>
<!-- molecular_test -->
<g id="node21" class="node">
<title>molecular_test</title>
<ellipse fill="none" stroke="#000000" cx="1089.9475" cy="-192" rx="79.8859" ry="18"/>
<text text-anchor="middle" x="1089.9475" y="-188.3" font-family="Times,serif" font-size="14.00" fill="#000000">molecular_test</text>
</g>
<!-- molecular_test&#45;&gt;participant -->
<g id="edge19" class="edge">
<title>molecular_test&#45;&gt;participant</title>
<path fill="none" stroke="#000000" d="M1107.8116,-174.1969C1120.8099,-162.4799 1139.479,-148.0502 1158.9475,-141 1208.8561,-122.9265 1550.7106,-111.2601 1702.5453,-106.913"/>
<polygon fill="#000000" stroke="#000000" points="1702.8079,-110.4071 1712.7046,-106.625 1702.6094,-103.4099 1702.8079,-110.4071"/>
<text text-anchor="middle" x="1222.9475" y="-144.8" font-family="Times,serif" font-size="14.00" fill="#000000">of_molecular_test</text>
</g>
<!-- radiology_file -->
<g id="node22" class="node">
<title>radiology_file</title>
<ellipse fill="none" stroke="#000000" cx="1260.9475" cy="-192" rx="73.387" ry="18"/>
<text text-anchor="middle" x="1260.9475" y="-188.3" font-family="Times,serif" font-size="14.00" fill="#000000">radiology_file</text>
</g>
<!-- radiology_file&#45;&gt;participant -->
<g id="edge18" class="edge">
<title>radiology_file&#45;&gt;participant</title>
<path fill="none" stroke="#000000" d="M1273.7817,-174.0858C1283.1926,-162.4783 1297.0622,-148.2225 1312.9475,-141 1347.4615,-125.3077 1581.649,-113.2058 1702.7365,-107.9153"/>
<polygon fill="#000000" stroke="#000000" points="1703.1887,-111.3991 1713.0281,-107.4702 1702.8861,-104.4056 1703.1887,-111.3991"/>
<text text-anchor="middle" x="1371.9475" y="-144.8" font-family="Times,serif" font-size="14.00" fill="#000000">of_radiology_file</text>
</g>
<!-- medical_history -->
<g id="node23" class="node">
<title>medical_history</title>
<ellipse fill="none" stroke="#000000" cx="1437.9475" cy="-192" rx="85.2851" ry="18"/>
<text text-anchor="middle" x="1437.9475" y="-188.3" font-family="Times,serif" font-size="14.00" fill="#000000">medical_history</text>
</g>
<!-- medical_history&#45;&gt;participant -->
<g id="edge11" class="edge">
<title>medical_history&#45;&gt;participant</title>
<path fill="none" stroke="#000000" d="M1434.5157,-173.5697C1433.6152,-162.645 1434.6864,-149.3465 1442.9475,-141 1460.883,-122.8791 1610.9243,-112.6637 1703.0549,-108.0453"/>
<polygon fill="#000000" stroke="#000000" points="1703.3455,-111.5354 1713.1619,-107.5494 1703.0024,-104.5438 1703.3455,-111.5354"/>
<text text-anchor="middle" x="1510.9475" y="-144.8" font-family="Times,serif" font-size="14.00" fill="#000000">of_medical_history</text>
</g>
<!-- survival -->
<g id="node24" class="node">
<title>survival</title>
<ellipse fill="none" stroke="#000000" cx="1588.9475" cy="-192" rx="48.1917" ry="18"/>
<text text-anchor="middle" x="1588.9475" y="-188.3" font-family="Times,serif" font-size="14.00" fill="#000000">survival</text>
</g>
<!-- survival&#45;&gt;participant -->
<g id="edge1" class="edge">
<title>survival&#45;&gt;participant</title>
<path fill="none" stroke="#000000" d="M1584.1292,-173.9927C1582.394,-163.2273 1582.4248,-149.9476 1589.9475,-141 1604.5807,-123.5953 1657.8561,-114.4778 1703.5009,-109.7793"/>
<polygon fill="#000000" stroke="#000000" points="1704.0918,-113.2384 1713.7063,-108.7874 1703.4146,-106.2713 1704.0918,-113.2384"/>
<text text-anchor="middle" x="1629.4475" y="-144.8" font-family="Times,serif" font-size="14.00" fill="#000000">of_survival</text>
</g>
<!-- clinical_measure_file -->
<g id="node25" class="node">
<title>clinical_measure_file</title>
<ellipse fill="none" stroke="#000000" cx="2730.9475" cy="-192" rx="108.5808" ry="18"/>
<text text-anchor="middle" x="2730.9475" y="-188.3" font-family="Times,serif" font-size="14.00" fill="#000000">clinical_measure_file</text>
</g>
<!-- clinical_measure_file&#45;&gt;study -->
<g id="edge6" class="edge">
<title>clinical_measure_file&#45;&gt;study</title>
<path fill="none" stroke="#000000" d="M2723.5397,-173.9421C2718.8204,-163.6729 2712.0704,-150.9229 2703.9475,-141 2695.945,-131.2243 2687.3576,-134.4165 2681.9475,-123 2675.0958,-108.5413 2672.0956,-99.6071 2681.9475,-87 2710.1244,-50.9433 2841.7895,-31.0015 2912.9763,-22.6877"/>
<polygon fill="#000000" stroke="#000000" points="2913.4807,-26.153 2923.0209,-21.545 2912.6894,-19.1979 2913.4807,-26.153"/>
<text text-anchor="middle" x="2767.9475" y="-101.3" font-family="Times,serif" font-size="14.00" fill="#000000">of_clinical_measure_file</text>
</g>
<!-- clinical_measure_file&#45;&gt;participant -->
<g id="edge5" class="edge">
<title>clinical_measure_file&#45;&gt;participant</title>
<path fill="none" stroke="#000000" d="M2647.8898,-180.348C2603.1616,-173.4074 2552.95,-164.3506 2531.9475,-156 2520.607,-151.491 2520.5569,-144.7631 2508.9475,-141 2447.218,-120.991 2020.0285,-110.0483 1847.2395,-106.3988"/>
<polygon fill="#000000" stroke="#000000" points="1847.2922,-102.8992 1837.2212,-106.1894 1847.1458,-109.8977 1847.2922,-102.8992"/>
<text text-anchor="middle" x="2617.9475" y="-144.8" font-family="Times,serif" font-size="14.00" fill="#000000">of_clinical_measure_file</text>
</g>
<!-- generic_file -->
<g id="node26" class="node">
<title>generic_file</title>
<ellipse fill="none" stroke="#000000" cx="2497.9475" cy="-279" rx="65.7887" ry="18"/>
<text text-anchor="middle" x="2497.9475" y="-275.3" font-family="Times,serif" font-size="14.00" fill="#000000">generic_file</text>
</g>
<!-- generic_file&#45;&gt;study -->
<g id="edge7" class="edge">
<title>generic_file&#45;&gt;study</title>
<path fill="none" stroke="#000000" d="M2562.4533,-275.463C2800.0605,-261.7868 3616.6111,-208.8197 3691.9475,-123 3713.2731,-98.7069 3697.2163,-69.6785 3668.9475,-54 3639.9326,-37.9077 3158.6043,-23.4468 3005.3913,-19.233"/>
<polygon fill="#000000" stroke="#000000" points="3005.4512,-15.7334 2995.3593,-18.9589 3005.2599,-22.7308 3005.4512,-15.7334"/>
<text text-anchor="middle" x="3716.9475" y="-144.8" font-family="Times,serif" font-size="14.00" fill="#000000">of_generic_file</text>
</g>
<!-- generic_file&#45;&gt;participant -->
<g id="edge8" class="edge">
<title>generic_file&#45;&gt;participant</title>
<path fill="none" stroke="#000000" d="M2498.1273,-260.9064C2497.3046,-229.155 2490.2554,-164.5418 2447.9475,-141 2422.0527,-126.5911 2015.5852,-112.4399 1847.1731,-107.1641"/>
<polygon fill="#000000" stroke="#000000" points="1847.2594,-103.6652 1837.1552,-106.852 1847.0413,-110.6618 1847.2594,-103.6652"/>
<text text-anchor="middle" x="2543.9475" y="-188.3" font-family="Times,serif" font-size="14.00" fill="#000000">of_generic_file</text>
</g>
<!-- generic_file&#45;&gt;sample -->
<g id="edge9" class="edge">
<title>generic_file&#45;&gt;sample</title>
<path fill="none" stroke="#000000" d="M2432.436,-277.1391C2212.9073,-270.7037 1483.1833,-247.6972 880.9475,-210 824.8054,-206.4858 760.6475,-201.012 716.5459,-197.0229"/>
<polygon fill="#000000" stroke="#000000" points="716.6165,-193.5149 706.3403,-196.0939 715.9818,-200.4861 716.6165,-193.5149"/>
<text text-anchor="middle" x="1554.9475" y="-231.8" font-family="Times,serif" font-size="14.00" fill="#000000">of_generic_file</text>
</g>
</g>
</svg>
