<svg width="3209pt" height="392pt"
 viewBox="0.00 0.00 3209.34 392.00" xmlns="http://www.w3.org/2000/svg" xmlns:xlink="http://www.w3.org/1999/xlink">
<g id="graph0" class="graph" transform="scale(1 1) rotate(0) translate(4 388)">
<title>Perl</title>
<polygon fill="#ffffff" stroke="transparent" points="-4,4 -4,-388 3205.3385,-388 3205.3385,4 -4,4"/>
<!-- family_relationship -->
<g id="node1" class="node">
<title>family_relationship</title>
<ellipse fill="none" stroke="#000000" cx="652.9954" cy="-279" rx="100.1823" ry="18"/>
<text text-anchor="middle" x="652.9954" y="-275.3" font-family="Times,serif" font-size="14.00" fill="#000000">family_relationship</text>
</g>
<!-- participant -->
<g id="node6" class="node">
<title>participant</title>
<ellipse fill="none" stroke="#000000" cx="1352.9954" cy="-192" rx="62.2891" ry="18"/>
<text text-anchor="middle" x="1352.9954" y="-188.3" font-family="Times,serif" font-size="14.00" fill="#000000">participant</text>
</g>
<!-- family_relationship&#45;&gt;participant -->
<g id="edge16" class="edge">
<title>family_relationship&#45;&gt;participant</title>
<path fill="none" stroke="#000000" d="M667.3725,-260.9542C677.8262,-249.288 693.0672,-235.0162 709.9954,-228 761.5399,-206.6365 1123.6554,-196.701 1280.6636,-193.3607"/>
<polygon fill="#000000" stroke="#000000" points="1280.779,-196.8592 1290.7034,-193.1502 1280.6321,-189.8607 1280.779,-196.8592"/>
<text text-anchor="middle" x="789.4954" y="-231.8" font-family="Times,serif" font-size="14.00" fill="#000000">of_family_relationship</text>
</g>
<!-- synonym -->
<g id="node2" class="node">
<title>synonym</title>
<ellipse fill="none" stroke="#000000" cx="51.9954" cy="-366" rx="51.9908" ry="18"/>
<text text-anchor="middle" x="51.9954" y="-362.3" font-family="Times,serif" font-size="14.00" fill="#000000">synonym</text>
</g>
<!-- synonym&#45;&gt;participant -->
<g id="edge3" class="edge">
<title>synonym&#45;&gt;participant</title>
<path fill="none" stroke="#000000" d="M69.6797,-349.005C103.5078,-317.8049 181.1452,-252.3598 260.9954,-228 309.6554,-213.1554 1043.8303,-197.9057 1280.2427,-193.3576"/>
<polygon fill="#000000" stroke="#000000" points="1280.5214,-196.853 1290.4525,-193.1619 1280.3872,-189.8543 1280.5214,-196.853"/>
<text text-anchor="middle" x="228.4954" y="-275.3" font-family="Times,serif" font-size="14.00" fill="#000000">of_synonym</text>
</g>
<!-- study -->
<g id="node24" class="node">
<title>study</title>
<ellipse fill="none" stroke="#000000" cx="2424.9954" cy="-18" rx="36.2938" ry="18"/>
<text text-anchor="middle" x="2424.9954" y="-14.3" font-family="Times,serif" font-size="14.00" fill="#000000">study</text>
</g>
<!-- synonym&#45;&gt;study -->
<g id="edge2" class="edge">
<title>synonym&#45;&gt;study</title>
<path fill="none" stroke="#000000" d="M51.9954,-347.6694C51.9954,-330.0629 51.9954,-302.7135 51.9954,-279 51.9954,-279 51.9954,-279 51.9954,-105 51.9954,-44.5587 2044.4639,-21.8357 2377.926,-18.456"/>
<polygon fill="#000000" stroke="#000000" points="2378.2332,-21.9532 2388.1975,-18.3527 2378.1627,-14.9535 2378.2332,-21.9532"/>
<text text-anchor="middle" x="94.4954" y="-188.3" font-family="Times,serif" font-size="14.00" fill="#000000">of_synonym</text>
</g>
<!-- sample -->
<g id="node28" class="node">
<title>sample</title>
<ellipse fill="none" stroke="#000000" cx="490.9954" cy="-279" rx="44.393" ry="18"/>
<text text-anchor="middle" x="490.9954" y="-275.3" font-family="Times,serif" font-size="14.00" fill="#000000">sample</text>
</g>
<!-- synonym&#45;&gt;sample -->
<g id="edge4" class="edge">
<title>synonym&#45;&gt;sample</title>
<path fill="none" stroke="#000000" d="M80.191,-350.7019C103.1525,-338.9651 136.7651,-323.3952 167.9954,-315 217.4055,-301.7178 358.9125,-289.1872 437.231,-283.0093"/>
<polygon fill="#000000" stroke="#000000" points="437.6869,-286.4844 447.3838,-282.2161 437.1416,-279.5057 437.6869,-286.4844"/>
<text text-anchor="middle" x="210.4954" y="-318.8" font-family="Times,serif" font-size="14.00" fill="#000000">of_synonym</text>
</g>
<!-- cytogenomic_file -->
<g id="node3" class="node">
<title>cytogenomic_file</title>
<ellipse fill="none" stroke="#000000" cx="460.9954" cy="-366" rx="89.8845" ry="18"/>
<text text-anchor="middle" x="460.9954" y="-362.3" font-family="Times,serif" font-size="14.00" fill="#000000">cytogenomic_file</text>
</g>
<!-- cytogenomic_file&#45;&gt;sample -->
<g id="edge35" class="edge">
<title>cytogenomic_file&#45;&gt;sample</title>
<path fill="none" stroke="#000000" d="M458.5248,-347.5362C457.8897,-337.6079 458.2417,-325.3198 461.9954,-315 463.3757,-311.2053 465.3335,-307.5117 467.5886,-304.026"/>
<polygon fill="#000000" stroke="#000000" points="470.5052,-305.9688 473.647,-295.8504 464.8811,-301.8011 470.5052,-305.9688"/>
<text text-anchor="middle" x="533.4954" y="-318.8" font-family="Times,serif" font-size="14.00" fill="#000000">of_cytogenomic_file</text>
</g>
<!-- sequencing_file -->
<g id="node4" class="node">
<title>sequencing_file</title>
<ellipse fill="none" stroke="#000000" cx="651.9954" cy="-366" rx="83.3857" ry="18"/>
<text text-anchor="middle" x="651.9954" y="-362.3" font-family="Times,serif" font-size="14.00" fill="#000000">sequencing_file</text>
</g>
<!-- sequencing_file&#45;&gt;sample -->
<g id="edge34" class="edge">
<title>sequencing_file&#45;&gt;sample</title>
<path fill="none" stroke="#000000" d="M639.4804,-348.099C630.93,-337.0972 618.6948,-323.5234 604.9954,-315 580.9948,-300.0674 570.9391,-305.5468 543.9954,-297 540.8924,-296.0157 537.6939,-294.9808 534.4781,-293.9253"/>
<polygon fill="#000000" stroke="#000000" points="535.4502,-290.5602 524.8567,-290.7275 533.2424,-297.2029 535.4502,-290.5602"/>
<text text-anchor="middle" x="689.4954" y="-318.8" font-family="Times,serif" font-size="14.00" fill="#000000">of_sequencing_file</text>
</g>
<!-- treatment -->
<g id="node5" class="node">
<title>treatment</title>
<ellipse fill="none" stroke="#000000" cx="828.9954" cy="-279" rx="57.6901" ry="18"/>
<text text-anchor="middle" x="828.9954" y="-275.3" font-family="Times,serif" font-size="14.00" fill="#000000">treatment</text>
</g>
<!-- treatment&#45;&gt;participant -->
<g id="edge5" class="edge">
<title>treatment&#45;&gt;participant</title>
<path fill="none" stroke="#000000" d="M847.5335,-261.8312C861.4175,-250.0899 881.4791,-235.3668 901.9954,-228 969.5832,-203.7314 1170.7079,-195.7649 1280.1269,-193.1938"/>
<polygon fill="#000000" stroke="#000000" points="1280.5036,-196.6862 1290.422,-192.9614 1280.3455,-189.688 1280.5036,-196.6862"/>
<text text-anchor="middle" x="948.9954" y="-231.8" font-family="Times,serif" font-size="14.00" fill="#000000">of_treatment</text>
</g>
<!-- consent_group -->
<g id="node21" class="node">
<title>consent_group</title>
<ellipse fill="none" stroke="#000000" cx="1672.9954" cy="-105" rx="79.0865" ry="18"/>
<text text-anchor="middle" x="1672.9954" y="-101.3" font-family="Times,serif" font-size="14.00" fill="#000000">consent_group</text>
</g>
<!-- participant&#45;&gt;consent_group -->
<g id="edge18" class="edge">
<title>participant&#45;&gt;consent_group</title>
<path fill="none" stroke="#000000" d="M1398.5037,-179.6274C1454.6015,-164.3758 1550.1312,-138.4037 1612.3979,-121.4749"/>
<polygon fill="#000000" stroke="#000000" points="1613.3632,-124.8396 1622.0946,-118.8386 1611.5266,-118.0848 1613.3632,-124.8396"/>
<text text-anchor="middle" x="1582.4954" y="-144.8" font-family="Times,serif" font-size="14.00" fill="#000000">of_participant</text>
</g>
<!-- diagnosis -->
<g id="node7" class="node">
<title>diagnosis</title>
<ellipse fill="none" stroke="#000000" cx="1163.9954" cy="-366" rx="54.6905" ry="18"/>
<text text-anchor="middle" x="1163.9954" y="-362.3" font-family="Times,serif" font-size="14.00" fill="#000000">diagnosis</text>
</g>
<!-- diagnosis&#45;&gt;participant -->
<g id="edge25" class="edge">
<title>diagnosis&#45;&gt;participant</title>
<path fill="none" stroke="#000000" d="M1217.1111,-361.4802C1261.2331,-356.5683 1319.2349,-347.0368 1334.9954,-330 1349.3069,-314.5295 1352.472,-256.0589 1353.0362,-220.378"/>
<polygon fill="#000000" stroke="#000000" points="1356.5386,-220.1431 1353.1373,-210.1091 1349.5389,-220.0741 1356.5386,-220.1431"/>
<text text-anchor="middle" x="1395.4954" y="-275.3" font-family="Times,serif" font-size="14.00" fill="#000000">of_diagnosis</text>
</g>
<!-- diagnosis&#45;&gt;sample -->
<g id="edge24" class="edge">
<title>diagnosis&#45;&gt;sample</title>
<path fill="none" stroke="#000000" d="M1111.7857,-360.6076C1053.0103,-354.0804 961.479,-342.4111 928.9954,-330 917.5951,-325.6443 917.6035,-318.767 905.9954,-315 829.3845,-290.1387 623.1119,-312.096 543.9954,-297 540.3443,-296.3033 536.601,-295.413 532.8747,-294.4025"/>
<polygon fill="#000000" stroke="#000000" points="533.7083,-290.9988 523.1252,-291.4971 531.7091,-297.7073 533.7083,-290.9988"/>
<text text-anchor="middle" x="973.4954" y="-318.8" font-family="Times,serif" font-size="14.00" fill="#000000">of_diagnosis</text>
</g>
<!-- study_personnel -->
<g id="node8" class="node">
<title>study_personnel</title>
<ellipse fill="none" stroke="#000000" cx="2463.9954" cy="-105" rx="87.1846" ry="18"/>
<text text-anchor="middle" x="2463.9954" y="-101.3" font-family="Times,serif" font-size="14.00" fill="#000000">study_personnel</text>
</g>
<!-- study_personnel&#45;&gt;study -->
<g id="edge26" class="edge">
<title>study_personnel&#45;&gt;study</title>
<path fill="none" stroke="#000000" d="M2439.7621,-87.5404C2434.232,-82.2588 2429.0803,-75.9826 2425.9954,-69 2422.8953,-61.9829 2421.7787,-53.8752 2421.6582,-46.2184"/>
<polygon fill="#000000" stroke="#000000" points="2425.1567,-46.3209 2422.0186,-36.2015 2418.1612,-46.0692 2425.1567,-46.3209"/>
<text text-anchor="middle" x="2495.4954" y="-57.8" font-family="Times,serif" font-size="14.00" fill="#000000">of_study_personnel</text>
</g>
<!-- medical_history -->
<g id="node9" class="node">
<title>medical_history</title>
<ellipse fill="none" stroke="#000000" cx="989.9954" cy="-279" rx="85.2851" ry="18"/>
<text text-anchor="middle" x="989.9954" y="-275.3" font-family="Times,serif" font-size="14.00" fill="#000000">medical_history</text>
</g>
<!-- medical_history&#45;&gt;participant -->
<g id="edge33" class="edge">
<title>medical_history&#45;&gt;participant</title>
<path fill="none" stroke="#000000" d="M993.3639,-260.9915C996.4707,-249.6525 1002.293,-235.7429 1012.9954,-228 1034.2312,-212.6364 1188.0167,-201.3358 1281.336,-195.8053"/>
<polygon fill="#000000" stroke="#000000" points="1281.7869,-199.285 1291.5658,-195.2077 1281.3786,-192.2969 1281.7869,-199.285"/>
<text text-anchor="middle" x="1080.9954" y="-231.8" font-family="Times,serif" font-size="14.00" fill="#000000">of_medical_history</text>
</g>
<!-- cell_line -->
<g id="node10" class="node">
<title>cell_line</title>
<ellipse fill="none" stroke="#000000" cx="490.9954" cy="-192" rx="49.2915" ry="18"/>
<text text-anchor="middle" x="490.9954" y="-188.3" font-family="Times,serif" font-size="14.00" fill="#000000">cell_line</text>
</g>
<!-- cell_line&#45;&gt;study -->
<g id="edge8" class="edge">
<title>cell_line&#45;&gt;study</title>
<path fill="none" stroke="#000000" d="M538.1607,-186.6279C682.5396,-170.2873 1131.3026,-120.2693 1503.9954,-87 1839.0401,-57.0915 2243.4479,-29.8655 2378.543,-21.0101"/>
<polygon fill="#000000" stroke="#000000" points="2378.797,-24.5011 2388.5472,-20.3557 2378.34,-17.516 2378.797,-24.5011"/>
<text text-anchor="middle" x="1544.4954" y="-101.3" font-family="Times,serif" font-size="14.00" fill="#000000">of_cell_line</text>
</g>
<!-- cell_line&#45;&gt;sample -->
<g id="edge9" class="edge">
<title>cell_line&#45;&gt;sample</title>
<path fill="none" stroke="#000000" d="M490.9954,-210.0034C490.9954,-221.7801 490.9954,-237.4102 490.9954,-250.8156"/>
<polygon fill="#000000" stroke="#000000" points="487.4955,-250.9735 490.9954,-260.9735 494.4955,-250.9736 487.4955,-250.9735"/>
<text text-anchor="middle" x="531.4954" y="-231.8" font-family="Times,serif" font-size="14.00" fill="#000000">of_cell_line</text>
</g>
<!-- pathology_file -->
<g id="node11" class="node">
<title>pathology_file</title>
<ellipse fill="none" stroke="#000000" cx="828.9954" cy="-366" rx="76.0865" ry="18"/>
<text text-anchor="middle" x="828.9954" y="-362.3" font-family="Times,serif" font-size="14.00" fill="#000000">pathology_file</text>
</g>
<!-- pathology_file&#45;&gt;sample -->
<g id="edge39" class="edge">
<title>pathology_file&#45;&gt;sample</title>
<path fill="none" stroke="#000000" d="M806.708,-348.5747C788.6252,-334.5989 765.2934,-316.9931 759.9954,-315 669.8319,-281.0803 638.3057,-316.6357 543.9954,-297 540.407,-296.2529 536.7255,-295.3352 533.0561,-294.3133"/>
<polygon fill="#000000" stroke="#000000" points="534.0289,-290.9511 523.444,-291.411 532.0055,-297.6523 534.0289,-290.9511"/>
<text text-anchor="middle" x="840.9954" y="-318.8" font-family="Times,serif" font-size="14.00" fill="#000000">of_pathology_file</text>
</g>
<!-- clinical_measure_file -->
<g id="node12" class="node">
<title>clinical_measure_file</title>
<ellipse fill="none" stroke="#000000" cx="2441.9954" cy="-279" rx="108.5808" ry="18"/>
<text text-anchor="middle" x="2441.9954" y="-275.3" font-family="Times,serif" font-size="14.00" fill="#000000">clinical_measure_file</text>
</g>
<!-- clinical_measure_file&#45;&gt;participant -->
<g id="edge12" class="edge">
<title>clinical_measure_file&#45;&gt;participant</title>
<path fill="none" stroke="#000000" d="M2360.2106,-267.0881C2304.1688,-258.6415 2237.7404,-247.9602 2224.9954,-243 2213.6223,-238.5737 2213.6172,-231.7246 2201.9954,-228 2129.2259,-204.6787 1618.14,-195.5261 1425.8862,-192.8837"/>
<polygon fill="#000000" stroke="#000000" points="1425.6495,-189.3803 1415.603,-192.7444 1425.5546,-196.3797 1425.6495,-189.3803"/>
<text text-anchor="middle" x="2310.9954" y="-231.8" font-family="Times,serif" font-size="14.00" fill="#000000">of_clinical_measure_file</text>
</g>
<!-- clinical_measure_file&#45;&gt;study -->
<g id="edge11" class="edge">
<title>clinical_measure_file&#45;&gt;study</title>
<path fill="none" stroke="#000000" d="M2430.0243,-260.7728C2412.3254,-232.6174 2379.979,-176.2238 2367.9954,-123 2364.4809,-107.3908 2362.5809,-102.056 2367.9954,-87 2374.3093,-69.4431 2387.2408,-53.1757 2399.1927,-40.8507"/>
<polygon fill="#000000" stroke="#000000" points="2401.7732,-43.2216 2406.4399,-33.7099 2396.8602,-38.2354 2401.7732,-43.2216"/>
<text text-anchor="middle" x="2462.9954" y="-144.8" font-family="Times,serif" font-size="14.00" fill="#000000">of_clinical_measure_file</text>
</g>
<!-- methylation_array_file -->
<g id="node13" class="node">
<title>methylation_array_file</title>
<ellipse fill="none" stroke="#000000" cx="237.9954" cy="-366" rx="115.8798" ry="18"/>
<text text-anchor="middle" x="237.9954" y="-362.3" font-family="Times,serif" font-size="14.00" fill="#000000">methylation_array_file</text>
</g>
<!-- methylation_array_file&#45;&gt;sample -->
<g id="edge6" class="edge">
<title>methylation_array_file&#45;&gt;sample</title>
<path fill="none" stroke="#000000" d="M245.5112,-347.8085C251.1281,-336.5437 259.923,-322.7868 271.9954,-315 298.5914,-297.8453 381.2338,-287.8829 437.0409,-282.9461"/>
<polygon fill="#000000" stroke="#000000" points="437.4646,-286.4228 447.1295,-282.0822 436.8673,-279.4483 437.4646,-286.4228"/>
<text text-anchor="middle" x="363.4954" y="-318.8" font-family="Times,serif" font-size="14.00" fill="#000000">of_methylation_array_file</text>
</g>
<!-- exposure -->
<g id="node14" class="node">
<title>exposure</title>
<ellipse fill="none" stroke="#000000" cx="1145.9954" cy="-279" rx="53.0913" ry="18"/>
<text text-anchor="middle" x="1145.9954" y="-275.3" font-family="Times,serif" font-size="14.00" fill="#000000">exposure</text>
</g>
<!-- exposure&#45;&gt;participant -->
<g id="edge20" class="edge">
<title>exposure&#45;&gt;participant</title>
<path fill="none" stroke="#000000" d="M1147.8612,-260.8786C1149.9682,-249.7889 1154.4526,-236.2 1163.9954,-228 1181.7561,-212.7384 1236.7576,-203.3952 1282.8782,-198.0655"/>
<polygon fill="#000000" stroke="#000000" points="1283.3161,-201.5385 1292.8689,-196.9564 1282.5437,-194.5812 1283.3161,-201.5385"/>
<text text-anchor="middle" x="1207.4954" y="-231.8" font-family="Times,serif" font-size="14.00" fill="#000000">of_exposure</text>
</g>
<!-- publication -->
<g id="node15" class="node">
<title>publication</title>
<ellipse fill="none" stroke="#000000" cx="2669.9954" cy="-105" rx="63.0888" ry="18"/>
<text text-anchor="middle" x="2669.9954" y="-101.3" font-family="Times,serif" font-size="14.00" fill="#000000">publication</text>
</g>
<!-- publication&#45;&gt;study -->
<g id="edge38" class="edge">
<title>publication&#45;&gt;study</title>
<path fill="none" stroke="#000000" d="M2648.9991,-87.9491C2634.1746,-76.7269 2613.3929,-62.577 2592.9954,-54 2553.6234,-37.4444 2505.7369,-28.1463 2471.178,-23.1665"/>
<polygon fill="#000000" stroke="#000000" points="2471.288,-19.6488 2460.9049,-21.7564 2470.336,-26.5838 2471.288,-19.6488"/>
<text text-anchor="middle" x="2669.9954" y="-57.8" font-family="Times,serif" font-size="14.00" fill="#000000">of_publication</text>
</g>
<!-- laboratory_test -->
<g id="node16" class="node">
<title>laboratory_test</title>
<ellipse fill="none" stroke="#000000" cx="1588.9954" cy="-366" rx="81.7856" ry="18"/>
<text text-anchor="middle" x="1588.9954" y="-362.3" font-family="Times,serif" font-size="14.00" fill="#000000">laboratory_test</text>
</g>
<!-- laboratory_test&#45;&gt;participant -->
<g id="edge28" class="edge">
<title>laboratory_test&#45;&gt;participant</title>
<path fill="none" stroke="#000000" d="M1663.041,-358.2648C1738.6227,-350.0081 1845.7561,-337.1516 1851.9954,-330 1863.8006,-316.4688 1863.8146,-297.8789 1838.9954,-261 1824.9472,-240.1258 1816.6141,-236.6743 1792.9954,-228 1727.48,-203.9387 1532.4876,-195.8925 1425.4038,-193.2523"/>
<polygon fill="#000000" stroke="#000000" points="1425.4027,-189.7514 1415.3226,-193.0134 1425.2368,-196.7495 1425.4027,-189.7514"/>
<text text-anchor="middle" x="1922.4954" y="-275.3" font-family="Times,serif" font-size="14.00" fill="#000000">of_laboratory_test</text>
</g>
<!-- laboratory_test&#45;&gt;sample -->
<g id="edge29" class="edge">
<title>laboratory_test&#45;&gt;sample</title>
<path fill="none" stroke="#000000" d="M1509.1605,-361.8235C1362.4271,-353.9981 1062.7885,-337.2644 1040.9954,-330 1029.4176,-326.1407 1029.6254,-318.6989 1017.9954,-315 917.5442,-283.0519 647.6507,-316.1491 543.9954,-297 540.3403,-296.3248 536.5942,-295.4495 532.8659,-294.449"/>
<polygon fill="#000000" stroke="#000000" points="533.6957,-291.0445 523.1134,-291.5596 531.7072,-297.7561 533.6957,-291.0445"/>
<text text-anchor="middle" x="1106.4954" y="-318.8" font-family="Times,serif" font-size="14.00" fill="#000000">of_laboratory_test</text>
</g>
<!-- survival -->
<g id="node17" class="node">
<title>survival</title>
<ellipse fill="none" stroke="#000000" cx="1264.9954" cy="-279" rx="48.1917" ry="18"/>
<text text-anchor="middle" x="1264.9954" y="-275.3" font-family="Times,serif" font-size="14.00" fill="#000000">survival</text>
</g>
<!-- survival&#45;&gt;participant -->
<g id="edge1" class="edge">
<title>survival&#45;&gt;participant</title>
<path fill="none" stroke="#000000" d="M1257.8029,-261.0313C1254.8495,-250.5432 1253.458,-237.5407 1259.9954,-228 1264.9703,-220.7395 1280.6628,-213.5678 1297.7749,-207.5595"/>
<polygon fill="#000000" stroke="#000000" points="1298.9969,-210.8414 1307.3687,-204.348 1296.7749,-204.2034 1298.9969,-210.8414"/>
<text text-anchor="middle" x="1299.4954" y="-231.8" font-family="Times,serif" font-size="14.00" fill="#000000">of_survival</text>
</g>
<!-- pdx -->
<g id="node18" class="node">
<title>pdx</title>
<ellipse fill="none" stroke="#000000" cx="298.9954" cy="-192" rx="27.8951" ry="18"/>
<text text-anchor="middle" x="298.9954" y="-188.3" font-family="Times,serif" font-size="14.00" fill="#000000">pdx</text>
</g>
<!-- pdx&#45;&gt;study -->
<g id="edge31" class="edge">
<title>pdx&#45;&gt;study</title>
<path fill="none" stroke="#000000" d="M326.2251,-187.5101C426.3027,-171.1854 783.3634,-114.5017 1079.9954,-87 1587.3866,-39.9581 2205.6517,-23.0043 2378.2867,-19.0027"/>
<polygon fill="#000000" stroke="#000000" points="2378.6216,-22.496 2388.539,-18.7682 2378.4615,-15.4979 2378.6216,-22.496"/>
<text text-anchor="middle" x="1103.9954" y="-101.3" font-family="Times,serif" font-size="14.00" fill="#000000">of_pdx</text>
</g>
<!-- pdx&#45;&gt;sample -->
<g id="edge32" class="edge">
<title>pdx&#45;&gt;sample</title>
<path fill="none" stroke="#000000" d="M280.8319,-206.2205C269.3399,-216.9232 258.3221,-231.6399 267.9954,-243 278.8934,-255.7984 375.2225,-267.6016 437.66,-274.0018"/>
<polygon fill="#000000" stroke="#000000" points="437.4512,-277.4984 447.752,-275.0197 438.1538,-270.5338 437.4512,-277.4984"/>
<text text-anchor="middle" x="291.9954" y="-231.8" font-family="Times,serif" font-size="14.00" fill="#000000">of_pdx</text>
</g>
<!-- study_admin -->
<g id="node19" class="node">
<title>study_admin</title>
<ellipse fill="none" stroke="#000000" cx="2820.9954" cy="-105" rx="70.3881" ry="18"/>
<text text-anchor="middle" x="2820.9954" y="-101.3" font-family="Times,serif" font-size="14.00" fill="#000000">study_admin</text>
</g>
<!-- study_admin&#45;&gt;study -->
<g id="edge27" class="edge">
<title>study_admin&#45;&gt;study</title>
<path fill="none" stroke="#000000" d="M2795.6543,-88.1918C2776.9303,-76.6252 2750.3865,-61.9625 2724.9954,-54 2678.8386,-39.5255 2543.482,-27.2221 2471.4059,-21.474"/>
<polygon fill="#000000" stroke="#000000" points="2471.493,-17.9701 2461.249,-20.674 2470.9433,-24.9485 2471.493,-17.9701"/>
<text text-anchor="middle" x="2816.4954" y="-57.8" font-family="Times,serif" font-size="14.00" fill="#000000">of_study_admin</text>
</g>
<!-- genetic_analysis -->
<g id="node20" class="node">
<title>genetic_analysis</title>
<ellipse fill="none" stroke="#000000" cx="1861.9954" cy="-366" rx="87.9851" ry="18"/>
<text text-anchor="middle" x="1861.9954" y="-362.3" font-family="Times,serif" font-size="14.00" fill="#000000">genetic_analysis</text>
</g>
<!-- genetic_analysis&#45;&gt;participant -->
<g id="edge37" class="edge">
<title>genetic_analysis&#45;&gt;participant</title>
<path fill="none" stroke="#000000" d="M1908.5102,-350.6389C1957.3264,-332.0731 2023.0024,-298.6049 1991.9954,-261 1956.4401,-217.8791 1585.1524,-199.9906 1425.4125,-194.2511"/>
<polygon fill="#000000" stroke="#000000" points="1425.3198,-190.7457 1415.2024,-193.8905 1425.0726,-197.7414 1425.3198,-190.7457"/>
<text text-anchor="middle" x="2068.9954" y="-275.3" font-family="Times,serif" font-size="14.00" fill="#000000">of_genetic_analysis</text>
</g>
<!-- genetic_analysis&#45;&gt;sample -->
<g id="edge36" class="edge">
<title>genetic_analysis&#45;&gt;sample</title>
<path fill="none" stroke="#000000" d="M1784.1099,-357.711C1751.905,-354.4362 1714.1727,-350.7957 1679.9954,-348 1556.5933,-337.9056 1525.5491,-338.0289 1401.9954,-330 1299.7716,-323.3572 1274.3222,-319.8016 1171.9954,-315 1032.536,-308.456 681.4017,-321.7238 543.9954,-297 540.2864,-296.3326 536.4848,-295.4544 532.7038,-294.4444"/>
<polygon fill="#000000" stroke="#000000" points="533.4035,-291.0015 522.8213,-291.518 531.4159,-297.7134 533.4035,-291.0015"/>
<text text-anchor="middle" x="1471.9954" y="-318.8" font-family="Times,serif" font-size="14.00" fill="#000000">of_genetic_analysis</text>
</g>
<!-- consent_group&#45;&gt;study -->
<g id="edge19" class="edge">
<title>consent_group&#45;&gt;study</title>
<path fill="none" stroke="#000000" d="M1743.7417,-96.8153C1896.3059,-79.1649 2252.6797,-37.9355 2379.3299,-23.2831"/>
<polygon fill="#000000" stroke="#000000" points="2379.9255,-26.7376 2389.457,-22.1115 2379.121,-19.784 2379.9255,-26.7376"/>
<text text-anchor="middle" x="2157.4954" y="-57.8" font-family="Times,serif" font-size="14.00" fill="#000000">of_consent_group</text>
</g>
<!-- study_arm -->
<g id="node22" class="node">
<title>study_arm</title>
<ellipse fill="none" stroke="#000000" cx="2968.9954" cy="-105" rx="59.5901" ry="18"/>
<text text-anchor="middle" x="2968.9954" y="-101.3" font-family="Times,serif" font-size="14.00" fill="#000000">study_arm</text>
</g>
<!-- study_arm&#45;&gt;study -->
<g id="edge17" class="edge">
<title>study_arm&#45;&gt;study</title>
<path fill="none" stroke="#000000" d="M2945.6592,-88.3682C2927.7751,-76.5683 2901.9987,-61.5383 2876.9954,-54 2802.109,-31.4222 2571.1301,-22.2042 2471.512,-19.2094"/>
<polygon fill="#000000" stroke="#000000" points="2471.5403,-15.7089 2461.4421,-18.9146 2471.3353,-22.7059 2471.5403,-15.7089"/>
<text text-anchor="middle" x="2959.4954" y="-57.8" font-family="Times,serif" font-size="14.00" fill="#000000">of_study_arm</text>
</g>
<!-- radiology_file -->
<g id="node23" class="node">
<title>radiology_file</title>
<ellipse fill="none" stroke="#000000" cx="1528.9954" cy="-279" rx="73.387" ry="18"/>
<text text-anchor="middle" x="1528.9954" y="-275.3" font-family="Times,serif" font-size="14.00" fill="#000000">radiology_file</text>
</g>
<!-- radiology_file&#45;&gt;participant -->
<g id="edge7" class="edge">
<title>radiology_file&#45;&gt;participant</title>
<path fill="none" stroke="#000000" d="M1496.3036,-262.8399C1467.3846,-248.5447 1425.0644,-227.625 1393.9073,-212.2235"/>
<polygon fill="#000000" stroke="#000000" points="1395.1389,-208.9281 1384.6234,-207.6343 1392.037,-215.2033 1395.1389,-208.9281"/>
<text text-anchor="middle" x="1509.9954" y="-231.8" font-family="Times,serif" font-size="14.00" fill="#000000">of_radiology_file</text>
</g>
<!-- generic_file -->
<g id="node25" class="node">
<title>generic_file</title>
<ellipse fill="none" stroke="#000000" cx="2208.9954" cy="-366" rx="65.7887" ry="18"/>
<text text-anchor="middle" x="2208.9954" y="-362.3" font-family="Times,serif" font-size="14.00" fill="#000000">generic_file</text>
</g>
<!-- generic_file&#45;&gt;participant -->
<g id="edge22" class="edge">
<title>generic_file&#45;&gt;participant</title>
<path fill="none" stroke="#000000" d="M2202.9575,-347.7567C2193.966,-323.663 2174.6359,-281.8545 2142.9954,-261 2083.8359,-222.0076 1608.9825,-201.1079 1425.2363,-194.4167"/>
<polygon fill="#000000" stroke="#000000" points="1425.2514,-190.915 1415.1318,-194.0524 1424.9991,-197.9105 1425.2514,-190.915"/>
<text text-anchor="middle" x="2228.9954" y="-275.3" font-family="Times,serif" font-size="14.00" fill="#000000">of_generic_file</text>
</g>
<!-- generic_file&#45;&gt;study -->
<g id="edge23" class="edge">
<title>generic_file&#45;&gt;study</title>
<path fill="none" stroke="#000000" d="M2274.2923,-363.9344C2380.5119,-358.7772 2578.9954,-340.8637 2578.9954,-279 2578.9954,-279 2578.9954,-279 2578.9954,-105 2578.9954,-81.4948 2581.7503,-70.4853 2564.9954,-54 2551.6036,-40.8237 2505.9897,-30.746 2470.4243,-24.6493"/>
<polygon fill="#000000" stroke="#000000" points="2470.6639,-21.1414 2460.2265,-22.9611 2469.5205,-28.0474 2470.6639,-21.1414"/>
<text text-anchor="middle" x="2631.9954" y="-188.3" font-family="Times,serif" font-size="14.00" fill="#000000">of_generic_file</text>
</g>
<!-- generic_file&#45;&gt;sample -->
<g id="edge21" class="edge">
<title>generic_file&#45;&gt;sample</title>
<path fill="none" stroke="#000000" d="M2146.9995,-360.0459C2029.2371,-349.006 1765.0197,-325.5287 1541.9954,-315 1431.2118,-309.7701 653.2522,-316.0604 543.9954,-297 540.2829,-296.3523 536.4789,-295.4878 532.6963,-294.487"/>
<polygon fill="#000000" stroke="#000000" points="533.3927,-291.0435 522.8112,-291.5748 531.4145,-297.7582 533.3927,-291.0435"/>
<text text-anchor="middle" x="1832.9954" y="-318.8" font-family="Times,serif" font-size="14.00" fill="#000000">of_generic_file</text>
</g>
<!-- treatment_response -->
<g id="node26" class="node">
<title>treatment_response</title>
<ellipse fill="none" stroke="#000000" cx="1724.9954" cy="-279" rx="104.7816" ry="18"/>
<text text-anchor="middle" x="1724.9954" y="-275.3" font-family="Times,serif" font-size="14.00" fill="#000000">treatment_response</text>
</g>
<!-- treatment_response&#45;&gt;participant -->
<g id="edge30" class="edge">
<title>treatment_response&#45;&gt;participant</title>
<path fill="none" stroke="#000000" d="M1681.9746,-262.4922C1651.8347,-251.4413 1610.4142,-237.2745 1572.9954,-228 1522.6357,-215.518 1464.69,-206.2367 1420.9131,-200.2268"/>
<polygon fill="#000000" stroke="#000000" points="1421.3297,-196.7513 1410.9513,-198.8819 1420.3931,-203.6884 1421.3297,-196.7513"/>
<text text-anchor="middle" x="1705.9954" y="-231.8" font-family="Times,serif" font-size="14.00" fill="#000000">of_treatment_response</text>
</g>
<!-- study_funding -->
<g id="node27" class="node">
<title>study_funding</title>
<ellipse fill="none" stroke="#000000" cx="3123.9954" cy="-105" rx="77.1866" ry="18"/>
<text text-anchor="middle" x="3123.9954" y="-101.3" font-family="Times,serif" font-size="14.00" fill="#000000">study_funding</text>
</g>
<!-- study_funding&#45;&gt;study -->
<g id="edge10" class="edge">
<title>study_funding&#45;&gt;study</title>
<path fill="none" stroke="#000000" d="M3095.1225,-88.2811C3073.1139,-76.4367 3041.641,-61.3893 3011.9954,-54 2909.9551,-28.5661 2592.0518,-20.7542 2471.7543,-18.6728"/>
<polygon fill="#000000" stroke="#000000" points="2471.8069,-15.1733 2461.7496,-18.5051 2471.6895,-22.1723 2471.8069,-15.1733"/>
<text text-anchor="middle" x="3114.9954" y="-57.8" font-family="Times,serif" font-size="14.00" fill="#000000">of_study_funding</text>
</g>
<!-- sample&#45;&gt;participant -->
<g id="edge13" class="edge">
<title>sample&#45;&gt;participant</title>
<path fill="none" stroke="#000000" d="M521.2821,-265.7026C554.9896,-250.9514 605.3685,-229.067 609.9954,-228 674.0777,-213.2216 1106.5732,-199.1693 1280.6386,-194.0438"/>
<polygon fill="#000000" stroke="#000000" points="1280.8351,-197.5396 1290.7283,-193.7482 1280.63,-190.5426 1280.8351,-197.5396"/>
<text text-anchor="middle" x="646.4954" y="-231.8" font-family="Times,serif" font-size="14.00" fill="#000000">of_sample</text>
</g>
<!-- sample&#45;&gt;cell_line -->
<g id="edge15" class="edge">
<title>sample&#45;&gt;cell_line</title>
<path fill="none" stroke="#000000" d="M453.0801,-269.6133C427.8738,-261.3715 401.5131,-247.615 413.9954,-228 420.1843,-218.2745 429.766,-211.1323 440.0935,-205.9024"/>
<polygon fill="#000000" stroke="#000000" points="441.5986,-209.0634 449.2947,-201.7818 438.7375,-202.6748 441.5986,-209.0634"/>
<text text-anchor="middle" x="450.4954" y="-231.8" font-family="Times,serif" font-size="14.00" fill="#000000">of_sample</text>
</g>
<!-- sample&#45;&gt;pdx -->
<g id="edge14" class="edge">
<title>sample&#45;&gt;pdx</title>
<path fill="none" stroke="#000000" d="M449.1231,-272.918C409.1963,-266.5 352.4925,-255.5833 333.9954,-243 324.9389,-236.839 317.543,-227.4912 311.9221,-218.4741"/>
<polygon fill="#000000" stroke="#000000" points="314.9032,-216.6368 306.8971,-209.6976 308.8285,-220.1149 314.9032,-216.6368"/>
<text text-anchor="middle" x="370.4954" y="-231.8" font-family="Times,serif" font-size="14.00" fill="#000000">of_sample</text>
</g>
</g>
</svg>
