<svg width="2922pt" height="305pt"
 viewBox="0.00 0.00 2922.24 305.00" xmlns="http://www.w3.org/2000/svg" xmlns:xlink="http://www.w3.org/1999/xlink">
<g id="graph0" class="graph" transform="scale(1 1) rotate(0) translate(4 301)">
<title>Perl</title>
<polygon fill="#ffffff" stroke="transparent" points="-4,4 -4,-301 2918.2382,-301 2918.2382,4 -4,4"/>
<!-- study_admin -->
<g id="node1" class="node">
<title>study_admin</title>
<ellipse fill="none" stroke="#000000" cx="70.1938" cy="-105" rx="70.3881" ry="18"/>
<text text-anchor="middle" x="70.1938" y="-101.3" font-family="Times,serif" font-size="14.00" fill="#000000">study_admin</text>
</g>
<!-- study -->
<g id="node18" class="node">
<title>study</title>
<ellipse fill="none" stroke="#000000" cx="2171.1938" cy="-18" rx="36.2938" ry="18"/>
<text text-anchor="middle" x="2171.1938" y="-14.3" font-family="Times,serif" font-size="14.00" fill="#000000">study</text>
</g>
<!-- study_admin&#45;&gt;study -->
<g id="edge9" class="edge">
<title>study_admin&#45;&gt;study</title>
<path fill="none" stroke="#000000" d="M64.9344,-87.0018C62.9121,-75.9613 62.7923,-62.3808 71.1938,-54 89.9996,-35.2405 1815.8194,-20.7952 2124.2828,-18.362"/>
<polygon fill="#000000" stroke="#000000" points="2124.6806,-21.8591 2134.6528,-18.2805 2124.6255,-14.8593 2124.6806,-21.8591"/>
<text text-anchor="middle" x="127.6938" y="-57.8" font-family="Times,serif" font-size="14.00" fill="#000000">of_study_admin</text>
</g>
<!-- participant -->
<g id="node2" class="node">
<title>participant</title>
<ellipse fill="none" stroke="#000000" cx="1221.1938" cy="-105" rx="62.2891" ry="18"/>
<text text-anchor="middle" x="1221.1938" y="-101.3" font-family="Times,serif" font-size="14.00" fill="#000000">participant</text>
</g>
<!-- participant&#45;&gt;study -->
<g id="edge30" class="edge">
<title>participant&#45;&gt;study</title>
<path fill="none" stroke="#000000" d="M1280.9804,-99.5248C1456.4532,-83.4552 1967.5382,-36.6506 2124.6781,-22.2599"/>
<polygon fill="#000000" stroke="#000000" points="2125.3019,-25.7175 2134.941,-21.32 2124.6634,-18.7466 2125.3019,-25.7175"/>
<text text-anchor="middle" x="1803.6938" y="-57.8" font-family="Times,serif" font-size="14.00" fill="#000000">of_participant</text>
</g>
<!-- diagnosis -->
<g id="node3" class="node">
<title>diagnosis</title>
<ellipse fill="none" stroke="#000000" cx="1831.1938" cy="-279" rx="54.6905" ry="18"/>
<text text-anchor="middle" x="1831.1938" y="-275.3" font-family="Times,serif" font-size="14.00" fill="#000000">diagnosis</text>
</g>
<!-- diagnosis&#45;&gt;participant -->
<g id="edge2" class="edge">
<title>diagnosis&#45;&gt;participant</title>
<path fill="none" stroke="#000000" d="M1791.4384,-266.5943C1783.7783,-264.5023 1775.7781,-262.5198 1768.1938,-261 1673.195,-241.9631 1408.6904,-273.1301 1335.1938,-210 1311.0649,-189.2744 1337.6095,-164.5185 1316.1938,-141 1307.204,-131.1276 1295.2236,-123.9459 1282.8073,-118.7269"/>
<polygon fill="#000000" stroke="#000000" points="1283.8611,-115.3833 1273.2699,-115.1064 1281.3768,-121.9276 1283.8611,-115.3833"/>
<text text-anchor="middle" x="1379.6938" y="-188.3" font-family="Times,serif" font-size="14.00" fill="#000000">of_diagnosis</text>
</g>
<!-- sample -->
<g id="node24" class="node">
<title>sample</title>
<ellipse fill="none" stroke="#000000" cx="2128.1938" cy="-192" rx="44.393" ry="18"/>
<text text-anchor="middle" x="2128.1938" y="-188.3" font-family="Times,serif" font-size="14.00" fill="#000000">sample</text>
</g>
<!-- diagnosis&#45;&gt;sample -->
<g id="edge1" class="edge">
<title>diagnosis&#45;&gt;sample</title>
<path fill="none" stroke="#000000" d="M1854.1322,-262.3705C1871.4173,-250.7332 1896.1735,-235.9063 1920.1938,-228 1986.0689,-206.317 2007.5363,-225.2365 2075.1938,-210 2078.7696,-209.1947 2082.4422,-208.236 2086.1056,-207.1865"/>
<polygon fill="#000000" stroke="#000000" points="2087.1749,-210.5195 2095.708,-204.2395 2085.1211,-203.8276 2087.1749,-210.5195"/>
<text text-anchor="middle" x="1964.6938" y="-231.8" font-family="Times,serif" font-size="14.00" fill="#000000">of_diagnosis</text>
</g>
<!-- synonym -->
<g id="node4" class="node">
<title>synonym</title>
<ellipse fill="none" stroke="#000000" cx="271.1938" cy="-279" rx="51.9908" ry="18"/>
<text text-anchor="middle" x="271.1938" y="-275.3" font-family="Times,serif" font-size="14.00" fill="#000000">synonym</text>
</g>
<!-- synonym&#45;&gt;participant -->
<g id="edge20" class="edge">
<title>synonym&#45;&gt;participant</title>
<path fill="none" stroke="#000000" d="M266.7023,-260.7606C262.1534,-237.4474 258.5234,-197.3209 280.1938,-174 343.311,-106.0754 393.9709,-150.6159 486.1938,-141 727.9951,-115.7879 1016.4366,-108.1662 1148.5754,-105.9146"/>
<polygon fill="#000000" stroke="#000000" points="1148.6402,-109.4141 1158.581,-105.7494 1148.5246,-102.4151 1148.6402,-109.4141"/>
<text text-anchor="middle" x="322.6938" y="-188.3" font-family="Times,serif" font-size="14.00" fill="#000000">of_synonym</text>
</g>
<!-- synonym&#45;&gt;study -->
<g id="edge21" class="edge">
<title>synonym&#45;&gt;study</title>
<path fill="none" stroke="#000000" d="M253.3759,-262.069C225.6939,-233.7805 178.837,-176.5169 212.1938,-141 279.8506,-68.9619 1833.8897,-26.4719 2124.5822,-19.1403"/>
<polygon fill="#000000" stroke="#000000" points="2124.8662,-22.6344 2134.7753,-18.8847 2124.6906,-15.6366 2124.8662,-22.6344"/>
<text text-anchor="middle" x="254.6938" y="-144.8" font-family="Times,serif" font-size="14.00" fill="#000000">of_synonym</text>
</g>
<!-- synonym&#45;&gt;sample -->
<g id="edge22" class="edge">
<title>synonym&#45;&gt;sample</title>
<path fill="none" stroke="#000000" d="M323.0671,-277.0411C617.8982,-265.9041 2069.6558,-211.0239 2075.1938,-210 2078.8488,-209.3243 2082.5948,-208.4486 2086.323,-207.4479"/>
<polygon fill="#000000" stroke="#000000" points="2087.4819,-210.755 2096.0755,-204.5581 2085.4931,-204.0434 2087.4819,-210.755"/>
<text text-anchor="middle" x="1631.6938" y="-231.8" font-family="Times,serif" font-size="14.00" fill="#000000">of_synonym</text>
</g>
<!-- medical_history -->
<g id="node5" class="node">
<title>medical_history</title>
<ellipse fill="none" stroke="#000000" cx="1518.1938" cy="-192" rx="85.2851" ry="18"/>
<text text-anchor="middle" x="1518.1938" y="-188.3" font-family="Times,serif" font-size="14.00" fill="#000000">medical_history</text>
</g>
<!-- medical_history&#45;&gt;participant -->
<g id="edge4" class="edge">
<title>medical_history&#45;&gt;participant</title>
<path fill="none" stroke="#000000" d="M1454.6139,-179.9538C1428.6106,-174.0981 1398.5133,-166.111 1372.1938,-156 1359.0151,-150.9372 1357.2606,-146.3448 1344.1938,-141 1323.3932,-132.4919 1299.8592,-125.0934 1278.9866,-119.2535"/>
<polygon fill="#000000" stroke="#000000" points="1279.8609,-115.8641 1269.2915,-116.5979 1278.0116,-122.6154 1279.8609,-115.8641"/>
<text text-anchor="middle" x="1440.1938" y="-144.8" font-family="Times,serif" font-size="14.00" fill="#000000">of_medical_history</text>
</g>
<!-- study_arm -->
<g id="node6" class="node">
<title>study_arm</title>
<ellipse fill="none" stroke="#000000" cx="2346.1938" cy="-105" rx="59.5901" ry="18"/>
<text text-anchor="middle" x="2346.1938" y="-101.3" font-family="Times,serif" font-size="14.00" fill="#000000">study_arm</text>
</g>
<!-- study_arm&#45;&gt;study -->
<g id="edge19" class="edge">
<title>study_arm&#45;&gt;study</title>
<path fill="none" stroke="#000000" d="M2328.1387,-87.6761C2315.9618,-76.7673 2299.0878,-63.0812 2282.1938,-54 2260.9353,-42.5727 2235.4242,-33.9849 2214.2223,-28.0684"/>
<polygon fill="#000000" stroke="#000000" points="2215.073,-24.6729 2204.5073,-25.4578 2213.2563,-31.4331 2215.073,-24.6729"/>
<text text-anchor="middle" x="2352.6938" y="-57.8" font-family="Times,serif" font-size="14.00" fill="#000000">of_study_arm</text>
</g>
<!-- study_personnel -->
<g id="node7" class="node">
<title>study_personnel</title>
<ellipse fill="none" stroke="#000000" cx="2511.1938" cy="-105" rx="87.1846" ry="18"/>
<text text-anchor="middle" x="2511.1938" y="-101.3" font-family="Times,serif" font-size="14.00" fill="#000000">study_personnel</text>
</g>
<!-- study_personnel&#45;&gt;study -->
<g id="edge14" class="edge">
<title>study_personnel&#45;&gt;study</title>
<path fill="none" stroke="#000000" d="M2481.55,-87.8C2460.8122,-76.5113 2432.1129,-62.3431 2405.1938,-54 2341.9161,-34.3882 2265.5634,-25.2014 2217.6813,-21.0864"/>
<polygon fill="#000000" stroke="#000000" points="2217.8703,-17.5902 2207.6175,-20.2604 2217.2976,-24.5668 2217.8703,-17.5902"/>
<text text-anchor="middle" x="2510.6938" y="-57.8" font-family="Times,serif" font-size="14.00" fill="#000000">of_study_personnel</text>
</g>
<!-- treatment_response -->
<g id="node8" class="node">
<title>treatment_response</title>
<ellipse fill="none" stroke="#000000" cx="1726.1938" cy="-192" rx="104.7816" ry="18"/>
<text text-anchor="middle" x="1726.1938" y="-188.3" font-family="Times,serif" font-size="14.00" fill="#000000">treatment_response</text>
</g>
<!-- treatment_response&#45;&gt;participant -->
<g id="edge5" class="edge">
<title>treatment_response&#45;&gt;participant</title>
<path fill="none" stroke="#000000" d="M1650.5832,-179.5045C1600.6789,-171.0045 1542.4823,-160.5118 1531.1938,-156 1519.8614,-151.4707 1519.6523,-145.2001 1508.1938,-141 1469.7709,-126.916 1363.9419,-116.1734 1292.1101,-110.2262"/>
<polygon fill="#000000" stroke="#000000" points="1292.0219,-106.7076 1281.7707,-109.3838 1291.4534,-113.6844 1292.0219,-106.7076"/>
<text text-anchor="middle" x="1614.1938" y="-144.8" font-family="Times,serif" font-size="14.00" fill="#000000">of_treatment_response</text>
</g>
<!-- cell_line -->
<g id="node9" class="node">
<title>cell_line</title>
<ellipse fill="none" stroke="#000000" cx="2219.1938" cy="-105" rx="49.2915" ry="18"/>
<text text-anchor="middle" x="2219.1938" y="-101.3" font-family="Times,serif" font-size="14.00" fill="#000000">cell_line</text>
</g>
<!-- cell_line&#45;&gt;study -->
<g id="edge27" class="edge">
<title>cell_line&#45;&gt;study</title>
<path fill="none" stroke="#000000" d="M2209.2481,-86.9735C2202.4655,-74.6801 2193.3707,-58.1956 2185.773,-44.4249"/>
<polygon fill="#000000" stroke="#000000" points="2188.6945,-42.4747 2180.7991,-35.4097 2182.5654,-45.8563 2188.6945,-42.4747"/>
<text text-anchor="middle" x="2237.6938" y="-57.8" font-family="Times,serif" font-size="14.00" fill="#000000">of_cell_line</text>
</g>
<!-- cell_line&#45;&gt;sample -->
<g id="edge28" class="edge">
<title>cell_line&#45;&gt;sample</title>
<path fill="none" stroke="#000000" d="M2255.2926,-117.4437C2276.3764,-126.7025 2296.606,-140.3972 2284.1938,-156 2271.3923,-172.0921 2221.2765,-181.6085 2181.256,-186.7748"/>
<polygon fill="#000000" stroke="#000000" points="2180.8256,-183.3012 2171.3277,-187.9958 2181.6802,-190.2489 2180.8256,-183.3012"/>
<text text-anchor="middle" x="2327.6938" y="-144.8" font-family="Times,serif" font-size="14.00" fill="#000000">of_cell_line</text>
</g>
<!-- study_funding -->
<g id="node10" class="node">
<title>study_funding</title>
<ellipse fill="none" stroke="#000000" cx="2693.1938" cy="-105" rx="77.1866" ry="18"/>
<text text-anchor="middle" x="2693.1938" y="-101.3" font-family="Times,serif" font-size="14.00" fill="#000000">study_funding</text>
</g>
<!-- study_funding&#45;&gt;study -->
<g id="edge12" class="edge">
<title>study_funding&#45;&gt;study</title>
<path fill="none" stroke="#000000" d="M2664.6453,-88.2433C2643.2496,-76.5428 2612.8466,-61.6925 2584.1938,-54 2516.174,-35.7384 2310.783,-24.3586 2217.8097,-20.0112"/>
<polygon fill="#000000" stroke="#000000" points="2217.7259,-16.5037 2207.5754,-19.5399 2217.4038,-23.4963 2217.7259,-16.5037"/>
<text text-anchor="middle" x="2686.1938" y="-57.8" font-family="Times,serif" font-size="14.00" fill="#000000">of_study_funding</text>
</g>
<!-- cytogenomic_file -->
<g id="node11" class="node">
<title>cytogenomic_file</title>
<ellipse fill="none" stroke="#000000" cx="1669.1938" cy="-279" rx="89.8845" ry="18"/>
<text text-anchor="middle" x="1669.1938" y="-275.3" font-family="Times,serif" font-size="14.00" fill="#000000">cytogenomic_file</text>
</g>
<!-- cytogenomic_file&#45;&gt;sample -->
<g id="edge15" class="edge">
<title>cytogenomic_file&#45;&gt;sample</title>
<path fill="none" stroke="#000000" d="M1687.6588,-261.1662C1701.0719,-249.4351 1720.2936,-235.0012 1740.1938,-228 1810.5202,-203.2578 2001.9912,-224.1193 2075.1938,-210 2078.8435,-209.296 2082.5857,-208.4006 2086.3114,-207.3866"/>
<polygon fill="#000000" stroke="#000000" points="2087.4794,-210.6907 2096.0599,-204.4758 2085.4765,-203.9833 2087.4794,-210.6907"/>
<text text-anchor="middle" x="1811.6938" y="-231.8" font-family="Times,serif" font-size="14.00" fill="#000000">of_cytogenomic_file</text>
</g>
<!-- clinical_measure_file -->
<g id="node12" class="node">
<title>clinical_measure_file</title>
<ellipse fill="none" stroke="#000000" cx="1957.1938" cy="-192" rx="108.5808" ry="18"/>
<text text-anchor="middle" x="1957.1938" y="-188.3" font-family="Times,serif" font-size="14.00" fill="#000000">clinical_measure_file</text>
</g>
<!-- clinical_measure_file&#45;&gt;participant -->
<g id="edge31" class="edge">
<title>clinical_measure_file&#45;&gt;participant</title>
<path fill="none" stroke="#000000" d="M1877.5852,-179.7114C1865.0732,-177.7919 1852.2832,-175.8367 1840.1938,-174 1786.8756,-165.8998 1770.6019,-175.1694 1720.1938,-156 1708.7867,-151.6621 1708.7523,-144.9164 1697.1938,-141 1624.5257,-116.3775 1407.9605,-108.5401 1293.6721,-106.088"/>
<polygon fill="#000000" stroke="#000000" points="1293.6804,-102.5875 1283.6103,-105.8804 1293.5359,-109.586 1293.6804,-102.5875"/>
<text text-anchor="middle" x="1806.1938" y="-144.8" font-family="Times,serif" font-size="14.00" fill="#000000">of_clinical_measure_file</text>
</g>
<!-- clinical_measure_file&#45;&gt;study -->
<g id="edge32" class="edge">
<title>clinical_measure_file&#45;&gt;study</title>
<path fill="none" stroke="#000000" d="M1934.1908,-174.1522C1928.8016,-168.8736 1923.635,-162.6959 1920.1938,-156 1906.1392,-128.6531 1896.4941,-111.4071 1915.1938,-87 1940.6375,-53.7904 2059.0195,-32.9536 2125.5279,-23.6626"/>
<polygon fill="#000000" stroke="#000000" points="2126.2993,-27.0899 2135.7346,-22.2704 2125.3533,-20.1541 2126.2993,-27.0899"/>
<text text-anchor="middle" x="2001.1938" y="-101.3" font-family="Times,serif" font-size="14.00" fill="#000000">of_clinical_measure_file</text>
</g>
<!-- survival -->
<g id="node13" class="node">
<title>survival</title>
<ellipse fill="none" stroke="#000000" cx="422.1938" cy="-192" rx="48.1917" ry="18"/>
<text text-anchor="middle" x="422.1938" y="-188.3" font-family="Times,serif" font-size="14.00" fill="#000000">survival</text>
</g>
<!-- survival&#45;&gt;participant -->
<g id="edge29" class="edge">
<title>survival&#45;&gt;participant</title>
<path fill="none" stroke="#000000" d="M447.7506,-176.428C468.9871,-164.3668 500.4338,-148.4918 530.1938,-141 588.9219,-126.2158 983.882,-112.3855 1148.9299,-107.1796"/>
<polygon fill="#000000" stroke="#000000" points="1149.104,-110.676 1158.9893,-106.864 1148.8844,-103.6794 1149.104,-110.676"/>
<text text-anchor="middle" x="569.6938" y="-144.8" font-family="Times,serif" font-size="14.00" fill="#000000">of_survival</text>
</g>
<!-- exposure -->
<g id="node14" class="node">
<title>exposure</title>
<ellipse fill="none" stroke="#000000" cx="541.1938" cy="-192" rx="53.0913" ry="18"/>
<text text-anchor="middle" x="541.1938" y="-188.3" font-family="Times,serif" font-size="14.00" fill="#000000">exposure</text>
</g>
<!-- exposure&#45;&gt;participant -->
<g id="edge10" class="edge">
<title>exposure&#45;&gt;participant</title>
<path fill="none" stroke="#000000" d="M568.5066,-176.2879C590.7875,-164.3169 623.4889,-148.6339 654.1938,-141 745.7605,-118.2344 1017.143,-109.3895 1148.433,-106.3732"/>
<polygon fill="#000000" stroke="#000000" points="1148.866,-109.8645 1158.7849,-106.1409 1148.7088,-102.8663 1148.866,-109.8645"/>
<text text-anchor="middle" x="697.6938" y="-144.8" font-family="Times,serif" font-size="14.00" fill="#000000">of_exposure</text>
</g>
<!-- radiology_file -->
<g id="node15" class="node">
<title>radiology_file</title>
<ellipse fill="none" stroke="#000000" cx="686.1938" cy="-192" rx="73.387" ry="18"/>
<text text-anchor="middle" x="686.1938" y="-188.3" font-family="Times,serif" font-size="14.00" fill="#000000">radiology_file</text>
</g>
<!-- radiology_file&#45;&gt;participant -->
<g id="edge3" class="edge">
<title>radiology_file&#45;&gt;participant</title>
<path fill="none" stroke="#000000" d="M710.5785,-174.8878C728.6378,-163.1739 754.3245,-148.4602 779.1938,-141 846.3466,-120.8556 1041.6589,-111.1532 1148.7909,-107.2309"/>
<polygon fill="#000000" stroke="#000000" points="1149.0079,-110.7255 1158.876,-106.8692 1148.757,-103.73 1149.0079,-110.7255"/>
<text text-anchor="middle" x="838.1938" y="-144.8" font-family="Times,serif" font-size="14.00" fill="#000000">of_radiology_file</text>
</g>
<!-- methylation_array_file -->
<g id="node16" class="node">
<title>methylation_array_file</title>
<ellipse fill="none" stroke="#000000" cx="2019.1938" cy="-279" rx="115.8798" ry="18"/>
<text text-anchor="middle" x="2019.1938" y="-275.3" font-family="Times,serif" font-size="14.00" fill="#000000">methylation_array_file</text>
</g>
<!-- methylation_array_file&#45;&gt;sample -->
<g id="edge13" class="edge">
<title>methylation_array_file&#45;&gt;sample</title>
<path fill="none" stroke="#000000" d="M2014.2662,-260.8574C2012.5194,-250.3076 2012.4134,-237.3014 2019.1938,-228 2034.5937,-206.8742 2050.3713,-218.2038 2075.1938,-210 2078.2847,-208.9784 2081.4743,-207.916 2084.6837,-206.8409"/>
<polygon fill="#000000" stroke="#000000" points="2085.9325,-210.1136 2094.293,-203.6057 2083.6989,-203.4795 2085.9325,-210.1136"/>
<text text-anchor="middle" x="2110.6938" y="-231.8" font-family="Times,serif" font-size="14.00" fill="#000000">of_methylation_array_file</text>
</g>
<!-- publication -->
<g id="node17" class="node">
<title>publication</title>
<ellipse fill="none" stroke="#000000" cx="2851.1938" cy="-105" rx="63.0888" ry="18"/>
<text text-anchor="middle" x="2851.1938" y="-101.3" font-family="Times,serif" font-size="14.00" fill="#000000">publication</text>
</g>
<!-- publication&#45;&gt;study -->
<g id="edge11" class="edge">
<title>publication&#45;&gt;study</title>
<path fill="none" stroke="#000000" d="M2825.9354,-88.2536C2806.6158,-76.3952 2778.8488,-61.3422 2752.1938,-54 2651.9408,-26.3848 2337.4271,-19.9042 2217.9085,-18.4244"/>
<polygon fill="#000000" stroke="#000000" points="2217.6715,-14.9215 2207.631,-18.3037 2217.5891,-21.921 2217.6715,-14.9215"/>
<text text-anchor="middle" x="2839.1938" y="-57.8" font-family="Times,serif" font-size="14.00" fill="#000000">of_publication</text>
</g>
<!-- sequencing_file -->
<g id="node19" class="node">
<title>sequencing_file</title>
<ellipse fill="none" stroke="#000000" cx="2236.1938" cy="-279" rx="83.3857" ry="18"/>
<text text-anchor="middle" x="2236.1938" y="-275.3" font-family="Times,serif" font-size="14.00" fill="#000000">sequencing_file</text>
</g>
<!-- sequencing_file&#45;&gt;sample -->
<g id="edge6" class="edge">
<title>sequencing_file&#45;&gt;sample</title>
<path fill="none" stroke="#000000" d="M2228.74,-260.611C2223.6752,-249.974 2216.0937,-236.9625 2206.1938,-228 2196.597,-219.312 2184.5413,-212.3769 2172.7973,-207.0049"/>
<polygon fill="#000000" stroke="#000000" points="2174.0693,-203.7423 2163.4986,-203.0281 2171.3168,-210.1784 2174.0693,-203.7423"/>
<text text-anchor="middle" x="2284.6938" y="-231.8" font-family="Times,serif" font-size="14.00" fill="#000000">of_sequencing_file</text>
</g>
<!-- pdx -->
<g id="node20" class="node">
<title>pdx</title>
<ellipse fill="none" stroke="#000000" cx="2124.1938" cy="-105" rx="27.8951" ry="18"/>
<text text-anchor="middle" x="2124.1938" y="-101.3" font-family="Times,serif" font-size="14.00" fill="#000000">pdx</text>
</g>
<!-- pdx&#45;&gt;study -->
<g id="edge24" class="edge">
<title>pdx&#45;&gt;study</title>
<path fill="none" stroke="#000000" d="M2126.5509,-86.705C2128.4058,-76.5981 2131.6417,-64.0858 2137.1938,-54 2139.6061,-49.6178 2142.6783,-45.3679 2145.9858,-41.4164"/>
<polygon fill="#000000" stroke="#000000" points="2148.8049,-43.5201 2152.9695,-33.7781 2143.6386,-38.7967 2148.8049,-43.5201"/>
<text text-anchor="middle" x="2161.1938" y="-57.8" font-family="Times,serif" font-size="14.00" fill="#000000">of_pdx</text>
</g>
<!-- pdx&#45;&gt;sample -->
<g id="edge25" class="edge">
<title>pdx&#45;&gt;sample</title>
<path fill="none" stroke="#000000" d="M2100.8604,-115.0595C2083.0425,-124.3136 2062.9836,-139.13 2072.1938,-156 2076.0101,-162.9902 2081.8291,-168.8255 2088.2963,-173.6213"/>
<polygon fill="#000000" stroke="#000000" points="2086.45,-176.5959 2096.7327,-179.1486 2090.2862,-170.7407 2086.45,-176.5959"/>
<text text-anchor="middle" x="2096.1938" y="-144.8" font-family="Times,serif" font-size="14.00" fill="#000000">of_pdx</text>
</g>
<!-- family_relationship -->
<g id="node21" class="node">
<title>family_relationship</title>
<ellipse fill="none" stroke="#000000" cx="878.1938" cy="-192" rx="100.1823" ry="18"/>
<text text-anchor="middle" x="878.1938" y="-188.3" font-family="Times,serif" font-size="14.00" fill="#000000">family_relationship</text>
</g>
<!-- family_relationship&#45;&gt;participant -->
<g id="edge8" class="edge">
<title>family_relationship&#45;&gt;participant</title>
<path fill="none" stroke="#000000" d="M887.5269,-173.8295C894.3972,-162.4222 904.8524,-148.4972 918.1938,-141 956.4245,-119.5161 1071.9423,-110.7633 1148.7863,-107.2604"/>
<polygon fill="#000000" stroke="#000000" points="1149.0544,-110.7521 1158.8924,-106.8197 1148.7493,-103.7588 1149.0544,-110.7521"/>
<text text-anchor="middle" x="997.6938" y="-144.8" font-family="Times,serif" font-size="14.00" fill="#000000">of_family_relationship</text>
</g>
<!-- pathology_file -->
<g id="node22" class="node">
<title>pathology_file</title>
<ellipse fill="none" stroke="#000000" cx="2413.1938" cy="-279" rx="76.0865" ry="18"/>
<text text-anchor="middle" x="2413.1938" y="-275.3" font-family="Times,serif" font-size="14.00" fill="#000000">pathology_file</text>
</g>
<!-- pathology_file&#45;&gt;sample -->
<g id="edge23" class="edge">
<title>pathology_file&#45;&gt;sample</title>
<path fill="none" stroke="#000000" d="M2397.7883,-260.9996C2387.0358,-249.6641 2371.6982,-235.7553 2355.1938,-228 2325.2135,-213.9125 2238.6383,-202.9555 2181.4892,-196.994"/>
<polygon fill="#000000" stroke="#000000" points="2181.8366,-193.5114 2171.5321,-195.9746 2181.1236,-200.475 2181.8366,-193.5114"/>
<text text-anchor="middle" x="2438.1938" y="-231.8" font-family="Times,serif" font-size="14.00" fill="#000000">of_pathology_file</text>
</g>
<!-- molecular_test -->
<g id="node23" class="node">
<title>molecular_test</title>
<ellipse fill="none" stroke="#000000" cx="1076.1938" cy="-192" rx="79.8859" ry="18"/>
<text text-anchor="middle" x="1076.1938" y="-188.3" font-family="Times,serif" font-size="14.00" fill="#000000">molecular_test</text>
</g>
<!-- molecular_test&#45;&gt;participant -->
<g id="edge26" class="edge">
<title>molecular_test&#45;&gt;participant</title>
<path fill="none" stroke="#000000" d="M1076.4365,-173.7476C1077.5445,-162.8899 1080.7366,-149.5993 1089.1938,-141 1099.139,-130.8877 1128.5298,-122.376 1157.0599,-116.1721"/>
<polygon fill="#000000" stroke="#000000" points="1158.011,-119.5489 1167.0822,-114.0751 1156.5773,-112.6973 1158.011,-119.5489"/>
<text text-anchor="middle" x="1153.1938" y="-144.8" font-family="Times,serif" font-size="14.00" fill="#000000">of_molecular_test</text>
</g>
<!-- sample&#45;&gt;participant -->
<g id="edge16" class="edge">
<title>sample&#45;&gt;participant</title>
<path fill="none" stroke="#000000" d="M2095.0557,-179.924C2088.5234,-177.7772 2081.6823,-175.6904 2075.1938,-174 2036.0521,-163.8028 1936.3616,-145.7536 1896.1938,-141 1677.9871,-115.1764 1417.8891,-107.8695 1293.9039,-105.8073"/>
<polygon fill="#000000" stroke="#000000" points="1293.8286,-102.3058 1283.774,-105.6455 1293.7168,-109.3049 1293.8286,-102.3058"/>
<text text-anchor="middle" x="2021.6938" y="-144.8" font-family="Times,serif" font-size="14.00" fill="#000000">of_sample</text>
</g>
<!-- sample&#45;&gt;cell_line -->
<g id="edge17" class="edge">
<title>sample&#45;&gt;cell_line</title>
<path fill="none" stroke="#000000" d="M2162.033,-180.3907C2174.7061,-174.6713 2188.3921,-166.6659 2198.1938,-156 2204.1819,-149.4838 2208.5834,-141.0254 2211.7635,-132.8765"/>
<polygon fill="#000000" stroke="#000000" points="2215.1344,-133.8359 2215.0611,-123.2413 2208.5115,-131.5692 2215.1344,-133.8359"/>
<text text-anchor="middle" x="2243.6938" y="-144.8" font-family="Times,serif" font-size="14.00" fill="#000000">of_sample</text>
</g>
<!-- sample&#45;&gt;pdx -->
<g id="edge18" class="edge">
<title>sample&#45;&gt;pdx</title>
<path fill="none" stroke="#000000" d="M2126.4424,-173.701C2125.9608,-168.0324 2125.4901,-161.7623 2125.1938,-156 2124.821,-148.7505 2124.5844,-140.9149 2124.4351,-133.6116"/>
<polygon fill="#000000" stroke="#000000" points="2127.9317,-133.3658 2124.2729,-123.4228 2120.9326,-133.4773 2127.9317,-133.3658"/>
<text text-anchor="middle" x="2161.6938" y="-144.8" font-family="Times,serif" font-size="14.00" fill="#000000">of_sample</text>
</g>
<!-- treatment -->
<g id="node25" class="node">
<title>treatment</title>
<ellipse fill="none" stroke="#000000" cx="1232.1938" cy="-192" rx="57.6901" ry="18"/>
<text text-anchor="middle" x="1232.1938" y="-188.3" font-family="Times,serif" font-size="14.00" fill="#000000">treatment</text>
</g>
<!-- treatment&#45;&gt;participant -->
<g id="edge7" class="edge">
<title>treatment&#45;&gt;participant</title>
<path fill="none" stroke="#000000" d="M1226.2037,-173.8765C1224.5922,-168.215 1223.0577,-161.9049 1222.1938,-156 1221.1133,-148.6148 1220.6358,-140.5645 1220.4815,-133.0876"/>
<polygon fill="#000000" stroke="#000000" points="1223.9814,-133.0171 1220.4492,-123.0284 1216.9814,-133.0396 1223.9814,-133.0171"/>
<text text-anchor="middle" x="1269.1938" y="-144.8" font-family="Times,serif" font-size="14.00" fill="#000000">of_treatment</text>
</g>
</g>
</svg>
