<svg width="2592pt" height="305pt"
 viewBox="0.00 0.00 2592.43 305.00" xmlns="http://www.w3.org/2000/svg" xmlns:xlink="http://www.w3.org/1999/xlink">
<g id="graph0" class="graph" transform="scale(1 1) rotate(0) translate(4 301)">
<title>Perl</title>
<polygon fill="#ffffff" stroke="transparent" points="-4,4 -4,-301 2588.4271,-301 2588.4271,4 -4,4"/>
<!-- synonym -->
<g id="node1" class="node">
<title>synonym</title>
<ellipse fill="none" stroke="#000000" cx="71.4796" cy="-279" rx="51.9908" ry="18"/>
<text text-anchor="middle" x="71.4796" y="-275.3" font-family="Times,serif" font-size="14.00" fill="#000000">synonym</text>
</g>
<!-- study -->
<g id="node2" class="node">
<title>study</title>
<ellipse fill="none" stroke="#000000" cx="1895.4796" cy="-18" rx="36.2938" ry="18"/>
<text text-anchor="middle" x="1895.4796" y="-14.3" font-family="Times,serif" font-size="14.00" fill="#000000">study</text>
</g>
<!-- synonym&#45;&gt;study -->
<g id="edge12" class="edge">
<title>synonym&#45;&gt;study</title>
<path fill="none" stroke="#000000" d="M53.0529,-261.6709C25.0582,-233.3106 -21.6083,-176.5865 11.4796,-141 192.6317,53.8319 939.9611,-70.5982 1205.4796,-54 1447.587,-38.8653 1737.7619,-25.1772 1848.9835,-20.0946"/>
<polygon fill="#000000" stroke="#000000" points="1849.3504,-23.5816 1859.1806,-19.6298 1849.0316,-16.5888 1849.3504,-23.5816"/>
<text text-anchor="middle" x="53.9796" y="-144.8" font-family="Times,serif" font-size="14.00" fill="#000000">of_synonym</text>
</g>
<!-- participant -->
<g id="node3" class="node">
<title>participant</title>
<ellipse fill="none" stroke="#000000" cx="1019.4796" cy="-105" rx="62.2891" ry="18"/>
<text text-anchor="middle" x="1019.4796" y="-101.3" font-family="Times,serif" font-size="14.00" fill="#000000">participant</text>
</g>
<!-- synonym&#45;&gt;participant -->
<g id="edge11" class="edge">
<title>synonym&#45;&gt;participant</title>
<path fill="none" stroke="#000000" d="M66.9524,-260.7273C62.365,-237.3781 58.6934,-197.2128 80.4796,-174 148.142,-101.907 202.0965,-150.8175 300.4796,-141 535.9917,-117.4987 816.5118,-109.0674 946.5789,-106.2706"/>
<polygon fill="#000000" stroke="#000000" points="946.8869,-109.765 956.8111,-106.0556 946.7397,-102.7665 946.8869,-109.765"/>
<text text-anchor="middle" x="122.9796" y="-188.3" font-family="Times,serif" font-size="14.00" fill="#000000">of_synonym</text>
</g>
<!-- sample -->
<g id="node17" class="node">
<title>sample</title>
<ellipse fill="none" stroke="#000000" cx="1928.4796" cy="-192" rx="44.393" ry="18"/>
<text text-anchor="middle" x="1928.4796" y="-188.3" font-family="Times,serif" font-size="14.00" fill="#000000">sample</text>
</g>
<!-- synonym&#45;&gt;sample -->
<g id="edge13" class="edge">
<title>synonym&#45;&gt;sample</title>
<path fill="none" stroke="#000000" d="M123.1461,-276.9044C298.2433,-269.8168 885.2943,-246.1712 1370.4796,-228 1482.6944,-223.7973 1765.0309,-230.2711 1875.4796,-210 1879.1355,-209.329 1882.8821,-208.4567 1886.6107,-207.4582"/>
<polygon fill="#000000" stroke="#000000" points="1887.7681,-210.7658 1896.3638,-204.572 1885.7817,-204.0536 1887.7681,-210.7658"/>
<text text-anchor="middle" x="1412.9796" y="-231.8" font-family="Times,serif" font-size="14.00" fill="#000000">of_synonym</text>
</g>
<!-- participant&#45;&gt;study -->
<g id="edge9" class="edge">
<title>participant&#45;&gt;study</title>
<path fill="none" stroke="#000000" d="M1069.5645,-94.1308C1125.9164,-82.333 1220.3214,-63.8621 1302.4796,-54 1504.9888,-29.6913 1748.4812,-21.4565 1848.8019,-18.9677"/>
<polygon fill="#000000" stroke="#000000" points="1848.9937,-22.4642 1858.9066,-18.7246 1848.8253,-15.4662 1848.9937,-22.4642"/>
<text text-anchor="middle" x="1352.9796" y="-57.8" font-family="Times,serif" font-size="14.00" fill="#000000">of_participant</text>
</g>
<!-- pdx -->
<g id="node4" class="node">
<title>pdx</title>
<ellipse fill="none" stroke="#000000" cx="2556.4796" cy="-105" rx="27.8951" ry="18"/>
<text text-anchor="middle" x="2556.4796" y="-101.3" font-family="Times,serif" font-size="14.00" fill="#000000">pdx</text>
</g>
<!-- pdx&#45;&gt;study -->
<g id="edge27" class="edge">
<title>pdx&#45;&gt;study</title>
<path fill="none" stroke="#000000" d="M2543.5837,-88.9705C2532.9019,-76.9912 2516.5827,-61.4509 2498.4796,-54 2447.6087,-33.0626 2075.0627,-22.263 1942.3044,-19.0479"/>
<polygon fill="#000000" stroke="#000000" points="1942.1381,-15.543 1932.0574,-18.8033 1941.971,-22.541 1942.1381,-15.543"/>
<text text-anchor="middle" x="2545.4796" y="-57.8" font-family="Times,serif" font-size="14.00" fill="#000000">of_pdx</text>
</g>
<!-- pdx&#45;&gt;sample -->
<g id="edge26" class="edge">
<title>pdx&#45;&gt;sample</title>
<path fill="none" stroke="#000000" d="M2535.4931,-116.8991C2530.3951,-119.3096 2524.8589,-121.5479 2519.4796,-123 2415.782,-150.9931 2385.2443,-129.249 2278.4796,-141 2171.6553,-152.7575 2047.3085,-172.2755 1979.3259,-183.4476"/>
<polygon fill="#000000" stroke="#000000" points="1978.6086,-180.0186 1969.3119,-185.1 1979.7483,-186.9252 1978.6086,-180.0186"/>
<text text-anchor="middle" x="2302.4796" y="-144.8" font-family="Times,serif" font-size="14.00" fill="#000000">of_pdx</text>
</g>
<!-- medical_history -->
<g id="node5" class="node">
<title>medical_history</title>
<ellipse fill="none" stroke="#000000" cx="860.4796" cy="-192" rx="85.2851" ry="18"/>
<text text-anchor="middle" x="860.4796" y="-188.3" font-family="Times,serif" font-size="14.00" fill="#000000">medical_history</text>
</g>
<!-- medical_history&#45;&gt;participant -->
<g id="edge21" class="edge">
<title>medical_history&#45;&gt;participant</title>
<path fill="none" stroke="#000000" d="M861.4416,-173.6324C862.9768,-162.7314 866.6901,-149.4356 875.4796,-141 887.0633,-129.8825 921.4882,-121.0585 953.7736,-114.9294"/>
<polygon fill="#000000" stroke="#000000" points="954.4899,-118.3565 963.6968,-113.1142 953.2302,-111.4707 954.4899,-118.3565"/>
<text text-anchor="middle" x="943.4796" y="-144.8" font-family="Times,serif" font-size="14.00" fill="#000000">of_medical_history</text>
</g>
<!-- methylation_array_file -->
<g id="node6" class="node">
<title>methylation_array_file</title>
<ellipse fill="none" stroke="#000000" cx="1928.4796" cy="-279" rx="115.8798" ry="18"/>
<text text-anchor="middle" x="1928.4796" y="-275.3" font-family="Times,serif" font-size="14.00" fill="#000000">methylation_array_file</text>
</g>
<!-- methylation_array_file&#45;&gt;sample -->
<g id="edge3" class="edge">
<title>methylation_array_file&#45;&gt;sample</title>
<path fill="none" stroke="#000000" d="M1928.4796,-260.9735C1928.4796,-249.1918 1928.4796,-233.5607 1928.4796,-220.1581"/>
<polygon fill="#000000" stroke="#000000" points="1931.9797,-220.0033 1928.4796,-210.0034 1924.9797,-220.0034 1931.9797,-220.0033"/>
<text text-anchor="middle" x="2019.9796" y="-231.8" font-family="Times,serif" font-size="14.00" fill="#000000">of_methylation_array_file</text>
</g>
<!-- study_arm -->
<g id="node7" class="node">
<title>study_arm</title>
<ellipse fill="none" stroke="#000000" cx="1667.4796" cy="-105" rx="59.5901" ry="18"/>
<text text-anchor="middle" x="1667.4796" y="-101.3" font-family="Times,serif" font-size="14.00" fill="#000000">study_arm</text>
</g>
<!-- study_arm&#45;&gt;study -->
<g id="edge7" class="edge">
<title>study_arm&#45;&gt;study</title>
<path fill="none" stroke="#000000" d="M1679.029,-87.1626C1687.2745,-75.8958 1699.3754,-62.0024 1713.4796,-54 1736.3337,-41.033 1803.9857,-29.9714 1850.0488,-23.6537"/>
<polygon fill="#000000" stroke="#000000" points="1850.6561,-27.1037 1860.1009,-22.3029 1849.7238,-20.166 1850.6561,-27.1037"/>
<text text-anchor="middle" x="1761.9796" y="-57.8" font-family="Times,serif" font-size="14.00" fill="#000000">of_study_arm</text>
</g>
<!-- survival -->
<g id="node8" class="node">
<title>survival</title>
<ellipse fill="none" stroke="#000000" cx="1011.4796" cy="-192" rx="48.1917" ry="18"/>
<text text-anchor="middle" x="1011.4796" y="-188.3" font-family="Times,serif" font-size="14.00" fill="#000000">survival</text>
</g>
<!-- survival&#45;&gt;participant -->
<g id="edge22" class="edge">
<title>survival&#45;&gt;participant</title>
<path fill="none" stroke="#000000" d="M1013.1372,-173.9735C1014.2206,-162.1918 1015.6579,-146.5607 1016.8903,-133.1581"/>
<polygon fill="#000000" stroke="#000000" points="1020.3936,-133.2819 1017.8241,-123.0034 1013.423,-132.6408 1020.3936,-133.2819"/>
<text text-anchor="middle" x="1055.9796" y="-144.8" font-family="Times,serif" font-size="14.00" fill="#000000">of_survival</text>
</g>
<!-- treatment_response -->
<g id="node9" class="node">
<title>treatment_response</title>
<ellipse fill="none" stroke="#000000" cx="1182.4796" cy="-192" rx="104.7816" ry="18"/>
<text text-anchor="middle" x="1182.4796" y="-188.3" font-family="Times,serif" font-size="14.00" fill="#000000">treatment_response</text>
</g>
<!-- treatment_response&#45;&gt;participant -->
<g id="edge24" class="edge">
<title>treatment_response&#45;&gt;participant</title>
<path fill="none" stroke="#000000" d="M1156.0736,-174.574C1140.0106,-164.2783 1118.9107,-151.2875 1099.4796,-141 1088.3328,-135.0985 1076.0262,-129.2479 1064.4766,-124.0329"/>
<polygon fill="#000000" stroke="#000000" points="1065.5544,-120.6817 1054.9951,-119.8146 1062.7089,-127.0773 1065.5544,-120.6817"/>
<text text-anchor="middle" x="1208.4796" y="-144.8" font-family="Times,serif" font-size="14.00" fill="#000000">of_treatment_response</text>
</g>
<!-- study_funding -->
<g id="node10" class="node">
<title>study_funding</title>
<ellipse fill="none" stroke="#000000" cx="1822.4796" cy="-105" rx="77.1866" ry="18"/>
<text text-anchor="middle" x="1822.4796" y="-101.3" font-family="Times,serif" font-size="14.00" fill="#000000">study_funding</text>
</g>
<!-- study_funding&#45;&gt;study -->
<g id="edge1" class="edge">
<title>study_funding&#45;&gt;study</title>
<path fill="none" stroke="#000000" d="M1816.4263,-86.695C1814.1586,-76.3433 1813.4086,-63.5933 1819.4796,-54 1826.9453,-42.2027 1839.4377,-34.1958 1852.1599,-28.7936"/>
<polygon fill="#000000" stroke="#000000" points="1853.7244,-31.9448 1861.854,-25.1507 1851.2619,-25.3922 1853.7244,-31.9448"/>
<text text-anchor="middle" x="1881.4796" y="-57.8" font-family="Times,serif" font-size="14.00" fill="#000000">of_study_funding</text>
</g>
<!-- family_relationship -->
<g id="node11" class="node">
<title>family_relationship</title>
<ellipse fill="none" stroke="#000000" cx="1405.4796" cy="-192" rx="100.1823" ry="18"/>
<text text-anchor="middle" x="1405.4796" y="-188.3" font-family="Times,serif" font-size="14.00" fill="#000000">family_relationship</text>
</g>
<!-- family_relationship&#45;&gt;participant -->
<g id="edge31" class="edge">
<title>family_relationship&#45;&gt;participant</title>
<path fill="none" stroke="#000000" d="M1374.6963,-174.6332C1353.1666,-163.27 1323.3817,-149.0814 1295.4796,-141 1227.9703,-121.4471 1148.08,-112.4915 1091.6691,-108.4031"/>
<polygon fill="#000000" stroke="#000000" points="1091.6349,-104.8925 1081.4175,-107.6949 1091.1525,-111.8759 1091.6349,-104.8925"/>
<text text-anchor="middle" x="1415.9796" y="-144.8" font-family="Times,serif" font-size="14.00" fill="#000000">of_family_relationship</text>
</g>
<!-- cytogenomic_file -->
<g id="node12" class="node">
<title>cytogenomic_file</title>
<ellipse fill="none" stroke="#000000" cx="2151.4796" cy="-279" rx="89.8845" ry="18"/>
<text text-anchor="middle" x="2151.4796" y="-275.3" font-family="Times,serif" font-size="14.00" fill="#000000">cytogenomic_file</text>
</g>
<!-- cytogenomic_file&#45;&gt;sample -->
<g id="edge14" class="edge">
<title>cytogenomic_file&#45;&gt;sample</title>
<path fill="none" stroke="#000000" d="M2143.1935,-260.9074C2137.1115,-249.683 2127.7725,-235.9343 2115.4796,-228 2093.7412,-213.9693 2028.684,-203.6383 1981.4031,-197.7278"/>
<polygon fill="#000000" stroke="#000000" points="1981.6564,-194.2329 1971.3066,-196.4984 1980.8102,-201.1815 1981.6564,-194.2329"/>
<text text-anchor="middle" x="2201.9796" y="-231.8" font-family="Times,serif" font-size="14.00" fill="#000000">of_cytogenomic_file</text>
</g>
<!-- clinical_measure_file -->
<g id="node13" class="node">
<title>clinical_measure_file</title>
<ellipse fill="none" stroke="#000000" cx="1757.4796" cy="-192" rx="108.5808" ry="18"/>
<text text-anchor="middle" x="1757.4796" y="-188.3" font-family="Times,serif" font-size="14.00" fill="#000000">clinical_measure_file</text>
</g>
<!-- clinical_measure_file&#45;&gt;study -->
<g id="edge5" class="edge">
<title>clinical_measure_file&#45;&gt;study</title>
<path fill="none" stroke="#000000" d="M1758.2762,-173.8792C1757.7096,-162.6433 1754.887,-148.8922 1745.4796,-141 1718.2822,-118.1831 1450.8651,-148.8003 1426.4796,-123 1415.4892,-111.372 1416.0216,-99.1091 1426.4796,-87 1453.9639,-55.1763 1736.4662,-30.1889 1849.2985,-21.4044"/>
<polygon fill="#000000" stroke="#000000" points="1849.6553,-24.8873 1859.3568,-20.6293 1849.1175,-17.908 1849.6553,-24.8873"/>
<text text-anchor="middle" x="1512.4796" y="-101.3" font-family="Times,serif" font-size="14.00" fill="#000000">of_clinical_measure_file</text>
</g>
<!-- clinical_measure_file&#45;&gt;participant -->
<g id="edge4" class="edge">
<title>clinical_measure_file&#45;&gt;participant</title>
<path fill="none" stroke="#000000" d="M1678.5072,-179.6275C1637.7079,-172.6236 1592.5561,-163.7426 1573.4796,-156 1562.1715,-151.4104 1562.0533,-144.8714 1550.4796,-141 1508.1522,-126.8416 1227.2343,-113.548 1091.9906,-107.8791"/>
<polygon fill="#000000" stroke="#000000" points="1091.8608,-104.3707 1081.7238,-107.4516 1091.5696,-111.3647 1091.8608,-104.3707"/>
<text text-anchor="middle" x="1659.4796" y="-144.8" font-family="Times,serif" font-size="14.00" fill="#000000">of_clinical_measure_file</text>
</g>
<!-- study_personnel -->
<g id="node14" class="node">
<title>study_personnel</title>
<ellipse fill="none" stroke="#000000" cx="2121.4796" cy="-105" rx="87.1846" ry="18"/>
<text text-anchor="middle" x="2121.4796" y="-101.3" font-family="Times,serif" font-size="14.00" fill="#000000">study_personnel</text>
</g>
<!-- study_personnel&#45;&gt;study -->
<g id="edge8" class="edge">
<title>study_personnel&#45;&gt;study</title>
<path fill="none" stroke="#000000" d="M2098.1317,-87.4813C2082.5162,-76.4926 2061.1195,-62.7907 2040.4796,-54 2008.246,-40.2715 1969.6598,-31.0079 1940.3985,-25.3196"/>
<polygon fill="#000000" stroke="#000000" points="1940.937,-21.8596 1930.463,-23.4552 1939.6459,-28.7395 1940.937,-21.8596"/>
<text text-anchor="middle" x="2137.9796" y="-57.8" font-family="Times,serif" font-size="14.00" fill="#000000">of_study_personnel</text>
</g>
<!-- molecular_test -->
<g id="node15" class="node">
<title>molecular_test</title>
<ellipse fill="none" stroke="#000000" cx="254.4796" cy="-192" rx="79.8859" ry="18"/>
<text text-anchor="middle" x="254.4796" y="-188.3" font-family="Times,serif" font-size="14.00" fill="#000000">molecular_test</text>
</g>
<!-- molecular_test&#45;&gt;participant -->
<g id="edge2" class="edge">
<title>molecular_test&#45;&gt;participant</title>
<path fill="none" stroke="#000000" d="M275.3443,-174.4088C290.6523,-162.6282 312.5193,-148.035 334.4796,-141 391.584,-122.7065 782.8332,-110.9147 947.1039,-106.7174"/>
<polygon fill="#000000" stroke="#000000" points="947.2102,-110.2159 957.1183,-106.4638 947.0329,-103.2182 947.2102,-110.2159"/>
<text text-anchor="middle" x="398.4796" y="-144.8" font-family="Times,serif" font-size="14.00" fill="#000000">of_molecular_test</text>
</g>
<!-- exposure -->
<g id="node16" class="node">
<title>exposure</title>
<ellipse fill="none" stroke="#000000" cx="405.4796" cy="-192" rx="53.0913" ry="18"/>
<text text-anchor="middle" x="405.4796" y="-188.3" font-family="Times,serif" font-size="14.00" fill="#000000">exposure</text>
</g>
<!-- exposure&#45;&gt;participant -->
<g id="edge23" class="edge">
<title>exposure&#45;&gt;participant</title>
<path fill="none" stroke="#000000" d="M429.4067,-175.8022C448.3472,-163.8992 475.9418,-148.5388 502.4796,-141 583.9268,-117.8626 825.0572,-109.2878 947.0526,-106.3689"/>
<polygon fill="#000000" stroke="#000000" points="947.137,-109.868 957.0528,-106.136 946.9739,-102.8699 947.137,-109.868"/>
<text text-anchor="middle" x="545.9796" y="-144.8" font-family="Times,serif" font-size="14.00" fill="#000000">of_exposure</text>
</g>
<!-- sample&#45;&gt;participant -->
<g id="edge19" class="edge">
<title>sample&#45;&gt;participant</title>
<path fill="none" stroke="#000000" d="M1895.3842,-179.8705C1859.8711,-167.4973 1801.537,-149.0122 1749.4796,-141 1741.4068,-139.7575 1273.7219,-117.208 1091.2706,-108.4437"/>
<polygon fill="#000000" stroke="#000000" points="1091.3899,-104.9455 1081.2335,-107.9616 1091.054,-111.9374 1091.3899,-104.9455"/>
<text text-anchor="middle" x="1849.9796" y="-144.8" font-family="Times,serif" font-size="14.00" fill="#000000">of_sample</text>
</g>
<!-- sample&#45;&gt;pdx -->
<g id="edge18" class="edge">
<title>sample&#45;&gt;pdx</title>
<path fill="none" stroke="#000000" d="M1972.3336,-189.2772C2046.3632,-184.4116 2200.7448,-173.1047 2330.4796,-156 2415.0188,-144.8541 2438.347,-149.2415 2519.4796,-123 2521.4166,-122.3735 2523.381,-121.6634 2525.3425,-120.896"/>
<polygon fill="#000000" stroke="#000000" points="2527.2111,-123.9003 2534.9876,-116.7047 2524.4212,-117.4803 2527.2111,-123.9003"/>
<text text-anchor="middle" x="2484.9796" y="-144.8" font-family="Times,serif" font-size="14.00" fill="#000000">of_sample</text>
</g>
<!-- cell_line -->
<g id="node23" class="node">
<title>cell_line</title>
<ellipse fill="none" stroke="#000000" cx="1967.4796" cy="-105" rx="49.2915" ry="18"/>
<text text-anchor="middle" x="1967.4796" y="-101.3" font-family="Times,serif" font-size="14.00" fill="#000000">cell_line</text>
</g>
<!-- sample&#45;&gt;cell_line -->
<g id="edge20" class="edge">
<title>sample&#45;&gt;cell_line</title>
<path fill="none" stroke="#000000" d="M1920.6708,-174.215C1917.4012,-164.0367 1915.4012,-151.2867 1920.4796,-141 1923.1612,-135.5681 1927.0992,-130.7292 1931.573,-126.4981"/>
<polygon fill="#000000" stroke="#000000" points="1934.0081,-129.0261 1939.4807,-119.9541 1929.5452,-123.6333 1934.0081,-129.0261"/>
<text text-anchor="middle" x="1956.9796" y="-144.8" font-family="Times,serif" font-size="14.00" fill="#000000">of_sample</text>
</g>
<!-- study_admin -->
<g id="node18" class="node">
<title>study_admin</title>
<ellipse fill="none" stroke="#000000" cx="2296.4796" cy="-105" rx="70.3881" ry="18"/>
<text text-anchor="middle" x="2296.4796" y="-101.3" font-family="Times,serif" font-size="14.00" fill="#000000">study_admin</text>
</g>
<!-- study_admin&#45;&gt;study -->
<g id="edge10" class="edge">
<title>study_admin&#45;&gt;study</title>
<path fill="none" stroke="#000000" d="M2273.9932,-87.8413C2257.5787,-76.2645 2234.2966,-61.7371 2211.4796,-54 2162.7233,-37.467 2017.324,-25.9182 1941.9485,-20.865"/>
<polygon fill="#000000" stroke="#000000" points="1942.0035,-17.3611 1931.7948,-20.1952 1941.5427,-24.3459 1942.0035,-17.3611"/>
<text text-anchor="middle" x="2299.9796" y="-57.8" font-family="Times,serif" font-size="14.00" fill="#000000">of_study_admin</text>
</g>
<!-- sequencing_file -->
<g id="node19" class="node">
<title>sequencing_file</title>
<ellipse fill="none" stroke="#000000" cx="1393.4796" cy="-279" rx="83.3857" ry="18"/>
<text text-anchor="middle" x="1393.4796" y="-275.3" font-family="Times,serif" font-size="14.00" fill="#000000">sequencing_file</text>
</g>
<!-- sequencing_file&#45;&gt;sample -->
<g id="edge17" class="edge">
<title>sequencing_file&#45;&gt;sample</title>
<path fill="none" stroke="#000000" d="M1420.8127,-261.9013C1441.3399,-250.0308 1470.5964,-235.1177 1498.4796,-228 1661.014,-186.51 1710.6749,-241.2775 1875.4796,-210 1879.1314,-209.3069 1882.8751,-208.4192 1886.6018,-207.4103"/>
<polygon fill="#000000" stroke="#000000" points="1887.7662,-210.7155 1896.3518,-204.5076 1885.7688,-204.0065 1887.7662,-210.7155"/>
<text text-anchor="middle" x="1564.9796" y="-231.8" font-family="Times,serif" font-size="14.00" fill="#000000">of_sequencing_file</text>
</g>
<!-- radiology_file -->
<g id="node20" class="node">
<title>radiology_file</title>
<ellipse fill="none" stroke="#000000" cx="550.4796" cy="-192" rx="73.387" ry="18"/>
<text text-anchor="middle" x="550.4796" y="-188.3" font-family="Times,serif" font-size="14.00" fill="#000000">radiology_file</text>
</g>
<!-- radiology_file&#45;&gt;participant -->
<g id="edge6" class="edge">
<title>radiology_file&#45;&gt;participant</title>
<path fill="none" stroke="#000000" d="M568.7209,-174.3904C581.9617,-162.7621 600.9177,-148.359 620.4796,-141 678.4015,-119.2103 848.5945,-110.3186 946.9854,-106.9222"/>
<polygon fill="#000000" stroke="#000000" points="947.2761,-110.4145 957.1534,-106.5819 947.0419,-103.4184 947.2761,-110.4145"/>
<text text-anchor="middle" x="679.4796" y="-144.8" font-family="Times,serif" font-size="14.00" fill="#000000">of_radiology_file</text>
</g>
<!-- pathology_file -->
<g id="node21" class="node">
<title>pathology_file</title>
<ellipse fill="none" stroke="#000000" cx="1718.4796" cy="-279" rx="76.0865" ry="18"/>
<text text-anchor="middle" x="1718.4796" y="-275.3" font-family="Times,serif" font-size="14.00" fill="#000000">pathology_file</text>
</g>
<!-- pathology_file&#45;&gt;sample -->
<g id="edge32" class="edge">
<title>pathology_file&#45;&gt;sample</title>
<path fill="none" stroke="#000000" d="M1742.4226,-261.7547C1758.6842,-250.7381 1781.0521,-236.9008 1802.4796,-228 1833.3392,-215.1812 1843.4074,-219.3816 1875.4796,-210 1878.6507,-209.0724 1881.9143,-208.0737 1885.19,-207.0391"/>
<polygon fill="#000000" stroke="#000000" points="1886.5421,-210.2801 1894.9726,-203.8631 1884.3805,-203.6222 1886.5421,-210.2801"/>
<text text-anchor="middle" x="1863.4796" y="-231.8" font-family="Times,serif" font-size="14.00" fill="#000000">of_pathology_file</text>
</g>
<!-- publication -->
<g id="node22" class="node">
<title>publication</title>
<ellipse fill="none" stroke="#000000" cx="2447.4796" cy="-105" rx="63.0888" ry="18"/>
<text text-anchor="middle" x="2447.4796" y="-101.3" font-family="Times,serif" font-size="14.00" fill="#000000">publication</text>
</g>
<!-- publication&#45;&gt;study -->
<g id="edge28" class="edge">
<title>publication&#45;&gt;study</title>
<path fill="none" stroke="#000000" d="M2425.2011,-88.0906C2408.3762,-76.3141 2384.203,-61.4358 2360.4796,-54 2283.4309,-29.8499 2044.2031,-21.4788 1942.2586,-18.9588"/>
<polygon fill="#000000" stroke="#000000" points="1942.0453,-15.4528 1931.9645,-18.7128 1941.878,-22.4508 1942.0453,-15.4528"/>
<text text-anchor="middle" x="2443.4796" y="-57.8" font-family="Times,serif" font-size="14.00" fill="#000000">of_publication</text>
</g>
<!-- cell_line&#45;&gt;study -->
<g id="edge29" class="edge">
<title>cell_line&#45;&gt;study</title>
<path fill="none" stroke="#000000" d="M1963.1457,-86.6594C1960.0344,-76.2958 1955.0344,-63.5458 1947.4796,-54 1942.4009,-47.5829 1935.8719,-41.8509 1929.1674,-36.949"/>
<polygon fill="#000000" stroke="#000000" points="1930.9189,-33.908 1920.6773,-31.1949 1926.9916,-39.7025 1930.9189,-33.908"/>
<text text-anchor="middle" x="1995.9796" y="-57.8" font-family="Times,serif" font-size="14.00" fill="#000000">of_cell_line</text>
</g>
<!-- cell_line&#45;&gt;sample -->
<g id="edge30" class="edge">
<title>cell_line&#45;&gt;sample</title>
<path fill="none" stroke="#000000" d="M1985.3234,-122.2802C1993.438,-132.2902 1999.938,-145.0402 1993.4796,-156 1988.5217,-164.4135 1980.8119,-170.9991 1972.4114,-176.1021"/>
<polygon fill="#000000" stroke="#000000" points="1970.6431,-173.079 1963.4935,-180.8978 1973.9585,-179.2441 1970.6431,-173.079"/>
<text text-anchor="middle" x="2035.9796" y="-144.8" font-family="Times,serif" font-size="14.00" fill="#000000">of_cell_line</text>
</g>
<!-- treatment -->
<g id="node24" class="node">
<title>treatment</title>
<ellipse fill="none" stroke="#000000" cx="699.4796" cy="-192" rx="57.6901" ry="18"/>
<text text-anchor="middle" x="699.4796" y="-188.3" font-family="Times,serif" font-size="14.00" fill="#000000">treatment</text>
</g>
<!-- treatment&#45;&gt;participant -->
<g id="edge25" class="edge">
<title>treatment&#45;&gt;participant</title>
<path fill="none" stroke="#000000" d="M717.5401,-174.7057C730.6285,-163.2221 749.3246,-148.8621 768.4796,-141 800.3062,-127.9368 886.833,-117.4055 949.4028,-111.1838"/>
<polygon fill="#000000" stroke="#000000" points="950.0044,-114.6418 959.6163,-110.1851 949.3231,-107.675 950.0044,-114.6418"/>
<text text-anchor="middle" x="815.4796" y="-144.8" font-family="Times,serif" font-size="14.00" fill="#000000">of_treatment</text>
</g>
<!-- diagnosis -->
<g id="node25" class="node">
<title>diagnosis</title>
<ellipse fill="none" stroke="#000000" cx="1559.4796" cy="-279" rx="54.6905" ry="18"/>
<text text-anchor="middle" x="1559.4796" y="-275.3" font-family="Times,serif" font-size="14.00" fill="#000000">diagnosis</text>
</g>
<!-- diagnosis&#45;&gt;participant -->
<g id="edge15" class="edge">
<title>diagnosis&#45;&gt;participant</title>
<path fill="none" stroke="#000000" d="M1557.5524,-260.9137C1553.2317,-230.3613 1539.75,-169.1167 1499.4796,-141 1466.9482,-118.2867 1218.526,-109.4609 1092.4289,-106.4178"/>
<polygon fill="#000000" stroke="#000000" points="1092.1713,-102.9108 1082.0917,-106.1746 1092.0067,-109.9089 1092.1713,-102.9108"/>
<text text-anchor="middle" x="1589.9796" y="-188.3" font-family="Times,serif" font-size="14.00" fill="#000000">of_diagnosis</text>
</g>
<!-- diagnosis&#45;&gt;sample -->
<g id="edge16" class="edge">
<title>diagnosis&#45;&gt;sample</title>
<path fill="none" stroke="#000000" d="M1588.9285,-263.5651C1612.9012,-251.7509 1647.973,-236.1436 1680.4796,-228 1764.9057,-206.8495 1790.3515,-228.1198 1875.4796,-210 1879.0646,-209.2369 1882.7438,-208.3079 1886.4115,-207.2785"/>
<polygon fill="#000000" stroke="#000000" points="1887.4674,-210.6158 1896.021,-204.3639 1885.4356,-203.9171 1887.4674,-210.6158"/>
<text text-anchor="middle" x="1724.9796" y="-231.8" font-family="Times,serif" font-size="14.00" fill="#000000">of_diagnosis</text>
</g>
</g>
</svg>
