<svg width="2426pt" height="305pt"
 viewBox="0.00 0.00 2426.09 305.00" xmlns="http://www.w3.org/2000/svg" xmlns:xlink="http://www.w3.org/1999/xlink">
<g id="graph0" class="graph" transform="scale(1 1) rotate(0) translate(4 301)">
<title>Perl</title>
<polygon fill="#ffffff" stroke="transparent" points="-4,4 -4,-301 2422.0877,-301 2422.0877,4 -4,4"/>
<!-- methylation_array_file -->
<g id="node1" class="node">
<title>methylation_array_file</title>
<ellipse fill="none" stroke="#000000" cx="470.0433" cy="-279" rx="115.8798" ry="18"/>
<text text-anchor="middle" x="470.0433" y="-275.3" font-family="Times,serif" font-size="14.00" fill="#000000">methylation_array_file</text>
</g>
<!-- sample -->
<g id="node3" class="node">
<title>sample</title>
<ellipse fill="none" stroke="#000000" cx="361.0433" cy="-192" rx="44.393" ry="18"/>
<text text-anchor="middle" x="361.0433" y="-188.3" font-family="Times,serif" font-size="14.00" fill="#000000">sample</text>
</g>
<!-- methylation_array_file&#45;&gt;sample -->
<g id="edge5" class="edge">
<title>methylation_array_file&#45;&gt;sample</title>
<path fill="none" stroke="#000000" d="M465.9408,-260.9825C462.6763,-250.2132 457.1106,-236.9331 448.0433,-228 441.4114,-221.4663 423.4572,-213.6198 405.5692,-206.9221"/>
<polygon fill="#000000" stroke="#000000" points="406.3046,-203.4653 395.7106,-203.3351 403.9112,-210.0434 406.3046,-203.4653"/>
<text text-anchor="middle" x="549.5433" y="-231.8" font-family="Times,serif" font-size="14.00" fill="#000000">of_methylation_array_file</text>
</g>
<!-- medical_history -->
<g id="node2" class="node">
<title>medical_history</title>
<ellipse fill="none" stroke="#000000" cx="1251.0433" cy="-192" rx="85.2851" ry="18"/>
<text text-anchor="middle" x="1251.0433" y="-188.3" font-family="Times,serif" font-size="14.00" fill="#000000">medical_history</text>
</g>
<!-- participant -->
<g id="node6" class="node">
<title>participant</title>
<ellipse fill="none" stroke="#000000" cx="1253.0433" cy="-105" rx="62.2891" ry="18"/>
<text text-anchor="middle" x="1253.0433" y="-101.3" font-family="Times,serif" font-size="14.00" fill="#000000">participant</text>
</g>
<!-- medical_history&#45;&gt;participant -->
<g id="edge30" class="edge">
<title>medical_history&#45;&gt;participant</title>
<path fill="none" stroke="#000000" d="M1251.4577,-173.9735C1251.7285,-162.1918 1252.0878,-146.5607 1252.3959,-133.1581"/>
<polygon fill="#000000" stroke="#000000" points="1255.8985,-133.0812 1252.6294,-123.0034 1248.9004,-132.9202 1255.8985,-133.0812"/>
<text text-anchor="middle" x="1320.0433" y="-144.8" font-family="Times,serif" font-size="14.00" fill="#000000">of_medical_history</text>
</g>
<!-- cell_line -->
<g id="node5" class="node">
<title>cell_line</title>
<ellipse fill="none" stroke="#000000" cx="241.0433" cy="-105" rx="49.2915" ry="18"/>
<text text-anchor="middle" x="241.0433" y="-101.3" font-family="Times,serif" font-size="14.00" fill="#000000">cell_line</text>
</g>
<!-- sample&#45;&gt;cell_line -->
<g id="edge14" class="edge">
<title>sample&#45;&gt;cell_line</title>
<path fill="none" stroke="#000000" d="M322.0621,-183.249C295.1548,-176.4451 262.5726,-166.435 253.0433,-156 247.3504,-149.7661 244.2081,-141.3489 242.5152,-133.1508"/>
<polygon fill="#000000" stroke="#000000" points="245.9525,-132.4639 241.0633,-123.0647 239.0239,-133.4614 245.9525,-132.4639"/>
<text text-anchor="middle" x="289.5433" y="-144.8" font-family="Times,serif" font-size="14.00" fill="#000000">of_sample</text>
</g>
<!-- sample&#45;&gt;participant -->
<g id="edge13" class="edge">
<title>sample&#45;&gt;participant</title>
<path fill="none" stroke="#000000" d="M394.9355,-180.3684C401.2773,-178.2264 407.8561,-176.0273 414.0433,-174 439.289,-165.7279 446.4191,-165.9715 471.0433,-156 484.8605,-150.4048 486.6207,-144.77 501.0433,-141 582.1899,-119.7883 794.266,-127.0106 878.0433,-123 983.4383,-117.9545 1105.4944,-112.0922 1180.9937,-108.4638"/>
<polygon fill="#000000" stroke="#000000" points="1181.511,-111.9431 1191.3314,-107.967 1181.1749,-104.9512 1181.511,-111.9431"/>
<text text-anchor="middle" x="537.5433" y="-144.8" font-family="Times,serif" font-size="14.00" fill="#000000">of_sample</text>
</g>
<!-- pdx -->
<g id="node19" class="node">
<title>pdx</title>
<ellipse fill="none" stroke="#000000" cx="433.0433" cy="-105" rx="27.8951" ry="18"/>
<text text-anchor="middle" x="433.0433" y="-101.3" font-family="Times,serif" font-size="14.00" fill="#000000">pdx</text>
</g>
<!-- sample&#45;&gt;pdx -->
<g id="edge15" class="edge">
<title>sample&#45;&gt;pdx</title>
<path fill="none" stroke="#000000" d="M342.8359,-175.3188C333.872,-165.0525 326.4565,-151.8316 334.0433,-141 341.5127,-130.3358 371.298,-120.3979 396.2652,-113.6772"/>
<polygon fill="#000000" stroke="#000000" points="397.4392,-116.9886 406.2396,-111.0891 395.681,-110.2129 397.4392,-116.9886"/>
<text text-anchor="middle" x="370.5433" y="-144.8" font-family="Times,serif" font-size="14.00" fill="#000000">of_sample</text>
</g>
<!-- cytogenomic_file -->
<g id="node4" class="node">
<title>cytogenomic_file</title>
<ellipse fill="none" stroke="#000000" cx="693.0433" cy="-279" rx="89.8845" ry="18"/>
<text text-anchor="middle" x="693.0433" y="-275.3" font-family="Times,serif" font-size="14.00" fill="#000000">cytogenomic_file</text>
</g>
<!-- cytogenomic_file&#45;&gt;sample -->
<g id="edge1" class="edge">
<title>cytogenomic_file&#45;&gt;sample</title>
<path fill="none" stroke="#000000" d="M681.4955,-261.1026C672.942,-249.5027 660.176,-235.249 645.0433,-228 598.6072,-205.7559 464.4793,-220.3596 414.0433,-210 410.4023,-209.2521 406.6662,-208.3259 402.9446,-207.2913"/>
<polygon fill="#000000" stroke="#000000" points="403.7876,-203.8898 393.2026,-204.3477 401.7628,-210.5906 403.7876,-203.8898"/>
<text text-anchor="middle" x="736.5433" y="-231.8" font-family="Times,serif" font-size="14.00" fill="#000000">of_cytogenomic_file</text>
</g>
<!-- cell_line&#45;&gt;sample -->
<g id="edge24" class="edge">
<title>cell_line&#45;&gt;sample</title>
<path fill="none" stroke="#000000" d="M199.6447,-114.8506C172.0109,-123.3816 143.3809,-137.2995 159.0433,-156 177.5762,-178.1279 253.5922,-186.6667 306.8876,-189.9538"/>
<polygon fill="#000000" stroke="#000000" points="306.7038,-193.4489 316.8875,-190.5262 307.1038,-186.4604 306.7038,-193.4489"/>
<text text-anchor="middle" x="199.5433" y="-144.8" font-family="Times,serif" font-size="14.00" fill="#000000">of_cell_line</text>
</g>
<!-- study -->
<g id="node13" class="node">
<title>study</title>
<ellipse fill="none" stroke="#000000" cx="1494.0433" cy="-18" rx="36.2938" ry="18"/>
<text text-anchor="middle" x="1494.0433" y="-14.3" font-family="Times,serif" font-size="14.00" fill="#000000">study</text>
</g>
<!-- cell_line&#45;&gt;study -->
<g id="edge25" class="edge">
<title>cell_line&#45;&gt;study</title>
<path fill="none" stroke="#000000" d="M280.8535,-94.2693C327.9993,-82.084 409.0923,-62.7613 480.0433,-54 671.0704,-30.4112 1274.8838,-20.8616 1447.523,-18.5718"/>
<polygon fill="#000000" stroke="#000000" points="1447.6029,-22.0711 1457.5562,-18.4405 1447.5112,-15.0717 1447.6029,-22.0711"/>
<text text-anchor="middle" x="520.5433" y="-57.8" font-family="Times,serif" font-size="14.00" fill="#000000">of_cell_line</text>
</g>
<!-- participant&#45;&gt;study -->
<g id="edge2" class="edge">
<title>participant&#45;&gt;study</title>
<path fill="none" stroke="#000000" d="M1270.2407,-87.5221C1282.317,-76.2603 1299.406,-62.2332 1317.0433,-54 1358.8597,-34.4798 1411.091,-25.5056 1447.9442,-21.4033"/>
<polygon fill="#000000" stroke="#000000" points="1448.3235,-24.8828 1457.9095,-20.3707 1447.602,-17.9201 1448.3235,-24.8828"/>
<text text-anchor="middle" x="1367.5433" y="-57.8" font-family="Times,serif" font-size="14.00" fill="#000000">of_participant</text>
</g>
<!-- synonym -->
<g id="node7" class="node">
<title>synonym</title>
<ellipse fill="none" stroke="#000000" cx="2151.0433" cy="-279" rx="51.9908" ry="18"/>
<text text-anchor="middle" x="2151.0433" y="-275.3" font-family="Times,serif" font-size="14.00" fill="#000000">synonym</text>
</g>
<!-- synonym&#45;&gt;sample -->
<g id="edge17" class="edge">
<title>synonym&#45;&gt;sample</title>
<path fill="none" stroke="#000000" d="M2099.6907,-275.8028C1954.4639,-266.8726 1528.3482,-241.4405 1174.0433,-228 1005.2284,-221.5961 580.3834,-239.503 414.0433,-210 410.3326,-209.3419 406.5299,-208.47 402.7481,-207.4644"/>
<polygon fill="#000000" stroke="#000000" points="403.4463,-204.0212 392.8644,-204.5446 401.4631,-210.7344 403.4463,-204.0212"/>
<text text-anchor="middle" x="1538.5433" y="-231.8" font-family="Times,serif" font-size="14.00" fill="#000000">of_synonym</text>
</g>
<!-- synonym&#45;&gt;participant -->
<g id="edge18" class="edge">
<title>synonym&#45;&gt;participant</title>
<path fill="none" stroke="#000000" d="M2147.0615,-260.7215C2141.046,-237.3659 2127.43,-197.1938 2101.0433,-174 2065.5737,-142.8225 2046.5768,-149.0467 2000.0433,-141 1852.1843,-115.4318 1473.7147,-143.3176 1325.0433,-123 1319.3185,-122.2176 1313.39,-121.1571 1307.5049,-119.9397"/>
<polygon fill="#000000" stroke="#000000" points="1308.2055,-116.5101 1297.6852,-117.7645 1306.6916,-123.3445 1308.2055,-116.5101"/>
<text text-anchor="middle" x="2169.5433" y="-188.3" font-family="Times,serif" font-size="14.00" fill="#000000">of_synonym</text>
</g>
<!-- synonym&#45;&gt;study -->
<g id="edge19" class="edge">
<title>synonym&#45;&gt;study</title>
<path fill="none" stroke="#000000" d="M2173.7074,-262.636C2199.4238,-241.9842 2235.43,-205.3684 2216.0433,-174 2153.3462,-72.554 2091.0083,-85.706 1976.0433,-54 1895.0005,-31.6494 1645.5455,-22.2322 1540.9545,-19.1948"/>
<polygon fill="#000000" stroke="#000000" points="1540.7989,-15.6891 1530.7037,-18.9042 1540.6005,-22.6863 1540.7989,-15.6891"/>
<text text-anchor="middle" x="2244.5433" y="-144.8" font-family="Times,serif" font-size="14.00" fill="#000000">of_synonym</text>
</g>
<!-- exposure -->
<g id="node8" class="node">
<title>exposure</title>
<ellipse fill="none" stroke="#000000" cx="476.0433" cy="-192" rx="53.0913" ry="18"/>
<text text-anchor="middle" x="476.0433" y="-188.3" font-family="Times,serif" font-size="14.00" fill="#000000">exposure</text>
</g>
<!-- exposure&#45;&gt;participant -->
<g id="edge3" class="edge">
<title>exposure&#45;&gt;participant</title>
<path fill="none" stroke="#000000" d="M513.4363,-179.0827C532.7706,-172.3329 556.7237,-163.8605 578.0433,-156 595.4678,-149.5756 598.8873,-144.9051 617.0433,-141 644.187,-135.1618 1020.1929,-116.3264 1180.9668,-108.4806"/>
<polygon fill="#000000" stroke="#000000" points="1181.4217,-111.9627 1191.2395,-107.98 1181.0809,-104.971 1181.4217,-111.9627"/>
<text text-anchor="middle" x="660.5433" y="-144.8" font-family="Times,serif" font-size="14.00" fill="#000000">of_exposure</text>
</g>
<!-- clinical_measure_file -->
<g id="node9" class="node">
<title>clinical_measure_file</title>
<ellipse fill="none" stroke="#000000" cx="874.0433" cy="-192" rx="108.5808" ry="18"/>
<text text-anchor="middle" x="874.0433" y="-188.3" font-family="Times,serif" font-size="14.00" fill="#000000">clinical_measure_file</text>
</g>
<!-- clinical_measure_file&#45;&gt;participant -->
<g id="edge26" class="edge">
<title>clinical_measure_file&#45;&gt;participant</title>
<path fill="none" stroke="#000000" d="M889.335,-173.7503C900.0395,-162.3095 915.3664,-148.377 932.0433,-141 975.2,-121.9096 1100.352,-112.3607 1181.0343,-108.0587"/>
<polygon fill="#000000" stroke="#000000" points="1181.3273,-111.5483 1191.1327,-107.5352 1180.9649,-104.5577 1181.3273,-111.5483"/>
<text text-anchor="middle" x="1018.0433" y="-144.8" font-family="Times,serif" font-size="14.00" fill="#000000">of_clinical_measure_file</text>
</g>
<!-- clinical_measure_file&#45;&gt;study -->
<g id="edge27" class="edge">
<title>clinical_measure_file&#45;&gt;study</title>
<path fill="none" stroke="#000000" d="M797.9142,-179.0229C760.2366,-171.8269 721.5919,-162.9551 716.0433,-156 711.8857,-150.7886 711.7762,-146.1222 716.0433,-141 763.4695,-84.0695 1288.2662,-35.3714 1448.1109,-21.7742"/>
<polygon fill="#000000" stroke="#000000" points="1448.4332,-25.2595 1458.1029,-20.9296 1447.8436,-18.2844 1448.4332,-25.2595"/>
<text text-anchor="middle" x="973.0433" y="-101.3" font-family="Times,serif" font-size="14.00" fill="#000000">of_clinical_measure_file</text>
</g>
<!-- study_funding -->
<g id="node10" class="node">
<title>study_funding</title>
<ellipse fill="none" stroke="#000000" cx="1411.0433" cy="-105" rx="77.1866" ry="18"/>
<text text-anchor="middle" x="1411.0433" y="-101.3" font-family="Times,serif" font-size="14.00" fill="#000000">study_funding</text>
</g>
<!-- study_funding&#45;&gt;study -->
<g id="edge9" class="edge">
<title>study_funding&#45;&gt;study</title>
<path fill="none" stroke="#000000" d="M1414.9336,-86.896C1417.9277,-76.36 1422.9589,-63.3546 1431.0433,-54 1437.9623,-45.9938 1447.1237,-39.3657 1456.3109,-34.0733"/>
<polygon fill="#000000" stroke="#000000" points="1458.2403,-37.0114 1465.4247,-29.2246 1454.9524,-30.8316 1458.2403,-37.0114"/>
<text text-anchor="middle" x="1493.0433" y="-57.8" font-family="Times,serif" font-size="14.00" fill="#000000">of_study_funding</text>
</g>
<!-- family_relationship -->
<g id="node11" class="node">
<title>family_relationship</title>
<ellipse fill="none" stroke="#000000" cx="647.0433" cy="-192" rx="100.1823" ry="18"/>
<text text-anchor="middle" x="647.0433" y="-188.3" font-family="Times,serif" font-size="14.00" fill="#000000">family_relationship</text>
</g>
<!-- family_relationship&#45;&gt;participant -->
<g id="edge28" class="edge">
<title>family_relationship&#45;&gt;participant</title>
<path fill="none" stroke="#000000" d="M673.2558,-174.5715C692.316,-162.8675 719.2025,-148.2991 745.0433,-141 785.8434,-129.4753 1050.6771,-115.0111 1180.9305,-108.4818"/>
<polygon fill="#000000" stroke="#000000" points="1181.3964,-111.963 1191.2096,-107.969 1181.0476,-104.9717 1181.3964,-111.963"/>
<text text-anchor="middle" x="824.5433" y="-144.8" font-family="Times,serif" font-size="14.00" fill="#000000">of_family_relationship</text>
</g>
<!-- radiology_file -->
<g id="node12" class="node">
<title>radiology_file</title>
<ellipse fill="none" stroke="#000000" cx="1074.0433" cy="-192" rx="73.387" ry="18"/>
<text text-anchor="middle" x="1074.0433" y="-188.3" font-family="Times,serif" font-size="14.00" fill="#000000">radiology_file</text>
</g>
<!-- radiology_file&#45;&gt;participant -->
<g id="edge16" class="edge">
<title>radiology_file&#45;&gt;participant</title>
<path fill="none" stroke="#000000" d="M1089.2649,-174.1486C1099.5006,-163.1666 1113.8581,-149.5963 1129.0433,-141 1147.8195,-130.3708 1170.0053,-122.6454 1190.3827,-117.1427"/>
<polygon fill="#000000" stroke="#000000" points="1191.4029,-120.4944 1200.218,-114.617 1189.6617,-113.7144 1191.4029,-120.4944"/>
<text text-anchor="middle" x="1188.0433" y="-144.8" font-family="Times,serif" font-size="14.00" fill="#000000">of_radiology_file</text>
</g>
<!-- study_admin -->
<g id="node14" class="node">
<title>study_admin</title>
<ellipse fill="none" stroke="#000000" cx="1577.0433" cy="-105" rx="70.3881" ry="18"/>
<text text-anchor="middle" x="1577.0433" y="-101.3" font-family="Times,serif" font-size="14.00" fill="#000000">study_admin</text>
</g>
<!-- study_admin&#45;&gt;study -->
<g id="edge31" class="edge">
<title>study_admin&#45;&gt;study</title>
<path fill="none" stroke="#000000" d="M1572.325,-86.932C1568.8759,-76.4088 1563.3321,-63.4041 1555.0433,-54 1548.3446,-46.4001 1539.6402,-39.9635 1530.9146,-34.7284"/>
<polygon fill="#000000" stroke="#000000" points="1532.3371,-31.5146 1521.8971,-29.7095 1528.9328,-37.631 1532.3371,-31.5146"/>
<text text-anchor="middle" x="1620.5433" y="-57.8" font-family="Times,serif" font-size="14.00" fill="#000000">of_study_admin</text>
</g>
<!-- study_arm -->
<g id="node15" class="node">
<title>study_arm</title>
<ellipse fill="none" stroke="#000000" cx="1725.0433" cy="-105" rx="59.5901" ry="18"/>
<text text-anchor="middle" x="1725.0433" y="-101.3" font-family="Times,serif" font-size="14.00" fill="#000000">study_arm</text>
</g>
<!-- study_arm&#45;&gt;study -->
<g id="edge4" class="edge">
<title>study_arm&#45;&gt;study</title>
<path fill="none" stroke="#000000" d="M1714.1769,-87.138C1706.3663,-75.861 1694.8086,-61.9652 1681.0433,-54 1657.516,-40.3861 1587.0608,-29.4084 1539.6702,-23.2971"/>
<polygon fill="#000000" stroke="#000000" points="1539.998,-19.8108 1529.6385,-22.0314 1539.1217,-26.7558 1539.998,-19.8108"/>
<text text-anchor="middle" x="1747.5433" y="-57.8" font-family="Times,serif" font-size="14.00" fill="#000000">of_study_arm</text>
</g>
<!-- study_personnel -->
<g id="node16" class="node">
<title>study_personnel</title>
<ellipse fill="none" stroke="#000000" cx="1890.0433" cy="-105" rx="87.1846" ry="18"/>
<text text-anchor="middle" x="1890.0433" y="-101.3" font-family="Times,serif" font-size="14.00" fill="#000000">study_personnel</text>
</g>
<!-- study_personnel&#45;&gt;study -->
<g id="edge7" class="edge">
<title>study_personnel&#45;&gt;study</title>
<path fill="none" stroke="#000000" d="M1865.6965,-87.6452C1848.2626,-76.1338 1823.7681,-61.7656 1800.0433,-54 1752.982,-38.5959 1613.9393,-26.6432 1540.5763,-21.2067"/>
<polygon fill="#000000" stroke="#000000" points="1540.476,-17.6902 1530.2475,-20.4523 1539.966,-24.6716 1540.476,-17.6902"/>
<text text-anchor="middle" x="1902.5433" y="-57.8" font-family="Times,serif" font-size="14.00" fill="#000000">of_study_personnel</text>
</g>
<!-- pathology_file -->
<g id="node17" class="node">
<title>pathology_file</title>
<ellipse fill="none" stroke="#000000" cx="76.0433" cy="-279" rx="76.0865" ry="18"/>
<text text-anchor="middle" x="76.0433" y="-275.3" font-family="Times,serif" font-size="14.00" fill="#000000">pathology_file</text>
</g>
<!-- pathology_file&#45;&gt;sample -->
<g id="edge6" class="edge">
<title>pathology_file&#45;&gt;sample</title>
<path fill="none" stroke="#000000" d="M102.465,-261.9728C120.9858,-250.7612 146.689,-236.6142 171.0433,-228 215.788,-212.1737 269.0542,-202.8485 307.786,-197.6706"/>
<polygon fill="#000000" stroke="#000000" points="308.3339,-201.129 317.8048,-196.3801 307.4396,-194.1863 308.3339,-201.129"/>
<text text-anchor="middle" x="232.0433" y="-231.8" font-family="Times,serif" font-size="14.00" fill="#000000">of_pathology_file</text>
</g>
<!-- diagnosis -->
<g id="node18" class="node">
<title>diagnosis</title>
<ellipse fill="none" stroke="#000000" cx="1703.0433" cy="-279" rx="54.6905" ry="18"/>
<text text-anchor="middle" x="1703.0433" y="-275.3" font-family="Times,serif" font-size="14.00" fill="#000000">diagnosis</text>
</g>
<!-- diagnosis&#45;&gt;sample -->
<g id="edge23" class="edge">
<title>diagnosis&#45;&gt;sample</title>
<path fill="none" stroke="#000000" d="M1649.3228,-275.7001C1510.7151,-267.2347 1129.6425,-244.2708 812.0433,-228 723.6244,-223.4702 501.0462,-226.3986 414.0433,-210 410.3906,-209.3115 406.6463,-208.427 402.9192,-207.4202"/>
<polygon fill="#000000" stroke="#000000" points="403.7513,-204.0163 393.1685,-204.521 401.7562,-210.726 403.7513,-204.0163"/>
<text text-anchor="middle" x="1125.5433" y="-231.8" font-family="Times,serif" font-size="14.00" fill="#000000">of_diagnosis</text>
</g>
<!-- diagnosis&#45;&gt;participant -->
<g id="edge22" class="edge">
<title>diagnosis&#45;&gt;participant</title>
<path fill="none" stroke="#000000" d="M1756.0939,-274.3998C1832.9293,-266.514 1969.2735,-247.5074 1999.0433,-210 2019.0538,-184.7883 2005.2101,-156.5782 1977.0433,-141 1945.3339,-123.4625 1360.9433,-127.9233 1325.0433,-123 1319.3188,-122.215 1313.3906,-121.1526 1307.5057,-119.9342"/>
<polygon fill="#000000" stroke="#000000" points="1308.2066,-116.5047 1297.6861,-117.7578 1306.6918,-123.3389 1308.2066,-116.5047"/>
<text text-anchor="middle" x="2052.5433" y="-188.3" font-family="Times,serif" font-size="14.00" fill="#000000">of_diagnosis</text>
</g>
<!-- pdx&#45;&gt;sample -->
<g id="edge11" class="edge">
<title>pdx&#45;&gt;sample</title>
<path fill="none" stroke="#000000" d="M428.0083,-122.8014C424.447,-133.2302 418.8965,-146.2291 411.0433,-156 406.586,-161.5456 401.0695,-166.6398 395.3451,-171.1427"/>
<polygon fill="#000000" stroke="#000000" points="392.9222,-168.578 386.9086,-177.3008 397.0493,-174.232 392.9222,-168.578"/>
<text text-anchor="middle" x="443.0433" y="-144.8" font-family="Times,serif" font-size="14.00" fill="#000000">of_pdx</text>
</g>
<!-- pdx&#45;&gt;study -->
<g id="edge12" class="edge">
<title>pdx&#45;&gt;study</title>
<path fill="none" stroke="#000000" d="M458.2166,-97.0666C496.8662,-85.2826 573.3577,-63.5232 640.0433,-54 797.8298,-31.467 1292.1309,-21.4014 1447.0952,-18.7459"/>
<polygon fill="#000000" stroke="#000000" points="1447.2921,-22.2432 1457.2314,-18.5745 1447.1737,-15.2442 1447.2921,-22.2432"/>
<text text-anchor="middle" x="664.0433" y="-57.8" font-family="Times,serif" font-size="14.00" fill="#000000">of_pdx</text>
</g>
<!-- publication -->
<g id="node20" class="node">
<title>publication</title>
<ellipse fill="none" stroke="#000000" cx="2355.0433" cy="-105" rx="63.0888" ry="18"/>
<text text-anchor="middle" x="2355.0433" y="-101.3" font-family="Times,serif" font-size="14.00" fill="#000000">publication</text>
</g>
<!-- publication&#45;&gt;study -->
<g id="edge32" class="edge">
<title>publication&#45;&gt;study</title>
<path fill="none" stroke="#000000" d="M2335.4,-87.6176C2320.712,-75.773 2299.5362,-61.014 2278.0433,-54 2208.1636,-31.1955 1699.0273,-21.257 1540.8177,-18.6976"/>
<polygon fill="#000000" stroke="#000000" points="1540.532,-15.1927 1530.4775,-18.5328 1540.4204,-22.1918 1540.532,-15.1927"/>
<text text-anchor="middle" x="2358.0433" y="-57.8" font-family="Times,serif" font-size="14.00" fill="#000000">of_publication</text>
</g>
<!-- sequencing_file -->
<g id="node21" class="node">
<title>sequencing_file</title>
<ellipse fill="none" stroke="#000000" cx="253.0433" cy="-279" rx="83.3857" ry="18"/>
<text text-anchor="middle" x="253.0433" y="-275.3" font-family="Times,serif" font-size="14.00" fill="#000000">sequencing_file</text>
</g>
<!-- sequencing_file&#45;&gt;sample -->
<g id="edge20" class="edge">
<title>sequencing_file&#45;&gt;sample</title>
<path fill="none" stroke="#000000" d="M274.1734,-261.4049C286.1127,-251.517 301.3461,-238.9906 315.0433,-228 320.57,-223.5653 326.5068,-218.8695 332.218,-214.3854"/>
<polygon fill="#000000" stroke="#000000" points="334.6313,-216.9412 340.3502,-208.0224 330.3177,-211.4283 334.6313,-216.9412"/>
<text text-anchor="middle" x="381.5433" y="-231.8" font-family="Times,serif" font-size="14.00" fill="#000000">of_sequencing_file</text>
</g>
<!-- treatment -->
<g id="node22" class="node">
<title>treatment</title>
<ellipse fill="none" stroke="#000000" cx="1412.0433" cy="-192" rx="57.6901" ry="18"/>
<text text-anchor="middle" x="1412.0433" y="-188.3" font-family="Times,serif" font-size="14.00" fill="#000000">treatment</text>
</g>
<!-- treatment&#45;&gt;participant -->
<g id="edge29" class="edge">
<title>treatment&#45;&gt;participant</title>
<path fill="none" stroke="#000000" d="M1408.4912,-174.032C1405.4087,-163.0035 1399.8402,-149.4251 1390.0433,-141 1388.3958,-139.5833 1346.7908,-128.7533 1309.861,-119.3384"/>
<polygon fill="#000000" stroke="#000000" points="1310.6588,-115.9299 1300.1045,-116.856 1308.9327,-122.7138 1310.6588,-115.9299"/>
<text text-anchor="middle" x="1447.0433" y="-144.8" font-family="Times,serif" font-size="14.00" fill="#000000">of_treatment</text>
</g>
<!-- molecular_test -->
<g id="node23" class="node">
<title>molecular_test</title>
<ellipse fill="none" stroke="#000000" cx="1568.0433" cy="-192" rx="79.8859" ry="18"/>
<text text-anchor="middle" x="1568.0433" y="-188.3" font-family="Times,serif" font-size="14.00" fill="#000000">molecular_test</text>
</g>
<!-- molecular_test&#45;&gt;participant -->
<g id="edge21" class="edge">
<title>molecular_test&#45;&gt;participant</title>
<path fill="none" stroke="#000000" d="M1549.7701,-174.4742C1536.5146,-162.8844 1517.5543,-148.4927 1498.0433,-141 1425.8777,-113.2866 1401.1756,-136.4079 1325.0433,-123 1319.6502,-122.0502 1314.0635,-120.9197 1308.4959,-119.6946"/>
<polygon fill="#000000" stroke="#000000" points="1309.0711,-116.2356 1298.5411,-117.406 1307.5026,-123.0576 1309.0711,-116.2356"/>
<text text-anchor="middle" x="1589.0433" y="-144.8" font-family="Times,serif" font-size="14.00" fill="#000000">of_molecular_test</text>
</g>
<!-- survival -->
<g id="node24" class="node">
<title>survival</title>
<ellipse fill="none" stroke="#000000" cx="1714.0433" cy="-192" rx="48.1917" ry="18"/>
<text text-anchor="middle" x="1714.0433" y="-188.3" font-family="Times,serif" font-size="14.00" fill="#000000">survival</text>
</g>
<!-- survival&#45;&gt;participant -->
<g id="edge8" class="edge">
<title>survival&#45;&gt;participant</title>
<path fill="none" stroke="#000000" d="M1700.3449,-174.702C1689.88,-162.8983 1674.3458,-148.1534 1657.0433,-141 1588.7625,-112.7706 1398.1045,-134.0101 1325.0433,-123 1319.3298,-122.139 1313.4087,-121.0273 1307.528,-119.7792"/>
<polygon fill="#000000" stroke="#000000" points="1308.2377,-116.3514 1297.7132,-117.5701 1306.7005,-123.1806 1308.2377,-116.3514"/>
<text text-anchor="middle" x="1718.5433" y="-144.8" font-family="Times,serif" font-size="14.00" fill="#000000">of_survival</text>
</g>
<!-- treatment_response -->
<g id="node25" class="node">
<title>treatment_response</title>
<ellipse fill="none" stroke="#000000" cx="1885.0433" cy="-192" rx="104.7816" ry="18"/>
<text text-anchor="middle" x="1885.0433" y="-188.3" font-family="Times,serif" font-size="14.00" fill="#000000">treatment_response</text>
</g>
<!-- treatment_response&#45;&gt;participant -->
<g id="edge10" class="edge">
<title>treatment_response&#45;&gt;participant</title>
<path fill="none" stroke="#000000" d="M1852.663,-174.8736C1828.4371,-162.9893 1794.0988,-148.0711 1762.0433,-141 1572.2199,-99.127 1517.444,-150.7167 1325.0433,-123 1319.3243,-122.1761 1313.3996,-121.0886 1307.5168,-119.855"/>
<polygon fill="#000000" stroke="#000000" points="1308.2222,-116.4264 1297.6996,-117.6619 1306.696,-123.258 1308.2222,-116.4264"/>
<text text-anchor="middle" x="1890.0433" y="-144.8" font-family="Times,serif" font-size="14.00" fill="#000000">of_treatment_response</text>
</g>
</g>
</svg>
