<svg width="2718pt" height="392pt"
 viewBox="0.00 0.00 2718.00 392.00" xmlns="http://www.w3.org/2000/svg" xmlns:xlink="http://www.w3.org/1999/xlink">
<g id="graph0" class="graph" transform="scale(1 1) rotate(0) translate(4 388)">
<title>Perl</title>
<polygon fill="#ffffff" stroke="transparent" points="-4,4 -4,-388 2713.9954,-388 2713.9954,4 -4,4"/>
<!-- methylation_array_file -->
<g id="node1" class="node">
<title>methylation_array_file</title>
<ellipse fill="none" stroke="#000000" cx="2435.9954" cy="-366" rx="115.8798" ry="18"/>
<text text-anchor="middle" x="2435.9954" y="-362.3" font-family="Times,serif" font-size="14.00" fill="#000000">methylation_array_file</text>
</g>
<!-- sample -->
<g id="node27" class="node">
<title>sample</title>
<ellipse fill="none" stroke="#000000" cx="2137.9954" cy="-279" rx="44.393" ry="18"/>
<text text-anchor="middle" x="2137.9954" y="-275.3" font-family="Times,serif" font-size="14.00" fill="#000000">sample</text>
</g>
<!-- methylation_array_file&#45;&gt;sample -->
<g id="edge3" class="edge">
<title>methylation_array_file&#45;&gt;sample</title>
<path fill="none" stroke="#000000" d="M2400.2001,-348.683C2388.0583,-342.7833 2374.4241,-336.1301 2361.9954,-330 2348.626,-323.4059 2346.129,-319.7397 2331.9954,-315 2285.5364,-299.42 2230.4244,-290.0111 2190.8358,-284.7414"/>
<polygon fill="#000000" stroke="#000000" points="2191.2313,-281.2635 2180.8663,-283.458 2190.3375,-288.2062 2191.2313,-281.2635"/>
<text text-anchor="middle" x="2453.4954" y="-318.8" font-family="Times,serif" font-size="14.00" fill="#000000">of_methylation_array_file</text>
</g>
<!-- treatment_response -->
<g id="node2" class="node">
<title>treatment_response</title>
<ellipse fill="none" stroke="#000000" cx="1025.9954" cy="-279" rx="104.7816" ry="18"/>
<text text-anchor="middle" x="1025.9954" y="-275.3" font-family="Times,serif" font-size="14.00" fill="#000000">treatment_response</text>
</g>
<!-- participant -->
<g id="node13" class="node">
<title>participant</title>
<ellipse fill="none" stroke="#000000" cx="1214.9954" cy="-192" rx="62.2891" ry="18"/>
<text text-anchor="middle" x="1214.9954" y="-188.3" font-family="Times,serif" font-size="14.00" fill="#000000">participant</text>
</g>
<!-- treatment_response&#45;&gt;participant -->
<g id="edge23" class="edge">
<title>treatment_response&#45;&gt;participant</title>
<path fill="none" stroke="#000000" d="M1024.4452,-260.6684C1024.5657,-249.7809 1026.6993,-236.4868 1034.9954,-228 1050.2892,-212.3546 1100.9576,-203.1359 1144.655,-197.9507"/>
<polygon fill="#000000" stroke="#000000" points="1145.1767,-201.4141 1154.7195,-196.8113 1144.3892,-194.4585 1145.1767,-201.4141"/>
<text text-anchor="middle" x="1117.9954" y="-231.8" font-family="Times,serif" font-size="14.00" fill="#000000">of_treatment_response</text>
</g>
<!-- study -->
<g id="node3" class="node">
<title>study</title>
<ellipse fill="none" stroke="#000000" cx="1032.9954" cy="-18" rx="36.2938" ry="18"/>
<text text-anchor="middle" x="1032.9954" y="-14.3" font-family="Times,serif" font-size="14.00" fill="#000000">study</text>
</g>
<!-- synonym -->
<g id="node4" class="node">
<title>synonym</title>
<ellipse fill="none" stroke="#000000" cx="51.9954" cy="-366" rx="51.9908" ry="18"/>
<text text-anchor="middle" x="51.9954" y="-362.3" font-family="Times,serif" font-size="14.00" fill="#000000">synonym</text>
</g>
<!-- synonym&#45;&gt;study -->
<g id="edge18" class="edge">
<title>synonym&#45;&gt;study</title>
<path fill="none" stroke="#000000" d="M36.4219,-348.7467C23.0769,-332.1293 5.9954,-305.6534 5.9954,-279 5.9954,-279 5.9954,-279 5.9954,-105 5.9954,-55.1191 785.3557,-26.1221 986.225,-19.4769"/>
<polygon fill="#000000" stroke="#000000" points="986.5641,-22.9678 996.4439,-19.1417 986.3345,-15.9715 986.5641,-22.9678"/>
<text text-anchor="middle" x="48.4954" y="-188.3" font-family="Times,serif" font-size="14.00" fill="#000000">of_synonym</text>
</g>
<!-- synonym&#45;&gt;participant -->
<g id="edge20" class="edge">
<title>synonym&#45;&gt;participant</title>
<path fill="none" stroke="#000000" d="M64.3736,-348.3182C81.7226,-324.8609 115.4964,-283.7712 153.9954,-261 201.6042,-232.8405 219.3308,-236.4465 273.9954,-228 440.9758,-202.1991 951.7613,-194.5932 1142.312,-192.6206"/>
<polygon fill="#000000" stroke="#000000" points="1142.5364,-196.1186 1152.5004,-192.5173 1142.4654,-189.1189 1142.5364,-196.1186"/>
<text text-anchor="middle" x="196.4954" y="-275.3" font-family="Times,serif" font-size="14.00" fill="#000000">of_synonym</text>
</g>
<!-- synonym&#45;&gt;sample -->
<g id="edge19" class="edge">
<title>synonym&#45;&gt;sample</title>
<path fill="none" stroke="#000000" d="M99.116,-358.2919C121.7191,-354.7881 149.2115,-350.8081 173.9954,-348 358.2859,-327.1192 404.7185,-323.4546 589.9954,-315 755.9458,-307.4274 1921.2591,-325.0592 2084.9954,-297 2088.7098,-296.3635 2092.5152,-295.5067 2096.2986,-294.511"/>
<polygon fill="#000000" stroke="#000000" points="2097.5769,-297.7835 2106.1851,-291.6069 2095.604,-291.0673 2097.5769,-297.7835"/>
<text text-anchor="middle" x="632.4954" y="-318.8" font-family="Times,serif" font-size="14.00" fill="#000000">of_synonym</text>
</g>
<!-- study_personnel -->
<g id="node5" class="node">
<title>study_personnel</title>
<ellipse fill="none" stroke="#000000" cx="1218.9954" cy="-105" rx="87.1846" ry="18"/>
<text text-anchor="middle" x="1218.9954" y="-101.3" font-family="Times,serif" font-size="14.00" fill="#000000">study_personnel</text>
</g>
<!-- study_personnel&#45;&gt;study -->
<g id="edge4" class="edge">
<title>study_personnel&#45;&gt;study</title>
<path fill="none" stroke="#000000" d="M1183.5724,-88.4312C1150.6674,-73.0401 1101.9082,-50.2334 1068.8617,-34.7762"/>
<polygon fill="#000000" stroke="#000000" points="1070.1061,-31.4943 1059.5651,-30.4278 1067.1403,-37.835 1070.1061,-31.4943"/>
<text text-anchor="middle" x="1207.4954" y="-57.8" font-family="Times,serif" font-size="14.00" fill="#000000">of_study_personnel</text>
</g>
<!-- survival -->
<g id="node6" class="node">
<title>survival</title>
<ellipse fill="none" stroke="#000000" cx="1196.9954" cy="-279" rx="48.1917" ry="18"/>
<text text-anchor="middle" x="1196.9954" y="-275.3" font-family="Times,serif" font-size="14.00" fill="#000000">survival</text>
</g>
<!-- survival&#45;&gt;participant -->
<g id="edge5" class="edge">
<title>survival&#45;&gt;participant</title>
<path fill="none" stroke="#000000" d="M1200.725,-260.9735C1203.1626,-249.1918 1206.3966,-233.5607 1209.1696,-220.1581"/>
<polygon fill="#000000" stroke="#000000" points="1212.6718,-220.5051 1211.2706,-210.0034 1205.817,-219.0868 1212.6718,-220.5051"/>
<text text-anchor="middle" x="1247.4954" y="-231.8" font-family="Times,serif" font-size="14.00" fill="#000000">of_survival</text>
</g>
<!-- family_relationship -->
<g id="node7" class="node">
<title>family_relationship</title>
<ellipse fill="none" stroke="#000000" cx="1362.9954" cy="-279" rx="100.1823" ry="18"/>
<text text-anchor="middle" x="1362.9954" y="-275.3" font-family="Times,serif" font-size="14.00" fill="#000000">family_relationship</text>
</g>
<!-- family_relationship&#45;&gt;participant -->
<g id="edge12" class="edge">
<title>family_relationship&#45;&gt;participant</title>
<path fill="none" stroke="#000000" d="M1340.3306,-261.4055C1326.482,-251.05 1308.1837,-238.0556 1290.9954,-228 1280.9563,-222.1269 1269.8056,-216.4229 1259.2074,-211.3515"/>
<polygon fill="#000000" stroke="#000000" points="1260.6176,-208.1471 1250.0777,-207.0693 1257.645,-214.4847 1260.6176,-208.1471"/>
<text text-anchor="middle" x="1393.4954" y="-231.8" font-family="Times,serif" font-size="14.00" fill="#000000">of_family_relationship</text>
</g>
<!-- cytogenomic_file -->
<g id="node8" class="node">
<title>cytogenomic_file</title>
<ellipse fill="none" stroke="#000000" cx="1857.9954" cy="-366" rx="89.8845" ry="18"/>
<text text-anchor="middle" x="1857.9954" y="-362.3" font-family="Times,serif" font-size="14.00" fill="#000000">cytogenomic_file</text>
</g>
<!-- cytogenomic_file&#45;&gt;sample -->
<g id="edge33" class="edge">
<title>cytogenomic_file&#45;&gt;sample</title>
<path fill="none" stroke="#000000" d="M1869.123,-347.962C1877.2676,-336.457 1889.4165,-322.3691 1903.9954,-315 1976.1436,-278.5316 2005.9855,-314.1099 2084.9954,-297 2088.5777,-296.2242 2092.2549,-295.2863 2095.9214,-294.2509"/>
<polygon fill="#000000" stroke="#000000" points="2096.9813,-297.5869 2105.5288,-291.3266 2094.9429,-290.8902 2096.9813,-297.5869"/>
<text text-anchor="middle" x="1975.4954" y="-318.8" font-family="Times,serif" font-size="14.00" fill="#000000">of_cytogenomic_file</text>
</g>
<!-- medical_history -->
<g id="node9" class="node">
<title>medical_history</title>
<ellipse fill="none" stroke="#000000" cx="1856.9954" cy="-279" rx="85.2851" ry="18"/>
<text text-anchor="middle" x="1856.9954" y="-275.3" font-family="Times,serif" font-size="14.00" fill="#000000">medical_history</text>
</g>
<!-- medical_history&#45;&gt;participant -->
<g id="edge21" class="edge">
<title>medical_history&#45;&gt;participant</title>
<path fill="none" stroke="#000000" d="M1804.9551,-264.7226C1760.6344,-253.0979 1695.0881,-237.1634 1636.9954,-228 1514.9787,-208.7534 1371.3769,-199.2643 1287.0633,-195.0146"/>
<polygon fill="#000000" stroke="#000000" points="1286.9889,-191.5068 1276.8287,-194.5099 1286.6441,-198.4983 1286.9889,-191.5068"/>
<text text-anchor="middle" x="1778.9954" y="-231.8" font-family="Times,serif" font-size="14.00" fill="#000000">of_medical_history</text>
</g>
<!-- laboratory_test -->
<g id="node10" class="node">
<title>laboratory_test</title>
<ellipse fill="none" stroke="#000000" cx="1610.9954" cy="-366" rx="81.7856" ry="18"/>
<text text-anchor="middle" x="1610.9954" y="-362.3" font-family="Times,serif" font-size="14.00" fill="#000000">laboratory_test</text>
</g>
<!-- laboratory_test&#45;&gt;participant -->
<g id="edge29" class="edge">
<title>laboratory_test&#45;&gt;participant</title>
<path fill="none" stroke="#000000" d="M1576.1936,-349.5003C1568.8979,-344.3284 1562.1603,-337.8638 1557.9954,-330 1554.8751,-324.1086 1554.4304,-320.6334 1557.9954,-315 1567.9887,-299.2086 1586.0021,-312.7914 1595.9954,-297 1612.4374,-271.0184 1613.3256,-249.1363 1590.9954,-228 1569.4482,-207.6048 1390.4606,-198.0546 1287.3988,-194.2085"/>
<polygon fill="#000000" stroke="#000000" points="1287.485,-190.7094 1277.3643,-193.8431 1287.2302,-197.7048 1287.485,-190.7094"/>
<text text-anchor="middle" x="1674.4954" y="-275.3" font-family="Times,serif" font-size="14.00" fill="#000000">of_laboratory_test</text>
</g>
<!-- laboratory_test&#45;&gt;sample -->
<g id="edge30" class="edge">
<title>laboratory_test&#45;&gt;sample</title>
<path fill="none" stroke="#000000" d="M1658.558,-351.2839C1677.2582,-345.1646 1698.8039,-337.6975 1717.9954,-330 1732.5737,-324.1528 1734.7611,-318.8252 1749.9954,-315 1894.6099,-278.6882 1938.5902,-325.2386 2084.9954,-297 2088.6451,-296.296 2092.3874,-295.4006 2096.1131,-294.3866"/>
<polygon fill="#000000" stroke="#000000" points="2097.281,-297.6907 2105.8615,-291.4758 2095.2781,-290.9833 2097.281,-297.6907"/>
<text text-anchor="middle" x="1815.4954" y="-318.8" font-family="Times,serif" font-size="14.00" fill="#000000">of_laboratory_test</text>
</g>
<!-- generic_file -->
<g id="node11" class="node">
<title>generic_file</title>
<ellipse fill="none" stroke="#000000" cx="248.9954" cy="-366" rx="65.7887" ry="18"/>
<text text-anchor="middle" x="248.9954" y="-362.3" font-family="Times,serif" font-size="14.00" fill="#000000">generic_file</text>
</g>
<!-- generic_file&#45;&gt;study -->
<g id="edge9" class="edge">
<title>generic_file&#45;&gt;study</title>
<path fill="none" stroke="#000000" d="M218.1939,-350.0985C194.2203,-335.2752 164.9954,-310.7031 164.9954,-279 164.9954,-279 164.9954,-279 164.9954,-105 164.9954,-63.3528 805.9927,-29.0369 986.3099,-20.2075"/>
<polygon fill="#000000" stroke="#000000" points="986.7107,-23.6923 996.5287,-19.7104 986.3704,-16.7005 986.7107,-23.6923"/>
<text text-anchor="middle" x="217.9954" y="-188.3" font-family="Times,serif" font-size="14.00" fill="#000000">of_generic_file</text>
</g>
<!-- generic_file&#45;&gt;participant -->
<g id="edge11" class="edge">
<title>generic_file&#45;&gt;participant</title>
<path fill="none" stroke="#000000" d="M244.6309,-347.8766C240.2195,-324.6888 236.7378,-284.6978 257.9954,-261 308.8062,-204.3565 350.4471,-237.0925 425.9954,-228 563.4265,-211.4597 974.8339,-198.6172 1142.5867,-193.9278"/>
<polygon fill="#000000" stroke="#000000" points="1142.8994,-197.4205 1152.7983,-193.644 1142.7049,-190.4232 1142.8994,-197.4205"/>
<text text-anchor="middle" x="310.9954" y="-275.3" font-family="Times,serif" font-size="14.00" fill="#000000">of_generic_file</text>
</g>
<!-- generic_file&#45;&gt;sample -->
<g id="edge10" class="edge">
<title>generic_file&#45;&gt;sample</title>
<path fill="none" stroke="#000000" d="M310.7741,-359.7136C347.4385,-356.0754 394.8464,-351.5324 436.9954,-348 487.9484,-343.7297 844.912,-317.2212 895.9954,-315 1027.9969,-309.2603 1954.8022,-319.5187 2084.9954,-297 2088.7088,-296.3577 2092.5135,-295.4969 2096.2965,-294.4986"/>
<polygon fill="#000000" stroke="#000000" points="2097.5766,-297.7704 2106.1822,-291.5903 2095.6009,-291.055 2097.5766,-297.7704"/>
<text text-anchor="middle" x="948.9954" y="-318.8" font-family="Times,serif" font-size="14.00" fill="#000000">of_generic_file</text>
</g>
<!-- study_funding -->
<g id="node12" class="node">
<title>study_funding</title>
<ellipse fill="none" stroke="#000000" cx="1400.9954" cy="-105" rx="77.1866" ry="18"/>
<text text-anchor="middle" x="1400.9954" y="-101.3" font-family="Times,serif" font-size="14.00" fill="#000000">study_funding</text>
</g>
<!-- study_funding&#45;&gt;study -->
<g id="edge8" class="edge">
<title>study_funding&#45;&gt;study</title>
<path fill="none" stroke="#000000" d="M1368.7118,-88.5815C1345.0127,-77.2034 1311.7311,-62.6061 1280.9954,-54 1212.3515,-34.7794 1129.987,-25.4154 1079.5833,-21.1644"/>
<polygon fill="#000000" stroke="#000000" points="1079.5794,-17.6527 1069.3293,-20.3332 1079.0138,-24.6298 1079.5794,-17.6527"/>
<text text-anchor="middle" x="1383.9954" y="-57.8" font-family="Times,serif" font-size="14.00" fill="#000000">of_study_funding</text>
</g>
<!-- consent_group -->
<g id="node26" class="node">
<title>consent_group</title>
<ellipse fill="none" stroke="#000000" cx="813.9954" cy="-105" rx="79.0865" ry="18"/>
<text text-anchor="middle" x="813.9954" y="-101.3" font-family="Times,serif" font-size="14.00" fill="#000000">consent_group</text>
</g>
<!-- participant&#45;&gt;consent_group -->
<g id="edge31" class="edge">
<title>participant&#45;&gt;consent_group</title>
<path fill="none" stroke="#000000" d="M1153.1003,-189.6719C1051.6918,-185.3405 858.8705,-174.7396 833.9954,-156 826.6246,-150.4472 821.968,-141.777 819.0271,-133.1502"/>
<polygon fill="#000000" stroke="#000000" points="822.3266,-131.9483 816.3029,-123.2325 815.5766,-133.8024 822.3266,-131.9483"/>
<text text-anchor="middle" x="884.4954" y="-144.8" font-family="Times,serif" font-size="14.00" fill="#000000">of_participant</text>
</g>
<!-- treatment -->
<g id="node14" class="node">
<title>treatment</title>
<ellipse fill="none" stroke="#000000" cx="2017.9954" cy="-279" rx="57.6901" ry="18"/>
<text text-anchor="middle" x="2017.9954" y="-275.3" font-family="Times,serif" font-size="14.00" fill="#000000">treatment</text>
</g>
<!-- treatment&#45;&gt;participant -->
<g id="edge39" class="edge">
<title>treatment&#45;&gt;participant</title>
<path fill="none" stroke="#000000" d="M1981.1495,-264.9481C1947.7215,-252.8778 1896.8061,-236.1691 1850.9954,-228 1744.6713,-209.0399 1430.3842,-198.0559 1287.3492,-193.9136"/>
<polygon fill="#000000" stroke="#000000" points="1287.448,-190.4151 1277.3518,-193.6272 1287.2475,-197.4122 1287.448,-190.4151"/>
<text text-anchor="middle" x="1958.9954" y="-231.8" font-family="Times,serif" font-size="14.00" fill="#000000">of_treatment</text>
</g>
<!-- genetic_analysis -->
<g id="node15" class="node">
<title>genetic_analysis</title>
<ellipse fill="none" stroke="#000000" cx="1177.9954" cy="-366" rx="87.9851" ry="18"/>
<text text-anchor="middle" x="1177.9954" y="-362.3" font-family="Times,serif" font-size="14.00" fill="#000000">genetic_analysis</text>
</g>
<!-- genetic_analysis&#45;&gt;participant -->
<g id="edge1" class="edge">
<title>genetic_analysis&#45;&gt;participant</title>
<path fill="none" stroke="#000000" d="M1132.7068,-350.4887C1096.6516,-338.7952 1044.6689,-323.3865 997.9954,-315 896.3513,-296.7361 704.825,-339.4425 771.9954,-261 795.9156,-233.0657 1025.9577,-208.7705 1144.7464,-197.9659"/>
<polygon fill="#000000" stroke="#000000" points="1145.1963,-201.4396 1154.8416,-197.0557 1144.5677,-194.4679 1145.1963,-201.4396"/>
<text text-anchor="middle" x="841.9954" y="-275.3" font-family="Times,serif" font-size="14.00" fill="#000000">of_genetic_analysis</text>
</g>
<!-- genetic_analysis&#45;&gt;sample -->
<g id="edge2" class="edge">
<title>genetic_analysis&#45;&gt;sample</title>
<path fill="none" stroke="#000000" d="M1247.8902,-355.0015C1326.8514,-343.0425 1459.3111,-324.3844 1573.9954,-315 1687.2429,-305.7331 1973.2318,-317.4883 2084.9954,-297 2088.6514,-296.3298 2092.3982,-295.458 2096.1268,-294.4598"/>
<polygon fill="#000000" stroke="#000000" points="2097.2839,-297.7676 2105.88,-291.5742 2095.2979,-291.0552 2097.2839,-297.7676"/>
<text text-anchor="middle" x="1643.9954" y="-318.8" font-family="Times,serif" font-size="14.00" fill="#000000">of_genetic_analysis</text>
</g>
<!-- cell_line -->
<g id="node16" class="node">
<title>cell_line</title>
<ellipse fill="none" stroke="#000000" cx="2403.9954" cy="-192" rx="49.2915" ry="18"/>
<text text-anchor="middle" x="2403.9954" y="-188.3" font-family="Times,serif" font-size="14.00" fill="#000000">cell_line</text>
</g>
<!-- cell_line&#45;&gt;study -->
<g id="edge38" class="edge">
<title>cell_line&#45;&gt;study</title>
<path fill="none" stroke="#000000" d="M2355.7789,-187.7387C2309.4589,-183.7566 2237.4871,-177.8614 2174.9954,-174 2112.1071,-170.1141 1087.4424,-166.6417 1041.9954,-123 1021.8782,-103.6819 1022.5282,-70.1388 1026.3461,-46.1619"/>
<polygon fill="#000000" stroke="#000000" points="1029.8071,-46.694 1028.1922,-36.223 1022.9248,-45.4156 1029.8071,-46.694"/>
<text text-anchor="middle" x="1082.4954" y="-101.3" font-family="Times,serif" font-size="14.00" fill="#000000">of_cell_line</text>
</g>
<!-- cell_line&#45;&gt;sample -->
<g id="edge37" class="edge">
<title>cell_line&#45;&gt;sample</title>
<path fill="none" stroke="#000000" d="M2401.9243,-210.0384C2399.6593,-221.2404 2394.9182,-234.9847 2384.9954,-243 2356.2554,-266.2149 2256.2262,-274.4756 2192.6212,-277.404"/>
<polygon fill="#000000" stroke="#000000" points="2192.1962,-273.9189 2182.3557,-277.8452 2192.4968,-280.9125 2192.1962,-273.9189"/>
<text text-anchor="middle" x="2435.4954" y="-231.8" font-family="Times,serif" font-size="14.00" fill="#000000">of_cell_line</text>
</g>
<!-- radiology_file -->
<g id="node17" class="node">
<title>radiology_file</title>
<ellipse fill="none" stroke="#000000" cx="445.9954" cy="-279" rx="73.387" ry="18"/>
<text text-anchor="middle" x="445.9954" y="-275.3" font-family="Times,serif" font-size="14.00" fill="#000000">radiology_file</text>
</g>
<!-- radiology_file&#45;&gt;participant -->
<g id="edge34" class="edge">
<title>radiology_file&#45;&gt;participant</title>
<path fill="none" stroke="#000000" d="M434.9412,-260.7812C429.9208,-249.9362 426.7382,-236.6471 434.9954,-228 459.1985,-202.654 953.3896,-194.7649 1142.3748,-192.6691"/>
<polygon fill="#000000" stroke="#000000" points="1142.5299,-196.1677 1152.4913,-192.5593 1142.4539,-189.1682 1142.5299,-196.1677"/>
<text text-anchor="middle" x="493.9954" y="-231.8" font-family="Times,serif" font-size="14.00" fill="#000000">of_radiology_file</text>
</g>
<!-- clinical_measure_file -->
<g id="node18" class="node">
<title>clinical_measure_file</title>
<ellipse fill="none" stroke="#000000" cx="554.9954" cy="-366" rx="108.5808" ry="18"/>
<text text-anchor="middle" x="554.9954" y="-362.3" font-family="Times,serif" font-size="14.00" fill="#000000">clinical_measure_file</text>
</g>
<!-- clinical_measure_file&#45;&gt;study -->
<g id="edge26" class="edge">
<title>clinical_measure_file&#45;&gt;study</title>
<path fill="none" stroke="#000000" d="M457.7901,-357.9507C375.3116,-348.8653 266.157,-330.7325 238.9954,-297 228.9607,-284.5378 229.851,-274.1293 238.9954,-261 390.649,-43.2597 542.1181,-120.511 798.9954,-54 863.1277,-37.3948 939.2589,-27.4288 986.8597,-22.324"/>
<polygon fill="#000000" stroke="#000000" points="987.2793,-25.7993 996.861,-21.2781 986.5512,-18.8373 987.2793,-25.7993"/>
<text text-anchor="middle" x="400.9954" y="-188.3" font-family="Times,serif" font-size="14.00" fill="#000000">of_clinical_measure_file</text>
</g>
<!-- clinical_measure_file&#45;&gt;participant -->
<g id="edge27" class="edge">
<title>clinical_measure_file&#45;&gt;participant</title>
<path fill="none" stroke="#000000" d="M554.2178,-347.7021C554.2914,-323.9424 558.3126,-282.9273 582.9954,-261 624.225,-224.3731 986.2872,-202.8801 1143.0976,-195.215"/>
<polygon fill="#000000" stroke="#000000" points="1143.3048,-198.7092 1153.124,-194.7301 1142.9666,-191.7174 1143.3048,-198.7092"/>
<text text-anchor="middle" x="668.9954" y="-275.3" font-family="Times,serif" font-size="14.00" fill="#000000">of_clinical_measure_file</text>
</g>
<!-- clinical_measure_file&#45;&gt;sample -->
<g id="edge28" class="edge">
<title>clinical_measure_file&#45;&gt;sample</title>
<path fill="none" stroke="#000000" d="M650.8514,-357.4862C785.9242,-345.8428 1040.0328,-325.2328 1256.9954,-315 1440.8345,-306.3294 1903.7491,-328.9652 2084.9954,-297 2088.7067,-296.3455 2092.5099,-295.4762 2096.2919,-294.4722"/>
<polygon fill="#000000" stroke="#000000" points="2097.5758,-297.7426 2106.1761,-291.555 2095.5943,-291.0288 2097.5758,-297.7426"/>
<text text-anchor="middle" x="1342.9954" y="-318.8" font-family="Times,serif" font-size="14.00" fill="#000000">of_clinical_measure_file</text>
</g>
<!-- pdx -->
<g id="node19" class="node">
<title>pdx</title>
<ellipse fill="none" stroke="#000000" cx="2137.9954" cy="-192" rx="27.8951" ry="18"/>
<text text-anchor="middle" x="2137.9954" y="-188.3" font-family="Times,serif" font-size="14.00" fill="#000000">pdx</text>
</g>
<!-- pdx&#45;&gt;study -->
<g id="edge17" class="edge">
<title>pdx&#45;&gt;study</title>
<path fill="none" stroke="#000000" d="M2109.8807,-191.4895C1941.5795,-188.3841 1072.9272,-171.6446 1018.9954,-156 991.2503,-147.9517 977.3283,-148.0826 962.9954,-123 955.0572,-109.1081 956.8193,-101.76 962.9954,-87 971.1096,-67.6081 987.6235,-50.9018 1002.5743,-38.7866"/>
<polygon fill="#000000" stroke="#000000" points="1004.8842,-41.425 1010.6563,-32.5405 1000.6036,-35.8863 1004.8842,-41.425"/>
<text text-anchor="middle" x="986.9954" y="-101.3" font-family="Times,serif" font-size="14.00" fill="#000000">of_pdx</text>
</g>
<!-- pdx&#45;&gt;sample -->
<g id="edge16" class="edge">
<title>pdx&#45;&gt;sample</title>
<path fill="none" stroke="#000000" d="M2136.0204,-210.4051C2135.2059,-220.0991 2134.5457,-232.1886 2134.9954,-243 2135.0965,-245.4321 2135.236,-247.9542 2135.3998,-250.4832"/>
<polygon fill="#000000" stroke="#000000" points="2131.9286,-250.9974 2136.1745,-260.7043 2138.9086,-250.4683 2131.9286,-250.9974"/>
<text text-anchor="middle" x="2158.9954" y="-231.8" font-family="Times,serif" font-size="14.00" fill="#000000">of_pdx</text>
</g>
<!-- sequencing_file -->
<g id="node20" class="node">
<title>sequencing_file</title>
<ellipse fill="none" stroke="#000000" cx="2048.9954" cy="-366" rx="83.3857" ry="18"/>
<text text-anchor="middle" x="2048.9954" y="-362.3" font-family="Times,serif" font-size="14.00" fill="#000000">sequencing_file</text>
</g>
<!-- sequencing_file&#45;&gt;sample -->
<g id="edge36" class="edge">
<title>sequencing_file&#45;&gt;sample</title>
<path fill="none" stroke="#000000" d="M2047.7498,-347.8174C2047.9542,-337.2535 2049.9064,-324.2464 2056.9954,-315 2062.1612,-308.262 2077.9225,-300.6443 2094.1856,-294.157"/>
<polygon fill="#000000" stroke="#000000" points="2095.6645,-297.3382 2103.7428,-290.4832 2093.1528,-290.8044 2095.6645,-297.3382"/>
<text text-anchor="middle" x="2123.4954" y="-318.8" font-family="Times,serif" font-size="14.00" fill="#000000">of_sequencing_file</text>
</g>
<!-- diagnosis -->
<g id="node21" class="node">
<title>diagnosis</title>
<ellipse fill="none" stroke="#000000" cx="2651.9954" cy="-366" rx="54.6905" ry="18"/>
<text text-anchor="middle" x="2651.9954" y="-362.3" font-family="Times,serif" font-size="14.00" fill="#000000">diagnosis</text>
</g>
<!-- diagnosis&#45;&gt;participant -->
<g id="edge24" class="edge">
<title>diagnosis&#45;&gt;participant</title>
<path fill="none" stroke="#000000" d="M2659.5477,-348.1447C2662.781,-337.4364 2664.3399,-324.1634 2656.9954,-315 2629.2282,-280.356 2311.0371,-233.6166 2266.9954,-228 2077.0284,-203.7735 1492.9918,-195.0858 1287.4625,-192.7319"/>
<polygon fill="#000000" stroke="#000000" points="1287.4196,-189.2313 1277.3807,-192.6181 1287.3405,-196.2309 1287.4196,-189.2313"/>
<text text-anchor="middle" x="2665.4954" y="-275.3" font-family="Times,serif" font-size="14.00" fill="#000000">of_diagnosis</text>
</g>
<!-- diagnosis&#45;&gt;sample -->
<g id="edge25" class="edge">
<title>diagnosis&#45;&gt;sample</title>
<path fill="none" stroke="#000000" d="M2616.2093,-352.2639C2601.056,-346.0401 2583.3831,-338.2352 2567.9954,-330 2557.2354,-324.2414 2556.5287,-318.99 2544.9954,-315 2481.285,-292.9594 2287.8137,-283.8023 2192.3923,-280.5476"/>
<polygon fill="#000000" stroke="#000000" points="2192.4738,-277.0485 2182.3632,-280.215 2192.2417,-284.0447 2192.4738,-277.0485"/>
<text text-anchor="middle" x="2612.4954" y="-318.8" font-family="Times,serif" font-size="14.00" fill="#000000">of_diagnosis</text>
</g>
<!-- study_admin -->
<g id="node22" class="node">
<title>study_admin</title>
<ellipse fill="none" stroke="#000000" cx="1566.9954" cy="-105" rx="70.3881" ry="18"/>
<text text-anchor="middle" x="1566.9954" y="-101.3" font-family="Times,serif" font-size="14.00" fill="#000000">study_admin</text>
</g>
<!-- study_admin&#45;&gt;study -->
<g id="edge22" class="edge">
<title>study_admin&#45;&gt;study</title>
<path fill="none" stroke="#000000" d="M1536.6835,-88.5189C1513.6159,-76.7959 1480.7078,-61.7961 1449.9954,-54 1380.9209,-36.466 1172.8915,-24.6669 1079.3925,-20.108"/>
<polygon fill="#000000" stroke="#000000" points="1079.5303,-16.6107 1069.3736,-19.6259 1079.1938,-23.6026 1079.5303,-16.6107"/>
<text text-anchor="middle" x="1550.4954" y="-57.8" font-family="Times,serif" font-size="14.00" fill="#000000">of_study_admin</text>
</g>
<!-- pathology_file -->
<g id="node23" class="node">
<title>pathology_file</title>
<ellipse fill="none" stroke="#000000" cx="2225.9954" cy="-366" rx="76.0865" ry="18"/>
<text text-anchor="middle" x="2225.9954" y="-362.3" font-family="Times,serif" font-size="14.00" fill="#000000">pathology_file</text>
</g>
<!-- pathology_file&#45;&gt;sample -->
<g id="edge7" class="edge">
<title>pathology_file&#45;&gt;sample</title>
<path fill="none" stroke="#000000" d="M2217.0519,-347.6344C2211.4041,-337.2626 2203.4041,-324.5126 2193.9954,-315 2188.1663,-309.1066 2181.2082,-303.6898 2174.211,-298.9452"/>
<polygon fill="#000000" stroke="#000000" points="2175.7181,-295.7542 2165.4092,-293.3095 2171.9435,-301.6494 2175.7181,-295.7542"/>
<text text-anchor="middle" x="2266.9954" y="-318.8" font-family="Times,serif" font-size="14.00" fill="#000000">of_pathology_file</text>
</g>
<!-- publication -->
<g id="node24" class="node">
<title>publication</title>
<ellipse fill="none" stroke="#000000" cx="1717.9954" cy="-105" rx="63.0888" ry="18"/>
<text text-anchor="middle" x="1717.9954" y="-101.3" font-family="Times,serif" font-size="14.00" fill="#000000">publication</text>
</g>
<!-- publication&#45;&gt;study -->
<g id="edge32" class="edge">
<title>publication&#45;&gt;study</title>
<path fill="none" stroke="#000000" d="M1690.9465,-88.5237C1669.9513,-76.6394 1639.6816,-61.4316 1610.9954,-54 1510.9677,-28.0863 1198.9463,-20.5774 1079.8426,-18.6241"/>
<polygon fill="#000000" stroke="#000000" points="1079.651,-15.1208 1069.5968,-18.4621 1079.5402,-22.1199 1079.651,-15.1208"/>
<text text-anchor="middle" x="1701.9954" y="-57.8" font-family="Times,serif" font-size="14.00" fill="#000000">of_publication</text>
</g>
<!-- study_arm -->
<g id="node25" class="node">
<title>study_arm</title>
<ellipse fill="none" stroke="#000000" cx="1858.9954" cy="-105" rx="59.5901" ry="18"/>
<text text-anchor="middle" x="1858.9954" y="-101.3" font-family="Times,serif" font-size="14.00" fill="#000000">study_arm</text>
</g>
<!-- study_arm&#45;&gt;study -->
<g id="edge40" class="edge">
<title>study_arm&#45;&gt;study</title>
<path fill="none" stroke="#000000" d="M1833.7569,-88.6605C1813.7982,-76.6814 1784.7628,-61.2877 1756.9954,-54 1691.8375,-36.8991 1229.2205,-23.221 1079.5713,-19.2026"/>
<polygon fill="#000000" stroke="#000000" points="1079.4369,-15.6978 1069.3471,-18.93 1079.2503,-22.6954 1079.4369,-15.6978"/>
<text text-anchor="middle" x="1844.4954" y="-57.8" font-family="Times,serif" font-size="14.00" fill="#000000">of_study_arm</text>
</g>
<!-- consent_group&#45;&gt;study -->
<g id="edge6" class="edge">
<title>consent_group&#45;&gt;study</title>
<path fill="none" stroke="#000000" d="M805.7615,-86.9977C802.1935,-76.2341 800.3597,-62.9546 807.9954,-54 819.4536,-40.5628 924.391,-28.3563 986.83,-22.2009"/>
<polygon fill="#000000" stroke="#000000" points="987.224,-25.6792 996.8394,-21.23 986.5481,-18.7119 987.224,-25.6792"/>
<text text-anchor="middle" x="871.4954" y="-57.8" font-family="Times,serif" font-size="14.00" fill="#000000">of_consent_group</text>
</g>
<!-- sample&#45;&gt;participant -->
<g id="edge13" class="edge">
<title>sample&#45;&gt;participant</title>
<path fill="none" stroke="#000000" d="M2107.9998,-265.6997C2076.5966,-252.0205 2029.2292,-232.1439 2009.9954,-228 1940.5686,-213.0421 1469.819,-198.8886 1287.1979,-193.8965"/>
<polygon fill="#000000" stroke="#000000" points="1287.2454,-190.3966 1277.1539,-193.6233 1287.055,-197.394 1287.2454,-190.3966"/>
<text text-anchor="middle" x="2087.4954" y="-231.8" font-family="Times,serif" font-size="14.00" fill="#000000">of_sample</text>
</g>
<!-- sample&#45;&gt;cell_line -->
<g id="edge15" class="edge">
<title>sample&#45;&gt;cell_line</title>
<path fill="none" stroke="#000000" d="M2175.5017,-269.427C2201.3778,-262.6048 2236.4796,-252.9185 2266.9954,-243 2298.8102,-232.6593 2334.1832,-219.4465 2361.0157,-209.0607"/>
<polygon fill="#000000" stroke="#000000" points="2362.4427,-212.2611 2370.4926,-205.3728 2359.904,-205.7376 2362.4427,-212.2611"/>
<text text-anchor="middle" x="2344.4954" y="-231.8" font-family="Times,serif" font-size="14.00" fill="#000000">of_sample</text>
</g>
<!-- sample&#45;&gt;pdx -->
<g id="edge14" class="edge">
<title>sample&#45;&gt;pdx</title>
<path fill="none" stroke="#000000" d="M2166.1282,-264.9861C2174.3839,-259.3644 2182.4187,-252.0415 2186.9954,-243 2193.7732,-229.61 2182.9091,-217.3802 2169.7041,-208.2552"/>
<polygon fill="#000000" stroke="#000000" points="2171.1863,-205.0544 2160.8505,-202.7261 2167.4784,-210.9917 2171.1863,-205.0544"/>
<text text-anchor="middle" x="2226.4954" y="-231.8" font-family="Times,serif" font-size="14.00" fill="#000000">of_sample</text>
</g>
<!-- exposure -->
<g id="node28" class="node">
<title>exposure</title>
<ellipse fill="none" stroke="#000000" cx="1533.9954" cy="-279" rx="53.0913" ry="18"/>
<text text-anchor="middle" x="1533.9954" y="-275.3" font-family="Times,serif" font-size="14.00" fill="#000000">exposure</text>
</g>
<!-- exposure&#45;&gt;participant -->
<g id="edge35" class="edge">
<title>exposure&#45;&gt;participant</title>
<path fill="none" stroke="#000000" d="M1519.4293,-261.3854C1508.8913,-249.9117 1493.6271,-235.6927 1476.9954,-228 1444.0158,-212.746 1351.6601,-202.5926 1285.9591,-197.0639"/>
<polygon fill="#000000" stroke="#000000" points="1285.9099,-193.5481 1275.6566,-196.2162 1285.3358,-200.5245 1285.9099,-193.5481"/>
<text text-anchor="middle" x="1543.4954" y="-231.8" font-family="Times,serif" font-size="14.00" fill="#000000">of_exposure</text>
</g>
</g>
</svg>
