<svg width="3065pt" height="305pt"
 viewBox="0.00 0.00 3065.14 305.00" xmlns="http://www.w3.org/2000/svg" xmlns:xlink="http://www.w3.org/1999/xlink">
<g id="graph0" class="graph" transform="scale(1 1) rotate(0) translate(4 301)">
<title>Perl</title>
<polygon fill="#ffffff" stroke="transparent" points="-4,4 -4,-301 3061.1413,-301 3061.1413,4 -4,4"/>
<!-- pdx -->
<g id="node1" class="node">
<title>pdx</title>
<ellipse fill="none" stroke="#000000" cx="27.9475" cy="-279" rx="27.8951" ry="18"/>
<text text-anchor="middle" x="27.9475" y="-275.3" font-family="Times,serif" font-size="14.00" fill="#000000">pdx</text>
</g>
<!-- study -->
<g id="node9" class="node">
<title>study</title>
<ellipse fill="none" stroke="#000000" cx="2376.9475" cy="-18" rx="36.2938" ry="18"/>
<text text-anchor="middle" x="2376.9475" y="-14.3" font-family="Times,serif" font-size="14.00" fill="#000000">study</text>
</g>
<!-- pdx&#45;&gt;study -->
<g id="edge11" class="edge">
<title>pdx&#45;&gt;study</title>
<path fill="none" stroke="#000000" d="M25.0834,-260.6168C24.4718,-249.9817 25.6471,-236.9703 32.9475,-228 196.9244,-26.5155 334.5383,-95.6984 590.9475,-54 766.812,-25.4001 2066.1342,-19.1375 2330.1984,-18.1553"/>
<polygon fill="#000000" stroke="#000000" points="2330.2353,-21.6553 2340.2224,-18.1187 2330.2097,-14.6553 2330.2353,-21.6553"/>
<text text-anchor="middle" x="146.9475" y="-144.8" font-family="Times,serif" font-size="14.00" fill="#000000">of_pdx</text>
</g>
<!-- sample -->
<g id="node21" class="node">
<title>sample</title>
<ellipse fill="none" stroke="#000000" cx="648.9475" cy="-192" rx="44.393" ry="18"/>
<text text-anchor="middle" x="648.9475" y="-188.3" font-family="Times,serif" font-size="14.00" fill="#000000">sample</text>
</g>
<!-- pdx&#45;&gt;sample -->
<g id="edge12" class="edge">
<title>pdx&#45;&gt;sample</title>
<path fill="none" stroke="#000000" d="M30.4782,-260.8756C33.0848,-249.4878 38.3492,-235.5672 48.9475,-228 70.9557,-212.2862 450.7967,-198.4142 594.4826,-193.706"/>
<polygon fill="#000000" stroke="#000000" points="594.936,-197.1932 604.8169,-193.3699 594.7083,-190.1969 594.936,-197.1932"/>
<text text-anchor="middle" x="72.9475" y="-231.8" font-family="Times,serif" font-size="14.00" fill="#000000">of_pdx</text>
</g>
<!-- treatment_response -->
<g id="node2" class="node">
<title>treatment_response</title>
<ellipse fill="none" stroke="#000000" cx="1774.9475" cy="-192" rx="104.7816" ry="18"/>
<text text-anchor="middle" x="1774.9475" y="-188.3" font-family="Times,serif" font-size="14.00" fill="#000000">treatment_response</text>
</g>
<!-- participant -->
<g id="node17" class="node">
<title>participant</title>
<ellipse fill="none" stroke="#000000" cx="1868.9475" cy="-105" rx="62.2891" ry="18"/>
<text text-anchor="middle" x="1868.9475" y="-101.3" font-family="Times,serif" font-size="14.00" fill="#000000">participant</text>
</g>
<!-- treatment_response&#45;&gt;participant -->
<g id="edge32" class="edge">
<title>treatment_response&#45;&gt;participant</title>
<path fill="none" stroke="#000000" d="M1770.6391,-173.9528C1769.1925,-163.4369 1769.3473,-150.4328 1775.9475,-141 1780.9934,-133.7887 1796.7004,-126.627 1813.8044,-120.613"/>
<polygon fill="#000000" stroke="#000000" points="1815.0239,-123.8957 1823.3915,-117.397 1812.7976,-117.2591 1815.0239,-123.8957"/>
<text text-anchor="middle" x="1858.9475" y="-144.8" font-family="Times,serif" font-size="14.00" fill="#000000">of_treatment_response</text>
</g>
<!-- study_funding -->
<g id="node3" class="node">
<title>study_funding</title>
<ellipse fill="none" stroke="#000000" cx="590.9475" cy="-105" rx="77.1866" ry="18"/>
<text text-anchor="middle" x="590.9475" y="-101.3" font-family="Times,serif" font-size="14.00" fill="#000000">study_funding</text>
</g>
<!-- study_funding&#45;&gt;study -->
<g id="edge30" class="edge">
<title>study_funding&#45;&gt;study</title>
<path fill="none" stroke="#000000" d="M590.7976,-86.9446C591.7597,-75.5859 595.095,-61.6718 604.9475,-54 639.9847,-26.7176 2053.4464,-19.3632 2330.2158,-18.1835"/>
<polygon fill="#000000" stroke="#000000" points="2330.338,-21.6831 2340.3232,-18.141 2330.3085,-14.6832 2330.338,-21.6831"/>
<text text-anchor="middle" x="666.9475" y="-57.8" font-family="Times,serif" font-size="14.00" fill="#000000">of_study_funding</text>
</g>
<!-- pathology_file -->
<g id="node4" class="node">
<title>pathology_file</title>
<ellipse fill="none" stroke="#000000" cx="149.9475" cy="-279" rx="76.0865" ry="18"/>
<text text-anchor="middle" x="149.9475" y="-275.3" font-family="Times,serif" font-size="14.00" fill="#000000">pathology_file</text>
</g>
<!-- pathology_file&#45;&gt;sample -->
<g id="edge9" class="edge">
<title>pathology_file&#45;&gt;sample</title>
<path fill="none" stroke="#000000" d="M174.145,-261.6821C191.7765,-250.0302 216.7208,-235.4787 240.9475,-228 305.5203,-208.0667 499.1247,-197.8876 594.5574,-193.9669"/>
<polygon fill="#000000" stroke="#000000" points="594.7362,-197.4626 604.5873,-193.5631 594.4545,-190.4683 594.7362,-197.4626"/>
<text text-anchor="middle" x="301.9475" y="-231.8" font-family="Times,serif" font-size="14.00" fill="#000000">of_pathology_file</text>
</g>
<!-- cell_line -->
<g id="node5" class="node">
<title>cell_line</title>
<ellipse fill="none" stroke="#000000" cx="737.9475" cy="-105" rx="49.2915" ry="18"/>
<text text-anchor="middle" x="737.9475" y="-101.3" font-family="Times,serif" font-size="14.00" fill="#000000">cell_line</text>
</g>
<!-- cell_line&#45;&gt;study -->
<g id="edge14" class="edge">
<title>cell_line&#45;&gt;study</title>
<path fill="none" stroke="#000000" d="M732.702,-87.0156C730.6852,-75.9806 730.5663,-62.4011 738.9475,-54 767.817,-25.0621 2066.1798,-19.0651 2330.3384,-18.1437"/>
<polygon fill="#000000" stroke="#000000" points="2330.3785,-21.6437 2340.3664,-18.1094 2330.3545,-14.6437 2330.3785,-21.6437"/>
<text text-anchor="middle" x="779.4475" y="-57.8" font-family="Times,serif" font-size="14.00" fill="#000000">of_cell_line</text>
</g>
<!-- cell_line&#45;&gt;sample -->
<g id="edge13" class="edge">
<title>cell_line&#45;&gt;sample</title>
<path fill="none" stroke="#000000" d="M699.8493,-116.546C673.5768,-124.8908 642.7247,-135.6073 638.9475,-141 634.1635,-147.8302 634.1371,-156.3759 636.0567,-164.5082"/>
<polygon fill="#000000" stroke="#000000" points="632.7492,-165.6553 639.1743,-174.0797 639.4051,-163.4874 632.7492,-165.6553"/>
<text text-anchor="middle" x="679.4475" y="-144.8" font-family="Times,serif" font-size="14.00" fill="#000000">of_cell_line</text>
</g>
<!-- clinical_measure_file -->
<g id="node6" class="node">
<title>clinical_measure_file</title>
<ellipse fill="none" stroke="#000000" cx="833.9475" cy="-192" rx="108.5808" ry="18"/>
<text text-anchor="middle" x="833.9475" y="-188.3" font-family="Times,serif" font-size="14.00" fill="#000000">clinical_measure_file</text>
</g>
<!-- clinical_measure_file&#45;&gt;study -->
<g id="edge17" class="edge">
<title>clinical_measure_file&#45;&gt;study</title>
<path fill="none" stroke="#000000" d="M833.9751,-173.8878C835.029,-162.6555 838.4002,-148.9052 847.9475,-141 964.8596,-44.1975 2086.2057,-22.2607 2330.2252,-18.6188"/>
<polygon fill="#000000" stroke="#000000" points="2330.5725,-22.1142 2340.5203,-18.4683 2330.4701,-15.1149 2330.5725,-22.1142"/>
<text text-anchor="middle" x="1125.9475" y="-101.3" font-family="Times,serif" font-size="14.00" fill="#000000">of_clinical_measure_file</text>
</g>
<!-- clinical_measure_file&#45;&gt;participant -->
<g id="edge16" class="edge">
<title>clinical_measure_file&#45;&gt;participant</title>
<path fill="none" stroke="#000000" d="M888.8938,-176.4684C905.9378,-170.873 924.5442,-163.9485 940.9475,-156 951.9301,-150.6782 952.3209,-144.7093 963.9475,-141 1042.1704,-116.0439 1595.1909,-107.8463 1796.1702,-105.6737"/>
<polygon fill="#000000" stroke="#000000" points="1796.3677,-109.1719 1806.3299,-105.5658 1796.2933,-102.1723 1796.3677,-109.1719"/>
<text text-anchor="middle" x="1049.9475" y="-144.8" font-family="Times,serif" font-size="14.00" fill="#000000">of_clinical_measure_file</text>
</g>
<!-- radiology_file -->
<g id="node7" class="node">
<title>radiology_file</title>
<ellipse fill="none" stroke="#000000" cx="1970.9475" cy="-192" rx="73.387" ry="18"/>
<text text-anchor="middle" x="1970.9475" y="-188.3" font-family="Times,serif" font-size="14.00" fill="#000000">radiology_file</text>
</g>
<!-- radiology_file&#45;&gt;participant -->
<g id="edge26" class="edge">
<title>radiology_file&#45;&gt;participant</title>
<path fill="none" stroke="#000000" d="M1963.7891,-173.6988C1958.9098,-163.0929 1951.582,-150.0833 1941.9475,-141 1934.7743,-134.2372 1926.0892,-128.4867 1917.2491,-123.6992"/>
<polygon fill="#000000" stroke="#000000" points="1918.5426,-120.4317 1908.0374,-119.0564 1915.3921,-126.6827 1918.5426,-120.4317"/>
<text text-anchor="middle" x="2013.9475" y="-144.8" font-family="Times,serif" font-size="14.00" fill="#000000">of_radiology_file</text>
</g>
<!-- treatment -->
<g id="node8" class="node">
<title>treatment</title>
<ellipse fill="none" stroke="#000000" cx="2119.9475" cy="-192" rx="57.6901" ry="18"/>
<text text-anchor="middle" x="2119.9475" y="-188.3" font-family="Times,serif" font-size="14.00" fill="#000000">treatment</text>
</g>
<!-- treatment&#45;&gt;participant -->
<g id="edge15" class="edge">
<title>treatment&#45;&gt;participant</title>
<path fill="none" stroke="#000000" d="M2109.4663,-174.0539C2101.8915,-162.7413 2090.6096,-148.8376 2076.9475,-141 2053.7394,-127.686 1989.3381,-117.8482 1938.2848,-111.8525"/>
<polygon fill="#000000" stroke="#000000" points="1938.6017,-108.366 1928.2683,-110.7047 1937.8047,-115.3205 1938.6017,-108.366"/>
<text text-anchor="middle" x="2142.9475" y="-144.8" font-family="Times,serif" font-size="14.00" fill="#000000">of_treatment</text>
</g>
<!-- methylation_array_file -->
<g id="node10" class="node">
<title>methylation_array_file</title>
<ellipse fill="none" stroke="#000000" cx="359.9475" cy="-279" rx="115.8798" ry="18"/>
<text text-anchor="middle" x="359.9475" y="-275.3" font-family="Times,serif" font-size="14.00" fill="#000000">methylation_array_file</text>
</g>
<!-- methylation_array_file&#45;&gt;sample -->
<g id="edge27" class="edge">
<title>methylation_array_file&#45;&gt;sample</title>
<path fill="none" stroke="#000000" d="M361.2399,-260.967C363.0363,-249.7671 367.2326,-236.0233 376.9475,-228 393.4342,-214.3842 520.602,-202.1583 595.0801,-196.0708"/>
<polygon fill="#000000" stroke="#000000" points="595.5363,-199.5455 605.2226,-195.2531 594.9736,-192.5682 595.5363,-199.5455"/>
<text text-anchor="middle" x="468.4475" y="-231.8" font-family="Times,serif" font-size="14.00" fill="#000000">of_methylation_array_file</text>
</g>
<!-- synonym -->
<g id="node11" class="node">
<title>synonym</title>
<ellipse fill="none" stroke="#000000" cx="2213.9475" cy="-279" rx="51.9908" ry="18"/>
<text text-anchor="middle" x="2213.9475" y="-275.3" font-family="Times,serif" font-size="14.00" fill="#000000">synonym</text>
</g>
<!-- synonym&#45;&gt;study -->
<g id="edge35" class="edge">
<title>synonym&#45;&gt;study</title>
<path fill="none" stroke="#000000" d="M2265.0596,-275.0198C2378.9431,-265.6338 2645.6225,-240.5881 2671.9475,-210 2682.3845,-197.8728 2682.1657,-186.3121 2671.9475,-174 2646.5345,-143.3792 2535.085,-148.1914 2495.9475,-141 2451.5324,-132.8388 2427.8943,-154.9173 2395.9475,-123 2376.0591,-103.13 2373.0737,-69.9193 2373.94,-46.1674"/>
<polygon fill="#000000" stroke="#000000" points="2377.4446,-46.197 2374.5622,-36.0018 2370.4577,-45.7693 2377.4446,-46.197"/>
<text text-anchor="middle" x="2676.4475" y="-144.8" font-family="Times,serif" font-size="14.00" fill="#000000">of_synonym</text>
</g>
<!-- synonym&#45;&gt;participant -->
<g id="edge33" class="edge">
<title>synonym&#45;&gt;participant</title>
<path fill="none" stroke="#000000" d="M2217.54,-260.7094C2222.2078,-230.9665 2226.3177,-172.3002 2193.9475,-141 2176.117,-123.7589 2031.167,-113.2803 1940.9697,-108.3662"/>
<polygon fill="#000000" stroke="#000000" points="1940.9681,-104.8612 1930.7956,-107.8227 1940.5946,-111.8512 1940.9681,-104.8612"/>
<text text-anchor="middle" x="2262.4475" y="-188.3" font-family="Times,serif" font-size="14.00" fill="#000000">of_synonym</text>
</g>
<!-- synonym&#45;&gt;sample -->
<g id="edge34" class="edge">
<title>synonym&#45;&gt;sample</title>
<path fill="none" stroke="#000000" d="M2161.8478,-278.241C1936.8102,-274.8621 1057.0177,-260.5774 1000.9475,-243 989.3023,-239.3494 989.5195,-231.8766 977.9475,-228 867.2736,-190.9244 831.0711,-229.232 715.9475,-210 708.8419,-208.813 701.3992,-207.198 694.1648,-205.4199"/>
<polygon fill="#000000" stroke="#000000" points="695.0376,-202.0305 684.48,-202.919 693.2873,-208.8082 695.0376,-202.0305"/>
<text text-anchor="middle" x="1043.4475" y="-231.8" font-family="Times,serif" font-size="14.00" fill="#000000">of_synonym</text>
</g>
<!-- survival -->
<g id="node12" class="node">
<title>survival</title>
<ellipse fill="none" stroke="#000000" cx="2364.9475" cy="-192" rx="48.1917" ry="18"/>
<text text-anchor="middle" x="2364.9475" y="-188.3" font-family="Times,serif" font-size="14.00" fill="#000000">survival</text>
</g>
<!-- survival&#45;&gt;participant -->
<g id="edge10" class="edge">
<title>survival&#45;&gt;participant</title>
<path fill="none" stroke="#000000" d="M2334.3614,-178.0246C2307.048,-166.1764 2265.648,-149.754 2227.9475,-141 2174.9244,-128.688 2028.4261,-116.5004 1939.8152,-109.9431"/>
<polygon fill="#000000" stroke="#000000" points="1940.0663,-106.4522 1929.8368,-109.2103 1939.5536,-113.4334 1940.0663,-106.4522"/>
<text text-anchor="middle" x="2316.4475" y="-144.8" font-family="Times,serif" font-size="14.00" fill="#000000">of_survival</text>
</g>
<!-- generic_file -->
<g id="node13" class="node">
<title>generic_file</title>
<ellipse fill="none" stroke="#000000" cx="2572.9475" cy="-279" rx="65.7887" ry="18"/>
<text text-anchor="middle" x="2572.9475" y="-275.3" font-family="Times,serif" font-size="14.00" fill="#000000">generic_file</text>
</g>
<!-- generic_file&#45;&gt;study -->
<g id="edge7" class="edge">
<title>generic_file&#45;&gt;study</title>
<path fill="none" stroke="#000000" d="M2607.8206,-263.7012C2632.504,-251.6543 2665.2912,-233.065 2688.9475,-210 2729.8214,-170.1479 2742.4903,-141.637 2725.9475,-87 2720.8395,-70.1292 2719.0098,-63.1566 2703.9475,-54 2680.4936,-39.7419 2507.8805,-26.5978 2423.3423,-20.9343"/>
<polygon fill="#000000" stroke="#000000" points="2423.4506,-17.4339 2413.2411,-20.2651 2422.9879,-24.4186 2423.4506,-17.4339"/>
<text text-anchor="middle" x="2784.9475" y="-144.8" font-family="Times,serif" font-size="14.00" fill="#000000">of_generic_file</text>
</g>
<!-- generic_file&#45;&gt;participant -->
<g id="edge6" class="edge">
<title>generic_file&#45;&gt;participant</title>
<path fill="none" stroke="#000000" d="M2572.1756,-260.6264C2570.4055,-238.2501 2564.6371,-200.2037 2545.9475,-174 2530.4865,-152.3229 2521.2187,-149.3848 2495.9475,-141 2444.5448,-123.945 2095.2568,-111.6786 1941.431,-107.0409"/>
<polygon fill="#000000" stroke="#000000" points="1941.2433,-103.5338 1931.1432,-106.7333 1941.0341,-110.5307 1941.2433,-103.5338"/>
<text text-anchor="middle" x="2614.9475" y="-188.3" font-family="Times,serif" font-size="14.00" fill="#000000">of_generic_file</text>
</g>
<!-- generic_file&#45;&gt;sample -->
<g id="edge8" class="edge">
<title>generic_file&#45;&gt;sample</title>
<path fill="none" stroke="#000000" d="M2509.031,-274.6271C2448.7062,-270.6213 2355.7155,-264.7597 2274.9475,-261 2188.3838,-256.9705 801.663,-222.7426 715.9475,-210 708.7399,-208.9285 701.1969,-207.3581 693.8798,-205.5845"/>
<polygon fill="#000000" stroke="#000000" points="694.6511,-202.1691 684.0944,-203.0678 692.9074,-208.9484 694.6511,-202.1691"/>
<text text-anchor="middle" x="1680.9475" y="-231.8" font-family="Times,serif" font-size="14.00" fill="#000000">of_generic_file</text>
</g>
<!-- cytogenomic_file -->
<g id="node14" class="node">
<title>cytogenomic_file</title>
<ellipse fill="none" stroke="#000000" cx="582.9475" cy="-279" rx="89.8845" ry="18"/>
<text text-anchor="middle" x="582.9475" y="-275.3" font-family="Times,serif" font-size="14.00" fill="#000000">cytogenomic_file</text>
</g>
<!-- cytogenomic_file&#45;&gt;sample -->
<g id="edge21" class="edge">
<title>cytogenomic_file&#45;&gt;sample</title>
<path fill="none" stroke="#000000" d="M570.0762,-260.9587C564.4525,-250.6949 560.4525,-237.9449 566.9475,-228 574.4675,-216.4858 586.5804,-208.6305 599.2145,-203.2803"/>
<polygon fill="#000000" stroke="#000000" points="600.7673,-206.4366 608.9101,-199.6582 598.3175,-199.8792 600.7673,-206.4366"/>
<text text-anchor="middle" x="638.4475" y="-231.8" font-family="Times,serif" font-size="14.00" fill="#000000">of_cytogenomic_file</text>
</g>
<!-- study_arm -->
<g id="node15" class="node">
<title>study_arm</title>
<ellipse fill="none" stroke="#000000" cx="2464.9475" cy="-105" rx="59.5901" ry="18"/>
<text text-anchor="middle" x="2464.9475" y="-101.3" font-family="Times,serif" font-size="14.00" fill="#000000">study_arm</text>
</g>
<!-- study_arm&#45;&gt;study -->
<g id="edge5" class="edge">
<title>study_arm&#45;&gt;study</title>
<path fill="none" stroke="#000000" d="M2447.1394,-87.3943C2433.7104,-74.1179 2415.1636,-55.7818 2400.5072,-41.292"/>
<polygon fill="#000000" stroke="#000000" points="2402.8173,-38.6541 2393.2452,-34.1125 2397.8959,-43.632 2402.8173,-38.6541"/>
<text text-anchor="middle" x="2474.4475" y="-57.8" font-family="Times,serif" font-size="14.00" fill="#000000">of_study_arm</text>
</g>
<!-- study_personnel -->
<g id="node16" class="node">
<title>study_personnel</title>
<ellipse fill="none" stroke="#000000" cx="2629.9475" cy="-105" rx="87.1846" ry="18"/>
<text text-anchor="middle" x="2629.9475" y="-101.3" font-family="Times,serif" font-size="14.00" fill="#000000">study_personnel</text>
</g>
<!-- study_personnel&#45;&gt;study -->
<g id="edge29" class="edge">
<title>study_personnel&#45;&gt;study</title>
<path fill="none" stroke="#000000" d="M2600.0876,-87.9819C2579.9361,-77.0611 2552.4614,-63.2454 2526.9475,-54 2492.3362,-41.458 2451.6461,-32.0054 2421.3845,-25.9406"/>
<polygon fill="#000000" stroke="#000000" points="2422.0317,-22.5009 2411.5455,-24.0141 2420.6866,-29.3705 2422.0317,-22.5009"/>
<text text-anchor="middle" x="2630.4475" y="-57.8" font-family="Times,serif" font-size="14.00" fill="#000000">of_study_personnel</text>
</g>
<!-- participant&#45;&gt;study -->
<g id="edge28" class="edge">
<title>participant&#45;&gt;study</title>
<path fill="none" stroke="#000000" d="M1922.8315,-95.7718C2023.7427,-78.4898 2239.4164,-41.5536 2332.5769,-25.5989"/>
<polygon fill="#000000" stroke="#000000" points="2333.2592,-29.0331 2342.5249,-23.8952 2332.0775,-22.1335 2333.2592,-29.0331"/>
<text text-anchor="middle" x="2203.4475" y="-57.8" font-family="Times,serif" font-size="14.00" fill="#000000">of_participant</text>
</g>
<!-- exposure -->
<g id="node18" class="node">
<title>exposure</title>
<ellipse fill="none" stroke="#000000" cx="2483.9475" cy="-192" rx="53.0913" ry="18"/>
<text text-anchor="middle" x="2483.9475" y="-188.3" font-family="Times,serif" font-size="14.00" fill="#000000">exposure</text>
</g>
<!-- exposure&#45;&gt;participant -->
<g id="edge1" class="edge">
<title>exposure&#45;&gt;participant</title>
<path fill="none" stroke="#000000" d="M2454.7601,-176.8931C2430.1723,-164.9344 2393.7042,-148.9643 2359.9475,-141 2282.5277,-122.7342 2058.1242,-111.9986 1941.4021,-107.4992"/>
<polygon fill="#000000" stroke="#000000" points="1941.2608,-103.9914 1931.135,-107.1088 1940.9948,-110.9863 1941.2608,-103.9914"/>
<text text-anchor="middle" x="2448.4475" y="-144.8" font-family="Times,serif" font-size="14.00" fill="#000000">of_exposure</text>
</g>
<!-- family_relationship -->
<g id="node19" class="node">
<title>family_relationship</title>
<ellipse fill="none" stroke="#000000" cx="1185.9475" cy="-192" rx="100.1823" ry="18"/>
<text text-anchor="middle" x="1185.9475" y="-188.3" font-family="Times,serif" font-size="14.00" fill="#000000">family_relationship</text>
</g>
<!-- family_relationship&#45;&gt;participant -->
<g id="edge18" class="edge">
<title>family_relationship&#45;&gt;participant</title>
<path fill="none" stroke="#000000" d="M1210.3779,-174.4807C1228.1876,-162.7339 1253.4011,-148.1517 1277.9475,-141 1326.5279,-126.8459 1649.9983,-113.168 1796.763,-107.6071"/>
<polygon fill="#000000" stroke="#000000" points="1797.1573,-111.0948 1807.0184,-107.2208 1796.8938,-104.0997 1797.1573,-111.0948"/>
<text text-anchor="middle" x="1357.4475" y="-144.8" font-family="Times,serif" font-size="14.00" fill="#000000">of_family_relationship</text>
</g>
<!-- sequencing_file -->
<g id="node20" class="node">
<title>sequencing_file</title>
<ellipse fill="none" stroke="#000000" cx="773.9475" cy="-279" rx="83.3857" ry="18"/>
<text text-anchor="middle" x="773.9475" y="-275.3" font-family="Times,serif" font-size="14.00" fill="#000000">sequencing_file</text>
</g>
<!-- sequencing_file&#45;&gt;sample -->
<g id="edge3" class="edge">
<title>sequencing_file&#45;&gt;sample</title>
<path fill="none" stroke="#000000" d="M753.4679,-261.4729C741.176,-251.2626 725.043,-238.3938 709.9475,-228 701.829,-222.4101 692.8142,-216.7913 684.2602,-211.7098"/>
<polygon fill="#000000" stroke="#000000" points="685.9698,-208.6551 675.5698,-206.6325 682.4386,-214.6992 685.9698,-208.6551"/>
<text text-anchor="middle" x="796.4475" y="-231.8" font-family="Times,serif" font-size="14.00" fill="#000000">of_sequencing_file</text>
</g>
<!-- sample&#45;&gt;pdx -->
<g id="edge23" class="edge">
<title>sample&#45;&gt;pdx</title>
<path fill="none" stroke="#000000" d="M604.4064,-192.85C495.6235,-195.2849 218.8236,-203.7421 129.9475,-228 122.4726,-230.0402 85.9989,-248.6555 58.7867,-262.8119"/>
<polygon fill="#000000" stroke="#000000" points="56.8578,-259.8704 49.6104,-267.5987 60.0954,-266.0768 56.8578,-259.8704"/>
<text text-anchor="middle" x="166.4475" y="-231.8" font-family="Times,serif" font-size="14.00" fill="#000000">of_sample</text>
</g>
<!-- sample&#45;&gt;cell_line -->
<g id="edge22" class="edge">
<title>sample&#45;&gt;cell_line</title>
<path fill="none" stroke="#000000" d="M683.5559,-180.7447C696.4494,-175.0741 710.2833,-167.0097 719.9475,-156 725.6723,-149.4783 729.6096,-141.0183 732.3039,-132.8696"/>
<polygon fill="#000000" stroke="#000000" points="735.6753,-133.8096 735.0105,-123.2356 728.9362,-131.9162 735.6753,-133.8096"/>
<text text-anchor="middle" x="766.4475" y="-144.8" font-family="Times,serif" font-size="14.00" fill="#000000">of_sample</text>
</g>
<!-- sample&#45;&gt;participant -->
<g id="edge24" class="edge">
<title>sample&#45;&gt;participant</title>
<path fill="none" stroke="#000000" d="M685.347,-181.7445C695.2408,-179.0874 705.9767,-176.3227 715.9475,-174 756.1005,-164.6463 766.7707,-165.2506 806.9475,-156 832.4754,-150.1223 838.0325,-144.8257 863.9475,-141 1043.901,-114.4347 1596.7641,-107.2644 1796.2321,-105.516"/>
<polygon fill="#000000" stroke="#000000" points="1796.3426,-109.0153 1806.3122,-105.4296 1796.2825,-102.0155 1796.3426,-109.0153"/>
<text text-anchor="middle" x="900.4475" y="-144.8" font-family="Times,serif" font-size="14.00" fill="#000000">of_sample</text>
</g>
<!-- molecular_test -->
<g id="node22" class="node">
<title>molecular_test</title>
<ellipse fill="none" stroke="#000000" cx="1383.9475" cy="-192" rx="79.8859" ry="18"/>
<text text-anchor="middle" x="1383.9475" y="-188.3" font-family="Times,serif" font-size="14.00" fill="#000000">molecular_test</text>
</g>
<!-- molecular_test&#45;&gt;participant -->
<g id="edge31" class="edge">
<title>molecular_test&#45;&gt;participant</title>
<path fill="none" stroke="#000000" d="M1408.1521,-174.7053C1425.787,-163.0644 1450.7325,-148.5163 1474.9475,-141 1533.1577,-122.9316 1700.0099,-112.6137 1796.8993,-107.9838"/>
<polygon fill="#000000" stroke="#000000" points="1797.0903,-111.4788 1806.9151,-107.5135 1796.7619,-104.4865 1797.0903,-111.4788"/>
<text text-anchor="middle" x="1538.9475" y="-144.8" font-family="Times,serif" font-size="14.00" fill="#000000">of_molecular_test</text>
</g>
<!-- medical_history -->
<g id="node23" class="node">
<title>medical_history</title>
<ellipse fill="none" stroke="#000000" cx="1566.9475" cy="-192" rx="85.2851" ry="18"/>
<text text-anchor="middle" x="1566.9475" y="-188.3" font-family="Times,serif" font-size="14.00" fill="#000000">medical_history</text>
</g>
<!-- medical_history&#45;&gt;participant -->
<g id="edge4" class="edge">
<title>medical_history&#45;&gt;participant</title>
<path fill="none" stroke="#000000" d="M1584.0137,-174.2316C1596.0332,-162.8436 1613.1079,-148.785 1630.9475,-141 1660.3655,-128.1623 1740.1737,-117.769 1799.3063,-111.5088"/>
<polygon fill="#000000" stroke="#000000" points="1799.7635,-114.9802 1809.3476,-110.4642 1799.0391,-108.0178 1799.7635,-114.9802"/>
<text text-anchor="middle" x="1698.9475" y="-144.8" font-family="Times,serif" font-size="14.00" fill="#000000">of_medical_history</text>
</g>
<!-- publication -->
<g id="node24" class="node">
<title>publication</title>
<ellipse fill="none" stroke="#000000" cx="2835.9475" cy="-105" rx="63.0888" ry="18"/>
<text text-anchor="middle" x="2835.9475" y="-101.3" font-family="Times,serif" font-size="14.00" fill="#000000">publication</text>
</g>
<!-- publication&#45;&gt;study -->
<g id="edge25" class="edge">
<title>publication&#45;&gt;study</title>
<path fill="none" stroke="#000000" d="M2815.8839,-87.6799C2801.1586,-76.0271 2780.1145,-61.4752 2758.9475,-54 2698.2878,-32.5778 2511.7087,-22.9881 2423.7496,-19.5706"/>
<polygon fill="#000000" stroke="#000000" points="2423.6519,-16.0645 2413.5268,-19.184 2423.3874,-23.0595 2423.6519,-16.0645"/>
<text text-anchor="middle" x="2838.9475" y="-57.8" font-family="Times,serif" font-size="14.00" fill="#000000">of_publication</text>
</g>
<!-- diagnosis -->
<g id="node25" class="node">
<title>diagnosis</title>
<ellipse fill="none" stroke="#000000" cx="1079.9475" cy="-279" rx="54.6905" ry="18"/>
<text text-anchor="middle" x="1079.9475" y="-275.3" font-family="Times,serif" font-size="14.00" fill="#000000">diagnosis</text>
</g>
<!-- diagnosis&#45;&gt;participant -->
<g id="edge19" class="edge">
<title>diagnosis&#45;&gt;participant</title>
<path fill="none" stroke="#000000" d="M1133.6842,-275.3345C1182.2419,-270.0837 1242.2347,-257.5366 1214.9475,-228 1180.6093,-190.8311 1022.2858,-247.1689 987.9475,-210 977.0902,-198.2476 977.3387,-185.9772 987.9475,-174 1009.9152,-149.1988 1103.1051,-160.3651 1135.9475,-156 1182.2409,-149.8472 1193.4813,-145.6719 1239.9475,-141 1440.9333,-120.7921 1679.2755,-111.0052 1796.4827,-107.1204"/>
<polygon fill="#000000" stroke="#000000" points="1796.8793,-110.6094 1806.7596,-106.7846 1796.6506,-103.6131 1796.8793,-110.6094"/>
<text text-anchor="middle" x="1032.4475" y="-188.3" font-family="Times,serif" font-size="14.00" fill="#000000">of_diagnosis</text>
</g>
<!-- diagnosis&#45;&gt;sample -->
<g id="edge20" class="edge">
<title>diagnosis&#45;&gt;sample</title>
<path fill="none" stroke="#000000" d="M1026.9164,-274.6184C987.6913,-270.0528 933.5645,-260.9293 888.9475,-243 877.6236,-238.4495 877.4172,-232.1694 865.9475,-228 802.8427,-205.0603 781.8721,-222.7432 715.9475,-210 709.1146,-208.6792 701.9529,-207.0376 694.959,-205.2874"/>
<polygon fill="#000000" stroke="#000000" points="695.4488,-201.7985 684.8899,-202.67 693.6877,-208.5733 695.4488,-201.7985"/>
<text text-anchor="middle" x="933.4475" y="-231.8" font-family="Times,serif" font-size="14.00" fill="#000000">of_diagnosis</text>
</g>
<!-- study_admin -->
<g id="node26" class="node">
<title>study_admin</title>
<ellipse fill="none" stroke="#000000" cx="2986.9475" cy="-105" rx="70.3881" ry="18"/>
<text text-anchor="middle" x="2986.9475" y="-101.3" font-family="Times,serif" font-size="14.00" fill="#000000">study_admin</text>
</g>
<!-- study_admin&#45;&gt;study -->
<g id="edge2" class="edge">
<title>study_admin&#45;&gt;study</title>
<path fill="none" stroke="#000000" d="M2962.9719,-88.0489C2944.9068,-76.2518 2919.0368,-61.3659 2893.9475,-54 2806.4467,-28.311 2533.355,-20.7328 2423.4527,-18.6909"/>
<polygon fill="#000000" stroke="#000000" points="2423.3991,-15.1895 2413.3381,-18.5102 2423.2739,-22.1884 2423.3991,-15.1895"/>
<text text-anchor="middle" x="2984.4475" y="-57.8" font-family="Times,serif" font-size="14.00" fill="#000000">of_study_admin</text>
</g>
</g>
</svg>
