<svg width="2611pt" height="392pt"
 viewBox="0.00 0.00 2611.04 392.00" xmlns="http://www.w3.org/2000/svg" xmlns:xlink="http://www.w3.org/1999/xlink">
<g id="graph0" class="graph" transform="scale(1 1) rotate(0) translate(4 388)">
<title>Perl</title>
<polygon fill="#ffffff" stroke="transparent" points="-4,4 -4,-388 2607.0444,-388 2607.0444,4 -4,4"/>
<!-- medical_history -->
<g id="node1" class="node">
<title>medical_history</title>
<ellipse fill="none" stroke="#000000" cx="1240.0444" cy="-192" rx="85.2851" ry="18"/>
<text text-anchor="middle" x="1240.0444" y="-188.3" font-family="Times,serif" font-size="14.00" fill="#000000">medical_history</text>
</g>
<!-- participant -->
<g id="node8" class="node">
<title>participant</title>
<ellipse fill="none" stroke="#000000" cx="1461.0444" cy="-105" rx="62.2891" ry="18"/>
<text text-anchor="middle" x="1461.0444" y="-101.3" font-family="Times,serif" font-size="14.00" fill="#000000">participant</text>
</g>
<!-- medical_history&#45;&gt;participant -->
<g id="edge20" class="edge">
<title>medical_history&#45;&gt;participant</title>
<path fill="none" stroke="#000000" d="M1240.2377,-173.8048C1241.3747,-162.6856 1244.7761,-149.0916 1254.0444,-141 1276.8436,-121.0954 1359.3165,-128.6792 1389.0444,-123 1394.344,-121.9876 1399.8364,-120.8247 1405.3166,-119.5878"/>
<polygon fill="#000000" stroke="#000000" points="1406.1814,-122.9801 1415.1236,-117.2977 1404.5896,-116.1634 1406.1814,-122.9801"/>
<text text-anchor="middle" x="1322.0444" y="-144.8" font-family="Times,serif" font-size="14.00" fill="#000000">of_medical_history</text>
</g>
<!-- pathology_file -->
<g id="node2" class="node">
<title>pathology_file</title>
<ellipse fill="none" stroke="#000000" cx="1814.0444" cy="-366" rx="76.0865" ry="18"/>
<text text-anchor="middle" x="1814.0444" y="-362.3" font-family="Times,serif" font-size="14.00" fill="#000000">pathology_file</text>
</g>
<!-- pdx -->
<g id="node13" class="node">
<title>pdx</title>
<ellipse fill="none" stroke="#000000" cx="1583.0444" cy="-279" rx="27.8951" ry="18"/>
<text text-anchor="middle" x="1583.0444" y="-275.3" font-family="Times,serif" font-size="14.00" fill="#000000">pdx</text>
</g>
<!-- pathology_file&#45;&gt;pdx -->
<g id="edge6" class="edge">
<title>pathology_file&#45;&gt;pdx</title>
<path fill="none" stroke="#000000" d="M1803.1781,-348.138C1795.3674,-336.861 1783.8098,-322.9652 1770.0444,-315 1745.1697,-300.6064 1667.8382,-289.1597 1620.7694,-283.2955"/>
<polygon fill="#000000" stroke="#000000" points="1620.995,-279.7972 1610.645,-282.0619 1620.1483,-286.7458 1620.995,-279.7972"/>
<text text-anchor="middle" x="1849.0444" y="-318.8" font-family="Times,serif" font-size="14.00" fill="#000000">of_pathology_file</text>
</g>
<!-- sample -->
<g id="node18" class="node">
<title>sample</title>
<ellipse fill="none" stroke="#000000" cx="1805.0444" cy="-192" rx="44.393" ry="18"/>
<text text-anchor="middle" x="1805.0444" y="-188.3" font-family="Times,serif" font-size="14.00" fill="#000000">sample</text>
</g>
<!-- pathology_file&#45;&gt;sample -->
<g id="edge7" class="edge">
<title>pathology_file&#45;&gt;sample</title>
<path fill="none" stroke="#000000" d="M1865.5055,-352.7277C1886.445,-346.2948 1907.3088,-338.1976 1914.0444,-330 1933.564,-306.2436 1934.1418,-287.7853 1919.0444,-261 1917.8925,-258.9563 1872.4104,-231.7879 1839.2514,-212.1625"/>
<polygon fill="#000000" stroke="#000000" points="1840.6621,-208.9306 1830.2727,-206.8543 1837.0997,-214.9563 1840.6621,-208.9306"/>
<text text-anchor="middle" x="1990.0444" y="-275.3" font-family="Times,serif" font-size="14.00" fill="#000000">of_pathology_file</text>
</g>
<!-- cell_line -->
<g id="node19" class="node">
<title>cell_line</title>
<ellipse fill="none" stroke="#000000" cx="746.0444" cy="-279" rx="49.2915" ry="18"/>
<text text-anchor="middle" x="746.0444" y="-275.3" font-family="Times,serif" font-size="14.00" fill="#000000">cell_line</text>
</g>
<!-- pathology_file&#45;&gt;cell_line -->
<g id="edge5" class="edge">
<title>pathology_file&#45;&gt;cell_line</title>
<path fill="none" stroke="#000000" d="M1755.3716,-354.5185C1740.0269,-351.9333 1723.4636,-349.5102 1708.0444,-348 1634.4805,-340.7948 1113.6046,-352.0188 1043.0444,-330 1031.3944,-326.3645 1031.4906,-319.2337 1020.0444,-315 981.737,-300.831 873.1865,-289.5852 804.7716,-283.6416"/>
<polygon fill="#000000" stroke="#000000" points="804.8297,-280.1338 794.5677,-282.7685 804.2328,-287.1084 804.8297,-280.1338"/>
<text text-anchor="middle" x="1104.0444" y="-318.8" font-family="Times,serif" font-size="14.00" fill="#000000">of_pathology_file</text>
</g>
<!-- single_cell_sequencing_file -->
<g id="node3" class="node">
<title>single_cell_sequencing_file</title>
<ellipse fill="none" stroke="#000000" cx="415.0444" cy="-366" rx="137.5759" ry="18"/>
<text text-anchor="middle" x="415.0444" y="-362.3" font-family="Times,serif" font-size="14.00" fill="#000000">single_cell_sequencing_file</text>
</g>
<!-- single_cell_sequencing_file&#45;&gt;pdx -->
<g id="edge30" class="edge">
<title>single_cell_sequencing_file&#45;&gt;pdx</title>
<path fill="none" stroke="#000000" d="M538.5057,-357.9086C591.5941,-354.5805 654.3549,-350.8471 711.0444,-348 761.4649,-345.4677 1117.6899,-347.4985 1165.0444,-330 1175.1363,-326.2708 1174.0496,-318.982 1184.0444,-315 1249.0166,-289.1144 1458.1508,-281.6823 1544.8437,-279.6852"/>
<polygon fill="#000000" stroke="#000000" points="1545.1117,-283.1803 1555.0329,-279.4628 1544.9589,-276.182 1545.1117,-283.1803"/>
<text text-anchor="middle" x="1292.5444" y="-318.8" font-family="Times,serif" font-size="14.00" fill="#000000">of_single_cell_sequencing_file</text>
</g>
<!-- single_cell_sequencing_file&#45;&gt;sample -->
<g id="edge29" class="edge">
<title>single_cell_sequencing_file&#45;&gt;sample</title>
<path fill="none" stroke="#000000" d="M413.0747,-347.8057C412.7164,-337.7304 413.514,-325.2161 418.0444,-315 431.677,-284.2589 440.4291,-274.9129 471.0444,-261 585.5452,-208.966 910.3845,-233.25 1036.0444,-228 1194.8451,-221.3654 1594.4903,-237.4316 1751.0444,-210 1754.9836,-209.3098 1759.0267,-208.388 1763.0426,-207.325"/>
<polygon fill="#000000" stroke="#000000" points="1764.2787,-210.6102 1772.894,-204.4437 1762.3136,-203.8917 1764.2787,-210.6102"/>
<text text-anchor="middle" x="579.5444" y="-275.3" font-family="Times,serif" font-size="14.00" fill="#000000">of_single_cell_sequencing_file</text>
</g>
<!-- single_cell_sequencing_file&#45;&gt;cell_line -->
<g id="edge31" class="edge">
<title>single_cell_sequencing_file&#45;&gt;cell_line</title>
<path fill="none" stroke="#000000" d="M415.9149,-347.9361C417.4637,-336.7235 421.3849,-322.9771 431.0444,-315 435.9548,-310.9448 598.4727,-293.9304 688.0959,-284.8191"/>
<polygon fill="#000000" stroke="#000000" points="688.5244,-288.2936 698.12,-283.802 687.8178,-281.3294 688.5244,-288.2936"/>
<text text-anchor="middle" x="539.5444" y="-318.8" font-family="Times,serif" font-size="14.00" fill="#000000">of_single_cell_sequencing_file</text>
</g>
<!-- publication -->
<g id="node4" class="node">
<title>publication</title>
<ellipse fill="none" stroke="#000000" cx="63.0444" cy="-105" rx="63.0888" ry="18"/>
<text text-anchor="middle" x="63.0444" y="-101.3" font-family="Times,serif" font-size="14.00" fill="#000000">publication</text>
</g>
<!-- study -->
<g id="node14" class="node">
<title>study</title>
<ellipse fill="none" stroke="#000000" cx="1461.0444" cy="-18" rx="36.2938" ry="18"/>
<text text-anchor="middle" x="1461.0444" y="-14.3" font-family="Times,serif" font-size="14.00" fill="#000000">study</text>
</g>
<!-- publication&#45;&gt;study -->
<g id="edge34" class="edge">
<title>publication&#45;&gt;study</title>
<path fill="none" stroke="#000000" d="M73.9741,-87.1168C82.2598,-75.3631 94.8066,-60.9224 110.0444,-54 170.5638,-26.5066 1182.8252,-19.4776 1414.2035,-18.227"/>
<polygon fill="#000000" stroke="#000000" points="1414.331,-21.7265 1424.3123,-18.1734 1414.2938,-14.7266 1414.331,-21.7265"/>
<text text-anchor="middle" x="161.0444" y="-57.8" font-family="Times,serif" font-size="14.00" fill="#000000">of_publication</text>
</g>
<!-- radiology_file -->
<g id="node5" class="node">
<title>radiology_file</title>
<ellipse fill="none" stroke="#000000" cx="1669.0444" cy="-192" rx="73.387" ry="18"/>
<text text-anchor="middle" x="1669.0444" y="-188.3" font-family="Times,serif" font-size="14.00" fill="#000000">radiology_file</text>
</g>
<!-- radiology_file&#45;&gt;participant -->
<g id="edge10" class="edge">
<title>radiology_file&#45;&gt;participant</title>
<path fill="none" stroke="#000000" d="M1647.2348,-174.5653C1632.6231,-163.6111 1612.5551,-149.916 1593.0444,-141 1585.8246,-137.7007 1550.1551,-128.0316 1517.7148,-119.5443"/>
<polygon fill="#000000" stroke="#000000" points="1518.3453,-116.0918 1507.7859,-116.9566 1516.5799,-122.8655 1518.3453,-116.0918"/>
<text text-anchor="middle" x="1678.0444" y="-144.8" font-family="Times,serif" font-size="14.00" fill="#000000">of_radiology_file</text>
</g>
<!-- study_funding -->
<g id="node6" class="node">
<title>study_funding</title>
<ellipse fill="none" stroke="#000000" cx="221.0444" cy="-105" rx="77.1866" ry="18"/>
<text text-anchor="middle" x="221.0444" y="-101.3" font-family="Times,serif" font-size="14.00" fill="#000000">study_funding</text>
</g>
<!-- study_funding&#45;&gt;study -->
<g id="edge16" class="edge">
<title>study_funding&#45;&gt;study</title>
<path fill="none" stroke="#000000" d="M215.8191,-87.0358C213.8105,-76.0088 213.693,-62.4307 222.0444,-54 243.4163,-32.4253 1190.9278,-20.9032 1414.2502,-18.4843"/>
<polygon fill="#000000" stroke="#000000" points="1414.3688,-21.9833 1424.3306,-18.376 1414.2935,-14.9837 1414.3688,-21.9833"/>
<text text-anchor="middle" x="284.0444" y="-57.8" font-family="Times,serif" font-size="14.00" fill="#000000">of_study_funding</text>
</g>
<!-- methylation_array_file -->
<g id="node7" class="node">
<title>methylation_array_file</title>
<ellipse fill="none" stroke="#000000" cx="1583.0444" cy="-366" rx="115.8798" ry="18"/>
<text text-anchor="middle" x="1583.0444" y="-362.3" font-family="Times,serif" font-size="14.00" fill="#000000">methylation_array_file</text>
</g>
<!-- methylation_array_file&#45;&gt;pdx -->
<g id="edge13" class="edge">
<title>methylation_array_file&#45;&gt;pdx</title>
<path fill="none" stroke="#000000" d="M1583.0444,-347.9735C1583.0444,-336.1918 1583.0444,-320.5607 1583.0444,-307.1581"/>
<polygon fill="#000000" stroke="#000000" points="1586.5445,-307.0033 1583.0444,-297.0034 1579.5445,-307.0034 1586.5445,-307.0033"/>
<text text-anchor="middle" x="1674.5444" y="-318.8" font-family="Times,serif" font-size="14.00" fill="#000000">of_methylation_array_file</text>
</g>
<!-- methylation_array_file&#45;&gt;sample -->
<g id="edge11" class="edge">
<title>methylation_array_file&#45;&gt;sample</title>
<path fill="none" stroke="#000000" d="M1669.8192,-354.0719C1714.2441,-347.0765 1760.411,-338.057 1767.0444,-330 1788.0836,-304.4456 1734.6521,-301.2735 1732.0444,-297 1723.7102,-283.342 1725.7139,-275.6944 1732.0444,-261 1740.3695,-241.6757 1757.0631,-225.2396 1772.3875,-213.2618"/>
<polygon fill="#000000" stroke="#000000" points="1774.7661,-215.8545 1780.6984,-207.0761 1770.5867,-210.2391 1774.7661,-215.8545"/>
<text text-anchor="middle" x="1823.5444" y="-275.3" font-family="Times,serif" font-size="14.00" fill="#000000">of_methylation_array_file</text>
</g>
<!-- methylation_array_file&#45;&gt;cell_line -->
<g id="edge12" class="edge">
<title>methylation_array_file&#45;&gt;cell_line</title>
<path fill="none" stroke="#000000" d="M1468.5967,-363.3665C1274.4831,-358.4699 895.933,-346.9032 837.0444,-330 815.55,-323.8303 793.62,-311.7475 776.675,-300.8911"/>
<polygon fill="#000000" stroke="#000000" points="778.5715,-297.9492 768.297,-295.3635 774.7165,-303.7921 778.5715,-297.9492"/>
<text text-anchor="middle" x="928.5444" y="-318.8" font-family="Times,serif" font-size="14.00" fill="#000000">of_methylation_array_file</text>
</g>
<!-- participant&#45;&gt;study -->
<g id="edge28" class="edge">
<title>participant&#45;&gt;study</title>
<path fill="none" stroke="#000000" d="M1461.0444,-86.9735C1461.0444,-75.1918 1461.0444,-59.5607 1461.0444,-46.1581"/>
<polygon fill="#000000" stroke="#000000" points="1464.5445,-46.0033 1461.0444,-36.0034 1457.5445,-46.0034 1464.5445,-46.0033"/>
<text text-anchor="middle" x="1511.5444" y="-57.8" font-family="Times,serif" font-size="14.00" fill="#000000">of_participant</text>
</g>
<!-- follow_up -->
<g id="node9" class="node">
<title>follow_up</title>
<ellipse fill="none" stroke="#000000" cx="2043.0444" cy="-192" rx="55.4913" ry="18"/>
<text text-anchor="middle" x="2043.0444" y="-188.3" font-family="Times,serif" font-size="14.00" fill="#000000">follow_up</text>
</g>
<!-- follow_up&#45;&gt;participant -->
<g id="edge22" class="edge">
<title>follow_up&#45;&gt;participant</title>
<path fill="none" stroke="#000000" d="M1999.8022,-180.6409C1961.1438,-170.4597 1910.2323,-156.9751 1908.0444,-156 1896.8973,-151.032 1896.6501,-144.7743 1885.0444,-141 1810.3488,-116.708 1609.7132,-134.7082 1532.0444,-123 1526.6217,-122.1826 1521.0112,-121.1297 1515.43,-119.944"/>
<polygon fill="#000000" stroke="#000000" points="1515.9884,-116.4819 1505.4625,-117.6883 1514.4433,-123.3093 1515.9884,-116.4819"/>
<text text-anchor="middle" x="1953.0444" y="-144.8" font-family="Times,serif" font-size="14.00" fill="#000000">of_follow_up</text>
</g>
<!-- study_admin -->
<g id="node10" class="node">
<title>study_admin</title>
<ellipse fill="none" stroke="#000000" cx="1310.0444" cy="-105" rx="70.3881" ry="18"/>
<text text-anchor="middle" x="1310.0444" y="-101.3" font-family="Times,serif" font-size="14.00" fill="#000000">study_admin</text>
</g>
<!-- study_admin&#45;&gt;study -->
<g id="edge24" class="edge">
<title>study_admin&#45;&gt;study</title>
<path fill="none" stroke="#000000" d="M1318.061,-87.0987C1323.8328,-76.0969 1332.6125,-62.5231 1344.0444,-54 1364.8972,-38.4532 1392.553,-29.5435 1415.7409,-24.4781"/>
<polygon fill="#000000" stroke="#000000" points="1416.5922,-27.877 1425.7051,-22.4728 1415.2111,-21.0146 1416.5922,-27.877"/>
<text text-anchor="middle" x="1400.5444" y="-57.8" font-family="Times,serif" font-size="14.00" fill="#000000">of_study_admin</text>
</g>
<!-- family_relationship -->
<g id="node11" class="node">
<title>family_relationship</title>
<ellipse fill="none" stroke="#000000" cx="488.0444" cy="-192" rx="100.1823" ry="18"/>
<text text-anchor="middle" x="488.0444" y="-188.3" font-family="Times,serif" font-size="14.00" fill="#000000">family_relationship</text>
</g>
<!-- family_relationship&#45;&gt;participant -->
<g id="edge8" class="edge">
<title>family_relationship&#45;&gt;participant</title>
<path fill="none" stroke="#000000" d="M505.8519,-174.2237C519.0349,-162.356 538.1001,-147.7346 558.0444,-141 645.5455,-111.4533 1297.5089,-135.2761 1389.0444,-123 1394.8529,-122.221 1400.8703,-121.1506 1406.8389,-119.9169"/>
<polygon fill="#000000" stroke="#000000" points="1407.7874,-123.2917 1416.7922,-117.7092 1406.2716,-116.4578 1407.7874,-123.2917"/>
<text text-anchor="middle" x="637.5444" y="-144.8" font-family="Times,serif" font-size="14.00" fill="#000000">of_family_relationship</text>
</g>
<!-- molecular_test -->
<g id="node12" class="node">
<title>molecular_test</title>
<ellipse fill="none" stroke="#000000" cx="686.0444" cy="-192" rx="79.8859" ry="18"/>
<text text-anchor="middle" x="686.0444" y="-188.3" font-family="Times,serif" font-size="14.00" fill="#000000">molecular_test</text>
</g>
<!-- molecular_test&#45;&gt;participant -->
<g id="edge23" class="edge">
<title>molecular_test&#45;&gt;participant</title>
<path fill="none" stroke="#000000" d="M700.446,-174.0522C711.0902,-162.2689 726.6988,-147.8193 744.0444,-141 810.7677,-114.7681 1318.0161,-132.7516 1389.0444,-123 1394.7687,-122.2141 1400.6968,-121.1512 1406.5818,-119.9325"/>
<polygon fill="#000000" stroke="#000000" points="1407.3958,-123.3371 1416.4012,-117.7557 1405.8807,-116.503 1407.3958,-123.3371"/>
<text text-anchor="middle" x="808.0444" y="-144.8" font-family="Times,serif" font-size="14.00" fill="#000000">of_molecular_test</text>
</g>
<!-- pdx&#45;&gt;sample -->
<g id="edge21" class="edge">
<title>pdx&#45;&gt;sample</title>
<path fill="none" stroke="#000000" d="M1601.8547,-265.6338C1618.9067,-254.1008 1645.1131,-237.7976 1670.0444,-228 1704.3674,-214.5117 1715.5044,-219.844 1751.0444,-210 1754.586,-209.019 1758.2381,-207.9433 1761.8939,-206.8209"/>
<polygon fill="#000000" stroke="#000000" points="1763.0312,-210.1321 1771.5064,-203.7742 1760.9163,-203.4592 1763.0312,-210.1321"/>
<text text-anchor="middle" x="1694.0444" y="-231.8" font-family="Times,serif" font-size="14.00" fill="#000000">of_pdx</text>
</g>
<!-- synonym -->
<g id="node15" class="node">
<title>synonym</title>
<ellipse fill="none" stroke="#000000" cx="2143.0444" cy="-279" rx="51.9908" ry="18"/>
<text text-anchor="middle" x="2143.0444" y="-275.3" font-family="Times,serif" font-size="14.00" fill="#000000">synonym</text>
</g>
<!-- synonym&#45;&gt;participant -->
<g id="edge17" class="edge">
<title>synonym&#45;&gt;participant</title>
<path fill="none" stroke="#000000" d="M2109.0188,-265.3384C2079.7362,-254.0125 2036.1505,-238.1746 1997.0444,-228 1952.0702,-216.2986 1933.5736,-234.4345 1894.0444,-210 1861.607,-189.9492 1876.5823,-159.1502 1843.0444,-141 1782.1616,-108.0511 1600.4619,-133.554 1532.0444,-123 1526.6246,-122.1639 1521.016,-121.0988 1515.4359,-119.9054"/>
<polygon fill="#000000" stroke="#000000" points="1515.9967,-116.4437 1505.4698,-117.6407 1514.4455,-123.2697 1515.9967,-116.4437"/>
<text text-anchor="middle" x="1936.5444" y="-188.3" font-family="Times,serif" font-size="14.00" fill="#000000">of_synonym</text>
</g>
<!-- synonym&#45;&gt;study -->
<g id="edge18" class="edge">
<title>synonym&#45;&gt;study</title>
<path fill="none" stroke="#000000" d="M2191.9656,-272.7524C2309.2857,-255.7808 2590.6173,-202.1627 2503.0444,-87 2469.8227,-43.3118 2438.2734,-62.4595 2384.0444,-54 2212.4296,-27.2288 1670.377,-19.9875 1507.6676,-18.3931"/>
<polygon fill="#000000" stroke="#000000" points="1507.5397,-14.8918 1497.5068,-18.2961 1507.4729,-21.8915 1507.5397,-14.8918"/>
<text text-anchor="middle" x="2560.5444" y="-144.8" font-family="Times,serif" font-size="14.00" fill="#000000">of_synonym</text>
</g>
<!-- synonym&#45;&gt;sample -->
<g id="edge19" class="edge">
<title>synonym&#45;&gt;sample</title>
<path fill="none" stroke="#000000" d="M2103.4935,-267.1261C2094.8369,-264.8329 2085.6793,-262.6379 2077.0444,-261 2004.5683,-247.2525 1981.5088,-267.8289 1912.0444,-243 1900.5524,-238.8924 1899.8044,-233.7586 1889.0444,-228 1875.7616,-220.8912 1860.776,-214.1032 1847.1781,-208.376"/>
<polygon fill="#000000" stroke="#000000" points="1848.1449,-204.9885 1837.5662,-204.4038 1845.4713,-211.4578 1848.1449,-204.9885"/>
<text text-anchor="middle" x="1954.5444" y="-231.8" font-family="Times,serif" font-size="14.00" fill="#000000">of_synonym</text>
</g>
<!-- study_personnel -->
<g id="node16" class="node">
<title>study_personnel</title>
<ellipse fill="none" stroke="#000000" cx="1628.0444" cy="-105" rx="87.1846" ry="18"/>
<text text-anchor="middle" x="1628.0444" y="-101.3" font-family="Times,serif" font-size="14.00" fill="#000000">study_personnel</text>
</g>
<!-- study_personnel&#45;&gt;study -->
<g id="edge27" class="edge">
<title>study_personnel&#45;&gt;study</title>
<path fill="none" stroke="#000000" d="M1610.0683,-87.253C1598.331,-76.451 1582.2286,-63.0385 1566.0444,-54 1546.6137,-43.1484 1523.3453,-34.7611 1503.6563,-28.8232"/>
<polygon fill="#000000" stroke="#000000" points="1504.5986,-25.4524 1494.0192,-26.0233 1502.6456,-32.1744 1504.5986,-25.4524"/>
<text text-anchor="middle" x="1656.5444" y="-57.8" font-family="Times,serif" font-size="14.00" fill="#000000">of_study_personnel</text>
</g>
<!-- therapeutic_procedure -->
<g id="node17" class="node">
<title>therapeutic_procedure</title>
<ellipse fill="none" stroke="#000000" cx="902.0444" cy="-192" rx="117.7793" ry="18"/>
<text text-anchor="middle" x="902.0444" y="-188.3" font-family="Times,serif" font-size="14.00" fill="#000000">therapeutic_procedure</text>
</g>
<!-- therapeutic_procedure&#45;&gt;participant -->
<g id="edge14" class="edge">
<title>therapeutic_procedure&#45;&gt;participant</title>
<path fill="none" stroke="#000000" d="M885.3378,-174.1409C877.3298,-163.4312 871.2044,-150.1581 880.0444,-141 899.6956,-120.6416 1361.0264,-126.953 1389.0444,-123 1394.7657,-122.1928 1400.6919,-121.116 1406.5757,-119.889"/>
<polygon fill="#000000" stroke="#000000" points="1407.3936,-123.2927 1416.3939,-117.703 1405.8722,-116.46 1407.3936,-123.2927"/>
<text text-anchor="middle" x="973.0444" y="-144.8" font-family="Times,serif" font-size="14.00" fill="#000000">of_therapeutic_procedure</text>
</g>
<!-- sample&#45;&gt;participant -->
<g id="edge25" class="edge">
<title>sample&#45;&gt;participant</title>
<path fill="none" stroke="#000000" d="M1789.4222,-175.1117C1777.4263,-163.3458 1759.7846,-148.4714 1741.0444,-141 1654.4408,-106.4724 1623.9785,-138.5069 1532.0444,-123 1526.7152,-122.1011 1521.1987,-121.0046 1515.7038,-119.8008"/>
<polygon fill="#000000" stroke="#000000" points="1516.4122,-116.3724 1505.8817,-117.5377 1514.8405,-123.1937 1516.4122,-116.3724"/>
<text text-anchor="middle" x="1802.5444" y="-144.8" font-family="Times,serif" font-size="14.00" fill="#000000">of_sample</text>
</g>
<!-- cell_line&#45;&gt;participant -->
<g id="edge32" class="edge">
<title>cell_line&#45;&gt;participant</title>
<path fill="none" stroke="#000000" d="M790.7051,-271.1593C859.6858,-258.5431 988.4362,-232.836 1029.0444,-210 1048.7672,-198.9089 1045.0359,-184.5669 1065.0444,-174 1135.0323,-137.0379 1161.8241,-153.0862 1240.0444,-141 1305.9658,-130.8141 1323.4497,-135.1126 1389.0444,-123 1394.3502,-122.0202 1399.8466,-120.8794 1405.3295,-119.6564"/>
<polygon fill="#000000" stroke="#000000" points="1406.1878,-123.0503 1415.1396,-117.3832 1404.6076,-116.231 1406.1878,-123.0503"/>
<text text-anchor="middle" x="1105.5444" y="-188.3" font-family="Times,serif" font-size="14.00" fill="#000000">of_cell_line</text>
</g>
<!-- cell_line&#45;&gt;study -->
<g id="edge33" class="edge">
<title>cell_line&#45;&gt;study</title>
<path fill="none" stroke="#000000" d="M710.8445,-266.3664C704.6306,-264.3951 698.1852,-262.5134 692.0444,-261 551.8541,-226.45 302.7694,-296.5934 379.0444,-174 434.9425,-84.1576 1214.5495,-32.4605 1414.5542,-20.6283"/>
<polygon fill="#000000" stroke="#000000" points="1414.9481,-24.1113 1424.7259,-20.0315 1414.538,-17.1233 1414.9481,-24.1113"/>
<text text-anchor="middle" x="471.5444" y="-144.8" font-family="Times,serif" font-size="14.00" fill="#000000">of_cell_line</text>
</g>
<!-- diagnosis -->
<g id="node20" class="node">
<title>diagnosis</title>
<ellipse fill="none" stroke="#000000" cx="1398.0444" cy="-192" rx="54.6905" ry="18"/>
<text text-anchor="middle" x="1398.0444" y="-188.3" font-family="Times,serif" font-size="14.00" fill="#000000">diagnosis</text>
</g>
<!-- diagnosis&#45;&gt;participant -->
<g id="edge35" class="edge">
<title>diagnosis&#45;&gt;participant</title>
<path fill="none" stroke="#000000" d="M1394.2307,-173.8259C1393.0427,-163.5179 1393.2927,-150.7679 1399.0444,-141 1402.7785,-134.6585 1408.0949,-129.326 1414.0635,-124.8746"/>
<polygon fill="#000000" stroke="#000000" points="1416.0701,-127.7443 1422.5195,-119.3387 1412.2359,-121.8878 1416.0701,-127.7443"/>
<text text-anchor="middle" x="1443.5444" y="-144.8" font-family="Times,serif" font-size="14.00" fill="#000000">of_diagnosis</text>
</g>
<!-- exposure -->
<g id="node21" class="node">
<title>exposure</title>
<ellipse fill="none" stroke="#000000" cx="1524.0444" cy="-192" rx="53.0913" ry="18"/>
<text text-anchor="middle" x="1524.0444" y="-188.3" font-family="Times,serif" font-size="14.00" fill="#000000">exposure</text>
</g>
<!-- exposure&#45;&gt;participant -->
<g id="edge26" class="edge">
<title>exposure&#45;&gt;participant</title>
<path fill="none" stroke="#000000" d="M1513.7185,-174.1014C1507.7377,-164.1185 1499.8636,-151.5982 1492.0444,-141 1489.4553,-137.4907 1486.6132,-133.8952 1483.7332,-130.399"/>
<polygon fill="#000000" stroke="#000000" points="1486.181,-127.8737 1477.0452,-122.5082 1480.841,-132.3997 1486.181,-127.8737"/>
<text text-anchor="middle" x="1545.5444" y="-144.8" font-family="Times,serif" font-size="14.00" fill="#000000">of_exposure</text>
</g>
<!-- study_arm -->
<g id="node22" class="node">
<title>study_arm</title>
<ellipse fill="none" stroke="#000000" cx="2434.0444" cy="-105" rx="59.5901" ry="18"/>
<text text-anchor="middle" x="2434.0444" y="-101.3" font-family="Times,serif" font-size="14.00" fill="#000000">study_arm</text>
</g>
<!-- study_arm&#45;&gt;study -->
<g id="edge15" class="edge">
<title>study_arm&#45;&gt;study</title>
<path fill="none" stroke="#000000" d="M2389.2075,-92.8424C2342.032,-80.6346 2265.4227,-62.4583 2198.0444,-54 2063.6357,-37.1271 1648.3059,-23.5628 1507.9453,-19.3562"/>
<polygon fill="#000000" stroke="#000000" points="1507.6447,-15.8458 1497.5449,-19.0466 1507.4363,-22.8427 1507.6447,-15.8458"/>
<text text-anchor="middle" x="2331.5444" y="-57.8" font-family="Times,serif" font-size="14.00" fill="#000000">of_study_arm</text>
</g>
<!-- clinical_measure_file -->
<g id="node23" class="node">
<title>clinical_measure_file</title>
<ellipse fill="none" stroke="#000000" cx="2265.0444" cy="-192" rx="108.5808" ry="18"/>
<text text-anchor="middle" x="2265.0444" y="-188.3" font-family="Times,serif" font-size="14.00" fill="#000000">clinical_measure_file</text>
</g>
<!-- clinical_measure_file&#45;&gt;participant -->
<g id="edge4" class="edge">
<title>clinical_measure_file&#45;&gt;participant</title>
<path fill="none" stroke="#000000" d="M2172.7295,-182.5228C2115.6813,-175.8674 2048.3228,-166.336 2021.0444,-156 2009.6322,-151.6758 2009.6732,-144.7027 1998.0444,-141 1899.2964,-109.5582 1634.6128,-137.8151 1532.0444,-123 1526.6168,-122.216 1521.003,-121.1854 1515.4198,-120.0134"/>
<polygon fill="#000000" stroke="#000000" points="1515.9738,-116.5507 1505.4498,-117.7741 1514.4397,-123.3806 1515.9738,-116.5507"/>
<text text-anchor="middle" x="2150.5444" y="-144.8" font-family="Times,serif" font-size="14.00" fill="#000000">of_clinical_measure_file_participant</text>
</g>
<!-- clinical_measure_file&#45;&gt;study -->
<g id="edge9" class="edge">
<title>clinical_measure_file&#45;&gt;study</title>
<path fill="none" stroke="#000000" d="M2278.0321,-173.7274C2283.8475,-163.1316 2287.8374,-150.1225 2280.0444,-141 2275.0211,-135.1196 1737.6972,-55.1172 1730.0444,-54 1651.5857,-42.5463 1560.0396,-30.5949 1506.5146,-23.7493"/>
<polygon fill="#000000" stroke="#000000" points="1506.6944,-20.244 1496.3317,-22.4499 1505.8083,-27.1877 1506.6944,-20.244"/>
<text text-anchor="middle" x="2261.0444" y="-101.3" font-family="Times,serif" font-size="14.00" fill="#000000">of_clinical_measure_file</text>
</g>
<!-- sequencing_file -->
<g id="node24" class="node">
<title>sequencing_file</title>
<ellipse fill="none" stroke="#000000" cx="803.0444" cy="-366" rx="83.3857" ry="18"/>
<text text-anchor="middle" x="803.0444" y="-362.3" font-family="Times,serif" font-size="14.00" fill="#000000">sequencing_file</text>
</g>
<!-- sequencing_file&#45;&gt;pdx -->
<g id="edge1" class="edge">
<title>sequencing_file&#45;&gt;pdx</title>
<path fill="none" stroke="#000000" d="M885.8206,-364.0211C1026.9612,-360.15 1308.3068,-350.1368 1405.0444,-330 1424.0407,-326.0457 1427.5298,-320.8054 1446.0444,-315 1479.7525,-304.4306 1518.7678,-294.3877 1546.5209,-287.6083"/>
<polygon fill="#000000" stroke="#000000" points="1547.6756,-290.93 1556.5715,-285.1755 1546.0288,-284.1264 1547.6756,-290.93"/>
<text text-anchor="middle" x="1512.5444" y="-318.8" font-family="Times,serif" font-size="14.00" fill="#000000">of_sequencing_file</text>
</g>
<!-- sequencing_file&#45;&gt;sample -->
<g id="edge3" class="edge">
<title>sequencing_file&#45;&gt;sample</title>
<path fill="none" stroke="#000000" d="M803.1567,-347.9885C804.2454,-336.7975 807.6234,-323.0554 817.0444,-315 975.7892,-179.2655 1547.073,-254.9378 1751.0444,-210 1754.8444,-209.1628 1758.7529,-208.1573 1762.6466,-207.0551"/>
<polygon fill="#000000" stroke="#000000" points="1763.6672,-210.4031 1772.2249,-204.1569 1761.6398,-203.7031 1763.6672,-210.4031"/>
<text text-anchor="middle" x="994.5444" y="-275.3" font-family="Times,serif" font-size="14.00" fill="#000000">of_sequencing_file</text>
</g>
<!-- sequencing_file&#45;&gt;cell_line -->
<g id="edge2" class="edge">
<title>sequencing_file&#45;&gt;cell_line</title>
<path fill="none" stroke="#000000" d="M730.9025,-356.8158C698.6843,-351.088 665.7762,-342.4027 656.0444,-330 641.4805,-311.4391 665.563,-298.4977 692.4639,-290.2961"/>
<polygon fill="#000000" stroke="#000000" points="693.7594,-293.5675 702.4359,-287.4873 691.8615,-286.8297 693.7594,-293.5675"/>
<text text-anchor="middle" x="722.5444" y="-318.8" font-family="Times,serif" font-size="14.00" fill="#000000">of_sequencing_file</text>
</g>
</g>
</svg>
