<svg width="3180pt" height="392pt"
 viewBox="0.00 0.00 3180.19 392.00" xmlns="http://www.w3.org/2000/svg" xmlns:xlink="http://www.w3.org/1999/xlink">
<g id="graph0" class="graph" transform="scale(1 1) rotate(0) translate(4 388)">
<title>Perl</title>
<polygon fill="#ffffff" stroke="transparent" points="-4,4 -4,-388 3176.1938,-388 3176.1938,4 -4,4"/>
<!-- study_admin -->
<g id="node1" class="node">
<title>study_admin</title>
<ellipse fill="none" stroke="#000000" cx="70.1938" cy="-105" rx="70.3881" ry="18"/>
<text text-anchor="middle" x="70.1938" y="-101.3" font-family="Times,serif" font-size="14.00" fill="#000000">study_admin</text>
</g>
<!-- study -->
<g id="node9" class="node">
<title>study</title>
<ellipse fill="none" stroke="#000000" cx="1724.1938" cy="-18" rx="36.2938" ry="18"/>
<text text-anchor="middle" x="1724.1938" y="-14.3" font-family="Times,serif" font-size="14.00" fill="#000000">study</text>
</g>
<!-- study_admin&#45;&gt;study -->
<g id="edge6" class="edge">
<title>study_admin&#45;&gt;study</title>
<path fill="none" stroke="#000000" d="M64.9477,-87.015C62.9307,-75.9798 62.8117,-62.4002 71.1938,-54 100.346,-24.7844 1411.987,-19.0055 1677.5861,-18.1341"/>
<polygon fill="#000000" stroke="#000000" points="1677.6767,-21.634 1687.6654,-18.1018 1677.6542,-14.634 1677.6767,-21.634"/>
<text text-anchor="middle" x="127.6938" y="-57.8" font-family="Times,serif" font-size="14.00" fill="#000000">of_study_admin</text>
</g>
<!-- cell_line -->
<g id="node2" class="node">
<title>cell_line</title>
<ellipse fill="none" stroke="#000000" cx="2379.1938" cy="-279" rx="49.2915" ry="18"/>
<text text-anchor="middle" x="2379.1938" y="-275.3" font-family="Times,serif" font-size="14.00" fill="#000000">cell_line</text>
</g>
<!-- sample -->
<g id="node3" class="node">
<title>sample</title>
<ellipse fill="none" stroke="#000000" cx="2203.1938" cy="-192" rx="44.393" ry="18"/>
<text text-anchor="middle" x="2203.1938" y="-188.3" font-family="Times,serif" font-size="14.00" fill="#000000">sample</text>
</g>
<!-- cell_line&#45;&gt;sample -->
<g id="edge28" class="edge">
<title>cell_line&#45;&gt;sample</title>
<path fill="none" stroke="#000000" d="M2341.0055,-267.5825C2332.8481,-265.286 2324.2596,-262.9741 2316.1938,-261 2277.4174,-251.5095 2259.7703,-267.4255 2228.1938,-243 2220.6001,-237.1261 2215.1664,-228.3435 2211.3482,-219.7143"/>
<polygon fill="#000000" stroke="#000000" points="2214.5469,-218.2806 2207.6945,-210.2 2208.0121,-220.7901 2214.5469,-218.2806"/>
<text text-anchor="middle" x="2268.6938" y="-231.8" font-family="Times,serif" font-size="14.00" fill="#000000">of_cell_line</text>
</g>
<!-- cell_line&#45;&gt;study -->
<g id="edge29" class="edge">
<title>cell_line&#45;&gt;study</title>
<path fill="none" stroke="#000000" d="M2427.8415,-275.4166C2497.0756,-269.8159 2617.1463,-258.0524 2630.1938,-243 2634.5604,-237.9624 2633.7339,-233.6491 2630.1938,-228 2523.7728,-58.1797 2411.8584,-87.0611 2214.1938,-54 2129.62,-39.8543 1875.6542,-25.7228 1770.5332,-20.3083"/>
<polygon fill="#000000" stroke="#000000" points="1770.7045,-16.8126 1760.5386,-19.7968 1770.3466,-23.8035 1770.7045,-16.8126"/>
<text text-anchor="middle" x="2612.6938" y="-144.8" font-family="Times,serif" font-size="14.00" fill="#000000">of_cell_line</text>
</g>
<!-- participant -->
<g id="node14" class="node">
<title>participant</title>
<ellipse fill="none" stroke="#000000" cx="1346.1938" cy="-105" rx="62.2891" ry="18"/>
<text text-anchor="middle" x="1346.1938" y="-101.3" font-family="Times,serif" font-size="14.00" fill="#000000">participant</text>
</g>
<!-- cell_line&#45;&gt;participant -->
<g id="edge27" class="edge">
<title>cell_line&#45;&gt;participant</title>
<path fill="none" stroke="#000000" d="M2340.7738,-267.5142C2332.3837,-265.1968 2323.5224,-262.8939 2315.1938,-261 2269.879,-250.6958 2257.7399,-252.2281 2212.1938,-243 2148.2668,-230.0477 2130.2246,-233.0142 2069.1938,-210 2008.7223,-187.1967 2003.3508,-158.7 1941.1938,-141 1892.1695,-127.0398 1566.1819,-113.2445 1418.5788,-107.629"/>
<polygon fill="#000000" stroke="#000000" points="1418.3911,-104.1195 1408.2659,-107.2389 1418.1264,-111.1145 1418.3911,-104.1195"/>
<text text-anchor="middle" x="2109.6938" y="-188.3" font-family="Times,serif" font-size="14.00" fill="#000000">of_cell_line</text>
</g>
<!-- sample&#45;&gt;cell_line -->
<g id="edge25" class="edge">
<title>sample&#45;&gt;cell_line</title>
<path fill="none" stroke="#000000" d="M2241.6594,-201.1121C2263.3942,-207.1023 2290.6424,-216.0556 2313.1938,-228 2327.301,-235.4719 2341.4975,-245.9662 2353.0903,-255.4942"/>
<polygon fill="#000000" stroke="#000000" points="2351.1353,-258.4244 2361.033,-262.2042 2355.6527,-253.0771 2351.1353,-258.4244"/>
<text text-anchor="middle" x="2372.6938" y="-231.8" font-family="Times,serif" font-size="14.00" fill="#000000">of_sample</text>
</g>
<!-- sample&#45;&gt;participant -->
<g id="edge24" class="edge">
<title>sample&#45;&gt;participant</title>
<path fill="none" stroke="#000000" d="M2167.2257,-181.4622C2118.4267,-167.2361 2035.6425,-143.3799 2021.1938,-141 1907.0104,-122.1925 1568.1497,-110.9973 1418.5547,-106.8477"/>
<polygon fill="#000000" stroke="#000000" points="1418.6401,-103.3488 1408.5477,-106.5728 1418.4478,-110.3462 1418.6401,-103.3488"/>
<text text-anchor="middle" x="2111.6938" y="-144.8" font-family="Times,serif" font-size="14.00" fill="#000000">of_sample</text>
</g>
<!-- pdx -->
<g id="node15" class="node">
<title>pdx</title>
<ellipse fill="none" stroke="#000000" cx="2164.1938" cy="-105" rx="27.8951" ry="18"/>
<text text-anchor="middle" x="2164.1938" y="-101.3" font-family="Times,serif" font-size="14.00" fill="#000000">pdx</text>
</g>
<!-- sample&#45;&gt;pdx -->
<g id="edge26" class="edge">
<title>sample&#45;&gt;pdx</title>
<path fill="none" stroke="#000000" d="M2178.5551,-176.8498C2171.6307,-171.2339 2164.966,-164.2016 2161.1938,-156 2157.9323,-148.9089 2157.2676,-140.6666 2157.7998,-132.9024"/>
<polygon fill="#000000" stroke="#000000" points="2161.2992,-133.1359 2159.1358,-122.7643 2154.3592,-132.2212 2161.2992,-133.1359"/>
<text text-anchor="middle" x="2197.6938" y="-144.8" font-family="Times,serif" font-size="14.00" fill="#000000">of_sample</text>
</g>
<!-- exposure -->
<g id="node4" class="node">
<title>exposure</title>
<ellipse fill="none" stroke="#000000" cx="989.1938" cy="-192" rx="53.0913" ry="18"/>
<text text-anchor="middle" x="989.1938" y="-188.3" font-family="Times,serif" font-size="14.00" fill="#000000">exposure</text>
</g>
<!-- exposure&#45;&gt;participant -->
<g id="edge42" class="edge">
<title>exposure&#45;&gt;participant</title>
<path fill="none" stroke="#000000" d="M1010.0603,-175.1516C1025.8528,-163.4055 1048.6126,-148.5385 1071.1938,-141 1157.5288,-112.178 1185.4586,-138.2327 1275.1938,-123 1280.522,-122.0955 1286.0379,-120.9953 1291.5324,-119.7892"/>
<polygon fill="#000000" stroke="#000000" points="1292.3968,-123.1817 1301.3541,-117.5233 1290.8232,-116.3609 1292.3968,-123.1817"/>
<text text-anchor="middle" x="1114.6938" y="-144.8" font-family="Times,serif" font-size="14.00" fill="#000000">of_exposure</text>
</g>
<!-- sequencing_file -->
<g id="node5" class="node">
<title>sequencing_file</title>
<ellipse fill="none" stroke="#000000" cx="2223.1938" cy="-366" rx="83.3857" ry="18"/>
<text text-anchor="middle" x="2223.1938" y="-362.3" font-family="Times,serif" font-size="14.00" fill="#000000">sequencing_file</text>
</g>
<!-- sequencing_file&#45;&gt;cell_line -->
<g id="edge3" class="edge">
<title>sequencing_file&#45;&gt;cell_line</title>
<path fill="none" stroke="#000000" d="M2218.3786,-347.9954C2216.6447,-337.231 2216.6756,-323.9514 2224.1938,-315 2250.9898,-283.0958 2275.6821,-306.7318 2316.1938,-297 2321.114,-295.8181 2326.2265,-294.5034 2331.316,-293.1378"/>
<polygon fill="#000000" stroke="#000000" points="2332.3039,-296.4961 2341.0183,-290.4704 2330.4482,-289.7465 2332.3039,-296.4961"/>
<text text-anchor="middle" x="2290.6938" y="-318.8" font-family="Times,serif" font-size="14.00" fill="#000000">of_sequencing_file</text>
</g>
<!-- sequencing_file&#45;&gt;sample -->
<g id="edge1" class="edge">
<title>sequencing_file&#45;&gt;sample</title>
<path fill="none" stroke="#000000" d="M2150.9763,-356.9975C2076.3403,-347.5232 1970.2394,-333.5038 1967.1938,-330 1962.8203,-324.9684 1962.7204,-319.943 1967.1938,-315 1994.1679,-285.194 2113.796,-319.3739 2147.1938,-297 2173.7766,-279.1915 2188.6914,-244.5005 2196.3266,-219.872"/>
<polygon fill="#000000" stroke="#000000" points="2199.7621,-220.5896 2199.1659,-210.0116 2193.0354,-218.6526 2199.7621,-220.5896"/>
<text text-anchor="middle" x="2244.6938" y="-275.3" font-family="Times,serif" font-size="14.00" fill="#000000">of_sequencing_file</text>
</g>
<!-- sequencing_file&#45;&gt;pdx -->
<g id="edge2" class="edge">
<title>sequencing_file&#45;&gt;pdx</title>
<path fill="none" stroke="#000000" d="M2305.0853,-362.7957C2439.797,-357.1228 2694.7018,-344.5306 2708.1938,-330 2712.73,-325.1146 2712.4204,-320.1556 2708.1938,-315 2682.332,-283.4537 2656.8912,-309.9038 2618.1938,-297 2465.8185,-246.1899 2444.6227,-191.649 2292.1938,-141 2253.069,-127.9996 2240.2763,-136.1266 2201.1938,-123 2199.2638,-122.3518 2197.3051,-121.6248 2195.3477,-120.8447"/>
<polygon fill="#000000" stroke="#000000" points="2196.2777,-117.4307 2185.714,-116.619 2193.4658,-123.8412 2196.2777,-117.4307"/>
<text text-anchor="middle" x="2559.6938" y="-231.8" font-family="Times,serif" font-size="14.00" fill="#000000">of_sequencing_file</text>
</g>
<!-- synonym -->
<g id="node6" class="node">
<title>synonym</title>
<ellipse fill="none" stroke="#000000" cx="480.1938" cy="-279" rx="51.9908" ry="18"/>
<text text-anchor="middle" x="480.1938" y="-275.3" font-family="Times,serif" font-size="14.00" fill="#000000">synonym</text>
</g>
<!-- synonym&#45;&gt;sample -->
<g id="edge40" class="edge">
<title>synonym&#45;&gt;sample</title>
<path fill="none" stroke="#000000" d="M532.2812,-278.0613C742.7101,-274.1688 1521.2076,-258.7612 1571.1938,-243 1582.8329,-239.3301 1582.5585,-231.6821 1594.1938,-228 1702.9482,-193.5837 1993.8157,-222.5463 2107.1938,-210 2122.5311,-208.3028 2139.0949,-205.5377 2154.0753,-202.6785"/>
<polygon fill="#000000" stroke="#000000" points="2155.0219,-206.0595 2164.1588,-200.6959 2153.6714,-199.191 2155.0219,-206.0595"/>
<text text-anchor="middle" x="1636.6938" y="-231.8" font-family="Times,serif" font-size="14.00" fill="#000000">of_synonym</text>
</g>
<!-- synonym&#45;&gt;study -->
<g id="edge39" class="edge">
<title>synonym&#45;&gt;study</title>
<path fill="none" stroke="#000000" d="M430.7065,-273.1841C361.9622,-263.9711 243.0726,-243.5441 217.1938,-210 198.0241,-185.1522 209.9957,-163.1841 232.1938,-141 360.8814,-12.3938 450.7701,-67.6193 632.1938,-54 840.1404,-38.3896 1496.4075,-23.0382 1677.5066,-19.016"/>
<polygon fill="#000000" stroke="#000000" points="1677.8362,-22.5096 1687.7563,-18.7892 1677.6813,-15.5114 1677.8362,-22.5096"/>
<text text-anchor="middle" x="274.6938" y="-144.8" font-family="Times,serif" font-size="14.00" fill="#000000">of_synonym</text>
</g>
<!-- synonym&#45;&gt;participant -->
<g id="edge41" class="edge">
<title>synonym&#45;&gt;participant</title>
<path fill="none" stroke="#000000" d="M475.6596,-260.7207C471.0646,-237.3643 467.3847,-197.1913 489.1938,-174 493.4836,-169.4383 705.9569,-141.5593 712.1938,-141 961.5432,-118.639 1027.2975,-157.9657 1275.1938,-123 1280.6239,-122.2341 1286.2394,-121.2154 1291.8237,-120.0509"/>
<polygon fill="#000000" stroke="#000000" points="1292.8002,-123.419 1301.7949,-117.8203 1291.272,-116.5878 1292.8002,-123.419"/>
<text text-anchor="middle" x="531.6938" y="-188.3" font-family="Times,serif" font-size="14.00" fill="#000000">of_synonym</text>
</g>
<!-- diagnosis -->
<g id="node7" class="node">
<title>diagnosis</title>
<ellipse fill="none" stroke="#000000" cx="1115.1938" cy="-192" rx="54.6905" ry="18"/>
<text text-anchor="middle" x="1115.1938" y="-188.3" font-family="Times,serif" font-size="14.00" fill="#000000">diagnosis</text>
</g>
<!-- diagnosis&#45;&gt;participant -->
<g id="edge30" class="edge">
<title>diagnosis&#45;&gt;participant</title>
<path fill="none" stroke="#000000" d="M1134.3228,-175.0856C1148.1101,-163.7762 1167.658,-149.4683 1187.1938,-141 1223.8215,-125.1227 1236.2793,-131.9076 1275.1938,-123 1279.9042,-121.9218 1284.7805,-120.767 1289.6698,-119.5823"/>
<polygon fill="#000000" stroke="#000000" points="1290.7994,-122.9089 1299.6749,-117.1231 1289.1285,-116.1112 1290.7994,-122.9089"/>
<text text-anchor="middle" x="1231.6938" y="-144.8" font-family="Times,serif" font-size="14.00" fill="#000000">of_diagnosis</text>
</g>
<!-- family_relationship -->
<g id="node8" class="node">
<title>family_relationship</title>
<ellipse fill="none" stroke="#000000" cx="1288.1938" cy="-192" rx="100.1823" ry="18"/>
<text text-anchor="middle" x="1288.1938" y="-188.3" font-family="Times,serif" font-size="14.00" fill="#000000">family_relationship</text>
</g>
<!-- family_relationship&#45;&gt;participant -->
<g id="edge38" class="edge">
<title>family_relationship&#45;&gt;participant</title>
<path fill="none" stroke="#000000" d="M1281.9398,-173.8891C1279.5219,-163.6021 1278.5219,-150.8521 1284.1938,-141 1287.8655,-134.6222 1293.1484,-129.2701 1299.1023,-124.8102"/>
<polygon fill="#000000" stroke="#000000" points="1301.1075,-127.6807 1307.549,-119.2688 1297.2678,-121.8278 1301.1075,-127.6807"/>
<text text-anchor="middle" x="1363.6938" y="-144.8" font-family="Times,serif" font-size="14.00" fill="#000000">of_family_relationship</text>
</g>
<!-- follow_up -->
<g id="node10" class="node">
<title>follow_up</title>
<ellipse fill="none" stroke="#000000" cx="1461.1938" cy="-192" rx="55.4913" ry="18"/>
<text text-anchor="middle" x="1461.1938" y="-188.3" font-family="Times,serif" font-size="14.00" fill="#000000">follow_up</text>
</g>
<!-- follow_up&#45;&gt;participant -->
<g id="edge7" class="edge">
<title>follow_up&#45;&gt;participant</title>
<path fill="none" stroke="#000000" d="M1458.7343,-173.9129C1456.4009,-163.1174 1451.8869,-149.8341 1443.1938,-141 1433.4104,-131.058 1420.6373,-123.835 1407.5885,-118.5964"/>
<polygon fill="#000000" stroke="#000000" points="1408.6708,-115.2656 1398.0769,-115.1221 1406.269,-121.8407 1408.6708,-115.2656"/>
<text text-anchor="middle" x="1498.1938" y="-144.8" font-family="Times,serif" font-size="14.00" fill="#000000">of_follow_up</text>
</g>
<!-- publication -->
<g id="node11" class="node">
<title>publication</title>
<ellipse fill="none" stroke="#000000" cx="1203.1938" cy="-105" rx="63.0888" ry="18"/>
<text text-anchor="middle" x="1203.1938" y="-101.3" font-family="Times,serif" font-size="14.00" fill="#000000">publication</text>
</g>
<!-- publication&#45;&gt;study -->
<g id="edge8" class="edge">
<title>publication&#45;&gt;study</title>
<path fill="none" stroke="#000000" d="M1247.398,-92.154C1288.4732,-80.6471 1351.5128,-64.0764 1407.1938,-54 1502.5105,-36.7508 1615.5346,-26.2684 1677.591,-21.3573"/>
<polygon fill="#000000" stroke="#000000" points="1678.1376,-24.8255 1687.8361,-20.5607 1677.5948,-17.8465 1678.1376,-24.8255"/>
<text text-anchor="middle" x="1458.1938" y="-57.8" font-family="Times,serif" font-size="14.00" fill="#000000">of_publication</text>
</g>
<!-- molecular_test -->
<g id="node12" class="node">
<title>molecular_test</title>
<ellipse fill="none" stroke="#000000" cx="1614.1938" cy="-192" rx="79.8859" ry="18"/>
<text text-anchor="middle" x="1614.1938" y="-188.3" font-family="Times,serif" font-size="14.00" fill="#000000">molecular_test</text>
</g>
<!-- molecular_test&#45;&gt;participant -->
<g id="edge9" class="edge">
<title>molecular_test&#45;&gt;participant</title>
<path fill="none" stroke="#000000" d="M1596.1072,-174.4067C1583.4287,-163.0947 1565.5297,-149.0551 1547.1938,-141 1523.7098,-130.6833 1462.5513,-120.5272 1413.8139,-113.6464"/>
<polygon fill="#000000" stroke="#000000" points="1414.0072,-110.1397 1403.6204,-112.229 1413.043,-117.073 1414.0072,-110.1397"/>
<text text-anchor="middle" x="1637.1938" y="-144.8" font-family="Times,serif" font-size="14.00" fill="#000000">of_molecular_test</text>
</g>
<!-- therapeutic_procedure -->
<g id="node13" class="node">
<title>therapeutic_procedure</title>
<ellipse fill="none" stroke="#000000" cx="1830.1938" cy="-192" rx="117.7793" ry="18"/>
<text text-anchor="middle" x="1830.1938" y="-188.3" font-family="Times,serif" font-size="14.00" fill="#000000">therapeutic_procedure</text>
</g>
<!-- therapeutic_procedure&#45;&gt;participant -->
<g id="edge33" class="edge">
<title>therapeutic_procedure&#45;&gt;participant</title>
<path fill="none" stroke="#000000" d="M1795.5426,-174.7044C1770.9452,-163.2201 1736.8104,-148.86 1705.1938,-141 1652.3679,-127.8673 1505.799,-115.9733 1417.1225,-109.6892"/>
<polygon fill="#000000" stroke="#000000" points="1417.3571,-106.1972 1407.1365,-108.9879 1416.8667,-113.18 1417.3571,-106.1972"/>
<text text-anchor="middle" x="1844.1938" y="-144.8" font-family="Times,serif" font-size="14.00" fill="#000000">of_therapeutic_procedure</text>
</g>
<!-- participant&#45;&gt;study -->
<g id="edge19" class="edge">
<title>participant&#45;&gt;study</title>
<path fill="none" stroke="#000000" d="M1395.2232,-93.7155C1469.7636,-76.5593 1610.3883,-44.1933 1681.1794,-27.9001"/>
<polygon fill="#000000" stroke="#000000" points="1682.1409,-31.2704 1691.1011,-25.6166 1680.5708,-24.4488 1682.1409,-31.2704"/>
<text text-anchor="middle" x="1608.6938" y="-57.8" font-family="Times,serif" font-size="14.00" fill="#000000">of_participant</text>
</g>
<!-- pdx&#45;&gt;sample -->
<g id="edge5" class="edge">
<title>pdx&#45;&gt;sample</title>
<path fill="none" stroke="#000000" d="M2186.7983,-115.9968C2208.5603,-126.5837 2238.1938,-141 2238.1938,-141 2244.0082,-150.2946 2239.6185,-160.2871 2232.2387,-168.9425"/>
<polygon fill="#000000" stroke="#000000" points="2229.6693,-166.5637 2225.1651,-176.1534 2234.6665,-171.4656 2229.6693,-166.5637"/>
<text text-anchor="middle" x="2264.1938" y="-144.8" font-family="Times,serif" font-size="14.00" fill="#000000">of_pdx</text>
</g>
<!-- pdx&#45;&gt;study -->
<g id="edge4" class="edge">
<title>pdx&#45;&gt;study</title>
<path fill="none" stroke="#000000" d="M2137.3321,-99.6887C2063.7618,-85.1419 1858.4792,-44.5519 1767.9879,-26.6593"/>
<polygon fill="#000000" stroke="#000000" points="1768.5401,-23.2008 1758.051,-24.6945 1767.1822,-30.0678 1768.5401,-23.2008"/>
<text text-anchor="middle" x="1995.1938" y="-57.8" font-family="Times,serif" font-size="14.00" fill="#000000">of_pdx</text>
</g>
<!-- study_arm -->
<g id="node16" class="node">
<title>study_arm</title>
<ellipse fill="none" stroke="#000000" cx="2270.1938" cy="-105" rx="59.5901" ry="18"/>
<text text-anchor="middle" x="2270.1938" y="-101.3" font-family="Times,serif" font-size="14.00" fill="#000000">study_arm</text>
</g>
<!-- study_arm&#45;&gt;study -->
<g id="edge31" class="edge">
<title>study_arm&#45;&gt;study</title>
<path fill="none" stroke="#000000" d="M2225.767,-92.9091C2217.6183,-90.8343 2209.169,-88.7771 2201.1938,-87 2122.6607,-69.5005 2102.7305,-66.1484 2023.1938,-54 1933.9671,-40.3716 1829.1098,-28.7528 1770.2792,-22.6308"/>
<polygon fill="#000000" stroke="#000000" points="1770.5004,-19.1351 1760.1935,-21.5883 1769.7806,-26.098 1770.5004,-19.1351"/>
<text text-anchor="middle" x="2161.6938" y="-57.8" font-family="Times,serif" font-size="14.00" fill="#000000">of_study_arm</text>
</g>
<!-- clinical_measure_file -->
<g id="node17" class="node">
<title>clinical_measure_file</title>
<ellipse fill="none" stroke="#000000" cx="335.1938" cy="-192" rx="108.5808" ry="18"/>
<text text-anchor="middle" x="335.1938" y="-188.3" font-family="Times,serif" font-size="14.00" fill="#000000">clinical_measure_file</text>
</g>
<!-- clinical_measure_file&#45;&gt;study -->
<g id="edge34" class="edge">
<title>clinical_measure_file&#45;&gt;study</title>
<path fill="none" stroke="#000000" d="M325.2626,-173.8551C320.8213,-163.0379 318.178,-149.752 326.1938,-141 419.4852,-39.1401 1444.4303,-21.2243 1677.3113,-18.4607"/>
<polygon fill="#000000" stroke="#000000" points="1677.5224,-21.9586 1687.4814,-18.3438 1677.4418,-14.9591 1677.5224,-21.9586"/>
<text text-anchor="middle" x="567.1938" y="-101.3" font-family="Times,serif" font-size="14.00" fill="#000000">of_clinical_measure_file</text>
</g>
<!-- clinical_measure_file&#45;&gt;participant -->
<g id="edge18" class="edge">
<title>clinical_measure_file&#45;&gt;participant</title>
<path fill="none" stroke="#000000" d="M329.9402,-174.0076C327.9202,-162.9694 327.8008,-149.3893 336.1938,-141 354.6449,-122.557 1249.3386,-126.4783 1275.1938,-123 1280.7075,-122.2582 1286.4103,-121.2443 1292.0765,-120.0728"/>
<polygon fill="#000000" stroke="#000000" points="1293.1885,-123.4109 1302.1874,-117.819 1291.6655,-116.5786 1293.1885,-123.4109"/>
<text text-anchor="middle" x="465.6938" y="-144.8" font-family="Times,serif" font-size="14.00" fill="#000000">of_clinical_measure_file_participant</text>
</g>
<!-- radiology_file -->
<g id="node18" class="node">
<title>radiology_file</title>
<ellipse fill="none" stroke="#000000" cx="656.1938" cy="-192" rx="73.387" ry="18"/>
<text text-anchor="middle" x="656.1938" y="-188.3" font-family="Times,serif" font-size="14.00" fill="#000000">radiology_file</text>
</g>
<!-- radiology_file&#45;&gt;participant -->
<g id="edge32" class="edge">
<title>radiology_file&#45;&gt;participant</title>
<path fill="none" stroke="#000000" d="M680.9486,-174.7866C699.5994,-162.8591 726.3049,-147.925 752.1938,-141 864.5352,-110.9501 1160.0625,-139.3827 1275.1938,-123 1280.623,-122.2274 1286.2379,-121.2044 1291.8218,-120.0371"/>
<polygon fill="#000000" stroke="#000000" points="1292.7996,-123.4049 1301.7925,-117.8033 1291.2692,-116.5742 1292.7996,-123.4049"/>
<text text-anchor="middle" x="811.1938" y="-144.8" font-family="Times,serif" font-size="14.00" fill="#000000">of_radiology_file</text>
</g>
<!-- study_funding -->
<g id="node19" class="node">
<title>study_funding</title>
<ellipse fill="none" stroke="#000000" cx="2777.1938" cy="-105" rx="77.1866" ry="18"/>
<text text-anchor="middle" x="2777.1938" y="-101.3" font-family="Times,serif" font-size="14.00" fill="#000000">study_funding</text>
</g>
<!-- study_funding&#45;&gt;study -->
<g id="edge17" class="edge">
<title>study_funding&#45;&gt;study</title>
<path fill="none" stroke="#000000" d="M2753.8569,-87.8083C2736.2416,-75.8916 2710.9506,-60.9614 2686.1938,-54 2597.7559,-29.132 1951.6081,-20.4251 1770.9849,-18.4628"/>
<polygon fill="#000000" stroke="#000000" points="1770.7898,-14.9606 1760.753,-18.3535 1770.715,-21.9602 1770.7898,-14.9606"/>
<text text-anchor="middle" x="2782.1938" y="-57.8" font-family="Times,serif" font-size="14.00" fill="#000000">of_study_funding</text>
</g>
<!-- cytogenomic_file -->
<g id="node20" class="node">
<title>cytogenomic_file</title>
<ellipse fill="none" stroke="#000000" cx="1687.1938" cy="-366" rx="89.8845" ry="18"/>
<text text-anchor="middle" x="1687.1938" y="-362.3" font-family="Times,serif" font-size="14.00" fill="#000000">cytogenomic_file</text>
</g>
<!-- cytogenomic_file&#45;&gt;cell_line -->
<g id="edge12" class="edge">
<title>cytogenomic_file&#45;&gt;cell_line</title>
<path fill="none" stroke="#000000" d="M1722.3351,-349.3529C1749.4834,-337.379 1788.3506,-322.1341 1824.1938,-315 2038.7972,-272.2861 2100.0869,-331.3065 2316.1938,-297 2321.6004,-296.1417 2327.2006,-294.97 2332.7306,-293.6331"/>
<polygon fill="#000000" stroke="#000000" points="2333.754,-296.9834 2342.5518,-291.0801 2331.9929,-290.2086 2333.754,-296.9834"/>
<text text-anchor="middle" x="1895.6938" y="-318.8" font-family="Times,serif" font-size="14.00" fill="#000000">of_cytogenomic_file</text>
</g>
<!-- cytogenomic_file&#45;&gt;sample -->
<g id="edge11" class="edge">
<title>cytogenomic_file&#45;&gt;sample</title>
<path fill="none" stroke="#000000" d="M1695.4487,-347.92C1707.5985,-323.608 1732.7526,-281.1131 1768.1938,-261 1826.9742,-227.6418 1854.3273,-261.9799 1919.1938,-243 1933.8838,-238.7017 1935.4479,-232.1025 1950.1938,-228 2034.0442,-204.6714 2059.8333,-226.9911 2145.1938,-210 2149.9213,-209.059 2154.81,-207.88 2159.6517,-206.578"/>
<polygon fill="#000000" stroke="#000000" points="2160.8073,-209.8879 2169.457,-203.7697 2158.8799,-203.1584 2160.8073,-209.8879"/>
<text text-anchor="middle" x="1839.6938" y="-275.3" font-family="Times,serif" font-size="14.00" fill="#000000">of_cytogenomic_file</text>
</g>
<!-- cytogenomic_file&#45;&gt;pdx -->
<g id="edge13" class="edge">
<title>cytogenomic_file&#45;&gt;pdx</title>
<path fill="none" stroke="#000000" d="M1616.8098,-354.8356C1518.5317,-336.5285 1359.1434,-295.2843 1424.1938,-228 1465.3809,-185.3985 1903.6935,-235.4754 1957.1938,-210 1993.8857,-192.5283 1982.4971,-162.1589 2017.1938,-141 2050.6502,-120.5975 2095.0163,-111.7488 2126.2255,-107.9164"/>
<polygon fill="#000000" stroke="#000000" points="2126.7183,-111.3833 2136.2703,-106.7997 2125.9447,-104.4262 2126.7183,-111.3833"/>
<text text-anchor="middle" x="1495.6938" y="-231.8" font-family="Times,serif" font-size="14.00" fill="#000000">of_cytogenomic_file</text>
</g>
<!-- medical_history -->
<g id="node21" class="node">
<title>medical_history</title>
<ellipse fill="none" stroke="#000000" cx="833.1938" cy="-192" rx="85.2851" ry="18"/>
<text text-anchor="middle" x="833.1938" y="-188.3" font-family="Times,serif" font-size="14.00" fill="#000000">medical_history</text>
</g>
<!-- medical_history&#45;&gt;participant -->
<g id="edge23" class="edge">
<title>medical_history&#45;&gt;participant</title>
<path fill="none" stroke="#000000" d="M850.422,-174.1367C862.9893,-162.392 881.1012,-147.9541 900.1938,-141 978.5851,-112.4475 1192.6781,-135.3129 1275.1938,-123 1280.6176,-122.1907 1286.229,-121.1432 1291.8106,-119.9608"/>
<polygon fill="#000000" stroke="#000000" points="1292.7958,-123.3265 1301.7788,-117.7091 1291.2534,-116.4986 1292.7958,-123.3265"/>
<text text-anchor="middle" x="968.1938" y="-144.8" font-family="Times,serif" font-size="14.00" fill="#000000">of_medical_history</text>
</g>
<!-- study_personnel -->
<g id="node22" class="node">
<title>study_personnel</title>
<ellipse fill="none" stroke="#000000" cx="2959.1938" cy="-105" rx="87.1846" ry="18"/>
<text text-anchor="middle" x="2959.1938" y="-101.3" font-family="Times,serif" font-size="14.00" fill="#000000">study_personnel</text>
</g>
<!-- study_personnel&#45;&gt;study -->
<g id="edge10" class="edge">
<title>study_personnel&#45;&gt;study</title>
<path fill="none" stroke="#000000" d="M2930.2012,-87.7749C2908.4524,-75.8415 2877.5062,-60.9052 2848.1938,-54 2742.3601,-29.0684 1969.6205,-20.2672 1770.7587,-18.4021"/>
<polygon fill="#000000" stroke="#000000" points="1770.6744,-14.9013 1760.6425,-18.3086 1770.6097,-21.901 1770.6744,-14.9013"/>
<text text-anchor="middle" x="2958.6938" y="-57.8" font-family="Times,serif" font-size="14.00" fill="#000000">of_study_personnel</text>
</g>
<!-- single_cell_sequencing_file -->
<g id="node23" class="node">
<title>single_cell_sequencing_file</title>
<ellipse fill="none" stroke="#000000" cx="1932.1938" cy="-366" rx="137.5759" ry="18"/>
<text text-anchor="middle" x="1932.1938" y="-362.3" font-family="Times,serif" font-size="14.00" fill="#000000">single_cell_sequencing_file</text>
</g>
<!-- single_cell_sequencing_file&#45;&gt;cell_line -->
<g id="edge16" class="edge">
<title>single_cell_sequencing_file&#45;&gt;cell_line</title>
<path fill="none" stroke="#000000" d="M1948.7756,-347.9373C1960.709,-336.2635 1977.8756,-321.9895 1996.1938,-315 2062.7378,-289.6093 2245.964,-308.8563 2316.1938,-297 2321.5216,-296.1005 2327.0412,-294.9152 2332.4981,-293.581"/>
<polygon fill="#000000" stroke="#000000" points="2333.4063,-296.9612 2342.1976,-291.0482 2331.6377,-290.1883 2333.4063,-296.9612"/>
<text text-anchor="middle" x="2104.6938" y="-318.8" font-family="Times,serif" font-size="14.00" fill="#000000">of_single_cell_sequencing_file</text>
</g>
<!-- single_cell_sequencing_file&#45;&gt;sample -->
<g id="edge14" class="edge">
<title>single_cell_sequencing_file&#45;&gt;sample</title>
<path fill="none" stroke="#000000" d="M1924.517,-347.8467C1916.1983,-324.9936 1906.5534,-285.7397 1926.1938,-261 1957.2628,-221.8643 2096.9673,-223.0805 2145.1938,-210 2149.547,-208.8193 2154.065,-207.5305 2158.5712,-206.2027"/>
<polygon fill="#000000" stroke="#000000" points="2159.7812,-209.4937 2168.3485,-203.2606 2157.7641,-202.7906 2159.7812,-209.4937"/>
<text text-anchor="middle" x="2034.6938" y="-275.3" font-family="Times,serif" font-size="14.00" fill="#000000">of_single_cell_sequencing_file</text>
</g>
<!-- single_cell_sequencing_file&#45;&gt;pdx -->
<g id="edge15" class="edge">
<title>single_cell_sequencing_file&#45;&gt;pdx</title>
<path fill="none" stroke="#000000" d="M1840.9928,-352.463C1817.3233,-347.151 1792.2869,-339.8791 1770.1938,-330 1747.2243,-319.7291 1735.6841,-319.3843 1724.1938,-297 1710.0706,-269.4867 1709.0627,-247.3426 1733.1938,-228 1766.522,-201.2854 2081.9018,-234.0608 2117.1938,-210 2130.715,-200.7817 2146.1848,-160.339 2155.5678,-132.425"/>
<polygon fill="#000000" stroke="#000000" points="2158.9375,-133.3818 2158.7344,-122.7889 2152.2873,-131.1964 2158.9375,-133.3818"/>
<text text-anchor="middle" x="1841.6938" y="-231.8" font-family="Times,serif" font-size="14.00" fill="#000000">of_single_cell_sequencing_file</text>
</g>
<!-- methylation_array_file -->
<g id="node24" class="node">
<title>methylation_array_file</title>
<ellipse fill="none" stroke="#000000" cx="2887.1938" cy="-366" rx="115.8798" ry="18"/>
<text text-anchor="middle" x="2887.1938" y="-362.3" font-family="Times,serif" font-size="14.00" fill="#000000">methylation_array_file</text>
</g>
<!-- methylation_array_file&#45;&gt;cell_line -->
<g id="edge22" class="edge">
<title>methylation_array_file&#45;&gt;cell_line</title>
<path fill="none" stroke="#000000" d="M2802.8348,-353.6642C2789.2507,-351.732 2775.3379,-349.7852 2762.1938,-348 2699.5933,-339.4975 2683.4866,-340.5224 2621.1938,-330 2555.1861,-318.8501 2479.8187,-302.3649 2430.975,-291.1786"/>
<polygon fill="#000000" stroke="#000000" points="2431.498,-287.7076 2420.9678,-288.8759 2429.9282,-294.5293 2431.498,-287.7076"/>
<text text-anchor="middle" x="2712.6938" y="-318.8" font-family="Times,serif" font-size="14.00" fill="#000000">of_methylation_array_file</text>
</g>
<!-- methylation_array_file&#45;&gt;sample -->
<g id="edge20" class="edge">
<title>methylation_array_file&#45;&gt;sample</title>
<path fill="none" stroke="#000000" d="M2870.8569,-347.8521C2848.6006,-324.2586 2806.4317,-283.4269 2762.1938,-261 2674.5861,-216.5863 2380.2316,-199.3875 2257.5685,-194.0412"/>
<polygon fill="#000000" stroke="#000000" points="2257.4299,-190.5322 2247.2901,-193.6036 2257.1321,-197.5259 2257.4299,-190.5322"/>
<text text-anchor="middle" x="2906.6938" y="-275.3" font-family="Times,serif" font-size="14.00" fill="#000000">of_methylation_array_file</text>
</g>
<!-- methylation_array_file&#45;&gt;pdx -->
<g id="edge21" class="edge">
<title>methylation_array_file&#45;&gt;pdx</title>
<path fill="none" stroke="#000000" d="M2931.11,-349.2544C2972.4681,-330.7652 3024.9339,-298.5893 3002.1938,-261 2942.7173,-162.6856 2884.323,-170.2141 2773.1938,-141 2650.1987,-108.6666 2324.6584,-153.4912 2201.1938,-123 2198.9962,-122.4573 2196.7758,-121.7731 2194.5719,-120.9909"/>
<polygon fill="#000000" stroke="#000000" points="2195.7141,-117.6754 2185.1367,-117.0676 2193.0264,-124.1389 2195.7141,-117.6754"/>
<text text-anchor="middle" x="3080.6938" y="-231.8" font-family="Times,serif" font-size="14.00" fill="#000000">of_methylation_array_file</text>
</g>
<!-- pathology_file -->
<g id="node25" class="node">
<title>pathology_file</title>
<ellipse fill="none" stroke="#000000" cx="2677.1938" cy="-366" rx="76.0865" ry="18"/>
<text text-anchor="middle" x="2677.1938" y="-362.3" font-family="Times,serif" font-size="14.00" fill="#000000">pathology_file</text>
</g>
<!-- pathology_file&#45;&gt;cell_line -->
<g id="edge35" class="edge">
<title>pathology_file&#45;&gt;cell_line</title>
<path fill="none" stroke="#000000" d="M2602.7013,-361.9937C2519.6291,-356.7549 2394.9077,-346.2808 2380.1938,-330 2374.6827,-323.902 2373.0362,-315.5221 2373.1765,-307.3165"/>
<polygon fill="#000000" stroke="#000000" points="2376.6759,-307.4909 2374.1535,-297.2007 2369.7083,-306.8179 2376.6759,-307.4909"/>
<text text-anchor="middle" x="2441.1938" y="-318.8" font-family="Times,serif" font-size="14.00" fill="#000000">of_pathology_file</text>
</g>
<!-- pathology_file&#45;&gt;sample -->
<g id="edge37" class="edge">
<title>pathology_file&#45;&gt;sample</title>
<path fill="none" stroke="#000000" d="M2713.6555,-349.983C2730.1725,-340.4929 2743.8712,-327.841 2733.1938,-315 2705.1599,-281.2854 2670.1667,-324.7202 2636.1938,-297 2610.5513,-276.077 2634.7991,-247.6842 2608.1938,-228 2580.6253,-207.6032 2361.5445,-197.4286 2257.5855,-193.7101"/>
<polygon fill="#000000" stroke="#000000" points="2257.4108,-190.2019 2247.2944,-193.3496 2257.1657,-197.1976 2257.4108,-190.2019"/>
<text text-anchor="middle" x="2697.1938" y="-275.3" font-family="Times,serif" font-size="14.00" fill="#000000">of_pathology_file</text>
</g>
<!-- pathology_file&#45;&gt;pdx -->
<g id="edge36" class="edge">
<title>pathology_file&#45;&gt;pdx</title>
<path fill="none" stroke="#000000" d="M2720.1748,-351.1303C2730.5251,-345.8286 2740.7338,-338.8949 2748.1938,-330 2780.4362,-291.5555 2764.1601,-148.1358 2757.1938,-141 2735.6047,-118.8858 2231.1941,-130.4234 2201.1938,-123 2198.9965,-122.4563 2196.7762,-121.7714 2194.5724,-120.9886"/>
<polygon fill="#000000" stroke="#000000" points="2195.7149,-117.6731 2185.1376,-117.0641 2193.0264,-124.1363 2195.7149,-117.6731"/>
<text text-anchor="middle" x="2828.1938" y="-231.8" font-family="Times,serif" font-size="14.00" fill="#000000">of_pathology_file</text>
</g>
</g>
</svg>
