<svg width="3785pt" height="305pt"
 viewBox="0.00 0.00 3784.75 305.00" xmlns="http://www.w3.org/2000/svg" xmlns:xlink="http://www.w3.org/1999/xlink">
<g id="graph0" class="graph" transform="scale(1 1) rotate(0) translate(4 301)">
<title>Perl</title>
<polygon fill="#ffffff" stroke="transparent" points="-4,4 -4,-301 3780.7503,-301 3780.7503,4 -4,4"/>
<!-- study_funding -->
<g id="node1" class="node">
<title>study_funding</title>
<ellipse fill="none" stroke="#000000" cx="1000.6592" cy="-105" rx="77.1866" ry="18"/>
<text text-anchor="middle" x="1000.6592" y="-101.3" font-family="Times,serif" font-size="14.00" fill="#000000">study_funding</text>
</g>
<!-- study -->
<g id="node21" class="node">
<title>study</title>
<ellipse fill="none" stroke="#000000" cx="2079.6592" cy="-18" rx="36.2938" ry="18"/>
<text text-anchor="middle" x="2079.6592" y="-14.3" font-family="Times,serif" font-size="14.00" fill="#000000">study</text>
</g>
<!-- study_funding&#45;&gt;study -->
<g id="edge1" class="edge">
<title>study_funding&#45;&gt;study</title>
<path fill="none" stroke="#000000" d="M1046.0258,-90.2411C1085.3889,-78.1511 1144.144,-61.8109 1196.6592,-54 1360.2128,-29.6737 1874.3364,-20.7904 2032.7341,-18.5904"/>
<polygon fill="#000000" stroke="#000000" points="2033.1294,-22.0854 2043.0807,-18.4492 2033.0338,-15.0861 2033.1294,-22.0854"/>
<text text-anchor="middle" x="1258.6592" y="-57.8" font-family="Times,serif" font-size="14.00" fill="#000000">of_study_funding</text>
</g>
<!-- medical_history -->
<g id="node2" class="node">
<title>medical_history</title>
<ellipse fill="none" stroke="#000000" cx="2376.6592" cy="-192" rx="85.2851" ry="18"/>
<text text-anchor="middle" x="2376.6592" y="-188.3" font-family="Times,serif" font-size="14.00" fill="#000000">medical_history</text>
</g>
<!-- participant -->
<g id="node17" class="node">
<title>participant</title>
<ellipse fill="none" stroke="#000000" cx="2510.6592" cy="-105" rx="62.2891" ry="18"/>
<text text-anchor="middle" x="2510.6592" y="-101.3" font-family="Times,serif" font-size="14.00" fill="#000000">participant</text>
</g>
<!-- medical_history&#45;&gt;participant -->
<g id="edge7" class="edge">
<title>medical_history&#45;&gt;participant</title>
<path fill="none" stroke="#000000" d="M2363.4187,-173.9824C2357.433,-163.477 2353.1904,-150.4735 2360.6592,-141 2371.1098,-127.7445 2407.6385,-118.8144 2442.0291,-113.1641"/>
<polygon fill="#000000" stroke="#000000" points="2442.7846,-116.5886 2452.1238,-111.5857 2441.7031,-109.6726 2442.7846,-116.5886"/>
<text text-anchor="middle" x="2428.6592" y="-144.8" font-family="Times,serif" font-size="14.00" fill="#000000">of_medical_history</text>
</g>
<!-- publication -->
<g id="node3" class="node">
<title>publication</title>
<ellipse fill="none" stroke="#000000" cx="1158.6592" cy="-105" rx="63.0888" ry="18"/>
<text text-anchor="middle" x="1158.6592" y="-101.3" font-family="Times,serif" font-size="14.00" fill="#000000">publication</text>
</g>
<!-- publication&#45;&gt;study -->
<g id="edge36" class="edge">
<title>publication&#45;&gt;study</title>
<path fill="none" stroke="#000000" d="M1204.9982,-92.7701C1213.5033,-90.7094 1222.3255,-88.693 1230.6592,-87 1323.2467,-68.1908 1346.7115,-64.0029 1440.6592,-54 1661.7333,-30.4616 1927.5832,-21.7262 2033.1657,-19.0332"/>
<polygon fill="#000000" stroke="#000000" points="2033.2629,-22.532 2043.1726,-18.784 2033.0885,-15.5341 2033.2629,-22.532"/>
<text text-anchor="middle" x="1491.6592" y="-57.8" font-family="Times,serif" font-size="14.00" fill="#000000">of_publication</text>
</g>
<!-- clinical_measure_file -->
<g id="node4" class="node">
<title>clinical_measure_file</title>
<ellipse fill="none" stroke="#000000" cx="2164.6592" cy="-192" rx="108.5808" ry="18"/>
<text text-anchor="middle" x="2164.6592" y="-188.3" font-family="Times,serif" font-size="14.00" fill="#000000">clinical_measure_file</text>
</g>
<!-- clinical_measure_file&#45;&gt;participant -->
<g id="edge33" class="edge">
<title>clinical_measure_file&#45;&gt;participant</title>
<path fill="none" stroke="#000000" d="M2165.516,-173.9194C2167.0592,-162.7001 2170.9793,-148.9523 2180.6592,-141 2190.5682,-132.8595 2346.2626,-118.6331 2440.2026,-110.7208"/>
<polygon fill="#000000" stroke="#000000" points="2440.5426,-114.2046 2450.2154,-109.8816 2439.958,-107.2291 2440.5426,-114.2046"/>
<text text-anchor="middle" x="2266.6592" y="-144.8" font-family="Times,serif" font-size="14.00" fill="#000000">of_clinical_measure_file</text>
</g>
<!-- clinical_measure_file&#45;&gt;study -->
<g id="edge32" class="edge">
<title>clinical_measure_file&#45;&gt;study</title>
<path fill="none" stroke="#000000" d="M2155.8829,-174.0343C2140.9171,-143.3984 2110.3803,-80.888 2092.8401,-44.982"/>
<polygon fill="#000000" stroke="#000000" points="2095.7954,-43.0577 2088.2612,-35.6088 2089.5058,-46.1303 2095.7954,-43.0577"/>
<text text-anchor="middle" x="2215.6592" y="-101.3" font-family="Times,serif" font-size="14.00" fill="#000000">of_clinical_measure_file</text>
</g>
<!-- synonym -->
<g id="node5" class="node">
<title>synonym</title>
<ellipse fill="none" stroke="#000000" cx="2027.6592" cy="-279" rx="51.9908" ry="18"/>
<text text-anchor="middle" x="2027.6592" y="-275.3" font-family="Times,serif" font-size="14.00" fill="#000000">synonym</text>
</g>
<!-- synonym&#45;&gt;participant -->
<g id="edge12" class="edge">
<title>synonym&#45;&gt;participant</title>
<path fill="none" stroke="#000000" d="M2079.556,-276.876C2182.8434,-271.7095 2409.4756,-255.3918 2470.6592,-210 2494.6778,-192.1807 2504.2742,-158.0459 2508.1082,-133.5285"/>
<polygon fill="#000000" stroke="#000000" points="2511.6116,-133.734 2509.4599,-123.36 2504.6727,-132.8116 2511.6116,-133.734"/>
<text text-anchor="middle" x="2539.1592" y="-188.3" font-family="Times,serif" font-size="14.00" fill="#000000">of_synonym</text>
</g>
<!-- synonym&#45;&gt;study -->
<g id="edge11" class="edge">
<title>synonym&#45;&gt;study</title>
<path fill="none" stroke="#000000" d="M2030.3247,-260.6247C2034.2607,-234.1105 2042.0921,-183.6245 2050.6592,-141 2057.2412,-108.2518 2066.2515,-70.951 2072.4737,-46.0957"/>
<polygon fill="#000000" stroke="#000000" points="2075.9038,-46.8072 2074.9545,-36.255 2069.1162,-45.096 2075.9038,-46.8072"/>
<text text-anchor="middle" x="2093.1592" y="-144.8" font-family="Times,serif" font-size="14.00" fill="#000000">of_synonym</text>
</g>
<!-- sample -->
<g id="node24" class="node">
<title>sample</title>
<ellipse fill="none" stroke="#000000" cx="1344.6592" cy="-192" rx="44.393" ry="18"/>
<text text-anchor="middle" x="1344.6592" y="-188.3" font-family="Times,serif" font-size="14.00" fill="#000000">sample</text>
</g>
<!-- synonym&#45;&gt;sample -->
<g id="edge13" class="edge">
<title>synonym&#45;&gt;sample</title>
<path fill="none" stroke="#000000" d="M1981.829,-270.1524C1965.6785,-267.1256 1947.383,-263.7994 1930.6592,-261 1832.7108,-244.6043 1808.44,-238.25 1709.6592,-228 1573.7104,-213.8932 1537.136,-234.4349 1402.6592,-210 1397.855,-209.1271 1392.8909,-207.9809 1387.9819,-206.6889"/>
<polygon fill="#000000" stroke="#000000" points="1388.6273,-203.234 1378.0518,-203.8729 1386.7175,-209.9684 1388.6273,-203.234"/>
<text text-anchor="middle" x="1867.1592" y="-231.8" font-family="Times,serif" font-size="14.00" fill="#000000">of_synonym</text>
</g>
<!-- radiology_file -->
<g id="node6" class="node">
<title>radiology_file</title>
<ellipse fill="none" stroke="#000000" cx="2673.6592" cy="-192" rx="73.387" ry="18"/>
<text text-anchor="middle" x="2673.6592" y="-188.3" font-family="Times,serif" font-size="14.00" fill="#000000">radiology_file</text>
</g>
<!-- radiology_file&#45;&gt;participant -->
<g id="edge3" class="edge">
<title>radiology_file&#45;&gt;participant</title>
<path fill="none" stroke="#000000" d="M2643.0002,-175.636C2616.4546,-161.4675 2577.9278,-140.9041 2549.2818,-125.6145"/>
<polygon fill="#000000" stroke="#000000" points="2550.8261,-122.4715 2540.356,-120.8505 2547.53,-128.6469 2550.8261,-122.4715"/>
<text text-anchor="middle" x="2660.6592" y="-144.8" font-family="Times,serif" font-size="14.00" fill="#000000">of_radiology_file</text>
</g>
<!-- therapeutic_procedure -->
<g id="node7" class="node">
<title>therapeutic_procedure</title>
<ellipse fill="none" stroke="#000000" cx="2882.6592" cy="-192" rx="117.7793" ry="18"/>
<text text-anchor="middle" x="2882.6592" y="-188.3" font-family="Times,serif" font-size="14.00" fill="#000000">therapeutic_procedure</text>
</g>
<!-- therapeutic_procedure&#45;&gt;participant -->
<g id="edge21" class="edge">
<title>therapeutic_procedure&#45;&gt;participant</title>
<path fill="none" stroke="#000000" d="M2838.031,-175.2569C2806.49,-164.026 2762.9948,-149.7417 2723.6592,-141 2661.9885,-127.2947 2644.7451,-134.6815 2582.6592,-123 2577.3568,-122.0023 2571.8626,-120.8495 2566.3812,-119.6188"/>
<polygon fill="#000000" stroke="#000000" points="2567.1058,-116.194 2556.5727,-117.3364 2565.5192,-123.0118 2567.1058,-116.194"/>
<text text-anchor="middle" x="2869.6592" y="-144.8" font-family="Times,serif" font-size="14.00" fill="#000000">of_therapeutic_procedure</text>
</g>
<!-- methylation_array_file -->
<g id="node8" class="node">
<title>methylation_array_file</title>
<ellipse fill="none" stroke="#000000" cx="1030.6592" cy="-279" rx="115.8798" ry="18"/>
<text text-anchor="middle" x="1030.6592" y="-275.3" font-family="Times,serif" font-size="14.00" fill="#000000">methylation_array_file</text>
</g>
<!-- pdx -->
<g id="node9" class="node">
<title>pdx</title>
<ellipse fill="none" stroke="#000000" cx="1267.6592" cy="-105" rx="27.8951" ry="18"/>
<text text-anchor="middle" x="1267.6592" y="-101.3" font-family="Times,serif" font-size="14.00" fill="#000000">pdx</text>
</g>
<!-- methylation_array_file&#45;&gt;pdx -->
<g id="edge26" class="edge">
<title>methylation_array_file&#45;&gt;pdx</title>
<path fill="none" stroke="#000000" d="M916.2993,-276.1041C808.2433,-272.1548 659.9944,-263.1104 641.6592,-243 637.1676,-238.0735 640.2252,-234.5106 641.6592,-228 647.3479,-202.1718 645.505,-189.8731 666.6592,-174 745.0402,-115.1868 787.1669,-150.8908 884.6592,-141 961.2589,-133.2288 1156.1054,-142.2256 1230.6592,-123 1232.8511,-122.4348 1235.0672,-121.7337 1237.268,-120.939"/>
<polygon fill="#000000" stroke="#000000" points="1238.8264,-124.0809 1246.696,-116.9873 1236.1204,-117.6251 1238.8264,-124.0809"/>
<text text-anchor="middle" x="758.1592" y="-188.3" font-family="Times,serif" font-size="14.00" fill="#000000">of_methylation_array_file</text>
</g>
<!-- cell_line -->
<g id="node14" class="node">
<title>cell_line</title>
<ellipse fill="none" stroke="#000000" cx="1459.6592" cy="-105" rx="49.2915" ry="18"/>
<text text-anchor="middle" x="1459.6592" y="-101.3" font-family="Times,serif" font-size="14.00" fill="#000000">cell_line</text>
</g>
<!-- methylation_array_file&#45;&gt;cell_line -->
<g id="edge27" class="edge">
<title>methylation_array_file&#45;&gt;cell_line</title>
<path fill="none" stroke="#000000" d="M1043.3554,-260.6549C1063.1776,-232.2108 1100.1003,-180.087 1108.6592,-174 1148.523,-145.6493 1165.9741,-151.9095 1213.6592,-141 1277.2324,-126.4557 1351.4542,-116.5394 1401.6103,-110.8545"/>
<polygon fill="#000000" stroke="#000000" points="1402.0714,-114.3249 1411.6226,-109.7397 1401.2967,-107.3679 1402.0714,-114.3249"/>
<text text-anchor="middle" x="1200.1592" y="-188.3" font-family="Times,serif" font-size="14.00" fill="#000000">of_methylation_array_file</text>
</g>
<!-- methylation_array_file&#45;&gt;sample -->
<g id="edge25" class="edge">
<title>methylation_array_file&#45;&gt;sample</title>
<path fill="none" stroke="#000000" d="M1052.605,-261.2493C1068.1365,-249.7147 1089.9805,-235.479 1111.6592,-228 1185.5723,-202.5003 1210.0563,-225.6645 1286.6592,-210 1291.3817,-209.0343 1296.2673,-207.8394 1301.1071,-206.5281"/>
<polygon fill="#000000" stroke="#000000" points="1302.2671,-209.8364 1310.9102,-203.7087 1300.3323,-203.1091 1302.2671,-209.8364"/>
<text text-anchor="middle" x="1203.1592" y="-231.8" font-family="Times,serif" font-size="14.00" fill="#000000">of_methylation_array_file</text>
</g>
<!-- pdx&#45;&gt;study -->
<g id="edge34" class="edge">
<title>pdx&#45;&gt;study</title>
<path fill="none" stroke="#000000" d="M1295.1028,-101.1845C1322.1763,-97.451 1364.748,-91.6617 1401.6592,-87 1525.5395,-71.3544 1556.4676,-66.9448 1680.6592,-54 1808.0781,-40.7188 1958.6949,-27.9128 2033.1661,-21.7736"/>
<polygon fill="#000000" stroke="#000000" points="2033.9096,-25.2244 2043.5893,-20.9169 2033.3362,-18.2479 2033.9096,-25.2244"/>
<text text-anchor="middle" x="1704.6592" y="-57.8" font-family="Times,serif" font-size="14.00" fill="#000000">of_pdx</text>
</g>
<!-- pdx&#45;&gt;sample -->
<g id="edge35" class="edge">
<title>pdx&#45;&gt;sample</title>
<path fill="none" stroke="#000000" d="M1281.5462,-120.6905C1292.9397,-133.5637 1309.2853,-152.0321 1322.487,-166.9483"/>
<polygon fill="#000000" stroke="#000000" points="1320.1979,-169.6429 1329.4465,-174.8116 1325.4398,-165.0036 1320.1979,-169.6429"/>
<text text-anchor="middle" x="1335.6592" y="-144.8" font-family="Times,serif" font-size="14.00" fill="#000000">of_pdx</text>
</g>
<!-- cytogenomic_file -->
<g id="node10" class="node">
<title>cytogenomic_file</title>
<ellipse fill="none" stroke="#000000" cx="1831.6592" cy="-279" rx="89.8845" ry="18"/>
<text text-anchor="middle" x="1831.6592" y="-275.3" font-family="Times,serif" font-size="14.00" fill="#000000">cytogenomic_file</text>
</g>
<!-- cytogenomic_file&#45;&gt;pdx -->
<g id="edge22" class="edge">
<title>cytogenomic_file&#45;&gt;pdx</title>
<path fill="none" stroke="#000000" d="M1831.7221,-260.7767C1830.7053,-249.4987 1827.3415,-235.7393 1817.6592,-228 1783.5142,-200.7072 1463.2992,-230.4383 1424.6592,-210 1406.98,-200.6487 1410.8756,-189.0109 1397.6592,-174 1383.7434,-158.1947 1381.4492,-152.2683 1363.6592,-141 1345.1769,-129.2931 1322.3127,-120.5292 1303.5346,-114.5808"/>
<polygon fill="#000000" stroke="#000000" points="1304.4406,-111.1982 1293.8552,-111.6457 1302.4093,-117.897 1304.4406,-111.1982"/>
<text text-anchor="middle" x="1496.1592" y="-188.3" font-family="Times,serif" font-size="14.00" fill="#000000">of_cytogenomic_file</text>
</g>
<!-- cytogenomic_file&#45;&gt;cell_line -->
<g id="edge24" class="edge">
<title>cytogenomic_file&#45;&gt;cell_line</title>
<path fill="none" stroke="#000000" d="M1840.6356,-260.6303C1853.5182,-231.3054 1872.5924,-173.8787 1842.6592,-141 1821.3598,-117.6047 1621.7458,-109.1195 1519.4655,-106.2897"/>
<polygon fill="#000000" stroke="#000000" points="1519.373,-102.7861 1509.2831,-106.0178 1519.1861,-109.7836 1519.373,-102.7861"/>
<text text-anchor="middle" x="1930.1592" y="-188.3" font-family="Times,serif" font-size="14.00" fill="#000000">of_cytogenomic_file</text>
</g>
<!-- cytogenomic_file&#45;&gt;sample -->
<g id="edge23" class="edge">
<title>cytogenomic_file&#45;&gt;sample</title>
<path fill="none" stroke="#000000" d="M1749.1337,-271.9405C1696.4586,-266.4169 1626.985,-257.2387 1566.6592,-243 1546.551,-238.2539 1542.734,-232.8854 1522.6592,-228 1470.2586,-215.2477 1455.231,-222.0271 1402.6592,-210 1398.0214,-208.939 1393.2165,-207.6927 1388.4475,-206.3595"/>
<polygon fill="#000000" stroke="#000000" points="1389.3543,-202.9782 1378.7739,-203.5323 1387.3905,-209.6971 1389.3543,-202.9782"/>
<text text-anchor="middle" x="1638.1592" y="-231.8" font-family="Times,serif" font-size="14.00" fill="#000000">of_cytogenomic_file</text>
</g>
<!-- diagnosis -->
<g id="node11" class="node">
<title>diagnosis</title>
<ellipse fill="none" stroke="#000000" cx="3072.6592" cy="-192" rx="54.6905" ry="18"/>
<text text-anchor="middle" x="3072.6592" y="-188.3" font-family="Times,serif" font-size="14.00" fill="#000000">diagnosis</text>
</g>
<!-- diagnosis&#45;&gt;participant -->
<g id="edge20" class="edge">
<title>diagnosis&#45;&gt;participant</title>
<path fill="none" stroke="#000000" d="M3046.7764,-175.8915C3025.9779,-163.8688 2995.5658,-148.3084 2966.6592,-141 2801.0173,-99.1208 2751.6978,-147.8409 2582.6592,-123 2576.9426,-122.1599 2571.0195,-121.0618 2565.1376,-119.8219"/>
<polygon fill="#000000" stroke="#000000" points="2565.8448,-116.3937 2555.3214,-117.6218 2564.3138,-123.2242 2565.8448,-116.3937"/>
<text text-anchor="middle" x="3050.1592" y="-144.8" font-family="Times,serif" font-size="14.00" fill="#000000">of_diagnosis</text>
</g>
<!-- study_admin -->
<g id="node12" class="node">
<title>study_admin</title>
<ellipse fill="none" stroke="#000000" cx="2661.6592" cy="-105" rx="70.3881" ry="18"/>
<text text-anchor="middle" x="2661.6592" y="-101.3" font-family="Times,serif" font-size="14.00" fill="#000000">study_admin</text>
</g>
<!-- study_admin&#45;&gt;study -->
<g id="edge17" class="edge">
<title>study_admin&#45;&gt;study</title>
<path fill="none" stroke="#000000" d="M2608.7506,-92.9949C2599.7163,-90.9738 2590.4217,-88.9125 2581.6592,-87 2512.4215,-71.8882 2495.6655,-65.0154 2425.6592,-54 2319.0531,-37.2256 2192.6939,-26.3288 2126.0977,-21.2771"/>
<polygon fill="#000000" stroke="#000000" points="2126.1681,-17.7727 2115.9348,-20.5165 2125.6456,-24.7531 2126.1681,-17.7727"/>
<text text-anchor="middle" x="2560.1592" y="-57.8" font-family="Times,serif" font-size="14.00" fill="#000000">of_study_admin</text>
</g>
<!-- exposure -->
<g id="node13" class="node">
<title>exposure</title>
<ellipse fill="none" stroke="#000000" cx="3198.6592" cy="-192" rx="53.0913" ry="18"/>
<text text-anchor="middle" x="3198.6592" y="-188.3" font-family="Times,serif" font-size="14.00" fill="#000000">exposure</text>
</g>
<!-- exposure&#45;&gt;participant -->
<g id="edge28" class="edge">
<title>exposure&#45;&gt;participant</title>
<path fill="none" stroke="#000000" d="M3174.394,-175.7921C3154.857,-163.7144 3126.205,-148.1288 3098.6592,-141 2987.5823,-112.2534 2696.2743,-139.0021 2582.6592,-123 2576.9377,-122.1942 2571.0114,-121.1183 2565.1275,-119.8918"/>
<polygon fill="#000000" stroke="#000000" points="2565.8308,-116.4627 2555.3092,-117.7064 2564.3099,-123.2955 2565.8308,-116.4627"/>
<text text-anchor="middle" x="3179.1592" y="-144.8" font-family="Times,serif" font-size="14.00" fill="#000000">of_exposure</text>
</g>
<!-- cell_line&#45;&gt;study -->
<g id="edge18" class="edge">
<title>cell_line&#45;&gt;study</title>
<path fill="none" stroke="#000000" d="M1506.0064,-98.4964C1621.3237,-82.3148 1920.0696,-40.394 2034.3151,-24.3628"/>
<polygon fill="#000000" stroke="#000000" points="2035.0476,-27.7944 2044.4642,-22.9387 2034.0748,-20.8623 2035.0476,-27.7944"/>
<text text-anchor="middle" x="1848.1592" y="-57.8" font-family="Times,serif" font-size="14.00" fill="#000000">of_cell_line</text>
</g>
<!-- cell_line&#45;&gt;sample -->
<g id="edge19" class="edge">
<title>cell_line&#45;&gt;sample</title>
<path fill="none" stroke="#000000" d="M1477.8462,-122.1172C1486.7241,-132.5477 1493.894,-145.7879 1485.6592,-156 1461.9651,-185.3833 1439.1636,-164.3968 1402.6592,-174 1398.2382,-175.163 1393.6509,-176.4485 1389.0805,-177.7815"/>
<polygon fill="#000000" stroke="#000000" points="1387.7498,-174.5263 1379.1732,-180.7466 1389.7569,-181.2324 1387.7498,-174.5263"/>
<text text-anchor="middle" x="1530.1592" y="-144.8" font-family="Times,serif" font-size="14.00" fill="#000000">of_cell_line</text>
</g>
<!-- follow_up -->
<g id="node15" class="node">
<title>follow_up</title>
<ellipse fill="none" stroke="#000000" cx="3325.6592" cy="-192" rx="55.4913" ry="18"/>
<text text-anchor="middle" x="3325.6592" y="-188.3" font-family="Times,serif" font-size="14.00" fill="#000000">follow_up</text>
</g>
<!-- follow_up&#45;&gt;participant -->
<g id="edge14" class="edge">
<title>follow_up&#45;&gt;participant</title>
<path fill="none" stroke="#000000" d="M3301.6738,-175.7392C3282.3527,-163.6324 3253.9967,-148.0334 3226.6592,-141 3088.0076,-105.3276 2724.4953,-142.4761 2582.6592,-123 2576.9349,-122.214 2571.0068,-121.151 2565.1219,-119.9322"/>
<polygon fill="#000000" stroke="#000000" points="2565.8229,-116.5027 2555.3024,-117.7554 2564.3079,-123.3368 2565.8229,-116.5027"/>
<text text-anchor="middle" x="3308.6592" y="-144.8" font-family="Times,serif" font-size="14.00" fill="#000000">of_follow_up</text>
</g>
<!-- sequencing_file -->
<g id="node16" class="node">
<title>sequencing_file</title>
<ellipse fill="none" stroke="#000000" cx="468.6592" cy="-279" rx="83.3857" ry="18"/>
<text text-anchor="middle" x="468.6592" y="-275.3" font-family="Times,serif" font-size="14.00" fill="#000000">sequencing_file</text>
</g>
<!-- sequencing_file&#45;&gt;pdx -->
<g id="edge39" class="edge">
<title>sequencing_file&#45;&gt;pdx</title>
<path fill="none" stroke="#000000" d="M406.9882,-266.8377C314.4062,-248.4386 149.8009,-215.1199 145.6592,-210 135.5964,-197.5605 134.6914,-185.6494 145.6592,-174 229.1353,-85.3361 571.0163,-146.7032 692.6592,-141 812.1504,-135.3977 1114.5544,-151.796 1230.6592,-123 1232.8562,-122.4551 1235.0762,-121.7693 1237.2799,-120.9859"/>
<polygon fill="#000000" stroke="#000000" points="1238.8266,-124.1333 1246.7144,-117.0599 1236.1371,-117.6705 1238.8266,-124.1333"/>
<text text-anchor="middle" x="212.1592" y="-188.3" font-family="Times,serif" font-size="14.00" fill="#000000">of_sequencing_file</text>
</g>
<!-- sequencing_file&#45;&gt;cell_line -->
<g id="edge41" class="edge">
<title>sequencing_file&#45;&gt;cell_line</title>
<path fill="none" stroke="#000000" d="M469.8412,-260.6166C472.483,-236.3641 481.0272,-194.3763 508.6592,-174 526.4915,-160.8502 1282.592,-124.9869 1304.6592,-123 1337.2424,-120.0662 1373.5763,-115.8949 1402.8718,-112.3064"/>
<polygon fill="#000000" stroke="#000000" points="1403.4274,-115.7644 1412.9227,-111.0644 1402.5689,-108.8173 1403.4274,-115.7644"/>
<text text-anchor="middle" x="575.1592" y="-188.3" font-family="Times,serif" font-size="14.00" fill="#000000">of_sequencing_file</text>
</g>
<!-- sequencing_file&#45;&gt;sample -->
<g id="edge40" class="edge">
<title>sequencing_file&#45;&gt;sample</title>
<path fill="none" stroke="#000000" d="M545.4086,-271.9212C618.1416,-265.0666 730.4181,-254.1069 827.6592,-243 879.7461,-237.0506 892.446,-232.7144 944.6592,-228 1096.2529,-214.3125 1136.8203,-236.7636 1286.6592,-210 1291.466,-209.1414 1296.4318,-208.0044 1301.3417,-206.7178"/>
<polygon fill="#000000" stroke="#000000" points="1302.6035,-209.9983 1311.2729,-203.908 1300.6978,-203.2627 1302.6035,-209.9983"/>
<text text-anchor="middle" x="1011.1592" y="-231.8" font-family="Times,serif" font-size="14.00" fill="#000000">of_sequencing_file</text>
</g>
<!-- participant&#45;&gt;study -->
<g id="edge15" class="edge">
<title>participant&#45;&gt;study</title>
<path fill="none" stroke="#000000" d="M2459.5253,-94.6783C2374.1646,-77.4477 2204.0938,-43.1179 2123.704,-26.8907"/>
<polygon fill="#000000" stroke="#000000" points="2123.929,-23.3656 2113.4341,-24.8177 2122.5439,-30.2272 2123.929,-23.3656"/>
<text text-anchor="middle" x="2371.1592" y="-57.8" font-family="Times,serif" font-size="14.00" fill="#000000">of_participant</text>
</g>
<!-- molecular_test -->
<g id="node18" class="node">
<title>molecular_test</title>
<ellipse fill="none" stroke="#000000" cx="3478.6592" cy="-192" rx="79.8859" ry="18"/>
<text text-anchor="middle" x="3478.6592" y="-188.3" font-family="Times,serif" font-size="14.00" fill="#000000">molecular_test</text>
</g>
<!-- molecular_test&#45;&gt;participant -->
<g id="edge37" class="edge">
<title>molecular_test&#45;&gt;participant</title>
<path fill="none" stroke="#000000" d="M3447.8756,-175.2053C3424.0308,-163.1542 3389.758,-147.8771 3357.6592,-141 3189.2132,-104.9109 2753.3813,-146.0321 2582.6592,-123 2576.8513,-122.2165 2570.8343,-121.1431 2564.8659,-119.9077"/>
<polygon fill="#000000" stroke="#000000" points="2565.4338,-116.4486 2554.9129,-117.6981 2563.9166,-123.2823 2565.4338,-116.4486"/>
<text text-anchor="middle" x="3465.6592" y="-144.8" font-family="Times,serif" font-size="14.00" fill="#000000">of_molecular_test</text>
</g>
<!-- pathology_file -->
<g id="node19" class="node">
<title>pathology_file</title>
<ellipse fill="none" stroke="#000000" cx="291.6592" cy="-279" rx="76.0865" ry="18"/>
<text text-anchor="middle" x="291.6592" y="-275.3" font-family="Times,serif" font-size="14.00" fill="#000000">pathology_file</text>
</g>
<!-- pathology_file&#45;&gt;pdx -->
<g id="edge29" class="edge">
<title>pathology_file&#45;&gt;pdx</title>
<path fill="none" stroke="#000000" d="M216.5963,-275.8684C115.399,-268.8856 -45.777,-246.3839 12.6592,-174 56.3561,-119.8734 96.5523,-148.9591 165.6592,-141 283.2322,-127.459 1115.5575,-150.5385 1230.6592,-123 1232.8606,-122.4733 1235.084,-121.8012 1237.2901,-121.0278"/>
<polygon fill="#000000" stroke="#000000" points="1238.8262,-124.1801 1246.7302,-117.1248 1236.1516,-117.7112 1238.8262,-124.1801"/>
<text text-anchor="middle" x="73.6592" y="-188.3" font-family="Times,serif" font-size="14.00" fill="#000000">of_pathology_file</text>
</g>
<!-- pathology_file&#45;&gt;cell_line -->
<g id="edge31" class="edge">
<title>pathology_file&#45;&gt;cell_line</title>
<path fill="none" stroke="#000000" d="M297.1901,-260.8793C305.6712,-236.5201 324.3915,-193.9706 356.6592,-174 390.6264,-152.9775 674.7876,-143.4436 714.6592,-141 976.5121,-124.9522 1043.0147,-142.1485 1304.6592,-123 1337.4078,-120.6033 1373.8926,-116.441 1403.2342,-112.7222"/>
<polygon fill="#000000" stroke="#000000" points="1403.8246,-116.1752 1413.2969,-111.429 1402.9323,-109.2323 1403.8246,-116.1752"/>
<text text-anchor="middle" x="417.6592" y="-188.3" font-family="Times,serif" font-size="14.00" fill="#000000">of_pathology_file</text>
</g>
<!-- pathology_file&#45;&gt;sample -->
<g id="edge30" class="edge">
<title>pathology_file&#45;&gt;sample</title>
<path fill="none" stroke="#000000" d="M346.825,-266.4187C356.7242,-264.4182 366.9719,-262.513 376.6592,-261 520.1072,-238.5951 556.7879,-237.5719 701.6592,-228 831.4378,-219.4253 1158.3821,-231.4707 1286.6592,-210 1291.475,-209.1939 1296.4466,-208.0904 1301.36,-206.8235"/>
<polygon fill="#000000" stroke="#000000" points="1302.6123,-210.1074 1311.2951,-204.0362 1300.7214,-203.3676 1302.6123,-210.1074"/>
<text text-anchor="middle" x="762.6592" y="-231.8" font-family="Times,serif" font-size="14.00" fill="#000000">of_pathology_file</text>
</g>
<!-- study_arm -->
<g id="node20" class="node">
<title>study_arm</title>
<ellipse fill="none" stroke="#000000" cx="2809.6592" cy="-105" rx="59.5901" ry="18"/>
<text text-anchor="middle" x="2809.6592" y="-101.3" font-family="Times,serif" font-size="14.00" fill="#000000">study_arm</text>
</g>
<!-- study_arm&#45;&gt;study -->
<g id="edge16" class="edge">
<title>study_arm&#45;&gt;study</title>
<path fill="none" stroke="#000000" d="M2769.2475,-91.6049C2731.3236,-79.6327 2672.7898,-62.6807 2620.6592,-54 2526.0027,-38.2379 2238.9669,-24.7479 2126.0235,-19.9087"/>
<polygon fill="#000000" stroke="#000000" points="2126.1056,-16.4091 2115.9659,-19.481 2125.8081,-23.4028 2126.1056,-16.4091"/>
<text text-anchor="middle" x="2737.1592" y="-57.8" font-family="Times,serif" font-size="14.00" fill="#000000">of_study_arm</text>
</g>
<!-- single_cell_sequencing_file -->
<g id="node22" class="node">
<title>single_cell_sequencing_file</title>
<ellipse fill="none" stroke="#000000" cx="1301.6592" cy="-279" rx="137.5759" ry="18"/>
<text text-anchor="middle" x="1301.6592" y="-275.3" font-family="Times,serif" font-size="14.00" fill="#000000">single_cell_sequencing_file</text>
</g>
<!-- single_cell_sequencing_file&#45;&gt;pdx -->
<g id="edge5" class="edge">
<title>single_cell_sequencing_file&#45;&gt;pdx</title>
<path fill="none" stroke="#000000" d="M1195.922,-267.4451C1158.1575,-261.8966 1115.5846,-253.9928 1077.6592,-243 1061.4043,-238.2885 1059.0497,-232.2155 1042.6592,-228 1003.2984,-217.8767 887.9464,-240.1191 860.6592,-210 849.9167,-198.1426 850.1463,-186.0614 860.6592,-174 915.1949,-111.4316 1151.242,-147.1215 1230.6592,-123 1232.6072,-122.4083 1234.58,-121.7253 1236.5481,-120.9786"/>
<polygon fill="#000000" stroke="#000000" points="1238.3946,-123.9954 1246.2105,-116.8426 1235.6399,-117.5602 1238.3946,-123.9954"/>
<text text-anchor="middle" x="969.1592" y="-188.3" font-family="Times,serif" font-size="14.00" fill="#000000">of_single_cell_sequencing_file</text>
</g>
<!-- single_cell_sequencing_file&#45;&gt;cell_line -->
<g id="edge6" class="edge">
<title>single_cell_sequencing_file&#45;&gt;cell_line</title>
<path fill="none" stroke="#000000" d="M1415.0907,-268.7399C1449.1222,-263.4014 1486.054,-255.297 1518.6592,-243 1525.15,-240.552 1568.1242,-215.9688 1571.6592,-210 1587.3011,-183.5888 1592.8352,-165.7357 1574.6592,-141 1566.97,-130.5358 1539.6957,-121.7548 1513.6391,-115.4853"/>
<polygon fill="#000000" stroke="#000000" points="1514.2862,-112.0427 1503.7556,-113.2071 1512.7139,-118.8639 1514.2862,-112.0427"/>
<text text-anchor="middle" x="1695.1592" y="-188.3" font-family="Times,serif" font-size="14.00" fill="#000000">of_single_cell_sequencing_file</text>
</g>
<!-- single_cell_sequencing_file&#45;&gt;sample -->
<g id="edge4" class="edge">
<title>single_cell_sequencing_file&#45;&gt;sample</title>
<path fill="none" stroke="#000000" d="M1298.0074,-260.7224C1296.865,-250.621 1296.9388,-238.1084 1301.6592,-228 1304.0795,-222.8173 1307.6535,-218.1173 1311.7243,-213.9515"/>
<polygon fill="#000000" stroke="#000000" points="1314.3286,-216.3179 1319.4464,-207.0411 1309.6605,-211.1016 1314.3286,-216.3179"/>
<text text-anchor="middle" x="1410.1592" y="-231.8" font-family="Times,serif" font-size="14.00" fill="#000000">of_single_cell_sequencing_file</text>
</g>
<!-- family_relationship -->
<g id="node23" class="node">
<title>family_relationship</title>
<ellipse fill="none" stroke="#000000" cx="3676.6592" cy="-192" rx="100.1823" ry="18"/>
<text text-anchor="middle" x="3676.6592" y="-188.3" font-family="Times,serif" font-size="14.00" fill="#000000">family_relationship</text>
</g>
<!-- family_relationship&#45;&gt;participant -->
<g id="edge2" class="edge">
<title>family_relationship&#45;&gt;participant</title>
<path fill="none" stroke="#000000" d="M3639.9354,-175.1744C3611.5754,-163.1071 3570.9964,-147.8233 3533.6592,-141 3325.7316,-103.0017 2792.1929,-150.81 2582.6592,-123 2576.8496,-122.2289 2570.8316,-121.1636 2564.8625,-119.933"/>
<polygon fill="#000000" stroke="#000000" points="2565.429,-116.4737 2554.9088,-117.7286 2563.9154,-123.3082 2565.429,-116.4737"/>
<text text-anchor="middle" x="3665.1592" y="-144.8" font-family="Times,serif" font-size="14.00" fill="#000000">of_family_relationship</text>
</g>
<!-- sample&#45;&gt;pdx -->
<g id="edge9" class="edge">
<title>sample&#45;&gt;pdx</title>
<path fill="none" stroke="#000000" d="M1309.754,-180.9526C1302.1559,-178.608 1294.1496,-176.183 1286.6592,-174 1257.4689,-165.4928 1239.1147,-180.1628 1220.6592,-156 1211.399,-143.876 1222.8183,-131.2603 1236.7155,-121.6094"/>
<polygon fill="#000000" stroke="#000000" points="1238.9605,-124.3298 1245.5259,-116.0144 1235.2079,-118.4206 1238.9605,-124.3298"/>
<text text-anchor="middle" x="1257.1592" y="-144.8" font-family="Times,serif" font-size="14.00" fill="#000000">of_sample</text>
</g>
<!-- sample&#45;&gt;cell_line -->
<g id="edge8" class="edge">
<title>sample&#45;&gt;cell_line</title>
<path fill="none" stroke="#000000" d="M1365.752,-176.0429C1383.681,-162.4792 1409.6326,-142.8462 1429.7129,-127.655"/>
<polygon fill="#000000" stroke="#000000" points="1432.0554,-130.2716 1437.9188,-121.4471 1427.8321,-124.6891 1432.0554,-130.2716"/>
<text text-anchor="middle" x="1446.1592" y="-144.8" font-family="Times,serif" font-size="14.00" fill="#000000">of_sample</text>
</g>
<!-- sample&#45;&gt;participant -->
<g id="edge10" class="edge">
<title>sample&#45;&gt;participant</title>
<path fill="none" stroke="#000000" d="M1378.0557,-180.1484C1386.0267,-177.7359 1394.5707,-175.4848 1402.6592,-174 1501.5008,-155.8553 2205.3975,-129.8183 2305.6592,-123 2350.9101,-119.9227 2401.6936,-115.471 2441.3947,-111.7648"/>
<polygon fill="#000000" stroke="#000000" points="2441.871,-115.2356 2451.4997,-110.8153 2441.2161,-108.2663 2441.871,-115.2356"/>
<text text-anchor="middle" x="1939.1592" y="-144.8" font-family="Times,serif" font-size="14.00" fill="#000000">of_sample</text>
</g>
<!-- study_personnel -->
<g id="node25" class="node">
<title>study_personnel</title>
<ellipse fill="none" stroke="#000000" cx="2974.6592" cy="-105" rx="87.1846" ry="18"/>
<text text-anchor="middle" x="2974.6592" y="-101.3" font-family="Times,serif" font-size="14.00" fill="#000000">study_personnel</text>
</g>
<!-- study_personnel&#45;&gt;study -->
<g id="edge38" class="edge">
<title>study_personnel&#45;&gt;study</title>
<path fill="none" stroke="#000000" d="M2929.2777,-89.4966C2892.1984,-77.56 2838.1742,-61.8207 2789.6592,-54 2661.255,-33.3009 2263.0466,-22.2837 2126.3127,-19.0362"/>
<polygon fill="#000000" stroke="#000000" points="2126.2472,-15.5338 2116.1679,-18.7982 2126.083,-22.5319 2126.2472,-15.5338"/>
<text text-anchor="middle" x="2925.1592" y="-57.8" font-family="Times,serif" font-size="14.00" fill="#000000">of_study_personnel</text>
</g>
</g>
</svg>
