<svg width="3006pt" height="479pt"
 viewBox="0.00 0.00 3005.54 479.00" xmlns="http://www.w3.org/2000/svg" xmlns:xlink="http://www.w3.org/1999/xlink">
<g id="graph0" class="graph" transform="scale(1 1) rotate(0) translate(4 475)">
<title>Perl</title>
<polygon fill="#ffffff" stroke="transparent" points="-4,4 -4,-475 3001.5369,-475 3001.5369,4 -4,4"/>
<!-- study_funding -->
<g id="node1" class="node">
<title>study_funding</title>
<ellipse fill="none" stroke="#000000" cx="77.3431" cy="-105" rx="77.1866" ry="18"/>
<text text-anchor="middle" x="77.3431" y="-101.3" font-family="Times,serif" font-size="14.00" fill="#000000">study_funding</text>
</g>
<!-- study -->
<g id="node7" class="node">
<title>study</title>
<ellipse fill="none" stroke="#000000" cx="2300.3431" cy="-18" rx="36.2938" ry="18"/>
<text text-anchor="middle" x="2300.3431" y="-14.3" font-family="Times,serif" font-size="14.00" fill="#000000">study</text>
</g>
<!-- study_funding&#45;&gt;study -->
<g id="edge17" class="edge">
<title>study_funding&#45;&gt;study</title>
<path fill="none" stroke="#000000" d="M72.0811,-86.9991C70.0577,-75.9575 69.9377,-62.3768 78.3431,-54 98.3026,-34.1084 1933.8871,-20.5311 2253.2366,-18.3186"/>
<polygon fill="#000000" stroke="#000000" points="2253.5509,-21.8166 2263.5265,-18.2476 2253.5026,-14.8167 2253.5509,-21.8166"/>
<text text-anchor="middle" x="140.3431" y="-57.8" font-family="Times,serif" font-size="14.00" fill="#000000">of_study_funding</text>
</g>
<!-- diagnosis -->
<g id="node2" class="node">
<title>diagnosis</title>
<ellipse fill="none" stroke="#000000" cx="982.3431" cy="-192" rx="54.6905" ry="18"/>
<text text-anchor="middle" x="982.3431" y="-188.3" font-family="Times,serif" font-size="14.00" fill="#000000">diagnosis</text>
</g>
<!-- participant -->
<g id="node12" class="node">
<title>participant</title>
<ellipse fill="none" stroke="#000000" cx="1265.3431" cy="-105" rx="62.2891" ry="18"/>
<text text-anchor="middle" x="1265.3431" y="-101.3" font-family="Times,serif" font-size="14.00" fill="#000000">participant</text>
</g>
<!-- diagnosis&#45;&gt;participant -->
<g id="edge21" class="edge">
<title>diagnosis&#45;&gt;participant</title>
<path fill="none" stroke="#000000" d="M1002.8995,-175.2047C1017.9254,-163.7992 1039.2782,-149.3272 1060.3431,-141 1103.0943,-124.1001 1153.9816,-115.1064 1194.3607,-110.3346"/>
<polygon fill="#000000" stroke="#000000" points="1194.8412,-113.8028 1204.3889,-109.2102 1194.0611,-106.8464 1194.8412,-113.8028"/>
<text text-anchor="middle" x="1104.8431" y="-144.8" font-family="Times,serif" font-size="14.00" fill="#000000">of_diagnosis</text>
</g>
<!-- methylation_array_file -->
<g id="node3" class="node">
<title>methylation_array_file</title>
<ellipse fill="none" stroke="#000000" cx="1176.3431" cy="-453" rx="115.8798" ry="18"/>
<text text-anchor="middle" x="1176.3431" y="-449.3" font-family="Times,serif" font-size="14.00" fill="#000000">methylation_array_file</text>
</g>
<!-- pdx -->
<g id="node4" class="node">
<title>pdx</title>
<ellipse fill="none" stroke="#000000" cx="1797.3431" cy="-366" rx="27.8951" ry="18"/>
<text text-anchor="middle" x="1797.3431" y="-362.3" font-family="Times,serif" font-size="14.00" fill="#000000">pdx</text>
</g>
<!-- methylation_array_file&#45;&gt;pdx -->
<g id="edge25" class="edge">
<title>methylation_array_file&#45;&gt;pdx</title>
<path fill="none" stroke="#000000" d="M1236.4456,-437.5649C1292.2189,-423.3444 1368.7622,-404.1285 1383.3431,-402 1547.1339,-378.0896 1594.0487,-421.1915 1755.3431,-384 1758.771,-383.2096 1762.2716,-382.1529 1765.7167,-380.946"/>
<polygon fill="#000000" stroke="#000000" points="1767.1379,-384.1483 1775.1731,-377.2428 1764.5853,-377.6303 1767.1379,-384.1483"/>
<text text-anchor="middle" x="1474.8431" y="-405.8" font-family="Times,serif" font-size="14.00" fill="#000000">of_methylation_array_file</text>
</g>
<!-- cell_line -->
<g id="node8" class="node">
<title>cell_line</title>
<ellipse fill="none" stroke="#000000" cx="2133.3431" cy="-192" rx="49.2915" ry="18"/>
<text text-anchor="middle" x="2133.3431" y="-188.3" font-family="Times,serif" font-size="14.00" fill="#000000">cell_line</text>
</g>
<!-- methylation_array_file&#45;&gt;cell_line -->
<g id="edge24" class="edge">
<title>methylation_array_file&#45;&gt;cell_line</title>
<path fill="none" stroke="#000000" d="M1163.8783,-434.9814C1145.6116,-406.1493 1116.7796,-349.4 1146.3431,-315 1230.1443,-217.4891 1590.421,-240.9202 1718.3431,-228 1876.4072,-212.0354 1918.9194,-237.7618 2075.3431,-210 2079.489,-209.2642 2083.753,-208.3199 2087.9972,-207.25"/>
<polygon fill="#000000" stroke="#000000" points="2089.0798,-210.5825 2097.7998,-204.5649 2087.2304,-203.8312 2089.0798,-210.5825"/>
<text text-anchor="middle" x="1237.8431" y="-318.8" font-family="Times,serif" font-size="14.00" fill="#000000">of_methylation_array_file</text>
</g>
<!-- sample -->
<g id="node21" class="node">
<title>sample</title>
<ellipse fill="none" stroke="#000000" cx="1726.3431" cy="-279" rx="44.393" ry="18"/>
<text text-anchor="middle" x="1726.3431" y="-275.3" font-family="Times,serif" font-size="14.00" fill="#000000">sample</text>
</g>
<!-- methylation_array_file&#45;&gt;sample -->
<g id="edge23" class="edge">
<title>methylation_array_file&#45;&gt;sample</title>
<path fill="none" stroke="#000000" d="M1169.397,-434.8412C1166.6116,-424.2857 1165.4727,-411.2791 1172.3431,-402 1231.7904,-321.7112 1544.7163,-291.4401 1672.2115,-282.3259"/>
<polygon fill="#000000" stroke="#000000" points="1672.7827,-285.7947 1682.5147,-281.6068 1672.2953,-278.8117 1672.7827,-285.7947"/>
<text text-anchor="middle" x="1350.8431" y="-362.3" font-family="Times,serif" font-size="14.00" fill="#000000">of_methylation_array_file</text>
</g>
<!-- pdx&#45;&gt;study -->
<g id="edge39" class="edge">
<title>pdx&#45;&gt;study</title>
<path fill="none" stroke="#000000" d="M1824.3459,-360.6571C1846.54,-356.489 1878.8537,-350.9309 1907.3431,-348 1953.8074,-343.22 2287.6636,-354.6438 2327.3431,-330 2349.3095,-316.3574 2355.3431,-304.8581 2355.3431,-279 2355.3431,-279 2355.3431,-279 2355.3431,-105 2355.3431,-80.5833 2339.6741,-57.446 2325.0628,-41.1784"/>
<polygon fill="#000000" stroke="#000000" points="2327.4648,-38.6246 2318.0482,-33.7688 2322.3814,-43.437 2327.4648,-38.6246"/>
<text text-anchor="middle" x="2379.3431" y="-188.3" font-family="Times,serif" font-size="14.00" fill="#000000">of_pdx</text>
</g>
<!-- pdx&#45;&gt;sample -->
<g id="edge38" class="edge">
<title>pdx&#45;&gt;sample</title>
<path fill="none" stroke="#000000" d="M1773.6428,-355.9744C1753.1307,-347.0586 1726.2982,-334.7237 1723.3431,-330 1719.1567,-323.3078 1718.2437,-315.1046 1718.8341,-307.25"/>
<polygon fill="#000000" stroke="#000000" points="1722.3072,-307.6896 1720.3274,-297.2814 1715.3845,-306.6525 1722.3072,-307.6896"/>
<text text-anchor="middle" x="1747.3431" y="-318.8" font-family="Times,serif" font-size="14.00" fill="#000000">of_pdx</text>
</g>
<!-- study_personnel -->
<g id="node5" class="node">
<title>study_personnel</title>
<ellipse fill="none" stroke="#000000" cx="2470.3431" cy="-105" rx="87.1846" ry="18"/>
<text text-anchor="middle" x="2470.3431" y="-101.3" font-family="Times,serif" font-size="14.00" fill="#000000">study_personnel</text>
</g>
<!-- study_personnel&#45;&gt;study -->
<g id="edge37" class="edge">
<title>study_personnel&#45;&gt;study</title>
<path fill="none" stroke="#000000" d="M2437.5654,-88.2255C2408.1384,-73.1658 2365.0775,-51.1288 2335.0678,-35.7709"/>
<polygon fill="#000000" stroke="#000000" points="2336.3134,-32.4766 2325.8168,-31.0365 2333.1243,-38.708 2336.3134,-32.4766"/>
<text text-anchor="middle" x="2464.8431" y="-57.8" font-family="Times,serif" font-size="14.00" fill="#000000">of_study_personnel</text>
</g>
<!-- molecular_test -->
<g id="node6" class="node">
<title>molecular_test</title>
<ellipse fill="none" stroke="#000000" cx="1751.3431" cy="-192" rx="79.8859" ry="18"/>
<text text-anchor="middle" x="1751.3431" y="-188.3" font-family="Times,serif" font-size="14.00" fill="#000000">molecular_test</text>
</g>
<!-- molecular_test&#45;&gt;participant -->
<g id="edge36" class="edge">
<title>molecular_test&#45;&gt;participant</title>
<path fill="none" stroke="#000000" d="M1690.2418,-180.371C1666.0168,-174.6321 1638.2849,-166.6181 1614.3431,-156 1603.187,-151.0523 1602.8324,-145.1152 1591.3431,-141 1546.0401,-124.7734 1418.4505,-114.2807 1336.9801,-109.0239"/>
<polygon fill="#000000" stroke="#000000" points="1336.9912,-105.5176 1326.7898,-108.3781 1336.5484,-112.5036 1336.9912,-105.5176"/>
<text text-anchor="middle" x="1678.3431" y="-144.8" font-family="Times,serif" font-size="14.00" fill="#000000">of_molecular_test</text>
</g>
<!-- cell_line&#45;&gt;study -->
<g id="edge8" class="edge">
<title>cell_line&#45;&gt;study</title>
<path fill="none" stroke="#000000" d="M2154.5499,-175.6689C2171.4424,-162.2599 2195.3277,-142.3864 2214.3431,-123 2239.3973,-97.457 2264.9863,-65.2746 2281.6612,-43.3154"/>
<polygon fill="#000000" stroke="#000000" points="2284.5898,-45.2446 2287.8084,-35.1504 2278.9975,-41.0343 2284.5898,-45.2446"/>
<text text-anchor="middle" x="2285.8431" y="-101.3" font-family="Times,serif" font-size="14.00" fill="#000000">of_cell_line</text>
</g>
<!-- cell_line&#45;&gt;participant -->
<g id="edge7" class="edge">
<title>cell_line&#45;&gt;participant</title>
<path fill="none" stroke="#000000" d="M2108.5657,-176.3845C2087.9594,-164.2981 2057.4066,-148.4103 2028.3431,-141 1962.6767,-124.257 1515.4276,-111.2998 1337.8216,-106.7571"/>
<polygon fill="#000000" stroke="#000000" points="1337.8736,-103.2574 1327.7878,-106.5021 1337.6957,-110.2551 1337.8736,-103.2574"/>
<text text-anchor="middle" x="2108.8431" y="-144.8" font-family="Times,serif" font-size="14.00" fill="#000000">of_cell_line</text>
</g>
<!-- cell_line&#45;&gt;sample -->
<g id="edge6" class="edge">
<title>cell_line&#45;&gt;sample</title>
<path fill="none" stroke="#000000" d="M2097.4628,-204.5118C2090.2147,-206.6477 2082.5931,-208.6192 2075.3431,-210 1971.1364,-229.8469 1939.7733,-200.4139 1837.3431,-228 1822.5638,-231.9803 1820.2123,-236.5255 1806.3431,-243 1793.1279,-249.1692 1778.6058,-255.7602 1765.6035,-261.5942"/>
<polygon fill="#000000" stroke="#000000" points="1764.1437,-258.4129 1756.4449,-265.6916 1767.0024,-264.8026 1764.1437,-258.4129"/>
<text text-anchor="middle" x="1877.8431" y="-231.8" font-family="Times,serif" font-size="14.00" fill="#000000">of_cell_line</text>
</g>
<!-- follow_up -->
<g id="node9" class="node">
<title>follow_up</title>
<ellipse fill="none" stroke="#000000" cx="374.3431" cy="-192" rx="55.4913" ry="18"/>
<text text-anchor="middle" x="374.3431" y="-188.3" font-family="Times,serif" font-size="14.00" fill="#000000">follow_up</text>
</g>
<!-- follow_up&#45;&gt;participant -->
<g id="edge26" class="edge">
<title>follow_up&#45;&gt;participant</title>
<path fill="none" stroke="#000000" d="M391.0232,-174.6167C403.6041,-162.7716 421.9607,-148.0125 441.3431,-141 510.8814,-115.8414 1004.7316,-107.8443 1192.8341,-105.6942"/>
<polygon fill="#000000" stroke="#000000" points="1192.9415,-109.1933 1202.9017,-105.5814 1192.863,-102.1937 1192.9415,-109.1933"/>
<text text-anchor="middle" x="486.3431" y="-144.8" font-family="Times,serif" font-size="14.00" fill="#000000">of_follow_up</text>
</g>
<!-- pathology_file -->
<g id="node10" class="node">
<title>pathology_file</title>
<ellipse fill="none" stroke="#000000" cx="966.3431" cy="-453" rx="76.0865" ry="18"/>
<text text-anchor="middle" x="966.3431" y="-449.3" font-family="Times,serif" font-size="14.00" fill="#000000">pathology_file</text>
</g>
<!-- pathology_file&#45;&gt;pdx -->
<g id="edge12" class="edge">
<title>pathology_file&#45;&gt;pdx</title>
<path fill="none" stroke="#000000" d="M1015.8961,-439.2659C1062.3598,-427.0572 1133.9758,-409.9476 1197.3431,-402 1320.4432,-386.5606 1634.2303,-410.9013 1755.3431,-384 1758.7773,-383.2372 1762.2819,-382.1986 1765.7295,-381.0026"/>
<polygon fill="#000000" stroke="#000000" points="1767.1441,-384.2078 1775.1891,-377.3136 1764.6008,-377.6861 1767.1441,-384.2078"/>
<text text-anchor="middle" x="1258.3431" y="-405.8" font-family="Times,serif" font-size="14.00" fill="#000000">of_pathology_file</text>
</g>
<!-- pathology_file&#45;&gt;cell_line -->
<g id="edge11" class="edge">
<title>pathology_file&#45;&gt;cell_line</title>
<path fill="none" stroke="#000000" d="M924.0441,-437.8783C863.7836,-414.0956 765.0544,-365.4376 808.3431,-315 891.365,-218.2677 1248.3728,-239.3278 1375.3431,-228 1530.3345,-214.1723 1921.8067,-235.3 2075.3431,-210 2079.4978,-209.3154 2083.7678,-208.4063 2088.0159,-207.3594"/>
<polygon fill="#000000" stroke="#000000" points="2089.0844,-210.6963 2097.8242,-204.7075 2087.2573,-203.9389 2089.0844,-210.6963"/>
<text text-anchor="middle" x="869.3431" y="-318.8" font-family="Times,serif" font-size="14.00" fill="#000000">of_pathology_file</text>
</g>
<!-- pathology_file&#45;&gt;sample -->
<g id="edge10" class="edge">
<title>pathology_file&#45;&gt;sample</title>
<path fill="none" stroke="#000000" d="M977.7535,-434.9911C999.2382,-403.0646 1049.1764,-337.7621 1111.3431,-315 1163.1507,-296.0309 1530.9721,-284.2531 1671.7358,-280.3972"/>
<polygon fill="#000000" stroke="#000000" points="1671.967,-283.8923 1681.8685,-280.1226 1671.7773,-276.8949 1671.967,-283.8923"/>
<text text-anchor="middle" x="1116.3431" y="-362.3" font-family="Times,serif" font-size="14.00" fill="#000000">of_pathology_file</text>
</g>
<!-- therapeutic_procedure -->
<g id="node11" class="node">
<title>therapeutic_procedure</title>
<ellipse fill="none" stroke="#000000" cx="565.3431" cy="-192" rx="117.7793" ry="18"/>
<text text-anchor="middle" x="565.3431" y="-188.3" font-family="Times,serif" font-size="14.00" fill="#000000">therapeutic_procedure</text>
</g>
<!-- therapeutic_procedure&#45;&gt;participant -->
<g id="edge13" class="edge">
<title>therapeutic_procedure&#45;&gt;participant</title>
<path fill="none" stroke="#000000" d="M546.1749,-173.8994C537.2804,-163.3646 530.4365,-150.3592 539.3431,-141 561.6249,-117.586 1013.3209,-108.5903 1192.7678,-105.9319"/>
<polygon fill="#000000" stroke="#000000" points="1192.9575,-109.4296 1202.9055,-105.7841 1192.8555,-102.4303 1192.9575,-109.4296"/>
<text text-anchor="middle" x="632.3431" y="-144.8" font-family="Times,serif" font-size="14.00" fill="#000000">of_therapeutic_procedure</text>
</g>
<!-- participant&#45;&gt;study -->
<g id="edge28" class="edge">
<title>participant&#45;&gt;study</title>
<path fill="none" stroke="#000000" d="M1325.4628,-99.9465C1513.3144,-84.156 2086.7001,-35.9584 2254.0377,-21.8923"/>
<polygon fill="#000000" stroke="#000000" points="2254.5643,-25.3605 2264.2359,-21.0351 2253.9779,-18.3851 2254.5643,-25.3605"/>
<text text-anchor="middle" x="1895.8431" y="-57.8" font-family="Times,serif" font-size="14.00" fill="#000000">of_participant</text>
</g>
<!-- medical_history -->
<g id="node13" class="node">
<title>medical_history</title>
<ellipse fill="none" stroke="#000000" cx="824.3431" cy="-192" rx="85.2851" ry="18"/>
<text text-anchor="middle" x="824.3431" y="-188.3" font-family="Times,serif" font-size="14.00" fill="#000000">medical_history</text>
</g>
<!-- medical_history&#45;&gt;participant -->
<g id="edge20" class="edge">
<title>medical_history&#45;&gt;participant</title>
<path fill="none" stroke="#000000" d="M842.5759,-174.1774C855.6003,-162.6109 874.1515,-148.3663 893.3431,-141 946.3296,-120.6621 1100.618,-111.3091 1193.0115,-107.4251"/>
<polygon fill="#000000" stroke="#000000" points="1193.2841,-110.917 1203.1327,-107.011 1192.9979,-103.9228 1193.2841,-110.917"/>
<text text-anchor="middle" x="961.3431" y="-144.8" font-family="Times,serif" font-size="14.00" fill="#000000">of_medical_history</text>
</g>
<!-- sequencing_file -->
<g id="node14" class="node">
<title>sequencing_file</title>
<ellipse fill="none" stroke="#000000" cx="2330.3431" cy="-453" rx="83.3857" ry="18"/>
<text text-anchor="middle" x="2330.3431" y="-449.3" font-family="Times,serif" font-size="14.00" fill="#000000">sequencing_file</text>
</g>
<!-- sequencing_file&#45;&gt;pdx -->
<g id="edge33" class="edge">
<title>sequencing_file&#45;&gt;pdx</title>
<path fill="none" stroke="#000000" d="M2261.7428,-442.7921C2175.6015,-429.8305 2023.3374,-406.4449 1893.3431,-384 1873.7874,-380.6235 1852.0486,-376.5723 1834.2097,-373.169"/>
<polygon fill="#000000" stroke="#000000" points="1834.6834,-369.6962 1824.2031,-371.2501 1833.3649,-376.5709 1834.6834,-369.6962"/>
<text text-anchor="middle" x="2151.8431" y="-405.8" font-family="Times,serif" font-size="14.00" fill="#000000">of_sequencing_file</text>
</g>
<!-- sequencing_file&#45;&gt;cell_line -->
<g id="edge34" class="edge">
<title>sequencing_file&#45;&gt;cell_line</title>
<path fill="none" stroke="#000000" d="M2383.4889,-439.118C2436.2074,-422.5424 2505.378,-391.4964 2477.3431,-348 2413.7191,-249.2867 2270.7604,-212.3409 2190.6053,-199.0515"/>
<polygon fill="#000000" stroke="#000000" points="2191.1019,-195.5865 2180.6764,-197.4731 2190.0029,-202.4997 2191.1019,-195.5865"/>
<text text-anchor="middle" x="2529.8431" y="-318.8" font-family="Times,serif" font-size="14.00" fill="#000000">of_sequencing_file</text>
</g>
<!-- sequencing_file&#45;&gt;sample -->
<g id="edge32" class="edge">
<title>sequencing_file&#45;&gt;sample</title>
<path fill="none" stroke="#000000" d="M2335.0207,-434.6488C2341.3987,-404.8187 2348.6449,-346.0298 2316.3431,-315 2297.2102,-296.6205 1923.8913,-284.4411 1781.1735,-280.4402"/>
<polygon fill="#000000" stroke="#000000" points="1780.9946,-276.934 1770.9014,-280.1552 1780.8005,-283.9313 1780.9946,-276.934"/>
<text text-anchor="middle" x="2406.8431" y="-362.3" font-family="Times,serif" font-size="14.00" fill="#000000">of_sequencing_file</text>
</g>
<!-- synonym -->
<g id="node15" class="node">
<title>synonym</title>
<ellipse fill="none" stroke="#000000" cx="711.3431" cy="-366" rx="51.9908" ry="18"/>
<text text-anchor="middle" x="711.3431" y="-362.3" font-family="Times,serif" font-size="14.00" fill="#000000">synonym</text>
</g>
<!-- synonym&#45;&gt;study -->
<g id="edge5" class="edge">
<title>synonym&#45;&gt;study</title>
<path fill="none" stroke="#000000" d="M660.2338,-362.3415C533.7622,-352.6062 216.3431,-323.7181 216.3431,-279 216.3431,-279 216.3431,-279 216.3431,-105 216.3431,-78.6205 1944.3391,-28.1448 2253.342,-19.3295"/>
<polygon fill="#000000" stroke="#000000" points="2253.8342,-22.817 2263.7304,-19.0336 2253.6348,-15.8198 2253.8342,-22.817"/>
<text text-anchor="middle" x="258.8431" y="-188.3" font-family="Times,serif" font-size="14.00" fill="#000000">of_synonym</text>
</g>
<!-- synonym&#45;&gt;participant -->
<g id="edge4" class="edge">
<title>synonym&#45;&gt;participant</title>
<path fill="none" stroke="#000000" d="M706.3273,-347.832C696.9091,-309.255 681.6411,-219.0196 730.3431,-174 775.066,-132.6587 803.2795,-151.0793 863.3431,-141 977.8251,-121.7887 1112.4853,-112.3659 1193.2659,-108.1079"/>
<polygon fill="#000000" stroke="#000000" points="1193.5227,-111.5994 1203.3293,-107.5896 1193.1625,-104.6087 1193.5227,-111.5994"/>
<text text-anchor="middle" x="743.8431" y="-231.8" font-family="Times,serif" font-size="14.00" fill="#000000">of_synonym</text>
</g>
<!-- synonym&#45;&gt;sample -->
<g id="edge3" class="edge">
<title>synonym&#45;&gt;sample</title>
<path fill="none" stroke="#000000" d="M760.8898,-360.4342C816.6668,-353.7422 903.5269,-341.9163 934.3431,-330 945.7258,-325.5985 945.7296,-318.7501 957.3431,-315 1024.7039,-293.2485 1507.1985,-282.844 1671.623,-279.9021"/>
<polygon fill="#000000" stroke="#000000" points="1672.049,-283.3952 1681.9856,-279.7191 1671.9253,-276.3963 1672.049,-283.3952"/>
<text text-anchor="middle" x="999.8431" y="-318.8" font-family="Times,serif" font-size="14.00" fill="#000000">of_synonym</text>
</g>
<!-- study_arm -->
<g id="node16" class="node">
<title>study_arm</title>
<ellipse fill="none" stroke="#000000" cx="2635.3431" cy="-105" rx="59.5901" ry="18"/>
<text text-anchor="middle" x="2635.3431" y="-101.3" font-family="Times,serif" font-size="14.00" fill="#000000">study_arm</text>
</g>
<!-- study_arm&#45;&gt;study -->
<g id="edge22" class="edge">
<title>study_arm&#45;&gt;study</title>
<path fill="none" stroke="#000000" d="M2610.0399,-88.6784C2591.0504,-77.1941 2564.0133,-62.4239 2538.3431,-54 2473.9773,-32.8777 2395.6959,-24.0707 2346.9312,-20.4517"/>
<polygon fill="#000000" stroke="#000000" points="2346.9105,-16.9418 2336.6908,-19.7361 2346.4224,-23.9248 2346.9105,-16.9418"/>
<text text-anchor="middle" x="2619.8431" y="-57.8" font-family="Times,serif" font-size="14.00" fill="#000000">of_study_arm</text>
</g>
<!-- cytogenomic_file -->
<g id="node17" class="node">
<title>cytogenomic_file</title>
<ellipse fill="none" stroke="#000000" cx="1965.3431" cy="-453" rx="89.8845" ry="18"/>
<text text-anchor="middle" x="1965.3431" y="-449.3" font-family="Times,serif" font-size="14.00" fill="#000000">cytogenomic_file</text>
</g>
<!-- cytogenomic_file&#45;&gt;pdx -->
<g id="edge29" class="edge">
<title>cytogenomic_file&#45;&gt;pdx</title>
<path fill="none" stroke="#000000" d="M1889.0468,-443.3519C1855.0708,-437.5252 1820.0811,-428.8912 1808.3431,-417 1802.4373,-411.0171 1799.368,-402.6689 1797.8546,-394.4568"/>
<polygon fill="#000000" stroke="#000000" points="1801.307,-393.8439 1796.6735,-384.3159 1794.354,-394.6538 1801.307,-393.8439"/>
<text text-anchor="middle" x="1879.8431" y="-405.8" font-family="Times,serif" font-size="14.00" fill="#000000">of_cytogenomic_file</text>
</g>
<!-- cytogenomic_file&#45;&gt;cell_line -->
<g id="edge30" class="edge">
<title>cytogenomic_file&#45;&gt;cell_line</title>
<path fill="none" stroke="#000000" d="M2051.1264,-447.6129C2095.9653,-442.8149 2144.3766,-433.8125 2158.3431,-417 2205.7054,-359.9864 2169.7207,-264.871 2147.4842,-218.7299"/>
<polygon fill="#000000" stroke="#000000" points="2150.5631,-217.0606 2142.9827,-209.6586 2144.2927,-220.1722 2150.5631,-217.0606"/>
<text text-anchor="middle" x="2251.8431" y="-318.8" font-family="Times,serif" font-size="14.00" fill="#000000">of_cytogenomic_file</text>
</g>
<!-- cytogenomic_file&#45;&gt;sample -->
<g id="edge31" class="edge">
<title>cytogenomic_file&#45;&gt;sample</title>
<path fill="none" stroke="#000000" d="M1962.7431,-434.6012C1960.7264,-424.4618 1957.2427,-411.9517 1951.3431,-402 1922.9727,-354.1437 1909.7737,-342.3786 1861.3431,-315 1835.9908,-300.6679 1804.7247,-291.8608 1778.6682,-286.5486"/>
<polygon fill="#000000" stroke="#000000" points="1779.0739,-283.0626 1768.5932,-284.6132 1777.7533,-289.937 1779.0739,-283.0626"/>
<text text-anchor="middle" x="2011.8431" y="-362.3" font-family="Times,serif" font-size="14.00" fill="#000000">of_cytogenomic_file</text>
</g>
<!-- exposure -->
<g id="node18" class="node">
<title>exposure</title>
<ellipse fill="none" stroke="#000000" cx="1108.3431" cy="-192" rx="53.0913" ry="18"/>
<text text-anchor="middle" x="1108.3431" y="-188.3" font-family="Times,serif" font-size="14.00" fill="#000000">exposure</text>
</g>
<!-- exposure&#45;&gt;participant -->
<g id="edge18" class="edge">
<title>exposure&#45;&gt;participant</title>
<path fill="none" stroke="#000000" d="M1127.2512,-175.0691C1139.9272,-164.3216 1157.3521,-150.6676 1174.3431,-141 1186.8201,-133.9009 1200.9738,-127.5663 1214.3383,-122.2649"/>
<polygon fill="#000000" stroke="#000000" points="1215.8169,-125.4463 1223.8951,-118.5912 1213.3051,-118.9125 1215.8169,-125.4463"/>
<text text-anchor="middle" x="1217.8431" y="-144.8" font-family="Times,serif" font-size="14.00" fill="#000000">of_exposure</text>
</g>
<!-- family_relationship -->
<g id="node19" class="node">
<title>family_relationship</title>
<ellipse fill="none" stroke="#000000" cx="1279.3431" cy="-192" rx="100.1823" ry="18"/>
<text text-anchor="middle" x="1279.3431" y="-188.3" font-family="Times,serif" font-size="14.00" fill="#000000">family_relationship</text>
</g>
<!-- family_relationship&#45;&gt;participant -->
<g id="edge1" class="edge">
<title>family_relationship&#45;&gt;participant</title>
<path fill="none" stroke="#000000" d="M1271.5435,-174.0075C1269.4481,-168.3513 1267.4561,-162.0113 1266.3431,-156 1264.9843,-148.6609 1264.4118,-140.6264 1264.2552,-133.1499"/>
<polygon fill="#000000" stroke="#000000" points="1267.7552,-133.0884 1264.272,-123.0825 1260.7552,-133.0766 1267.7552,-133.0884"/>
<text text-anchor="middle" x="1345.8431" y="-144.8" font-family="Times,serif" font-size="14.00" fill="#000000">of_family_relationship</text>
</g>
<!-- single_cell_sequencing_file -->
<g id="node20" class="node">
<title>single_cell_sequencing_file</title>
<ellipse fill="none" stroke="#000000" cx="1567.3431" cy="-453" rx="137.5759" ry="18"/>
<text text-anchor="middle" x="1567.3431" y="-449.3" font-family="Times,serif" font-size="14.00" fill="#000000">single_cell_sequencing_file</text>
</g>
<!-- single_cell_sequencing_file&#45;&gt;pdx -->
<g id="edge41" class="edge">
<title>single_cell_sequencing_file&#45;&gt;pdx</title>
<path fill="none" stroke="#000000" d="M1566.6826,-434.7726C1567.3276,-423.6407 1570.1862,-410.0444 1579.3431,-402 1608.8794,-376.0522 1717.2836,-393.8564 1755.3431,-384 1758.7486,-383.1181 1762.2345,-382.0016 1765.6708,-380.7583"/>
<polygon fill="#000000" stroke="#000000" points="1767.1132,-383.9514 1775.1156,-377.008 1764.5298,-377.4456 1767.1132,-383.9514"/>
<text text-anchor="middle" x="1687.8431" y="-405.8" font-family="Times,serif" font-size="14.00" fill="#000000">of_single_cell_sequencing_file</text>
</g>
<!-- single_cell_sequencing_file&#45;&gt;cell_line -->
<g id="edge42" class="edge">
<title>single_cell_sequencing_file&#45;&gt;cell_line</title>
<path fill="none" stroke="#000000" d="M1692.9134,-445.5237C1858.8134,-435.5727 2130.4752,-418.9907 2132.3431,-417 2158.4995,-389.124 2145.6478,-380.3704 2087.3431,-348 2036.3466,-319.687 1995.6553,-373.9824 1957.3431,-330 1911.0362,-276.8395 2018.953,-229.6675 2085.619,-206.7314"/>
<polygon fill="#000000" stroke="#000000" points="2086.7738,-210.0358 2095.1324,-203.5255 2084.5383,-203.4023 2086.7738,-210.0358"/>
<text text-anchor="middle" x="2065.8431" y="-318.8" font-family="Times,serif" font-size="14.00" fill="#000000">of_single_cell_sequencing_file</text>
</g>
<!-- single_cell_sequencing_file&#45;&gt;sample -->
<g id="edge40" class="edge">
<title>single_cell_sequencing_file&#45;&gt;sample</title>
<path fill="none" stroke="#000000" d="M1555.3773,-435.048C1542.1704,-412.7577 1525.0471,-374.4519 1543.3431,-348 1559.1545,-325.1404 1629.5898,-303.2985 1678.3143,-290.5223"/>
<polygon fill="#000000" stroke="#000000" points="1679.2403,-293.8981 1688.0506,-288.0134 1677.4936,-287.1195 1679.2403,-293.8981"/>
<text text-anchor="middle" x="1651.8431" y="-362.3" font-family="Times,serif" font-size="14.00" fill="#000000">of_single_cell_sequencing_file</text>
</g>
<!-- sample&#45;&gt;pdx -->
<g id="edge16" class="edge">
<title>sample&#45;&gt;pdx</title>
<path fill="none" stroke="#000000" d="M1751.6839,-293.7861C1760.033,-299.5866 1768.8354,-306.823 1775.3431,-315 1780.8928,-321.9732 1785.3028,-330.5587 1788.6727,-338.6834"/>
<polygon fill="#000000" stroke="#000000" points="1785.4685,-340.1059 1792.274,-348.2259 1792.0176,-337.6342 1785.4685,-340.1059"/>
<text text-anchor="middle" x="1820.8431" y="-318.8" font-family="Times,serif" font-size="14.00" fill="#000000">of_sample</text>
</g>
<!-- sample&#45;&gt;cell_line -->
<g id="edge15" class="edge">
<title>sample&#45;&gt;cell_line</title>
<path fill="none" stroke="#000000" d="M1721.9924,-260.9982C1720.484,-249.9562 1720.9107,-236.3755 1729.3431,-228 1756.6563,-200.8713 2037.4444,-216.7574 2075.3431,-210 2079.4885,-209.2609 2083.752,-208.3143 2087.9959,-207.243"/>
<polygon fill="#000000" stroke="#000000" points="2089.0794,-210.5751 2097.7982,-204.5557 2087.2286,-203.8242 2089.0794,-210.5751"/>
<text text-anchor="middle" x="1765.8431" y="-231.8" font-family="Times,serif" font-size="14.00" fill="#000000">of_sample</text>
</g>
<!-- sample&#45;&gt;participant -->
<g id="edge14" class="edge">
<title>sample&#45;&gt;participant</title>
<path fill="none" stroke="#000000" d="M1689.4816,-268.9634C1658.746,-258.8173 1615.8433,-240.2459 1589.3431,-210 1567.9463,-185.5788 1590.636,-161.3591 1565.3431,-141 1547.8625,-126.9292 1419.7186,-115.5847 1336.6583,-109.6084"/>
<polygon fill="#000000" stroke="#000000" points="1336.7344,-106.1051 1326.5118,-108.8888 1336.2391,-113.0876 1336.7344,-106.1051"/>
<text text-anchor="middle" x="1625.8431" y="-188.3" font-family="Times,serif" font-size="14.00" fill="#000000">of_sample</text>
</g>
<!-- radiology_file -->
<g id="node22" class="node">
<title>radiology_file</title>
<ellipse fill="none" stroke="#000000" cx="1471.3431" cy="-192" rx="73.387" ry="18"/>
<text text-anchor="middle" x="1471.3431" y="-188.3" font-family="Times,serif" font-size="14.00" fill="#000000">radiology_file</text>
</g>
<!-- radiology_file&#45;&gt;participant -->
<g id="edge35" class="edge">
<title>radiology_file&#45;&gt;participant</title>
<path fill="none" stroke="#000000" d="M1459.3567,-173.7866C1451.0929,-162.6602 1439.1361,-149.065 1425.3431,-141 1409.1672,-131.5416 1367.3276,-122.2925 1330.4911,-115.5379"/>
<polygon fill="#000000" stroke="#000000" points="1330.7206,-112.0232 1320.2594,-113.7008 1329.4835,-118.913 1330.7206,-112.0232"/>
<text text-anchor="middle" x="1502.3431" y="-144.8" font-family="Times,serif" font-size="14.00" fill="#000000">of_radiology_file</text>
</g>
<!-- publication -->
<g id="node23" class="node">
<title>publication</title>
<ellipse fill="none" stroke="#000000" cx="2776.3431" cy="-105" rx="63.0888" ry="18"/>
<text text-anchor="middle" x="2776.3431" y="-101.3" font-family="Times,serif" font-size="14.00" fill="#000000">publication</text>
</g>
<!-- publication&#45;&gt;study -->
<g id="edge9" class="edge">
<title>publication&#45;&gt;study</title>
<path fill="none" stroke="#000000" d="M2749.6137,-88.5457C2729.2187,-76.8364 2700.0101,-61.842 2672.3431,-54 2612.3419,-36.993 2432.695,-25.2283 2346.9203,-20.4226"/>
<polygon fill="#000000" stroke="#000000" points="2346.8708,-16.9146 2336.6929,-19.8577 2346.4847,-23.904 2346.8708,-16.9146"/>
<text text-anchor="middle" x="2761.3431" y="-57.8" font-family="Times,serif" font-size="14.00" fill="#000000">of_publication</text>
</g>
<!-- study_admin -->
<g id="node24" class="node">
<title>study_admin</title>
<ellipse fill="none" stroke="#000000" cx="2927.3431" cy="-105" rx="70.3881" ry="18"/>
<text text-anchor="middle" x="2927.3431" y="-101.3" font-family="Times,serif" font-size="14.00" fill="#000000">study_admin</text>
</g>
<!-- study_admin&#45;&gt;study -->
<g id="edge19" class="edge">
<title>study_admin&#45;&gt;study</title>
<path fill="none" stroke="#000000" d="M2898.7291,-88.3505C2876.9176,-76.5416 2845.7259,-61.5081 2816.3431,-54 2728.2636,-31.4933 2456.7426,-22.069 2347.0404,-19.1117"/>
<polygon fill="#000000" stroke="#000000" points="2347.0296,-15.6103 2336.9408,-18.8455 2346.8451,-22.6079 2347.0296,-15.6103"/>
<text text-anchor="middle" x="2913.8431" y="-57.8" font-family="Times,serif" font-size="14.00" fill="#000000">of_study_admin</text>
</g>
<!-- clinical_measure_file -->
<g id="node25" class="node">
<title>clinical_measure_file</title>
<ellipse fill="none" stroke="#000000" cx="1957.3431" cy="-192" rx="108.5808" ry="18"/>
<text text-anchor="middle" x="1957.3431" y="-188.3" font-family="Times,serif" font-size="14.00" fill="#000000">clinical_measure_file</text>
</g>
<!-- clinical_measure_file&#45;&gt;study -->
<g id="edge27" class="edge">
<title>clinical_measure_file&#45;&gt;study</title>
<path fill="none" stroke="#000000" d="M2001.6034,-175.3812C2010.2409,-170.3313 2018.437,-163.9497 2024.3431,-156 2043.0043,-130.8818 2016.8599,-109.7515 2038.3431,-87 2067.7321,-55.876 2187.7724,-34.1298 2254.704,-24.1597"/>
<polygon fill="#000000" stroke="#000000" points="2255.5787,-27.5692 2264.9681,-22.6611 2254.5673,-20.6427 2255.5787,-27.5692"/>
<text text-anchor="middle" x="2124.3431" y="-101.3" font-family="Times,serif" font-size="14.00" fill="#000000">of_clinical_measure_file</text>
</g>
<!-- clinical_measure_file&#45;&gt;participant -->
<g id="edge2" class="edge">
<title>clinical_measure_file&#45;&gt;participant</title>
<path fill="none" stroke="#000000" d="M1876.1991,-180.0218C1833.2994,-173.0485 1785.4474,-164.0678 1765.3431,-156 1754.0171,-151.4549 1753.902,-144.9155 1742.3431,-141 1669.5213,-116.3318 1452.5016,-108.5148 1337.9735,-106.0775"/>
<polygon fill="#000000" stroke="#000000" points="1337.9601,-102.5766 1327.8906,-105.8712 1337.8168,-109.5751 1337.9601,-102.5766"/>
<text text-anchor="middle" x="1894.8431" y="-144.8" font-family="Times,serif" font-size="14.00" fill="#000000">of_clinical_measure_file_participant</text>
</g>
</g>
</svg>
