<svg width="2784pt" height="305pt"
 viewBox="0.00 0.00 2784.48 305.00" xmlns="http://www.w3.org/2000/svg" xmlns:xlink="http://www.w3.org/1999/xlink">
<g id="graph0" class="graph" transform="scale(1 1) rotate(0) translate(4 301)">
<title>Perl</title>
<polygon fill="#ffffff" stroke="transparent" points="-4,4 -4,-301 2780.4844,-301 2780.4844,4 -4,4"/>
<!-- study_arm -->
<g id="node1" class="node">
<title>study_arm</title>
<ellipse fill="none" stroke="#000000" cx="59.7947" cy="-105" rx="59.5901" ry="18"/>
<text text-anchor="middle" x="59.7947" y="-101.3" font-family="Times,serif" font-size="14.00" fill="#000000">study_arm</text>
</g>
<!-- study -->
<g id="node8" class="node">
<title>study</title>
<ellipse fill="none" stroke="#000000" cx="1529.7947" cy="-18" rx="36.2938" ry="18"/>
<text text-anchor="middle" x="1529.7947" y="-14.3" font-family="Times,serif" font-size="14.00" fill="#000000">study</text>
</g>
<!-- study_arm&#45;&gt;study -->
<g id="edge28" class="edge">
<title>study_arm&#45;&gt;study</title>
<path fill="none" stroke="#000000" d="M54.5564,-87.0228C52.5425,-75.9907 52.4241,-62.4117 60.7947,-54 86.4762,-28.1924 1235.1036,-19.782 1482.9689,-18.2661"/>
<polygon fill="#000000" stroke="#000000" points="1483.1074,-21.7654 1493.086,-18.205 1483.065,-14.7655 1483.1074,-21.7654"/>
<text text-anchor="middle" x="109.2947" y="-57.8" font-family="Times,serif" font-size="14.00" fill="#000000">of_study_arm</text>
</g>
<!-- cytogenomic_file -->
<g id="node2" class="node">
<title>cytogenomic_file</title>
<ellipse fill="none" stroke="#000000" cx="2437.7947" cy="-279" rx="89.8845" ry="18"/>
<text text-anchor="middle" x="2437.7947" y="-275.3" font-family="Times,serif" font-size="14.00" fill="#000000">cytogenomic_file</text>
</g>
<!-- sample -->
<g id="node19" class="node">
<title>sample</title>
<ellipse fill="none" stroke="#000000" cx="2132.7947" cy="-192" rx="44.393" ry="18"/>
<text text-anchor="middle" x="2132.7947" y="-188.3" font-family="Times,serif" font-size="14.00" fill="#000000">sample</text>
</g>
<!-- cytogenomic_file&#45;&gt;sample -->
<g id="edge16" class="edge">
<title>cytogenomic_file&#45;&gt;sample</title>
<path fill="none" stroke="#000000" d="M2418.8265,-261.2721C2405.5492,-249.9017 2386.8409,-235.8475 2367.7947,-228 2335.8441,-214.8356 2245.1504,-203.4907 2186.2293,-197.2171"/>
<polygon fill="#000000" stroke="#000000" points="2186.2898,-193.7044 2175.9793,-196.1427 2185.5599,-200.6662 2186.2898,-193.7044"/>
<text text-anchor="middle" x="2465.2947" y="-231.8" font-family="Times,serif" font-size="14.00" fill="#000000">of_cytogenomic_file</text>
</g>
<!-- clinical_measure_file -->
<g id="node3" class="node">
<title>clinical_measure_file</title>
<ellipse fill="none" stroke="#000000" cx="308.7947" cy="-192" rx="108.5808" ry="18"/>
<text text-anchor="middle" x="308.7947" y="-188.3" font-family="Times,serif" font-size="14.00" fill="#000000">clinical_measure_file</text>
</g>
<!-- clinical_measure_file&#45;&gt;study -->
<g id="edge12" class="edge">
<title>clinical_measure_file&#45;&gt;study</title>
<path fill="none" stroke="#000000" d="M317.752,-173.7728C324.3905,-162.3415 334.5708,-148.4111 347.7947,-141 448.5189,-84.5507 1276.9077,-32.7726 1483.3374,-20.6605"/>
<polygon fill="#000000" stroke="#000000" points="1483.755,-24.1421 1493.5338,-20.0648 1483.3467,-17.154 1483.755,-24.1421"/>
<text text-anchor="middle" x="723.7947" y="-101.3" font-family="Times,serif" font-size="14.00" fill="#000000">of_clinical_measure_file</text>
</g>
<!-- participant -->
<g id="node25" class="node">
<title>participant</title>
<ellipse fill="none" stroke="#000000" cx="1348.7947" cy="-105" rx="62.2891" ry="18"/>
<text text-anchor="middle" x="1348.7947" y="-101.3" font-family="Times,serif" font-size="14.00" fill="#000000">participant</text>
</g>
<!-- clinical_measure_file&#45;&gt;participant -->
<g id="edge11" class="edge">
<title>clinical_measure_file&#45;&gt;participant</title>
<path fill="none" stroke="#000000" d="M326.6124,-174.0666C339.5894,-162.2898 358.2522,-147.8423 377.7947,-141 461.6514,-111.6399 1065.0924,-106.2227 1276.1443,-105.2248"/>
<polygon fill="#000000" stroke="#000000" points="1276.2098,-108.7247 1286.1938,-105.1793 1276.178,-101.7247 1276.2098,-108.7247"/>
<text text-anchor="middle" x="463.7947" y="-144.8" font-family="Times,serif" font-size="14.00" fill="#000000">of_clinical_measure_file</text>
</g>
<!-- family_relationship -->
<g id="node4" class="node">
<title>family_relationship</title>
<ellipse fill="none" stroke="#000000" cx="535.7947" cy="-192" rx="100.1823" ry="18"/>
<text text-anchor="middle" x="535.7947" y="-188.3" font-family="Times,serif" font-size="14.00" fill="#000000">family_relationship</text>
</g>
<!-- family_relationship&#45;&gt;participant -->
<g id="edge3" class="edge">
<title>family_relationship&#45;&gt;participant</title>
<path fill="none" stroke="#000000" d="M542.4356,-173.8493C547.6957,-162.2954 556.2657,-148.1954 568.7947,-141 599.1673,-123.5571 1088.9844,-110.8125 1276.5254,-106.5506"/>
<polygon fill="#000000" stroke="#000000" points="1276.6468,-110.0488 1286.5653,-106.324 1276.4888,-103.0506 1276.6468,-110.0488"/>
<text text-anchor="middle" x="648.2947" y="-144.8" font-family="Times,serif" font-size="14.00" fill="#000000">of_family_relationship</text>
</g>
<!-- radiology_file -->
<g id="node5" class="node">
<title>radiology_file</title>
<ellipse fill="none" stroke="#000000" cx="727.7947" cy="-192" rx="73.387" ry="18"/>
<text text-anchor="middle" x="727.7947" y="-188.3" font-family="Times,serif" font-size="14.00" fill="#000000">radiology_file</text>
</g>
<!-- radiology_file&#45;&gt;participant -->
<g id="edge21" class="edge">
<title>radiology_file&#45;&gt;participant</title>
<path fill="none" stroke="#000000" d="M727.3868,-173.8533C728.1875,-162.6067 731.2825,-148.8536 740.7947,-141 761.1532,-124.1914 1119.8706,-111.6966 1276.5563,-107.0165"/>
<polygon fill="#000000" stroke="#000000" points="1276.6871,-110.5142 1286.579,-106.7195 1276.4797,-103.5173 1276.6871,-110.5142"/>
<text text-anchor="middle" x="799.7947" y="-144.8" font-family="Times,serif" font-size="14.00" fill="#000000">of_radiology_file</text>
</g>
<!-- study_funding -->
<g id="node6" class="node">
<title>study_funding</title>
<ellipse fill="none" stroke="#000000" cx="1697.7947" cy="-105" rx="77.1866" ry="18"/>
<text text-anchor="middle" x="1697.7947" y="-101.3" font-family="Times,serif" font-size="14.00" fill="#000000">study_funding</text>
</g>
<!-- study_funding&#45;&gt;study -->
<g id="edge29" class="edge">
<title>study_funding&#45;&gt;study</title>
<path fill="none" stroke="#000000" d="M1673.2575,-87.7335C1657.7666,-77.2468 1637.1004,-64 1617.7947,-54 1602.1367,-45.8895 1584.2227,-38.279 1568.6622,-32.1636"/>
<polygon fill="#000000" stroke="#000000" points="1569.9085,-28.893 1559.319,-28.558 1567.3883,-35.4236 1569.9085,-28.893"/>
<text text-anchor="middle" x="1703.7947" y="-57.8" font-family="Times,serif" font-size="14.00" fill="#000000">of_study_funding</text>
</g>
<!-- methylation_array_file -->
<g id="node7" class="node">
<title>methylation_array_file</title>
<ellipse fill="none" stroke="#000000" cx="2660.7947" cy="-279" rx="115.8798" ry="18"/>
<text text-anchor="middle" x="2660.7947" y="-275.3" font-family="Times,serif" font-size="14.00" fill="#000000">methylation_array_file</text>
</g>
<!-- methylation_array_file&#45;&gt;sample -->
<g id="edge2" class="edge">
<title>methylation_array_file&#45;&gt;sample</title>
<path fill="none" stroke="#000000" d="M2627.8925,-261.6849C2604.3108,-250.1136 2571.4305,-235.6577 2540.7947,-228 2475.2323,-211.6122 2282.1078,-199.7137 2186.988,-194.6723"/>
<polygon fill="#000000" stroke="#000000" points="2187.161,-191.1766 2176.9915,-194.1486 2186.7947,-198.167 2187.161,-191.1766"/>
<text text-anchor="middle" x="2676.2947" y="-231.8" font-family="Times,serif" font-size="14.00" fill="#000000">of_methylation_array_file</text>
</g>
<!-- survival -->
<g id="node9" class="node">
<title>survival</title>
<ellipse fill="none" stroke="#000000" cx="867.7947" cy="-192" rx="48.1917" ry="18"/>
<text text-anchor="middle" x="867.7947" y="-188.3" font-family="Times,serif" font-size="14.00" fill="#000000">survival</text>
</g>
<!-- survival&#45;&gt;participant -->
<g id="edge27" class="edge">
<title>survival&#45;&gt;participant</title>
<path fill="none" stroke="#000000" d="M862.6162,-173.6714C860.7455,-162.7851 860.7603,-149.4911 868.7947,-141 882.5829,-126.4281 1145.8215,-113.4593 1276.4795,-107.8892"/>
<polygon fill="#000000" stroke="#000000" points="1276.9522,-111.3724 1286.7954,-107.4531 1276.6564,-104.3787 1276.9522,-111.3724"/>
<text text-anchor="middle" x="908.2947" y="-144.8" font-family="Times,serif" font-size="14.00" fill="#000000">of_survival</text>
</g>
<!-- cell_line -->
<g id="node10" class="node">
<title>cell_line</title>
<ellipse fill="none" stroke="#000000" cx="1479.7947" cy="-105" rx="49.2915" ry="18"/>
<text text-anchor="middle" x="1479.7947" y="-101.3" font-family="Times,serif" font-size="14.00" fill="#000000">cell_line</text>
</g>
<!-- cell_line&#45;&gt;study -->
<g id="edge31" class="edge">
<title>cell_line&#45;&gt;study</title>
<path fill="none" stroke="#000000" d="M1473.2329,-87.0131C1470.629,-76.7675 1469.379,-64.0175 1474.7947,-54 1478.9687,-46.2793 1485.5985,-39.9485 1492.8319,-34.8693"/>
<polygon fill="#000000" stroke="#000000" points="1494.8543,-37.733 1501.4896,-29.4733 1491.1517,-31.7924 1494.8543,-37.733"/>
<text text-anchor="middle" x="1515.2947" y="-57.8" font-family="Times,serif" font-size="14.00" fill="#000000">of_cell_line</text>
</g>
<!-- cell_line&#45;&gt;sample -->
<g id="edge30" class="edge">
<title>cell_line&#45;&gt;sample</title>
<path fill="none" stroke="#000000" d="M1515.3191,-117.6746C1522.6632,-119.826 1530.4121,-121.7619 1537.7947,-123 1569.2051,-128.2678 2084.4632,-123.0832 2110.7947,-141 2118.6723,-146.3602 2123.7463,-155.1807 2127.0074,-163.9917"/>
<polygon fill="#000000" stroke="#000000" points="2123.7163,-165.1995 2129.9717,-173.7506 2130.4141,-163.165 2123.7163,-165.1995"/>
<text text-anchor="middle" x="2163.2947" y="-144.8" font-family="Times,serif" font-size="14.00" fill="#000000">of_cell_line</text>
</g>
<!-- study_admin -->
<g id="node11" class="node">
<title>study_admin</title>
<ellipse fill="none" stroke="#000000" cx="1863.7947" cy="-105" rx="70.3881" ry="18"/>
<text text-anchor="middle" x="1863.7947" y="-101.3" font-family="Times,serif" font-size="14.00" fill="#000000">study_admin</text>
</g>
<!-- study_admin&#45;&gt;study -->
<g id="edge10" class="edge">
<title>study_admin&#45;&gt;study</title>
<path fill="none" stroke="#000000" d="M1838.5678,-88.1575C1820.2458,-76.7298 1794.4438,-62.2506 1769.7947,-54 1704.7047,-32.213 1625.2644,-23.5764 1576.0979,-20.1761"/>
<polygon fill="#000000" stroke="#000000" points="1576.2872,-16.6812 1566.0818,-19.5272 1575.8346,-23.6665 1576.2872,-16.6812"/>
<text text-anchor="middle" x="1861.2947" y="-57.8" font-family="Times,serif" font-size="14.00" fill="#000000">of_study_admin</text>
</g>
<!-- medical_history -->
<g id="node12" class="node">
<title>medical_history</title>
<ellipse fill="none" stroke="#000000" cx="1802.7947" cy="-192" rx="85.2851" ry="18"/>
<text text-anchor="middle" x="1802.7947" y="-188.3" font-family="Times,serif" font-size="14.00" fill="#000000">medical_history</text>
</g>
<!-- medical_history&#45;&gt;participant -->
<g id="edge9" class="edge">
<title>medical_history&#45;&gt;participant</title>
<path fill="none" stroke="#000000" d="M1777.2943,-174.7608C1758.4258,-162.9855 1731.6231,-148.2505 1705.7947,-141 1584.0261,-106.8174 1546.8019,-142.2159 1421.7947,-123 1416.0091,-122.1107 1410.0105,-120.9805 1404.0509,-119.7213"/>
<polygon fill="#000000" stroke="#000000" points="1404.6253,-116.2635 1394.1029,-117.5 1403.0998,-123.0952 1404.6253,-116.2635"/>
<text text-anchor="middle" x="1809.7947" y="-144.8" font-family="Times,serif" font-size="14.00" fill="#000000">of_medical_history</text>
</g>
<!-- synonym -->
<g id="node13" class="node">
<title>synonym</title>
<ellipse fill="none" stroke="#000000" cx="951.7947" cy="-279" rx="51.9908" ry="18"/>
<text text-anchor="middle" x="951.7947" y="-275.3" font-family="Times,serif" font-size="14.00" fill="#000000">synonym</text>
</g>
<!-- synonym&#45;&gt;study -->
<g id="edge19" class="edge">
<title>synonym&#45;&gt;study</title>
<path fill="none" stroke="#000000" d="M899.785,-278.249C735.9489,-275.3502 238.549,-262.28 190.7947,-210 180.0039,-198.1865 183.1485,-188.0548 190.7947,-174 220.1459,-120.0482 357.1234,-96.7634 405.7947,-87 617.1015,-44.6119 1298.1025,-24.0578 1483.0628,-19.1689"/>
<polygon fill="#000000" stroke="#000000" points="1483.3616,-22.6624 1493.2666,-18.9018 1483.1784,-15.6648 1483.3616,-22.6624"/>
<text text-anchor="middle" x="269.2947" y="-144.8" font-family="Times,serif" font-size="14.00" fill="#000000">of_synonym</text>
</g>
<!-- synonym&#45;&gt;sample -->
<g id="edge18" class="edge">
<title>synonym&#45;&gt;sample</title>
<path fill="none" stroke="#000000" d="M1003.7475,-277.2782C1158.3547,-271.8014 1628.871,-252.5781 2016.7947,-210 2038.2843,-207.6413 2061.8819,-204.1468 2082.1509,-200.8626"/>
<polygon fill="#000000" stroke="#000000" points="2082.8143,-204.3006 2092.1129,-199.2226 2081.6771,-197.3936 2082.8143,-204.3006"/>
<text text-anchor="middle" x="1855.2947" y="-231.8" font-family="Times,serif" font-size="14.00" fill="#000000">of_synonym</text>
</g>
<!-- synonym&#45;&gt;participant -->
<g id="edge17" class="edge">
<title>synonym&#45;&gt;participant</title>
<path fill="none" stroke="#000000" d="M947.365,-260.8176C942.883,-237.5659 939.3251,-197.5059 960.7947,-174 1002.1697,-128.7008 1175.9931,-113.0072 1276.3858,-107.6702"/>
<polygon fill="#000000" stroke="#000000" points="1276.6525,-111.1613 1286.4611,-107.1562 1276.2957,-104.1704 1276.6525,-111.1613"/>
<text text-anchor="middle" x="1003.2947" y="-188.3" font-family="Times,serif" font-size="14.00" fill="#000000">of_synonym</text>
</g>
<!-- publication -->
<g id="node14" class="node">
<title>publication</title>
<ellipse fill="none" stroke="#000000" cx="2014.7947" cy="-105" rx="63.0888" ry="18"/>
<text text-anchor="middle" x="2014.7947" y="-101.3" font-family="Times,serif" font-size="14.00" fill="#000000">publication</text>
</g>
<!-- publication&#45;&gt;study -->
<g id="edge1" class="edge">
<title>publication&#45;&gt;study</title>
<path fill="none" stroke="#000000" d="M1990.7698,-88.2133C1972.6802,-76.4979 1946.8012,-61.6421 1921.7947,-54 1858.3758,-34.6188 1665.8377,-23.9341 1576.3885,-19.8986"/>
<polygon fill="#000000" stroke="#000000" points="1576.4078,-16.3961 1566.2628,-19.4504 1576.0982,-23.3892 1576.4078,-16.3961"/>
<text text-anchor="middle" x="2006.7947" y="-57.8" font-family="Times,serif" font-size="14.00" fill="#000000">of_publication</text>
</g>
<!-- study_personnel -->
<g id="node15" class="node">
<title>study_personnel</title>
<ellipse fill="none" stroke="#000000" cx="2182.7947" cy="-105" rx="87.1846" ry="18"/>
<text text-anchor="middle" x="2182.7947" y="-101.3" font-family="Times,serif" font-size="14.00" fill="#000000">study_personnel</text>
</g>
<!-- study_personnel&#45;&gt;study -->
<g id="edge8" class="edge">
<title>study_personnel&#45;&gt;study</title>
<path fill="none" stroke="#000000" d="M2150.9175,-88.1178C2127.0738,-76.3549 2093.2895,-61.4817 2061.7947,-54 1970.2898,-32.2628 1688.8803,-22.3523 1576.6817,-19.1886"/>
<polygon fill="#000000" stroke="#000000" points="1576.4571,-15.6812 1566.3641,-18.9034 1576.2635,-22.6785 1576.4571,-15.6812"/>
<text text-anchor="middle" x="2175.2947" y="-57.8" font-family="Times,serif" font-size="14.00" fill="#000000">of_study_personnel</text>
</g>
<!-- sequencing_file -->
<g id="node16" class="node">
<title>sequencing_file</title>
<ellipse fill="none" stroke="#000000" cx="2076.7947" cy="-279" rx="83.3857" ry="18"/>
<text text-anchor="middle" x="2076.7947" y="-275.3" font-family="Times,serif" font-size="14.00" fill="#000000">sequencing_file</text>
</g>
<!-- sequencing_file&#45;&gt;sample -->
<g id="edge5" class="edge">
<title>sequencing_file&#45;&gt;sample</title>
<path fill="none" stroke="#000000" d="M2082.8853,-260.7542C2086.6816,-250.6626 2092.1154,-238.1494 2098.7947,-228 2101.4885,-223.9067 2104.6683,-219.8514 2107.9841,-216.0202"/>
<polygon fill="#000000" stroke="#000000" points="2110.6783,-218.2612 2114.8692,-208.5304 2105.5248,-213.5238 2110.6783,-218.2612"/>
<text text-anchor="middle" x="2165.2947" y="-231.8" font-family="Times,serif" font-size="14.00" fill="#000000">of_sequencing_file</text>
</g>
<!-- pdx -->
<g id="node17" class="node">
<title>pdx</title>
<ellipse fill="none" stroke="#000000" cx="1574.7947" cy="-105" rx="27.8951" ry="18"/>
<text text-anchor="middle" x="1574.7947" y="-101.3" font-family="Times,serif" font-size="14.00" fill="#000000">pdx</text>
</g>
<!-- pdx&#45;&gt;study -->
<g id="edge25" class="edge">
<title>pdx&#45;&gt;study</title>
<path fill="none" stroke="#000000" d="M1571.3559,-86.8384C1568.9909,-76.7733 1565.2716,-64.2583 1559.7947,-54 1557.6681,-50.0168 1555.0536,-46.0687 1552.2626,-42.3277"/>
<polygon fill="#000000" stroke="#000000" points="1554.9881,-40.1317 1545.9919,-34.5354 1549.5346,-44.5204 1554.9881,-40.1317"/>
<text text-anchor="middle" x="1589.7947" y="-57.8" font-family="Times,serif" font-size="14.00" fill="#000000">of_pdx</text>
</g>
<!-- pdx&#45;&gt;sample -->
<g id="edge26" class="edge">
<title>pdx&#45;&gt;sample</title>
<path fill="none" stroke="#000000" d="M1595.736,-117.074C1600.8359,-119.4773 1606.3843,-121.6685 1611.7947,-123 1644.3385,-131.0092 2191.4523,-116.9504 2214.7947,-141 2230.6536,-157.3394 2206.6032,-170.6967 2180.5272,-179.6369"/>
<polygon fill="#000000" stroke="#000000" points="2179.3501,-176.3388 2170.8987,-182.7282 2181.49,-183.0037 2179.3501,-176.3388"/>
<text text-anchor="middle" x="2243.7947" y="-144.8" font-family="Times,serif" font-size="14.00" fill="#000000">of_pdx</text>
</g>
<!-- treatment_response -->
<g id="node18" class="node">
<title>treatment_response</title>
<ellipse fill="none" stroke="#000000" cx="1159.7947" cy="-192" rx="104.7816" ry="18"/>
<text text-anchor="middle" x="1159.7947" y="-188.3" font-family="Times,serif" font-size="14.00" fill="#000000">treatment_response</text>
</g>
<!-- treatment_response&#45;&gt;participant -->
<g id="edge7" class="edge">
<title>treatment_response&#45;&gt;participant</title>
<path fill="none" stroke="#000000" d="M1159.8454,-173.5526C1160.8812,-162.6215 1164.0646,-149.3222 1172.7947,-141 1188.1554,-126.3569 1236.9221,-117.1088 1279.2366,-111.6578"/>
<polygon fill="#000000" stroke="#000000" points="1279.7728,-115.1183 1289.2685,-110.4192 1278.915,-108.171 1279.7728,-115.1183"/>
<text text-anchor="middle" x="1255.7947" y="-144.8" font-family="Times,serif" font-size="14.00" fill="#000000">of_treatment_response</text>
</g>
<!-- sample&#45;&gt;cell_line -->
<g id="edge24" class="edge">
<title>sample&#45;&gt;cell_line</title>
<path fill="none" stroke="#000000" d="M2097.7258,-180.7464C2079.4535,-174.3792 2056.9787,-165.7464 2037.7947,-156 2026.9143,-150.4723 2026.4251,-144.6975 2014.7947,-141 1913.7049,-108.8621 1642.3532,-140.8749 1537.7947,-123 1533.6442,-122.2905 1529.3771,-121.3642 1525.1309,-120.3062"/>
<polygon fill="#000000" stroke="#000000" points="1525.8934,-116.8864 1515.3253,-117.6381 1524.0555,-123.6409 1525.8934,-116.8864"/>
<text text-anchor="middle" x="2074.2947" y="-144.8" font-family="Times,serif" font-size="14.00" fill="#000000">of_sample</text>
</g>
<!-- sample&#45;&gt;pdx -->
<g id="edge22" class="edge">
<title>sample&#45;&gt;pdx</title>
<path fill="none" stroke="#000000" d="M2175.8658,-187.7826C2216.2157,-182.8361 2272.2833,-173.0596 2285.7947,-156 2289.9338,-150.7739 2290.4454,-145.7766 2285.7947,-141 2259.664,-114.1621 1648.1812,-131.8943 1611.7947,-123 1609.5959,-122.4625 1607.3745,-121.7823 1605.1698,-121.0029"/>
<polygon fill="#000000" stroke="#000000" points="1606.3108,-117.6871 1595.733,-117.0863 1603.6274,-124.1523 1606.3108,-117.6871"/>
<text text-anchor="middle" x="2325.2947" y="-144.8" font-family="Times,serif" font-size="14.00" fill="#000000">of_sample</text>
</g>
<!-- sample&#45;&gt;participant -->
<g id="edge23" class="edge">
<title>sample&#45;&gt;participant</title>
<path fill="none" stroke="#000000" d="M2091.1571,-185.4088C2038.0923,-176.8395 1951.5529,-162.2338 1937.7947,-156 1927.9948,-151.5597 1928.893,-144.7119 1918.7947,-141 1866.9291,-121.9355 1476.5203,-130.655 1421.7947,-123 1415.9148,-122.1775 1409.8198,-121.0791 1403.7718,-119.8287"/>
<polygon fill="#000000" stroke="#000000" points="1404.2034,-116.3398 1393.6842,-117.6029 1402.6951,-123.1754 1404.2034,-116.3398"/>
<text text-anchor="middle" x="1974.2947" y="-144.8" font-family="Times,serif" font-size="14.00" fill="#000000">of_sample</text>
</g>
<!-- treatment -->
<g id="node20" class="node">
<title>treatment</title>
<ellipse fill="none" stroke="#000000" cx="1339.7947" cy="-192" rx="57.6901" ry="18"/>
<text text-anchor="middle" x="1339.7947" y="-188.3" font-family="Times,serif" font-size="14.00" fill="#000000">treatment</text>
</g>
<!-- treatment&#45;&gt;participant -->
<g id="edge13" class="edge">
<title>treatment&#45;&gt;participant</title>
<path fill="none" stroke="#000000" d="M1341.6595,-173.9735C1342.8783,-162.1918 1344.4953,-146.5607 1345.8818,-133.1581"/>
<polygon fill="#000000" stroke="#000000" points="1349.3846,-133.3105 1346.9323,-123.0034 1342.4218,-132.5901 1349.3846,-133.3105"/>
<text text-anchor="middle" x="1391.7947" y="-144.8" font-family="Times,serif" font-size="14.00" fill="#000000">of_treatment</text>
</g>
<!-- molecular_test -->
<g id="node21" class="node">
<title>molecular_test</title>
<ellipse fill="none" stroke="#000000" cx="1495.7947" cy="-192" rx="79.8859" ry="18"/>
<text text-anchor="middle" x="1495.7947" y="-188.3" font-family="Times,serif" font-size="14.00" fill="#000000">molecular_test</text>
</g>
<!-- molecular_test&#45;&gt;participant -->
<g id="edge4" class="edge">
<title>molecular_test&#45;&gt;participant</title>
<path fill="none" stroke="#000000" d="M1480.5507,-174.0568C1470.6687,-163.3154 1457.0223,-150.0385 1442.7947,-141 1434.9539,-136.0189 1417.4141,-128.9664 1399.5833,-122.4219"/>
<polygon fill="#000000" stroke="#000000" points="1400.3014,-118.96 1389.7071,-118.8547 1397.9234,-125.5437 1400.3014,-118.96"/>
<text text-anchor="middle" x="1525.7947" y="-144.8" font-family="Times,serif" font-size="14.00" fill="#000000">of_molecular_test</text>
</g>
<!-- exposure -->
<g id="node22" class="node">
<title>exposure</title>
<ellipse fill="none" stroke="#000000" cx="1646.7947" cy="-192" rx="53.0913" ry="18"/>
<text text-anchor="middle" x="1646.7947" y="-188.3" font-family="Times,serif" font-size="14.00" fill="#000000">exposure</text>
</g>
<!-- exposure&#45;&gt;participant -->
<g id="edge20" class="edge">
<title>exposure&#45;&gt;participant</title>
<path fill="none" stroke="#000000" d="M1633.788,-174.4684C1624.1317,-162.8759 1609.8897,-148.4835 1593.7947,-141 1524.0981,-108.5942 1497.5091,-136.2318 1421.7947,-123 1416.1109,-122.0067 1410.2135,-120.8198 1404.3457,-119.5357"/>
<polygon fill="#000000" stroke="#000000" points="1405.0694,-116.1109 1394.5415,-117.3 1403.513,-122.9357 1405.0694,-116.1109"/>
<text text-anchor="middle" x="1658.2947" y="-144.8" font-family="Times,serif" font-size="14.00" fill="#000000">of_exposure</text>
</g>
<!-- diagnosis -->
<g id="node23" class="node">
<title>diagnosis</title>
<ellipse fill="none" stroke="#000000" cx="1920.7947" cy="-279" rx="54.6905" ry="18"/>
<text text-anchor="middle" x="1920.7947" y="-275.3" font-family="Times,serif" font-size="14.00" fill="#000000">diagnosis</text>
</g>
<!-- diagnosis&#45;&gt;sample -->
<g id="edge15" class="edge">
<title>diagnosis&#45;&gt;sample</title>
<path fill="none" stroke="#000000" d="M1941.6167,-262.2439C1956.2925,-251.1532 1976.8165,-237.0394 1996.7947,-228 2023.8063,-215.7782 2055.7793,-207.0527 2081.9356,-201.2558"/>
<polygon fill="#000000" stroke="#000000" points="2082.9714,-204.6135 2092.0191,-199.1007 2081.5084,-197.7681 2082.9714,-204.6135"/>
<text text-anchor="middle" x="2041.2947" y="-231.8" font-family="Times,serif" font-size="14.00" fill="#000000">of_diagnosis</text>
</g>
<!-- diagnosis&#45;&gt;participant -->
<g id="edge14" class="edge">
<title>diagnosis&#45;&gt;participant</title>
<path fill="none" stroke="#000000" d="M1922.2047,-260.983C1923.4958,-229.955 1920.8514,-167.2435 1881.7947,-141 1839.3386,-112.4724 1472.4414,-130.1595 1421.7947,-123 1415.916,-122.169 1409.8218,-121.065 1403.7743,-119.8114"/>
<polygon fill="#000000" stroke="#000000" points="1404.2068,-116.3226 1393.6871,-117.582 1402.6961,-123.1576 1404.2068,-116.3226"/>
<text text-anchor="middle" x="1963.2947" y="-188.3" font-family="Times,serif" font-size="14.00" fill="#000000">of_diagnosis</text>
</g>
<!-- pathology_file -->
<g id="node24" class="node">
<title>pathology_file</title>
<ellipse fill="none" stroke="#000000" cx="2253.7947" cy="-279" rx="76.0865" ry="18"/>
<text text-anchor="middle" x="2253.7947" y="-275.3" font-family="Times,serif" font-size="14.00" fill="#000000">pathology_file</text>
</g>
<!-- pathology_file&#45;&gt;sample -->
<g id="edge6" class="edge">
<title>pathology_file&#45;&gt;sample</title>
<path fill="none" stroke="#000000" d="M2249.8277,-260.842C2246.6142,-250.0198 2241.0544,-236.7334 2231.7947,-228 2218.5598,-215.5173 2200.662,-207.2999 2183.7236,-201.9177"/>
<polygon fill="#000000" stroke="#000000" points="2184.4833,-198.4938 2173.9039,-199.0656 2182.5308,-205.216 2184.4833,-198.4938"/>
<text text-anchor="middle" x="2302.7947" y="-231.8" font-family="Times,serif" font-size="14.00" fill="#000000">of_pathology_file</text>
</g>
<!-- participant&#45;&gt;study -->
<g id="edge32" class="edge">
<title>participant&#45;&gt;study</title>
<path fill="none" stroke="#000000" d="M1350.3624,-86.9903C1352.2748,-75.9453 1356.4967,-62.364 1365.7947,-54 1382.9629,-38.5564 1441.6971,-28.4397 1483.9717,-22.9716"/>
<polygon fill="#000000" stroke="#000000" points="1484.5704,-26.4241 1494.0604,-21.7135 1483.7041,-19.4779 1484.5704,-26.4241"/>
<text text-anchor="middle" x="1416.2947" y="-57.8" font-family="Times,serif" font-size="14.00" fill="#000000">of_participant</text>
</g>
</g>
</svg>
