<svg width="3808pt" height="305pt"
 viewBox="0.00 0.00 3807.69 305.00" xmlns="http://www.w3.org/2000/svg" xmlns:xlink="http://www.w3.org/1999/xlink">
<g id="graph0" class="graph" transform="scale(1 1) rotate(0) translate(4 301)">
<title>Perl</title>
<polygon fill="#ffffff" stroke="transparent" points="-4,4 -4,-301 3803.6888,-301 3803.6888,4 -4,4"/>
<!-- methylation_array_file -->
<g id="node1" class="node">
<title>methylation_array_file</title>
<ellipse fill="none" stroke="#000000" cx="2267.6888" cy="-279" rx="115.8798" ry="18"/>
<text text-anchor="middle" x="2267.6888" y="-275.3" font-family="Times,serif" font-size="14.00" fill="#000000">methylation_array_file</text>
</g>
<!-- sample -->
<g id="node7" class="node">
<title>sample</title>
<ellipse fill="none" stroke="#000000" cx="2572.6888" cy="-192" rx="44.393" ry="18"/>
<text text-anchor="middle" x="2572.6888" y="-188.3" font-family="Times,serif" font-size="14.00" fill="#000000">sample</text>
</g>
<!-- methylation_array_file&#45;&gt;sample -->
<g id="edge5" class="edge">
<title>methylation_array_file&#45;&gt;sample</title>
<path fill="none" stroke="#000000" d="M2279.1231,-260.9128C2287.4729,-249.3865 2299.893,-235.2933 2314.6888,-228 2354.7144,-208.2702 2470.9134,-218.6615 2514.6888,-210 2519.4174,-209.0644 2524.3068,-207.8889 2529.1489,-206.589"/>
<polygon fill="#000000" stroke="#000000" points="2530.3035,-209.8992 2538.9547,-203.7831 2528.3777,-203.1693 2530.3035,-209.8992"/>
<text text-anchor="middle" x="2406.1888" y="-231.8" font-family="Times,serif" font-size="14.00" fill="#000000">of_methylation_array_file</text>
</g>
<!-- cell_line -->
<g id="node10" class="node">
<title>cell_line</title>
<ellipse fill="none" stroke="#000000" cx="2810.6888" cy="-105" rx="49.2915" ry="18"/>
<text text-anchor="middle" x="2810.6888" y="-101.3" font-family="Times,serif" font-size="14.00" fill="#000000">cell_line</text>
</g>
<!-- methylation_array_file&#45;&gt;cell_line -->
<g id="edge6" class="edge">
<title>methylation_array_file&#45;&gt;cell_line</title>
<path fill="none" stroke="#000000" d="M2274.7791,-260.8327C2288.5202,-226.6492 2319.3847,-154.9399 2341.6888,-141 2358.7845,-130.3153 2628.6289,-114.6908 2751.0761,-108.1072"/>
<polygon fill="#000000" stroke="#000000" points="2751.5984,-111.5844 2761.397,-107.555 2751.2243,-104.5944 2751.5984,-111.5844"/>
<text text-anchor="middle" x="2406.1888" y="-188.3" font-family="Times,serif" font-size="14.00" fill="#000000">of_methylation_array_file</text>
</g>
<!-- pdx -->
<g id="node21" class="node">
<title>pdx</title>
<ellipse fill="none" stroke="#000000" cx="1950.6888" cy="-105" rx="27.8951" ry="18"/>
<text text-anchor="middle" x="1950.6888" y="-101.3" font-family="Times,serif" font-size="14.00" fill="#000000">pdx</text>
</g>
<!-- methylation_array_file&#45;&gt;pdx -->
<g id="edge7" class="edge">
<title>methylation_array_file&#45;&gt;pdx</title>
<path fill="none" stroke="#000000" d="M2203.2073,-263.951C2177.9932,-257.816 2148.8918,-250.4255 2122.6888,-243 2101.5926,-237.0217 2097.0138,-233.1023 2075.6888,-228 2051.3859,-222.1852 1982.1076,-227.9173 1964.6888,-210 1945.2345,-189.989 1943.9255,-156.8044 1946.0852,-133.0972"/>
<polygon fill="#000000" stroke="#000000" points="1949.5862,-133.2913 1947.2689,-122.953 1942.6334,-132.4799 1949.5862,-133.2913"/>
<text text-anchor="middle" x="2056.1888" y="-188.3" font-family="Times,serif" font-size="14.00" fill="#000000">of_methylation_array_file</text>
</g>
<!-- participant -->
<g id="node2" class="node">
<title>participant</title>
<ellipse fill="none" stroke="#000000" cx="1030.6888" cy="-105" rx="62.2891" ry="18"/>
<text text-anchor="middle" x="1030.6888" y="-101.3" font-family="Times,serif" font-size="14.00" fill="#000000">participant</text>
</g>
<!-- study -->
<g id="node22" class="node">
<title>study</title>
<ellipse fill="none" stroke="#000000" cx="1655.6888" cy="-18" rx="36.2938" ry="18"/>
<text text-anchor="middle" x="1655.6888" y="-14.3" font-family="Times,serif" font-size="14.00" fill="#000000">study</text>
</g>
<!-- participant&#45;&gt;study -->
<g id="edge10" class="edge">
<title>participant&#45;&gt;study</title>
<path fill="none" stroke="#000000" d="M1086.9793,-97.1644C1209.624,-80.0922 1498.8961,-39.8255 1610.5885,-24.278"/>
<polygon fill="#000000" stroke="#000000" points="1611.0975,-27.7409 1620.5194,-22.8956 1610.1323,-20.8078 1611.0975,-27.7409"/>
<text text-anchor="middle" x="1430.1888" y="-57.8" font-family="Times,serif" font-size="14.00" fill="#000000">of_participant</text>
</g>
<!-- radiology_file -->
<g id="node3" class="node">
<title>radiology_file</title>
<ellipse fill="none" stroke="#000000" cx="343.6888" cy="-192" rx="73.387" ry="18"/>
<text text-anchor="middle" x="343.6888" y="-188.3" font-family="Times,serif" font-size="14.00" fill="#000000">radiology_file</text>
</g>
<!-- radiology_file&#45;&gt;participant -->
<g id="edge8" class="edge">
<title>radiology_file&#45;&gt;participant</title>
<path fill="none" stroke="#000000" d="M363.3751,-174.4501C377.854,-162.689 398.6071,-148.1021 419.6888,-141 469.523,-124.2117 807.6139,-111.8616 958.3767,-107.1239"/>
<polygon fill="#000000" stroke="#000000" points="958.5804,-110.6194 968.4665,-106.8095 958.3623,-103.6228 958.5804,-110.6194"/>
<text text-anchor="middle" x="478.6888" y="-144.8" font-family="Times,serif" font-size="14.00" fill="#000000">of_radiology_file</text>
</g>
<!-- diagnosis -->
<g id="node4" class="node">
<title>diagnosis</title>
<ellipse fill="none" stroke="#000000" cx="489.6888" cy="-192" rx="54.6905" ry="18"/>
<text text-anchor="middle" x="489.6888" y="-188.3" font-family="Times,serif" font-size="14.00" fill="#000000">diagnosis</text>
</g>
<!-- diagnosis&#45;&gt;participant -->
<g id="edge18" class="edge">
<title>diagnosis&#45;&gt;participant</title>
<path fill="none" stroke="#000000" d="M510.485,-175.3378C526.4883,-163.5224 549.6916,-148.4863 572.6888,-141 642.2815,-118.3454 847.4679,-109.6711 958.075,-106.5752"/>
<polygon fill="#000000" stroke="#000000" points="958.2493,-110.0719 968.1505,-106.3013 958.059,-103.0745 958.2493,-110.0719"/>
<text text-anchor="middle" x="617.1888" y="-144.8" font-family="Times,serif" font-size="14.00" fill="#000000">of_diagnosis</text>
</g>
<!-- study_admin -->
<g id="node5" class="node">
<title>study_admin</title>
<ellipse fill="none" stroke="#000000" cx="104.6888" cy="-105" rx="70.3881" ry="18"/>
<text text-anchor="middle" x="104.6888" y="-101.3" font-family="Times,serif" font-size="14.00" fill="#000000">study_admin</text>
</g>
<!-- study_admin&#45;&gt;study -->
<g id="edge11" class="edge">
<title>study_admin&#45;&gt;study</title>
<path fill="none" stroke="#000000" d="M107.1299,-86.7477C109.6986,-75.3058 114.9545,-61.373 125.6888,-54 157.0126,-32.4847 1354.8898,-20.6684 1608.7298,-18.4032"/>
<polygon fill="#000000" stroke="#000000" points="1609.1088,-21.9001 1619.0774,-18.3115 1609.0467,-14.9003 1609.1088,-21.9001"/>
<text text-anchor="middle" x="182.1888" y="-57.8" font-family="Times,serif" font-size="14.00" fill="#000000">of_study_admin</text>
</g>
<!-- medical_history -->
<g id="node6" class="node">
<title>medical_history</title>
<ellipse fill="none" stroke="#000000" cx="647.6888" cy="-192" rx="85.2851" ry="18"/>
<text text-anchor="middle" x="647.6888" y="-188.3" font-family="Times,serif" font-size="14.00" fill="#000000">medical_history</text>
</g>
<!-- medical_history&#45;&gt;participant -->
<g id="edge39" class="edge">
<title>medical_history&#45;&gt;participant</title>
<path fill="none" stroke="#000000" d="M654.5813,-173.8251C659.9085,-162.4159 668.4575,-148.4905 680.6888,-141 703.8402,-126.8219 863.6163,-114.9749 959.1021,-109.0585"/>
<polygon fill="#000000" stroke="#000000" points="959.5067,-112.5404 969.274,-108.4356 959.0788,-105.5535 959.5067,-112.5404"/>
<text text-anchor="middle" x="748.6888" y="-144.8" font-family="Times,serif" font-size="14.00" fill="#000000">of_medical_history</text>
</g>
<!-- sample&#45;&gt;participant -->
<g id="edge24" class="edge">
<title>sample&#45;&gt;participant</title>
<path fill="none" stroke="#000000" d="M2539.3215,-179.9829C2531.3493,-177.5772 2522.7975,-175.3708 2514.6888,-174 2398.7107,-154.3939 2103.1793,-161.5945 1985.6888,-156 1876.7195,-150.8112 1849.6111,-147.0956 1740.6888,-141 1507.3273,-127.9404 1230.7009,-114.5027 1102.5149,-108.3925"/>
<polygon fill="#000000" stroke="#000000" points="1102.5862,-104.892 1092.431,-107.9124 1102.2532,-111.8841 1102.5862,-104.892"/>
<text text-anchor="middle" x="2022.1888" y="-144.8" font-family="Times,serif" font-size="14.00" fill="#000000">of_sample</text>
</g>
<!-- sample&#45;&gt;cell_line -->
<g id="edge25" class="edge">
<title>sample&#45;&gt;cell_line</title>
<path fill="none" stroke="#000000" d="M2606.4485,-180.3428C2614.329,-177.9521 2622.7424,-175.6616 2630.6888,-174 2665.9274,-166.6316 2763.3095,-178.151 2791.6888,-156 2798.916,-150.3589 2803.3942,-141.6673 2806.169,-133.048"/>
<polygon fill="#000000" stroke="#000000" points="2809.6134,-133.7061 2808.7065,-123.1501 2802.8327,-131.9677 2809.6134,-133.7061"/>
<text text-anchor="middle" x="2839.1888" y="-144.8" font-family="Times,serif" font-size="14.00" fill="#000000">of_sample</text>
</g>
<!-- sample&#45;&gt;pdx -->
<g id="edge23" class="edge">
<title>sample&#45;&gt;pdx</title>
<path fill="none" stroke="#000000" d="M2542.5668,-178.804C2512.9529,-166.5279 2466.1469,-148.9685 2423.6888,-141 2328.3814,-123.1127 2081.7167,-146.711 1987.6888,-123 1985.4939,-122.4465 1983.2755,-121.7543 1981.0731,-120.9661"/>
<polygon fill="#000000" stroke="#000000" points="1982.2179,-117.6513 1971.6413,-117.0292 1979.5214,-124.1112 1982.2179,-117.6513"/>
<text text-anchor="middle" x="2514.1888" y="-144.8" font-family="Times,serif" font-size="14.00" fill="#000000">of_sample</text>
</g>
<!-- molecular_test -->
<g id="node8" class="node">
<title>molecular_test</title>
<ellipse fill="none" stroke="#000000" cx="830.6888" cy="-192" rx="79.8859" ry="18"/>
<text text-anchor="middle" x="830.6888" y="-188.3" font-family="Times,serif" font-size="14.00" fill="#000000">molecular_test</text>
</g>
<!-- molecular_test&#45;&gt;participant -->
<g id="edge12" class="edge">
<title>molecular_test&#45;&gt;participant</title>
<path fill="none" stroke="#000000" d="M822.9906,-174.025C819.7024,-163.2717 818.1371,-149.9934 825.6888,-141 842.5989,-120.8615 906.5451,-111.9855 958.5773,-108.0752"/>
<polygon fill="#000000" stroke="#000000" points="959.077,-111.5489 968.8075,-107.3575 958.587,-104.566 959.077,-111.5489"/>
<text text-anchor="middle" x="889.6888" y="-144.8" font-family="Times,serif" font-size="14.00" fill="#000000">of_molecular_test</text>
</g>
<!-- study_arm -->
<g id="node9" class="node">
<title>study_arm</title>
<ellipse fill="none" stroke="#000000" cx="252.6888" cy="-105" rx="59.5901" ry="18"/>
<text text-anchor="middle" x="252.6888" y="-101.3" font-family="Times,serif" font-size="14.00" fill="#000000">study_arm</text>
</g>
<!-- study_arm&#45;&gt;study -->
<g id="edge40" class="edge">
<title>study_arm&#45;&gt;study</title>
<path fill="none" stroke="#000000" d="M244.6948,-87.1081C241.1275,-76.11 239.3675,-62.5368 247.6888,-54 271.983,-29.0767 1367.3446,-20.0069 1608.8891,-18.3081"/>
<polygon fill="#000000" stroke="#000000" points="1609.1138,-21.8067 1619.0892,-18.2372 1609.0651,-14.8069 1609.1138,-21.8067"/>
<text text-anchor="middle" x="296.1888" y="-57.8" font-family="Times,serif" font-size="14.00" fill="#000000">of_study_arm</text>
</g>
<!-- cell_line&#45;&gt;sample -->
<g id="edge34" class="edge">
<title>cell_line&#45;&gt;sample</title>
<path fill="none" stroke="#000000" d="M2774.0135,-117.3911C2754.0535,-124.2112 2728.9572,-132.9103 2706.6888,-141 2675.6742,-152.267 2640.8483,-165.5408 2614.4749,-175.7217"/>
<polygon fill="#000000" stroke="#000000" points="2612.8703,-172.5896 2604.8065,-179.4616 2615.3957,-179.1182 2612.8703,-172.5896"/>
<text text-anchor="middle" x="2747.1888" y="-144.8" font-family="Times,serif" font-size="14.00" fill="#000000">of_cell_line</text>
</g>
<!-- cell_line&#45;&gt;study -->
<g id="edge33" class="edge">
<title>cell_line&#45;&gt;study</title>
<path fill="none" stroke="#000000" d="M2765.57,-97.5844C2694.9872,-86.2807 2554.0628,-64.9056 2433.6888,-54 2156.9437,-28.9276 1823.1468,-20.9101 1702.245,-18.7228"/>
<polygon fill="#000000" stroke="#000000" points="1702.2831,-15.223 1692.2229,-18.5462 1702.1597,-22.222 1702.2831,-15.223"/>
<text text-anchor="middle" x="2598.1888" y="-57.8" font-family="Times,serif" font-size="14.00" fill="#000000">of_cell_line</text>
</g>
<!-- synonym -->
<g id="node11" class="node">
<title>synonym</title>
<ellipse fill="none" stroke="#000000" cx="946.6888" cy="-279" rx="51.9908" ry="18"/>
<text text-anchor="middle" x="946.6888" y="-275.3" font-family="Times,serif" font-size="14.00" fill="#000000">synonym</text>
</g>
<!-- synonym&#45;&gt;participant -->
<g id="edge13" class="edge">
<title>synonym&#45;&gt;participant</title>
<path fill="none" stroke="#000000" d="M944.4137,-260.8656C942.5124,-239.0625 941.9846,-201.9214 955.6888,-174 964.7658,-155.5062 981.1013,-139.5613 996.2147,-127.6726"/>
<polygon fill="#000000" stroke="#000000" points="998.542,-130.3017 1004.4314,-121.4946 994.3352,-124.7067 998.542,-130.3017"/>
<text text-anchor="middle" x="998.1888" y="-188.3" font-family="Times,serif" font-size="14.00" fill="#000000">of_synonym</text>
</g>
<!-- synonym&#45;&gt;sample -->
<g id="edge14" class="edge">
<title>synonym&#45;&gt;sample</title>
<path fill="none" stroke="#000000" d="M998.3587,-276.4193C1154.8588,-268.6384 1637.4807,-244.9048 2037.6888,-228 2143.6697,-223.5234 2410.1303,-227.8749 2514.6888,-210 2519.5018,-209.1772 2524.4716,-208.063 2529.3839,-206.7897"/>
<polygon fill="#000000" stroke="#000000" points="2530.6392,-210.0725 2539.3178,-203.9953 2528.7436,-203.3341 2530.6392,-210.0725"/>
<text text-anchor="middle" x="2080.1888" y="-231.8" font-family="Times,serif" font-size="14.00" fill="#000000">of_synonym</text>
</g>
<!-- synonym&#45;&gt;study -->
<g id="edge15" class="edge">
<title>synonym&#45;&gt;study</title>
<path fill="none" stroke="#000000" d="M894.7825,-277.0459C704.6106,-269.6393 55.4595,-242.0846 25.6888,-210 -11.4944,-169.9269 -5.0985,-132.1729 25.6888,-87 48.2786,-53.855 70.3679,-61.9219 109.6888,-54 259.5341,-23.8108 1366.2778,-18.8442 1608.8053,-18.1156"/>
<polygon fill="#000000" stroke="#000000" points="1609.053,-21.615 1619.0427,-18.0858 1609.0325,-14.615 1609.053,-21.615"/>
<text text-anchor="middle" x="44.1888" y="-144.8" font-family="Times,serif" font-size="14.00" fill="#000000">of_synonym</text>
</g>
<!-- clinical_measure_file -->
<g id="node12" class="node">
<title>clinical_measure_file</title>
<ellipse fill="none" stroke="#000000" cx="143.6888" cy="-192" rx="108.5808" ry="18"/>
<text text-anchor="middle" x="143.6888" y="-188.3" font-family="Times,serif" font-size="14.00" fill="#000000">clinical_measure_file</text>
</g>
<!-- clinical_measure_file&#45;&gt;participant -->
<g id="edge32" class="edge">
<title>clinical_measure_file&#45;&gt;participant</title>
<path fill="none" stroke="#000000" d="M162.1329,-174.1064C175.5365,-162.3478 194.7553,-147.9057 214.6888,-141 232.1409,-134.9539 761.9212,-114.8952 958.3453,-107.6443"/>
<polygon fill="#000000" stroke="#000000" points="958.6997,-111.1337 968.5639,-107.2675 958.4417,-104.1385 958.6997,-111.1337"/>
<text text-anchor="middle" x="300.6888" y="-144.8" font-family="Times,serif" font-size="14.00" fill="#000000">of_clinical_measure_file</text>
</g>
<!-- clinical_measure_file&#45;&gt;study -->
<g id="edge31" class="edge">
<title>clinical_measure_file&#45;&gt;study</title>
<path fill="none" stroke="#000000" d="M153.8018,-173.9341C161.2898,-162.417 172.6151,-148.3261 186.6888,-141 219.1044,-124.126 1363.6832,-39.4041 1609.4967,-21.3764"/>
<polygon fill="#000000" stroke="#000000" points="1609.8093,-24.8629 1619.5267,-20.6412 1609.2975,-17.8817 1609.8093,-24.8629"/>
<text text-anchor="middle" x="829.6888" y="-101.3" font-family="Times,serif" font-size="14.00" fill="#000000">of_clinical_measure_file</text>
</g>
<!-- family_relationship -->
<g id="node13" class="node">
<title>family_relationship</title>
<ellipse fill="none" stroke="#000000" cx="1149.6888" cy="-192" rx="100.1823" ry="18"/>
<text text-anchor="middle" x="1149.6888" y="-188.3" font-family="Times,serif" font-size="14.00" fill="#000000">family_relationship</text>
</g>
<!-- family_relationship&#45;&gt;participant -->
<g id="edge1" class="edge">
<title>family_relationship&#45;&gt;participant</title>
<path fill="none" stroke="#000000" d="M1125.6074,-174.3943C1107.3045,-161.0131 1081.9713,-142.4922 1062.0799,-127.9498"/>
<polygon fill="#000000" stroke="#000000" points="1064.0629,-125.0639 1053.9245,-121.9875 1059.9316,-130.7148 1064.0629,-125.0639"/>
<text text-anchor="middle" x="1176.1888" y="-144.8" font-family="Times,serif" font-size="14.00" fill="#000000">of_family_relationship</text>
</g>
<!-- study_personnel -->
<g id="node14" class="node">
<title>study_personnel</title>
<ellipse fill="none" stroke="#000000" cx="2083.6888" cy="-105" rx="87.1846" ry="18"/>
<text text-anchor="middle" x="2083.6888" y="-101.3" font-family="Times,serif" font-size="14.00" fill="#000000">study_personnel</text>
</g>
<!-- study_personnel&#45;&gt;study -->
<g id="edge27" class="edge">
<title>study_personnel&#45;&gt;study</title>
<path fill="none" stroke="#000000" d="M2029.7232,-90.8094C1987.2351,-79.9153 1926.4216,-64.9358 1872.6888,-54 1813.6208,-41.9784 1744.8953,-31.0951 1700.8779,-24.5167"/>
<polygon fill="#000000" stroke="#000000" points="1701.191,-21.0249 1690.7855,-23.0192 1700.1635,-27.9491 1701.191,-21.0249"/>
<text text-anchor="middle" x="2006.1888" y="-57.8" font-family="Times,serif" font-size="14.00" fill="#000000">of_study_personnel</text>
</g>
<!-- sequencing_file -->
<g id="node15" class="node">
<title>sequencing_file</title>
<ellipse fill="none" stroke="#000000" cx="2652.6888" cy="-279" rx="83.3857" ry="18"/>
<text text-anchor="middle" x="2652.6888" y="-275.3" font-family="Times,serif" font-size="14.00" fill="#000000">sequencing_file</text>
</g>
<!-- sequencing_file&#45;&gt;sample -->
<g id="edge22" class="edge">
<title>sequencing_file&#45;&gt;sample</title>
<path fill="none" stroke="#000000" d="M2580.5469,-269.8158C2548.3287,-264.088 2515.4206,-255.4027 2505.6888,-243 2494.5216,-228.7679 2509.8069,-216.378 2528.5801,-207.3749"/>
<polygon fill="#000000" stroke="#000000" points="2530.2365,-210.4698 2537.9756,-203.234 2527.4133,-204.0643 2530.2365,-210.4698"/>
<text text-anchor="middle" x="2572.1888" y="-231.8" font-family="Times,serif" font-size="14.00" fill="#000000">of_sequencing_file</text>
</g>
<!-- sequencing_file&#45;&gt;cell_line -->
<g id="edge21" class="edge">
<title>sequencing_file&#45;&gt;cell_line</title>
<path fill="none" stroke="#000000" d="M2735.7592,-277.7254C2850.9528,-275.0824 3047.6143,-267.0623 3069.6888,-243 3099.7513,-210.2303 3051.8893,-229.0351 3016.6888,-210 2993.8528,-197.6512 2993.0143,-187.2494 2970.6888,-174 2934.0287,-152.2436 2889.2458,-133.5313 2856.3918,-121.1044"/>
<polygon fill="#000000" stroke="#000000" points="2857.1935,-117.668 2846.6009,-117.4532 2854.7476,-124.2268 2857.1935,-117.668"/>
<text text-anchor="middle" x="3083.1888" y="-188.3" font-family="Times,serif" font-size="14.00" fill="#000000">of_sequencing_file</text>
</g>
<!-- sequencing_file&#45;&gt;pdx -->
<g id="edge20" class="edge">
<title>sequencing_file&#45;&gt;pdx</title>
<path fill="none" stroke="#000000" d="M2652.5803,-260.9404C2651.5196,-238.1862 2646.5088,-199.0367 2625.6888,-174 2603.4397,-147.2448 2588.5427,-149.0485 2554.6888,-141 2432.0437,-111.842 2110.0711,-153.2419 1987.6888,-123 1985.4913,-122.457 1983.271,-121.7726 1981.0671,-120.9902"/>
<polygon fill="#000000" stroke="#000000" points="1982.2093,-117.6747 1971.632,-117.0666 1979.5215,-124.1381 1982.2093,-117.6747"/>
<text text-anchor="middle" x="2710.1888" y="-188.3" font-family="Times,serif" font-size="14.00" fill="#000000">of_sequencing_file</text>
</g>
<!-- cytogenomic_file -->
<g id="node16" class="node">
<title>cytogenomic_file</title>
<ellipse fill="none" stroke="#000000" cx="3106.6888" cy="-279" rx="89.8845" ry="18"/>
<text text-anchor="middle" x="3106.6888" y="-275.3" font-family="Times,serif" font-size="14.00" fill="#000000">cytogenomic_file</text>
</g>
<!-- cytogenomic_file&#45;&gt;sample -->
<g id="edge4" class="edge">
<title>cytogenomic_file&#45;&gt;sample</title>
<path fill="none" stroke="#000000" d="M3019.0208,-274.9347C2914.8023,-269.4984 2747.3565,-258.6905 2686.6888,-243 2659.1378,-235.8745 2629.8717,-222.6497 2607.8911,-211.4528"/>
<polygon fill="#000000" stroke="#000000" points="2609.4303,-208.3084 2598.9431,-206.802 2606.202,-214.5195 2609.4303,-208.3084"/>
<text text-anchor="middle" x="2758.1888" y="-231.8" font-family="Times,serif" font-size="14.00" fill="#000000">of_cytogenomic_file</text>
</g>
<!-- cytogenomic_file&#45;&gt;cell_line -->
<g id="edge3" class="edge">
<title>cytogenomic_file&#45;&gt;cell_line</title>
<path fill="none" stroke="#000000" d="M3124.4633,-260.979C3144.3452,-238.6177 3171.1247,-200.2385 3149.6888,-174 3115.0104,-131.5521 2957.4541,-114.5577 2869.8676,-108.2991"/>
<polygon fill="#000000" stroke="#000000" points="2870.0221,-104.8016 2859.805,-107.6053 2869.5405,-111.785 2870.0221,-104.8016"/>
<text text-anchor="middle" x="3228.1888" y="-188.3" font-family="Times,serif" font-size="14.00" fill="#000000">of_cytogenomic_file</text>
</g>
<!-- cytogenomic_file&#45;&gt;pdx -->
<g id="edge2" class="edge">
<title>cytogenomic_file&#45;&gt;pdx</title>
<path fill="none" stroke="#000000" d="M3107.4591,-260.9105C3106.8816,-249.6875 3104.0568,-235.939 3094.6888,-228 3048.6442,-188.9793 2873.4528,-244.1505 2823.6888,-210 2795.8166,-190.8727 2819.9745,-159.5104 2791.6888,-141 2754.3044,-116.5353 2031.1117,-133.5151 1987.6888,-123 1985.4888,-122.4673 1983.2666,-121.7906 1981.0613,-121.0139"/>
<polygon fill="#000000" stroke="#000000" points="1982.2011,-117.6977 1971.623,-117.1033 1979.5216,-124.1646 1982.2011,-117.6977"/>
<text text-anchor="middle" x="2895.1888" y="-188.3" font-family="Times,serif" font-size="14.00" fill="#000000">of_cytogenomic_file</text>
</g>
<!-- publication -->
<g id="node17" class="node">
<title>publication</title>
<ellipse fill="none" stroke="#000000" cx="2251.6888" cy="-105" rx="63.0888" ry="18"/>
<text text-anchor="middle" x="2251.6888" y="-101.3" font-family="Times,serif" font-size="14.00" fill="#000000">publication</text>
</g>
<!-- publication&#45;&gt;study -->
<g id="edge9" class="edge">
<title>publication&#45;&gt;study</title>
<path fill="none" stroke="#000000" d="M2212.2853,-90.8167C2177.7827,-79.0036 2126.0572,-62.7483 2079.6888,-54 1944.2108,-28.4394 1780.9327,-21.0143 1702.3827,-18.8671"/>
<polygon fill="#000000" stroke="#000000" points="1702.4117,-15.3668 1692.3251,-18.6086 1702.2318,-22.3644 1702.4117,-15.3668"/>
<text text-anchor="middle" x="2192.6888" y="-57.8" font-family="Times,serif" font-size="14.00" fill="#000000">of_publication</text>
</g>
<!-- therapeutic_procedure -->
<g id="node18" class="node">
<title>therapeutic_procedure</title>
<ellipse fill="none" stroke="#000000" cx="1385.6888" cy="-192" rx="117.7793" ry="18"/>
<text text-anchor="middle" x="1385.6888" y="-188.3" font-family="Times,serif" font-size="14.00" fill="#000000">therapeutic_procedure</text>
</g>
<!-- therapeutic_procedure&#45;&gt;participant -->
<g id="edge26" class="edge">
<title>therapeutic_procedure&#45;&gt;participant</title>
<path fill="none" stroke="#000000" d="M1349.5196,-174.7806C1324.7405,-163.631 1290.8458,-149.6319 1259.6888,-141 1207.2255,-126.4653 1146.2675,-117.2394 1100.44,-111.7702"/>
<polygon fill="#000000" stroke="#000000" points="1100.6492,-108.2711 1090.312,-110.5931 1099.841,-115.2243 1100.6492,-108.2711"/>
<text text-anchor="middle" x="1394.6888" y="-144.8" font-family="Times,serif" font-size="14.00" fill="#000000">of_therapeutic_procedure</text>
</g>
<!-- exposure -->
<g id="node19" class="node">
<title>exposure</title>
<ellipse fill="none" stroke="#000000" cx="1574.6888" cy="-192" rx="53.0913" ry="18"/>
<text text-anchor="middle" x="1574.6888" y="-188.3" font-family="Times,serif" font-size="14.00" fill="#000000">exposure</text>
</g>
<!-- exposure&#45;&gt;participant -->
<g id="edge35" class="edge">
<title>exposure&#45;&gt;participant</title>
<path fill="none" stroke="#000000" d="M1553.8937,-175.3344C1537.8909,-163.5172 1514.6879,-148.4805 1491.6888,-141 1421.5447,-118.1856 1214.5623,-109.5749 1103.3368,-106.532"/>
<polygon fill="#000000" stroke="#000000" points="1103.2964,-103.0298 1093.2069,-106.263 1103.1105,-110.0273 1103.2964,-103.0298"/>
<text text-anchor="middle" x="1566.1888" y="-144.8" font-family="Times,serif" font-size="14.00" fill="#000000">of_exposure</text>
</g>
<!-- study_funding -->
<g id="node20" class="node">
<title>study_funding</title>
<ellipse fill="none" stroke="#000000" cx="2409.6888" cy="-105" rx="77.1866" ry="18"/>
<text text-anchor="middle" x="2409.6888" y="-101.3" font-family="Times,serif" font-size="14.00" fill="#000000">study_funding</text>
</g>
<!-- study_funding&#45;&gt;study -->
<g id="edge41" class="edge">
<title>study_funding&#45;&gt;study</title>
<path fill="none" stroke="#000000" d="M2369.772,-89.4228C2337.3994,-77.5281 2290.3102,-61.882 2247.6888,-54 2194.7014,-44.201 1832.5392,-26.3565 1702.2554,-20.176"/>
<polygon fill="#000000" stroke="#000000" points="1702.3458,-16.6765 1692.1916,-19.7 1702.015,-23.6687 1702.3458,-16.6765"/>
<text text-anchor="middle" x="2367.6888" y="-57.8" font-family="Times,serif" font-size="14.00" fill="#000000">of_study_funding</text>
</g>
<!-- pdx&#45;&gt;sample -->
<g id="edge16" class="edge">
<title>pdx&#45;&gt;sample</title>
<path fill="none" stroke="#000000" d="M1972.0917,-116.9991C1977.0794,-119.3432 1982.4632,-121.5277 1987.6888,-123 2214.1871,-186.8148 2284.0023,-127.5504 2514.6888,-174 2519.4142,-174.9515 2524.3016,-176.1372 2529.1425,-177.4431"/>
<polygon fill="#000000" stroke="#000000" points="2528.3694,-180.8625 2538.9469,-180.2561 2530.3,-174.1339 2528.3694,-180.8625"/>
<text text-anchor="middle" x="2395.6888" y="-144.8" font-family="Times,serif" font-size="14.00" fill="#000000">of_pdx</text>
</g>
<!-- pdx&#45;&gt;study -->
<g id="edge17" class="edge">
<title>pdx&#45;&gt;study</title>
<path fill="none" stroke="#000000" d="M1925.0255,-97.4315C1873.9026,-82.3546 1758.9559,-48.455 1697.0469,-30.1971"/>
<polygon fill="#000000" stroke="#000000" points="1697.8024,-26.771 1687.2207,-27.2992 1695.8222,-33.4851 1697.8024,-26.771"/>
<text text-anchor="middle" x="1844.6888" y="-57.8" font-family="Times,serif" font-size="14.00" fill="#000000">of_pdx</text>
</g>
<!-- single_cell_sequencing_file -->
<g id="node23" class="node">
<title>single_cell_sequencing_file</title>
<ellipse fill="none" stroke="#000000" cx="3351.6888" cy="-279" rx="137.5759" ry="18"/>
<text text-anchor="middle" x="3351.6888" y="-275.3" font-family="Times,serif" font-size="14.00" fill="#000000">single_cell_sequencing_file</text>
</g>
<!-- single_cell_sequencing_file&#45;&gt;sample -->
<g id="edge36" class="edge">
<title>single_cell_sequencing_file&#45;&gt;sample</title>
<path fill="none" stroke="#000000" d="M3253.18,-266.3893C3237.3109,-264.492 3221.054,-262.6281 3205.6888,-261 3197.716,-260.1552 2638.5548,-211.5511 2630.6888,-210 2625.9596,-209.0675 2621.0698,-207.8939 2616.2275,-206.5952"/>
<polygon fill="#000000" stroke="#000000" points="2616.9983,-203.1754 2606.4214,-203.7906 2615.0735,-209.9055 2616.9983,-203.1754"/>
<text text-anchor="middle" x="3093.1888" y="-231.8" font-family="Times,serif" font-size="14.00" fill="#000000">of_single_cell_sequencing_file</text>
</g>
<!-- single_cell_sequencing_file&#45;&gt;cell_line -->
<g id="edge38" class="edge">
<title>single_cell_sequencing_file&#45;&gt;cell_line</title>
<path fill="none" stroke="#000000" d="M3446.1775,-265.8368C3524.4876,-251.1645 3616.2869,-222.8248 3571.6888,-174 3524.644,-122.4966 3041.2138,-109.0468 2870.2184,-105.8871"/>
<polygon fill="#000000" stroke="#000000" points="2870.1977,-102.3862 2860.1364,-105.7061 2870.072,-109.3851 2870.1977,-102.3862"/>
<text text-anchor="middle" x="3691.1888" y="-188.3" font-family="Times,serif" font-size="14.00" fill="#000000">of_single_cell_sequencing_file</text>
</g>
<!-- single_cell_sequencing_file&#45;&gt;pdx -->
<g id="edge37" class="edge">
<title>single_cell_sequencing_file&#45;&gt;pdx</title>
<path fill="none" stroke="#000000" d="M3349.2016,-260.8386C3344.7919,-236.4321 3333.1079,-193.8281 3303.6888,-174 3266.0601,-148.6387 2940.79,-160.9995 2895.6888,-156 2857.9958,-151.8217 2849.426,-144.7587 2811.6888,-141 2720.5623,-131.9236 2076.6996,-144.5288 1987.6888,-123 1985.4887,-122.4679 1983.2663,-121.7917 1981.0609,-121.0153"/>
<polygon fill="#000000" stroke="#000000" points="1982.2007,-117.699 1971.6225,-117.1054 1979.5217,-124.1661 1982.2007,-117.699"/>
<text text-anchor="middle" x="3441.1888" y="-188.3" font-family="Times,serif" font-size="14.00" fill="#000000">of_single_cell_sequencing_file</text>
</g>
<!-- follow_up -->
<g id="node24" class="node">
<title>follow_up</title>
<ellipse fill="none" stroke="#000000" cx="1701.6888" cy="-192" rx="55.4913" ry="18"/>
<text text-anchor="middle" x="1701.6888" y="-188.3" font-family="Times,serif" font-size="14.00" fill="#000000">follow_up</text>
</g>
<!-- follow_up&#45;&gt;participant -->
<g id="edge19" class="edge">
<title>follow_up&#45;&gt;participant</title>
<path fill="none" stroke="#000000" d="M1679.5165,-175.2313C1662.4861,-163.3616 1637.8603,-148.3042 1613.6888,-141 1566.0233,-126.5964 1248.3196,-113.1034 1102.999,-107.6023"/>
<polygon fill="#000000" stroke="#000000" points="1102.9645,-104.0986 1092.84,-107.2201 1102.7013,-111.0937 1102.9645,-104.0986"/>
<text text-anchor="middle" x="1691.6888" y="-144.8" font-family="Times,serif" font-size="14.00" fill="#000000">of_follow_up</text>
</g>
<!-- pathology_file -->
<g id="node25" class="node">
<title>pathology_file</title>
<ellipse fill="none" stroke="#000000" cx="2057.6888" cy="-279" rx="76.0865" ry="18"/>
<text text-anchor="middle" x="2057.6888" y="-275.3" font-family="Times,serif" font-size="14.00" fill="#000000">pathology_file</text>
</g>
<!-- pathology_file&#45;&gt;sample -->
<g id="edge30" class="edge">
<title>pathology_file&#45;&gt;sample</title>
<path fill="none" stroke="#000000" d="M2086.2647,-262.1985C2108.0568,-250.3121 2139.2408,-235.2481 2168.6888,-228 2318.212,-191.1976 2363.094,-237.0297 2514.6888,-210 2519.4958,-209.1429 2524.4618,-208.0068 2529.3719,-206.7207"/>
<polygon fill="#000000" stroke="#000000" points="2530.6334,-210.0013 2539.3032,-203.9115 2528.728,-203.2656 2530.6334,-210.0013"/>
<text text-anchor="middle" x="2229.6888" y="-231.8" font-family="Times,serif" font-size="14.00" fill="#000000">of_pathology_file</text>
</g>
<!-- pathology_file&#45;&gt;cell_line -->
<g id="edge29" class="edge">
<title>pathology_file&#45;&gt;cell_line</title>
<path fill="none" stroke="#000000" d="M2079.4779,-261.54C2092.0174,-251.5838 2108.1283,-238.9467 2122.6888,-228 2133.6325,-219.7725 2138.2798,-219.9462 2147.6888,-210 2160.7367,-196.2071 2155.0977,-184.8356 2170.6888,-174 2227.8119,-134.3003 2254.8362,-150.9213 2323.6888,-141 2404.756,-129.3186 2640.8751,-114.7627 2751.8122,-108.3259"/>
<polygon fill="#000000" stroke="#000000" points="2752.0461,-111.8183 2761.8275,-107.7471 2751.6422,-104.8299 2752.0461,-111.8183"/>
<text text-anchor="middle" x="2231.6888" y="-188.3" font-family="Times,serif" font-size="14.00" fill="#000000">of_pathology_file</text>
</g>
<!-- pathology_file&#45;&gt;pdx -->
<g id="edge28" class="edge">
<title>pathology_file&#45;&gt;pdx</title>
<path fill="none" stroke="#000000" d="M1985.0916,-273.3955C1915.1776,-267.243 1818.3306,-256.4307 1806.6888,-243 1786.6024,-219.8271 1789.2212,-199.2057 1806.6888,-174 1819.6665,-155.2732 1833.9181,-165.3643 1854.6888,-156 1877.3549,-145.7812 1902.1161,-132.5736 1920.8133,-122.1595"/>
<polygon fill="#000000" stroke="#000000" points="1922.728,-125.0984 1929.7314,-117.1483 1919.2988,-118.9959 1922.728,-125.0984"/>
<text text-anchor="middle" x="1867.6888" y="-188.3" font-family="Times,serif" font-size="14.00" fill="#000000">of_pathology_file</text>
</g>
</g>
</svg>
