<svg width="3056pt" height="305pt"
 viewBox="0.00 0.00 3056.04 305.00" xmlns="http://www.w3.org/2000/svg" xmlns:xlink="http://www.w3.org/1999/xlink">
<g id="graph0" class="graph" transform="scale(1 1) rotate(0) translate(4 301)">
<title>Perl</title>
<polygon fill="#ffffff" stroke="transparent" points="-4,4 -4,-301 3052.0433,-301 3052.0433,4 -4,4"/>
<!-- study_arm -->
<g id="node1" class="node">
<title>study_arm</title>
<ellipse fill="none" stroke="#000000" cx="647.0433" cy="-105" rx="59.5901" ry="18"/>
<text text-anchor="middle" x="647.0433" y="-101.3" font-family="Times,serif" font-size="14.00" fill="#000000">study_arm</text>
</g>
<!-- study -->
<g id="node15" class="node">
<title>study</title>
<ellipse fill="none" stroke="#000000" cx="1866.0433" cy="-18" rx="36.2938" ry="18"/>
<text text-anchor="middle" x="1866.0433" y="-14.3" font-family="Times,serif" font-size="14.00" fill="#000000">study</text>
</g>
<!-- study_arm&#45;&gt;study -->
<g id="edge30" class="edge">
<title>study_arm&#45;&gt;study</title>
<path fill="none" stroke="#000000" d="M660.2981,-87.3375C670.3089,-75.5233 685.1766,-60.9193 702.0433,-54 754.4968,-32.4817 1608.8954,-21.0315 1819.4381,-18.5284"/>
<polygon fill="#000000" stroke="#000000" points="1819.5856,-22.027 1829.5436,-18.4092 1819.503,-15.0274 1819.5856,-22.027"/>
<text text-anchor="middle" x="750.5433" y="-57.8" font-family="Times,serif" font-size="14.00" fill="#000000">of_study_arm</text>
</g>
<!-- generic_file -->
<g id="node2" class="node">
<title>generic_file</title>
<ellipse fill="none" stroke="#000000" cx="1064.0433" cy="-279" rx="65.7887" ry="18"/>
<text text-anchor="middle" x="1064.0433" y="-275.3" font-family="Times,serif" font-size="14.00" fill="#000000">generic_file</text>
</g>
<!-- sample -->
<g id="node10" class="node">
<title>sample</title>
<ellipse fill="none" stroke="#000000" cx="753.0433" cy="-192" rx="44.393" ry="18"/>
<text text-anchor="middle" x="753.0433" y="-188.3" font-family="Times,serif" font-size="14.00" fill="#000000">sample</text>
</g>
<!-- generic_file&#45;&gt;sample -->
<g id="edge13" class="edge">
<title>generic_file&#45;&gt;sample</title>
<path fill="none" stroke="#000000" d="M1002.6657,-272.4368C944.7279,-265.7086 862.3495,-254.6128 832.0433,-243 820.6472,-238.6333 819.2873,-234.6331 809.0433,-228 801.36,-223.025 793.0712,-217.6829 785.2868,-212.6769"/>
<polygon fill="#000000" stroke="#000000" points="787.0764,-209.6666 776.7714,-207.2052 783.2923,-215.5556 787.0764,-209.6666"/>
<text text-anchor="middle" x="885.0433" y="-231.8" font-family="Times,serif" font-size="14.00" fill="#000000">of_generic_file</text>
</g>
<!-- generic_file&#45;&gt;study -->
<g id="edge15" class="edge">
<title>generic_file&#45;&gt;study</title>
<path fill="none" stroke="#000000" d="M1062.9346,-260.6127C1061.4111,-249.9763 1057.924,-236.9648 1050.0433,-228 1036.3645,-212.4396 1021.6228,-224.7197 1007.0433,-210 984.3922,-187.1312 964.4948,-165.7752 985.0433,-141 1039.0277,-75.911 1645.5277,-32.1625 1819.5965,-20.883"/>
<polygon fill="#000000" stroke="#000000" points="1819.9598,-24.3669 1829.7146,-20.2324 1819.5106,-17.3813 1819.9598,-24.3669"/>
<text text-anchor="middle" x="1038.0433" y="-144.8" font-family="Times,serif" font-size="14.00" fill="#000000">of_generic_file</text>
</g>
<!-- participant -->
<g id="node26" class="node">
<title>participant</title>
<ellipse fill="none" stroke="#000000" cx="1879.0433" cy="-105" rx="62.2891" ry="18"/>
<text text-anchor="middle" x="1879.0433" y="-101.3" font-family="Times,serif" font-size="14.00" fill="#000000">participant</text>
</g>
<!-- generic_file&#45;&gt;participant -->
<g id="edge14" class="edge">
<title>generic_file&#45;&gt;participant</title>
<path fill="none" stroke="#000000" d="M1111.8252,-266.5289C1149.4326,-255.3546 1202.1413,-236.6029 1243.0433,-210 1262.0116,-197.6629 1258.7726,-184.0548 1279.0433,-174 1332.086,-147.6894 1352.4505,-164.5246 1411.0433,-156 1454.2123,-149.7194 1464.7605,-146.4421 1508.0433,-141 1612.4447,-127.8731 1733.8959,-116.8981 1808.619,-110.6372"/>
<polygon fill="#000000" stroke="#000000" points="1809.1711,-114.1034 1818.846,-109.7853 1808.5899,-107.1276 1809.1711,-114.1034"/>
<text text-anchor="middle" x="1332.0433" y="-188.3" font-family="Times,serif" font-size="14.00" fill="#000000">of_generic_file</text>
</g>
<!-- pathology_file -->
<g id="node3" class="node">
<title>pathology_file</title>
<ellipse fill="none" stroke="#000000" cx="76.0433" cy="-279" rx="76.0865" ry="18"/>
<text text-anchor="middle" x="76.0433" y="-275.3" font-family="Times,serif" font-size="14.00" fill="#000000">pathology_file</text>
</g>
<!-- pathology_file&#45;&gt;sample -->
<g id="edge19" class="edge">
<title>pathology_file&#45;&gt;sample</title>
<path fill="none" stroke="#000000" d="M104.3664,-262.294C125.9644,-250.4562 156.8685,-235.4114 186.0433,-228 281.9541,-203.6354 575.8447,-195.3485 698.4419,-192.904"/>
<polygon fill="#000000" stroke="#000000" points="698.7855,-196.3981 708.7158,-192.7049 698.6498,-189.3994 698.7855,-196.3981"/>
<text text-anchor="middle" x="247.0433" y="-231.8" font-family="Times,serif" font-size="14.00" fill="#000000">of_pathology_file</text>
</g>
<!-- clinical_measure_file -->
<g id="node4" class="node">
<title>clinical_measure_file</title>
<ellipse fill="none" stroke="#000000" cx="1125.0433" cy="-192" rx="108.5808" ry="18"/>
<text text-anchor="middle" x="1125.0433" y="-188.3" font-family="Times,serif" font-size="14.00" fill="#000000">clinical_measure_file</text>
</g>
<!-- clinical_measure_file&#45;&gt;study -->
<g id="edge20" class="edge">
<title>clinical_measure_file&#45;&gt;study</title>
<path fill="none" stroke="#000000" d="M1156.7369,-174.7314C1183.6936,-160.0549 1218.1934,-141.303 1219.0433,-141 1435.8353,-63.7055 1711.7287,-31.9168 1819.7378,-21.8606"/>
<polygon fill="#000000" stroke="#000000" points="1820.3205,-25.3221 1829.9609,-20.9275 1819.6841,-18.3511 1820.3205,-25.3221"/>
<text text-anchor="middle" x="1489.0433" y="-101.3" font-family="Times,serif" font-size="14.00" fill="#000000">of_clinical_measure_file</text>
</g>
<!-- clinical_measure_file&#45;&gt;participant -->
<g id="edge21" class="edge">
<title>clinical_measure_file&#45;&gt;participant</title>
<path fill="none" stroke="#000000" d="M1171.6708,-175.6294C1186.1614,-169.9945 1202.0085,-163.2586 1216.0433,-156 1226.8833,-150.3936 1227.4475,-144.8047 1239.0433,-141 1291.6949,-123.7242 1649.8218,-111.5389 1806.2201,-106.9803"/>
<polygon fill="#000000" stroke="#000000" points="1806.7805,-110.4657 1816.6752,-106.6782 1806.5782,-103.4686 1806.7805,-110.4657"/>
<text text-anchor="middle" x="1325.0433" y="-144.8" font-family="Times,serif" font-size="14.00" fill="#000000">of_clinical_measure_file</text>
</g>
<!-- treatment_response -->
<g id="node5" class="node">
<title>treatment_response</title>
<ellipse fill="none" stroke="#000000" cx="2431.0433" cy="-192" rx="104.7816" ry="18"/>
<text text-anchor="middle" x="2431.0433" y="-188.3" font-family="Times,serif" font-size="14.00" fill="#000000">treatment_response</text>
</g>
<!-- treatment_response&#45;&gt;participant -->
<g id="edge26" class="edge">
<title>treatment_response&#45;&gt;participant</title>
<path fill="none" stroke="#000000" d="M2397.8169,-174.8685C2373.1828,-163.064 2338.4067,-148.2471 2306.0433,-141 2159.2437,-108.1274 2117.2786,-141.9614 1968.0433,-123 1958.3083,-121.7631 1948.0452,-120.0634 1938.0866,-118.1992"/>
<polygon fill="#000000" stroke="#000000" points="1938.744,-114.7615 1928.2602,-116.2911 1937.4096,-121.6332 1938.744,-114.7615"/>
<text text-anchor="middle" x="2434.0433" y="-144.8" font-family="Times,serif" font-size="14.00" fill="#000000">of_treatment_response</text>
</g>
<!-- pdx -->
<g id="node6" class="node">
<title>pdx</title>
<ellipse fill="none" stroke="#000000" cx="753.0433" cy="-105" rx="27.8951" ry="18"/>
<text text-anchor="middle" x="753.0433" y="-101.3" font-family="Times,serif" font-size="14.00" fill="#000000">pdx</text>
</g>
<!-- pdx&#45;&gt;sample -->
<g id="edge18" class="edge">
<title>pdx&#45;&gt;sample</title>
<path fill="none" stroke="#000000" d="M734.6559,-118.7771C728.1171,-124.7951 721.519,-132.4387 718.0433,-141 714.1249,-150.6514 718.2009,-160.3109 724.7755,-168.5868"/>
<polygon fill="#000000" stroke="#000000" points="722.311,-171.0771 731.6653,-176.0519 727.4551,-166.3295 722.311,-171.0771"/>
<text text-anchor="middle" x="742.0433" y="-144.8" font-family="Times,serif" font-size="14.00" fill="#000000">of_pdx</text>
</g>
<!-- pdx&#45;&gt;study -->
<g id="edge17" class="edge">
<title>pdx&#45;&gt;study</title>
<path fill="none" stroke="#000000" d="M769.7859,-90.5063C785.1019,-78.2326 808.9769,-61.4759 833.0433,-54 927.8087,-24.5624 1630.0074,-19.119 1819.2029,-18.183"/>
<polygon fill="#000000" stroke="#000000" points="1819.3926,-21.6822 1829.3758,-18.1346 1819.3592,-14.6823 1819.3926,-21.6822"/>
<text text-anchor="middle" x="857.0433" y="-57.8" font-family="Times,serif" font-size="14.00" fill="#000000">of_pdx</text>
</g>
<!-- synonym -->
<g id="node7" class="node">
<title>synonym</title>
<ellipse fill="none" stroke="#000000" cx="2697.0433" cy="-279" rx="51.9908" ry="18"/>
<text text-anchor="middle" x="2697.0433" y="-275.3" font-family="Times,serif" font-size="14.00" fill="#000000">synonym</text>
</g>
<!-- synonym&#45;&gt;sample -->
<g id="edge24" class="edge">
<title>synonym&#45;&gt;sample</title>
<path fill="none" stroke="#000000" d="M2645.4033,-276.7687C2477.388,-269.5239 1931.07,-246.0827 1479.0433,-228 1269.2808,-219.6087 1216.6626,-221.4214 1007.0433,-210 937.8704,-206.231 858.2093,-200.3317 806.8191,-196.3223"/>
<polygon fill="#000000" stroke="#000000" points="806.856,-192.8145 796.613,-195.5218 806.3087,-199.7931 806.856,-192.8145"/>
<text text-anchor="middle" x="1855.5433" y="-231.8" font-family="Times,serif" font-size="14.00" fill="#000000">of_synonym</text>
</g>
<!-- synonym&#45;&gt;study -->
<g id="edge22" class="edge">
<title>synonym&#45;&gt;study</title>
<path fill="none" stroke="#000000" d="M2747.3135,-274.0469C2820.4991,-265.6803 2950.7649,-246.0317 2979.0433,-210 2988.9214,-197.4134 2987.4132,-187.6362 2979.0433,-174 2962.0948,-146.3879 2945.4765,-148.8506 2914.0433,-141 2864.8231,-128.707 2043.6943,-150.4706 2001.0433,-123 1972.4646,-104.5931 1993.3291,-76.7196 1968.0433,-54 1952.2227,-39.7851 1930.4362,-31.1016 1911.0591,-25.8376"/>
<polygon fill="#000000" stroke="#000000" points="1911.7391,-22.4001 1901.1901,-23.3853 1910.051,-29.1936 1911.7391,-22.4001"/>
<text text-anchor="middle" x="3005.5433" y="-144.8" font-family="Times,serif" font-size="14.00" fill="#000000">of_synonym</text>
</g>
<!-- synonym&#45;&gt;participant -->
<g id="edge23" class="edge">
<title>synonym&#45;&gt;participant</title>
<path fill="none" stroke="#000000" d="M2692.5101,-260.7075C2685.7959,-237.3368 2670.9981,-197.1484 2644.0433,-174 2608.2171,-143.233 2589.5581,-149.1545 2543.0433,-141 2291.2032,-96.85 2222.0227,-152.4464 1968.0433,-123 1958.1779,-121.8562 1947.7781,-120.1853 1937.7044,-118.3159"/>
<polygon fill="#000000" stroke="#000000" points="1938.2543,-114.8574 1927.7712,-116.3925 1936.9235,-121.7298 1938.2543,-114.8574"/>
<text text-anchor="middle" x="2713.5433" y="-188.3" font-family="Times,serif" font-size="14.00" fill="#000000">of_synonym</text>
</g>
<!-- study_funding -->
<g id="node8" class="node">
<title>study_funding</title>
<ellipse fill="none" stroke="#000000" cx="2087.0433" cy="-105" rx="77.1866" ry="18"/>
<text text-anchor="middle" x="2087.0433" y="-101.3" font-family="Times,serif" font-size="14.00" fill="#000000">study_funding</text>
</g>
<!-- study_funding&#45;&gt;study -->
<g id="edge29" class="edge">
<title>study_funding&#45;&gt;study</title>
<path fill="none" stroke="#000000" d="M2060.4246,-87.8269C2042.722,-76.9801 2018.6521,-63.3064 1996.0433,-54 1968.0352,-42.4712 1935.1467,-33.4028 1909.4575,-27.2514"/>
<polygon fill="#000000" stroke="#000000" points="1910.1702,-23.8237 1899.6361,-24.957 1908.5777,-30.6402 1910.1702,-23.8237"/>
<text text-anchor="middle" x="2089.0433" y="-57.8" font-family="Times,serif" font-size="14.00" fill="#000000">of_study_funding</text>
</g>
<!-- medical_history -->
<g id="node9" class="node">
<title>medical_history</title>
<ellipse fill="none" stroke="#000000" cx="2885.0433" cy="-192" rx="85.2851" ry="18"/>
<text text-anchor="middle" x="2885.0433" y="-188.3" font-family="Times,serif" font-size="14.00" fill="#000000">medical_history</text>
</g>
<!-- medical_history&#45;&gt;participant -->
<g id="edge27" class="edge">
<title>medical_history&#45;&gt;participant</title>
<path fill="none" stroke="#000000" d="M2842.8466,-176.2601C2808.0394,-164.1014 2757.0763,-148.1772 2711.0433,-141 2547.8553,-115.5566 2132.1701,-141.4409 1968.0433,-123 1958.1739,-121.8911 1947.7721,-120.2379 1937.6976,-118.3754"/>
<polygon fill="#000000" stroke="#000000" points="1938.2465,-114.9168 1927.764,-116.4555 1936.9182,-121.7896 1938.2465,-114.9168"/>
<text text-anchor="middle" x="2842.0433" y="-144.8" font-family="Times,serif" font-size="14.00" fill="#000000">of_medical_history</text>
</g>
<!-- sample&#45;&gt;pdx -->
<g id="edge1" class="edge">
<title>sample&#45;&gt;pdx</title>
<path fill="none" stroke="#000000" d="M709.2538,-189.3873C661.6602,-184.9043 595.6856,-172.8837 622.0433,-141 649.1457,-108.2153 675.679,-136.4206 716.0433,-123 717.9751,-122.3577 719.9355,-121.6353 721.8939,-120.8586"/>
<polygon fill="#000000" stroke="#000000" points="723.7722,-123.8572 731.5308,-116.6422 720.9663,-117.4441 723.7722,-123.8572"/>
<text text-anchor="middle" x="658.5433" y="-144.8" font-family="Times,serif" font-size="14.00" fill="#000000">of_sample</text>
</g>
<!-- cell_line -->
<g id="node11" class="node">
<title>cell_line</title>
<ellipse fill="none" stroke="#000000" cx="884.0433" cy="-105" rx="49.2915" ry="18"/>
<text text-anchor="middle" x="884.0433" y="-101.3" font-family="Times,serif" font-size="14.00" fill="#000000">cell_line</text>
</g>
<!-- sample&#45;&gt;cell_line -->
<g id="edge2" class="edge">
<title>sample&#45;&gt;cell_line</title>
<path fill="none" stroke="#000000" d="M761.9567,-174.3519C768.2377,-163.4511 777.5631,-149.8947 789.0433,-141 801.8528,-131.0752 817.704,-123.6374 832.7637,-118.1798"/>
<polygon fill="#000000" stroke="#000000" points="834.1615,-121.4016 842.5059,-114.8731 831.9115,-114.773 834.1615,-121.4016"/>
<text text-anchor="middle" x="825.5433" y="-144.8" font-family="Times,serif" font-size="14.00" fill="#000000">of_sample</text>
</g>
<!-- sample&#45;&gt;participant -->
<g id="edge3" class="edge">
<title>sample&#45;&gt;participant</title>
<path fill="none" stroke="#000000" d="M797.2758,-190.4996C862.9459,-187.5645 989.8,-179.1717 1095.0433,-156 1115.2207,-151.5575 1118.7489,-144.8732 1139.0433,-141 1203.3427,-128.7285 1633.3085,-113.2094 1806.7301,-107.3674"/>
<polygon fill="#000000" stroke="#000000" points="1806.9067,-110.8635 1816.7836,-107.0299 1806.6718,-103.8674 1806.9067,-110.8635"/>
<text text-anchor="middle" x="1175.5433" y="-144.8" font-family="Times,serif" font-size="14.00" fill="#000000">of_sample</text>
</g>
<!-- cell_line&#45;&gt;sample -->
<g id="edge8" class="edge">
<title>cell_line&#45;&gt;sample</title>
<path fill="none" stroke="#000000" d="M880.167,-123.2557C876.9877,-134.1146 871.432,-147.4054 862.0433,-156 846.387,-170.332 824.8914,-178.9699 805.1251,-184.1708"/>
<polygon fill="#000000" stroke="#000000" points="804.2023,-180.7927 795.2911,-186.5235 805.8311,-187.6006 804.2023,-180.7927"/>
<text text-anchor="middle" x="913.5433" y="-144.8" font-family="Times,serif" font-size="14.00" fill="#000000">of_cell_line</text>
</g>
<!-- cell_line&#45;&gt;study -->
<g id="edge7" class="edge">
<title>cell_line&#45;&gt;study</title>
<path fill="none" stroke="#000000" d="M882.0402,-86.9326C881.8882,-75.7187 883.8904,-61.972 893.0433,-54 928.3066,-23.286 1629.8058,-18.7715 1819.2433,-18.112"/>
<polygon fill="#000000" stroke="#000000" points="1819.4421,-21.6115 1829.4305,-18.0786 1819.4191,-14.6115 1819.4421,-21.6115"/>
<text text-anchor="middle" x="933.5433" y="-57.8" font-family="Times,serif" font-size="14.00" fill="#000000">of_cell_line</text>
</g>
<!-- study_personnel -->
<g id="node12" class="node">
<title>study_personnel</title>
<ellipse fill="none" stroke="#000000" cx="2269.0433" cy="-105" rx="87.1846" ry="18"/>
<text text-anchor="middle" x="2269.0433" y="-101.3" font-family="Times,serif" font-size="14.00" fill="#000000">study_personnel</text>
</g>
<!-- study_personnel&#45;&gt;study -->
<g id="edge6" class="edge">
<title>study_personnel&#45;&gt;study</title>
<path fill="none" stroke="#000000" d="M2238.044,-88.104C2215.6329,-76.651 2184.2796,-62.1637 2155.0433,-54 2071.8345,-30.7655 1970.9563,-22.5091 1913.0631,-19.5873"/>
<polygon fill="#000000" stroke="#000000" points="1912.9213,-16.0768 1902.7674,-19.1014 1912.5912,-23.069 1912.9213,-16.0768"/>
<text text-anchor="middle" x="2265.5433" y="-57.8" font-family="Times,serif" font-size="14.00" fill="#000000">of_study_personnel</text>
</g>
<!-- diagnosis -->
<g id="node13" class="node">
<title>diagnosis</title>
<ellipse fill="none" stroke="#000000" cx="1883.0433" cy="-279" rx="54.6905" ry="18"/>
<text text-anchor="middle" x="1883.0433" y="-275.3" font-family="Times,serif" font-size="14.00" fill="#000000">diagnosis</text>
</g>
<!-- diagnosis&#45;&gt;sample -->
<g id="edge5" class="edge">
<title>diagnosis&#45;&gt;sample</title>
<path fill="none" stroke="#000000" d="M1829.6795,-274.8915C1639.5944,-260.2566 996.749,-210.7632 806.5063,-196.1162"/>
<polygon fill="#000000" stroke="#000000" points="806.71,-192.6216 796.4708,-195.3435 806.1726,-199.6009 806.71,-192.6216"/>
<text text-anchor="middle" x="1430.5433" y="-231.8" font-family="Times,serif" font-size="14.00" fill="#000000">of_diagnosis</text>
</g>
<!-- diagnosis&#45;&gt;participant -->
<g id="edge4" class="edge">
<title>diagnosis&#45;&gt;participant</title>
<path fill="none" stroke="#000000" d="M1937.433,-277.4209C2088.4688,-272.4796 2504.5999,-254.8778 2545.0433,-210 2555.7545,-198.1143 2549.9912,-189.2157 2545.0433,-174 2539.435,-156.7536 2537.0679,-149.4912 2521.0433,-141 2466.7213,-112.2156 2029.1068,-130.1182 1968.0433,-123 1958.1786,-121.8501 1947.7792,-120.176 1937.7056,-118.3054"/>
<polygon fill="#000000" stroke="#000000" points="1938.2556,-114.847 1927.7725,-116.3815 1936.9245,-121.7193 1938.2556,-114.847"/>
<text text-anchor="middle" x="2595.5433" y="-188.3" font-family="Times,serif" font-size="14.00" fill="#000000">of_diagnosis</text>
</g>
<!-- molecular_test -->
<g id="node14" class="node">
<title>molecular_test</title>
<ellipse fill="none" stroke="#000000" cx="1474.0433" cy="-192" rx="79.8859" ry="18"/>
<text text-anchor="middle" x="1474.0433" y="-188.3" font-family="Times,serif" font-size="14.00" fill="#000000">molecular_test</text>
</g>
<!-- molecular_test&#45;&gt;participant -->
<g id="edge10" class="edge">
<title>molecular_test&#45;&gt;participant</title>
<path fill="none" stroke="#000000" d="M1490.1093,-174.2163C1501.6709,-162.6671 1518.3013,-148.4274 1536.0433,-141 1583.3452,-121.1978 1720.9035,-111.778 1806.7626,-107.7121"/>
<polygon fill="#000000" stroke="#000000" points="1807.1389,-111.1986 1816.9674,-107.2425 1806.817,-104.206 1807.1389,-111.1986"/>
<text text-anchor="middle" x="1600.0433" y="-144.8" font-family="Times,serif" font-size="14.00" fill="#000000">of_molecular_test</text>
</g>
<!-- exposure -->
<g id="node16" class="node">
<title>exposure</title>
<ellipse fill="none" stroke="#000000" cx="1625.0433" cy="-192" rx="53.0913" ry="18"/>
<text text-anchor="middle" x="1625.0433" y="-188.3" font-family="Times,serif" font-size="14.00" fill="#000000">exposure</text>
</g>
<!-- exposure&#45;&gt;participant -->
<g id="edge32" class="edge">
<title>exposure&#45;&gt;participant</title>
<path fill="none" stroke="#000000" d="M1642.9209,-174.989C1655.8557,-163.6353 1674.2917,-149.3142 1693.0433,-141 1729.3038,-124.9225 1772.6773,-116.0035 1808.4155,-111.0666"/>
<polygon fill="#000000" stroke="#000000" points="1809.2978,-114.4812 1818.7615,-109.7179 1808.3929,-107.54 1809.2978,-114.4812"/>
<text text-anchor="middle" x="1736.5433" y="-144.8" font-family="Times,serif" font-size="14.00" fill="#000000">of_exposure</text>
</g>
<!-- methylation_array_file -->
<g id="node17" class="node">
<title>methylation_array_file</title>
<ellipse fill="none" stroke="#000000" cx="286.0433" cy="-279" rx="115.8798" ry="18"/>
<text text-anchor="middle" x="286.0433" y="-275.3" font-family="Times,serif" font-size="14.00" fill="#000000">methylation_array_file</text>
</g>
<!-- methylation_array_file&#45;&gt;sample -->
<g id="edge31" class="edge">
<title>methylation_array_file&#45;&gt;sample</title>
<path fill="none" stroke="#000000" d="M296.4767,-260.9062C304.1757,-249.377 315.7737,-235.2831 330.0433,-228 362.1265,-211.625 591.8768,-199.2661 698.6948,-194.3385"/>
<polygon fill="#000000" stroke="#000000" points="699.1148,-197.8231 708.945,-193.8711 698.7959,-190.8303 699.1148,-197.8231"/>
<text text-anchor="middle" x="421.5433" y="-231.8" font-family="Times,serif" font-size="14.00" fill="#000000">of_methylation_array_file</text>
</g>
<!-- cytogenomic_file -->
<g id="node18" class="node">
<title>cytogenomic_file</title>
<ellipse fill="none" stroke="#000000" cx="509.0433" cy="-279" rx="89.8845" ry="18"/>
<text text-anchor="middle" x="509.0433" y="-275.3" font-family="Times,serif" font-size="14.00" fill="#000000">cytogenomic_file</text>
</g>
<!-- cytogenomic_file&#45;&gt;sample -->
<g id="edge25" class="edge">
<title>cytogenomic_file&#45;&gt;sample</title>
<path fill="none" stroke="#000000" d="M510.8253,-260.7796C512.8989,-249.6504 517.3776,-236.0547 527.0433,-228 552.4534,-206.8251 640.4131,-197.9658 698.8085,-194.3593"/>
<polygon fill="#000000" stroke="#000000" points="699.2083,-197.842 708.9873,-193.765 698.8003,-190.8539 699.2083,-197.842"/>
<text text-anchor="middle" x="598.5433" y="-231.8" font-family="Times,serif" font-size="14.00" fill="#000000">of_cytogenomic_file</text>
</g>
<!-- family_relationship -->
<g id="node19" class="node">
<title>family_relationship</title>
<ellipse fill="none" stroke="#000000" cx="1796.0433" cy="-192" rx="100.1823" ry="18"/>
<text text-anchor="middle" x="1796.0433" y="-188.3" font-family="Times,serif" font-size="14.00" fill="#000000">family_relationship</text>
</g>
<!-- family_relationship&#45;&gt;participant -->
<g id="edge9" class="edge">
<title>family_relationship&#45;&gt;participant</title>
<path fill="none" stroke="#000000" d="M1787.7332,-173.6046C1784.3799,-163.2227 1782.6299,-150.4727 1789.0433,-141 1795.8244,-130.984 1805.8922,-123.7545 1816.8666,-118.5363"/>
<polygon fill="#000000" stroke="#000000" points="1818.3738,-121.6997 1826.2461,-114.609 1815.6702,-115.2428 1818.3738,-121.6997"/>
<text text-anchor="middle" x="1868.5433" y="-144.8" font-family="Times,serif" font-size="14.00" fill="#000000">of_family_relationship</text>
</g>
<!-- publication -->
<g id="node20" class="node">
<title>publication</title>
<ellipse fill="none" stroke="#000000" cx="2437.0433" cy="-105" rx="63.0888" ry="18"/>
<text text-anchor="middle" x="2437.0433" y="-101.3" font-family="Times,serif" font-size="14.00" fill="#000000">publication</text>
</g>
<!-- publication&#45;&gt;study -->
<g id="edge34" class="edge">
<title>publication&#45;&gt;study</title>
<path fill="none" stroke="#000000" d="M2412.0338,-88.36C2392.906,-76.556 2365.4182,-61.5244 2339.0433,-54 2259.8929,-31.4196 2015.9789,-22.1534 1912.8509,-19.1761"/>
<polygon fill="#000000" stroke="#000000" points="1912.8307,-15.6742 1902.7361,-18.8913 1912.6336,-22.6714 1912.8307,-15.6742"/>
<text text-anchor="middle" x="2426.0433" y="-57.8" font-family="Times,serif" font-size="14.00" fill="#000000">of_publication</text>
</g>
<!-- survival -->
<g id="node21" class="node">
<title>survival</title>
<ellipse fill="none" stroke="#000000" cx="1962.0433" cy="-192" rx="48.1917" ry="18"/>
<text text-anchor="middle" x="1962.0433" y="-188.3" font-family="Times,serif" font-size="14.00" fill="#000000">survival</text>
</g>
<!-- survival&#45;&gt;participant -->
<g id="edge11" class="edge">
<title>survival&#45;&gt;participant</title>
<path fill="none" stroke="#000000" d="M1960.6545,-173.8487C1959.0317,-163.2959 1955.5385,-150.2895 1948.0433,-141 1942.6158,-134.2734 1935.5925,-128.6606 1928.1097,-124.0251"/>
<polygon fill="#000000" stroke="#000000" points="1929.6175,-120.858 1919.1826,-119.024 1926.1963,-126.965 1929.6175,-120.858"/>
<text text-anchor="middle" x="1994.5433" y="-144.8" font-family="Times,serif" font-size="14.00" fill="#000000">of_survival</text>
</g>
<!-- radiology_file -->
<g id="node22" class="node">
<title>radiology_file</title>
<ellipse fill="none" stroke="#000000" cx="2102.0433" cy="-192" rx="73.387" ry="18"/>
<text text-anchor="middle" x="2102.0433" y="-188.3" font-family="Times,serif" font-size="14.00" fill="#000000">radiology_file</text>
</g>
<!-- radiology_file&#45;&gt;participant -->
<g id="edge12" class="edge">
<title>radiology_file&#45;&gt;participant</title>
<path fill="none" stroke="#000000" d="M2084.5206,-174.4017C2072.4347,-163.236 2055.4608,-149.3653 2038.0433,-141 2028.9984,-136.656 1981.1858,-126.0781 1940.3304,-117.5057"/>
<polygon fill="#000000" stroke="#000000" points="1940.8963,-114.0485 1930.392,-115.4308 1939.4656,-120.9007 1940.8963,-114.0485"/>
<text text-anchor="middle" x="2119.0433" y="-144.8" font-family="Times,serif" font-size="14.00" fill="#000000">of_radiology_file</text>
</g>
<!-- study_admin -->
<g id="node23" class="node">
<title>study_admin</title>
<ellipse fill="none" stroke="#000000" cx="2588.0433" cy="-105" rx="70.3881" ry="18"/>
<text text-anchor="middle" x="2588.0433" y="-101.3" font-family="Times,serif" font-size="14.00" fill="#000000">study_admin</text>
</g>
<!-- study_admin&#45;&gt;study -->
<g id="edge28" class="edge">
<title>study_admin&#45;&gt;study</title>
<path fill="none" stroke="#000000" d="M2560.5637,-88.2446C2539.5909,-76.3816 2509.5439,-61.3268 2481.0433,-54 2373.7231,-26.4107 2037.2158,-19.8983 1912.8485,-18.4181"/>
<polygon fill="#000000" stroke="#000000" points="1912.5648,-14.9147 1902.5258,-18.3011 1912.4854,-21.9143 1912.5648,-14.9147"/>
<text text-anchor="middle" x="2576.5433" y="-57.8" font-family="Times,serif" font-size="14.00" fill="#000000">of_study_admin</text>
</g>
<!-- sequencing_file -->
<g id="node24" class="node">
<title>sequencing_file</title>
<ellipse fill="none" stroke="#000000" cx="700.0433" cy="-279" rx="83.3857" ry="18"/>
<text text-anchor="middle" x="700.0433" y="-275.3" font-family="Times,serif" font-size="14.00" fill="#000000">sequencing_file</text>
</g>
<!-- sequencing_file&#45;&gt;sample -->
<g id="edge16" class="edge">
<title>sequencing_file&#45;&gt;sample</title>
<path fill="none" stroke="#000000" d="M682.641,-260.9497C675.1342,-250.9194 669.4237,-238.4022 676.0433,-228 682.728,-217.4954 693.3707,-210.0046 704.6363,-204.682"/>
<polygon fill="#000000" stroke="#000000" points="706.2919,-207.7837 714.1727,-200.7025 703.5961,-201.3236 706.2919,-207.7837"/>
<text text-anchor="middle" x="742.5433" y="-231.8" font-family="Times,serif" font-size="14.00" fill="#000000">of_sequencing_file</text>
</g>
<!-- treatment -->
<g id="node25" class="node">
<title>treatment</title>
<ellipse fill="none" stroke="#000000" cx="2251.0433" cy="-192" rx="57.6901" ry="18"/>
<text text-anchor="middle" x="2251.0433" y="-188.3" font-family="Times,serif" font-size="14.00" fill="#000000">treatment</text>
</g>
<!-- treatment&#45;&gt;participant -->
<g id="edge33" class="edge">
<title>treatment&#45;&gt;participant</title>
<path fill="none" stroke="#000000" d="M2233.402,-174.6032C2220.3659,-162.9142 2201.5595,-148.3507 2182.0433,-141 2092.7219,-107.3576 2062.5331,-136.4829 1968.0433,-123 1958.5454,-121.6447 1948.5335,-119.9166 1938.7887,-118.0694"/>
<polygon fill="#000000" stroke="#000000" points="1939.2485,-114.5931 1928.7631,-116.112 1937.9071,-121.4634 1939.2485,-114.5931"/>
<text text-anchor="middle" x="2255.0433" y="-144.8" font-family="Times,serif" font-size="14.00" fill="#000000">of_treatment</text>
</g>
<!-- participant&#45;&gt;study -->
<g id="edge35" class="edge">
<title>participant&#45;&gt;study</title>
<path fill="none" stroke="#000000" d="M1871.8462,-86.9604C1869.9121,-81.3023 1868.0727,-74.973 1867.0433,-69 1865.7755,-61.6446 1865.2341,-53.6046 1865.0782,-46.1279"/>
<polygon fill="#000000" stroke="#000000" points="1868.5781,-46.0637 1865.079,-36.0634 1861.5781,-46.0631 1868.5781,-46.0637"/>
<text text-anchor="middle" x="1917.5433" y="-57.8" font-family="Times,serif" font-size="14.00" fill="#000000">of_participant</text>
</g>
</g>
</svg>
