<svg width="2990pt" height="392pt"
 viewBox="0.00 0.00 2989.84 392.00" xmlns="http://www.w3.org/2000/svg" xmlns:xlink="http://www.w3.org/1999/xlink">
<g id="graph0" class="graph" transform="scale(1 1) rotate(0) translate(4 388)">
<title>Perl</title>
<polygon fill="#ffffff" stroke="transparent" points="-4,4 -4,-388 2985.8379,-388 2985.8379,4 -4,4"/>
<!-- sequencing_file -->
<g id="node1" class="node">
<title>sequencing_file</title>
<ellipse fill="none" stroke="#000000" cx="960.0433" cy="-366" rx="83.3857" ry="18"/>
<text text-anchor="middle" x="960.0433" y="-362.3" font-family="Times,serif" font-size="14.00" fill="#000000">sequencing_file</text>
</g>
<!-- sample -->
<g id="node3" class="node">
<title>sample</title>
<ellipse fill="none" stroke="#000000" cx="1159.0433" cy="-192" rx="44.393" ry="18"/>
<text text-anchor="middle" x="1159.0433" y="-188.3" font-family="Times,serif" font-size="14.00" fill="#000000">sample</text>
</g>
<!-- sequencing_file&#45;&gt;sample -->
<g id="edge18" class="edge">
<title>sequencing_file&#45;&gt;sample</title>
<path fill="none" stroke="#000000" d="M957.2485,-347.8893C954.7872,-325.0812 954.2071,-285.8748 974.0433,-261 978.6834,-255.1812 1062.1877,-225.4956 1115.4056,-207.0078"/>
<polygon fill="#000000" stroke="#000000" points="1116.6621,-210.2766 1124.9642,-203.6943 1114.3694,-203.6627 1116.6621,-210.2766"/>
<text text-anchor="middle" x="1040.5433" y="-275.3" font-family="Times,serif" font-size="14.00" fill="#000000">of_sequencing_file</text>
</g>
<!-- pdx -->
<g id="node9" class="node">
<title>pdx</title>
<ellipse fill="none" stroke="#000000" cx="1144.0433" cy="-279" rx="27.8951" ry="18"/>
<text text-anchor="middle" x="1144.0433" y="-275.3" font-family="Times,serif" font-size="14.00" fill="#000000">pdx</text>
</g>
<!-- sequencing_file&#45;&gt;pdx -->
<g id="edge10" class="edge">
<title>sequencing_file&#45;&gt;pdx</title>
<path fill="none" stroke="#000000" d="M1033.3892,-357.4325C1071.4829,-351.5977 1112.9624,-342.6186 1127.0433,-330 1133.7375,-324.001 1137.8009,-315.2972 1140.2656,-306.773"/>
<polygon fill="#000000" stroke="#000000" points="1143.6783,-307.5491 1142.4862,-297.0216 1136.8531,-305.9948 1143.6783,-307.5491"/>
<text text-anchor="middle" x="1245.5433" y="-318.8" font-family="Times,serif" font-size="14.00" fill="#000000">of_single_cell_sequencing_file</text>
</g>
<!-- sequencing_file&#45;&gt;pdx -->
<g id="edge19" class="edge">
<title>sequencing_file&#45;&gt;pdx</title>
<path fill="none" stroke="#000000" d="M966.1581,-347.8597C970.9021,-336.6158 978.6202,-322.8631 990.0433,-315 1029.7658,-287.6568 1050.5181,-309.6863 1097.0433,-297 1101.5269,-295.7774 1106.1763,-294.2859 1110.7289,-292.6899"/>
<polygon fill="#000000" stroke="#000000" points="1112.2775,-295.8487 1120.4392,-289.0931 1109.8461,-289.2846 1112.2775,-295.8487"/>
<text text-anchor="middle" x="1056.5433" y="-318.8" font-family="Times,serif" font-size="14.00" fill="#000000">of_sequencing_file</text>
</g>
<!-- cell_line -->
<g id="node19" class="node">
<title>cell_line</title>
<ellipse fill="none" stroke="#000000" cx="626.0433" cy="-279" rx="49.2915" ry="18"/>
<text text-anchor="middle" x="626.0433" y="-275.3" font-family="Times,serif" font-size="14.00" fill="#000000">cell_line</text>
</g>
<!-- sequencing_file&#45;&gt;cell_line -->
<g id="edge11" class="edge">
<title>sequencing_file&#45;&gt;cell_line</title>
<path fill="none" stroke="#000000" d="M876.9707,-364.981C688.7523,-362.2653 244.3263,-353.3965 222.0433,-330 217.4455,-325.1725 217.5433,-319.9188 222.0433,-315 244.7842,-290.1425 459.3025,-282.3315 566.1563,-279.9719"/>
<polygon fill="#000000" stroke="#000000" points="566.538,-283.4647 576.4617,-279.7539 566.3898,-276.4663 566.538,-283.4647"/>
<text text-anchor="middle" x="330.5433" y="-318.8" font-family="Times,serif" font-size="14.00" fill="#000000">of_single_cell_sequencing_file</text>
</g>
<!-- sequencing_file&#45;&gt;cell_line -->
<g id="edge20" class="edge">
<title>sequencing_file&#45;&gt;cell_line</title>
<path fill="none" stroke="#000000" d="M877.5603,-363.3009C778.937,-359.2066 624.8499,-349.715 607.0433,-330 600.7447,-323.0264 602.2075,-313.774 606.3519,-305.0659"/>
<polygon fill="#000000" stroke="#000000" points="609.4423,-306.7135 611.4286,-296.3065 603.3859,-303.2034 609.4423,-306.7135"/>
<text text-anchor="middle" x="673.5433" y="-318.8" font-family="Times,serif" font-size="14.00" fill="#000000">of_sequencing_file</text>
</g>
<!-- participant -->
<g id="node2" class="node">
<title>participant</title>
<ellipse fill="none" stroke="#000000" cx="1992.0433" cy="-105" rx="62.2891" ry="18"/>
<text text-anchor="middle" x="1992.0433" y="-101.3" font-family="Times,serif" font-size="14.00" fill="#000000">participant</text>
</g>
<!-- study -->
<g id="node13" class="node">
<title>study</title>
<ellipse fill="none" stroke="#000000" cx="1992.0433" cy="-18" rx="36.2938" ry="18"/>
<text text-anchor="middle" x="1992.0433" y="-14.3" font-family="Times,serif" font-size="14.00" fill="#000000">study</text>
</g>
<!-- participant&#45;&gt;study -->
<g id="edge7" class="edge">
<title>participant&#45;&gt;study</title>
<path fill="none" stroke="#000000" d="M1992.0433,-86.9735C1992.0433,-75.1918 1992.0433,-59.5607 1992.0433,-46.1581"/>
<polygon fill="#000000" stroke="#000000" points="1995.5434,-46.0033 1992.0433,-36.0034 1988.5434,-46.0034 1995.5434,-46.0033"/>
<text text-anchor="middle" x="2042.5433" y="-57.8" font-family="Times,serif" font-size="14.00" fill="#000000">of_participant</text>
</g>
<!-- sample&#45;&gt;participant -->
<g id="edge14" class="edge">
<title>sample&#45;&gt;participant</title>
<path fill="none" stroke="#000000" d="M1176.0272,-175.2572C1189.4535,-163.2333 1209.329,-147.9675 1230.0433,-141 1302.8393,-116.514 1844.9608,-133.5019 1921.0433,-123 1926.5544,-122.2393 1932.2555,-121.2129 1937.9207,-120.0338"/>
<polygon fill="#000000" stroke="#000000" points="1939.0363,-123.3707 1948.0304,-117.7709 1937.5073,-116.5398 1939.0363,-123.3707"/>
<text text-anchor="middle" x="1266.5433" y="-144.8" font-family="Times,serif" font-size="14.00" fill="#000000">of_sample</text>
</g>
<!-- pathology_file -->
<g id="node4" class="node">
<title>pathology_file</title>
<ellipse fill="none" stroke="#000000" cx="76.0433" cy="-366" rx="76.0865" ry="18"/>
<text text-anchor="middle" x="76.0433" y="-362.3" font-family="Times,serif" font-size="14.00" fill="#000000">pathology_file</text>
</g>
<!-- pathology_file&#45;&gt;sample -->
<g id="edge2" class="edge">
<title>pathology_file&#45;&gt;sample</title>
<path fill="none" stroke="#000000" d="M71.9059,-347.7707C70.5835,-336.9217 71.1339,-323.6321 79.0433,-315 190.4218,-193.4432 282.2027,-279.3714 446.0433,-261 737.9784,-228.2654 817.1048,-268.2161 1105.0433,-210 1108.9101,-209.2182 1112.8842,-208.2425 1116.838,-207.1523"/>
<polygon fill="#000000" stroke="#000000" points="1117.9709,-210.4668 1126.5516,-204.2522 1115.9682,-203.7594 1117.9709,-210.4668"/>
<text text-anchor="middle" x="507.0433" y="-275.3" font-family="Times,serif" font-size="14.00" fill="#000000">of_pathology_file</text>
</g>
<!-- pathology_file&#45;&gt;pdx -->
<g id="edge3" class="edge">
<title>pathology_file&#45;&gt;pdx</title>
<path fill="none" stroke="#000000" d="M149.3724,-361.1363C239.1678,-354.7601 385.8763,-342.8647 439.0433,-330 456.691,-325.7298 459.2572,-318.6516 477.0433,-315 612.0629,-287.2796 961.8838,-324.0305 1097.0433,-297 1101.8253,-296.0436 1106.7561,-294.6487 1111.5437,-293.0519"/>
<polygon fill="#000000" stroke="#000000" points="1112.8859,-296.2879 1121.0758,-289.5666 1110.482,-289.7136 1112.8859,-296.2879"/>
<text text-anchor="middle" x="538.0433" y="-318.8" font-family="Times,serif" font-size="14.00" fill="#000000">of_pathology_file</text>
</g>
<!-- pathology_file&#45;&gt;cell_line -->
<g id="edge4" class="edge">
<title>pathology_file&#45;&gt;cell_line</title>
<path fill="none" stroke="#000000" d="M77.1665,-347.7554C78.8936,-336.4687 83.076,-322.7076 93.0433,-315 111.5229,-300.7098 431.1285,-286.612 566.3718,-281.2571"/>
<polygon fill="#000000" stroke="#000000" points="566.7033,-284.7469 576.558,-280.8565 566.4282,-277.7523 566.7033,-284.7469"/>
<text text-anchor="middle" x="154.0433" y="-318.8" font-family="Times,serif" font-size="14.00" fill="#000000">of_pathology_file</text>
</g>
<!-- family_relationship -->
<g id="node5" class="node">
<title>family_relationship</title>
<ellipse fill="none" stroke="#000000" cx="1445.0433" cy="-192" rx="100.1823" ry="18"/>
<text text-anchor="middle" x="1445.0433" y="-188.3" font-family="Times,serif" font-size="14.00" fill="#000000">family_relationship</text>
</g>
<!-- family_relationship&#45;&gt;participant -->
<g id="edge15" class="edge">
<title>family_relationship&#45;&gt;participant</title>
<path fill="none" stroke="#000000" d="M1430.4098,-173.9748C1423.4948,-163.2026 1418.4404,-149.9221 1427.0433,-141 1446.1055,-121.2306 1893.8584,-126.8963 1921.0433,-123 1926.4717,-122.222 1932.0861,-121.1953 1937.6696,-120.0258"/>
<polygon fill="#000000" stroke="#000000" points="1938.6486,-123.3932 1947.64,-117.7893 1937.1164,-116.5629 1938.6486,-123.3932"/>
<text text-anchor="middle" x="1506.5433" y="-144.8" font-family="Times,serif" font-size="14.00" fill="#000000">of_family_relationship</text>
</g>
<!-- study_personnel -->
<g id="node6" class="node">
<title>study_personnel</title>
<ellipse fill="none" stroke="#000000" cx="1509.0433" cy="-105" rx="87.1846" ry="18"/>
<text text-anchor="middle" x="1509.0433" y="-101.3" font-family="Times,serif" font-size="14.00" fill="#000000">study_personnel</text>
</g>
<!-- study_personnel&#45;&gt;study -->
<g id="edge17" class="edge">
<title>study_personnel&#45;&gt;study</title>
<path fill="none" stroke="#000000" d="M1526.9712,-87.3694C1539.9988,-75.7316 1558.6767,-61.3255 1578.0433,-54 1644.2233,-28.9669 1852.0325,-21.1603 1945.5868,-18.8783"/>
<polygon fill="#000000" stroke="#000000" points="1945.6973,-22.3767 1955.6129,-18.6443 1945.534,-15.3786 1945.6973,-22.3767"/>
<text text-anchor="middle" x="1647.5433" y="-57.8" font-family="Times,serif" font-size="14.00" fill="#000000">of_study_personnel</text>
</g>
<!-- therapeutic_procedure -->
<g id="node7" class="node">
<title>therapeutic_procedure</title>
<ellipse fill="none" stroke="#000000" cx="1802.0433" cy="-192" rx="117.7793" ry="18"/>
<text text-anchor="middle" x="1802.0433" y="-188.3" font-family="Times,serif" font-size="14.00" fill="#000000">therapeutic_procedure</text>
</g>
<!-- therapeutic_procedure&#45;&gt;participant -->
<g id="edge28" class="edge">
<title>therapeutic_procedure&#45;&gt;participant</title>
<path fill="none" stroke="#000000" d="M1796.6789,-173.9317C1794.6601,-163.1432 1794.422,-149.8608 1802.0433,-141 1819.4835,-120.7233 1894.8269,-128.2927 1921.0433,-123 1926.0565,-121.9879 1931.2469,-120.8496 1936.4351,-119.6496"/>
<polygon fill="#000000" stroke="#000000" points="1937.4467,-123.0066 1946.3625,-117.2831 1935.8234,-116.1974 1937.4467,-123.0066"/>
<text text-anchor="middle" x="1895.0433" y="-144.8" font-family="Times,serif" font-size="14.00" fill="#000000">of_therapeutic_procedure</text>
</g>
<!-- diagnosis -->
<g id="node8" class="node">
<title>diagnosis</title>
<ellipse fill="none" stroke="#000000" cx="1992.0433" cy="-192" rx="54.6905" ry="18"/>
<text text-anchor="middle" x="1992.0433" y="-188.3" font-family="Times,serif" font-size="14.00" fill="#000000">diagnosis</text>
</g>
<!-- diagnosis&#45;&gt;participant -->
<g id="edge16" class="edge">
<title>diagnosis&#45;&gt;participant</title>
<path fill="none" stroke="#000000" d="M1992.0433,-173.9735C1992.0433,-162.1918 1992.0433,-146.5607 1992.0433,-133.1581"/>
<polygon fill="#000000" stroke="#000000" points="1995.5434,-133.0033 1992.0433,-123.0034 1988.5434,-133.0034 1995.5434,-133.0033"/>
<text text-anchor="middle" x="2036.5433" y="-144.8" font-family="Times,serif" font-size="14.00" fill="#000000">of_diagnosis</text>
</g>
<!-- pdx&#45;&gt;sample -->
<g id="edge8" class="edge">
<title>pdx&#45;&gt;sample</title>
<path fill="none" stroke="#000000" d="M1143.4103,-260.9064C1143.4022,-251.0865 1143.9372,-238.7839 1146.0433,-228 1146.5742,-225.2812 1147.277,-222.4933 1148.0815,-219.7308"/>
<polygon fill="#000000" stroke="#000000" points="1151.4809,-220.5998 1151.3161,-210.0062 1144.8387,-218.3904 1151.4809,-220.5998"/>
<text text-anchor="middle" x="1170.0433" y="-231.8" font-family="Times,serif" font-size="14.00" fill="#000000">of_pdx</text>
</g>
<!-- medical_history -->
<g id="node10" class="node">
<title>medical_history</title>
<ellipse fill="none" stroke="#000000" cx="2150.0433" cy="-192" rx="85.2851" ry="18"/>
<text text-anchor="middle" x="2150.0433" y="-188.3" font-family="Times,serif" font-size="14.00" fill="#000000">medical_history</text>
</g>
<!-- medical_history&#45;&gt;participant -->
<g id="edge29" class="edge">
<title>medical_history&#45;&gt;participant</title>
<path fill="none" stroke="#000000" d="M2128.0373,-174.5065C2111.9468,-161.9071 2091.3701,-146.2416 2082.0433,-141 2069.6477,-134.0338 2055.6306,-127.7444 2042.4126,-122.444"/>
<polygon fill="#000000" stroke="#000000" points="2043.552,-119.1317 2032.9636,-118.7636 2041.0114,-125.6544 2043.552,-119.1317"/>
<text text-anchor="middle" x="2170.0433" y="-144.8" font-family="Times,serif" font-size="14.00" fill="#000000">of_medical_history</text>
</g>
<!-- study_funding -->
<g id="node11" class="node">
<title>study_funding</title>
<ellipse fill="none" stroke="#000000" cx="1691.0433" cy="-105" rx="77.1866" ry="18"/>
<text text-anchor="middle" x="1691.0433" y="-101.3" font-family="Times,serif" font-size="14.00" fill="#000000">study_funding</text>
</g>
<!-- study_funding&#45;&gt;study -->
<g id="edge32" class="edge">
<title>study_funding&#45;&gt;study</title>
<path fill="none" stroke="#000000" d="M1704.4494,-86.9165C1713.9183,-75.5458 1727.6308,-61.6291 1743.0433,-54 1777.7351,-36.8277 1883.7518,-26.177 1945.6969,-21.2492"/>
<polygon fill="#000000" stroke="#000000" points="1946.2836,-24.7143 1955.9829,-20.4513 1945.7421,-17.7353 1946.2836,-24.7143"/>
<text text-anchor="middle" x="1805.0433" y="-57.8" font-family="Times,serif" font-size="14.00" fill="#000000">of_study_funding</text>
</g>
<!-- follow_up -->
<g id="node12" class="node">
<title>follow_up</title>
<ellipse fill="none" stroke="#000000" cx="2308.0433" cy="-192" rx="55.4913" ry="18"/>
<text text-anchor="middle" x="2308.0433" y="-188.3" font-family="Times,serif" font-size="14.00" fill="#000000">follow_up</text>
</g>
<!-- follow_up&#45;&gt;participant -->
<g id="edge31" class="edge">
<title>follow_up&#45;&gt;participant</title>
<path fill="none" stroke="#000000" d="M2287.0817,-175.1993C2269.4249,-161.1903 2246.2334,-143.1767 2241.0433,-141 2209.6602,-127.8384 2124.2264,-117.3613 2062.1699,-111.1771"/>
<polygon fill="#000000" stroke="#000000" points="2062.3302,-107.6761 2052.0366,-110.1845 2061.6477,-114.6428 2062.3302,-107.6761"/>
<text text-anchor="middle" x="2306.0433" y="-144.8" font-family="Times,serif" font-size="14.00" fill="#000000">of_follow_up</text>
</g>
<!-- publication -->
<g id="node14" class="node">
<title>publication</title>
<ellipse fill="none" stroke="#000000" cx="1849.0433" cy="-105" rx="63.0888" ry="18"/>
<text text-anchor="middle" x="1849.0433" y="-101.3" font-family="Times,serif" font-size="14.00" fill="#000000">publication</text>
</g>
<!-- publication&#45;&gt;study -->
<g id="edge13" class="edge">
<title>publication&#45;&gt;study</title>
<path fill="none" stroke="#000000" d="M1858.4959,-86.7258C1864.947,-75.8599 1874.421,-62.5684 1886.0433,-54 1904.1096,-40.6808 1927.4481,-32.0524 1947.6252,-26.5931"/>
<polygon fill="#000000" stroke="#000000" points="1948.7013,-29.9313 1957.5405,-24.0901 1946.988,-23.1442 1948.7013,-29.9313"/>
<text text-anchor="middle" x="1937.0433" y="-57.8" font-family="Times,serif" font-size="14.00" fill="#000000">of_publication</text>
</g>
<!-- molecular_test -->
<g id="node15" class="node">
<title>molecular_test</title>
<ellipse fill="none" stroke="#000000" cx="2461.0433" cy="-192" rx="79.8859" ry="18"/>
<text text-anchor="middle" x="2461.0433" y="-188.3" font-family="Times,serif" font-size="14.00" fill="#000000">molecular_test</text>
</g>
<!-- molecular_test&#45;&gt;participant -->
<g id="edge30" class="edge">
<title>molecular_test&#45;&gt;participant</title>
<path fill="none" stroke="#000000" d="M2420.6404,-176.3504C2406.5922,-170.4748 2390.8922,-163.4117 2377.0433,-156 2366.2833,-150.2414 2365.5547,-145.0528 2354.0433,-141 2302.2737,-122.7739 2153.9441,-112.7024 2064.028,-108.1139"/>
<polygon fill="#000000" stroke="#000000" points="2064.0634,-104.6114 2053.9011,-107.6076 2063.7139,-111.6026 2064.0634,-104.6114"/>
<text text-anchor="middle" x="2441.0433" y="-144.8" font-family="Times,serif" font-size="14.00" fill="#000000">of_molecular_test</text>
</g>
<!-- single_cell_sequencing_file -->
<g id="node16" class="node">
<title>single_cell_sequencing_file</title>
<ellipse fill="none" stroke="#000000" cx="1547.0433" cy="-279" rx="137.5759" ry="18"/>
<text text-anchor="middle" x="1547.0433" y="-275.3" font-family="Times,serif" font-size="14.00" fill="#000000">single_cell_sequencing_file</text>
</g>
<!-- single_cell_sequencing_file&#45;&gt;sample -->
<g id="edge12" class="edge">
<title>single_cell_sequencing_file&#45;&gt;sample</title>
<path fill="none" stroke="#000000" d="M1444.842,-266.8864C1428.1977,-264.9167 1411.1412,-262.9001 1395.0433,-261 1327.0463,-252.974 1306.4195,-266.3173 1242.0433,-243 1230.5687,-238.8439 1229.3886,-234.4739 1219.0433,-228 1210.6361,-222.739 1201.4891,-217.1722 1192.929,-212.0298"/>
<polygon fill="#000000" stroke="#000000" points="1194.6554,-208.9841 1184.2767,-206.8551 1191.0624,-214.9917 1194.6554,-208.9841"/>
<text text-anchor="middle" x="1350.5433" y="-231.8" font-family="Times,serif" font-size="14.00" fill="#000000">of_single_cell_sequencing_file</text>
</g>
<!-- synonym -->
<g id="node17" class="node">
<title>synonym</title>
<ellipse fill="none" stroke="#000000" cx="1755.0433" cy="-279" rx="51.9908" ry="18"/>
<text text-anchor="middle" x="1755.0433" y="-275.3" font-family="Times,serif" font-size="14.00" fill="#000000">synonym</text>
</g>
<!-- synonym&#45;&gt;participant -->
<g id="edge33" class="edge">
<title>synonym&#45;&gt;participant</title>
<path fill="none" stroke="#000000" d="M1718.2015,-266.0441C1671.9116,-249.3993 1597.5711,-221.3076 1590.0433,-210 1581.1766,-196.6815 1579.6865,-186.1958 1590.0433,-174 1638.2175,-117.2716 1848.0006,-137.2702 1921.0433,-123 1926.0627,-122.0194 1931.2574,-120.9026 1936.4484,-119.7166"/>
<polygon fill="#000000" stroke="#000000" points="1937.4532,-123.0756 1946.3794,-117.3683 1935.8424,-116.2635 1937.4532,-123.0756"/>
<text text-anchor="middle" x="1632.5433" y="-188.3" font-family="Times,serif" font-size="14.00" fill="#000000">of_synonym</text>
</g>
<!-- synonym&#45;&gt;sample -->
<g id="edge34" class="edge">
<title>synonym&#45;&gt;sample</title>
<path fill="none" stroke="#000000" d="M1717.2615,-266.563C1709.6423,-264.4209 1701.6394,-262.428 1694.0433,-261 1601.1099,-243.5295 1571.4622,-273.7584 1482.0433,-243 1470.5029,-239.0303 1470.6071,-231.9006 1459.0433,-228 1354.7478,-192.8203 1319.9165,-231.8752 1212.0433,-210 1208.4004,-209.2613 1204.663,-208.3415 1200.9405,-207.3112"/>
<polygon fill="#000000" stroke="#000000" points="1201.7818,-203.9093 1191.1972,-204.3744 1199.7616,-210.6115 1201.7818,-203.9093"/>
<text text-anchor="middle" x="1524.5433" y="-231.8" font-family="Times,serif" font-size="14.00" fill="#000000">of_synonym</text>
</g>
<!-- synonym&#45;&gt;study -->
<g id="edge35" class="edge">
<title>synonym&#45;&gt;study</title>
<path fill="none" stroke="#000000" d="M1806.9057,-277.345C2012.7452,-270.5509 2762.7579,-243.5691 2800.0433,-210 2840.971,-173.1515 2848.7341,-130.5639 2815.0433,-87 2779.3659,-40.8674 2745.6813,-62.8851 2688.0433,-54 2562.3191,-34.6192 2173.5672,-22.7886 2038.697,-19.1804"/>
<polygon fill="#000000" stroke="#000000" points="2038.7713,-15.6813 2028.6821,-18.9152 2038.5859,-22.6788 2038.7713,-15.6813"/>
<text text-anchor="middle" x="2878.5433" y="-144.8" font-family="Times,serif" font-size="14.00" fill="#000000">of_synonym</text>
</g>
<!-- radiology_file -->
<g id="node18" class="node">
<title>radiology_file</title>
<ellipse fill="none" stroke="#000000" cx="1023.0433" cy="-192" rx="73.387" ry="18"/>
<text text-anchor="middle" x="1023.0433" y="-188.3" font-family="Times,serif" font-size="14.00" fill="#000000">radiology_file</text>
</g>
<!-- radiology_file&#45;&gt;participant -->
<g id="edge24" class="edge">
<title>radiology_file&#45;&gt;participant</title>
<path fill="none" stroke="#000000" d="M1037.2023,-174.2713C1047.8445,-162.4259 1063.5507,-147.8118 1081.0433,-141 1168.0349,-107.1244 1828.5361,-135.5515 1921.0433,-123 1926.5561,-122.252 1932.2584,-121.234 1937.9243,-120.06"/>
<polygon fill="#000000" stroke="#000000" points="1939.0375,-123.3977 1948.0348,-117.8032 1937.5125,-116.5659 1939.0375,-123.3977"/>
<text text-anchor="middle" x="1140.0433" y="-144.8" font-family="Times,serif" font-size="14.00" fill="#000000">of_radiology_file</text>
</g>
<!-- cell_line&#45;&gt;participant -->
<g id="edge6" class="edge">
<title>cell_line&#45;&gt;participant</title>
<path fill="none" stroke="#000000" d="M653.6073,-263.8494C696.4765,-240.9352 782.2943,-197.6371 860.0433,-174 943.7224,-148.5601 966.9738,-149.2636 1054.0433,-141 1245.8893,-122.7923 1730.0761,-148.8458 1921.0433,-123 1926.5564,-122.2538 1932.2588,-121.237 1937.9248,-120.0638"/>
<polygon fill="#000000" stroke="#000000" points="1939.0376,-123.4016 1948.0354,-117.8078 1937.5132,-116.5696 1939.0376,-123.4016"/>
<text text-anchor="middle" x="900.5433" y="-188.3" font-family="Times,serif" font-size="14.00" fill="#000000">of_cell_line</text>
</g>
<!-- cell_line&#45;&gt;study -->
<g id="edge5" class="edge">
<title>cell_line&#45;&gt;study</title>
<path fill="none" stroke="#000000" d="M644.4912,-261.8672C669.418,-239.3972 715.9436,-199.8065 761.0433,-174 795.4988,-154.2842 805.5874,-150.8513 844.0433,-141 1058.6765,-86.0172 1758.7123,-34.2711 1945.7467,-21.1739"/>
<polygon fill="#000000" stroke="#000000" points="1946.0656,-24.6603 1955.7978,-20.4728 1945.5784,-17.6772 1946.0656,-24.6603"/>
<text text-anchor="middle" x="884.5433" y="-144.8" font-family="Times,serif" font-size="14.00" fill="#000000">of_cell_line</text>
</g>
<!-- exposure -->
<g id="node20" class="node">
<title>exposure</title>
<ellipse fill="none" stroke="#000000" cx="1274.0433" cy="-192" rx="53.0913" ry="18"/>
<text text-anchor="middle" x="1274.0433" y="-188.3" font-family="Times,serif" font-size="14.00" fill="#000000">exposure</text>
</g>
<!-- exposure&#45;&gt;participant -->
<g id="edge9" class="edge">
<title>exposure&#45;&gt;participant</title>
<path fill="none" stroke="#000000" d="M1287.6911,-174.5778C1298.1315,-162.7139 1313.6573,-147.9482 1331.0433,-141 1391.9459,-116.6606 1856.0934,-132.1128 1921.0433,-123 1926.474,-122.238 1932.0898,-121.222 1937.6744,-120.0591"/>
<polygon fill="#000000" stroke="#000000" points="1938.6501,-123.4275 1947.6459,-117.8304 1937.1232,-116.596 1938.6501,-123.4275"/>
<text text-anchor="middle" x="1374.5433" y="-144.8" font-family="Times,serif" font-size="14.00" fill="#000000">of_exposure</text>
</g>
<!-- methylation_array_file -->
<g id="node21" class="node">
<title>methylation_array_file</title>
<ellipse fill="none" stroke="#000000" cx="1389.0433" cy="-366" rx="115.8798" ry="18"/>
<text text-anchor="middle" x="1389.0433" y="-362.3" font-family="Times,serif" font-size="14.00" fill="#000000">methylation_array_file</text>
</g>
<!-- methylation_array_file&#45;&gt;sample -->
<g id="edge26" class="edge">
<title>methylation_array_file&#45;&gt;sample</title>
<path fill="none" stroke="#000000" d="M1485.8358,-356.1219C1518.3906,-350.6509 1549.0237,-342.3636 1559.0433,-330 1563.2407,-324.8206 1563.6317,-319.8363 1559.0433,-315 1532.8527,-287.3947 1247.3175,-320.0536 1217.0433,-297 1191.3254,-277.4161 1210.8437,-255.6167 1194.0433,-228 1191.5147,-223.8436 1188.4251,-219.7883 1185.1392,-215.9877"/>
<polygon fill="#000000" stroke="#000000" points="1187.6184,-213.5145 1178.2358,-208.5933 1182.5017,-218.2914 1187.6184,-213.5145"/>
<text text-anchor="middle" x="1308.5433" y="-275.3" font-family="Times,serif" font-size="14.00" fill="#000000">of_methylation_array_file</text>
</g>
<!-- methylation_array_file&#45;&gt;pdx -->
<g id="edge25" class="edge">
<title>methylation_array_file&#45;&gt;pdx</title>
<path fill="none" stroke="#000000" d="M1382.8426,-347.8567C1377.954,-336.4608 1369.9491,-322.5384 1358.0433,-315 1325.5736,-294.4413 1223.2355,-306.6785 1186.0433,-297 1182.6388,-296.1141 1179.1536,-294.995 1175.7177,-293.7501"/>
<polygon fill="#000000" stroke="#000000" points="1176.8592,-290.4375 1166.2735,-289.9977 1174.2744,-296.9428 1176.8592,-290.4375"/>
<text text-anchor="middle" x="1463.5433" y="-318.8" font-family="Times,serif" font-size="14.00" fill="#000000">of_methylation_array_file</text>
</g>
<!-- methylation_array_file&#45;&gt;cell_line -->
<g id="edge27" class="edge">
<title>methylation_array_file&#45;&gt;cell_line</title>
<path fill="none" stroke="#000000" d="M1279.6379,-360.1242C1113.0978,-351.0811 812.6821,-334.3402 789.0433,-330 786.0653,-329.4532 720.4988,-308.8322 673.4446,-293.9823"/>
<polygon fill="#000000" stroke="#000000" points="674.3037,-290.5833 663.714,-290.9104 672.1964,-297.2586 674.3037,-290.5833"/>
<text text-anchor="middle" x="880.5433" y="-318.8" font-family="Times,serif" font-size="14.00" fill="#000000">of_methylation_array_file</text>
</g>
<!-- study_admin -->
<g id="node22" class="node">
<title>study_admin</title>
<ellipse fill="none" stroke="#000000" cx="2736.0433" cy="-105" rx="70.3881" ry="18"/>
<text text-anchor="middle" x="2736.0433" y="-101.3" font-family="Times,serif" font-size="14.00" fill="#000000">study_admin</text>
</g>
<!-- study_admin&#45;&gt;study -->
<g id="edge21" class="edge">
<title>study_admin&#45;&gt;study</title>
<path fill="none" stroke="#000000" d="M2685.5087,-92.4252C2636.0208,-80.6097 2558.3157,-63.3816 2490.0433,-54 2324.9985,-31.3205 2127.0903,-22.4039 2038.681,-19.3678"/>
<polygon fill="#000000" stroke="#000000" points="2038.563,-15.862 2028.4518,-19.0262 2038.3293,-22.8581 2038.563,-15.862"/>
<text text-anchor="middle" x="2627.5433" y="-57.8" font-family="Times,serif" font-size="14.00" fill="#000000">of_study_admin</text>
</g>
<!-- clinical_measure_file -->
<g id="node23" class="node">
<title>clinical_measure_file</title>
<ellipse fill="none" stroke="#000000" cx="2682.0433" cy="-192" rx="108.5808" ry="18"/>
<text text-anchor="middle" x="2682.0433" y="-188.3" font-family="Times,serif" font-size="14.00" fill="#000000">clinical_measure_file</text>
</g>
<!-- clinical_measure_file&#45;&gt;participant -->
<g id="edge1" class="edge">
<title>clinical_measure_file&#45;&gt;participant</title>
<path fill="none" stroke="#000000" d="M2604.3873,-179.3534C2579.4212,-173.8479 2552.0298,-166.2482 2528.0433,-156 2516.8206,-151.2052 2516.6124,-144.8851 2505.0433,-141 2464.4073,-127.3539 2196.0308,-113.9218 2064.4813,-108.0625"/>
<polygon fill="#000000" stroke="#000000" points="2064.247,-104.5488 2054.102,-107.6033 2063.9375,-111.542 2064.247,-104.5488"/>
<text text-anchor="middle" x="2657.5433" y="-144.8" font-family="Times,serif" font-size="14.00" fill="#000000">of_clinical_measure_file_participant</text>
</g>
<!-- clinical_measure_file&#45;&gt;study -->
<g id="edge23" class="edge">
<title>clinical_measure_file&#45;&gt;study</title>
<path fill="none" stroke="#000000" d="M2755.3273,-178.588C2782.5919,-170.4972 2803.3724,-158.3314 2787.0433,-141 2763.9917,-116.5336 2518.3539,-127.5139 2485.0433,-123 2315.8833,-100.0772 2118.2684,-51.1219 2033.7835,-29.117"/>
<polygon fill="#000000" stroke="#000000" points="2034.611,-25.7158 2024.0508,-26.5707 2032.8392,-32.4879 2034.611,-25.7158"/>
<text text-anchor="middle" x="2571.0433" y="-101.3" font-family="Times,serif" font-size="14.00" fill="#000000">of_clinical_measure_file</text>
</g>
<!-- study_arm -->
<g id="node24" class="node">
<title>study_arm</title>
<ellipse fill="none" stroke="#000000" cx="2922.0433" cy="-105" rx="59.5901" ry="18"/>
<text text-anchor="middle" x="2922.0433" y="-101.3" font-family="Times,serif" font-size="14.00" fill="#000000">study_arm</text>
</g>
<!-- study_arm&#45;&gt;study -->
<g id="edge22" class="edge">
<title>study_arm&#45;&gt;study</title>
<path fill="none" stroke="#000000" d="M2903.5897,-87.8473C2889.5254,-75.95 2869.0554,-61.027 2848.0433,-54 2771.3106,-28.3387 2206.6468,-20.2922 2038.9033,-18.4551"/>
<polygon fill="#000000" stroke="#000000" points="2038.7042,-14.9529 2028.6672,-18.3454 2038.6291,-21.9525 2038.7042,-14.9529"/>
<text text-anchor="middle" x="2924.5433" y="-57.8" font-family="Times,serif" font-size="14.00" fill="#000000">of_study_arm</text>
</g>
</g>
</svg>
