<svg width="2759pt" height="305pt"
 viewBox="0.00 0.00 2759.34 305.00" xmlns="http://www.w3.org/2000/svg" xmlns:xlink="http://www.w3.org/1999/xlink">
<g id="graph0" class="graph" transform="scale(1 1) rotate(0) translate(4 301)">
<title>Perl</title>
<polygon fill="#ffffff" stroke="transparent" points="-4,4 -4,-301 2755.3427,-301 2755.3427,4 -4,4"/>
<!-- cytogenomic_file -->
<g id="node1" class="node">
<title>cytogenomic_file</title>
<ellipse fill="none" stroke="#000000" cx="1992.1489" cy="-279" rx="89.8845" ry="18"/>
<text text-anchor="middle" x="1992.1489" y="-275.3" font-family="Times,serif" font-size="14.00" fill="#000000">cytogenomic_file</text>
</g>
<!-- sample -->
<g id="node19" class="node">
<title>sample</title>
<ellipse fill="none" stroke="#000000" cx="1891.1489" cy="-192" rx="44.393" ry="18"/>
<text text-anchor="middle" x="1891.1489" y="-188.3" font-family="Times,serif" font-size="14.00" fill="#000000">sample</text>
</g>
<!-- cytogenomic_file&#45;&gt;sample -->
<g id="edge2" class="edge">
<title>cytogenomic_file&#45;&gt;sample</title>
<path fill="none" stroke="#000000" d="M1987.7829,-260.6047C1984.4586,-249.9653 1978.9225,-236.9537 1970.1489,-228 1960.9929,-218.656 1948.9641,-211.5097 1937.0632,-206.1451"/>
<polygon fill="#000000" stroke="#000000" points="1938.1812,-202.8197 1927.6035,-202.2168 1935.4966,-209.2844 1938.1812,-202.8197"/>
<text text-anchor="middle" x="2051.6489" y="-231.8" font-family="Times,serif" font-size="14.00" fill="#000000">of_cytogenomic_file</text>
</g>
<!-- participant -->
<g id="node2" class="node">
<title>participant</title>
<ellipse fill="none" stroke="#000000" cx="1039.1489" cy="-105" rx="62.2891" ry="18"/>
<text text-anchor="middle" x="1039.1489" y="-101.3" font-family="Times,serif" font-size="14.00" fill="#000000">participant</text>
</g>
<!-- study -->
<g id="node9" class="node">
<title>study</title>
<ellipse fill="none" stroke="#000000" cx="1972.1489" cy="-18" rx="36.2938" ry="18"/>
<text text-anchor="middle" x="1972.1489" y="-14.3" font-family="Times,serif" font-size="14.00" fill="#000000">study</text>
</g>
<!-- participant&#45;&gt;study -->
<g id="edge3" class="edge">
<title>participant&#45;&gt;study</title>
<path fill="none" stroke="#000000" d="M1098.5754,-99.4586C1271.4135,-83.3419 1771.4305,-36.7165 1926.0406,-22.2995"/>
<polygon fill="#000000" stroke="#000000" points="1926.511,-25.7709 1936.1429,-21.3575 1925.8611,-18.8011 1926.511,-25.7709"/>
<text text-anchor="middle" x="1612.6489" y="-57.8" font-family="Times,serif" font-size="14.00" fill="#000000">of_participant</text>
</g>
<!-- survival -->
<g id="node3" class="node">
<title>survival</title>
<ellipse fill="none" stroke="#000000" cx="64.1489" cy="-192" rx="48.1917" ry="18"/>
<text text-anchor="middle" x="64.1489" y="-188.3" font-family="Times,serif" font-size="14.00" fill="#000000">survival</text>
</g>
<!-- survival&#45;&gt;participant -->
<g id="edge24" class="edge">
<title>survival&#45;&gt;participant</title>
<path fill="none" stroke="#000000" d="M92.9932,-177.3573C118.5798,-165.1652 157.3439,-148.6132 193.1489,-141 267.6296,-125.1633 775.6918,-111.3803 966.7304,-106.7"/>
<polygon fill="#000000" stroke="#000000" points="967.0367,-110.1937 976.9484,-106.451 966.866,-103.1958 967.0367,-110.1937"/>
<text text-anchor="middle" x="232.6489" y="-144.8" font-family="Times,serif" font-size="14.00" fill="#000000">of_survival</text>
</g>
<!-- study_arm -->
<g id="node4" class="node">
<title>study_arm</title>
<ellipse fill="none" stroke="#000000" cx="2025.1489" cy="-105" rx="59.5901" ry="18"/>
<text text-anchor="middle" x="2025.1489" y="-101.3" font-family="Times,serif" font-size="14.00" fill="#000000">study_arm</text>
</g>
<!-- study_arm&#45;&gt;study -->
<g id="edge22" class="edge">
<title>study_arm&#45;&gt;study</title>
<path fill="none" stroke="#000000" d="M2014.256,-87.0558C2008.3178,-77.2796 2000.8356,-64.9712 1994.1489,-54 1992.2048,-50.8102 1990.1622,-47.4625 1988.1374,-44.1465"/>
<polygon fill="#000000" stroke="#000000" points="1991.0997,-42.2818 1982.8995,-35.573 1985.1263,-45.9312 1991.0997,-42.2818"/>
<text text-anchor="middle" x="2050.6489" y="-57.8" font-family="Times,serif" font-size="14.00" fill="#000000">of_study_arm</text>
</g>
<!-- exposure -->
<g id="node5" class="node">
<title>exposure</title>
<ellipse fill="none" stroke="#000000" cx="419.1489" cy="-192" rx="53.0913" ry="18"/>
<text text-anchor="middle" x="419.1489" y="-188.3" font-family="Times,serif" font-size="14.00" fill="#000000">exposure</text>
</g>
<!-- exposure&#45;&gt;participant -->
<g id="edge1" class="edge">
<title>exposure&#45;&gt;participant</title>
<path fill="none" stroke="#000000" d="M441.8096,-175.5297C459.4855,-163.6485 485.1541,-148.442 510.1489,-141 593.4945,-116.1844 841.9638,-108.3893 966.422,-106.0082"/>
<polygon fill="#000000" stroke="#000000" points="966.6844,-109.5041 976.6181,-105.82 966.5551,-102.5053 966.6844,-109.5041"/>
<text text-anchor="middle" x="553.6489" y="-144.8" font-family="Times,serif" font-size="14.00" fill="#000000">of_exposure</text>
</g>
<!-- synonym -->
<g id="node6" class="node">
<title>synonym</title>
<ellipse fill="none" stroke="#000000" cx="1025.1489" cy="-279" rx="51.9908" ry="18"/>
<text text-anchor="middle" x="1025.1489" y="-275.3" font-family="Times,serif" font-size="14.00" fill="#000000">synonym</text>
</g>
<!-- synonym&#45;&gt;participant -->
<g id="edge5" class="edge">
<title>synonym&#45;&gt;participant</title>
<path fill="none" stroke="#000000" d="M1026.6207,-260.7078C1029.0638,-230.3436 1033.9736,-169.3226 1036.8682,-133.3464"/>
<polygon fill="#000000" stroke="#000000" points="1040.3835,-133.2956 1037.6969,-123.0471 1033.4061,-132.7341 1040.3835,-133.2956"/>
<text text-anchor="middle" x="1076.6489" y="-188.3" font-family="Times,serif" font-size="14.00" fill="#000000">of_synonym</text>
</g>
<!-- synonym&#45;&gt;study -->
<g id="edge4" class="edge">
<title>synonym&#45;&gt;study</title>
<path fill="none" stroke="#000000" d="M973.0837,-277.4236C769.9777,-271.0261 40.4476,-245.6321 7.1489,-210 -3.7755,-198.31 -.4334,-188.0893 7.1489,-174 51.5402,-91.5138 172.8707,-103.9173 301.1489,-87 627.8846,-43.9102 1689.1315,-22.9833 1925.2895,-18.7964"/>
<polygon fill="#000000" stroke="#000000" points="1925.6511,-22.2906 1935.5879,-18.6151 1925.5279,-15.2917 1925.6511,-22.2906"/>
<text text-anchor="middle" x="75.6489" y="-144.8" font-family="Times,serif" font-size="14.00" fill="#000000">of_synonym</text>
</g>
<!-- synonym&#45;&gt;sample -->
<g id="edge6" class="edge">
<title>synonym&#45;&gt;sample</title>
<path fill="none" stroke="#000000" d="M1072.1361,-271.2319C1143.4594,-259.765 1283.4226,-238.531 1403.1489,-228 1595.9035,-211.0455 1647.9299,-245.4751 1838.1489,-210 1841.8029,-209.3185 1845.5482,-208.4389 1849.2759,-207.4355"/>
<polygon fill="#000000" stroke="#000000" points="1850.4366,-210.742 1859.0275,-204.5414 1848.445,-204.0312 1850.4366,-210.742"/>
<text text-anchor="middle" x="1445.6489" y="-231.8" font-family="Times,serif" font-size="14.00" fill="#000000">of_synonym</text>
</g>
<!-- pathology_file -->
<g id="node7" class="node">
<title>pathology_file</title>
<ellipse fill="none" stroke="#000000" cx="2176.1489" cy="-279" rx="76.0865" ry="18"/>
<text text-anchor="middle" x="2176.1489" y="-275.3" font-family="Times,serif" font-size="14.00" fill="#000000">pathology_file</text>
</g>
<!-- pathology_file&#45;&gt;sample -->
<g id="edge28" class="edge">
<title>pathology_file&#45;&gt;sample</title>
<path fill="none" stroke="#000000" d="M2163.7147,-260.9548C2154.8758,-249.6004 2141.9732,-235.6873 2127.1489,-228 2096.2806,-211.9929 2004.4906,-201.5035 1944.9013,-196.1755"/>
<polygon fill="#000000" stroke="#000000" points="1945.1672,-192.6854 1934.9007,-195.3025 1944.5584,-199.6589 1945.1672,-192.6854"/>
<text text-anchor="middle" x="2208.1489" y="-231.8" font-family="Times,serif" font-size="14.00" fill="#000000">of_pathology_file</text>
</g>
<!-- clinical_measure_file -->
<g id="node8" class="node">
<title>clinical_measure_file</title>
<ellipse fill="none" stroke="#000000" cx="239.1489" cy="-192" rx="108.5808" ry="18"/>
<text text-anchor="middle" x="239.1489" y="-188.3" font-family="Times,serif" font-size="14.00" fill="#000000">clinical_measure_file</text>
</g>
<!-- clinical_measure_file&#45;&gt;participant -->
<g id="edge30" class="edge">
<title>clinical_measure_file&#45;&gt;participant</title>
<path fill="none" stroke="#000000" d="M254.5281,-174.1551C265.8295,-162.4189 282.2774,-147.9834 300.1489,-141 361.0372,-117.2075 792.3846,-108.4903 966.5152,-105.9176"/>
<polygon fill="#000000" stroke="#000000" points="966.6621,-109.416 976.6102,-105.7711 966.5605,-102.4167 966.6621,-109.416"/>
<text text-anchor="middle" x="386.1489" y="-144.8" font-family="Times,serif" font-size="14.00" fill="#000000">of_clinical_measure_file</text>
</g>
<!-- clinical_measure_file&#45;&gt;study -->
<g id="edge29" class="edge">
<title>clinical_measure_file&#45;&gt;study</title>
<path fill="none" stroke="#000000" d="M246.042,-173.8259C251.3693,-162.417 259.9184,-148.4917 272.1489,-141 471.7939,-18.7089 562.7877,-105.8612 796.1489,-87 1234.5524,-51.5665 1766.3035,-26.9716 1925.1736,-20.0111"/>
<polygon fill="#000000" stroke="#000000" points="1925.6906,-23.492 1935.5285,-19.5593 1925.3854,-16.4986 1925.6906,-23.492"/>
<text text-anchor="middle" x="882.1489" y="-101.3" font-family="Times,serif" font-size="14.00" fill="#000000">of_clinical_measure_file</text>
</g>
<!-- treatment -->
<g id="node10" class="node">
<title>treatment</title>
<ellipse fill="none" stroke="#000000" cx="548.1489" cy="-192" rx="57.6901" ry="18"/>
<text text-anchor="middle" x="548.1489" y="-188.3" font-family="Times,serif" font-size="14.00" fill="#000000">treatment</text>
</g>
<!-- treatment&#45;&gt;participant -->
<g id="edge27" class="edge">
<title>treatment&#45;&gt;participant</title>
<path fill="none" stroke="#000000" d="M569.8788,-175.1631C586.2988,-163.4228 609.9097,-148.5578 633.1489,-141 693.2678,-121.4483 867.2459,-111.6519 966.8593,-107.5177"/>
<polygon fill="#000000" stroke="#000000" points="967.2976,-111.0029 977.1473,-107.0999 967.0135,-104.0087 967.2976,-111.0029"/>
<text text-anchor="middle" x="680.1489" y="-144.8" font-family="Times,serif" font-size="14.00" fill="#000000">of_treatment</text>
</g>
<!-- study_funding -->
<g id="node11" class="node">
<title>study_funding</title>
<ellipse fill="none" stroke="#000000" cx="2180.1489" cy="-105" rx="77.1866" ry="18"/>
<text text-anchor="middle" x="2180.1489" y="-101.3" font-family="Times,serif" font-size="14.00" fill="#000000">study_funding</text>
</g>
<!-- study_funding&#45;&gt;study -->
<g id="edge25" class="edge">
<title>study_funding&#45;&gt;study</title>
<path fill="none" stroke="#000000" d="M2158.0115,-87.5926C2143.1907,-76.6495 2122.8554,-62.9567 2103.1489,-54 2075.3782,-41.3781 2042.2321,-32.3211 2016.2297,-26.4486"/>
<polygon fill="#000000" stroke="#000000" points="2016.7981,-22.9903 2006.2818,-24.2774 2015.3054,-29.8293 2016.7981,-22.9903"/>
<text text-anchor="middle" x="2191.1489" y="-57.8" font-family="Times,serif" font-size="14.00" fill="#000000">of_study_funding</text>
</g>
<!-- family_relationship -->
<g id="node12" class="node">
<title>family_relationship</title>
<ellipse fill="none" stroke="#000000" cx="724.1489" cy="-192" rx="100.1823" ry="18"/>
<text text-anchor="middle" x="724.1489" y="-188.3" font-family="Times,serif" font-size="14.00" fill="#000000">family_relationship</text>
</g>
<!-- family_relationship&#45;&gt;participant -->
<g id="edge32" class="edge">
<title>family_relationship&#45;&gt;participant</title>
<path fill="none" stroke="#000000" d="M725.0356,-173.9556C726.591,-162.751 730.5136,-149.0062 740.1489,-141 757.3518,-126.7059 885.1424,-115.4366 967.9991,-109.5348"/>
<polygon fill="#000000" stroke="#000000" points="968.3905,-113.016 978.1209,-108.8245 967.9004,-106.0332 968.3905,-113.016"/>
<text text-anchor="middle" x="819.6489" y="-144.8" font-family="Times,serif" font-size="14.00" fill="#000000">of_family_relationship</text>
</g>
<!-- radiology_file -->
<g id="node13" class="node">
<title>radiology_file</title>
<ellipse fill="none" stroke="#000000" cx="916.1489" cy="-192" rx="73.387" ry="18"/>
<text text-anchor="middle" x="916.1489" y="-188.3" font-family="Times,serif" font-size="14.00" fill="#000000">radiology_file</text>
</g>
<!-- radiology_file&#45;&gt;participant -->
<g id="edge14" class="edge">
<title>radiology_file&#45;&gt;participant</title>
<path fill="none" stroke="#000000" d="M906.5984,-173.8482C902.486,-163.2952 900.0542,-150.2887 907.1489,-141 915.7259,-129.7707 944.8402,-121.2034 973.5505,-115.2492"/>
<polygon fill="#000000" stroke="#000000" points="974.523,-118.6248 983.6545,-113.252 973.1656,-111.7576 974.523,-118.6248"/>
<text text-anchor="middle" x="966.1489" y="-144.8" font-family="Times,serif" font-size="14.00" fill="#000000">of_radiology_file</text>
</g>
<!-- study_personnel -->
<g id="node14" class="node">
<title>study_personnel</title>
<ellipse fill="none" stroke="#000000" cx="2362.1489" cy="-105" rx="87.1846" ry="18"/>
<text text-anchor="middle" x="2362.1489" y="-101.3" font-family="Times,serif" font-size="14.00" fill="#000000">study_personnel</text>
</g>
<!-- study_personnel&#45;&gt;study -->
<g id="edge26" class="edge">
<title>study_personnel&#45;&gt;study</title>
<path fill="none" stroke="#000000" d="M2333.3201,-87.808C2312.786,-76.3713 2284.1509,-62.0254 2257.1489,-54 2213.4966,-41.0257 2087.0864,-28.2419 2018.2088,-21.9795"/>
<polygon fill="#000000" stroke="#000000" points="2018.3487,-18.478 2008.0752,-21.0674 2017.7212,-25.4498 2018.3487,-18.478"/>
<text text-anchor="middle" x="2364.6489" y="-57.8" font-family="Times,serif" font-size="14.00" fill="#000000">of_study_personnel</text>
</g>
<!-- methylation_array_file -->
<g id="node15" class="node">
<title>methylation_array_file</title>
<ellipse fill="none" stroke="#000000" cx="1457.1489" cy="-279" rx="115.8798" ry="18"/>
<text text-anchor="middle" x="1457.1489" y="-275.3" font-family="Times,serif" font-size="14.00" fill="#000000">methylation_array_file</text>
</g>
<!-- methylation_array_file&#45;&gt;sample -->
<g id="edge15" class="edge">
<title>methylation_array_file&#45;&gt;sample</title>
<path fill="none" stroke="#000000" d="M1471.842,-260.9495C1482.5076,-249.2812 1498.0238,-235.0087 1515.1489,-228 1581.6817,-200.7705 1767.5744,-223.6853 1838.1489,-210 1841.7979,-209.2924 1845.5397,-208.3944 1849.2651,-207.3787"/>
<polygon fill="#000000" stroke="#000000" points="1850.4342,-210.6824 1859.013,-204.4652 1848.4295,-203.9756 1850.4342,-210.6824"/>
<text text-anchor="middle" x="1606.6489" y="-231.8" font-family="Times,serif" font-size="14.00" fill="#000000">of_methylation_array_file</text>
</g>
<!-- publication -->
<g id="node16" class="node">
<title>publication</title>
<ellipse fill="none" stroke="#000000" cx="2530.1489" cy="-105" rx="63.0888" ry="18"/>
<text text-anchor="middle" x="2530.1489" y="-101.3" font-family="Times,serif" font-size="14.00" fill="#000000">publication</text>
</g>
<!-- publication&#45;&gt;study -->
<g id="edge31" class="edge">
<title>publication&#45;&gt;study</title>
<path fill="none" stroke="#000000" d="M2506.4417,-88.1026C2488.5761,-76.3322 2462.9863,-61.4561 2438.1489,-54 2360.57,-30.711 2120.5812,-21.8518 2018.6775,-19.0799"/>
<polygon fill="#000000" stroke="#000000" points="2018.7681,-15.5812 2008.6791,-18.8155 2018.583,-22.5787 2018.7681,-15.5812"/>
<text text-anchor="middle" x="2523.1489" y="-57.8" font-family="Times,serif" font-size="14.00" fill="#000000">of_publication</text>
</g>
<!-- cell_line -->
<g id="node17" class="node">
<title>cell_line</title>
<ellipse fill="none" stroke="#000000" cx="1898.1489" cy="-105" rx="49.2915" ry="18"/>
<text text-anchor="middle" x="1898.1489" y="-101.3" font-family="Times,serif" font-size="14.00" fill="#000000">cell_line</text>
</g>
<!-- cell_line&#45;&gt;study -->
<g id="edge8" class="edge">
<title>cell_line&#45;&gt;study</title>
<path fill="none" stroke="#000000" d="M1898.5117,-86.5157C1899.5493,-76.1043 1902.2993,-63.3543 1909.1489,-54 1915.3447,-45.5387 1924.1732,-38.7734 1933.2669,-33.496"/>
<polygon fill="#000000" stroke="#000000" points="1935.144,-36.4631 1942.3613,-28.7067 1931.8823,-30.2695 1935.144,-36.4631"/>
<text text-anchor="middle" x="1949.6489" y="-57.8" font-family="Times,serif" font-size="14.00" fill="#000000">of_cell_line</text>
</g>
<!-- cell_line&#45;&gt;sample -->
<g id="edge9" class="edge">
<title>cell_line&#45;&gt;sample</title>
<path fill="none" stroke="#000000" d="M1927.8783,-119.4287C1942.7131,-128.7531 1955.9897,-141.7743 1948.1489,-156 1944.2162,-163.1352 1938.2079,-169.0519 1931.5434,-173.885"/>
<polygon fill="#000000" stroke="#000000" points="1929.3979,-171.1025 1922.8577,-179.4378 1933.1684,-177.0003 1929.3979,-171.1025"/>
<text text-anchor="middle" x="1990.6489" y="-144.8" font-family="Times,serif" font-size="14.00" fill="#000000">of_cell_line</text>
</g>
<!-- diagnosis -->
<g id="node18" class="node">
<title>diagnosis</title>
<ellipse fill="none" stroke="#000000" cx="1645.1489" cy="-279" rx="54.6905" ry="18"/>
<text text-anchor="middle" x="1645.1489" y="-275.3" font-family="Times,serif" font-size="14.00" fill="#000000">diagnosis</text>
</g>
<!-- diagnosis&#45;&gt;participant -->
<g id="edge21" class="edge">
<title>diagnosis&#45;&gt;participant</title>
<path fill="none" stroke="#000000" d="M1604.6212,-266.846C1597.1774,-264.7777 1589.4524,-262.739 1582.1489,-261 1540.7689,-251.1473 1529.7822,-251.721 1488.1489,-243 1423.4606,-229.4496 1400.646,-242.5928 1343.1489,-210 1306.231,-189.0727 1314.8124,-160.5539 1277.1489,-141 1248.7061,-126.2332 1168.9137,-116.2384 1109.5115,-110.5982"/>
<polygon fill="#000000" stroke="#000000" points="1109.701,-107.1008 1099.4207,-109.663 1109.055,-114.071 1109.701,-107.1008"/>
<text text-anchor="middle" x="1387.6489" y="-188.3" font-family="Times,serif" font-size="14.00" fill="#000000">of_diagnosis</text>
</g>
<!-- diagnosis&#45;&gt;sample -->
<g id="edge20" class="edge">
<title>diagnosis&#45;&gt;sample</title>
<path fill="none" stroke="#000000" d="M1667.7067,-262.4657C1684.4108,-251.0316 1708.1655,-236.4149 1731.1489,-228 1776.433,-211.4203 1791.3891,-221.792 1838.1489,-210 1841.5499,-209.1423 1845.0454,-208.1687 1848.5412,-207.1289"/>
<polygon fill="#000000" stroke="#000000" points="1849.8207,-210.3958 1858.3156,-204.0643 1847.7265,-203.7164 1849.8207,-210.3958"/>
<text text-anchor="middle" x="1775.6489" y="-231.8" font-family="Times,serif" font-size="14.00" fill="#000000">of_diagnosis</text>
</g>
<!-- sample&#45;&gt;participant -->
<g id="edge12" class="edge">
<title>sample&#45;&gt;participant</title>
<path fill="none" stroke="#000000" d="M1858.3321,-179.8692C1851.7113,-177.7019 1844.7552,-175.6214 1838.1489,-174 1787.4801,-161.5644 1772.4376,-169.8935 1722.1489,-156 1705.0453,-151.2747 1702.4641,-144.8795 1685.1489,-141 1577.841,-116.9572 1256.7774,-108.6329 1111.7129,-106.0474"/>
<polygon fill="#000000" stroke="#000000" points="1111.6372,-102.5456 1101.5778,-105.871 1111.5154,-109.5446 1111.6372,-102.5456"/>
<text text-anchor="middle" x="1758.6489" y="-144.8" font-family="Times,serif" font-size="14.00" fill="#000000">of_sample</text>
</g>
<!-- sample&#45;&gt;cell_line -->
<g id="edge10" class="edge">
<title>sample&#45;&gt;cell_line</title>
<path fill="none" stroke="#000000" d="M1933.8755,-187.1154C1971.6865,-181.809 2022.7394,-171.8938 2035.1489,-156 2039.2517,-150.7453 2039.3065,-146.2114 2035.1489,-141 2012.6912,-112.8497 1990.9266,-132.3437 1956.1489,-123 1952.5247,-122.0263 1948.7871,-120.9754 1945.0377,-119.8875"/>
<polygon fill="#000000" stroke="#000000" points="1945.7376,-116.4443 1935.1548,-116.9495 1943.7428,-123.1541 1945.7376,-116.4443"/>
<text text-anchor="middle" x="2074.6489" y="-144.8" font-family="Times,serif" font-size="14.00" fill="#000000">of_sample</text>
</g>
<!-- pdx -->
<g id="node24" class="node">
<title>pdx</title>
<ellipse fill="none" stroke="#000000" cx="1803.1489" cy="-105" rx="27.8951" ry="18"/>
<text text-anchor="middle" x="1803.1489" y="-101.3" font-family="Times,serif" font-size="14.00" fill="#000000">pdx</text>
</g>
<!-- sample&#45;&gt;pdx -->
<g id="edge11" class="edge">
<title>sample&#45;&gt;pdx</title>
<path fill="none" stroke="#000000" d="M1857.668,-180.1481C1834.5795,-171.6431 1807.4669,-160.86 1804.1489,-156 1799.6355,-149.3889 1798.1846,-141.0882 1798.1964,-133.1152"/>
<polygon fill="#000000" stroke="#000000" points="1801.698,-133.2165 1798.9197,-122.9924 1794.7158,-132.7175 1801.698,-133.2165"/>
<text text-anchor="middle" x="1840.6489" y="-144.8" font-family="Times,serif" font-size="14.00" fill="#000000">of_sample</text>
</g>
<!-- sequencing_file -->
<g id="node20" class="node">
<title>sequencing_file</title>
<ellipse fill="none" stroke="#000000" cx="1801.1489" cy="-279" rx="83.3857" ry="18"/>
<text text-anchor="middle" x="1801.1489" y="-275.3" font-family="Times,serif" font-size="14.00" fill="#000000">sequencing_file</text>
</g>
<!-- sequencing_file&#45;&gt;sample -->
<g id="edge19" class="edge">
<title>sequencing_file&#45;&gt;sample</title>
<path fill="none" stroke="#000000" d="M1811.6946,-260.7582C1818.2098,-250.4277 1827.2098,-237.6777 1837.1489,-228 1842.9386,-222.3627 1849.7225,-217.0585 1856.4891,-212.3433"/>
<polygon fill="#000000" stroke="#000000" points="1858.5828,-215.1543 1864.9748,-206.7049 1854.7088,-209.324 1858.5828,-215.1543"/>
<text text-anchor="middle" x="1903.6489" y="-231.8" font-family="Times,serif" font-size="14.00" fill="#000000">of_sequencing_file</text>
</g>
<!-- medical_history -->
<g id="node21" class="node">
<title>medical_history</title>
<ellipse fill="none" stroke="#000000" cx="1213.1489" cy="-192" rx="85.2851" ry="18"/>
<text text-anchor="middle" x="1213.1489" y="-188.3" font-family="Times,serif" font-size="14.00" fill="#000000">medical_history</text>
</g>
<!-- medical_history&#45;&gt;participant -->
<g id="edge13" class="edge">
<title>medical_history&#45;&gt;participant</title>
<path fill="none" stroke="#000000" d="M1179.6,-175.2255C1151.0506,-160.9508 1109.9635,-140.4073 1079.5991,-125.2251"/>
<polygon fill="#000000" stroke="#000000" points="1081.0552,-122.0401 1070.5457,-120.6984 1077.9247,-128.3011 1081.0552,-122.0401"/>
<text text-anchor="middle" x="1205.1489" y="-144.8" font-family="Times,serif" font-size="14.00" fill="#000000">of_medical_history</text>
</g>
<!-- molecular_test -->
<g id="node22" class="node">
<title>molecular_test</title>
<ellipse fill="none" stroke="#000000" cx="1521.1489" cy="-192" rx="79.8859" ry="18"/>
<text text-anchor="middle" x="1521.1489" y="-188.3" font-family="Times,serif" font-size="14.00" fill="#000000">molecular_test</text>
</g>
<!-- molecular_test&#45;&gt;participant -->
<g id="edge18" class="edge">
<title>molecular_test&#45;&gt;participant</title>
<path fill="none" stroke="#000000" d="M1461.0791,-180.0837C1425.7819,-172.6505 1384.8937,-163.1685 1368.1489,-156 1356.9298,-151.197 1356.6235,-145.1561 1345.1489,-141 1303.3937,-125.8761 1187.0706,-115.2261 1110.4774,-109.609"/>
<polygon fill="#000000" stroke="#000000" points="1110.6373,-106.1116 1100.4114,-108.8829 1110.1336,-113.0934 1110.6373,-106.1116"/>
<text text-anchor="middle" x="1432.1489" y="-144.8" font-family="Times,serif" font-size="14.00" fill="#000000">of_molecular_test</text>
</g>
<!-- treatment_response -->
<g id="node23" class="node">
<title>treatment_response</title>
<ellipse fill="none" stroke="#000000" cx="1724.1489" cy="-192" rx="104.7816" ry="18"/>
<text text-anchor="middle" x="1724.1489" y="-188.3" font-family="Times,serif" font-size="14.00" fill="#000000">treatment_response</text>
</g>
<!-- treatment_response&#45;&gt;participant -->
<g id="edge7" class="edge">
<title>treatment_response&#45;&gt;participant</title>
<path fill="none" stroke="#000000" d="M1646.3304,-179.8768C1593.5041,-171.382 1531.1443,-160.7338 1519.1489,-156 1507.7969,-151.5201 1507.7013,-144.9345 1496.1489,-141 1427.0198,-117.4561 1222.1463,-109.1675 1111.6791,-106.3614"/>
<polygon fill="#000000" stroke="#000000" points="1111.6992,-102.8609 1101.6163,-106.1143 1111.5273,-109.8588 1111.6992,-102.8609"/>
<text text-anchor="middle" x="1602.1489" y="-144.8" font-family="Times,serif" font-size="14.00" fill="#000000">of_treatment_response</text>
</g>
<!-- pdx&#45;&gt;study -->
<g id="edge17" class="edge">
<title>pdx&#45;&gt;study</title>
<path fill="none" stroke="#000000" d="M1814.5377,-88.5606C1823.1216,-77.3229 1835.8362,-62.9051 1850.1489,-54 1873.5285,-39.4538 1903.0753,-30.5372 1927.2355,-25.217"/>
<polygon fill="#000000" stroke="#000000" points="1928.1423,-28.6036 1937.2264,-23.1512 1926.7248,-21.7486 1928.1423,-28.6036"/>
<text text-anchor="middle" x="1874.1489" y="-57.8" font-family="Times,serif" font-size="14.00" fill="#000000">of_pdx</text>
</g>
<!-- pdx&#45;&gt;sample -->
<g id="edge16" class="edge">
<title>pdx&#45;&gt;sample</title>
<path fill="none" stroke="#000000" d="M1825.7418,-115.9827C1847.4943,-126.5582 1877.1201,-140.9652 1877.1489,-141 1882.5103,-147.4569 1885.828,-155.8048 1887.8777,-163.8701"/>
<polygon fill="#000000" stroke="#000000" points="1884.4643,-164.6503 1889.8545,-173.7715 1891.3289,-163.2797 1884.4643,-164.6503"/>
<text text-anchor="middle" x="1909.1489" y="-144.8" font-family="Times,serif" font-size="14.00" fill="#000000">of_pdx</text>
</g>
<!-- study_admin -->
<g id="node25" class="node">
<title>study_admin</title>
<ellipse fill="none" stroke="#000000" cx="2681.1489" cy="-105" rx="70.3881" ry="18"/>
<text text-anchor="middle" x="2681.1489" y="-101.3" font-family="Times,serif" font-size="14.00" fill="#000000">study_admin</text>
</g>
<!-- study_admin&#45;&gt;study -->
<g id="edge23" class="edge">
<title>study_admin&#45;&gt;study</title>
<path fill="none" stroke="#000000" d="M2654.7803,-88.2424C2634.6343,-76.3783 2605.7274,-61.3231 2578.1489,-54 2472.86,-26.042 2142.4521,-19.7621 2019.1584,-18.3804"/>
<polygon fill="#000000" stroke="#000000" points="2018.9531,-14.8781 2008.9164,-18.2717 2018.8787,-21.8777 2018.9531,-14.8781"/>
<text text-anchor="middle" x="2672.6489" y="-57.8" font-family="Times,serif" font-size="14.00" fill="#000000">of_study_admin</text>
</g>
</g>
</svg>
