<svg width="2910pt" height="392pt"
 viewBox="0.00 0.00 2910.04 392.00" xmlns="http://www.w3.org/2000/svg" xmlns:xlink="http://www.w3.org/1999/xlink">
<g id="graph0" class="graph" transform="scale(1 1) rotate(0) translate(4 388)">
<title>Perl</title>
<polygon fill="#ffffff" stroke="transparent" points="-4,4 -4,-388 2906.0444,-388 2906.0444,4 -4,4"/>
<!-- publication -->
<g id="node1" class="node">
<title>publication</title>
<ellipse fill="none" stroke="#000000" cx="63.0444" cy="-105" rx="63.0888" ry="18"/>
<text text-anchor="middle" x="63.0444" y="-101.3" font-family="Times,serif" font-size="14.00" fill="#000000">publication</text>
</g>
<!-- study -->
<g id="node2" class="node">
<title>study</title>
<ellipse fill="none" stroke="#000000" cx="2127.0444" cy="-18" rx="36.2938" ry="18"/>
<text text-anchor="middle" x="2127.0444" y="-14.3" font-family="Times,serif" font-size="14.00" fill="#000000">study</text>
</g>
<!-- publication&#45;&gt;study -->
<g id="edge11" class="edge">
<title>publication&#45;&gt;study</title>
<path fill="none" stroke="#000000" d="M76.8886,-87.2581C87.314,-75.4064 102.7387,-60.7903 120.0444,-54 167.1611,-35.5125 1782.4465,-20.9253 2080.1375,-18.3907"/>
<polygon fill="#000000" stroke="#000000" points="2080.595,-21.8871 2090.5649,-18.3023 2080.5356,-14.8873 2080.595,-21.8871"/>
<text text-anchor="middle" x="171.0444" y="-57.8" font-family="Times,serif" font-size="14.00" fill="#000000">of_publication</text>
</g>
<!-- single_cell_sequencing_file -->
<g id="node3" class="node">
<title>single_cell_sequencing_file</title>
<ellipse fill="none" stroke="#000000" cx="2086.0444" cy="-366" rx="137.5759" ry="18"/>
<text text-anchor="middle" x="2086.0444" y="-362.3" font-family="Times,serif" font-size="14.00" fill="#000000">single_cell_sequencing_file</text>
</g>
<!-- cell_line -->
<g id="node5" class="node">
<title>cell_line</title>
<ellipse fill="none" stroke="#000000" cx="2317.0444" cy="-279" rx="49.2915" ry="18"/>
<text text-anchor="middle" x="2317.0444" y="-275.3" font-family="Times,serif" font-size="14.00" fill="#000000">cell_line</text>
</g>
<!-- single_cell_sequencing_file&#45;&gt;cell_line -->
<g id="edge3" class="edge">
<title>single_cell_sequencing_file&#45;&gt;cell_line</title>
<path fill="none" stroke="#000000" d="M2093.3608,-347.9401C2098.9401,-336.5794 2107.7686,-322.6649 2120.0444,-315 2171.015,-283.1744 2195.2234,-309.2862 2254.0444,-297 2259.0655,-295.9512 2264.2725,-294.7134 2269.444,-293.3857"/>
<polygon fill="#000000" stroke="#000000" points="2270.5343,-296.7171 2279.2874,-290.7478 2268.7222,-289.9557 2270.5343,-296.7171"/>
<text text-anchor="middle" x="2228.5444" y="-318.8" font-family="Times,serif" font-size="14.00" fill="#000000">of_single_cell_sequencing_file</text>
</g>
<!-- sample -->
<g id="node6" class="node">
<title>sample</title>
<ellipse fill="none" stroke="#000000" cx="1402.0444" cy="-192" rx="44.393" ry="18"/>
<text text-anchor="middle" x="1402.0444" y="-188.3" font-family="Times,serif" font-size="14.00" fill="#000000">sample</text>
</g>
<!-- single_cell_sequencing_file&#45;&gt;sample -->
<g id="edge5" class="edge">
<title>single_cell_sequencing_file&#45;&gt;sample</title>
<path fill="none" stroke="#000000" d="M2085.7508,-347.9176C2084.5738,-336.8435 2081.1655,-323.2572 2072.0444,-315 2020.4904,-268.3292 1522.4583,-227.0687 1455.0444,-210 1451.6443,-209.1391 1448.1493,-208.1632 1444.654,-207.1217"/>
<polygon fill="#000000" stroke="#000000" points="1445.4695,-203.7094 1434.8803,-204.0544 1443.3734,-210.3882 1445.4695,-203.7094"/>
<text text-anchor="middle" x="2137.5444" y="-275.3" font-family="Times,serif" font-size="14.00" fill="#000000">of_single_cell_sequencing_file</text>
</g>
<!-- pdx -->
<g id="node9" class="node">
<title>pdx</title>
<ellipse fill="none" stroke="#000000" cx="1387.0444" cy="-279" rx="27.8951" ry="18"/>
<text text-anchor="middle" x="1387.0444" y="-275.3" font-family="Times,serif" font-size="14.00" fill="#000000">pdx</text>
</g>
<!-- single_cell_sequencing_file&#45;&gt;pdx -->
<g id="edge4" class="edge">
<title>single_cell_sequencing_file&#45;&gt;pdx</title>
<path fill="none" stroke="#000000" d="M1949.2005,-363.6771C1751.4661,-359.6456 1407.237,-349.8153 1388.0444,-330 1382.1748,-323.94 1380.5353,-315.3276 1380.7903,-306.9018"/>
<polygon fill="#000000" stroke="#000000" points="1384.2761,-307.2219 1381.8841,-296.9006 1377.3176,-306.4608 1384.2761,-307.2219"/>
<text text-anchor="middle" x="1496.5444" y="-318.8" font-family="Times,serif" font-size="14.00" fill="#000000">of_single_cell_sequencing_file</text>
</g>
<!-- study_personnel -->
<g id="node4" class="node">
<title>study_personnel</title>
<ellipse fill="none" stroke="#000000" cx="231.0444" cy="-105" rx="87.1846" ry="18"/>
<text text-anchor="middle" x="231.0444" y="-101.3" font-family="Times,serif" font-size="14.00" fill="#000000">study_personnel</text>
</g>
<!-- study_personnel&#45;&gt;study -->
<g id="edge19" class="edge">
<title>study_personnel&#45;&gt;study</title>
<path fill="none" stroke="#000000" d="M225.7904,-87.0071C223.7702,-75.9687 223.6507,-62.3886 232.0444,-54 248.9101,-37.1446 1790.0141,-21.2874 2080.2133,-18.4495"/>
<polygon fill="#000000" stroke="#000000" points="2080.4283,-21.9476 2090.3937,-18.3502 2080.36,-14.948 2080.4283,-21.9476"/>
<text text-anchor="middle" x="301.5444" y="-57.8" font-family="Times,serif" font-size="14.00" fill="#000000">of_study_personnel</text>
</g>
<!-- cell_line&#45;&gt;study -->
<g id="edge7" class="edge">
<title>cell_line&#45;&gt;study</title>
<path fill="none" stroke="#000000" d="M2366.4173,-277.2344C2508.686,-270.3338 2902.4242,-237.4959 2791.0444,-87 2754.3439,-37.4104 2319.3598,-22.5787 2174.0052,-18.9913"/>
<polygon fill="#000000" stroke="#000000" points="2173.7288,-15.4838 2163.6476,-18.7428 2173.5608,-22.4818 2173.7288,-15.4838"/>
<text text-anchor="middle" x="2850.5444" y="-144.8" font-family="Times,serif" font-size="14.00" fill="#000000">of_cell_line</text>
</g>
<!-- cell_line&#45;&gt;sample -->
<g id="edge9" class="edge">
<title>cell_line&#45;&gt;sample</title>
<path fill="none" stroke="#000000" d="M2279.2544,-267.4055C2270.9935,-265.0949 2262.2624,-262.8221 2254.0444,-261 2163.0915,-240.8335 2139.7927,-236.7669 2047.0444,-228 1916.0121,-215.6144 1584.5602,-233.4205 1455.0444,-210 1451.336,-209.3294 1447.5348,-208.4489 1443.7541,-207.4375"/>
<polygon fill="#000000" stroke="#000000" points="1444.4544,-203.9946 1433.872,-204.5086 1442.4652,-210.706 1444.4544,-203.9946"/>
<text text-anchor="middle" x="2205.5444" y="-231.8" font-family="Times,serif" font-size="14.00" fill="#000000">of_cell_line</text>
</g>
<!-- participant -->
<g id="node20" class="node">
<title>participant</title>
<ellipse fill="none" stroke="#000000" cx="1431.0444" cy="-105" rx="62.2891" ry="18"/>
<text text-anchor="middle" x="1431.0444" y="-101.3" font-family="Times,serif" font-size="14.00" fill="#000000">participant</text>
</g>
<!-- cell_line&#45;&gt;participant -->
<g id="edge8" class="edge">
<title>cell_line&#45;&gt;participant</title>
<path fill="none" stroke="#000000" d="M2299.4148,-262.1112C2286.6633,-250.8136 2268.4965,-236.5093 2250.0444,-228 2215.7672,-212.1928 2202.9473,-221.6521 2167.0444,-210 2094.5476,-186.4715 2084.1136,-158.9759 2010.0444,-141 1916.0865,-118.1972 1637.3831,-109.3487 1503.8999,-106.3495"/>
<polygon fill="#000000" stroke="#000000" points="1503.8434,-102.8475 1493.7689,-106.1269 1503.6896,-109.8458 1503.8434,-102.8475"/>
<text text-anchor="middle" x="2207.5444" y="-188.3" font-family="Times,serif" font-size="14.00" fill="#000000">of_cell_line</text>
</g>
<!-- sample&#45;&gt;participant -->
<g id="edge23" class="edge">
<title>sample&#45;&gt;participant</title>
<path fill="none" stroke="#000000" d="M1408.0532,-173.9735C1412.0194,-162.0751 1417.2942,-146.2508 1421.7909,-132.7606"/>
<polygon fill="#000000" stroke="#000000" points="1425.2013,-133.597 1425.0433,-123.0034 1418.5605,-131.3834 1425.2013,-133.597"/>
<text text-anchor="middle" x="1455.5444" y="-144.8" font-family="Times,serif" font-size="14.00" fill="#000000">of_sample</text>
</g>
<!-- diagnosis -->
<g id="node7" class="node">
<title>diagnosis</title>
<ellipse fill="none" stroke="#000000" cx="853.0444" cy="-192" rx="54.6905" ry="18"/>
<text text-anchor="middle" x="853.0444" y="-188.3" font-family="Times,serif" font-size="14.00" fill="#000000">diagnosis</text>
</g>
<!-- diagnosis&#45;&gt;participant -->
<g id="edge36" class="edge">
<title>diagnosis&#45;&gt;participant</title>
<path fill="none" stroke="#000000" d="M880.3138,-176.1498C902.1846,-164.2695 934.0733,-148.7748 964.0444,-141 1036.5568,-122.1897 1246.5959,-111.8078 1358.6395,-107.4658"/>
<polygon fill="#000000" stroke="#000000" points="1358.9801,-110.9555 1368.8393,-107.0768 1358.7132,-103.9606 1358.9801,-110.9555"/>
<text text-anchor="middle" x="1008.5444" y="-144.8" font-family="Times,serif" font-size="14.00" fill="#000000">of_diagnosis</text>
</g>
<!-- molecular_test -->
<g id="node8" class="node">
<title>molecular_test</title>
<ellipse fill="none" stroke="#000000" cx="1006.0444" cy="-192" rx="79.8859" ry="18"/>
<text text-anchor="middle" x="1006.0444" y="-188.3" font-family="Times,serif" font-size="14.00" fill="#000000">molecular_test</text>
</g>
<!-- molecular_test&#45;&gt;participant -->
<g id="edge33" class="edge">
<title>molecular_test&#45;&gt;participant</title>
<path fill="none" stroke="#000000" d="M1027.6578,-174.5117C1043.2113,-162.9391 1065.2153,-148.5526 1087.0444,-141 1135.7134,-124.1611 1273.598,-113.7255 1359.2947,-108.6721"/>
<polygon fill="#000000" stroke="#000000" points="1359.6965,-112.1547 1369.4774,-108.0824 1359.2917,-105.1665 1359.6965,-112.1547"/>
<text text-anchor="middle" x="1151.0444" y="-144.8" font-family="Times,serif" font-size="14.00" fill="#000000">of_molecular_test</text>
</g>
<!-- pdx&#45;&gt;study -->
<g id="edge20" class="edge">
<title>pdx&#45;&gt;study</title>
<path fill="none" stroke="#000000" d="M1414.9425,-277.5208C1549.2417,-270.2691 2123.7347,-237.705 2149.0444,-210 2204.8788,-148.8813 2086.5642,-159.3124 2084.0444,-156 2058.3239,-122.1889 2085.4244,-72.7482 2106.7339,-43.1347"/>
<polygon fill="#000000" stroke="#000000" points="2109.6443,-45.0868 2112.8188,-34.9787 2104.0337,-40.9009 2109.6443,-45.0868"/>
<text text-anchor="middle" x="2108.0444" y="-144.8" font-family="Times,serif" font-size="14.00" fill="#000000">of_pdx</text>
</g>
<!-- pdx&#45;&gt;sample -->
<g id="edge21" class="edge">
<title>pdx&#45;&gt;sample</title>
<path fill="none" stroke="#000000" d="M1390.1524,-260.9735C1392.1838,-249.1918 1394.8788,-233.5607 1397.1896,-220.1581"/>
<polygon fill="#000000" stroke="#000000" points="1400.6903,-220.4527 1398.9404,-210.0034 1393.7921,-219.2633 1400.6903,-220.4527"/>
<text text-anchor="middle" x="1420.0444" y="-231.8" font-family="Times,serif" font-size="14.00" fill="#000000">of_pdx</text>
</g>
<!-- therapeutic_procedure -->
<g id="node10" class="node">
<title>therapeutic_procedure</title>
<ellipse fill="none" stroke="#000000" cx="1222.0444" cy="-192" rx="117.7793" ry="18"/>
<text text-anchor="middle" x="1222.0444" y="-188.3" font-family="Times,serif" font-size="14.00" fill="#000000">therapeutic_procedure</text>
</g>
<!-- therapeutic_procedure&#45;&gt;participant -->
<g id="edge40" class="edge">
<title>therapeutic_procedure&#45;&gt;participant</title>
<path fill="none" stroke="#000000" d="M1217.9894,-173.8451C1216.6979,-163.024 1217.252,-149.7378 1225.0444,-141 1242.6297,-121.2813 1306.8066,-112.3478 1358.9122,-108.3096"/>
<polygon fill="#000000" stroke="#000000" points="1359.4349,-111.781 1369.155,-107.5655 1358.9276,-104.7994 1359.4349,-111.781"/>
<text text-anchor="middle" x="1318.0444" y="-144.8" font-family="Times,serif" font-size="14.00" fill="#000000">of_therapeutic_procedure</text>
</g>
<!-- methylation_array_file -->
<g id="node11" class="node">
<title>methylation_array_file</title>
<ellipse fill="none" stroke="#000000" cx="2565.0444" cy="-366" rx="115.8798" ry="18"/>
<text text-anchor="middle" x="2565.0444" y="-362.3" font-family="Times,serif" font-size="14.00" fill="#000000">methylation_array_file</text>
</g>
<!-- methylation_array_file&#45;&gt;cell_line -->
<g id="edge17" class="edge">
<title>methylation_array_file&#45;&gt;cell_line</title>
<path fill="none" stroke="#000000" d="M2561.8343,-347.9442C2558.8783,-336.7349 2553.3224,-322.9892 2543.0444,-315 2517.7063,-295.3044 2434.3474,-286.1305 2376.2869,-282.0422"/>
<polygon fill="#000000" stroke="#000000" points="2376.3324,-278.5374 2366.1204,-281.3596 2375.8634,-285.5217 2376.3324,-278.5374"/>
<text text-anchor="middle" x="2645.5444" y="-318.8" font-family="Times,serif" font-size="14.00" fill="#000000">of_methylation_array_file</text>
</g>
<!-- methylation_array_file&#45;&gt;sample -->
<g id="edge15" class="edge">
<title>methylation_array_file&#45;&gt;sample</title>
<path fill="none" stroke="#000000" d="M2664.264,-356.6713C2698.3194,-351.258 2730.5434,-342.8664 2741.0444,-330 2745.2597,-324.8352 2745.3275,-320.1088 2741.0444,-315 2618.7227,-169.0988 1577.3876,-231.6337 1455.0444,-210 1451.3334,-209.3438 1447.5304,-208.4733 1443.7485,-207.4685"/>
<polygon fill="#000000" stroke="#000000" points="1444.4464,-204.0253 1433.8646,-204.5502 1442.4641,-210.7388 1444.4464,-204.0253"/>
<text text-anchor="middle" x="2810.5444" y="-275.3" font-family="Times,serif" font-size="14.00" fill="#000000">of_methylation_array_file</text>
</g>
<!-- methylation_array_file&#45;&gt;pdx -->
<g id="edge16" class="edge">
<title>methylation_array_file&#45;&gt;pdx</title>
<path fill="none" stroke="#000000" d="M2474.2092,-354.8469C2427.9887,-348.2797 2377.1878,-339.4276 2356.0444,-330 2346.2181,-325.6185 2347.1396,-318.7203 2337.0444,-315 2315.298,-306.9859 1600.0138,-285.3106 1425.2682,-280.1254"/>
<polygon fill="#000000" stroke="#000000" points="1425.1137,-276.6194 1415.0144,-279.8217 1424.9063,-283.6163 1425.1137,-276.6194"/>
<text text-anchor="middle" x="2447.5444" y="-318.8" font-family="Times,serif" font-size="14.00" fill="#000000">of_methylation_array_file</text>
</g>
<!-- synonym -->
<g id="node12" class="node">
<title>synonym</title>
<ellipse fill="none" stroke="#000000" cx="695.0444" cy="-279" rx="51.9908" ry="18"/>
<text text-anchor="middle" x="695.0444" y="-275.3" font-family="Times,serif" font-size="14.00" fill="#000000">synonym</text>
</g>
<!-- synonym&#45;&gt;study -->
<g id="edge38" class="edge">
<title>synonym&#45;&gt;study</title>
<path fill="none" stroke="#000000" d="M645.3834,-273.4357C543.9363,-260.2657 328.5996,-222.0226 404.0444,-141 462.8762,-77.8187 1810.2555,-28.7715 2080.2091,-19.5599"/>
<polygon fill="#000000" stroke="#000000" points="2080.5707,-23.0497 2090.446,-19.2121 2080.3329,-16.0538 2080.5707,-23.0497"/>
<text text-anchor="middle" x="446.5444" y="-144.8" font-family="Times,serif" font-size="14.00" fill="#000000">of_synonym</text>
</g>
<!-- synonym&#45;&gt;sample -->
<g id="edge39" class="edge">
<title>synonym&#45;&gt;sample</title>
<path fill="none" stroke="#000000" d="M704.6959,-261.1656C712.1169,-249.4343 723.5481,-235.0003 738.0444,-228 799.205,-198.4655 1282.2043,-222.0542 1349.0444,-210 1352.7532,-209.3311 1356.5546,-208.4519 1360.3354,-207.4412"/>
<polygon fill="#000000" stroke="#000000" points="1361.6238,-210.71 1370.2177,-204.5137 1359.6354,-203.9983 1361.6238,-210.71"/>
<text text-anchor="middle" x="780.5444" y="-231.8" font-family="Times,serif" font-size="14.00" fill="#000000">of_synonym</text>
</g>
<!-- synonym&#45;&gt;participant -->
<g id="edge37" class="edge">
<title>synonym&#45;&gt;participant</title>
<path fill="none" stroke="#000000" d="M690.5295,-260.7388C685.9552,-237.4018 682.2978,-197.2499 704.0444,-174 748.1996,-126.7924 1183.3733,-111.01 1358.5489,-106.5432"/>
<polygon fill="#000000" stroke="#000000" points="1358.7934,-110.0383 1368.7029,-106.2896 1358.6185,-103.0405 1358.7934,-110.0383"/>
<text text-anchor="middle" x="746.5444" y="-188.3" font-family="Times,serif" font-size="14.00" fill="#000000">of_synonym</text>
</g>
<!-- cytogenomic_file -->
<g id="node13" class="node">
<title>cytogenomic_file</title>
<ellipse fill="none" stroke="#000000" cx="870.0444" cy="-366" rx="89.8845" ry="18"/>
<text text-anchor="middle" x="870.0444" y="-362.3" font-family="Times,serif" font-size="14.00" fill="#000000">cytogenomic_file</text>
</g>
<!-- cytogenomic_file&#45;&gt;cell_line -->
<g id="edge28" class="edge">
<title>cytogenomic_file&#45;&gt;cell_line</title>
<path fill="none" stroke="#000000" d="M936.7855,-353.9068C951.9467,-351.5675 968.0126,-349.4088 983.0444,-348 1051.8828,-341.5484 1540.0632,-353.6177 1605.0444,-330 1615.1561,-326.3249 1613.932,-318.6733 1624.0444,-315 1689.865,-291.0909 2184.8385,-307.7025 2254.0444,-297 2259.4544,-296.1634 2265.0568,-295.0052 2270.588,-293.6759"/>
<polygon fill="#000000" stroke="#000000" points="2271.6079,-297.0273 2280.4104,-291.1309 2269.8521,-290.251 2271.6079,-297.0273"/>
<text text-anchor="middle" x="1695.5444" y="-318.8" font-family="Times,serif" font-size="14.00" fill="#000000">of_cytogenomic_file</text>
</g>
<!-- cytogenomic_file&#45;&gt;sample -->
<g id="edge29" class="edge">
<title>cytogenomic_file&#45;&gt;sample</title>
<path fill="none" stroke="#000000" d="M864.4188,-348.0019C858.4384,-324.9496 852.4082,-285.1049 873.0444,-261 909.419,-218.5112 1280.1409,-223.5279 1349.0444,-210 1352.6917,-209.2839 1356.4324,-208.38 1360.157,-207.3603"/>
<polygon fill="#000000" stroke="#000000" points="1361.3287,-210.663 1369.9037,-204.4404 1359.3198,-203.9575 1361.3287,-210.663"/>
<text text-anchor="middle" x="944.5444" y="-275.3" font-family="Times,serif" font-size="14.00" fill="#000000">of_cytogenomic_file</text>
</g>
<!-- cytogenomic_file&#45;&gt;pdx -->
<g id="edge27" class="edge">
<title>cytogenomic_file&#45;&gt;pdx</title>
<path fill="none" stroke="#000000" d="M888.5073,-348.3778C902.136,-336.5827 921.7683,-321.9848 942.0444,-315 1022.1837,-287.3932 1239.3752,-310.5616 1323.0444,-297 1332.6666,-295.4404 1342.9053,-292.9508 1352.3066,-290.3146"/>
<polygon fill="#000000" stroke="#000000" points="1353.503,-293.6111 1362.1105,-287.4336 1351.5294,-286.8951 1353.503,-293.6111"/>
<text text-anchor="middle" x="1013.5444" y="-318.8" font-family="Times,serif" font-size="14.00" fill="#000000">of_cytogenomic_file</text>
</g>
<!-- study_arm -->
<g id="node14" class="node">
<title>study_arm</title>
<ellipse fill="none" stroke="#000000" cx="2175.0444" cy="-105" rx="59.5901" ry="18"/>
<text text-anchor="middle" x="2175.0444" y="-101.3" font-family="Times,serif" font-size="14.00" fill="#000000">study_arm</text>
</g>
<!-- study_arm&#45;&gt;study -->
<g id="edge35" class="edge">
<title>study_arm&#45;&gt;study</title>
<path fill="none" stroke="#000000" d="M2165.0988,-86.9735C2158.3162,-74.6801 2149.2213,-58.1956 2141.6236,-44.4249"/>
<polygon fill="#000000" stroke="#000000" points="2144.5451,-42.4747 2136.6498,-35.4097 2138.4161,-45.8563 2144.5451,-42.4747"/>
<text text-anchor="middle" x="2201.5444" y="-57.8" font-family="Times,serif" font-size="14.00" fill="#000000">of_study_arm</text>
</g>
<!-- sequencing_file -->
<g id="node15" class="node">
<title>sequencing_file</title>
<ellipse fill="none" stroke="#000000" cx="1075.0444" cy="-366" rx="83.3857" ry="18"/>
<text text-anchor="middle" x="1075.0444" y="-362.3" font-family="Times,serif" font-size="14.00" fill="#000000">sequencing_file</text>
</g>
<!-- sequencing_file&#45;&gt;cell_line -->
<g id="edge31" class="edge">
<title>sequencing_file&#45;&gt;cell_line</title>
<path fill="none" stroke="#000000" d="M1133.2248,-353.1277C1144.3994,-351.0787 1156.0461,-349.2314 1167.0444,-348 1233.7684,-340.5292 1707.952,-352.962 1771.0444,-330 1781.1545,-326.3205 1779.9509,-318.7249 1790.0444,-315 1886.8515,-279.2747 2152.1498,-313.2907 2254.0444,-297 2259.3799,-296.147 2264.9043,-294.9908 2270.3639,-293.6734"/>
<polygon fill="#000000" stroke="#000000" points="2271.2645,-297.0557 2280.0664,-291.1584 2269.508,-290.2796 2271.2645,-297.0557"/>
<text text-anchor="middle" x="1856.5444" y="-318.8" font-family="Times,serif" font-size="14.00" fill="#000000">of_sequencing_file</text>
</g>
<!-- sequencing_file&#45;&gt;sample -->
<g id="edge30" class="edge">
<title>sequencing_file&#45;&gt;sample</title>
<path fill="none" stroke="#000000" d="M1056.352,-348.332C1034.9619,-325.9915 1005.6112,-287.2787 1028.0444,-261 1074.9395,-206.0661 1278.9294,-227.3428 1349.0444,-210 1352.4492,-209.1578 1355.9475,-208.1953 1359.4452,-207.1631"/>
<polygon fill="#000000" stroke="#000000" points="1360.7196,-210.432 1369.2229,-204.1119 1358.6343,-203.7498 1360.7196,-210.432"/>
<text text-anchor="middle" x="1094.5444" y="-275.3" font-family="Times,serif" font-size="14.00" fill="#000000">of_sequencing_file</text>
</g>
<!-- sequencing_file&#45;&gt;pdx -->
<g id="edge32" class="edge">
<title>sequencing_file&#45;&gt;pdx</title>
<path fill="none" stroke="#000000" d="M1079.7806,-347.8289C1083.7579,-336.4213 1090.6669,-322.4963 1102.0444,-315 1143.1902,-287.8904 1274.5467,-305.7108 1323.0444,-297 1332.6386,-295.2768 1342.8678,-292.7315 1352.2689,-290.0942"/>
<polygon fill="#000000" stroke="#000000" points="1353.4577,-293.3934 1362.0759,-287.2308 1351.4957,-286.6739 1353.4577,-293.3934"/>
<text text-anchor="middle" x="1168.5444" y="-318.8" font-family="Times,serif" font-size="14.00" fill="#000000">of_sequencing_file</text>
</g>
<!-- medical_history -->
<g id="node16" class="node">
<title>medical_history</title>
<ellipse fill="none" stroke="#000000" cx="1549.0444" cy="-192" rx="85.2851" ry="18"/>
<text text-anchor="middle" x="1549.0444" y="-188.3" font-family="Times,serif" font-size="14.00" fill="#000000">medical_history</text>
</g>
<!-- medical_history&#45;&gt;participant -->
<g id="edge18" class="edge">
<title>medical_history&#45;&gt;participant</title>
<path fill="none" stroke="#000000" d="M1532.871,-174.2634C1522.8579,-163.8576 1509.3993,-150.8601 1496.0444,-141 1488.5756,-135.4857 1480.169,-130.2266 1471.9423,-125.5151"/>
<polygon fill="#000000" stroke="#000000" points="1473.5812,-122.4219 1463.1388,-120.6314 1470.1855,-128.5431 1473.5812,-122.4219"/>
<text text-anchor="middle" x="1582.0444" y="-144.8" font-family="Times,serif" font-size="14.00" fill="#000000">of_medical_history</text>
</g>
<!-- radiology_file -->
<g id="node17" class="node">
<title>radiology_file</title>
<ellipse fill="none" stroke="#000000" cx="1726.0444" cy="-192" rx="73.387" ry="18"/>
<text text-anchor="middle" x="1726.0444" y="-188.3" font-family="Times,serif" font-size="14.00" fill="#000000">radiology_file</text>
</g>
<!-- radiology_file&#45;&gt;participant -->
<g id="edge10" class="edge">
<title>radiology_file&#45;&gt;participant</title>
<path fill="none" stroke="#000000" d="M1706.726,-174.5821C1693.0045,-163.1961 1673.6108,-149.0011 1654.0444,-141 1626.7495,-129.8385 1554.5647,-119.3669 1499.6516,-112.6266"/>
<polygon fill="#000000" stroke="#000000" points="1499.9619,-109.1387 1489.6139,-111.4122 1499.1211,-116.088 1499.9619,-109.1387"/>
<text text-anchor="middle" x="1741.0444" y="-144.8" font-family="Times,serif" font-size="14.00" fill="#000000">of_radiology_file</text>
</g>
<!-- family_relationship -->
<g id="node18" class="node">
<title>family_relationship</title>
<ellipse fill="none" stroke="#000000" cx="1918.0444" cy="-192" rx="100.1823" ry="18"/>
<text text-anchor="middle" x="1918.0444" y="-188.3" font-family="Times,serif" font-size="14.00" fill="#000000">family_relationship</text>
</g>
<!-- family_relationship&#45;&gt;participant -->
<g id="edge14" class="edge">
<title>family_relationship&#45;&gt;participant</title>
<path fill="none" stroke="#000000" d="M1887.1131,-174.854C1864.734,-163.2832 1833.391,-148.7578 1804.0444,-141 1748.9518,-126.4362 1594.5923,-114.9466 1502.6228,-109.1438"/>
<polygon fill="#000000" stroke="#000000" points="1502.7499,-105.645 1492.5513,-108.5153 1502.3139,-112.6314 1502.7499,-105.645"/>
<text text-anchor="middle" x="1926.5444" y="-144.8" font-family="Times,serif" font-size="14.00" fill="#000000">of_family_relationship</text>
</g>
<!-- follow_up -->
<g id="node19" class="node">
<title>follow_up</title>
<ellipse fill="none" stroke="#000000" cx="479.0444" cy="-192" rx="55.4913" ry="18"/>
<text text-anchor="middle" x="479.0444" y="-188.3" font-family="Times,serif" font-size="14.00" fill="#000000">follow_up</text>
</g>
<!-- follow_up&#45;&gt;participant -->
<g id="edge6" class="edge">
<title>follow_up&#45;&gt;participant</title>
<path fill="none" stroke="#000000" d="M483.9408,-173.903C488.0834,-162.3723 495.2748,-148.2781 507.0444,-141 543.0436,-118.7389 1146.958,-108.7223 1358.5295,-105.8849"/>
<polygon fill="#000000" stroke="#000000" points="1358.6517,-109.3837 1368.6044,-105.7513 1358.5588,-102.3843 1358.6517,-109.3837"/>
<text text-anchor="middle" x="552.0444" y="-144.8" font-family="Times,serif" font-size="14.00" fill="#000000">of_follow_up</text>
</g>
<!-- participant&#45;&gt;study -->
<g id="edge22" class="edge">
<title>participant&#45;&gt;study</title>
<path fill="none" stroke="#000000" d="M1488.2968,-97.8435C1623.2141,-80.9788 1958.9275,-39.0146 2081.4013,-23.7054"/>
<polygon fill="#000000" stroke="#000000" points="2082.0677,-27.1494 2091.5563,-22.436 2081.1994,-20.2035 2082.0677,-27.1494"/>
<text text-anchor="middle" x="1871.5444" y="-57.8" font-family="Times,serif" font-size="14.00" fill="#000000">of_participant</text>
</g>
<!-- study_admin -->
<g id="node21" class="node">
<title>study_admin</title>
<ellipse fill="none" stroke="#000000" cx="2539.0444" cy="-105" rx="70.3881" ry="18"/>
<text text-anchor="middle" x="2539.0444" y="-101.3" font-family="Times,serif" font-size="14.00" fill="#000000">study_admin</text>
</g>
<!-- study_admin&#45;&gt;study -->
<g id="edge12" class="edge">
<title>study_admin&#45;&gt;study</title>
<path fill="none" stroke="#000000" d="M2484.8272,-93.3508C2474.9205,-91.2311 2464.6733,-89.0444 2455.0444,-87 2353.1353,-65.3622 2233.3452,-40.242 2170.5268,-27.0931"/>
<polygon fill="#000000" stroke="#000000" points="2171.0829,-23.6337 2160.578,-25.011 2169.649,-30.4853 2171.0829,-23.6337"/>
<text text-anchor="middle" x="2420.5444" y="-57.8" font-family="Times,serif" font-size="14.00" fill="#000000">of_study_admin</text>
</g>
<!-- study_funding -->
<g id="node22" class="node">
<title>study_funding</title>
<ellipse fill="none" stroke="#000000" cx="2705.0444" cy="-105" rx="77.1866" ry="18"/>
<text text-anchor="middle" x="2705.0444" y="-101.3" font-family="Times,serif" font-size="14.00" fill="#000000">study_funding</text>
</g>
<!-- study_funding&#45;&gt;study -->
<g id="edge2" class="edge">
<title>study_funding&#45;&gt;study</title>
<path fill="none" stroke="#000000" d="M2653.7952,-91.4471C2608.6203,-79.9536 2540.8686,-63.8143 2481.0444,-54 2371.68,-36.0584 2241.7467,-25.5836 2173.7831,-20.9214"/>
<polygon fill="#000000" stroke="#000000" points="2173.6329,-17.4035 2163.4201,-20.2229 2173.162,-24.3876 2173.6329,-17.4035"/>
<text text-anchor="middle" x="2617.0444" y="-57.8" font-family="Times,serif" font-size="14.00" fill="#000000">of_study_funding</text>
</g>
<!-- exposure -->
<g id="node23" class="node">
<title>exposure</title>
<ellipse fill="none" stroke="#000000" cx="606.0444" cy="-192" rx="53.0913" ry="18"/>
<text text-anchor="middle" x="606.0444" y="-188.3" font-family="Times,serif" font-size="14.00" fill="#000000">exposure</text>
</g>
<!-- exposure&#45;&gt;participant -->
<g id="edge13" class="edge">
<title>exposure&#45;&gt;participant</title>
<path fill="none" stroke="#000000" d="M600.8613,-174.0772C598.8694,-163.0668 598.7548,-149.4915 607.0444,-141 633.0702,-114.3404 1161.5304,-107.234 1358.1718,-105.5088"/>
<polygon fill="#000000" stroke="#000000" points="1358.434,-109.0068 1368.4036,-105.4213 1358.374,-102.007 1358.434,-109.0068"/>
<text text-anchor="middle" x="650.5444" y="-144.8" font-family="Times,serif" font-size="14.00" fill="#000000">of_exposure</text>
</g>
<!-- clinical_measure_file -->
<g id="node24" class="node">
<title>clinical_measure_file</title>
<ellipse fill="none" stroke="#000000" cx="2366.0444" cy="-192" rx="108.5808" ry="18"/>
<text text-anchor="middle" x="2366.0444" y="-188.3" font-family="Times,serif" font-size="14.00" fill="#000000">clinical_measure_file</text>
</g>
<!-- clinical_measure_file&#45;&gt;study -->
<g id="edge34" class="edge">
<title>clinical_measure_file&#45;&gt;study</title>
<path fill="none" stroke="#000000" d="M2401.4773,-174.7354C2416.465,-165.1583 2428.3434,-152.8232 2418.0444,-141 2379.7323,-97.0176 2335.3377,-157.1411 2288.0444,-123 2260.325,-102.9893 2280.3113,-75.8825 2254.0444,-54 2241.3338,-43.411 2202.5667,-33.3156 2171.1757,-26.525"/>
<polygon fill="#000000" stroke="#000000" points="2171.7923,-23.0781 2161.2854,-24.4399 2170.3483,-29.9276 2171.7923,-23.0781"/>
<text text-anchor="middle" x="2374.0444" y="-101.3" font-family="Times,serif" font-size="14.00" fill="#000000">of_clinical_measure_file</text>
</g>
<!-- clinical_measure_file&#45;&gt;participant -->
<g id="edge1" class="edge">
<title>clinical_measure_file&#45;&gt;participant</title>
<path fill="none" stroke="#000000" d="M2270.0698,-183.5417C2234.3414,-178.2787 2194.0041,-169.7629 2159.0444,-156 2147.6887,-151.5295 2147.65,-144.7748 2136.0444,-141 2077.1473,-121.8435 1671.6956,-110.4937 1503.7045,-106.5661"/>
<polygon fill="#000000" stroke="#000000" points="1503.5487,-103.0616 1493.4703,-106.3291 1503.3866,-110.0597 1503.5487,-103.0616"/>
<text text-anchor="middle" x="2288.5444" y="-144.8" font-family="Times,serif" font-size="14.00" fill="#000000">of_clinical_measure_file_participant</text>
</g>
<!-- pathology_file -->
<g id="node25" class="node">
<title>pathology_file</title>
<ellipse fill="none" stroke="#000000" cx="1252.0444" cy="-366" rx="76.0865" ry="18"/>
<text text-anchor="middle" x="1252.0444" y="-362.3" font-family="Times,serif" font-size="14.00" fill="#000000">pathology_file</text>
</g>
<!-- pathology_file&#45;&gt;cell_line -->
<g id="edge25" class="edge">
<title>pathology_file&#45;&gt;cell_line</title>
<path fill="none" stroke="#000000" d="M1327.7986,-364.1793C1479.0918,-360.1779 1813.8334,-349.3946 1927.0444,-330 1950.3319,-326.0105 1954.781,-319.1273 1978.0444,-315 2099.0815,-293.5262 2132.925,-318.0046 2254.0444,-297 2259.3682,-296.0768 2264.8852,-294.8764 2270.3406,-293.5336"/>
<polygon fill="#000000" stroke="#000000" points="2271.2527,-296.9129 2280.0386,-290.9918 2269.4779,-290.1416 2271.2527,-296.9129"/>
<text text-anchor="middle" x="2039.0444" y="-318.8" font-family="Times,serif" font-size="14.00" fill="#000000">of_pathology_file</text>
</g>
<!-- pathology_file&#45;&gt;sample -->
<g id="edge26" class="edge">
<title>pathology_file&#45;&gt;sample</title>
<path fill="none" stroke="#000000" d="M1195.2489,-353.9708C1147.0164,-343.7228 1085.4971,-330.5607 1085.0444,-330 1080.8564,-324.813 1080.8798,-320.2058 1085.0444,-315 1107.8111,-286.5417 1131.0693,-310.1867 1165.0444,-297 1195.1084,-285.3313 1198.9826,-274.9789 1228.0444,-261 1271.5431,-240.0768 1323.1417,-220.2047 1358.7969,-207.2077"/>
<polygon fill="#000000" stroke="#000000" points="1360.1983,-210.4228 1368.4108,-203.7291 1357.8165,-203.8405 1360.1983,-210.4228"/>
<text text-anchor="middle" x="1289.0444" y="-275.3" font-family="Times,serif" font-size="14.00" fill="#000000">of_pathology_file</text>
</g>
<!-- pathology_file&#45;&gt;pdx -->
<g id="edge24" class="edge">
<title>pathology_file&#45;&gt;pdx</title>
<path fill="none" stroke="#000000" d="M1242.3435,-347.7306C1238.1778,-337.1359 1235.7428,-324.127 1243.0444,-315 1265.8111,-286.5417 1287.7127,-305.9367 1323.0444,-297 1332.4124,-294.6305 1342.4978,-291.8857 1351.8295,-289.2646"/>
<polygon fill="#000000" stroke="#000000" points="1352.9266,-292.5915 1361.5899,-286.4924 1351.0141,-285.8578 1352.9266,-292.5915"/>
<text text-anchor="middle" x="1304.0444" y="-318.8" font-family="Times,serif" font-size="14.00" fill="#000000">of_pathology_file</text>
</g>
</g>
</svg>
