<svg width="2997pt" height="392pt"
 viewBox="0.00 0.00 2997.29 392.00" xmlns="http://www.w3.org/2000/svg" xmlns:xlink="http://www.w3.org/1999/xlink">
<g id="graph0" class="graph" transform="scale(1 1) rotate(0) translate(4 388)">
<title>Perl</title>
<polygon fill="#ffffff" stroke="transparent" points="-4,4 -4,-388 2993.286,-388 2993.286,4 -4,4"/>
<!-- study_admin -->
<g id="node1" class="node">
<title>study_admin</title>
<ellipse fill="none" stroke="#000000" cx="70.1938" cy="-105" rx="70.3881" ry="18"/>
<text text-anchor="middle" x="70.1938" y="-101.3" font-family="Times,serif" font-size="14.00" fill="#000000">study_admin</text>
</g>
<!-- study -->
<g id="node6" class="node">
<title>study</title>
<ellipse fill="none" stroke="#000000" cx="886.1938" cy="-18" rx="36.2938" ry="18"/>
<text text-anchor="middle" x="886.1938" y="-14.3" font-family="Times,serif" font-size="14.00" fill="#000000">study</text>
</g>
<!-- study_admin&#45;&gt;study -->
<g id="edge40" class="edge">
<title>study_admin&#45;&gt;study</title>
<path fill="none" stroke="#000000" d="M64.9241,-86.5839C63.0192,-75.6646 63.0299,-62.3667 71.1938,-54 98.1547,-26.3693 670.512,-19.69 839.5725,-18.3171"/>
<polygon fill="#000000" stroke="#000000" points="839.6803,-21.8165 849.6524,-18.2377 839.6251,-14.8167 839.6803,-21.8165"/>
<text text-anchor="middle" x="127.6938" y="-57.8" font-family="Times,serif" font-size="14.00" fill="#000000">of_study_admin</text>
</g>
<!-- participant -->
<g id="node2" class="node">
<title>participant</title>
<ellipse fill="none" stroke="#000000" cx="1540.1938" cy="-192" rx="62.2891" ry="18"/>
<text text-anchor="middle" x="1540.1938" y="-188.3" font-family="Times,serif" font-size="14.00" fill="#000000">participant</text>
</g>
<!-- consent_group -->
<g id="node16" class="node">
<title>consent_group</title>
<ellipse fill="none" stroke="#000000" cx="1348.1938" cy="-105" rx="79.0865" ry="18"/>
<text text-anchor="middle" x="1348.1938" y="-101.3" font-family="Times,serif" font-size="14.00" fill="#000000">consent_group</text>
</g>
<!-- participant&#45;&gt;consent_group -->
<g id="edge39" class="edge">
<title>participant&#45;&gt;consent_group</title>
<path fill="none" stroke="#000000" d="M1506.31,-176.6464C1474.9193,-162.4225 1428.0003,-141.1623 1393.4209,-125.4935"/>
<polygon fill="#000000" stroke="#000000" points="1394.5713,-122.1723 1384.0181,-121.2329 1391.6821,-128.5483 1394.5713,-122.1723"/>
<text text-anchor="middle" x="1506.6938" y="-144.8" font-family="Times,serif" font-size="14.00" fill="#000000">of_participant</text>
</g>
<!-- treatment_response -->
<g id="node3" class="node">
<title>treatment_response</title>
<ellipse fill="none" stroke="#000000" cx="1177.1938" cy="-279" rx="104.7816" ry="18"/>
<text text-anchor="middle" x="1177.1938" y="-275.3" font-family="Times,serif" font-size="14.00" fill="#000000">treatment_response</text>
</g>
<!-- treatment_response&#45;&gt;participant -->
<g id="edge2" class="edge">
<title>treatment_response&#45;&gt;participant</title>
<path fill="none" stroke="#000000" d="M1161.9076,-260.6993C1154.9545,-250.0935 1149.9257,-237.0839 1158.1938,-228 1178.5616,-205.6224 1362.4547,-196.8749 1467.4839,-193.6822"/>
<polygon fill="#000000" stroke="#000000" points="1467.8123,-197.1742 1477.705,-193.3815 1467.6063,-190.1772 1467.8123,-197.1742"/>
<text text-anchor="middle" x="1241.1938" y="-231.8" font-family="Times,serif" font-size="14.00" fill="#000000">of_treatment_response</text>
</g>
<!-- medical_history -->
<g id="node4" class="node">
<title>medical_history</title>
<ellipse fill="none" stroke="#000000" cx="1975.1938" cy="-279" rx="85.2851" ry="18"/>
<text text-anchor="middle" x="1975.1938" y="-275.3" font-family="Times,serif" font-size="14.00" fill="#000000">medical_history</text>
</g>
<!-- medical_history&#45;&gt;participant -->
<g id="edge34" class="edge">
<title>medical_history&#45;&gt;participant</title>
<path fill="none" stroke="#000000" d="M1928.7962,-263.7742C1893.136,-252.5448 1842.4759,-237.6093 1797.1938,-228 1734.1842,-214.6288 1661.3969,-204.9644 1609.4051,-199.0369"/>
<polygon fill="#000000" stroke="#000000" points="1609.6212,-195.5392 1599.293,-197.9012 1608.8399,-202.4955 1609.6212,-195.5392"/>
<text text-anchor="middle" x="1925.1938" y="-231.8" font-family="Times,serif" font-size="14.00" fill="#000000">of_medical_history</text>
</g>
<!-- sample -->
<g id="node5" class="node">
<title>sample</title>
<ellipse fill="none" stroke="#000000" cx="709.1938" cy="-279" rx="44.393" ry="18"/>
<text text-anchor="middle" x="709.1938" y="-275.3" font-family="Times,serif" font-size="14.00" fill="#000000">sample</text>
</g>
<!-- sample&#45;&gt;participant -->
<g id="edge6" class="edge">
<title>sample&#45;&gt;participant</title>
<path fill="none" stroke="#000000" d="M743.0481,-267.2502C749.3935,-265.1196 755.9834,-262.955 762.1938,-261 789.563,-252.3842 797.4745,-253.4589 824.1938,-243 838.0753,-237.5663 839.7802,-231.8041 854.1938,-228 912.256,-212.6761 1303.5749,-199.1812 1467.8317,-194.1225"/>
<polygon fill="#000000" stroke="#000000" points="1467.957,-197.6204 1477.8452,-193.8159 1467.7427,-190.6237 1467.957,-197.6204"/>
<text text-anchor="middle" x="890.6938" y="-231.8" font-family="Times,serif" font-size="14.00" fill="#000000">of_sample</text>
</g>
<!-- pdx -->
<g id="node10" class="node">
<title>pdx</title>
<ellipse fill="none" stroke="#000000" cx="586.1938" cy="-192" rx="27.8951" ry="18"/>
<text text-anchor="middle" x="586.1938" y="-188.3" font-family="Times,serif" font-size="14.00" fill="#000000">pdx</text>
</g>
<!-- sample&#45;&gt;pdx -->
<g id="edge4" class="edge">
<title>sample&#45;&gt;pdx</title>
<path fill="none" stroke="#000000" d="M665.9143,-274.8456C605.6003,-268.6133 502.3612,-256.1629 491.1938,-243 471.6291,-219.9395 514.5907,-205.6739 548.9538,-198.2867"/>
<polygon fill="#000000" stroke="#000000" points="549.6999,-201.7067 558.8102,-196.2982 548.3155,-194.845 549.6999,-201.7067"/>
<text text-anchor="middle" x="527.6938" y="-231.8" font-family="Times,serif" font-size="14.00" fill="#000000">of_sample</text>
</g>
<!-- cell_line -->
<g id="node27" class="node">
<title>cell_line</title>
<ellipse fill="none" stroke="#000000" cx="761.1938" cy="-192" rx="49.2915" ry="18"/>
<text text-anchor="middle" x="761.1938" y="-188.3" font-family="Times,serif" font-size="14.00" fill="#000000">cell_line</text>
</g>
<!-- sample&#45;&gt;cell_line -->
<g id="edge5" class="edge">
<title>sample&#45;&gt;cell_line</title>
<path fill="none" stroke="#000000" d="M725.2198,-261.8245C730.0817,-256.1002 735.19,-249.5157 739.1938,-243 743.6663,-235.7214 747.6781,-227.3726 751.0123,-219.5661"/>
<polygon fill="#000000" stroke="#000000" points="754.3408,-220.6715 754.857,-210.0892 747.8543,-218.0399 754.3408,-220.6715"/>
<text text-anchor="middle" x="783.6938" y="-231.8" font-family="Times,serif" font-size="14.00" fill="#000000">of_sample</text>
</g>
<!-- generic_file -->
<g id="node7" class="node">
<title>generic_file</title>
<ellipse fill="none" stroke="#000000" cx="112.1938" cy="-366" rx="65.7887" ry="18"/>
<text text-anchor="middle" x="112.1938" y="-362.3" font-family="Times,serif" font-size="14.00" fill="#000000">generic_file</text>
</g>
<!-- generic_file&#45;&gt;participant -->
<g id="edge16" class="edge">
<title>generic_file&#45;&gt;participant</title>
<path fill="none" stroke="#000000" d="M116.0808,-347.9776C119.3726,-336.9275 125.2061,-323.3453 135.1938,-315 257.5345,-212.7765 325.316,-250.1699 483.1938,-228 579.7915,-214.4353 1244.3382,-198.5848 1467.3813,-193.59"/>
<polygon fill="#000000" stroke="#000000" points="1467.7452,-197.0828 1477.6646,-193.3604 1467.5889,-190.0846 1467.7452,-197.0828"/>
<text text-anchor="middle" x="271.1938" y="-275.3" font-family="Times,serif" font-size="14.00" fill="#000000">of_generic_file</text>
</g>
<!-- generic_file&#45;&gt;sample -->
<g id="edge17" class="edge">
<title>generic_file&#45;&gt;sample</title>
<path fill="none" stroke="#000000" d="M135.6023,-349.0553C153.2533,-337.2614 178.5574,-322.3766 203.1938,-315 286.4399,-290.0744 542.0198,-282.185 654.7776,-279.8782"/>
<polygon fill="#000000" stroke="#000000" points="654.9819,-283.3749 664.9108,-279.6781 654.8436,-276.3763 654.9819,-283.3749"/>
<text text-anchor="middle" x="256.1938" y="-318.8" font-family="Times,serif" font-size="14.00" fill="#000000">of_generic_file</text>
</g>
<!-- generic_file&#45;&gt;study -->
<g id="edge18" class="edge">
<title>generic_file&#45;&gt;study</title>
<path fill="none" stroke="#000000" d="M130.3121,-348.4981C140.5356,-338.6393 153.5566,-326.111 165.1938,-315 173.607,-306.9672 178.4329,-307.1055 184.1938,-297 198.0769,-272.6467 198.1938,-263.5326 198.1938,-235.5 198.1938,-235.5 198.1938,-235.5 198.1938,-105 198.1938,-40.1961 684.8346,-22.8585 839.5599,-18.9838"/>
<polygon fill="#000000" stroke="#000000" points="839.7777,-22.4796 849.6897,-18.7376 839.6075,-15.4817 839.7777,-22.4796"/>
<text text-anchor="middle" x="251.1938" y="-188.3" font-family="Times,serif" font-size="14.00" fill="#000000">of_generic_file</text>
</g>
<!-- publication -->
<g id="node8" class="node">
<title>publication</title>
<ellipse fill="none" stroke="#000000" cx="501.1938" cy="-105" rx="63.0888" ry="18"/>
<text text-anchor="middle" x="501.1938" y="-101.3" font-family="Times,serif" font-size="14.00" fill="#000000">publication</text>
</g>
<!-- publication&#45;&gt;study -->
<g id="edge37" class="edge">
<title>publication&#45;&gt;study</title>
<path fill="none" stroke="#000000" d="M496.0711,-86.7238C494.2215,-75.8572 494.2387,-62.5655 502.1938,-54 524.7531,-29.7095 742.2002,-21.457 839.5162,-18.9652"/>
<polygon fill="#000000" stroke="#000000" points="839.7496,-22.4606 849.6603,-18.7153 839.5771,-15.4627 839.7496,-22.4606"/>
<text text-anchor="middle" x="553.1938" y="-57.8" font-family="Times,serif" font-size="14.00" fill="#000000">of_publication</text>
</g>
<!-- methylation_array_file -->
<g id="node9" class="node">
<title>methylation_array_file</title>
<ellipse fill="none" stroke="#000000" cx="679.1938" cy="-366" rx="115.8798" ry="18"/>
<text text-anchor="middle" x="679.1938" y="-362.3" font-family="Times,serif" font-size="14.00" fill="#000000">methylation_array_file</text>
</g>
<!-- methylation_array_file&#45;&gt;sample -->
<g id="edge26" class="edge">
<title>methylation_array_file&#45;&gt;sample</title>
<path fill="none" stroke="#000000" d="M640.797,-349.0077C626.0153,-339.9634 614.5244,-328.0273 623.1938,-315 631.4268,-302.6284 644.8161,-294.5002 658.6042,-289.1631"/>
<polygon fill="#000000" stroke="#000000" points="659.826,-292.4443 668.155,-285.8962 657.5605,-285.8211 659.826,-292.4443"/>
<text text-anchor="middle" x="714.6938" y="-318.8" font-family="Times,serif" font-size="14.00" fill="#000000">of_methylation_array_file</text>
</g>
<!-- pdx&#45;&gt;sample -->
<g id="edge20" class="edge">
<title>pdx&#45;&gt;sample</title>
<path fill="none" stroke="#000000" d="M586.5898,-210.1054C587.7555,-220.9077 590.9543,-234.1918 599.1938,-243 607.9189,-252.3274 635.1039,-261.2686 660.2635,-267.907"/>
<polygon fill="#000000" stroke="#000000" points="659.5728,-271.3428 670.1278,-270.4244 661.3038,-264.5602 659.5728,-271.3428"/>
<text text-anchor="middle" x="623.1938" y="-231.8" font-family="Times,serif" font-size="14.00" fill="#000000">of_pdx</text>
</g>
<!-- pdx&#45;&gt;study -->
<g id="edge19" class="edge">
<title>pdx&#45;&gt;study</title>
<path fill="none" stroke="#000000" d="M588.2418,-173.9714C591.8772,-150.5098 601.6613,-109.824 627.1938,-87 658.643,-58.887 775.4502,-35.9862 840.9397,-25.0153"/>
<polygon fill="#000000" stroke="#000000" points="841.6916,-28.4386 850.9888,-23.358 840.5525,-21.5319 841.6916,-28.4386"/>
<text text-anchor="middle" x="651.1938" y="-101.3" font-family="Times,serif" font-size="14.00" fill="#000000">of_pdx</text>
</g>
<!-- family_relationship -->
<g id="node11" class="node">
<title>family_relationship</title>
<ellipse fill="none" stroke="#000000" cx="2216.1938" cy="-279" rx="100.1823" ry="18"/>
<text text-anchor="middle" x="2216.1938" y="-275.3" font-family="Times,serif" font-size="14.00" fill="#000000">family_relationship</text>
</g>
<!-- family_relationship&#45;&gt;participant -->
<g id="edge31" class="edge">
<title>family_relationship&#45;&gt;participant</title>
<path fill="none" stroke="#000000" d="M2161.2881,-263.7957C2117.2619,-252.1924 2053.7105,-236.756 1997.1938,-228 1862.2064,-207.0867 1702.8006,-198.034 1612.3963,-194.3385"/>
<polygon fill="#000000" stroke="#000000" points="1612.3881,-190.8355 1602.2567,-193.9347 1612.1095,-197.83 1612.3881,-190.8355"/>
<text text-anchor="middle" x="2149.6938" y="-231.8" font-family="Times,serif" font-size="14.00" fill="#000000">of_family_relationship</text>
</g>
<!-- genetic_analysis -->
<g id="node12" class="node">
<title>genetic_analysis</title>
<ellipse fill="none" stroke="#000000" cx="1318.1938" cy="-366" rx="87.9851" ry="18"/>
<text text-anchor="middle" x="1318.1938" y="-362.3" font-family="Times,serif" font-size="14.00" fill="#000000">genetic_analysis</text>
</g>
<!-- genetic_analysis&#45;&gt;participant -->
<g id="edge30" class="edge">
<title>genetic_analysis&#45;&gt;participant</title>
<path fill="none" stroke="#000000" d="M1314.2082,-347.8593C1310.314,-325.0196 1307.5008,-285.7798 1327.1938,-261 1346.244,-237.029 1422.5127,-216.4302 1478.3616,-204.1312"/>
<polygon fill="#000000" stroke="#000000" points="1479.1496,-207.5418 1488.1836,-202.0067 1477.6697,-200.7 1479.1496,-207.5418"/>
<text text-anchor="middle" x="1397.1938" y="-275.3" font-family="Times,serif" font-size="14.00" fill="#000000">of_genetic_analysis</text>
</g>
<!-- genetic_analysis&#45;&gt;sample -->
<g id="edge29" class="edge">
<title>genetic_analysis&#45;&gt;sample</title>
<path fill="none" stroke="#000000" d="M1256.7568,-353.101C1228.41,-346.776 1194.4154,-338.6609 1164.1938,-330 1144.3326,-324.3082 1140.485,-318.8897 1120.1938,-315 963.7304,-285.0071 918.6744,-326.9027 762.1938,-297 758.5429,-296.3023 754.7997,-295.4113 751.0735,-294.4003"/>
<polygon fill="#000000" stroke="#000000" points="751.9073,-290.9967 741.3241,-291.4941 749.9076,-297.705 751.9073,-290.9967"/>
<text text-anchor="middle" x="1234.1938" y="-318.8" font-family="Times,serif" font-size="14.00" fill="#000000">of_genetic_analysis</text>
</g>
<!-- study_arm -->
<g id="node13" class="node">
<title>study_arm</title>
<ellipse fill="none" stroke="#000000" cx="744.1938" cy="-105" rx="59.5901" ry="18"/>
<text text-anchor="middle" x="744.1938" y="-101.3" font-family="Times,serif" font-size="14.00" fill="#000000">study_arm</text>
</g>
<!-- study_arm&#45;&gt;study -->
<g id="edge11" class="edge">
<title>study_arm&#45;&gt;study</title>
<path fill="none" stroke="#000000" d="M755.1306,-86.8109C762.4531,-75.977 772.9718,-62.6892 785.1938,-54 802.2982,-41.8397 823.9254,-33.408 842.7746,-27.7793"/>
<polygon fill="#000000" stroke="#000000" points="843.9458,-31.0858 852.6259,-25.0107 842.0519,-24.3468 843.9458,-31.0858"/>
<text text-anchor="middle" x="833.6938" y="-57.8" font-family="Times,serif" font-size="14.00" fill="#000000">of_study_arm</text>
</g>
<!-- pathology_file -->
<g id="node14" class="node">
<title>pathology_file</title>
<ellipse fill="none" stroke="#000000" cx="272.1938" cy="-366" rx="76.0865" ry="18"/>
<text text-anchor="middle" x="272.1938" y="-362.3" font-family="Times,serif" font-size="14.00" fill="#000000">pathology_file</text>
</g>
<!-- pathology_file&#45;&gt;sample -->
<g id="edge33" class="edge">
<title>pathology_file&#45;&gt;sample</title>
<path fill="none" stroke="#000000" d="M289.2246,-348.4259C301.6318,-336.8139 319.4815,-322.4156 338.1938,-315 394.3991,-292.726 566.2033,-283.7885 654.9147,-280.5854"/>
<polygon fill="#000000" stroke="#000000" points="655.1771,-284.0785 665.0488,-280.2314 654.9327,-277.0827 655.1771,-284.0785"/>
<text text-anchor="middle" x="399.1938" y="-318.8" font-family="Times,serif" font-size="14.00" fill="#000000">of_pathology_file</text>
</g>
<!-- study_funding -->
<g id="node15" class="node">
<title>study_funding</title>
<ellipse fill="none" stroke="#000000" cx="899.1938" cy="-105" rx="77.1866" ry="18"/>
<text text-anchor="middle" x="899.1938" y="-101.3" font-family="Times,serif" font-size="14.00" fill="#000000">study_funding</text>
</g>
<!-- study_funding&#45;&gt;study -->
<g id="edge1" class="edge">
<title>study_funding&#45;&gt;study</title>
<path fill="none" stroke="#000000" d="M891.9967,-86.9604C890.0626,-81.3023 888.2232,-74.973 887.1938,-69 885.926,-61.6446 885.3846,-53.6046 885.2288,-46.1279"/>
<polygon fill="#000000" stroke="#000000" points="888.7287,-46.0637 885.2295,-36.0634 881.7287,-46.0631 888.7287,-46.0637"/>
<text text-anchor="middle" x="949.1938" y="-57.8" font-family="Times,serif" font-size="14.00" fill="#000000">of_study_funding</text>
</g>
<!-- consent_group&#45;&gt;study -->
<g id="edge38" class="edge">
<title>consent_group&#45;&gt;study</title>
<path fill="none" stroke="#000000" d="M1286.8437,-93.4471C1192.2393,-75.632 1013.0274,-41.8842 930.2004,-26.287"/>
<polygon fill="#000000" stroke="#000000" points="930.8276,-22.8436 920.3526,-24.4325 929.5322,-29.7227 930.8276,-22.8436"/>
<text text-anchor="middle" x="1208.6938" y="-57.8" font-family="Times,serif" font-size="14.00" fill="#000000">of_consent_group</text>
</g>
<!-- survival -->
<g id="node17" class="node">
<title>survival</title>
<ellipse fill="none" stroke="#000000" cx="2382.1938" cy="-279" rx="48.1917" ry="18"/>
<text text-anchor="middle" x="2382.1938" y="-275.3" font-family="Times,serif" font-size="14.00" fill="#000000">survival</text>
</g>
<!-- survival&#45;&gt;participant -->
<g id="edge36" class="edge">
<title>survival&#45;&gt;participant</title>
<path fill="none" stroke="#000000" d="M2350.6336,-265.32C2320.9446,-253.149 2274.9378,-236.0647 2233.1938,-228 2116.1177,-205.3817 1765.7454,-196.2177 1612.8702,-193.2247"/>
<polygon fill="#000000" stroke="#000000" points="1612.7159,-189.7212 1602.6504,-193.0281 1612.5812,-196.7199 1612.7159,-189.7212"/>
<text text-anchor="middle" x="2326.6938" y="-231.8" font-family="Times,serif" font-size="14.00" fill="#000000">of_survival</text>
</g>
<!-- treatment -->
<g id="node18" class="node">
<title>treatment</title>
<ellipse fill="none" stroke="#000000" cx="829.1938" cy="-279" rx="57.6901" ry="18"/>
<text text-anchor="middle" x="829.1938" y="-275.3" font-family="Times,serif" font-size="14.00" fill="#000000">treatment</text>
</g>
<!-- treatment&#45;&gt;participant -->
<g id="edge25" class="edge">
<title>treatment&#45;&gt;participant</title>
<path fill="none" stroke="#000000" d="M871.3062,-266.6439C890.0628,-260.5091 912.1662,-252.394 931.1938,-243 942.1368,-237.5974 942.6079,-231.8347 954.1938,-228 1001.7674,-212.2542 1322.0534,-199.4559 1467.9914,-194.3683"/>
<polygon fill="#000000" stroke="#000000" points="1468.3185,-197.8592 1478.1914,-194.0154 1468.0764,-190.8634 1468.3185,-197.8592"/>
<text text-anchor="middle" x="1001.1938" y="-231.8" font-family="Times,serif" font-size="14.00" fill="#000000">of_treatment</text>
</g>
<!-- diagnosis -->
<g id="node19" class="node">
<title>diagnosis</title>
<ellipse fill="none" stroke="#000000" cx="1681.1938" cy="-366" rx="54.6905" ry="18"/>
<text text-anchor="middle" x="1681.1938" y="-362.3" font-family="Times,serif" font-size="14.00" fill="#000000">diagnosis</text>
</g>
<!-- diagnosis&#45;&gt;participant -->
<g id="edge14" class="edge">
<title>diagnosis&#45;&gt;participant</title>
<path fill="none" stroke="#000000" d="M1704.1933,-349.5927C1739.3623,-322.5581 1799.0434,-267.6961 1765.1938,-228 1755.0881,-216.1489 1672.2688,-205.2551 1610.0223,-198.6256"/>
<polygon fill="#000000" stroke="#000000" points="1610.144,-195.1193 1599.8338,-197.5586 1609.4149,-202.0812 1610.144,-195.1193"/>
<text text-anchor="middle" x="1819.6938" y="-275.3" font-family="Times,serif" font-size="14.00" fill="#000000">of_diagnosis</text>
</g>
<!-- diagnosis&#45;&gt;sample -->
<g id="edge15" class="edge">
<title>diagnosis&#45;&gt;sample</title>
<path fill="none" stroke="#000000" d="M1632.4935,-357.7094C1561.4437,-345.9861 1425.0962,-324.8925 1308.1938,-315 1187.2269,-304.7635 881.6278,-318.7553 762.1938,-297 758.4862,-296.3247 754.6856,-295.4408 750.9053,-294.4272"/>
<polygon fill="#000000" stroke="#000000" points="751.6064,-290.9845 741.0239,-291.495 749.615,-297.6952 751.6064,-290.9845"/>
<text text-anchor="middle" x="1486.6938" y="-318.8" font-family="Times,serif" font-size="14.00" fill="#000000">of_diagnosis</text>
</g>
<!-- sequencing_file -->
<g id="node20" class="node">
<title>sequencing_file</title>
<ellipse fill="none" stroke="#000000" cx="896.1938" cy="-366" rx="83.3857" ry="18"/>
<text text-anchor="middle" x="896.1938" y="-362.3" font-family="Times,serif" font-size="14.00" fill="#000000">sequencing_file</text>
</g>
<!-- sequencing_file&#45;&gt;sample -->
<g id="edge3" class="edge">
<title>sequencing_file&#45;&gt;sample</title>
<path fill="none" stroke="#000000" d="M863.8502,-349.3334C852.75,-343.4262 840.323,-336.603 829.1938,-330 818.698,-323.7729 817.093,-320.4904 806.1938,-315 796.3165,-310.0244 773.4979,-301.5059 752.4733,-294.0041"/>
<polygon fill="#000000" stroke="#000000" points="753.5872,-290.6857 742.9925,-290.6453 751.2496,-297.2838 753.5872,-290.6857"/>
<text text-anchor="middle" x="895.6938" y="-318.8" font-family="Times,serif" font-size="14.00" fill="#000000">of_sequencing_file</text>
</g>
<!-- synonym -->
<g id="node21" class="node">
<title>synonym</title>
<ellipse fill="none" stroke="#000000" cx="2088.1938" cy="-366" rx="51.9908" ry="18"/>
<text text-anchor="middle" x="2088.1938" y="-362.3" font-family="Times,serif" font-size="14.00" fill="#000000">synonym</text>
</g>
<!-- synonym&#45;&gt;participant -->
<g id="edge7" class="edge">
<title>synonym&#45;&gt;participant</title>
<path fill="none" stroke="#000000" d="M2135.406,-358.3423C2228.9132,-342.9547 2429.528,-308.7508 2439.1938,-297 2449.3579,-284.6432 2447.7245,-274.5361 2439.1938,-261 2421.0694,-232.2413 2403.1744,-236.2363 2370.1938,-228 2333.7843,-218.9074 1807.8595,-200.8009 1612.5286,-194.35"/>
<polygon fill="#000000" stroke="#000000" points="1612.4757,-190.8464 1602.3658,-194.015 1612.2451,-197.8426 1612.4757,-190.8464"/>
<text text-anchor="middle" x="2488.6938" y="-275.3" font-family="Times,serif" font-size="14.00" fill="#000000">of_synonym</text>
</g>
<!-- synonym&#45;&gt;sample -->
<g id="edge8" class="edge">
<title>synonym&#45;&gt;sample</title>
<path fill="none" stroke="#000000" d="M2038.7086,-360.286C1942.079,-349.3837 1721.4459,-325.7443 1535.1938,-315 1363.6546,-305.1045 931.3836,-326.9737 762.1938,-297 758.483,-296.3426 754.6801,-295.4713 750.8984,-294.466"/>
<polygon fill="#000000" stroke="#000000" points="751.5964,-291.0227 741.0146,-291.5467 749.6136,-297.736 751.5964,-291.0227"/>
<text text-anchor="middle" x="1775.6938" y="-318.8" font-family="Times,serif" font-size="14.00" fill="#000000">of_synonym</text>
</g>
<!-- synonym&#45;&gt;study -->
<g id="edge9" class="edge">
<title>synonym&#45;&gt;study</title>
<path fill="none" stroke="#000000" d="M2088.1938,-347.6694C2088.1938,-330.0629 2088.1938,-302.7135 2088.1938,-279 2088.1938,-279 2088.1938,-279 2088.1938,-105 2088.1938,-46.0096 1155.0825,-23.4315 933.1481,-18.8957"/>
<polygon fill="#000000" stroke="#000000" points="932.8922,-15.3899 922.8236,-18.6873 932.7508,-22.3885 932.8922,-15.3899"/>
<text text-anchor="middle" x="2130.6938" y="-188.3" font-family="Times,serif" font-size="14.00" fill="#000000">of_synonym</text>
</g>
<!-- laboratory_test -->
<g id="node22" class="node">
<title>laboratory_test</title>
<ellipse fill="none" stroke="#000000" cx="1105.1938" cy="-366" rx="81.7856" ry="18"/>
<text text-anchor="middle" x="1105.1938" y="-362.3" font-family="Times,serif" font-size="14.00" fill="#000000">laboratory_test</text>
</g>
<!-- laboratory_test&#45;&gt;participant -->
<g id="edge28" class="edge">
<title>laboratory_test&#45;&gt;participant</title>
<path fill="none" stroke="#000000" d="M1116.0896,-347.9285C1121.0505,-337.1389 1124.226,-323.8564 1116.1938,-315 1088.5934,-284.5678 959.7942,-327.4322 932.1938,-297 921.4449,-285.1483 921.761,-273.1309 932.1938,-261 933.1921,-259.8391 1148.6739,-228.185 1150.1938,-228 1261.4631,-214.4544 1391.1478,-203.4262 1469.3922,-197.2901"/>
<polygon fill="#000000" stroke="#000000" points="1469.9161,-200.7599 1479.6139,-196.4934 1469.3721,-193.7811 1469.9161,-200.7599"/>
<text text-anchor="middle" x="997.6938" y="-275.3" font-family="Times,serif" font-size="14.00" fill="#000000">of_laboratory_test</text>
</g>
<!-- laboratory_test&#45;&gt;sample -->
<g id="edge27" class="edge">
<title>laboratory_test&#45;&gt;sample</title>
<path fill="none" stroke="#000000" d="M1049.3117,-352.8188C1028.6809,-347.0303 1005.4149,-339.3886 985.1938,-330 974.1247,-324.8606 973.7241,-318.9988 962.1938,-315 877.8726,-285.7566 849.5076,-315.4806 762.1938,-297 758.6079,-296.241 754.9281,-295.3149 751.2599,-294.2875"/>
<polygon fill="#000000" stroke="#000000" points="752.235,-290.9258 741.6498,-291.376 750.2054,-297.6252 752.235,-290.9258"/>
<text text-anchor="middle" x="1050.6938" y="-318.8" font-family="Times,serif" font-size="14.00" fill="#000000">of_laboratory_test</text>
</g>
<!-- clinical_measure_file -->
<g id="node23" class="node">
<title>clinical_measure_file</title>
<ellipse fill="none" stroke="#000000" cx="2587.1938" cy="-366" rx="108.5808" ry="18"/>
<text text-anchor="middle" x="2587.1938" y="-362.3" font-family="Times,serif" font-size="14.00" fill="#000000">clinical_measure_file</text>
</g>
<!-- clinical_measure_file&#45;&gt;participant -->
<g id="edge24" class="edge">
<title>clinical_measure_file&#45;&gt;participant</title>
<path fill="none" stroke="#000000" d="M2583.1535,-347.877C2576.9456,-324.3109 2562.7725,-283.5097 2535.1938,-261 2490.6797,-224.6678 2467.0098,-236.5714 2410.1938,-228 2371.075,-222.0984 1814.0696,-201.7722 1612.4085,-194.5617"/>
<polygon fill="#000000" stroke="#000000" points="1612.3352,-191.057 1602.2166,-194.1977 1612.0852,-198.0525 1612.3352,-191.057"/>
<text text-anchor="middle" x="2649.1938" y="-275.3" font-family="Times,serif" font-size="14.00" fill="#000000">of_clinical_measure_file</text>
</g>
<!-- clinical_measure_file&#45;&gt;sample -->
<g id="edge23" class="edge">
<title>clinical_measure_file&#45;&gt;sample</title>
<path fill="none" stroke="#000000" d="M2489.7641,-357.9511C2344.484,-346.3016 2062.4091,-325.0406 1822.1938,-315 1704.5018,-310.0807 878.2466,-317.183 762.1938,-297 758.4809,-296.3543 754.6767,-295.4911 750.8939,-294.4912"/>
<polygon fill="#000000" stroke="#000000" points="751.5901,-291.0477 741.0086,-291.5805 749.6128,-297.7626 751.5901,-291.0477"/>
<text text-anchor="middle" x="2182.1938" y="-318.8" font-family="Times,serif" font-size="14.00" fill="#000000">of_clinical_measure_file</text>
</g>
<!-- clinical_measure_file&#45;&gt;study -->
<g id="edge22" class="edge">
<title>clinical_measure_file&#45;&gt;study</title>
<path fill="none" stroke="#000000" d="M2650.2005,-351.3249C2708.8244,-335.786 2787.1938,-309.3394 2787.1938,-279 2787.1938,-279 2787.1938,-279 2787.1938,-105 2787.1938,-57.0933 1225.8173,-24.5634 933.1552,-18.8869"/>
<polygon fill="#000000" stroke="#000000" points="932.9575,-15.3825 922.8918,-18.6887 932.8223,-22.3812 932.9575,-15.3825"/>
<text text-anchor="middle" x="2873.1938" y="-188.3" font-family="Times,serif" font-size="14.00" fill="#000000">of_clinical_measure_file</text>
</g>
<!-- radiology_file -->
<g id="node24" class="node">
<title>radiology_file</title>
<ellipse fill="none" stroke="#000000" cx="1549.1938" cy="-279" rx="73.387" ry="18"/>
<text text-anchor="middle" x="1549.1938" y="-275.3" font-family="Times,serif" font-size="14.00" fill="#000000">radiology_file</text>
</g>
<!-- radiology_file&#45;&gt;participant -->
<g id="edge21" class="edge">
<title>radiology_file&#45;&gt;participant</title>
<path fill="none" stroke="#000000" d="M1544.4127,-260.8072C1543.124,-255.1428 1541.8939,-248.8485 1541.1938,-243 1540.331,-235.7924 1539.9182,-227.9718 1539.7557,-220.6697"/>
<polygon fill="#000000" stroke="#000000" points="1543.2541,-220.4454 1539.6734,-210.474 1536.2543,-220.502 1543.2541,-220.4454"/>
<text text-anchor="middle" x="1600.1938" y="-231.8" font-family="Times,serif" font-size="14.00" fill="#000000">of_radiology_file</text>
</g>
<!-- cytogenomic_file -->
<g id="node25" class="node">
<title>cytogenomic_file</title>
<ellipse fill="none" stroke="#000000" cx="456.1938" cy="-366" rx="89.8845" ry="18"/>
<text text-anchor="middle" x="456.1938" y="-362.3" font-family="Times,serif" font-size="14.00" fill="#000000">cytogenomic_file</text>
</g>
<!-- cytogenomic_file&#45;&gt;sample -->
<g id="edge10" class="edge">
<title>cytogenomic_file&#45;&gt;sample</title>
<path fill="none" stroke="#000000" d="M457.9595,-347.76C460.0266,-336.623 464.5041,-323.0259 474.1938,-315 500.9368,-292.8489 594.0504,-284.2641 654.7318,-280.9816"/>
<polygon fill="#000000" stroke="#000000" points="655.1093,-284.467 664.9185,-280.4635 654.7537,-277.4761 655.1093,-284.467"/>
<text text-anchor="middle" x="545.6938" y="-318.8" font-family="Times,serif" font-size="14.00" fill="#000000">of_cytogenomic_file</text>
</g>
<!-- exposure -->
<g id="node26" class="node">
<title>exposure</title>
<ellipse fill="none" stroke="#000000" cx="1694.1938" cy="-279" rx="53.0913" ry="18"/>
<text text-anchor="middle" x="1694.1938" y="-275.3" font-family="Times,serif" font-size="14.00" fill="#000000">exposure</text>
</g>
<!-- exposure&#45;&gt;participant -->
<g id="edge32" class="edge">
<title>exposure&#45;&gt;participant</title>
<path fill="none" stroke="#000000" d="M1685.8365,-261.0801C1679.8531,-250.0708 1670.8079,-236.4957 1659.1938,-228 1643.3202,-216.3885 1623.671,-208.4821 1604.9447,-203.1143"/>
<polygon fill="#000000" stroke="#000000" points="1605.8252,-199.7268 1595.261,-200.5325 1604.0218,-206.4906 1605.8252,-199.7268"/>
<text text-anchor="middle" x="1717.6938" y="-231.8" font-family="Times,serif" font-size="14.00" fill="#000000">of_exposure</text>
</g>
<!-- cell_line&#45;&gt;sample -->
<g id="edge12" class="edge">
<title>cell_line&#45;&gt;sample</title>
<path fill="none" stroke="#000000" d="M718.4059,-201.0373C692.1217,-207.554 662.0287,-217.0975 654.1938,-228 645.4463,-240.1724 655.6853,-251.7095 669.605,-260.7216"/>
<polygon fill="#000000" stroke="#000000" points="668.2119,-263.9615 678.6108,-265.9897 671.7464,-257.9194 668.2119,-263.9615"/>
<text text-anchor="middle" x="694.6938" y="-231.8" font-family="Times,serif" font-size="14.00" fill="#000000">of_cell_line</text>
</g>
<!-- cell_line&#45;&gt;study -->
<g id="edge13" class="edge">
<title>cell_line&#45;&gt;study</title>
<path fill="none" stroke="#000000" d="M809.8633,-188.2553C859.2651,-182.1029 935.3749,-165.8591 985.1938,-123 1010.037,-101.6274 1030.901,-80.184 1011.1938,-54 1001.3903,-40.9746 962.8874,-31.1909 931.1741,-25.1353"/>
<polygon fill="#000000" stroke="#000000" points="931.6281,-21.6603 921.1611,-23.3008 930.3666,-28.5457 931.6281,-21.6603"/>
<text text-anchor="middle" x="1057.6938" y="-101.3" font-family="Times,serif" font-size="14.00" fill="#000000">of_cell_line</text>
</g>
<!-- study_personnel -->
<g id="node28" class="node">
<title>study_personnel</title>
<ellipse fill="none" stroke="#000000" cx="2902.1938" cy="-105" rx="87.1846" ry="18"/>
<text text-anchor="middle" x="2902.1938" y="-101.3" font-family="Times,serif" font-size="14.00" fill="#000000">study_personnel</text>
</g>
<!-- study_personnel&#45;&gt;study -->
<g id="edge35" class="edge">
<title>study_personnel&#45;&gt;study</title>
<path fill="none" stroke="#000000" d="M2876.0517,-87.6629C2856.381,-75.6739 2828.2666,-60.717 2801.1938,-54 2707.8418,-30.8385 1218.6146,-20.135 933.2603,-18.2918"/>
<polygon fill="#000000" stroke="#000000" points="932.8776,-14.7893 922.8553,-18.2251 932.8326,-21.7892 932.8776,-14.7893"/>
<text text-anchor="middle" x="2907.6938" y="-57.8" font-family="Times,serif" font-size="14.00" fill="#000000">of_study_personnel</text>
</g>
</g>
</svg>
