<svg width="2887pt" height="305pt"
 viewBox="0.00 0.00 2886.54 305.00" xmlns="http://www.w3.org/2000/svg" xmlns:xlink="http://www.w3.org/1999/xlink">
<g id="graph0" class="graph" transform="scale(1 1) rotate(0) translate(4 301)">
<title>Perl</title>
<polygon fill="#ffffff" stroke="transparent" points="-4,4 -4,-301 2882.5404,-301 2882.5404,4 -4,4"/>
<!-- sample -->
<g id="node1" class="node">
<title>sample</title>
<ellipse fill="none" stroke="#000000" cx="2190.5404" cy="-192" rx="44.393" ry="18"/>
<text text-anchor="middle" x="2190.5404" y="-188.3" font-family="Times,serif" font-size="14.00" fill="#000000">sample</text>
</g>
<!-- participant -->
<g id="node14" class="node">
<title>participant</title>
<ellipse fill="none" stroke="#000000" cx="1247.5404" cy="-105" rx="62.2891" ry="18"/>
<text text-anchor="middle" x="1247.5404" y="-101.3" font-family="Times,serif" font-size="14.00" fill="#000000">participant</text>
</g>
<!-- sample&#45;&gt;participant -->
<g id="edge28" class="edge">
<title>sample&#45;&gt;participant</title>
<path fill="none" stroke="#000000" d="M2148.4724,-186.1844C2110.6095,-180.3931 2053.6881,-170.2985 2005.5404,-156 1988.5302,-150.9485 1985.894,-144.7034 1968.5404,-141 1857.851,-117.3781 1572.5183,-129.7897 1459.5404,-123 1411.8523,-120.1341 1358.2379,-115.5695 1316.8576,-111.7543"/>
<polygon fill="#000000" stroke="#000000" points="1317.1626,-108.2676 1306.8816,-110.8272 1316.5148,-115.2376 1317.1626,-108.2676"/>
<text text-anchor="middle" x="2042.0404" y="-144.8" font-family="Times,serif" font-size="14.00" fill="#000000">of_sample</text>
</g>
<!-- cell_line -->
<g id="node17" class="node">
<title>cell_line</title>
<ellipse fill="none" stroke="#000000" cx="2086.5404" cy="-105" rx="49.2915" ry="18"/>
<text text-anchor="middle" x="2086.5404" y="-101.3" font-family="Times,serif" font-size="14.00" fill="#000000">cell_line</text>
</g>
<!-- sample&#45;&gt;cell_line -->
<g id="edge26" class="edge">
<title>sample&#45;&gt;cell_line</title>
<path fill="none" stroke="#000000" d="M2186.3704,-174.0503C2183.0806,-163.3065 2177.5118,-150.0294 2168.5404,-141 2159.4611,-131.8622 2147.6698,-124.8683 2135.8729,-119.5879"/>
<polygon fill="#000000" stroke="#000000" points="2137.0419,-116.2841 2126.4625,-115.7121 2134.3761,-122.7567 2137.0419,-116.2841"/>
<text text-anchor="middle" x="2216.0404" y="-144.8" font-family="Times,serif" font-size="14.00" fill="#000000">of_sample</text>
</g>
<!-- pdx -->
<g id="node19" class="node">
<title>pdx</title>
<ellipse fill="none" stroke="#000000" cx="2234.5404" cy="-105" rx="27.8951" ry="18"/>
<text text-anchor="middle" x="2234.5404" y="-101.3" font-family="Times,serif" font-size="14.00" fill="#000000">pdx</text>
</g>
<!-- sample&#45;&gt;pdx -->
<g id="edge27" class="edge">
<title>sample&#45;&gt;pdx</title>
<path fill="none" stroke="#000000" d="M2228.7132,-182.6287C2242.4412,-177.2176 2256.5088,-168.8388 2264.5404,-156 2270.4395,-146.57 2265.981,-135.9931 2258.8716,-126.9265"/>
<polygon fill="#000000" stroke="#000000" points="2261.4173,-124.5228 2252.1352,-119.4145 2256.2058,-129.1962 2261.4173,-124.5228"/>
<text text-anchor="middle" x="2304.0404" y="-144.8" font-family="Times,serif" font-size="14.00" fill="#000000">of_sample</text>
</g>
<!-- exposure -->
<g id="node2" class="node">
<title>exposure</title>
<ellipse fill="none" stroke="#000000" cx="1024.5404" cy="-192" rx="53.0913" ry="18"/>
<text text-anchor="middle" x="1024.5404" y="-188.3" font-family="Times,serif" font-size="14.00" fill="#000000">exposure</text>
</g>
<!-- exposure&#45;&gt;participant -->
<g id="edge22" class="edge">
<title>exposure&#45;&gt;participant</title>
<path fill="none" stroke="#000000" d="M1037.4457,-174.2191C1046.5567,-162.9762 1059.7433,-149.0882 1074.5404,-141 1092.881,-130.9749 1140.7122,-121.4225 1181.4429,-114.6799"/>
<polygon fill="#000000" stroke="#000000" points="1182.0429,-118.1284 1191.3526,-113.0707 1180.9209,-111.2189 1182.0429,-118.1284"/>
<text text-anchor="middle" x="1118.0404" y="-144.8" font-family="Times,serif" font-size="14.00" fill="#000000">of_exposure</text>
</g>
<!-- sequencing_file -->
<g id="node3" class="node">
<title>sequencing_file</title>
<ellipse fill="none" stroke="#000000" cx="2551.5404" cy="-279" rx="83.3857" ry="18"/>
<text text-anchor="middle" x="2551.5404" y="-275.3" font-family="Times,serif" font-size="14.00" fill="#000000">sequencing_file</text>
</g>
<!-- sequencing_file&#45;&gt;sample -->
<g id="edge19" class="edge">
<title>sequencing_file&#45;&gt;sample</title>
<path fill="none" stroke="#000000" d="M2528.5779,-261.6265C2510.8046,-248.52 2487.4406,-232.1178 2476.5404,-228 2435.266,-212.4078 2315.1655,-201.2157 2244.4082,-195.7596"/>
<polygon fill="#000000" stroke="#000000" points="2244.578,-192.2625 2234.3419,-194.9963 2244.0487,-199.2424 2244.578,-192.2625"/>
<text text-anchor="middle" x="2567.0404" y="-231.8" font-family="Times,serif" font-size="14.00" fill="#000000">of_sequencing_file</text>
</g>
<!-- methylation_array_file -->
<g id="node4" class="node">
<title>methylation_array_file</title>
<ellipse fill="none" stroke="#000000" cx="1967.5404" cy="-279" rx="115.8798" ry="18"/>
<text text-anchor="middle" x="1967.5404" y="-275.3" font-family="Times,serif" font-size="14.00" fill="#000000">methylation_array_file</text>
</g>
<!-- methylation_array_file&#45;&gt;sample -->
<g id="edge29" class="edge">
<title>methylation_array_file&#45;&gt;sample</title>
<path fill="none" stroke="#000000" d="M1975.8264,-260.9074C1981.9084,-249.683 1991.2475,-235.9343 2003.5404,-228 2025.2788,-213.9693 2090.3359,-203.6383 2137.6168,-197.7278"/>
<polygon fill="#000000" stroke="#000000" points="2138.2097,-201.1815 2147.7133,-196.4984 2137.3636,-194.2329 2138.2097,-201.1815"/>
<text text-anchor="middle" x="2095.0404" y="-231.8" font-family="Times,serif" font-size="14.00" fill="#000000">of_methylation_array_file</text>
</g>
<!-- medical_history -->
<g id="node5" class="node">
<title>medical_history</title>
<ellipse fill="none" stroke="#000000" cx="1180.5404" cy="-192" rx="85.2851" ry="18"/>
<text text-anchor="middle" x="1180.5404" y="-188.3" font-family="Times,serif" font-size="14.00" fill="#000000">medical_history</text>
</g>
<!-- medical_history&#45;&gt;participant -->
<g id="edge6" class="edge">
<title>medical_history&#45;&gt;participant</title>
<path fill="none" stroke="#000000" d="M1169.8164,-173.844C1165.2418,-163.542 1162.2418,-150.792 1168.5404,-141 1173.8658,-132.7209 1181.6161,-126.3229 1190.2072,-121.3852"/>
<polygon fill="#000000" stroke="#000000" points="1192.0449,-124.3784 1199.398,-116.7506 1188.8931,-118.1281 1192.0449,-124.3784"/>
<text text-anchor="middle" x="1236.5404" y="-144.8" font-family="Times,serif" font-size="14.00" fill="#000000">of_medical_history</text>
</g>
<!-- cytogenomic_file -->
<g id="node6" class="node">
<title>cytogenomic_file</title>
<ellipse fill="none" stroke="#000000" cx="2190.5404" cy="-279" rx="89.8845" ry="18"/>
<text text-anchor="middle" x="2190.5404" y="-275.3" font-family="Times,serif" font-size="14.00" fill="#000000">cytogenomic_file</text>
</g>
<!-- cytogenomic_file&#45;&gt;sample -->
<g id="edge1" class="edge">
<title>cytogenomic_file&#45;&gt;sample</title>
<path fill="none" stroke="#000000" d="M2190.5404,-260.9735C2190.5404,-249.1918 2190.5404,-233.5607 2190.5404,-220.1581"/>
<polygon fill="#000000" stroke="#000000" points="2194.0405,-220.0033 2190.5404,-210.0034 2187.0405,-220.0034 2194.0405,-220.0033"/>
<text text-anchor="middle" x="2262.0404" y="-231.8" font-family="Times,serif" font-size="14.00" fill="#000000">of_cytogenomic_file</text>
</g>
<!-- publication -->
<g id="node7" class="node">
<title>publication</title>
<ellipse fill="none" stroke="#000000" cx="80.5404" cy="-105" rx="63.0888" ry="18"/>
<text text-anchor="middle" x="80.5404" y="-101.3" font-family="Times,serif" font-size="14.00" fill="#000000">publication</text>
</g>
<!-- study -->
<g id="node11" class="node">
<title>study</title>
<ellipse fill="none" stroke="#000000" cx="1528.5404" cy="-18" rx="36.2938" ry="18"/>
<text text-anchor="middle" x="1528.5404" y="-14.3" font-family="Times,serif" font-size="14.00" fill="#000000">study</text>
</g>
<!-- publication&#45;&gt;study -->
<g id="edge32" class="edge">
<title>publication&#45;&gt;study</title>
<path fill="none" stroke="#000000" d="M98.668,-87.4998C112.286,-75.5981 132.0465,-60.8194 152.5404,-54 216.848,-32.6015 1248.0056,-20.8554 1481.6989,-18.4606"/>
<polygon fill="#000000" stroke="#000000" points="1481.9386,-21.9584 1491.9025,-18.3568 1481.8674,-14.9588 1481.9386,-21.9584"/>
<text text-anchor="middle" x="203.5404" y="-57.8" font-family="Times,serif" font-size="14.00" fill="#000000">of_publication</text>
</g>
<!-- study_admin -->
<g id="node8" class="node">
<title>study_admin</title>
<ellipse fill="none" stroke="#000000" cx="231.5404" cy="-105" rx="70.3881" ry="18"/>
<text text-anchor="middle" x="231.5404" y="-101.3" font-family="Times,serif" font-size="14.00" fill="#000000">study_admin</text>
</g>
<!-- study_admin&#45;&gt;study -->
<g id="edge21" class="edge">
<title>study_admin&#45;&gt;study</title>
<path fill="none" stroke="#000000" d="M242.1548,-87.1353C250.2264,-75.39 262.4949,-60.9519 277.5404,-54 333.121,-28.3187 1260.9044,-19.9509 1481.6707,-18.3188"/>
<polygon fill="#000000" stroke="#000000" points="1481.9672,-21.8168 1491.9414,-18.244 1481.9162,-14.817 1481.9672,-21.8168"/>
<text text-anchor="middle" x="334.0404" y="-57.8" font-family="Times,serif" font-size="14.00" fill="#000000">of_study_admin</text>
</g>
<!-- treatment -->
<g id="node9" class="node">
<title>treatment</title>
<ellipse fill="none" stroke="#000000" cx="1341.5404" cy="-192" rx="57.6901" ry="18"/>
<text text-anchor="middle" x="1341.5404" y="-188.3" font-family="Times,serif" font-size="14.00" fill="#000000">treatment</text>
</g>
<!-- treatment&#45;&gt;participant -->
<g id="edge17" class="edge">
<title>treatment&#45;&gt;participant</title>
<path fill="none" stroke="#000000" d="M1331.0128,-174.1666C1324.2931,-163.7265 1314.9139,-150.7269 1304.5404,-141 1299.0227,-135.8262 1292.6584,-130.9705 1286.2265,-126.6018"/>
<polygon fill="#000000" stroke="#000000" points="1287.7873,-123.4436 1277.4871,-120.9625 1283.9919,-129.3254 1287.7873,-123.4436"/>
<text text-anchor="middle" x="1364.5404" y="-144.8" font-family="Times,serif" font-size="14.00" fill="#000000">of_treatment</text>
</g>
<!-- molecular_test -->
<g id="node10" class="node">
<title>molecular_test</title>
<ellipse fill="none" stroke="#000000" cx="1639.5404" cy="-192" rx="79.8859" ry="18"/>
<text text-anchor="middle" x="1639.5404" y="-188.3" font-family="Times,serif" font-size="14.00" fill="#000000">molecular_test</text>
</g>
<!-- molecular_test&#45;&gt;participant -->
<g id="edge11" class="edge">
<title>molecular_test&#45;&gt;participant</title>
<path fill="none" stroke="#000000" d="M1590.6174,-177.6267C1552.4125,-166.7044 1497.8772,-151.7737 1449.5404,-141 1404.1222,-130.8769 1352.4593,-121.7113 1312.7505,-115.1619"/>
<polygon fill="#000000" stroke="#000000" points="1313.0983,-111.6723 1302.6644,-113.5121 1311.9682,-118.5805 1313.0983,-111.6723"/>
<text text-anchor="middle" x="1571.5404" y="-144.8" font-family="Times,serif" font-size="14.00" fill="#000000">of_molecular_test</text>
</g>
<!-- study_personnel -->
<g id="node12" class="node">
<title>study_personnel</title>
<ellipse fill="none" stroke="#000000" cx="406.5404" cy="-105" rx="87.1846" ry="18"/>
<text text-anchor="middle" x="406.5404" y="-101.3" font-family="Times,serif" font-size="14.00" fill="#000000">study_personnel</text>
</g>
<!-- study_personnel&#45;&gt;study -->
<g id="edge2" class="edge">
<title>study_personnel&#45;&gt;study</title>
<path fill="none" stroke="#000000" d="M397.4273,-86.6592C393.4502,-75.7682 391.3326,-62.4737 399.5404,-54 418.6709,-34.2498 1271.2719,-21.4689 1481.8797,-18.6095"/>
<polygon fill="#000000" stroke="#000000" points="1482.0382,-22.1078 1491.99,-18.4732 1481.9437,-15.1084 1482.0382,-22.1078"/>
<text text-anchor="middle" x="469.0404" y="-57.8" font-family="Times,serif" font-size="14.00" fill="#000000">of_study_personnel</text>
</g>
<!-- clinical_measure_file -->
<g id="node13" class="node">
<title>clinical_measure_file</title>
<ellipse fill="none" stroke="#000000" cx="108.5404" cy="-192" rx="108.5808" ry="18"/>
<text text-anchor="middle" x="108.5404" y="-188.3" font-family="Times,serif" font-size="14.00" fill="#000000">clinical_measure_file</text>
</g>
<!-- clinical_measure_file&#45;&gt;study -->
<g id="edge13" class="edge">
<title>clinical_measure_file&#45;&gt;study</title>
<path fill="none" stroke="#000000" d="M129.1393,-174.1851C144.0187,-162.4627 165.1785,-148.0314 186.5404,-141 253.3502,-119.009 432.4261,-128.5818 502.5404,-123 881.7149,-92.814 1338.1008,-40.4228 1482.4552,-23.4651"/>
<polygon fill="#000000" stroke="#000000" points="1483.1779,-26.9043 1492.7002,-22.2595 1482.3597,-19.9523 1483.1779,-26.9043"/>
<text text-anchor="middle" x="981.5404" y="-101.3" font-family="Times,serif" font-size="14.00" fill="#000000">of_clinical_measure_file</text>
</g>
<!-- clinical_measure_file&#45;&gt;participant -->
<g id="edge12" class="edge">
<title>clinical_measure_file&#45;&gt;participant</title>
<path fill="none" stroke="#000000" d="M146.8849,-174.9606C158.8236,-169.2942 171.9036,-162.7087 183.5404,-156 193.7928,-150.0893 194.2938,-144.6831 205.5404,-141 206.9838,-140.5273 939.6452,-115.5014 1175.3952,-107.4597"/>
<polygon fill="#000000" stroke="#000000" points="1175.701,-110.9514 1185.5759,-107.1124 1175.4623,-103.9555 1175.701,-110.9514"/>
<text text-anchor="middle" x="291.5404" y="-144.8" font-family="Times,serif" font-size="14.00" fill="#000000">of_clinical_measure_file</text>
</g>
<!-- participant&#45;&gt;study -->
<g id="edge10" class="edge">
<title>participant&#45;&gt;study</title>
<path fill="none" stroke="#000000" d="M1290.2182,-91.7866C1343.8744,-75.1742 1435.3174,-46.8626 1487.9642,-30.5627"/>
<polygon fill="#000000" stroke="#000000" points="1489.1219,-33.8683 1497.6394,-27.5672 1487.0516,-27.1814 1489.1219,-33.8683"/>
<text text-anchor="middle" x="1456.0404" y="-57.8" font-family="Times,serif" font-size="14.00" fill="#000000">of_participant</text>
</g>
<!-- study_arm -->
<g id="node15" class="node">
<title>study_arm</title>
<ellipse fill="none" stroke="#000000" cx="1528.5404" cy="-105" rx="59.5901" ry="18"/>
<text text-anchor="middle" x="1528.5404" y="-101.3" font-family="Times,serif" font-size="14.00" fill="#000000">study_arm</text>
</g>
<!-- study_arm&#45;&gt;study -->
<g id="edge5" class="edge">
<title>study_arm&#45;&gt;study</title>
<path fill="none" stroke="#000000" d="M1528.5404,-86.9735C1528.5404,-75.1918 1528.5404,-59.5607 1528.5404,-46.1581"/>
<polygon fill="#000000" stroke="#000000" points="1532.0405,-46.0033 1528.5404,-36.0034 1525.0405,-46.0034 1532.0405,-46.0033"/>
<text text-anchor="middle" x="1577.0404" y="-57.8" font-family="Times,serif" font-size="14.00" fill="#000000">of_study_arm</text>
</g>
<!-- treatment_response -->
<g id="node16" class="node">
<title>treatment_response</title>
<ellipse fill="none" stroke="#000000" cx="723.5404" cy="-192" rx="104.7816" ry="18"/>
<text text-anchor="middle" x="723.5404" y="-188.3" font-family="Times,serif" font-size="14.00" fill="#000000">treatment_response</text>
</g>
<!-- treatment_response&#45;&gt;participant -->
<g id="edge31" class="edge">
<title>treatment_response&#45;&gt;participant</title>
<path fill="none" stroke="#000000" d="M718.3436,-173.6541C716.466,-162.7611 716.48,-149.4664 724.5404,-141 739.8369,-124.9331 1035.2685,-112.4558 1175.2025,-107.4215"/>
<polygon fill="#000000" stroke="#000000" points="1175.5402,-110.9118 1185.4091,-107.0576 1175.2907,-103.9162 1175.5402,-110.9118"/>
<text text-anchor="middle" x="807.5404" y="-144.8" font-family="Times,serif" font-size="14.00" fill="#000000">of_treatment_response</text>
</g>
<!-- cell_line&#45;&gt;sample -->
<g id="edge8" class="edge">
<title>cell_line&#45;&gt;sample</title>
<path fill="none" stroke="#000000" d="M2082.1192,-123.1275C2080.6326,-133.6718 2080.785,-146.6777 2087.5404,-156 2094.3971,-165.4621 2118.5676,-174.1653 2141.7712,-180.6435"/>
<polygon fill="#000000" stroke="#000000" points="2141.0378,-184.0704 2151.6031,-183.2794 2142.8505,-177.3092 2141.0378,-184.0704"/>
<text text-anchor="middle" x="2128.0404" y="-144.8" font-family="Times,serif" font-size="14.00" fill="#000000">of_cell_line</text>
</g>
<!-- cell_line&#45;&gt;study -->
<g id="edge7" class="edge">
<title>cell_line&#45;&gt;study</title>
<path fill="none" stroke="#000000" d="M2047.5898,-93.9258C2005.4923,-82.3482 1936.2673,-64.4409 1875.5404,-54 1768.7374,-35.6372 1641.7177,-25.3568 1574.9162,-20.8311"/>
<polygon fill="#000000" stroke="#000000" points="1574.9344,-17.3247 1564.7243,-20.1538 1574.4702,-24.3093 1574.9344,-17.3247"/>
<text text-anchor="middle" x="1987.0404" y="-57.8" font-family="Times,serif" font-size="14.00" fill="#000000">of_cell_line</text>
</g>
<!-- pathology_file -->
<g id="node18" class="node">
<title>pathology_file</title>
<ellipse fill="none" stroke="#000000" cx="2374.5404" cy="-279" rx="76.0865" ry="18"/>
<text text-anchor="middle" x="2374.5404" y="-275.3" font-family="Times,serif" font-size="14.00" fill="#000000">pathology_file</text>
</g>
<!-- pathology_file&#45;&gt;sample -->
<g id="edge14" class="edge">
<title>pathology_file&#45;&gt;sample</title>
<path fill="none" stroke="#000000" d="M2364.5652,-260.8817C2357.5578,-249.7932 2347.1914,-236.2045 2334.5404,-228 2307.6782,-210.5793 2272.9724,-201.5885 2244.3632,-196.9485"/>
<polygon fill="#000000" stroke="#000000" points="2244.5303,-193.435 2234.1247,-195.4283 2243.5022,-200.3591 2244.5303,-193.435"/>
<text text-anchor="middle" x="2411.5404" y="-231.8" font-family="Times,serif" font-size="14.00" fill="#000000">of_pathology_file</text>
</g>
<!-- pdx&#45;&gt;sample -->
<g id="edge15" class="edge">
<title>pdx&#45;&gt;sample</title>
<path fill="none" stroke="#000000" d="M2256.0661,-116.6027C2261.0474,-118.9674 2266.3976,-121.2605 2271.5404,-123 2389.5627,-162.9208 2400.7196,-106.4212 2360.5404,-156 2346.0464,-173.8847 2288.4179,-183.2396 2244.2344,-187.8787"/>
<polygon fill="#000000" stroke="#000000" points="2243.7853,-184.406 2234.1809,-188.8788 2244.4783,-191.3717 2243.7853,-184.406"/>
<text text-anchor="middle" x="2396.5404" y="-144.8" font-family="Times,serif" font-size="14.00" fill="#000000">of_pdx</text>
</g>
<!-- pdx&#45;&gt;study -->
<g id="edge16" class="edge">
<title>pdx&#45;&gt;study</title>
<path fill="none" stroke="#000000" d="M2209.2014,-97.1108C2171.0723,-85.5885 2096.4851,-64.4003 2031.5404,-54 1865.0208,-27.3333 1664.314,-20.4148 1575.1436,-18.6236"/>
<polygon fill="#000000" stroke="#000000" points="1575.1496,-15.1232 1565.0854,-18.4341 1575.0177,-22.122 1575.1496,-15.1232"/>
<text text-anchor="middle" x="2129.5404" y="-57.8" font-family="Times,serif" font-size="14.00" fill="#000000">of_pdx</text>
</g>
<!-- diagnosis -->
<g id="node20" class="node">
<title>diagnosis</title>
<ellipse fill="none" stroke="#000000" cx="981.5404" cy="-279" rx="54.6905" ry="18"/>
<text text-anchor="middle" x="981.5404" y="-275.3" font-family="Times,serif" font-size="14.00" fill="#000000">diagnosis</text>
</g>
<!-- diagnosis&#45;&gt;sample -->
<g id="edge4" class="edge">
<title>diagnosis&#45;&gt;sample</title>
<path fill="none" stroke="#000000" d="M1035.0496,-275.1495C1234.9339,-260.7657 1936.5857,-210.2747 2136.8211,-195.8657"/>
<polygon fill="#000000" stroke="#000000" points="2137.0826,-199.356 2146.8056,-195.1472 2136.5801,-192.374 2137.0826,-199.356"/>
<text text-anchor="middle" x="1703.0404" y="-231.8" font-family="Times,serif" font-size="14.00" fill="#000000">of_diagnosis</text>
</g>
<!-- diagnosis&#45;&gt;participant -->
<g id="edge3" class="edge">
<title>diagnosis&#45;&gt;participant</title>
<path fill="none" stroke="#000000" d="M947.5094,-264.8458C905.8321,-245.5312 844.1791,-209.2737 873.5404,-174 911.1754,-128.7864 1077.6251,-113.085 1175.3268,-107.7173"/>
<polygon fill="#000000" stroke="#000000" points="1175.6304,-111.2063 1185.4326,-107.1854 1175.2624,-104.216 1175.6304,-111.2063"/>
<text text-anchor="middle" x="918.0404" y="-188.3" font-family="Times,serif" font-size="14.00" fill="#000000">of_diagnosis</text>
</g>
<!-- generic_file -->
<g id="node21" class="node">
<title>generic_file</title>
<ellipse fill="none" stroke="#000000" cx="1768.5404" cy="-279" rx="65.7887" ry="18"/>
<text text-anchor="middle" x="1768.5404" y="-275.3" font-family="Times,serif" font-size="14.00" fill="#000000">generic_file</text>
</g>
<!-- generic_file&#45;&gt;sample -->
<g id="edge25" class="edge">
<title>generic_file&#45;&gt;sample</title>
<path fill="none" stroke="#000000" d="M1796.9806,-262.7314C1818.6384,-251.1168 1849.566,-236.1596 1878.5404,-228 1925.7223,-214.7128 2060.525,-202.3323 2136.6007,-196.1388"/>
<polygon fill="#000000" stroke="#000000" points="2137.2437,-199.5984 2146.9303,-195.3065 2136.6815,-192.621 2137.2437,-199.5984"/>
<text text-anchor="middle" x="1931.5404" y="-231.8" font-family="Times,serif" font-size="14.00" fill="#000000">of_generic_file</text>
</g>
<!-- generic_file&#45;&gt;study -->
<g id="edge24" class="edge">
<title>generic_file&#45;&gt;study</title>
<path fill="none" stroke="#000000" d="M1794.7093,-262.3159C1822.9886,-242.086 1861.6131,-206.6365 1842.5404,-174 1785.5308,-76.4475 1646.1107,-38.3461 1573.7614,-24.7695"/>
<polygon fill="#000000" stroke="#000000" points="1574.0531,-21.2659 1563.5914,-22.9402 1572.8138,-28.1553 1574.0531,-21.2659"/>
<text text-anchor="middle" x="1881.5404" y="-144.8" font-family="Times,serif" font-size="14.00" fill="#000000">of_generic_file</text>
</g>
<!-- generic_file&#45;&gt;participant -->
<g id="edge23" class="edge">
<title>generic_file&#45;&gt;participant</title>
<path fill="none" stroke="#000000" d="M1706.9203,-272.6952C1624.4171,-263.1301 1483.8611,-242.5438 1444.5404,-210 1418.9139,-188.7903 1441.1534,-162.2259 1415.5404,-141 1400.243,-128.3228 1355.3765,-119.0912 1315.8558,-113.1519"/>
<polygon fill="#000000" stroke="#000000" points="1316.3438,-109.6861 1305.9446,-111.7128 1315.3378,-116.6135 1316.3438,-109.6861"/>
<text text-anchor="middle" x="1497.5404" y="-188.3" font-family="Times,serif" font-size="14.00" fill="#000000">of_generic_file</text>
</g>
<!-- survival -->
<g id="node22" class="node">
<title>survival</title>
<ellipse fill="none" stroke="#000000" cx="1785.5404" cy="-192" rx="48.1917" ry="18"/>
<text text-anchor="middle" x="1785.5404" y="-188.3" font-family="Times,serif" font-size="14.00" fill="#000000">survival</text>
</g>
<!-- survival&#45;&gt;participant -->
<g id="edge30" class="edge">
<title>survival&#45;&gt;participant</title>
<path fill="none" stroke="#000000" d="M1753.7204,-178.3413C1724.5731,-166.4474 1679.9465,-149.7738 1639.5404,-141 1624.0936,-137.6459 1426.1919,-120.3336 1317.6537,-110.9927"/>
<polygon fill="#000000" stroke="#000000" points="1317.7012,-107.484 1307.4381,-110.1144 1317.1015,-114.4583 1317.7012,-107.484"/>
<text text-anchor="middle" x="1733.0404" y="-144.8" font-family="Times,serif" font-size="14.00" fill="#000000">of_survival</text>
</g>
<!-- study_funding -->
<g id="node23" class="node">
<title>study_funding</title>
<ellipse fill="none" stroke="#000000" cx="2357.5404" cy="-105" rx="77.1866" ry="18"/>
<text text-anchor="middle" x="2357.5404" y="-101.3" font-family="Times,serif" font-size="14.00" fill="#000000">study_funding</text>
</g>
<!-- study_funding&#45;&gt;study -->
<g id="edge20" class="edge">
<title>study_funding&#45;&gt;study</title>
<path fill="none" stroke="#000000" d="M2311.1903,-90.4723C2270.9879,-78.5269 2211.0131,-62.2691 2157.5404,-54 2045.3039,-36.6437 1701.2651,-23.7571 1575.344,-19.5094"/>
<polygon fill="#000000" stroke="#000000" points="1575.3627,-16.0082 1565.2512,-19.1717 1575.1286,-23.0043 1575.3627,-16.0082"/>
<text text-anchor="middle" x="2292.5404" y="-57.8" font-family="Times,serif" font-size="14.00" fill="#000000">of_study_funding</text>
</g>
<!-- radiology_file -->
<g id="node24" class="node">
<title>radiology_file</title>
<ellipse fill="none" stroke="#000000" cx="308.5404" cy="-192" rx="73.387" ry="18"/>
<text text-anchor="middle" x="308.5404" y="-188.3" font-family="Times,serif" font-size="14.00" fill="#000000">radiology_file</text>
</g>
<!-- radiology_file&#45;&gt;participant -->
<g id="edge18" class="edge">
<title>radiology_file&#45;&gt;participant</title>
<path fill="none" stroke="#000000" d="M339.9611,-175.6199C367.404,-161.4506 404.0029,-142.9358 411.5404,-141 448.1723,-131.5918 978.5417,-113.6639 1175.024,-107.3062"/>
<polygon fill="#000000" stroke="#000000" points="1175.3636,-110.7972 1185.2454,-106.9762 1175.1376,-103.8008 1175.3636,-110.7972"/>
<text text-anchor="middle" x="470.5404" y="-144.8" font-family="Times,serif" font-size="14.00" fill="#000000">of_radiology_file</text>
</g>
<!-- synonym -->
<g id="node25" class="node">
<title>synonym</title>
<ellipse fill="none" stroke="#000000" cx="2757.5404" cy="-279" rx="51.9908" ry="18"/>
<text text-anchor="middle" x="2757.5404" y="-275.3" font-family="Times,serif" font-size="14.00" fill="#000000">synonym</text>
</g>
<!-- synonym&#45;&gt;sample -->
<g id="edge34" class="edge">
<title>synonym&#45;&gt;sample</title>
<path fill="none" stroke="#000000" d="M2718.1272,-266.9832C2699.6245,-260.7621 2677.5184,-252.4816 2658.5404,-243 2647.6231,-237.5456 2647.0886,-231.9467 2635.5404,-228 2564.7199,-203.7966 2347.5133,-195.6232 2245.0796,-193.0682"/>
<polygon fill="#000000" stroke="#000000" points="2245.0238,-189.5659 2234.9426,-192.8244 2244.8555,-196.5639 2245.0238,-189.5659"/>
<text text-anchor="middle" x="2701.0404" y="-231.8" font-family="Times,serif" font-size="14.00" fill="#000000">of_synonym</text>
</g>
<!-- synonym&#45;&gt;study -->
<g id="edge33" class="edge">
<title>synonym&#45;&gt;study</title>
<path fill="none" stroke="#000000" d="M2777.3079,-262.2827C2800.5294,-240.6153 2833.2937,-202.2661 2811.5404,-174 2684.514,-8.9429 2564.4433,-85.3613 2358.5404,-54 2205.8916,-30.7499 1727.9847,-21.2086 1575.6742,-18.7087"/>
<polygon fill="#000000" stroke="#000000" points="1575.3347,-15.2028 1565.2794,-18.5407 1575.2216,-22.2019 1575.3347,-15.2028"/>
<text text-anchor="middle" x="2836.0404" y="-144.8" font-family="Times,serif" font-size="14.00" fill="#000000">of_synonym</text>
</g>
<!-- synonym&#45;&gt;participant -->
<g id="edge35" class="edge">
<title>synonym&#45;&gt;participant</title>
<path fill="none" stroke="#000000" d="M2756.9055,-260.722C2755.5716,-249.8547 2752.1175,-236.5629 2743.5404,-228 2639.5407,-124.1727 2570.0078,-161.8633 2424.5404,-141 2212.2311,-110.55 1673.7358,-134.0788 1459.5404,-123 1411.6597,-120.5235 1357.8329,-115.931 1316.3984,-112.0048"/>
<polygon fill="#000000" stroke="#000000" points="1316.7004,-108.5178 1306.4123,-111.0488 1316.0332,-115.486 1316.7004,-108.5178"/>
<text text-anchor="middle" x="2765.0404" y="-188.3" font-family="Times,serif" font-size="14.00" fill="#000000">of_synonym</text>
</g>
<!-- family_relationship -->
<g id="node26" class="node">
<title>family_relationship</title>
<ellipse fill="none" stroke="#000000" cx="500.5404" cy="-192" rx="100.1823" ry="18"/>
<text text-anchor="middle" x="500.5404" y="-188.3" font-family="Times,serif" font-size="14.00" fill="#000000">family_relationship</text>
</g>
<!-- family_relationship&#45;&gt;participant -->
<g id="edge9" class="edge">
<title>family_relationship&#45;&gt;participant</title>
<path fill="none" stroke="#000000" d="M514.2736,-173.9408C524.2982,-162.2687 538.9874,-147.9951 555.5404,-141 583.7071,-129.097 1003.7406,-113.3896 1175.3339,-107.4317"/>
<polygon fill="#000000" stroke="#000000" points="1175.6606,-110.9226 1185.5336,-107.0789 1175.4185,-103.9268 1175.6606,-110.9226"/>
<text text-anchor="middle" x="635.0404" y="-144.8" font-family="Times,serif" font-size="14.00" fill="#000000">of_family_relationship</text>
</g>
</g>
</svg>
