<svg width="3489pt" height="305pt"
 viewBox="0.00 0.00 3488.74 305.00" xmlns="http://www.w3.org/2000/svg" xmlns:xlink="http://www.w3.org/1999/xlink">
<g id="graph0" class="graph" transform="scale(1 1) rotate(0) translate(4 301)">
<title>Perl</title>
<polygon fill="#ffffff" stroke="transparent" points="-4,4 -4,-301 3484.7364,-301 3484.7364,4 -4,4"/>
<!-- study_personnel -->
<g id="node1" class="node">
<title>study_personnel</title>
<ellipse fill="none" stroke="#000000" cx="404.692" cy="-105" rx="87.1846" ry="18"/>
<text text-anchor="middle" x="404.692" y="-101.3" font-family="Times,serif" font-size="14.00" fill="#000000">study_personnel</text>
</g>
<!-- study -->
<g id="node19" class="node">
<title>study</title>
<ellipse fill="none" stroke="#000000" cx="1157.692" cy="-18" rx="36.2938" ry="18"/>
<text text-anchor="middle" x="1157.692" y="-14.3" font-family="Times,serif" font-size="14.00" fill="#000000">study</text>
</g>
<!-- study_personnel&#45;&gt;study -->
<g id="edge10" class="edge">
<title>study_personnel&#45;&gt;study</title>
<path fill="none" stroke="#000000" d="M415.5306,-86.9863C423.6259,-75.3345 435.832,-61.0665 450.692,-54 509.9679,-25.8121 962.6231,-19.5999 1110.8594,-18.3156"/>
<polygon fill="#000000" stroke="#000000" points="1111.0262,-21.8144 1120.9967,-18.2314 1110.968,-14.8147 1111.0262,-21.8144"/>
<text text-anchor="middle" x="520.192" y="-57.8" font-family="Times,serif" font-size="14.00" fill="#000000">of_study_personnel</text>
</g>
<!-- cytogenomic_file -->
<g id="node2" class="node">
<title>cytogenomic_file</title>
<ellipse fill="none" stroke="#000000" cx="89.692" cy="-279" rx="89.8845" ry="18"/>
<text text-anchor="middle" x="89.692" y="-275.3" font-family="Times,serif" font-size="14.00" fill="#000000">cytogenomic_file</text>
</g>
<!-- sample -->
<g id="node20" class="node">
<title>sample</title>
<ellipse fill="none" stroke="#000000" cx="890.692" cy="-192" rx="44.393" ry="18"/>
<text text-anchor="middle" x="890.692" y="-188.3" font-family="Times,serif" font-size="14.00" fill="#000000">sample</text>
</g>
<!-- cytogenomic_file&#45;&gt;sample -->
<g id="edge31" class="edge">
<title>cytogenomic_file&#45;&gt;sample</title>
<path fill="none" stroke="#000000" d="M114.0097,-261.6579C132.0366,-249.8328 157.7121,-235.0805 182.692,-228 244.8359,-210.3854 681.1494,-197.4517 836.1872,-193.3668"/>
<polygon fill="#000000" stroke="#000000" points="836.5156,-196.8595 846.4207,-193.0993 836.3326,-189.8619 836.5156,-196.8595"/>
<text text-anchor="middle" x="254.192" y="-231.8" font-family="Times,serif" font-size="14.00" fill="#000000">of_cytogenomic_file</text>
</g>
<!-- molecular_test -->
<g id="node3" class="node">
<title>molecular_test</title>
<ellipse fill="none" stroke="#000000" cx="1626.692" cy="-192" rx="79.8859" ry="18"/>
<text text-anchor="middle" x="1626.692" y="-188.3" font-family="Times,serif" font-size="14.00" fill="#000000">molecular_test</text>
</g>
<!-- participant -->
<g id="node15" class="node">
<title>participant</title>
<ellipse fill="none" stroke="#000000" cx="1971.692" cy="-105" rx="62.2891" ry="18"/>
<text text-anchor="middle" x="1971.692" y="-101.3" font-family="Times,serif" font-size="14.00" fill="#000000">participant</text>
</g>
<!-- molecular_test&#45;&gt;participant -->
<g id="edge21" class="edge">
<title>molecular_test&#45;&gt;participant</title>
<path fill="none" stroke="#000000" d="M1628.2986,-173.8691C1630.2985,-162.6291 1634.761,-148.8772 1644.692,-141 1664.2693,-125.4715 1809.8966,-114.3502 1900.0855,-108.8673"/>
<polygon fill="#000000" stroke="#000000" points="1900.4827,-112.3499 1910.2556,-108.2586 1900.0644,-105.3624 1900.4827,-112.3499"/>
<text text-anchor="middle" x="1708.692" y="-144.8" font-family="Times,serif" font-size="14.00" fill="#000000">of_molecular_test</text>
</g>
<!-- treatment -->
<g id="node4" class="node">
<title>treatment</title>
<ellipse fill="none" stroke="#000000" cx="1782.692" cy="-192" rx="57.6901" ry="18"/>
<text text-anchor="middle" x="1782.692" y="-188.3" font-family="Times,serif" font-size="14.00" fill="#000000">treatment</text>
</g>
<!-- treatment&#45;&gt;participant -->
<g id="edge11" class="edge">
<title>treatment&#45;&gt;participant</title>
<path fill="none" stroke="#000000" d="M1776.9669,-174.0314C1774.734,-163.2805 1774.2351,-150.0025 1781.692,-141 1796.756,-122.8138 1852.6392,-113.7439 1899.9306,-109.2629"/>
<polygon fill="#000000" stroke="#000000" points="1900.5327,-112.7232 1910.1823,-108.3489 1899.911,-105.7509 1900.5327,-112.7232"/>
<text text-anchor="middle" x="1828.692" y="-144.8" font-family="Times,serif" font-size="14.00" fill="#000000">of_treatment</text>
</g>
<!-- study_arm -->
<g id="node5" class="node">
<title>study_arm</title>
<ellipse fill="none" stroke="#000000" cx="569.692" cy="-105" rx="59.5901" ry="18"/>
<text text-anchor="middle" x="569.692" y="-101.3" font-family="Times,serif" font-size="14.00" fill="#000000">study_arm</text>
</g>
<!-- study_arm&#45;&gt;study -->
<g id="edge25" class="edge">
<title>study_arm&#45;&gt;study</title>
<path fill="none" stroke="#000000" d="M579.2586,-87.0861C586.503,-75.4787 597.6073,-61.223 611.692,-54 655.5323,-31.5176 986.8734,-21.8322 1110.9641,-18.9673"/>
<polygon fill="#000000" stroke="#000000" points="1111.3556,-22.4595 1121.2739,-18.7341 1111.1972,-15.4612 1111.3556,-22.4595"/>
<text text-anchor="middle" x="660.192" y="-57.8" font-family="Times,serif" font-size="14.00" fill="#000000">of_study_arm</text>
</g>
<!-- study_funding -->
<g id="node6" class="node">
<title>study_funding</title>
<ellipse fill="none" stroke="#000000" cx="724.692" cy="-105" rx="77.1866" ry="18"/>
<text text-anchor="middle" x="724.692" y="-101.3" font-family="Times,serif" font-size="14.00" fill="#000000">study_funding</text>
</g>
<!-- study_funding&#45;&gt;study -->
<g id="edge8" class="edge">
<title>study_funding&#45;&gt;study</title>
<path fill="none" stroke="#000000" d="M715.7291,-86.8011C711.8085,-75.9635 709.6976,-62.6752 717.692,-54 730.8842,-39.6844 1000.3387,-25.4139 1110.9373,-20.1359"/>
<polygon fill="#000000" stroke="#000000" points="1111.3072,-23.6224 1121.1305,-19.6535 1110.9762,-16.6302 1111.3072,-23.6224"/>
<text text-anchor="middle" x="779.692" y="-57.8" font-family="Times,serif" font-size="14.00" fill="#000000">of_study_funding</text>
</g>
<!-- pathology_file -->
<g id="node7" class="node">
<title>pathology_file</title>
<ellipse fill="none" stroke="#000000" cx="273.692" cy="-279" rx="76.0865" ry="18"/>
<text text-anchor="middle" x="273.692" y="-275.3" font-family="Times,serif" font-size="14.00" fill="#000000">pathology_file</text>
</g>
<!-- pathology_file&#45;&gt;sample -->
<g id="edge32" class="edge">
<title>pathology_file&#45;&gt;sample</title>
<path fill="none" stroke="#000000" d="M296.8879,-261.7796C314.1027,-250.0134 338.6611,-235.2816 362.692,-228 450.0745,-201.5222 720.0288,-194.4585 836.3971,-192.6234"/>
<polygon fill="#000000" stroke="#000000" points="836.5584,-196.1215 846.5045,-192.4711 836.4529,-189.1223 836.5584,-196.1215"/>
<text text-anchor="middle" x="423.692" y="-231.8" font-family="Times,serif" font-size="14.00" fill="#000000">of_pathology_file</text>
</g>
<!-- cell_line -->
<g id="node8" class="node">
<title>cell_line</title>
<ellipse fill="none" stroke="#000000" cx="690.692" cy="-279" rx="49.2915" ry="18"/>
<text text-anchor="middle" x="690.692" y="-275.3" font-family="Times,serif" font-size="14.00" fill="#000000">cell_line</text>
</g>
<!-- cell_line&#45;&gt;study -->
<g id="edge20" class="edge">
<title>cell_line&#45;&gt;study</title>
<path fill="none" stroke="#000000" d="M682.3161,-261.2121C678.7741,-251.0329 676.5241,-238.2829 681.692,-228 710.7909,-170.1004 742.5259,-173.3183 798.692,-141 904.1457,-80.3214 1044.2683,-43.1808 1114.1686,-27.1941"/>
<polygon fill="#000000" stroke="#000000" points="1114.9733,-30.6006 1123.9598,-24.9886 1113.435,-23.7717 1114.9733,-30.6006"/>
<text text-anchor="middle" x="839.192" y="-144.8" font-family="Times,serif" font-size="14.00" fill="#000000">of_cell_line</text>
</g>
<!-- cell_line&#45;&gt;sample -->
<g id="edge19" class="edge">
<title>cell_line&#45;&gt;sample</title>
<path fill="none" stroke="#000000" d="M685.8322,-260.9576C684.0814,-250.1789 684.1103,-236.8976 691.692,-228 709.998,-206.5169 783.8051,-197.8186 836.1774,-194.3201"/>
<polygon fill="#000000" stroke="#000000" points="836.58,-197.8019 846.3433,-193.6875 836.1452,-190.8154 836.58,-197.8019"/>
<text text-anchor="middle" x="732.192" y="-231.8" font-family="Times,serif" font-size="14.00" fill="#000000">of_cell_line</text>
</g>
<!-- sequencing_file -->
<g id="node9" class="node">
<title>sequencing_file</title>
<ellipse fill="none" stroke="#000000" cx="890.692" cy="-279" rx="83.3857" ry="18"/>
<text text-anchor="middle" x="890.692" y="-275.3" font-family="Times,serif" font-size="14.00" fill="#000000">sequencing_file</text>
</g>
<!-- sequencing_file&#45;&gt;sample -->
<g id="edge12" class="edge">
<title>sequencing_file&#45;&gt;sample</title>
<path fill="none" stroke="#000000" d="M890.692,-260.9735C890.692,-249.1918 890.692,-233.5607 890.692,-220.1581"/>
<polygon fill="#000000" stroke="#000000" points="894.1921,-220.0033 890.692,-210.0034 887.1921,-220.0034 894.1921,-220.0033"/>
<text text-anchor="middle" x="957.192" y="-231.8" font-family="Times,serif" font-size="14.00" fill="#000000">of_sequencing_file</text>
</g>
<!-- clinical_measure_file -->
<g id="node10" class="node">
<title>clinical_measure_file</title>
<ellipse fill="none" stroke="#000000" cx="1420.692" cy="-192" rx="108.5808" ry="18"/>
<text text-anchor="middle" x="1420.692" y="-188.3" font-family="Times,serif" font-size="14.00" fill="#000000">clinical_measure_file</text>
</g>
<!-- clinical_measure_file&#45;&gt;participant -->
<g id="edge6" class="edge">
<title>clinical_measure_file&#45;&gt;participant</title>
<path fill="none" stroke="#000000" d="M1428.7493,-173.8982C1434.9126,-162.3655 1444.5877,-148.2707 1457.692,-141 1476.6794,-130.4652 1762.6218,-115.1981 1899.5918,-108.44"/>
<polygon fill="#000000" stroke="#000000" points="1900.17,-111.9159 1909.9862,-107.9294 1899.8265,-104.9244 1900.17,-111.9159"/>
<text text-anchor="middle" x="1543.692" y="-144.8" font-family="Times,serif" font-size="14.00" fill="#000000">of_clinical_measure_file</text>
</g>
<!-- clinical_measure_file&#45;&gt;study -->
<g id="edge5" class="edge">
<title>clinical_measure_file&#45;&gt;study</title>
<path fill="none" stroke="#000000" d="M1402.8369,-174.0128C1392.2186,-163.7671 1378.2186,-151.0171 1364.692,-141 1307.3809,-98.5583 1234.5281,-58.0602 1192.2985,-35.763"/>
<polygon fill="#000000" stroke="#000000" points="1193.744,-32.5689 1183.2625,-31.0233 1190.4924,-38.7679 1193.744,-32.5689"/>
<text text-anchor="middle" x="1424.692" y="-101.3" font-family="Times,serif" font-size="14.00" fill="#000000">of_clinical_measure_file</text>
</g>
<!-- generic_file -->
<g id="node11" class="node">
<title>generic_file</title>
<ellipse fill="none" stroke="#000000" cx="1279.692" cy="-279" rx="65.7887" ry="18"/>
<text text-anchor="middle" x="1279.692" y="-275.3" font-family="Times,serif" font-size="14.00" fill="#000000">generic_file</text>
</g>
<!-- generic_file&#45;&gt;participant -->
<g id="edge30" class="edge">
<title>generic_file&#45;&gt;participant</title>
<path fill="none" stroke="#000000" d="M1344.9709,-276.4277C1475.1278,-270.4395 1761.967,-252.6938 1849.692,-210 1870.0379,-200.0982 1868.8424,-189.1026 1885.692,-174 1903.4142,-158.1153 1924.2067,-141.3851 1940.9074,-128.3773"/>
<polygon fill="#000000" stroke="#000000" points="1943.4622,-130.8259 1949.2298,-121.9385 1939.1788,-125.2894 1943.4622,-130.8259"/>
<text text-anchor="middle" x="1938.692" y="-188.3" font-family="Times,serif" font-size="14.00" fill="#000000">of_generic_file</text>
</g>
<!-- generic_file&#45;&gt;study -->
<g id="edge28" class="edge">
<title>generic_file&#45;&gt;study</title>
<path fill="none" stroke="#000000" d="M1279.0207,-260.7583C1277.6732,-249.9046 1274.2174,-236.6144 1265.692,-228 1245.208,-207.3021 1227.3455,-225.4986 1202.692,-210 1175.5068,-192.9098 1166.1036,-186.0148 1154.692,-156 1141.0237,-120.0494 1145.6729,-74.9353 1151.0441,-46.2781"/>
<polygon fill="#000000" stroke="#000000" points="1154.5398,-46.6508 1153.1013,-36.1541 1147.68,-45.2568 1154.5398,-46.6508"/>
<text text-anchor="middle" x="1207.692" y="-144.8" font-family="Times,serif" font-size="14.00" fill="#000000">of_generic_file</text>
</g>
<!-- generic_file&#45;&gt;sample -->
<g id="edge29" class="edge">
<title>generic_file&#45;&gt;sample</title>
<path fill="none" stroke="#000000" d="M1229.4739,-267.3804C1207.518,-261.4317 1181.7873,-253.2588 1159.692,-243 1148.6229,-237.8606 1148.1068,-232.3175 1136.692,-228 1102.4398,-215.0445 1005.5168,-203.4473 944.051,-197.0996"/>
<polygon fill="#000000" stroke="#000000" points="944.0616,-193.5827 933.7584,-196.0514 943.3523,-200.5467 944.0616,-193.5827"/>
<text text-anchor="middle" x="1212.692" y="-231.8" font-family="Times,serif" font-size="14.00" fill="#000000">of_generic_file</text>
</g>
<!-- methylation_array_file -->
<g id="node12" class="node">
<title>methylation_array_file</title>
<ellipse fill="none" stroke="#000000" cx="483.692" cy="-279" rx="115.8798" ry="18"/>
<text text-anchor="middle" x="483.692" y="-275.3" font-family="Times,serif" font-size="14.00" fill="#000000">methylation_array_file</text>
</g>
<!-- methylation_array_file&#45;&gt;sample -->
<g id="edge7" class="edge">
<title>methylation_array_file&#45;&gt;sample</title>
<path fill="none" stroke="#000000" d="M484.1274,-260.8932C485.4231,-249.6631 489.0682,-235.9132 498.692,-228 524.2098,-207.018 734.8133,-197.1941 836.3506,-193.6427"/>
<polygon fill="#000000" stroke="#000000" points="836.5396,-197.1384 846.4142,-193.2988 836.3004,-190.1425 836.5396,-197.1384"/>
<text text-anchor="middle" x="590.192" y="-231.8" font-family="Times,serif" font-size="14.00" fill="#000000">of_methylation_array_file</text>
</g>
<!-- diagnosis -->
<g id="node13" class="node">
<title>diagnosis</title>
<ellipse fill="none" stroke="#000000" cx="1094.692" cy="-279" rx="54.6905" ry="18"/>
<text text-anchor="middle" x="1094.692" y="-275.3" font-family="Times,serif" font-size="14.00" fill="#000000">diagnosis</text>
</g>
<!-- diagnosis&#45;&gt;participant -->
<g id="edge1" class="edge">
<title>diagnosis&#45;&gt;participant</title>
<path fill="none" stroke="#000000" d="M1143.3199,-270.5485C1193.6855,-261.5624 1265.6374,-247.9736 1269.692,-243 1295.8009,-210.9735 1235.063,-239.3171 1213.692,-210 1204.267,-197.0706 1203.0881,-185.9815 1213.692,-174 1235.5034,-149.355 1328.1868,-161.1496 1360.692,-156 1395.1281,-150.5445 1403.1201,-145.5147 1437.692,-141 1601.8169,-119.567 1796.0873,-110.531 1899.0852,-107.017"/>
<polygon fill="#000000" stroke="#000000" points="1899.4914,-110.5055 1909.3692,-106.6742 1899.2581,-103.5094 1899.4914,-110.5055"/>
<text text-anchor="middle" x="1258.192" y="-188.3" font-family="Times,serif" font-size="14.00" fill="#000000">of_diagnosis</text>
</g>
<!-- diagnosis&#45;&gt;sample -->
<g id="edge2" class="edge">
<title>diagnosis&#45;&gt;sample</title>
<path fill="none" stroke="#000000" d="M1072.6967,-262.3521C1054.1852,-248.4459 1029.9146,-230.4974 1024.692,-228 998.5043,-215.4771 967.2795,-206.767 941.5623,-201.055"/>
<polygon fill="#000000" stroke="#000000" points="942.147,-197.601 931.6367,-198.9368 940.686,-204.4469 942.147,-197.601"/>
<text text-anchor="middle" x="1090.192" y="-231.8" font-family="Times,serif" font-size="14.00" fill="#000000">of_diagnosis</text>
</g>
<!-- exposure -->
<g id="node14" class="node">
<title>exposure</title>
<ellipse fill="none" stroke="#000000" cx="2053.692" cy="-192" rx="53.0913" ry="18"/>
<text text-anchor="middle" x="2053.692" y="-188.3" font-family="Times,serif" font-size="14.00" fill="#000000">exposure</text>
</g>
<!-- exposure&#45;&gt;participant -->
<g id="edge18" class="edge">
<title>exposure&#45;&gt;participant</title>
<path fill="none" stroke="#000000" d="M2037.4915,-174.8116C2025.4407,-162.026 2008.8115,-144.3829 1995.2858,-130.0324"/>
<polygon fill="#000000" stroke="#000000" points="1997.5455,-127.327 1988.1396,-122.4505 1992.4515,-132.1282 1997.5455,-127.327"/>
<text text-anchor="middle" x="2061.192" y="-144.8" font-family="Times,serif" font-size="14.00" fill="#000000">of_exposure</text>
</g>
<!-- participant&#45;&gt;study -->
<g id="edge3" class="edge">
<title>participant&#45;&gt;study</title>
<path fill="none" stroke="#000000" d="M1913.1512,-98.7432C1758.7816,-82.2442 1342.9784,-37.8033 1203.7972,-22.9277"/>
<polygon fill="#000000" stroke="#000000" points="1203.8074,-19.4089 1193.4921,-21.8263 1203.0635,-26.3693 1203.8074,-19.4089"/>
<text text-anchor="middle" x="1664.192" y="-57.8" font-family="Times,serif" font-size="14.00" fill="#000000">of_participant</text>
</g>
<!-- study_admin -->
<g id="node16" class="node">
<title>study_admin</title>
<ellipse fill="none" stroke="#000000" cx="3266.692" cy="-105" rx="70.3881" ry="18"/>
<text text-anchor="middle" x="3266.692" y="-101.3" font-family="Times,serif" font-size="14.00" fill="#000000">study_admin</text>
</g>
<!-- study_admin&#45;&gt;study -->
<g id="edge26" class="edge">
<title>study_admin&#45;&gt;study</title>
<path fill="none" stroke="#000000" d="M3245.3995,-87.6736C3229.263,-75.69 3205.9633,-60.735 3182.692,-54 3084.687,-25.6361 1499.4226,-19.111 1204.6643,-18.1408"/>
<polygon fill="#000000" stroke="#000000" points="1204.3443,-14.6398 1194.333,-18.1073 1204.3216,-21.6398 1204.3443,-14.6398"/>
<text text-anchor="middle" x="3271.192" y="-57.8" font-family="Times,serif" font-size="14.00" fill="#000000">of_study_admin</text>
</g>
<!-- publication -->
<g id="node17" class="node">
<title>publication</title>
<ellipse fill="none" stroke="#000000" cx="3417.692" cy="-105" rx="63.0888" ry="18"/>
<text text-anchor="middle" x="3417.692" y="-101.3" font-family="Times,serif" font-size="14.00" fill="#000000">publication</text>
</g>
<!-- publication&#45;&gt;study -->
<g id="edge17" class="edge">
<title>publication&#45;&gt;study</title>
<path fill="none" stroke="#000000" d="M3396.1765,-87.9146C3379.6113,-75.8833 3355.5758,-60.7624 3331.692,-54 3225.9145,-24.0504 1511.9632,-18.7969 1204.6724,-18.0944"/>
<polygon fill="#000000" stroke="#000000" points="1204.3473,-14.5937 1194.3394,-18.0713 1204.3316,-21.5937 1204.3473,-14.5937"/>
<text text-anchor="middle" x="3414.692" y="-57.8" font-family="Times,serif" font-size="14.00" fill="#000000">of_publication</text>
</g>
<!-- family_relationship -->
<g id="node18" class="node">
<title>family_relationship</title>
<ellipse fill="none" stroke="#000000" cx="2224.692" cy="-192" rx="100.1823" ry="18"/>
<text text-anchor="middle" x="2224.692" y="-188.3" font-family="Times,serif" font-size="14.00" fill="#000000">family_relationship</text>
</g>
<!-- family_relationship&#45;&gt;participant -->
<g id="edge27" class="edge">
<title>family_relationship&#45;&gt;participant</title>
<path fill="none" stroke="#000000" d="M2189.986,-175.0257C2167.2319,-164.3275 2136.6306,-150.7445 2108.692,-141 2083.6916,-132.2803 2055.4876,-124.5274 2031.1967,-118.4705"/>
<polygon fill="#000000" stroke="#000000" points="2031.944,-115.0501 2021.3979,-116.0654 2030.2754,-121.8483 2031.944,-115.0501"/>
<text text-anchor="middle" x="2224.192" y="-144.8" font-family="Times,serif" font-size="14.00" fill="#000000">of_family_relationship</text>
</g>
<!-- sample&#45;&gt;cell_line -->
<g id="edge22" class="edge">
<title>sample&#45;&gt;cell_line</title>
<path fill="none" stroke="#000000" d="M860.2773,-205.2304C826.0655,-220.1126 770.3054,-244.3682 732.1288,-260.975"/>
<polygon fill="#000000" stroke="#000000" points="730.5993,-257.8235 722.8255,-265.0219 733.3916,-264.2424 730.5993,-257.8235"/>
<text text-anchor="middle" x="839.192" y="-231.8" font-family="Times,serif" font-size="14.00" fill="#000000">of_sample</text>
</g>
<!-- sample&#45;&gt;participant -->
<g id="edge24" class="edge">
<title>sample&#45;&gt;participant</title>
<path fill="none" stroke="#000000" d="M935.0386,-190.3826C1020.512,-186.8316 1204.899,-176.9448 1264.692,-156 1276.2099,-151.9654 1276.0894,-144.7838 1287.692,-141 1302.0934,-136.3035 1727.1224,-116.2663 1899.8065,-108.2925"/>
<polygon fill="#000000" stroke="#000000" points="1899.9926,-111.7877 1909.8206,-107.8305 1899.6699,-104.7951 1899.9926,-111.7877"/>
<text text-anchor="middle" x="1324.192" y="-144.8" font-family="Times,serif" font-size="14.00" fill="#000000">of_sample</text>
</g>
<!-- pdx -->
<g id="node23" class="node">
<title>pdx</title>
<ellipse fill="none" stroke="#000000" cx="961.692" cy="-105" rx="27.8951" ry="18"/>
<text text-anchor="middle" x="961.692" y="-101.3" font-family="Times,serif" font-size="14.00" fill="#000000">pdx</text>
</g>
<!-- sample&#45;&gt;pdx -->
<g id="edge23" class="edge">
<title>sample&#45;&gt;pdx</title>
<path fill="none" stroke="#000000" d="M916.0328,-177.2139C924.3819,-171.4134 933.1843,-164.177 939.692,-156 945.2418,-149.0268 949.6517,-140.4413 953.0216,-132.3166"/>
<polygon fill="#000000" stroke="#000000" points="956.3665,-133.3658 956.6229,-122.7741 949.8174,-130.8941 956.3665,-133.3658"/>
<text text-anchor="middle" x="985.192" y="-144.8" font-family="Times,serif" font-size="14.00" fill="#000000">of_sample</text>
</g>
<!-- synonym -->
<g id="node21" class="node">
<title>synonym</title>
<ellipse fill="none" stroke="#000000" cx="2474.692" cy="-279" rx="51.9908" ry="18"/>
<text text-anchor="middle" x="2474.692" y="-275.3" font-family="Times,serif" font-size="14.00" fill="#000000">synonym</text>
</g>
<!-- synonym&#45;&gt;participant -->
<g id="edge14" class="edge">
<title>synonym&#45;&gt;participant</title>
<path fill="none" stroke="#000000" d="M2474.6129,-260.8715C2473.3353,-229.0648 2465.3576,-164.367 2422.692,-141 2390.3511,-123.2876 2162.8037,-112.1904 2043.8198,-107.5336"/>
<polygon fill="#000000" stroke="#000000" points="2043.828,-104.0314 2033.7003,-107.1429 2043.5578,-111.0262 2043.828,-104.0314"/>
<text text-anchor="middle" x="2510.192" y="-188.3" font-family="Times,serif" font-size="14.00" fill="#000000">of_synonym</text>
</g>
<!-- synonym&#45;&gt;study -->
<g id="edge15" class="edge">
<title>synonym&#45;&gt;study</title>
<path fill="none" stroke="#000000" d="M2526.6057,-277.6123C2677.5213,-273.0475 3108.0968,-256.064 3149.692,-210 3160.4151,-198.125 3157.2744,-188.0893 3149.692,-174 3137.0741,-150.5538 3124.9384,-149.4593 3099.692,-141 2914.681,-79.0084 1481.9748,-28.7315 1204.2376,-19.5131"/>
<polygon fill="#000000" stroke="#000000" points="1204.2119,-16.0104 1194.1017,-19.1779 1203.9805,-23.0066 1204.2119,-16.0104"/>
<text text-anchor="middle" x="3177.192" y="-144.8" font-family="Times,serif" font-size="14.00" fill="#000000">of_synonym</text>
</g>
<!-- synonym&#45;&gt;sample -->
<g id="edge13" class="edge">
<title>synonym&#45;&gt;sample</title>
<path fill="none" stroke="#000000" d="M2422.9889,-276.3916C2248.4259,-267.5521 1664.8392,-237.7349 1182.692,-210 1099.6987,-205.2259 1003.4692,-199.1987 944.8532,-195.4721"/>
<polygon fill="#000000" stroke="#000000" points="944.9151,-191.9691 934.7129,-194.8265 944.4703,-198.9549 944.9151,-191.9691"/>
<text text-anchor="middle" x="1793.192" y="-231.8" font-family="Times,serif" font-size="14.00" fill="#000000">of_synonym</text>
</g>
<!-- survival -->
<g id="node22" class="node">
<title>survival</title>
<ellipse fill="none" stroke="#000000" cx="2390.692" cy="-192" rx="48.1917" ry="18"/>
<text text-anchor="middle" x="2390.692" y="-188.3" font-family="Times,serif" font-size="14.00" fill="#000000">survival</text>
</g>
<!-- survival&#45;&gt;participant -->
<g id="edge16" class="edge">
<title>survival&#45;&gt;participant</title>
<path fill="none" stroke="#000000" d="M2369.8326,-175.5275C2353.797,-163.8089 2330.581,-148.8109 2307.692,-141 2260.3881,-124.8575 2127.2001,-114.2551 2043.4131,-108.9693"/>
<polygon fill="#000000" stroke="#000000" points="2043.3942,-105.4615 2033.1967,-108.3356 2042.9608,-112.4481 2043.3942,-105.4615"/>
<text text-anchor="middle" x="2379.192" y="-144.8" font-family="Times,serif" font-size="14.00" fill="#000000">of_survival</text>
</g>
<!-- pdx&#45;&gt;study -->
<g id="edge35" class="edge">
<title>pdx&#45;&gt;study</title>
<path fill="none" stroke="#000000" d="M984.9455,-94.6783C1018.5763,-79.7504 1081.1213,-51.988 1121.0101,-34.2823"/>
<polygon fill="#000000" stroke="#000000" points="1122.6659,-37.3767 1130.3859,-30.1206 1119.8259,-30.9787 1122.6659,-37.3767"/>
<text text-anchor="middle" x="1095.692" y="-57.8" font-family="Times,serif" font-size="14.00" fill="#000000">of_pdx</text>
</g>
<!-- pdx&#45;&gt;sample -->
<g id="edge34" class="edge">
<title>pdx&#45;&gt;sample</title>
<path fill="none" stroke="#000000" d="M934.9489,-110.4564C918.2374,-115.3969 897.9967,-124.5275 887.692,-141 883.5056,-147.6922 882.5926,-155.8954 883.183,-163.75"/>
<polygon fill="#000000" stroke="#000000" points="879.7334,-164.3475 884.6763,-173.7186 886.6561,-163.3104 879.7334,-164.3475"/>
<text text-anchor="middle" x="911.692" y="-144.8" font-family="Times,serif" font-size="14.00" fill="#000000">of_pdx</text>
</g>
<!-- treatment_response -->
<g id="node24" class="node">
<title>treatment_response</title>
<ellipse fill="none" stroke="#000000" cx="2682.692" cy="-192" rx="104.7816" ry="18"/>
<text text-anchor="middle" x="2682.692" y="-188.3" font-family="Times,serif" font-size="14.00" fill="#000000">treatment_response</text>
</g>
<!-- treatment_response&#45;&gt;participant -->
<g id="edge9" class="edge">
<title>treatment_response&#45;&gt;participant</title>
<path fill="none" stroke="#000000" d="M2632.6015,-176.0591C2593.7539,-164.3753 2538.3446,-149.1809 2488.692,-141 2405.2324,-127.249 2165.4863,-114.2778 2044.0438,-108.3585"/>
<polygon fill="#000000" stroke="#000000" points="2043.8911,-104.8471 2033.7335,-107.859 2043.5524,-111.8389 2043.8911,-104.8471"/>
<text text-anchor="middle" x="2641.692" y="-144.8" font-family="Times,serif" font-size="14.00" fill="#000000">of_treatment_response</text>
</g>
<!-- radiology_file -->
<g id="node25" class="node">
<title>radiology_file</title>
<ellipse fill="none" stroke="#000000" cx="2878.692" cy="-192" rx="73.387" ry="18"/>
<text text-anchor="middle" x="2878.692" y="-188.3" font-family="Times,serif" font-size="14.00" fill="#000000">radiology_file</text>
</g>
<!-- radiology_file&#45;&gt;participant -->
<g id="edge33" class="edge">
<title>radiology_file&#45;&gt;participant</title>
<path fill="none" stroke="#000000" d="M2842.1777,-176.3602C2812.2748,-164.3455 2768.5509,-148.5677 2728.692,-141 2599.0441,-116.3847 2207.7818,-108.2416 2044.4981,-105.8699"/>
<polygon fill="#000000" stroke="#000000" points="2044.1265,-102.3643 2034.0778,-105.7219 2044.027,-109.3636 2044.1265,-102.3643"/>
<text text-anchor="middle" x="2841.692" y="-144.8" font-family="Times,serif" font-size="14.00" fill="#000000">of_radiology_file</text>
</g>
<!-- medical_history -->
<g id="node26" class="node">
<title>medical_history</title>
<ellipse fill="none" stroke="#000000" cx="3055.692" cy="-192" rx="85.2851" ry="18"/>
<text text-anchor="middle" x="3055.692" y="-188.3" font-family="Times,serif" font-size="14.00" fill="#000000">medical_history</text>
</g>
<!-- medical_history&#45;&gt;participant -->
<g id="edge4" class="edge">
<title>medical_history&#45;&gt;participant</title>
<path fill="none" stroke="#000000" d="M3017.7097,-175.773C2987.6508,-163.7702 2944.2861,-148.2926 2904.692,-141 2821.1132,-125.6061 2248.3734,-111.275 2043.9789,-106.5956"/>
<polygon fill="#000000" stroke="#000000" points="2044.0235,-103.0958 2033.9463,-106.3669 2043.8639,-110.0939 2044.0235,-103.0958"/>
<text text-anchor="middle" x="3027.692" y="-144.8" font-family="Times,serif" font-size="14.00" fill="#000000">of_medical_history</text>
</g>
</g>
</svg>
