<svg width="2245pt" height="305pt"
 viewBox="0.00 0.00 2245.09 305.00" xmlns="http://www.w3.org/2000/svg" xmlns:xlink="http://www.w3.org/1999/xlink">
<g id="graph0" class="graph" transform="scale(1 1) rotate(0) translate(4 301)">
<title>Perl</title>
<polygon fill="#ffffff" stroke="transparent" points="-4,4 -4,-301 2241.0916,-301 2241.0916,4 -4,4"/>
<!-- radiology_file -->
<g id="node1" class="node">
<title>radiology_file</title>
<ellipse fill="none" stroke="#000000" cx="1416.0916" cy="-192" rx="73.387" ry="18"/>
<text text-anchor="middle" x="1416.0916" y="-188.3" font-family="Times,serif" font-size="14.00" fill="#000000">radiology_file</text>
</g>
<!-- participant -->
<g id="node21" class="node">
<title>participant</title>
<ellipse fill="none" stroke="#000000" cx="1116.0916" cy="-105" rx="62.2891" ry="18"/>
<text text-anchor="middle" x="1116.0916" y="-101.3" font-family="Times,serif" font-size="14.00" fill="#000000">participant</text>
</g>
<!-- radiology_file&#45;&gt;participant -->
<g id="edge4" class="edge">
<title>radiology_file&#45;&gt;participant</title>
<path fill="none" stroke="#000000" d="M1394.1347,-174.6367C1378.354,-163.1214 1356.0677,-148.7521 1334.0916,-141 1272.0191,-119.1039 1251.789,-135.1119 1187.0916,-123 1182.0646,-122.0589 1176.8647,-120.9692 1171.6703,-119.8009"/>
<polygon fill="#000000" stroke="#000000" points="1172.2695,-116.3466 1161.7349,-117.4756 1170.6742,-123.1624 1172.2695,-116.3466"/>
<text text-anchor="middle" x="1424.0916" y="-144.8" font-family="Times,serif" font-size="14.00" fill="#000000">of_radiology_file</text>
</g>
<!-- clinical_measure_file -->
<g id="node2" class="node">
<title>clinical_measure_file</title>
<ellipse fill="none" stroke="#000000" cx="128.0916" cy="-192" rx="108.5808" ry="18"/>
<text text-anchor="middle" x="128.0916" y="-188.3" font-family="Times,serif" font-size="14.00" fill="#000000">clinical_measure_file</text>
</g>
<!-- study -->
<g id="node18" class="node">
<title>study</title>
<ellipse fill="none" stroke="#000000" cx="1544.0916" cy="-18" rx="36.2938" ry="18"/>
<text text-anchor="middle" x="1544.0916" y="-14.3" font-family="Times,serif" font-size="14.00" fill="#000000">study</text>
</g>
<!-- clinical_measure_file&#45;&gt;study -->
<g id="edge11" class="edge">
<title>clinical_measure_file&#45;&gt;study</title>
<path fill="none" stroke="#000000" d="M118.1554,-173.8504C113.7121,-163.0314 111.0686,-149.7454 119.0916,-141 214.3603,-37.1539 1261.2112,-20.7607 1497.0768,-18.3796"/>
<polygon fill="#000000" stroke="#000000" points="1497.4056,-21.8767 1507.3711,-18.2795 1497.3375,-14.877 1497.4056,-21.8767"/>
<text text-anchor="middle" x="363.0916" y="-101.3" font-family="Times,serif" font-size="14.00" fill="#000000">of_clinical_measure_file</text>
</g>
<!-- clinical_measure_file&#45;&gt;participant -->
<g id="edge12" class="edge">
<title>clinical_measure_file&#45;&gt;participant</title>
<path fill="none" stroke="#000000" d="M122.7994,-173.5618C120.8859,-162.6341 120.8957,-149.3353 129.0916,-141 145.1035,-124.716 818.3749,-110.597 1043.5775,-106.3222"/>
<polygon fill="#000000" stroke="#000000" points="1043.7076,-109.8205 1053.6396,-106.1321 1043.5753,-102.8217 1043.7076,-109.8205"/>
<text text-anchor="middle" x="215.0916" y="-144.8" font-family="Times,serif" font-size="14.00" fill="#000000">of_clinical_measure_file</text>
</g>
<!-- treatment_response -->
<g id="node3" class="node">
<title>treatment_response</title>
<ellipse fill="none" stroke="#000000" cx="1612.0916" cy="-192" rx="104.7816" ry="18"/>
<text text-anchor="middle" x="1612.0916" y="-188.3" font-family="Times,serif" font-size="14.00" fill="#000000">treatment_response</text>
</g>
<!-- treatment_response&#45;&gt;participant -->
<g id="edge13" class="edge">
<title>treatment_response&#45;&gt;participant</title>
<path fill="none" stroke="#000000" d="M1565.2557,-175.701C1549.4749,-169.876 1531.8707,-163.0098 1516.0916,-156 1502.8304,-150.1087 1501.0821,-144.8515 1487.0916,-141 1358.3093,-105.5474 1319.0817,-143.5034 1187.0916,-123 1181.7512,-122.1704 1176.2272,-121.1202 1170.7276,-119.9454"/>
<polygon fill="#000000" stroke="#000000" points="1171.4263,-116.5151 1160.8998,-117.7171 1169.8783,-123.3418 1171.4263,-116.5151"/>
<text text-anchor="middle" x="1599.0916" y="-144.8" font-family="Times,serif" font-size="14.00" fill="#000000">of_treatment_response</text>
</g>
<!-- survival -->
<g id="node4" class="node">
<title>survival</title>
<ellipse fill="none" stroke="#000000" cx="1783.0916" cy="-192" rx="48.1917" ry="18"/>
<text text-anchor="middle" x="1783.0916" y="-188.3" font-family="Times,serif" font-size="14.00" fill="#000000">survival</text>
</g>
<!-- survival&#45;&gt;participant -->
<g id="edge18" class="edge">
<title>survival&#45;&gt;participant</title>
<path fill="none" stroke="#000000" d="M1751.0731,-178.4851C1736.7657,-172.126 1719.8399,-164.156 1705.0916,-156 1694.4119,-150.0939 1693.7246,-144.6895 1682.0916,-141 1577.1696,-107.7229 1296.0515,-138.6126 1187.0916,-123 1181.6632,-122.2222 1176.0488,-121.1956 1170.4652,-120.0262"/>
<polygon fill="#000000" stroke="#000000" points="1171.0184,-116.5634 1160.4948,-117.7898 1169.4863,-123.3936 1171.0184,-116.5634"/>
<text text-anchor="middle" x="1744.5916" y="-144.8" font-family="Times,serif" font-size="14.00" fill="#000000">of_survival</text>
</g>
<!-- cell_line -->
<g id="node5" class="node">
<title>cell_line</title>
<ellipse fill="none" stroke="#000000" cx="1999.0916" cy="-279" rx="49.2915" ry="18"/>
<text text-anchor="middle" x="1999.0916" y="-275.3" font-family="Times,serif" font-size="14.00" fill="#000000">cell_line</text>
</g>
<!-- sample -->
<g id="node7" class="node">
<title>sample</title>
<ellipse fill="none" stroke="#000000" cx="1893.0916" cy="-192" rx="44.393" ry="18"/>
<text text-anchor="middle" x="1893.0916" y="-188.3" font-family="Times,serif" font-size="14.00" fill="#000000">sample</text>
</g>
<!-- cell_line&#45;&gt;sample -->
<g id="edge22" class="edge">
<title>cell_line&#45;&gt;sample</title>
<path fill="none" stroke="#000000" d="M1999.3019,-260.5845C1998.4881,-249.938 1995.7715,-236.9259 1988.0916,-228 1976.9459,-215.0458 1960.6286,-206.7406 1944.651,-201.4208"/>
<polygon fill="#000000" stroke="#000000" points="1945.3791,-197.9856 1934.7958,-198.4794 1943.3771,-204.6932 1945.3791,-197.9856"/>
<text text-anchor="middle" x="2035.5916" y="-231.8" font-family="Times,serif" font-size="14.00" fill="#000000">of_cell_line</text>
</g>
<!-- cell_line&#45;&gt;study -->
<g id="edge23" class="edge">
<title>cell_line&#45;&gt;study</title>
<path fill="none" stroke="#000000" d="M2036.01,-267.0307C2054.7904,-260.1176 2074.7668,-251.1937 2080.0916,-243 2126.364,-171.7979 2124.5589,-98.2647 2052.0916,-54 2013.3189,-30.3167 1709.3145,-21.4565 1590.9915,-18.884"/>
<polygon fill="#000000" stroke="#000000" points="1590.8699,-15.3808 1580.798,-18.6681 1590.7215,-22.3792 1590.8699,-15.3808"/>
<text text-anchor="middle" x="2151.5916" y="-144.8" font-family="Times,serif" font-size="14.00" fill="#000000">of_cell_line</text>
</g>
<!-- molecular_test -->
<g id="node6" class="node">
<title>molecular_test</title>
<ellipse fill="none" stroke="#000000" cx="456.0916" cy="-192" rx="79.8859" ry="18"/>
<text text-anchor="middle" x="456.0916" y="-188.3" font-family="Times,serif" font-size="14.00" fill="#000000">molecular_test</text>
</g>
<!-- molecular_test&#45;&gt;participant -->
<g id="edge26" class="edge">
<title>molecular_test&#45;&gt;participant</title>
<path fill="none" stroke="#000000" d="M444.5591,-173.8284C439.2804,-163.0011 435.8318,-149.7141 444.0916,-141 464.4598,-119.5115 874.012,-109.4803 1043.5633,-106.2362"/>
<polygon fill="#000000" stroke="#000000" points="1043.7164,-109.734 1053.6485,-106.0458 1043.5842,-102.7353 1043.7164,-109.734"/>
<text text-anchor="middle" x="508.0916" y="-144.8" font-family="Times,serif" font-size="14.00" fill="#000000">of_molecular_test</text>
</g>
<!-- sample&#45;&gt;cell_line -->
<g id="edge31" class="edge">
<title>sample&#45;&gt;cell_line</title>
<path fill="none" stroke="#000000" d="M1895.6544,-209.9872C1898.0266,-220.7451 1902.5451,-234.0239 1911.0916,-243 1920.8921,-253.2931 1934.0547,-260.7347 1947.2092,-266.0786"/>
<polygon fill="#000000" stroke="#000000" points="1946.1451,-269.4168 1956.7382,-269.6098 1948.5775,-262.853 1946.1451,-269.4168"/>
<text text-anchor="middle" x="1947.5916" y="-231.8" font-family="Times,serif" font-size="14.00" fill="#000000">of_sample</text>
</g>
<!-- sample&#45;&gt;participant -->
<g id="edge29" class="edge">
<title>sample&#45;&gt;participant</title>
<path fill="none" stroke="#000000" d="M1860.1875,-179.8517C1843.8916,-173.4296 1824.112,-165.0167 1807.0916,-156 1796.3074,-150.2869 1795.736,-144.6534 1784.0916,-141 1720.7716,-121.1334 1252.8131,-132.209 1187.0916,-123 1181.6608,-122.239 1176.0448,-121.2236 1170.4602,-120.0611"/>
<polygon fill="#000000" stroke="#000000" points="1171.0113,-116.598 1160.4887,-117.8329 1169.4847,-123.4295 1171.0113,-116.598"/>
<text text-anchor="middle" x="1843.5916" y="-144.8" font-family="Times,serif" font-size="14.00" fill="#000000">of_sample</text>
</g>
<!-- pdx -->
<g id="node25" class="node">
<title>pdx</title>
<ellipse fill="none" stroke="#000000" cx="1877.0916" cy="-105" rx="27.8951" ry="18"/>
<text text-anchor="middle" x="1877.0916" y="-101.3" font-family="Times,serif" font-size="14.00" fill="#000000">pdx</text>
</g>
<!-- sample&#45;&gt;pdx -->
<g id="edge30" class="edge">
<title>sample&#45;&gt;pdx</title>
<path fill="none" stroke="#000000" d="M1889.7764,-173.9735C1887.6097,-162.1918 1884.735,-146.5607 1882.2701,-133.1581"/>
<polygon fill="#000000" stroke="#000000" points="1885.6537,-132.2053 1880.4026,-123.0034 1878.7692,-133.4715 1885.6537,-132.2053"/>
<text text-anchor="middle" x="1921.5916" y="-144.8" font-family="Times,serif" font-size="14.00" fill="#000000">of_sample</text>
</g>
<!-- sequencing_file -->
<g id="node8" class="node">
<title>sequencing_file</title>
<ellipse fill="none" stroke="#000000" cx="2150.0916" cy="-279" rx="83.3857" ry="18"/>
<text text-anchor="middle" x="2150.0916" y="-275.3" font-family="Times,serif" font-size="14.00" fill="#000000">sequencing_file</text>
</g>
<!-- sequencing_file&#45;&gt;sample -->
<g id="edge21" class="edge">
<title>sequencing_file&#45;&gt;sample</title>
<path fill="none" stroke="#000000" d="M2130.7316,-261.2596C2117.4304,-250.0339 2098.8467,-236.1497 2080.0916,-228 2037.504,-209.4944 1985.3601,-200.4584 1946.9642,-196.0715"/>
<polygon fill="#000000" stroke="#000000" points="1947.3334,-192.5911 1937.0169,-195.0034 1946.586,-199.5511 1947.3334,-192.5911"/>
<text text-anchor="middle" x="2170.5916" y="-231.8" font-family="Times,serif" font-size="14.00" fill="#000000">of_sequencing_file</text>
</g>
<!-- synonym -->
<g id="node9" class="node">
<title>synonym</title>
<ellipse fill="none" stroke="#000000" cx="273.0916" cy="-279" rx="51.9908" ry="18"/>
<text text-anchor="middle" x="273.0916" y="-275.3" font-family="Times,serif" font-size="14.00" fill="#000000">synonym</text>
</g>
<!-- synonym&#45;&gt;sample -->
<g id="edge16" class="edge">
<title>synonym&#45;&gt;sample</title>
<path fill="none" stroke="#000000" d="M323.9492,-274.9917C449.5083,-265.2549 784.3206,-240.2587 1064.0916,-228 1236.4171,-220.4492 1670.2442,-240.0823 1840.0916,-210 1843.8025,-209.3428 1847.6053,-208.4716 1851.3871,-207.4663"/>
<polygon fill="#000000" stroke="#000000" points="1852.6719,-210.7364 1861.2709,-204.5472 1850.6891,-204.0231 1852.6719,-210.7364"/>
<text text-anchor="middle" x="1106.5916" y="-231.8" font-family="Times,serif" font-size="14.00" fill="#000000">of_synonym</text>
</g>
<!-- synonym&#45;&gt;study -->
<g id="edge17" class="edge">
<title>synonym&#45;&gt;study</title>
<path fill="none" stroke="#000000" d="M223.6043,-273.1841C154.8601,-263.9711 35.9704,-243.5441 10.0916,-210 -9.0781,-185.1522 2.8935,-163.1841 25.0916,-141 155.623,-10.5513 247.0478,-67.5344 431.0916,-54 643.3989,-38.3872 1314.0899,-22.995 1497.3974,-18.9979"/>
<polygon fill="#000000" stroke="#000000" points="1497.5934,-22.4946 1507.515,-18.7781 1497.4413,-15.4963 1497.5934,-22.4946"/>
<text text-anchor="middle" x="67.5916" y="-144.8" font-family="Times,serif" font-size="14.00" fill="#000000">of_synonym</text>
</g>
<!-- synonym&#45;&gt;participant -->
<g id="edge15" class="edge">
<title>synonym&#45;&gt;participant</title>
<path fill="none" stroke="#000000" d="M268.7899,-260.9324C264.4463,-237.8049 261.0378,-197.879 282.0916,-174 328.3843,-121.4953 366.7023,-150.2124 436.0916,-141 551.7975,-125.6384 893.5822,-112.5561 1043.8379,-107.3765"/>
<polygon fill="#000000" stroke="#000000" points="1044.0125,-110.8726 1053.8867,-107.032 1043.7727,-103.8767 1044.0125,-110.8726"/>
<text text-anchor="middle" x="324.5916" y="-188.3" font-family="Times,serif" font-size="14.00" fill="#000000">of_synonym</text>
</g>
<!-- study_personnel -->
<g id="node10" class="node">
<title>study_personnel</title>
<ellipse fill="none" stroke="#000000" cx="1283.0916" cy="-105" rx="87.1846" ry="18"/>
<text text-anchor="middle" x="1283.0916" y="-101.3" font-family="Times,serif" font-size="14.00" fill="#000000">study_personnel</text>
</g>
<!-- study_personnel&#45;&gt;study -->
<g id="edge19" class="edge">
<title>study_personnel&#45;&gt;study</title>
<path fill="none" stroke="#000000" d="M1290.4686,-87.0358C1296.0735,-75.7156 1304.9077,-61.8102 1317.0916,-54 1346.1863,-35.3497 1439.8367,-25.4562 1497.3609,-21.008"/>
<polygon fill="#000000" stroke="#000000" points="1497.9459,-24.4742 1507.6578,-20.2399 1497.4251,-17.4936 1497.9459,-24.4742"/>
<text text-anchor="middle" x="1386.5916" y="-57.8" font-family="Times,serif" font-size="14.00" fill="#000000">of_study_personnel</text>
</g>
<!-- methylation_array_file -->
<g id="node11" class="node">
<title>methylation_array_file</title>
<ellipse fill="none" stroke="#000000" cx="1374.0916" cy="-279" rx="115.8798" ry="18"/>
<text text-anchor="middle" x="1374.0916" y="-275.3" font-family="Times,serif" font-size="14.00" fill="#000000">methylation_array_file</text>
</g>
<!-- methylation_array_file&#45;&gt;sample -->
<g id="edge25" class="edge">
<title>methylation_array_file&#45;&gt;sample</title>
<path fill="none" stroke="#000000" d="M1384.2603,-260.9636C1391.915,-249.3015 1403.5661,-235.0308 1418.0916,-228 1460.3349,-207.5531 1793.9611,-218.6335 1840.0916,-210 1843.7452,-209.3162 1847.4901,-208.4349 1851.2176,-207.4304"/>
<polygon fill="#000000" stroke="#000000" points="1852.3791,-210.7367 1860.969,-204.5347 1850.3863,-204.0263 1852.3791,-210.7367"/>
<text text-anchor="middle" x="1509.5916" y="-231.8" font-family="Times,serif" font-size="14.00" fill="#000000">of_methylation_array_file</text>
</g>
<!-- study_funding -->
<g id="node12" class="node">
<title>study_funding</title>
<ellipse fill="none" stroke="#000000" cx="1465.0916" cy="-105" rx="77.1866" ry="18"/>
<text text-anchor="middle" x="1465.0916" y="-101.3" font-family="Times,serif" font-size="14.00" fill="#000000">study_funding</text>
</g>
<!-- study_funding&#45;&gt;study -->
<g id="edge8" class="edge">
<title>study_funding&#45;&gt;study</title>
<path fill="none" stroke="#000000" d="M1460.4933,-86.6488C1458.9605,-76.2817 1458.9605,-63.5317 1465.0916,-54 1473.0964,-41.5555 1486.5795,-33.3614 1500.1621,-27.9878"/>
<polygon fill="#000000" stroke="#000000" points="1501.707,-31.1556 1509.9929,-24.5531 1499.3981,-24.5473 1501.707,-31.1556"/>
<text text-anchor="middle" x="1527.0916" y="-57.8" font-family="Times,serif" font-size="14.00" fill="#000000">of_study_funding</text>
</g>
<!-- publication -->
<g id="node13" class="node">
<title>publication</title>
<ellipse fill="none" stroke="#000000" cx="1623.0916" cy="-105" rx="63.0888" ry="18"/>
<text text-anchor="middle" x="1623.0916" y="-101.3" font-family="Times,serif" font-size="14.00" fill="#000000">publication</text>
</g>
<!-- publication&#45;&gt;study -->
<g id="edge7" class="edge">
<title>publication&#45;&gt;study</title>
<path fill="none" stroke="#000000" d="M1614.7006,-86.8193C1609.4036,-76.509 1601.9036,-63.759 1593.0916,-54 1587.9362,-48.2904 1581.7451,-42.9142 1575.5259,-38.1443"/>
<polygon fill="#000000" stroke="#000000" points="1577.2703,-35.0855 1567.1222,-32.0412 1573.1569,-40.7495 1577.2703,-35.0855"/>
<text text-anchor="middle" x="1654.0916" y="-57.8" font-family="Times,serif" font-size="14.00" fill="#000000">of_publication</text>
</g>
<!-- medical_history -->
<g id="node14" class="node">
<title>medical_history</title>
<ellipse fill="none" stroke="#000000" cx="764.0916" cy="-192" rx="85.2851" ry="18"/>
<text text-anchor="middle" x="764.0916" y="-188.3" font-family="Times,serif" font-size="14.00" fill="#000000">medical_history</text>
</g>
<!-- medical_history&#45;&gt;participant -->
<g id="edge27" class="edge">
<title>medical_history&#45;&gt;participant</title>
<path fill="none" stroke="#000000" d="M777.4378,-173.7934C786.8814,-162.3708 800.5882,-148.4424 816.0916,-141 855.0472,-122.2994 968.1127,-112.7586 1043.7658,-108.3331"/>
<polygon fill="#000000" stroke="#000000" points="1044.3952,-111.8031 1054.1809,-107.7422 1043.9986,-104.8144 1044.3952,-111.8031"/>
<text text-anchor="middle" x="884.0916" y="-144.8" font-family="Times,serif" font-size="14.00" fill="#000000">of_medical_history</text>
</g>
<!-- family_relationship -->
<g id="node15" class="node">
<title>family_relationship</title>
<ellipse fill="none" stroke="#000000" cx="967.0916" cy="-192" rx="100.1823" ry="18"/>
<text text-anchor="middle" x="967.0916" y="-188.3" font-family="Times,serif" font-size="14.00" fill="#000000">family_relationship</text>
</g>
<!-- family_relationship&#45;&gt;participant -->
<g id="edge14" class="edge">
<title>family_relationship&#45;&gt;participant</title>
<path fill="none" stroke="#000000" d="M959.4269,-173.6828C956.306,-163.0712 954.9043,-150.0612 962.0916,-141 973.0091,-127.236 1011.493,-118.237 1047.2556,-112.6786"/>
<polygon fill="#000000" stroke="#000000" points="1047.8649,-116.1266 1057.2451,-111.2009 1046.8406,-109.2019 1047.8649,-116.1266"/>
<text text-anchor="middle" x="1041.5916" y="-144.8" font-family="Times,serif" font-size="14.00" fill="#000000">of_family_relationship</text>
</g>
<!-- pathology_file -->
<g id="node16" class="node">
<title>pathology_file</title>
<ellipse fill="none" stroke="#000000" cx="1584.0916" cy="-279" rx="76.0865" ry="18"/>
<text text-anchor="middle" x="1584.0916" y="-275.3" font-family="Times,serif" font-size="14.00" fill="#000000">pathology_file</text>
</g>
<!-- pathology_file&#45;&gt;sample -->
<g id="edge28" class="edge">
<title>pathology_file&#45;&gt;sample</title>
<path fill="none" stroke="#000000" d="M1592.853,-260.9339C1599.4659,-249.4167 1609.6931,-235.3258 1623.0916,-228 1665.5477,-204.7866 1792.7178,-219.854 1840.0916,-210 1843.6802,-209.2536 1847.3618,-208.3363 1851.0312,-207.3148"/>
<polygon fill="#000000" stroke="#000000" points="1852.0817,-210.6538 1860.6434,-204.4131 1850.0586,-203.9525 1852.0817,-210.6538"/>
<text text-anchor="middle" x="1684.0916" y="-231.8" font-family="Times,serif" font-size="14.00" fill="#000000">of_pathology_file</text>
</g>
<!-- exposure -->
<g id="node17" class="node">
<title>exposure</title>
<ellipse fill="none" stroke="#000000" cx="1138.0916" cy="-192" rx="53.0913" ry="18"/>
<text text-anchor="middle" x="1138.0916" y="-188.3" font-family="Times,serif" font-size="14.00" fill="#000000">exposure</text>
</g>
<!-- exposure&#45;&gt;participant -->
<g id="edge20" class="edge">
<title>exposure&#45;&gt;participant</title>
<path fill="none" stroke="#000000" d="M1133.5332,-173.9735C1130.5244,-162.0751 1126.5229,-146.2508 1123.1116,-132.7606"/>
<polygon fill="#000000" stroke="#000000" points="1126.489,-131.8401 1120.6442,-123.0034 1119.7027,-133.5563 1126.489,-131.8401"/>
<text text-anchor="middle" x="1171.5916" y="-144.8" font-family="Times,serif" font-size="14.00" fill="#000000">of_exposure</text>
</g>
<!-- study_arm -->
<g id="node19" class="node">
<title>study_arm</title>
<ellipse fill="none" stroke="#000000" cx="1764.0916" cy="-105" rx="59.5901" ry="18"/>
<text text-anchor="middle" x="1764.0916" y="-101.3" font-family="Times,serif" font-size="14.00" fill="#000000">study_arm</text>
</g>
<!-- study_arm&#45;&gt;study -->
<g id="edge10" class="edge">
<title>study_arm&#45;&gt;study</title>
<path fill="none" stroke="#000000" d="M1749.5145,-87.2912C1739.3313,-76.0789 1724.79,-62.1977 1709.0916,-54 1671.9956,-34.6285 1624.9725,-25.6672 1590.6241,-21.5294"/>
<polygon fill="#000000" stroke="#000000" points="1590.7213,-18.0188 1580.3961,-20.394 1589.9489,-24.9761 1590.7213,-18.0188"/>
<text text-anchor="middle" x="1777.5916" y="-57.8" font-family="Times,serif" font-size="14.00" fill="#000000">of_study_arm</text>
</g>
<!-- diagnosis -->
<g id="node20" class="node">
<title>diagnosis</title>
<ellipse fill="none" stroke="#000000" cx="880.0916" cy="-279" rx="54.6905" ry="18"/>
<text text-anchor="middle" x="880.0916" y="-275.3" font-family="Times,serif" font-size="14.00" fill="#000000">diagnosis</text>
</g>
<!-- diagnosis&#45;&gt;sample -->
<g id="edge3" class="edge">
<title>diagnosis&#45;&gt;sample</title>
<path fill="none" stroke="#000000" d="M930.1237,-271.6032C1009.5864,-260.1735 1169.6223,-238.4498 1306.0916,-228 1424.4791,-218.9348 1723.2875,-231.3209 1840.0916,-210 1843.799,-209.3233 1847.5994,-208.4385 1851.3795,-207.4243"/>
<polygon fill="#000000" stroke="#000000" points="1852.6703,-210.6921 1861.2608,-204.491 1850.6783,-203.9815 1852.6703,-210.6921"/>
<text text-anchor="middle" x="1350.5916" y="-231.8" font-family="Times,serif" font-size="14.00" fill="#000000">of_diagnosis</text>
</g>
<!-- diagnosis&#45;&gt;participant -->
<g id="edge2" class="edge">
<title>diagnosis&#45;&gt;participant</title>
<path fill="none" stroke="#000000" d="M827.15,-274.547C749.6642,-266.8083 611.2725,-247.9389 581.0916,-210 571.1308,-197.4787 570.6976,-186.164 581.0916,-174 610.7497,-139.2916 905.6268,-117.4251 1044.4809,-108.9745"/>
<polygon fill="#000000" stroke="#000000" points="1044.834,-112.4597 1054.6057,-108.3653 1044.4135,-105.4723 1044.834,-112.4597"/>
<text text-anchor="middle" x="625.5916" y="-188.3" font-family="Times,serif" font-size="14.00" fill="#000000">of_diagnosis</text>
</g>
<!-- participant&#45;&gt;study -->
<g id="edge32" class="edge">
<title>participant&#45;&gt;study</title>
<path fill="none" stroke="#000000" d="M1136.7421,-87.9979C1152.1193,-76.3374 1174.1608,-61.6422 1196.0916,-54 1250.6143,-35.0006 1416.0869,-24.3659 1497.6444,-20.1506"/>
<polygon fill="#000000" stroke="#000000" points="1497.8231,-23.6461 1507.6333,-19.6448 1497.4691,-16.6551 1497.8231,-23.6461"/>
<text text-anchor="middle" x="1246.5916" y="-57.8" font-family="Times,serif" font-size="14.00" fill="#000000">of_participant</text>
</g>
<!-- cytogenomic_file -->
<g id="node22" class="node">
<title>cytogenomic_file</title>
<ellipse fill="none" stroke="#000000" cx="1768.0916" cy="-279" rx="89.8845" ry="18"/>
<text text-anchor="middle" x="1768.0916" y="-275.3" font-family="Times,serif" font-size="14.00" fill="#000000">cytogenomic_file</text>
</g>
<!-- cytogenomic_file&#45;&gt;sample -->
<g id="edge24" class="edge">
<title>cytogenomic_file&#45;&gt;sample</title>
<path fill="none" stroke="#000000" d="M1755.7861,-260.8305C1750.2933,-250.2713 1746.5655,-237.2645 1754.0916,-228 1778.7141,-197.6904 1802.4234,-220.2978 1840.0916,-210 1843.4266,-209.0883 1846.8582,-208.0823 1850.2953,-207.0259"/>
<polygon fill="#000000" stroke="#000000" points="1851.4594,-210.3284 1859.9203,-203.9515 1849.3295,-203.6603 1851.4594,-210.3284"/>
<text text-anchor="middle" x="1825.5916" y="-231.8" font-family="Times,serif" font-size="14.00" fill="#000000">of_cytogenomic_file</text>
</g>
<!-- study_admin -->
<g id="node23" class="node">
<title>study_admin</title>
<ellipse fill="none" stroke="#000000" cx="1993.0916" cy="-105" rx="70.3881" ry="18"/>
<text text-anchor="middle" x="1993.0916" y="-101.3" font-family="Times,serif" font-size="14.00" fill="#000000">study_admin</text>
</g>
<!-- study_admin&#45;&gt;study -->
<g id="edge9" class="edge">
<title>study_admin&#45;&gt;study</title>
<path fill="none" stroke="#000000" d="M1968.9523,-88.0279C1951.079,-76.3818 1925.6657,-61.6916 1901.0916,-54 1844.3656,-36.2449 1673.8246,-24.9556 1590.6811,-20.3589"/>
<polygon fill="#000000" stroke="#000000" points="1590.6837,-16.8539 1580.5084,-19.8058 1590.3036,-23.8436 1590.6837,-16.8539"/>
<text text-anchor="middle" x="1991.5916" y="-57.8" font-family="Times,serif" font-size="14.00" fill="#000000">of_study_admin</text>
</g>
<!-- treatment -->
<g id="node24" class="node">
<title>treatment</title>
<ellipse fill="none" stroke="#000000" cx="1267.0916" cy="-192" rx="57.6901" ry="18"/>
<text text-anchor="middle" x="1267.0916" y="-188.3" font-family="Times,serif" font-size="14.00" fill="#000000">treatment</text>
</g>
<!-- treatment&#45;&gt;participant -->
<g id="edge1" class="edge">
<title>treatment&#45;&gt;participant</title>
<path fill="none" stroke="#000000" d="M1254.0879,-174.3378C1245.2669,-163.4313 1232.756,-149.8739 1219.0916,-141 1205.4732,-132.1559 1189.426,-125.1982 1174.1037,-119.8552"/>
<polygon fill="#000000" stroke="#000000" points="1174.7654,-116.3878 1164.1722,-116.5737 1172.5692,-123.0344 1174.7654,-116.3878"/>
<text text-anchor="middle" x="1283.0916" y="-144.8" font-family="Times,serif" font-size="14.00" fill="#000000">of_treatment</text>
</g>
<!-- pdx&#45;&gt;sample -->
<g id="edge5" class="edge">
<title>pdx&#45;&gt;sample</title>
<path fill="none" stroke="#000000" d="M1899.1245,-116.4764C1903.9861,-118.7944 1909.1588,-121.1 1914.0916,-123 1940.8674,-133.3135 1958.8614,-118.056 1976.0916,-141 1989.5548,-158.9277 1966.8184,-171.964 1941.7628,-180.3674"/>
<polygon fill="#000000" stroke="#000000" points="1940.6298,-177.0543 1932.1171,-183.3618 1942.7052,-183.7395 1940.6298,-177.0543"/>
<text text-anchor="middle" x="2003.0916" y="-144.8" font-family="Times,serif" font-size="14.00" fill="#000000">of_pdx</text>
</g>
<!-- pdx&#45;&gt;study -->
<g id="edge6" class="edge">
<title>pdx&#45;&gt;study</title>
<path fill="none" stroke="#000000" d="M1866.474,-88.3251C1858.0895,-76.6653 1845.291,-61.8301 1830.0916,-54 1789.4155,-33.0452 1660.9225,-23.6583 1590.8236,-20.0051"/>
<polygon fill="#000000" stroke="#000000" points="1590.6726,-16.4931 1580.5096,-19.487 1590.3214,-23.4843 1590.6726,-16.4931"/>
<text text-anchor="middle" x="1873.0916" y="-57.8" font-family="Times,serif" font-size="14.00" fill="#000000">of_pdx</text>
</g>
</g>
</svg>
