<svg width="2762pt" height="305pt"
 viewBox="0.00 0.00 2761.79 305.00" xmlns="http://www.w3.org/2000/svg" xmlns:xlink="http://www.w3.org/1999/xlink">
<g id="graph0" class="graph" transform="scale(1 1) rotate(0) translate(4 301)">
<title>Perl</title>
<polygon fill="#ffffff" stroke="transparent" points="-4,4 -4,-301 2757.7947,-301 2757.7947,4 -4,4"/>
<!-- diagnosis -->
<g id="node1" class="node">
<title>diagnosis</title>
<ellipse fill="none" stroke="#000000" cx="1291.7947" cy="-279" rx="54.6905" ry="18"/>
<text text-anchor="middle" x="1291.7947" y="-275.3" font-family="Times,serif" font-size="14.00" fill="#000000">diagnosis</text>
</g>
<!-- participant -->
<g id="node10" class="node">
<title>participant</title>
<ellipse fill="none" stroke="#000000" cx="1187.7947" cy="-105" rx="62.2891" ry="18"/>
<text text-anchor="middle" x="1187.7947" y="-101.3" font-family="Times,serif" font-size="14.00" fill="#000000">participant</text>
</g>
<!-- diagnosis&#45;&gt;participant -->
<g id="edge27" class="edge">
<title>diagnosis&#45;&gt;participant</title>
<path fill="none" stroke="#000000" d="M1242.581,-270.9902C1207.3509,-262.4071 1162.318,-244.9598 1139.7947,-210 1123.2621,-184.3388 1143.3883,-152.0484 1162.4072,-130.0984"/>
<polygon fill="#000000" stroke="#000000" points="1165.1648,-132.2678 1169.2941,-122.5108 1159.9815,-127.5632 1165.1648,-132.2678"/>
<text text-anchor="middle" x="1184.2947" y="-188.3" font-family="Times,serif" font-size="14.00" fill="#000000">of_diagnosis</text>
</g>
<!-- sample -->
<g id="node27" class="node">
<title>sample</title>
<ellipse fill="none" stroke="#000000" cx="2263.7947" cy="-192" rx="44.393" ry="18"/>
<text text-anchor="middle" x="2263.7947" y="-188.3" font-family="Times,serif" font-size="14.00" fill="#000000">sample</text>
</g>
<!-- diagnosis&#45;&gt;sample -->
<g id="edge26" class="edge">
<title>diagnosis&#45;&gt;sample</title>
<path fill="none" stroke="#000000" d="M1343.7297,-273.1523C1438.7036,-262.6505 1646.8145,-240.5254 1822.7947,-228 1994.989,-215.7441 2041.1705,-242.0735 2210.7947,-210 2214.4469,-209.3094 2218.191,-208.4233 2221.9179,-207.4156"/>
<polygon fill="#000000" stroke="#000000" points="2223.0816,-210.7211 2231.6683,-204.5148 2221.0854,-204.0118 2223.0816,-210.7211"/>
<text text-anchor="middle" x="1867.2947" y="-231.8" font-family="Times,serif" font-size="14.00" fill="#000000">of_diagnosis</text>
</g>
<!-- study_arm -->
<g id="node2" class="node">
<title>study_arm</title>
<ellipse fill="none" stroke="#000000" cx="59.7947" cy="-105" rx="59.5901" ry="18"/>
<text text-anchor="middle" x="59.7947" y="-101.3" font-family="Times,serif" font-size="14.00" fill="#000000">study_arm</text>
</g>
<!-- study -->
<g id="node23" class="node">
<title>study</title>
<ellipse fill="none" stroke="#000000" cx="825.7947" cy="-18" rx="36.2938" ry="18"/>
<text text-anchor="middle" x="825.7947" y="-14.3" font-family="Times,serif" font-size="14.00" fill="#000000">study</text>
</g>
<!-- study_arm&#45;&gt;study -->
<g id="edge31" class="edge">
<title>study_arm&#45;&gt;study</title>
<path fill="none" stroke="#000000" d="M54.5336,-86.5922C52.6318,-75.6759 52.6429,-62.3784 60.7947,-54 85.9147,-28.1816 616.8576,-20.2762 779.112,-18.4587"/>
<polygon fill="#000000" stroke="#000000" points="779.2959,-21.957 789.2569,-18.3476 779.2192,-14.9574 779.2959,-21.957"/>
<text text-anchor="middle" x="109.2947" y="-57.8" font-family="Times,serif" font-size="14.00" fill="#000000">of_study_arm</text>
</g>
<!-- clinical_measure_file -->
<g id="node3" class="node">
<title>clinical_measure_file</title>
<ellipse fill="none" stroke="#000000" cx="188.7947" cy="-192" rx="108.5808" ry="18"/>
<text text-anchor="middle" x="188.7947" y="-188.3" font-family="Times,serif" font-size="14.00" fill="#000000">clinical_measure_file</text>
</g>
<!-- clinical_measure_file&#45;&gt;participant -->
<g id="edge18" class="edge">
<title>clinical_measure_file&#45;&gt;participant</title>
<path fill="none" stroke="#000000" d="M189.7741,-173.8659C191.4328,-162.4739 195.593,-148.5524 205.7947,-141 237.3288,-117.6551 872.6,-124.777 911.7947,-123 981.6775,-119.8316 1061.4043,-114.4401 1117.1402,-110.3818"/>
<polygon fill="#000000" stroke="#000000" points="1117.5429,-113.8618 1127.2604,-109.6404 1117.0313,-106.8805 1117.5429,-113.8618"/>
<text text-anchor="middle" x="291.7947" y="-144.8" font-family="Times,serif" font-size="14.00" fill="#000000">of_clinical_measure_file</text>
</g>
<!-- clinical_measure_file&#45;&gt;study -->
<g id="edge17" class="edge">
<title>clinical_measure_file&#45;&gt;study</title>
<path fill="none" stroke="#000000" d="M187.073,-173.7138C185.9356,-149.5715 188.1264,-107.7082 213.7947,-87 257.642,-51.6257 644.0981,-27.7299 779.319,-20.3888"/>
<polygon fill="#000000" stroke="#000000" points="779.5676,-23.8806 789.3653,-19.8489 779.1918,-16.8907 779.5676,-23.8806"/>
<text text-anchor="middle" x="299.7947" y="-101.3" font-family="Times,serif" font-size="14.00" fill="#000000">of_clinical_measure_file</text>
</g>
<!-- synonym -->
<g id="node4" class="node">
<title>synonym</title>
<ellipse fill="none" stroke="#000000" cx="463.7947" cy="-279" rx="51.9908" ry="18"/>
<text text-anchor="middle" x="463.7947" y="-275.3" font-family="Times,serif" font-size="14.00" fill="#000000">synonym</text>
</g>
<!-- synonym&#45;&gt;participant -->
<g id="edge15" class="edge">
<title>synonym&#45;&gt;participant</title>
<path fill="none" stroke="#000000" d="M469.2829,-260.6153C479.8524,-229.0185 506.3802,-165.4543 554.7947,-141 590.246,-123.0934 872.1439,-125.2924 911.7947,-123 981.5198,-118.9688 1061.1081,-113.7079 1116.8449,-109.9159"/>
<polygon fill="#000000" stroke="#000000" points="1117.2282,-113.398 1126.9668,-109.2256 1116.7518,-106.4142 1117.2282,-113.398"/>
<text text-anchor="middle" x="556.2947" y="-188.3" font-family="Times,serif" font-size="14.00" fill="#000000">of_synonym</text>
</g>
<!-- synonym&#45;&gt;study -->
<g id="edge16" class="edge">
<title>synonym&#45;&gt;study</title>
<path fill="none" stroke="#000000" d="M451.6304,-261.3213C428.9095,-225.9045 385.2317,-144.7115 418.7947,-87 433.7047,-61.3622 448.5506,-63.0485 476.7947,-54 531.9364,-36.3343 697.6601,-25.0524 779.3059,-20.4156"/>
<polygon fill="#000000" stroke="#000000" points="779.516,-23.9094 789.3052,-19.8571 779.1255,-16.9203 779.516,-23.9094"/>
<text text-anchor="middle" x="451.2947" y="-144.8" font-family="Times,serif" font-size="14.00" fill="#000000">of_synonym</text>
</g>
<!-- synonym&#45;&gt;sample -->
<g id="edge14" class="edge">
<title>synonym&#45;&gt;sample</title>
<path fill="none" stroke="#000000" d="M506.302,-268.5446C519.5211,-265.6571 534.1947,-262.8204 547.7947,-261 812.0636,-225.6261 880.3413,-237.59 1146.7947,-228 1264.9573,-223.7472 2094.3034,-230.2554 2210.7947,-210 2214.5076,-209.3544 2218.3118,-208.4913 2222.0946,-207.4915"/>
<polygon fill="#000000" stroke="#000000" points="2223.3757,-210.7629 2231.9799,-204.5808 2221.3985,-204.0479 2223.3757,-210.7629"/>
<text text-anchor="middle" x="1189.2947" y="-231.8" font-family="Times,serif" font-size="14.00" fill="#000000">of_synonym</text>
</g>
<!-- medical_history -->
<g id="node5" class="node">
<title>medical_history</title>
<ellipse fill="none" stroke="#000000" cx="831.7947" cy="-192" rx="85.2851" ry="18"/>
<text text-anchor="middle" x="831.7947" y="-188.3" font-family="Times,serif" font-size="14.00" fill="#000000">medical_history</text>
</g>
<!-- medical_history&#45;&gt;participant -->
<g id="edge28" class="edge">
<title>medical_history&#45;&gt;participant</title>
<path fill="none" stroke="#000000" d="M836.9546,-173.9181C841.184,-162.5481 848.3724,-148.6315 859.7947,-141 880.6348,-127.0762 1026.2656,-115.3656 1116.3305,-109.3492"/>
<polygon fill="#000000" stroke="#000000" points="1116.7379,-112.83 1126.4857,-108.6792 1116.277,-105.8452 1116.7379,-112.83"/>
<text text-anchor="middle" x="927.7947" y="-144.8" font-family="Times,serif" font-size="14.00" fill="#000000">of_medical_history</text>
</g>
<!-- publication -->
<g id="node6" class="node">
<title>publication</title>
<ellipse fill="none" stroke="#000000" cx="490.7947" cy="-105" rx="63.0888" ry="18"/>
<text text-anchor="middle" x="490.7947" y="-101.3" font-family="Times,serif" font-size="14.00" fill="#000000">publication</text>
</g>
<!-- publication&#45;&gt;study -->
<g id="edge4" class="edge">
<title>publication&#45;&gt;study</title>
<path fill="none" stroke="#000000" d="M482.8833,-86.8397C479.5149,-76.0167 477.9401,-62.7302 485.7947,-54 505.0802,-32.5647 690.9628,-22.9292 779.4343,-19.5299"/>
<polygon fill="#000000" stroke="#000000" points="779.6062,-23.026 789.4686,-19.1551 779.3449,-16.0309 779.6062,-23.026"/>
<text text-anchor="middle" x="536.7947" y="-57.8" font-family="Times,serif" font-size="14.00" fill="#000000">of_publication</text>
</g>
<!-- molecular_test -->
<g id="node7" class="node">
<title>molecular_test</title>
<ellipse fill="none" stroke="#000000" cx="1014.7947" cy="-192" rx="79.8859" ry="18"/>
<text text-anchor="middle" x="1014.7947" y="-188.3" font-family="Times,serif" font-size="14.00" fill="#000000">molecular_test</text>
</g>
<!-- molecular_test&#45;&gt;participant -->
<g id="edge29" class="edge">
<title>molecular_test&#45;&gt;participant</title>
<path fill="none" stroke="#000000" d="M1003.9844,-173.7041C999.2639,-163.1001 996.3104,-150.0906 1003.7947,-141 1018.1243,-123.5951 1070.8208,-114.4854 1116.1674,-109.7897"/>
<polygon fill="#000000" stroke="#000000" points="1116.6981,-113.2546 1126.3102,-108.7984 1116.0171,-106.2878 1116.6981,-113.2546"/>
<text text-anchor="middle" x="1067.7947" y="-144.8" font-family="Times,serif" font-size="14.00" fill="#000000">of_molecular_test</text>
</g>
<!-- generic_file -->
<g id="node8" class="node">
<title>generic_file</title>
<ellipse fill="none" stroke="#000000" cx="622.7947" cy="-279" rx="65.7887" ry="18"/>
<text text-anchor="middle" x="622.7947" y="-275.3" font-family="Times,serif" font-size="14.00" fill="#000000">generic_file</text>
</g>
<!-- generic_file&#45;&gt;participant -->
<g id="edge6" class="edge">
<title>generic_file&#45;&gt;participant</title>
<path fill="none" stroke="#000000" d="M618.2899,-260.7483C613.7267,-237.4216 610.0812,-197.2808 631.7947,-174 648.2246,-156.3842 972.23,-124.7081 1117.9011,-111.2851"/>
<polygon fill="#000000" stroke="#000000" points="1118.4366,-114.7507 1128.0745,-110.3506 1117.7963,-107.7801 1118.4366,-114.7507"/>
<text text-anchor="middle" x="684.7947" y="-188.3" font-family="Times,serif" font-size="14.00" fill="#000000">of_generic_file</text>
</g>
<!-- generic_file&#45;&gt;study -->
<g id="edge7" class="edge">
<title>generic_file&#45;&gt;study</title>
<path fill="none" stroke="#000000" d="M614.4059,-261.0259C602.7761,-233.2379 585.5548,-179.0838 607.7947,-141 645.3909,-76.6197 730.5044,-43.2883 782.561,-28.3046"/>
<polygon fill="#000000" stroke="#000000" points="783.8052,-31.5918 792.5076,-25.5488 781.9361,-24.846 783.8052,-31.5918"/>
<text text-anchor="middle" x="660.7947" y="-144.8" font-family="Times,serif" font-size="14.00" fill="#000000">of_generic_file</text>
</g>
<!-- generic_file&#45;&gt;sample -->
<g id="edge5" class="edge">
<title>generic_file&#45;&gt;sample</title>
<path fill="none" stroke="#000000" d="M686.7567,-274.7902C835.7219,-265.1261 1217.4235,-241.1721 1536.7947,-228 1686.4986,-221.8256 2063.3057,-236.3892 2210.7947,-210 2214.5044,-209.3363 2218.3064,-208.4605 2222.0877,-207.4523"/>
<polygon fill="#000000" stroke="#000000" points="2223.3744,-210.7216 2231.9707,-204.5284 2221.3886,-204.0092 2223.3744,-210.7216"/>
<text text-anchor="middle" x="1589.7947" y="-231.8" font-family="Times,serif" font-size="14.00" fill="#000000">of_generic_file</text>
</g>
<!-- study_funding -->
<g id="node9" class="node">
<title>study_funding</title>
<ellipse fill="none" stroke="#000000" cx="825.7947" cy="-105" rx="77.1866" ry="18"/>
<text text-anchor="middle" x="825.7947" y="-101.3" font-family="Times,serif" font-size="14.00" fill="#000000">study_funding</text>
</g>
<!-- study_funding&#45;&gt;study -->
<g id="edge20" class="edge">
<title>study_funding&#45;&gt;study</title>
<path fill="none" stroke="#000000" d="M825.7947,-86.9735C825.7947,-75.1918 825.7947,-59.5607 825.7947,-46.1581"/>
<polygon fill="#000000" stroke="#000000" points="829.2948,-46.0033 825.7947,-36.0034 822.2948,-46.0034 829.2948,-46.0033"/>
<text text-anchor="middle" x="887.7947" y="-57.8" font-family="Times,serif" font-size="14.00" fill="#000000">of_study_funding</text>
</g>
<!-- participant&#45;&gt;study -->
<g id="edge9" class="edge">
<title>participant&#45;&gt;study</title>
<path fill="none" stroke="#000000" d="M1139.7239,-93.4471C1068.745,-76.3886 936.9834,-44.7222 868.943,-28.3699"/>
<polygon fill="#000000" stroke="#000000" points="869.5261,-24.9105 858.9851,-25.9767 867.8904,-31.7167 869.5261,-24.9105"/>
<text text-anchor="middle" x="1079.2947" y="-57.8" font-family="Times,serif" font-size="14.00" fill="#000000">of_participant</text>
</g>
<!-- cytogenomic_file -->
<g id="node11" class="node">
<title>cytogenomic_file</title>
<ellipse fill="none" stroke="#000000" cx="1855.7947" cy="-279" rx="89.8845" ry="18"/>
<text text-anchor="middle" x="1855.7947" y="-275.3" font-family="Times,serif" font-size="14.00" fill="#000000">cytogenomic_file</text>
</g>
<!-- cytogenomic_file&#45;&gt;sample -->
<g id="edge24" class="edge">
<title>cytogenomic_file&#45;&gt;sample</title>
<path fill="none" stroke="#000000" d="M1881.4183,-261.5552C1900.0642,-249.8437 1926.3938,-235.2728 1951.7947,-228 2062.726,-196.2381 2097.6693,-232.7425 2210.7947,-210 2214.4388,-209.2674 2218.1771,-208.3519 2221.9001,-207.3245"/>
<polygon fill="#000000" stroke="#000000" points="2223.0771,-210.6254 2231.6444,-204.3922 2221.06,-203.9223 2223.0771,-210.6254"/>
<text text-anchor="middle" x="2023.2947" y="-231.8" font-family="Times,serif" font-size="14.00" fill="#000000">of_cytogenomic_file</text>
</g>
<!-- sequencing_file -->
<g id="node12" class="node">
<title>sequencing_file</title>
<ellipse fill="none" stroke="#000000" cx="2046.7947" cy="-279" rx="83.3857" ry="18"/>
<text text-anchor="middle" x="2046.7947" y="-275.3" font-family="Times,serif" font-size="14.00" fill="#000000">sequencing_file</text>
</g>
<!-- sequencing_file&#45;&gt;sample -->
<g id="edge30" class="edge">
<title>sequencing_file&#45;&gt;sample</title>
<path fill="none" stroke="#000000" d="M2069.3884,-261.4921C2084.7874,-250.3645 2106.0702,-236.5023 2126.7947,-228 2162.1184,-213.5083 2173.9894,-220.1563 2210.7947,-210 2214.1275,-209.0803 2217.5575,-208.0686 2220.9935,-207.0082"/>
<polygon fill="#000000" stroke="#000000" points="2222.1603,-210.3098 2230.6166,-203.9269 2220.0255,-203.6432 2222.1603,-210.3098"/>
<text text-anchor="middle" x="2193.2947" y="-231.8" font-family="Times,serif" font-size="14.00" fill="#000000">of_sequencing_file</text>
</g>
<!-- methylation_array_file -->
<g id="node13" class="node">
<title>methylation_array_file</title>
<ellipse fill="none" stroke="#000000" cx="2263.7947" cy="-279" rx="115.8798" ry="18"/>
<text text-anchor="middle" x="2263.7947" y="-275.3" font-family="Times,serif" font-size="14.00" fill="#000000">methylation_array_file</text>
</g>
<!-- methylation_array_file&#45;&gt;sample -->
<g id="edge10" class="edge">
<title>methylation_array_file&#45;&gt;sample</title>
<path fill="none" stroke="#000000" d="M2263.7947,-260.9735C2263.7947,-249.1918 2263.7947,-233.5607 2263.7947,-220.1581"/>
<polygon fill="#000000" stroke="#000000" points="2267.2948,-220.0033 2263.7947,-210.0034 2260.2948,-220.0034 2267.2948,-220.0033"/>
<text text-anchor="middle" x="2355.2947" y="-231.8" font-family="Times,serif" font-size="14.00" fill="#000000">of_methylation_array_file</text>
</g>
<!-- radiology_file -->
<g id="node14" class="node">
<title>radiology_file</title>
<ellipse fill="none" stroke="#000000" cx="1310.7947" cy="-192" rx="73.387" ry="18"/>
<text text-anchor="middle" x="1310.7947" y="-188.3" font-family="Times,serif" font-size="14.00" fill="#000000">radiology_file</text>
</g>
<!-- radiology_file&#45;&gt;participant -->
<g id="edge8" class="edge">
<title>radiology_file&#45;&gt;participant</title>
<path fill="none" stroke="#000000" d="M1286.4939,-174.8116C1267.4184,-161.3192 1240.695,-142.4173 1219.8651,-127.684"/>
<polygon fill="#000000" stroke="#000000" points="1221.8118,-124.7739 1211.6265,-121.8567 1217.7696,-130.4888 1221.8118,-124.7739"/>
<text text-anchor="middle" x="1314.7947" y="-144.8" font-family="Times,serif" font-size="14.00" fill="#000000">of_radiology_file</text>
</g>
<!-- genetic_analysis -->
<g id="node15" class="node">
<title>genetic_analysis</title>
<ellipse fill="none" stroke="#000000" cx="2484.7947" cy="-279" rx="87.9851" ry="18"/>
<text text-anchor="middle" x="2484.7947" y="-275.3" font-family="Times,serif" font-size="14.00" fill="#000000">genetic_analysis</text>
</g>
<!-- genetic_analysis&#45;&gt;sample -->
<g id="edge1" class="edge">
<title>genetic_analysis&#45;&gt;sample</title>
<path fill="none" stroke="#000000" d="M2477.207,-260.9183C2471.5606,-249.6985 2462.7599,-235.9507 2450.7947,-228 2429.2453,-213.6807 2364.146,-203.4141 2316.8038,-197.5971"/>
<polygon fill="#000000" stroke="#000000" points="2317.0384,-194.1003 2306.6936,-196.3886 2316.2075,-201.0508 2317.0384,-194.1003"/>
<text text-anchor="middle" x="2535.7947" y="-231.8" font-family="Times,serif" font-size="14.00" fill="#000000">of_genetic_analysis</text>
</g>
<!-- treatment -->
<g id="node16" class="node">
<title>treatment</title>
<ellipse fill="none" stroke="#000000" cx="1459.7947" cy="-192" rx="57.6901" ry="18"/>
<text text-anchor="middle" x="1459.7947" y="-188.3" font-family="Times,serif" font-size="14.00" fill="#000000">treatment</text>
</g>
<!-- treatment&#45;&gt;participant -->
<g id="edge36" class="edge">
<title>treatment&#45;&gt;participant</title>
<path fill="none" stroke="#000000" d="M1438.0812,-175.1492C1422.2362,-163.7175 1399.7727,-149.2371 1377.7947,-141 1330.9958,-123.4604 1315.8503,-132.5562 1266.7947,-123 1260.1154,-121.6989 1253.1396,-120.2467 1246.2177,-118.7471"/>
<polygon fill="#000000" stroke="#000000" points="1246.6749,-115.2639 1236.1558,-116.5281 1245.1673,-122.0997 1246.6749,-115.2639"/>
<text text-anchor="middle" x="1454.7947" y="-144.8" font-family="Times,serif" font-size="14.00" fill="#000000">of_treatment</text>
</g>
<!-- survival -->
<g id="node17" class="node">
<title>survival</title>
<ellipse fill="none" stroke="#000000" cx="1583.7947" cy="-192" rx="48.1917" ry="18"/>
<text text-anchor="middle" x="1583.7947" y="-188.3" font-family="Times,serif" font-size="14.00" fill="#000000">survival</text>
</g>
<!-- survival&#45;&gt;participant -->
<g id="edge35" class="edge">
<title>survival&#45;&gt;participant</title>
<path fill="none" stroke="#000000" d="M1559.9972,-176.0276C1538.1914,-161.4566 1508.8398,-142.0333 1505.7947,-141 1404.9205,-106.772 1372.128,-138.8762 1266.7947,-123 1259.6225,-121.919 1252.1346,-120.5432 1244.7491,-119.0353"/>
<polygon fill="#000000" stroke="#000000" points="1245.2905,-115.5721 1234.7808,-116.9123 1243.8324,-122.4186 1245.2905,-115.5721"/>
<text text-anchor="middle" x="1568.2947" y="-144.8" font-family="Times,serif" font-size="14.00" fill="#000000">of_survival</text>
</g>
<!-- pdx -->
<g id="node18" class="node">
<title>pdx</title>
<ellipse fill="none" stroke="#000000" cx="1303.7947" cy="-105" rx="27.8951" ry="18"/>
<text text-anchor="middle" x="1303.7947" y="-101.3" font-family="Times,serif" font-size="14.00" fill="#000000">pdx</text>
</g>
<!-- pdx&#45;&gt;study -->
<g id="edge11" class="edge">
<title>pdx&#45;&gt;study</title>
<path fill="none" stroke="#000000" d="M1280.1743,-94.9217C1273.3394,-92.1777 1265.825,-89.3244 1258.7947,-87 1204.2401,-68.963 1190.2494,-64.6955 1133.7947,-54 1041.7898,-36.5695 932.623,-26.2059 872.0888,-21.3528"/>
<polygon fill="#000000" stroke="#000000" points="872.3277,-17.8608 862.0839,-20.5655 871.7785,-24.8393 872.3277,-17.8608"/>
<text text-anchor="middle" x="1225.7947" y="-57.8" font-family="Times,serif" font-size="14.00" fill="#000000">of_pdx</text>
</g>
<!-- pdx&#45;&gt;sample -->
<g id="edge12" class="edge">
<title>pdx&#45;&gt;sample</title>
<path fill="none" stroke="#000000" d="M1324.7258,-117.1161C1329.8261,-119.5176 1335.3772,-121.6975 1340.7947,-123 1366.214,-129.1116 2263.486,-122.3377 2281.7947,-141 2288.4319,-147.7654 2287.0368,-157.1243 2282.9117,-165.9799"/>
<polygon fill="#000000" stroke="#000000" points="2279.7428,-164.4724 2277.8469,-174.8962 2285.8294,-167.9298 2279.7428,-164.4724"/>
<text text-anchor="middle" x="2309.7947" y="-144.8" font-family="Times,serif" font-size="14.00" fill="#000000">of_pdx</text>
</g>
<!-- treatment_response -->
<g id="node19" class="node">
<title>treatment_response</title>
<ellipse fill="none" stroke="#000000" cx="1754.7947" cy="-192" rx="104.7816" ry="18"/>
<text text-anchor="middle" x="1754.7947" y="-188.3" font-family="Times,serif" font-size="14.00" fill="#000000">treatment_response</text>
</g>
<!-- treatment_response&#45;&gt;participant -->
<g id="edge21" class="edge">
<title>treatment_response&#45;&gt;participant</title>
<path fill="none" stroke="#000000" d="M1692.1923,-177.5013C1672.4247,-171.9202 1650.7942,-164.7439 1631.7947,-156 1620.7084,-150.8979 1620.3973,-144.7838 1608.7947,-141 1536.4399,-117.4038 1342.1732,-133.4921 1266.7947,-123 1259.4323,-121.9752 1251.7432,-120.6065 1244.176,-119.0796"/>
<polygon fill="#000000" stroke="#000000" points="1244.8442,-115.6435 1234.3362,-116.9967 1243.3946,-122.4918 1244.8442,-115.6435"/>
<text text-anchor="middle" x="1714.7947" y="-144.8" font-family="Times,serif" font-size="14.00" fill="#000000">of_treatment_response</text>
</g>
<!-- cell_line -->
<g id="node20" class="node">
<title>cell_line</title>
<ellipse fill="none" stroke="#000000" cx="1398.7947" cy="-105" rx="49.2915" ry="18"/>
<text text-anchor="middle" x="1398.7947" y="-101.3" font-family="Times,serif" font-size="14.00" fill="#000000">cell_line</text>
</g>
<!-- cell_line&#45;&gt;study -->
<g id="edge23" class="edge">
<title>cell_line&#45;&gt;study</title>
<path fill="none" stroke="#000000" d="M1366.9361,-91.1465C1338.0004,-79.208 1293.8477,-62.5815 1253.7947,-54 1182.0226,-38.6226 967.5217,-25.6061 872.2612,-20.4134"/>
<polygon fill="#000000" stroke="#000000" points="872.2387,-16.9072 862.0645,-19.8627 871.8611,-23.897 872.2387,-16.9072"/>
<text text-anchor="middle" x="1346.2947" y="-57.8" font-family="Times,serif" font-size="14.00" fill="#000000">of_cell_line</text>
</g>
<!-- cell_line&#45;&gt;sample -->
<g id="edge22" class="edge">
<title>cell_line&#45;&gt;sample</title>
<path fill="none" stroke="#000000" d="M1434.3013,-117.5683C1441.958,-119.7873 1450.0733,-121.7766 1457.7947,-123 1484.9878,-127.3086 2429.504,-121.3557 2448.7947,-141 2453.4657,-145.7567 2453.0347,-150.8554 2448.7947,-156 2432.4264,-175.8605 2366.3179,-184.9064 2317.7801,-188.9293"/>
<polygon fill="#000000" stroke="#000000" points="2317.4115,-185.4473 2307.7136,-189.7136 2317.9553,-192.4262 2317.4115,-185.4473"/>
<text text-anchor="middle" x="2492.2947" y="-144.8" font-family="Times,serif" font-size="14.00" fill="#000000">of_cell_line</text>
</g>
<!-- family_relationship -->
<g id="node21" class="node">
<title>family_relationship</title>
<ellipse fill="none" stroke="#000000" cx="1977.7947" cy="-192" rx="100.1823" ry="18"/>
<text text-anchor="middle" x="1977.7947" y="-188.3" font-family="Times,serif" font-size="14.00" fill="#000000">family_relationship</text>
</g>
<!-- family_relationship&#45;&gt;participant -->
<g id="edge3" class="edge">
<title>family_relationship&#45;&gt;participant</title>
<path fill="none" stroke="#000000" d="M1901.8252,-180.1996C1875.5288,-174.659 1846.2761,-166.823 1820.7947,-156 1809.5619,-151.229 1809.4322,-144.6752 1797.7947,-141 1685.2078,-105.4444 1383.8821,-138.1832 1266.7947,-123 1259.423,-122.0441 1251.7285,-120.7158 1244.1585,-119.2097"/>
<polygon fill="#000000" stroke="#000000" points="1244.8222,-115.7728 1234.3164,-117.1436 1243.384,-122.6235 1244.8222,-115.7728"/>
<text text-anchor="middle" x="1900.2947" y="-144.8" font-family="Times,serif" font-size="14.00" fill="#000000">of_family_relationship</text>
</g>
<!-- pathology_file -->
<g id="node22" class="node">
<title>pathology_file</title>
<ellipse fill="none" stroke="#000000" cx="2666.7947" cy="-279" rx="76.0865" ry="18"/>
<text text-anchor="middle" x="2666.7947" y="-275.3" font-family="Times,serif" font-size="14.00" fill="#000000">pathology_file</text>
</g>
<!-- pathology_file&#45;&gt;sample -->
<g id="edge2" class="edge">
<title>pathology_file&#45;&gt;sample</title>
<path fill="none" stroke="#000000" d="M2652.3078,-261.2105C2641.8051,-249.6587 2626.5506,-235.4182 2609.7947,-228 2558.9026,-205.4689 2401.9403,-196.7204 2318.0231,-193.5875"/>
<polygon fill="#000000" stroke="#000000" points="2318.0362,-190.0858 2307.9169,-193.2242 2317.7847,-197.0813 2318.0362,-190.0858"/>
<text text-anchor="middle" x="2692.7947" y="-231.8" font-family="Times,serif" font-size="14.00" fill="#000000">of_pathology_file</text>
</g>
<!-- study_admin -->
<g id="node24" class="node">
<title>study_admin</title>
<ellipse fill="none" stroke="#000000" cx="1536.7947" cy="-105" rx="70.3881" ry="18"/>
<text text-anchor="middle" x="1536.7947" y="-101.3" font-family="Times,serif" font-size="14.00" fill="#000000">study_admin</text>
</g>
<!-- study_admin&#45;&gt;study -->
<g id="edge13" class="edge">
<title>study_admin&#45;&gt;study</title>
<path fill="none" stroke="#000000" d="M1500.9676,-89.3974C1471.8756,-77.4883 1429.4774,-61.8352 1390.7947,-54 1292.024,-33.9939 988.9655,-22.9396 872.2708,-19.3325"/>
<polygon fill="#000000" stroke="#000000" points="872.3269,-15.8327 862.2248,-19.0262 872.1135,-22.8294 872.3269,-15.8327"/>
<text text-anchor="middle" x="1500.2947" y="-57.8" font-family="Times,serif" font-size="14.00" fill="#000000">of_study_admin</text>
</g>
<!-- study_personnel -->
<g id="node25" class="node">
<title>study_personnel</title>
<ellipse fill="none" stroke="#000000" cx="1711.7947" cy="-105" rx="87.1846" ry="18"/>
<text text-anchor="middle" x="1711.7947" y="-101.3" font-family="Times,serif" font-size="14.00" fill="#000000">study_personnel</text>
</g>
<!-- study_personnel&#45;&gt;study -->
<g id="edge25" class="edge">
<title>study_personnel&#45;&gt;study</title>
<path fill="none" stroke="#000000" d="M1673.4805,-88.7646C1643.4223,-76.8413 1600.2145,-61.4721 1560.7947,-54 1428.0613,-28.8401 1013.0037,-20.6812 872.6872,-18.6046"/>
<polygon fill="#000000" stroke="#000000" points="872.3393,-15.0994 862.2898,-18.4545 872.2382,-22.0986 872.3393,-15.0994"/>
<text text-anchor="middle" x="1685.2947" y="-57.8" font-family="Times,serif" font-size="14.00" fill="#000000">of_study_personnel</text>
</g>
<!-- exposure -->
<g id="node26" class="node">
<title>exposure</title>
<ellipse fill="none" stroke="#000000" cx="2148.7947" cy="-192" rx="53.0913" ry="18"/>
<text text-anchor="middle" x="2148.7947" y="-188.3" font-family="Times,serif" font-size="14.00" fill="#000000">exposure</text>
</g>
<!-- exposure&#45;&gt;participant -->
<g id="edge19" class="edge">
<title>exposure&#45;&gt;participant</title>
<path fill="none" stroke="#000000" d="M2108.8868,-179.9591C2101.5636,-177.8793 2093.968,-175.8074 2086.7947,-174 2049.771,-164.6714 2038.0429,-170.6746 2002.7947,-156 1991.5281,-151.3094 1991.448,-144.6248 1979.7947,-141 1904.1236,-117.4619 1345.4275,-132.8512 1266.7947,-123 1259.4189,-122.076 1251.722,-120.7664 1244.1509,-119.2699"/>
<polygon fill="#000000" stroke="#000000" points="1244.8125,-115.8326 1234.3078,-117.2116 1243.3796,-122.6844 1244.8125,-115.8326"/>
<text text-anchor="middle" x="2046.2947" y="-144.8" font-family="Times,serif" font-size="14.00" fill="#000000">of_exposure</text>
</g>
<!-- sample&#45;&gt;participant -->
<g id="edge34" class="edge">
<title>sample&#45;&gt;participant</title>
<path fill="none" stroke="#000000" d="M2230.6669,-179.8843C2224.1337,-177.741 2217.2896,-175.6656 2210.7947,-174 2166.2038,-162.5648 2150.7998,-174.833 2108.7947,-156 2098.9774,-151.5984 2099.9193,-144.6394 2089.7947,-141 2003.7204,-110.0596 1357.5706,-134.2171 1266.7947,-123 1259.3203,-122.0764 1251.517,-120.7518 1243.8491,-119.2344"/>
<polygon fill="#000000" stroke="#000000" points="1244.3915,-115.7721 1233.8861,-117.146 1242.9553,-122.6232 1244.3915,-115.7721"/>
<text text-anchor="middle" x="2145.2947" y="-144.8" font-family="Times,serif" font-size="14.00" fill="#000000">of_sample</text>
</g>
<!-- sample&#45;&gt;pdx -->
<g id="edge33" class="edge">
<title>sample&#45;&gt;pdx</title>
<path fill="none" stroke="#000000" d="M2238.1017,-177.2389C2227.5936,-170.9675 2215.431,-163.4035 2204.7947,-156 2195.9644,-149.8536 2195.9203,-144.6365 2185.7947,-141 2097.4116,-109.2581 1432.0789,-145.0525 1340.7947,-123 1338.5944,-122.4685 1336.372,-121.7927 1334.1665,-121.0166"/>
<polygon fill="#000000" stroke="#000000" points="1335.3061,-117.7003 1324.7279,-117.1075 1332.6276,-124.1676 1335.3061,-117.7003"/>
<text text-anchor="middle" x="2241.2947" y="-144.8" font-family="Times,serif" font-size="14.00" fill="#000000">of_sample</text>
</g>
<!-- sample&#45;&gt;cell_line -->
<g id="edge32" class="edge">
<title>sample&#45;&gt;cell_line</title>
<path fill="none" stroke="#000000" d="M2303.1365,-183.7354C2335.1762,-175.3452 2372.1782,-160.7772 2352.7947,-141 2335.3894,-123.2411 1482.3507,-126.9153 1457.7947,-123 1453.3315,-122.2884 1448.7364,-121.3222 1444.1741,-120.2047"/>
<polygon fill="#000000" stroke="#000000" points="1444.8685,-116.7673 1434.3031,-117.5568 1443.0548,-123.5283 1444.8685,-116.7673"/>
<text text-anchor="middle" x="2394.2947" y="-144.8" font-family="Times,serif" font-size="14.00" fill="#000000">of_sample</text>
</g>
</g>
</svg>
