<svg width="3099pt" height="392pt"
 viewBox="0.00 0.00 3099.44 392.00" xmlns="http://www.w3.org/2000/svg" xmlns:xlink="http://www.w3.org/1999/xlink">
<g id="graph0" class="graph" transform="scale(1 1) rotate(0) translate(4 388)">
<title>Perl</title>
<polygon fill="#ffffff" stroke="transparent" points="-4,4 -4,-388 3095.44,-388 3095.44,4 -4,4"/>
<!-- treatment -->
<g id="node1" class="node">
<title>treatment</title>
<ellipse fill="none" stroke="#000000" cx="1122.3956" cy="-279" rx="57.6901" ry="18"/>
<text text-anchor="middle" x="1122.3956" y="-275.3" font-family="Times,serif" font-size="14.00" fill="#000000">treatment</text>
</g>
<!-- participant -->
<g id="node10" class="node">
<title>participant</title>
<ellipse fill="none" stroke="#000000" cx="1588.3956" cy="-192" rx="62.2891" ry="18"/>
<text text-anchor="middle" x="1588.3956" y="-188.3" font-family="Times,serif" font-size="14.00" fill="#000000">participant</text>
</g>
<!-- treatment&#45;&gt;participant -->
<g id="edge11" class="edge">
<title>treatment&#45;&gt;participant</title>
<path fill="none" stroke="#000000" d="M1116.3291,-260.7324C1113.9678,-249.869 1113.4537,-236.5777 1121.3956,-228 1134.5908,-213.7485 1388.2522,-200.7159 1516.0664,-195.0221"/>
<polygon fill="#000000" stroke="#000000" points="1516.3307,-198.5139 1526.1664,-194.5757 1516.0216,-191.5207 1516.3307,-198.5139"/>
<text text-anchor="middle" x="1168.3956" y="-231.8" font-family="Times,serif" font-size="14.00" fill="#000000">of_treatment</text>
</g>
<!-- diagnosis -->
<g id="node2" class="node">
<title>diagnosis</title>
<ellipse fill="none" stroke="#000000" cx="1373.3956" cy="-366" rx="54.6905" ry="18"/>
<text text-anchor="middle" x="1373.3956" y="-362.3" font-family="Times,serif" font-size="14.00" fill="#000000">diagnosis</text>
</g>
<!-- diagnosis&#45;&gt;participant -->
<g id="edge39" class="edge">
<title>diagnosis&#45;&gt;participant</title>
<path fill="none" stroke="#000000" d="M1375.7948,-347.9389C1379.653,-321.4211 1387.9769,-273.7148 1399.3956,-261 1430.3368,-226.5467 1479.916,-209.2731 1520.5323,-200.6254"/>
<polygon fill="#000000" stroke="#000000" points="1521.2605,-204.0492 1530.3808,-198.6575 1519.8888,-197.1849 1521.2605,-204.0492"/>
<text text-anchor="middle" x="1443.8956" y="-275.3" font-family="Times,serif" font-size="14.00" fill="#000000">of_diagnosis</text>
</g>
<!-- sample -->
<g id="node22" class="node">
<title>sample</title>
<ellipse fill="none" stroke="#000000" cx="776.3956" cy="-279" rx="44.393" ry="18"/>
<text text-anchor="middle" x="776.3956" y="-275.3" font-family="Times,serif" font-size="14.00" fill="#000000">sample</text>
</g>
<!-- diagnosis&#45;&gt;sample -->
<g id="edge38" class="edge">
<title>diagnosis&#45;&gt;sample</title>
<path fill="none" stroke="#000000" d="M1339.18,-351.9174C1304.0405,-337.5612 1253.1418,-317.1026 1243.3956,-315 1090.2695,-281.966 1047.2114,-313.1339 891.3956,-297 870.2559,-294.8111 847.0769,-291.3828 827.1019,-288.1029"/>
<polygon fill="#000000" stroke="#000000" points="827.4165,-284.607 816.976,-286.4086 826.2613,-291.511 827.4165,-284.607"/>
<text text-anchor="middle" x="1325.8956" y="-318.8" font-family="Times,serif" font-size="14.00" fill="#000000">of_diagnosis</text>
</g>
<!-- sequencing_file -->
<g id="node3" class="node">
<title>sequencing_file</title>
<ellipse fill="none" stroke="#000000" cx="1019.3956" cy="-366" rx="83.3857" ry="18"/>
<text text-anchor="middle" x="1019.3956" y="-362.3" font-family="Times,serif" font-size="14.00" fill="#000000">sequencing_file</text>
</g>
<!-- sequencing_file&#45;&gt;sample -->
<g id="edge3" class="edge">
<title>sequencing_file&#45;&gt;sample</title>
<path fill="none" stroke="#000000" d="M987.052,-349.3334C975.9519,-343.4262 963.5249,-336.603 952.3956,-330 941.8998,-323.7729 940.6148,-319.803 929.3956,-315 897.1663,-301.2025 858.7509,-292.1867 828.476,-286.6283"/>
<polygon fill="#000000" stroke="#000000" points="828.998,-283.1664 818.5417,-284.8739 827.7806,-290.0597 828.998,-283.1664"/>
<text text-anchor="middle" x="1018.8956" y="-318.8" font-family="Times,serif" font-size="14.00" fill="#000000">of_sequencing_file</text>
</g>
<!-- genetic_analysis -->
<g id="node4" class="node">
<title>genetic_analysis</title>
<ellipse fill="none" stroke="#000000" cx="1586.3956" cy="-366" rx="87.9851" ry="18"/>
<text text-anchor="middle" x="1586.3956" y="-362.3" font-family="Times,serif" font-size="14.00" fill="#000000">genetic_analysis</text>
</g>
<!-- genetic_analysis&#45;&gt;participant -->
<g id="edge15" class="edge">
<title>genetic_analysis&#45;&gt;participant</title>
<path fill="none" stroke="#000000" d="M1598.9902,-348.0958C1616.171,-321.3097 1642.9252,-269.5137 1625.3956,-228 1623.6219,-223.7995 1621.0919,-219.8467 1618.1763,-216.2092"/>
<polygon fill="#000000" stroke="#000000" points="1620.6735,-213.7543 1611.3213,-208.7756 1615.5275,-218.4997 1620.6735,-213.7543"/>
<text text-anchor="middle" x="1700.3956" y="-275.3" font-family="Times,serif" font-size="14.00" fill="#000000">of_genetic_analysis</text>
</g>
<!-- genetic_analysis&#45;&gt;sample -->
<g id="edge14" class="edge">
<title>genetic_analysis&#45;&gt;sample</title>
<path fill="none" stroke="#000000" d="M1536.814,-351.1091C1494.1862,-339.0239 1430.837,-322.762 1374.3956,-315 1161.5829,-285.7335 1105.2169,-317.6454 891.3956,-297 870.0582,-294.9398 846.6583,-291.4963 826.5688,-288.1697"/>
<polygon fill="#000000" stroke="#000000" points="827.1393,-284.7166 816.6958,-286.5009 825.9726,-291.6187 827.1393,-284.7166"/>
<text text-anchor="middle" x="1520.3956" y="-318.8" font-family="Times,serif" font-size="14.00" fill="#000000">of_genetic_analysis</text>
</g>
<!-- cell_line -->
<g id="node5" class="node">
<title>cell_line</title>
<ellipse fill="none" stroke="#000000" cx="49.3956" cy="-366" rx="49.2915" ry="18"/>
<text text-anchor="middle" x="49.3956" y="-362.3" font-family="Times,serif" font-size="14.00" fill="#000000">cell_line</text>
</g>
<!-- cell_line&#45;&gt;sample -->
<g id="edge23" class="edge">
<title>cell_line&#45;&gt;sample</title>
<path fill="none" stroke="#000000" d="M82.6651,-352.5748C114.2118,-340.4936 163.2198,-323.3908 207.3956,-315 304.9562,-296.4692 599.1391,-284.871 721.7856,-280.7221"/>
<polygon fill="#000000" stroke="#000000" points="722.1858,-284.2108 732.0632,-280.3783 721.9517,-277.2147 722.1858,-284.2108"/>
<text text-anchor="middle" x="247.8956" y="-318.8" font-family="Times,serif" font-size="14.00" fill="#000000">of_cell_line</text>
</g>
<!-- study -->
<g id="node27" class="node">
<title>study</title>
<ellipse fill="none" stroke="#000000" cx="1772.3956" cy="-18" rx="36.2938" ry="18"/>
<text text-anchor="middle" x="1772.3956" y="-14.3" font-family="Times,serif" font-size="14.00" fill="#000000">study</text>
</g>
<!-- cell_line&#45;&gt;study -->
<g id="edge24" class="edge">
<title>cell_line&#45;&gt;study</title>
<path fill="none" stroke="#000000" d="M38.4071,-348.4091C28.8074,-331.3379 16.3956,-304.3621 16.3956,-279 16.3956,-279 16.3956,-279 16.3956,-105 16.3956,6.9087 405.7237,-61.2759 517.3956,-54 759.2625,-38.2414 1528.0394,-22.6937 1725.7012,-18.8835"/>
<polygon fill="#000000" stroke="#000000" points="1725.8256,-22.3818 1735.7565,-18.6903 1725.6911,-15.3831 1725.8256,-22.3818"/>
<text text-anchor="middle" x="56.8956" y="-188.3" font-family="Times,serif" font-size="14.00" fill="#000000">of_cell_line</text>
</g>
<!-- generic_file -->
<g id="node6" class="node">
<title>generic_file</title>
<ellipse fill="none" stroke="#000000" cx="235.3956" cy="-366" rx="65.7887" ry="18"/>
<text text-anchor="middle" x="235.3956" y="-362.3" font-family="Times,serif" font-size="14.00" fill="#000000">generic_file</text>
</g>
<!-- generic_file&#45;&gt;participant -->
<g id="edge35" class="edge">
<title>generic_file&#45;&gt;participant</title>
<path fill="none" stroke="#000000" d="M239.1328,-347.7933C242.3647,-336.6696 248.188,-323.0748 258.3956,-315 417.8142,-188.8919 505.4973,-251.5496 707.3956,-228 863.167,-209.8307 1333.9621,-197.6842 1515.7147,-193.5588"/>
<polygon fill="#000000" stroke="#000000" points="1516.0499,-197.0523 1525.9684,-193.3277 1515.892,-190.054 1516.0499,-197.0523"/>
<text text-anchor="middle" x="395.3956" y="-275.3" font-family="Times,serif" font-size="14.00" fill="#000000">of_generic_file</text>
</g>
<!-- generic_file&#45;&gt;sample -->
<g id="edge36" class="edge">
<title>generic_file&#45;&gt;sample</title>
<path fill="none" stroke="#000000" d="M258.8236,-349.1198C276.4843,-337.3579 301.792,-322.485 326.3956,-315 398.8875,-292.9463 618.5937,-283.6696 721.7731,-280.4502"/>
<polygon fill="#000000" stroke="#000000" points="722.0918,-283.9422 731.9807,-280.1397 721.8789,-276.9455 722.0918,-283.9422"/>
<text text-anchor="middle" x="379.3956" y="-318.8" font-family="Times,serif" font-size="14.00" fill="#000000">of_generic_file</text>
</g>
<!-- generic_file&#45;&gt;study -->
<g id="edge34" class="edge">
<title>generic_file&#45;&gt;study</title>
<path fill="none" stroke="#000000" d="M249.8246,-347.9215C259.5928,-336.849 273.4117,-323.263 288.3956,-315 317.6574,-298.8634 337.9795,-320.8396 361.3956,-297 381.0392,-277.0011 375.3956,-263.5326 375.3956,-235.5 375.3956,-235.5 375.3956,-235.5 375.3956,-105 375.3956,-35.7854 1482.1784,-20.8587 1725.4756,-18.4135"/>
<polygon fill="#000000" stroke="#000000" points="1725.7822,-21.9108 1735.7473,-18.3126 1725.7134,-14.9111 1725.7822,-21.9108"/>
<text text-anchor="middle" x="428.3956" y="-188.3" font-family="Times,serif" font-size="14.00" fill="#000000">of_generic_file</text>
</g>
<!-- pathology_file -->
<g id="node7" class="node">
<title>pathology_file</title>
<ellipse fill="none" stroke="#000000" cx="395.3956" cy="-366" rx="76.0865" ry="18"/>
<text text-anchor="middle" x="395.3956" y="-362.3" font-family="Times,serif" font-size="14.00" fill="#000000">pathology_file</text>
</g>
<!-- pathology_file&#45;&gt;sample -->
<g id="edge30" class="edge">
<title>pathology_file&#45;&gt;sample</title>
<path fill="none" stroke="#000000" d="M412.7355,-348.2757C425.149,-336.7529 442.8814,-322.5205 461.3956,-315 507.3949,-296.3151 644.9886,-286.0872 722.2429,-281.6758"/>
<polygon fill="#000000" stroke="#000000" points="722.4804,-285.1681 732.2699,-281.1166 722.0905,-278.179 722.4804,-285.1681"/>
<text text-anchor="middle" x="522.3956" y="-318.8" font-family="Times,serif" font-size="14.00" fill="#000000">of_pathology_file</text>
</g>
<!-- pdx -->
<g id="node8" class="node">
<title>pdx</title>
<ellipse fill="none" stroke="#000000" cx="808.3956" cy="-192" rx="27.8951" ry="18"/>
<text text-anchor="middle" x="808.3956" y="-188.3" font-family="Times,serif" font-size="14.00" fill="#000000">pdx</text>
</g>
<!-- pdx&#45;&gt;sample -->
<g id="edge18" class="edge">
<title>pdx&#45;&gt;sample</title>
<path fill="none" stroke="#000000" d="M801.8832,-209.7057C797.461,-221.7284 791.5253,-237.8663 786.4946,-251.5434"/>
<polygon fill="#000000" stroke="#000000" points="783.1933,-250.38 783.026,-260.9735 789.763,-252.7965 783.1933,-250.38"/>
<text text-anchor="middle" x="818.3956" y="-231.8" font-family="Times,serif" font-size="14.00" fill="#000000">of_pdx</text>
</g>
<!-- pdx&#45;&gt;study -->
<g id="edge19" class="edge">
<title>pdx&#45;&gt;study</title>
<path fill="none" stroke="#000000" d="M834.895,-185.7123C925.0714,-164.5008 1228.5301,-94.6386 1482.3956,-54 1568.2278,-40.26 1669.0701,-28.7861 1726.383,-22.6997"/>
<polygon fill="#000000" stroke="#000000" points="1726.9866,-26.1555 1736.5646,-21.6266 1726.2528,-19.1941 1726.9866,-26.1555"/>
<text text-anchor="middle" x="1309.3956" y="-101.3" font-family="Times,serif" font-size="14.00" fill="#000000">of_pdx</text>
</g>
<!-- study_arm -->
<g id="node9" class="node">
<title>study_arm</title>
<ellipse fill="none" stroke="#000000" cx="1431.3956" cy="-105" rx="59.5901" ry="18"/>
<text text-anchor="middle" x="1431.3956" y="-101.3" font-family="Times,serif" font-size="14.00" fill="#000000">study_arm</text>
</g>
<!-- study_arm&#45;&gt;study -->
<g id="edge13" class="edge">
<title>study_arm&#45;&gt;study</title>
<path fill="none" stroke="#000000" d="M1454.764,-88.3135C1472.0624,-76.8057 1496.6497,-62.1635 1520.3956,-54 1557.4342,-41.2667 1663.9861,-28.9082 1726.0385,-22.5096"/>
<polygon fill="#000000" stroke="#000000" points="1726.7454,-25.9557 1736.3391,-21.46 1726.0358,-18.9918 1726.7454,-25.9557"/>
<text text-anchor="middle" x="1568.8956" y="-57.8" font-family="Times,serif" font-size="14.00" fill="#000000">of_study_arm</text>
</g>
<!-- consent_group -->
<g id="node12" class="node">
<title>consent_group</title>
<ellipse fill="none" stroke="#000000" cx="1588.3956" cy="-105" rx="79.0865" ry="18"/>
<text text-anchor="middle" x="1588.3956" y="-101.3" font-family="Times,serif" font-size="14.00" fill="#000000">consent_group</text>
</g>
<!-- participant&#45;&gt;consent_group -->
<g id="edge1" class="edge">
<title>participant&#45;&gt;consent_group</title>
<path fill="none" stroke="#000000" d="M1588.3956,-173.9735C1588.3956,-162.1918 1588.3956,-146.5607 1588.3956,-133.1581"/>
<polygon fill="#000000" stroke="#000000" points="1591.8957,-133.0033 1588.3956,-123.0034 1584.8957,-133.0034 1591.8957,-133.0033"/>
<text text-anchor="middle" x="1638.8956" y="-144.8" font-family="Times,serif" font-size="14.00" fill="#000000">of_participant</text>
</g>
<!-- exposure -->
<g id="node11" class="node">
<title>exposure</title>
<ellipse fill="none" stroke="#000000" cx="1550.3956" cy="-279" rx="53.0913" ry="18"/>
<text text-anchor="middle" x="1550.3956" y="-275.3" font-family="Times,serif" font-size="14.00" fill="#000000">exposure</text>
</g>
<!-- exposure&#45;&gt;participant -->
<g id="edge2" class="edge">
<title>exposure&#45;&gt;participant</title>
<path fill="none" stroke="#000000" d="M1540.4146,-261.2718C1536.0876,-251.1125 1533.0876,-238.3625 1538.3956,-228 1541.0823,-222.755 1544.9283,-218.1002 1549.3103,-214.0245"/>
<polygon fill="#000000" stroke="#000000" points="1551.5273,-216.7328 1557.0807,-207.7101 1547.1127,-211.3003 1551.5273,-216.7328"/>
<text text-anchor="middle" x="1581.8956" y="-231.8" font-family="Times,serif" font-size="14.00" fill="#000000">of_exposure</text>
</g>
<!-- consent_group&#45;&gt;study -->
<g id="edge8" class="edge">
<title>consent_group&#45;&gt;study</title>
<path fill="none" stroke="#000000" d="M1602.8999,-87.056C1612.6981,-76.0371 1626.5222,-62.4603 1641.3956,-54 1667.8202,-38.9691 1700.8436,-29.948 1727.1228,-24.6953"/>
<polygon fill="#000000" stroke="#000000" points="1728.0208,-28.0878 1737.2002,-22.7975 1726.7252,-21.2087 1728.0208,-28.0878"/>
<text text-anchor="middle" x="1704.8956" y="-57.8" font-family="Times,serif" font-size="14.00" fill="#000000">of_consent_group</text>
</g>
<!-- study_personnel -->
<g id="node13" class="node">
<title>study_personnel</title>
<ellipse fill="none" stroke="#000000" cx="1772.3956" cy="-105" rx="87.1846" ry="18"/>
<text text-anchor="middle" x="1772.3956" y="-101.3" font-family="Times,serif" font-size="14.00" fill="#000000">study_personnel</text>
</g>
<!-- study_personnel&#45;&gt;study -->
<g id="edge25" class="edge">
<title>study_personnel&#45;&gt;study</title>
<path fill="none" stroke="#000000" d="M1772.3956,-86.9735C1772.3956,-75.1918 1772.3956,-59.5607 1772.3956,-46.1581"/>
<polygon fill="#000000" stroke="#000000" points="1775.8957,-46.0033 1772.3956,-36.0034 1768.8957,-46.0034 1775.8957,-46.0033"/>
<text text-anchor="middle" x="1841.8956" y="-57.8" font-family="Times,serif" font-size="14.00" fill="#000000">of_study_personnel</text>
</g>
<!-- family_relationship -->
<g id="node14" class="node">
<title>family_relationship</title>
<ellipse fill="none" stroke="#000000" cx="2018.3956" cy="-279" rx="100.1823" ry="18"/>
<text text-anchor="middle" x="2018.3956" y="-275.3" font-family="Times,serif" font-size="14.00" fill="#000000">family_relationship</text>
</g>
<!-- family_relationship&#45;&gt;participant -->
<g id="edge29" class="edge">
<title>family_relationship&#45;&gt;participant</title>
<path fill="none" stroke="#000000" d="M1967.0416,-263.4204C1929.2475,-252.3773 1876.47,-237.8331 1829.3956,-228 1771.5977,-215.927 1705.1865,-206.3176 1656.7342,-200.0741"/>
<polygon fill="#000000" stroke="#000000" points="1657.0393,-196.5848 1646.6772,-198.7932 1656.1548,-203.5287 1657.0393,-196.5848"/>
<text text-anchor="middle" x="1970.8956" y="-231.8" font-family="Times,serif" font-size="14.00" fill="#000000">of_family_relationship</text>
</g>
<!-- treatment_response -->
<g id="node15" class="node">
<title>treatment_response</title>
<ellipse fill="none" stroke="#000000" cx="2241.3956" cy="-279" rx="104.7816" ry="18"/>
<text text-anchor="middle" x="2241.3956" y="-275.3" font-family="Times,serif" font-size="14.00" fill="#000000">treatment_response</text>
</g>
<!-- treatment_response&#45;&gt;participant -->
<g id="edge22" class="edge">
<title>treatment_response&#45;&gt;participant</title>
<path fill="none" stroke="#000000" d="M2192.7517,-263.0098C2155.3406,-251.3801 2102.1407,-236.2782 2054.3956,-228 1916.647,-204.1168 1753.2386,-196.0749 1661.1019,-193.3694"/>
<polygon fill="#000000" stroke="#000000" points="1661.1399,-189.8691 1651.0456,-193.087 1660.9434,-196.8664 1661.1399,-189.8691"/>
<text text-anchor="middle" x="2204.3956" y="-231.8" font-family="Times,serif" font-size="14.00" fill="#000000">of_treatment_response</text>
</g>
<!-- survival -->
<g id="node16" class="node">
<title>survival</title>
<ellipse fill="none" stroke="#000000" cx="2412.3956" cy="-279" rx="48.1917" ry="18"/>
<text text-anchor="middle" x="2412.3956" y="-275.3" font-family="Times,serif" font-size="14.00" fill="#000000">survival</text>
</g>
<!-- survival&#45;&gt;participant -->
<g id="edge17" class="edge">
<title>survival&#45;&gt;participant</title>
<path fill="none" stroke="#000000" d="M2380.6797,-265.3109C2346.4132,-250.5697 2296.0483,-229.065 2291.3956,-228 2173.2699,-200.9604 1816.2722,-194.2102 1661.3922,-192.5411"/>
<polygon fill="#000000" stroke="#000000" points="1661.0774,-189.0378 1651.0417,-192.4339 1661.0049,-196.0374 1661.0774,-189.0378"/>
<text text-anchor="middle" x="2365.8956" y="-231.8" font-family="Times,serif" font-size="14.00" fill="#000000">of_survival</text>
</g>
<!-- cytogenomic_file -->
<g id="node17" class="node">
<title>cytogenomic_file</title>
<ellipse fill="none" stroke="#000000" cx="579.3956" cy="-366" rx="89.8845" ry="18"/>
<text text-anchor="middle" x="579.3956" y="-362.3" font-family="Times,serif" font-size="14.00" fill="#000000">cytogenomic_file</text>
</g>
<!-- cytogenomic_file&#45;&gt;sample -->
<g id="edge20" class="edge">
<title>cytogenomic_file&#45;&gt;sample</title>
<path fill="none" stroke="#000000" d="M581.2902,-347.9118C583.4086,-336.8354 587.895,-323.2488 597.3956,-315 615.8654,-298.9639 677.1188,-289.1792 722.8597,-283.9365"/>
<polygon fill="#000000" stroke="#000000" points="723.3904,-287.3992 732.9465,-282.8241 722.6231,-280.4414 723.3904,-287.3992"/>
<text text-anchor="middle" x="668.8956" y="-318.8" font-family="Times,serif" font-size="14.00" fill="#000000">of_cytogenomic_file</text>
</g>
<!-- medical_history -->
<g id="node18" class="node">
<title>medical_history</title>
<ellipse fill="none" stroke="#000000" cx="2563.3956" cy="-279" rx="85.2851" ry="18"/>
<text text-anchor="middle" x="2563.3956" y="-275.3" font-family="Times,serif" font-size="14.00" fill="#000000">medical_history</text>
</g>
<!-- medical_history&#45;&gt;participant -->
<g id="edge7" class="edge">
<title>medical_history&#45;&gt;participant</title>
<path fill="none" stroke="#000000" d="M2501.4221,-266.5031C2478.5521,-260.7911 2452.7726,-253.0231 2430.3956,-243 2419.2578,-238.0112 2419.0145,-231.7336 2407.3956,-228 2337.5013,-205.5404 1848.2579,-195.8991 1661.0353,-193.0033"/>
<polygon fill="#000000" stroke="#000000" points="1661.0648,-189.5035 1651.0125,-192.8503 1660.9579,-196.5027 1661.0648,-189.5035"/>
<text text-anchor="middle" x="2498.3956" y="-231.8" font-family="Times,serif" font-size="14.00" fill="#000000">of_medical_history</text>
</g>
<!-- study_admin -->
<g id="node19" class="node">
<title>study_admin</title>
<ellipse fill="none" stroke="#000000" cx="1947.3956" cy="-105" rx="70.3881" ry="18"/>
<text text-anchor="middle" x="1947.3956" y="-101.3" font-family="Times,serif" font-size="14.00" fill="#000000">study_admin</text>
</g>
<!-- study_admin&#45;&gt;study -->
<g id="edge21" class="edge">
<title>study_admin&#45;&gt;study</title>
<path fill="none" stroke="#000000" d="M1940.2393,-86.9027C1934.962,-75.8226 1926.7255,-62.2353 1915.3956,-54 1899.8461,-42.6976 1853.3297,-32.2671 1817.5293,-25.575"/>
<polygon fill="#000000" stroke="#000000" points="1817.7467,-22.057 1807.2809,-23.7053 1816.4903,-28.9433 1817.7467,-22.057"/>
<text text-anchor="middle" x="1984.8956" y="-57.8" font-family="Times,serif" font-size="14.00" fill="#000000">of_study_admin</text>
</g>
<!-- radiology_file -->
<g id="node20" class="node">
<title>radiology_file</title>
<ellipse fill="none" stroke="#000000" cx="973.3956" cy="-279" rx="73.387" ry="18"/>
<text text-anchor="middle" x="973.3956" y="-275.3" font-family="Times,serif" font-size="14.00" fill="#000000">radiology_file</text>
</g>
<!-- radiology_file&#45;&gt;participant -->
<g id="edge6" class="edge">
<title>radiology_file&#45;&gt;participant</title>
<path fill="none" stroke="#000000" d="M975.1981,-260.9274C977.3507,-249.5614 982.0675,-235.6457 992.3956,-228 1013.113,-212.6633 1361.5175,-199.4239 1515.8295,-194.2831"/>
<polygon fill="#000000" stroke="#000000" points="1516.2738,-197.7704 1526.1526,-193.9416 1516.0423,-190.7742 1516.2738,-197.7704"/>
<text text-anchor="middle" x="1051.3956" y="-231.8" font-family="Times,serif" font-size="14.00" fill="#000000">of_radiology_file</text>
</g>
<!-- study_funding -->
<g id="node21" class="node">
<title>study_funding</title>
<ellipse fill="none" stroke="#000000" cx="2113.3956" cy="-105" rx="77.1866" ry="18"/>
<text text-anchor="middle" x="2113.3956" y="-101.3" font-family="Times,serif" font-size="14.00" fill="#000000">study_funding</text>
</g>
<!-- study_funding&#45;&gt;study -->
<g id="edge12" class="edge">
<title>study_funding&#45;&gt;study</title>
<path fill="none" stroke="#000000" d="M2095.3906,-87.3848C2082.5387,-75.9107 2064.2518,-61.6916 2045.3956,-54 2005.3741,-37.6749 1885.6823,-26.4507 1818.8389,-21.2665"/>
<polygon fill="#000000" stroke="#000000" points="1818.8217,-17.7552 1808.585,-20.4865 1818.2907,-24.735 1818.8217,-17.7552"/>
<text text-anchor="middle" x="2133.3956" y="-57.8" font-family="Times,serif" font-size="14.00" fill="#000000">of_study_funding</text>
</g>
<!-- sample&#45;&gt;cell_line -->
<g id="edge33" class="edge">
<title>sample&#45;&gt;cell_line</title>
<path fill="none" stroke="#000000" d="M732.3712,-280.954C579.4604,-287.7784 80.269,-310.3873 73.3956,-315 65.2803,-320.4461 59.8442,-329.4053 56.232,-338.3075"/>
<polygon fill="#000000" stroke="#000000" points="52.9181,-337.1814 52.9877,-347.776 59.5402,-339.4504 52.9181,-337.1814"/>
<text text-anchor="middle" x="109.8956" y="-318.8" font-family="Times,serif" font-size="14.00" fill="#000000">of_sample</text>
</g>
<!-- sample&#45;&gt;pdx -->
<g id="edge32" class="edge">
<title>sample&#45;&gt;pdx</title>
<path fill="none" stroke="#000000" d="M742.9307,-266.9781C722.9165,-257.8221 703.3373,-244.0766 714.3956,-228 721.3282,-217.9214 748.7911,-208.0996 772.2559,-201.2681"/>
<polygon fill="#000000" stroke="#000000" points="773.3155,-204.6059 781.9959,-198.5313 771.4219,-197.8669 773.3155,-204.6059"/>
<text text-anchor="middle" x="750.8956" y="-231.8" font-family="Times,serif" font-size="14.00" fill="#000000">of_sample</text>
</g>
<!-- sample&#45;&gt;participant -->
<g id="edge31" class="edge">
<title>sample&#45;&gt;participant</title>
<path fill="none" stroke="#000000" d="M804.289,-264.6799C829.4667,-252.5202 867.8968,-235.8334 903.3956,-228 1018.3526,-202.633 1364.3085,-194.9758 1515.9004,-192.8039"/>
<polygon fill="#000000" stroke="#000000" points="1516.0865,-196.3017 1526.0368,-192.6627 1515.989,-189.3024 1516.0865,-196.3017"/>
<text text-anchor="middle" x="939.8956" y="-231.8" font-family="Times,serif" font-size="14.00" fill="#000000">of_sample</text>
</g>
<!-- clinical_measure_file -->
<g id="node23" class="node">
<title>clinical_measure_file</title>
<ellipse fill="none" stroke="#000000" cx="2775.3956" cy="-279" rx="108.5808" ry="18"/>
<text text-anchor="middle" x="2775.3956" y="-275.3" font-family="Times,serif" font-size="14.00" fill="#000000">clinical_measure_file</text>
</g>
<!-- clinical_measure_file&#45;&gt;participant -->
<g id="edge10" class="edge">
<title>clinical_measure_file&#45;&gt;participant</title>
<path fill="none" stroke="#000000" d="M2695.5651,-266.6747C2654.3224,-259.6859 2608.6799,-250.8041 2589.3956,-243 2578.0829,-238.4218 2578.0278,-231.6921 2566.3956,-228 2481.0517,-200.9114 1873.1391,-194.0246 1661.12,-192.4371"/>
<polygon fill="#000000" stroke="#000000" points="1661.0511,-188.9366 1651.0257,-192.3633 1660.9998,-195.9365 1661.0511,-188.9366"/>
<text text-anchor="middle" x="2675.3956" y="-231.8" font-family="Times,serif" font-size="14.00" fill="#000000">of_clinical_measure_file</text>
</g>
<!-- clinical_measure_file&#45;&gt;study -->
<g id="edge9" class="edge">
<title>clinical_measure_file&#45;&gt;study</title>
<path fill="none" stroke="#000000" d="M2774.6574,-260.8237C2773.2847,-249.9947 2769.826,-236.7075 2761.3956,-228 2579.5181,-40.1438 2456.0573,-103.9414 2199.3956,-54 2127.6011,-40.0302 1914.1863,-26.2821 1819.0582,-20.6566"/>
<polygon fill="#000000" stroke="#000000" points="1819.0603,-17.1508 1808.8723,-20.0586 1818.6499,-24.1388 1819.0603,-17.1508"/>
<text text-anchor="middle" x="2762.3956" y="-144.8" font-family="Times,serif" font-size="14.00" fill="#000000">of_clinical_measure_file</text>
</g>
<!-- synonym -->
<g id="node24" class="node">
<title>synonym</title>
<ellipse fill="none" stroke="#000000" cx="1815.3956" cy="-366" rx="51.9908" ry="18"/>
<text text-anchor="middle" x="1815.3956" y="-362.3" font-family="Times,serif" font-size="14.00" fill="#000000">synonym</text>
</g>
<!-- synonym&#45;&gt;participant -->
<g id="edge27" class="edge">
<title>synonym&#45;&gt;participant</title>
<path fill="none" stroke="#000000" d="M1812.9447,-347.9302C1808.8923,-324.8002 1798.6776,-284.8718 1774.3956,-261 1741.9044,-229.0577 1693.3246,-211.7026 1653.9603,-202.3885"/>
<polygon fill="#000000" stroke="#000000" points="1654.6902,-198.9653 1644.1663,-200.1897 1653.1568,-205.7953 1654.6902,-198.9653"/>
<text text-anchor="middle" x="1839.8956" y="-275.3" font-family="Times,serif" font-size="14.00" fill="#000000">of_synonym</text>
</g>
<!-- synonym&#45;&gt;sample -->
<g id="edge28" class="edge">
<title>synonym&#45;&gt;sample</title>
<path fill="none" stroke="#000000" d="M1775.5066,-354.2361C1731.5832,-341.8862 1658.6547,-323.1528 1594.3956,-315 1284.3343,-275.6615 1202.6654,-325.2253 891.3956,-297 870.0466,-295.0641 846.6447,-291.642 826.5568,-288.2976"/>
<polygon fill="#000000" stroke="#000000" points="827.1306,-284.845 816.685,-286.6168 825.9556,-291.7457 827.1306,-284.845"/>
<text text-anchor="middle" x="1715.8956" y="-318.8" font-family="Times,serif" font-size="14.00" fill="#000000">of_synonym</text>
</g>
<!-- synonym&#45;&gt;study -->
<g id="edge26" class="edge">
<title>synonym&#45;&gt;study</title>
<path fill="none" stroke="#000000" d="M1867.2618,-364.7314C2087.925,-358.9993 2937.3956,-333.4001 2937.3956,-279 2937.3956,-279 2937.3956,-279 2937.3956,-105 2937.3956,-47.9094 2035.9638,-23.9396 1818.9657,-18.9965"/>
<polygon fill="#000000" stroke="#000000" points="1818.9382,-15.4951 1808.8619,-18.7689 1818.7805,-22.4933 1818.9382,-15.4951"/>
<text text-anchor="middle" x="2979.8956" y="-188.3" font-family="Times,serif" font-size="14.00" fill="#000000">of_synonym</text>
</g>
<!-- laboratory_test -->
<g id="node25" class="node">
<title>laboratory_test</title>
<ellipse fill="none" stroke="#000000" cx="1211.3956" cy="-366" rx="81.7856" ry="18"/>
<text text-anchor="middle" x="1211.3956" y="-362.3" font-family="Times,serif" font-size="14.00" fill="#000000">laboratory_test</text>
</g>
<!-- laboratory_test&#45;&gt;participant -->
<g id="edge5" class="edge">
<title>laboratory_test&#45;&gt;participant</title>
<path fill="none" stroke="#000000" d="M1228.1597,-348.0949C1232.4453,-342.6427 1236.621,-336.3915 1239.3956,-330 1251.7617,-301.5144 1228.9175,-283.4285 1250.3956,-261 1286.4057,-223.3965 1429.4094,-205.0437 1517.4642,-197.1379"/>
<polygon fill="#000000" stroke="#000000" points="1517.9976,-200.6048 1527.655,-196.2475 1517.3882,-193.6313 1517.9976,-200.6048"/>
<text text-anchor="middle" x="1315.8956" y="-275.3" font-family="Times,serif" font-size="14.00" fill="#000000">of_laboratory_test</text>
</g>
<!-- laboratory_test&#45;&gt;sample -->
<g id="edge4" class="edge">
<title>laboratory_test&#45;&gt;sample</title>
<path fill="none" stroke="#000000" d="M1162.203,-351.5009C1144.8287,-345.6817 1125.3938,-338.3598 1108.3956,-330 1097.4444,-324.6141 1096.9204,-319.0147 1085.3956,-315 1003.6227,-286.5138 977.3245,-307.7006 891.3956,-297 870.3912,-294.3844 847.3233,-290.8958 827.3967,-287.6866"/>
<polygon fill="#000000" stroke="#000000" points="827.723,-284.1937 817.2902,-286.0399 826.5972,-291.1026 827.723,-284.1937"/>
<text text-anchor="middle" x="1173.8956" y="-318.8" font-family="Times,serif" font-size="14.00" fill="#000000">of_laboratory_test</text>
</g>
<!-- methylation_array_file -->
<g id="node26" class="node">
<title>methylation_array_file</title>
<ellipse fill="none" stroke="#000000" cx="802.3956" cy="-366" rx="115.8798" ry="18"/>
<text text-anchor="middle" x="802.3956" y="-362.3" font-family="Times,serif" font-size="14.00" fill="#000000">methylation_array_file</text>
</g>
<!-- methylation_array_file&#45;&gt;sample -->
<g id="edge37" class="edge">
<title>methylation_array_file&#45;&gt;sample</title>
<path fill="none" stroke="#000000" d="M764.2282,-348.8693C757.0759,-343.8486 750.5494,-337.6084 746.3956,-330 741.5962,-321.2092 744.8043,-311.7167 750.6165,-303.3322"/>
<polygon fill="#000000" stroke="#000000" points="753.4902,-305.3463 757.0966,-295.3841 748.0649,-300.923 753.4902,-305.3463"/>
<text text-anchor="middle" x="837.8956" y="-318.8" font-family="Times,serif" font-size="14.00" fill="#000000">of_methylation_array_file</text>
</g>
<!-- publication -->
<g id="node28" class="node">
<title>publication</title>
<ellipse fill="none" stroke="#000000" cx="3028.3956" cy="-105" rx="63.0888" ry="18"/>
<text text-anchor="middle" x="3028.3956" y="-101.3" font-family="Times,serif" font-size="14.00" fill="#000000">publication</text>
</g>
<!-- publication&#45;&gt;study -->
<g id="edge16" class="edge">
<title>publication&#45;&gt;study</title>
<path fill="none" stroke="#000000" d="M3009.0958,-87.7702C2994.4125,-75.8345 2973.0946,-60.8973 2951.3956,-54 2896.6382,-36.5947 2031.5147,-22.0353 1819.1786,-18.7121"/>
<polygon fill="#000000" stroke="#000000" points="1819.0432,-15.2096 1808.9899,-18.5534 1818.9342,-22.2088 1819.0432,-15.2096"/>
<text text-anchor="middle" x="3031.3956" y="-57.8" font-family="Times,serif" font-size="14.00" fill="#000000">of_publication</text>
</g>
</g>
</svg>
