<svg width="2394pt" height="305pt"
 viewBox="0.00 0.00 2394.28 305.00" xmlns="http://www.w3.org/2000/svg" xmlns:xlink="http://www.w3.org/1999/xlink">
<g id="graph0" class="graph" transform="scale(1 1) rotate(0) translate(4 301)">
<title>Perl</title>
<polygon fill="#ffffff" stroke="transparent" points="-4,4 -4,-301 2390.2849,-301 2390.2849,4 -4,4"/>
<!-- diagnosis -->
<g id="node1" class="node">
<title>diagnosis</title>
<ellipse fill="none" stroke="#000000" cx="853.1926" cy="-192" rx="54.6905" ry="18"/>
<text text-anchor="middle" x="853.1926" y="-188.3" font-family="Times,serif" font-size="14.00" fill="#000000">diagnosis</text>
</g>
<!-- participant -->
<g id="node15" class="node">
<title>participant</title>
<ellipse fill="none" stroke="#000000" cx="987.1926" cy="-105" rx="62.2891" ry="18"/>
<text text-anchor="middle" x="987.1926" y="-101.3" font-family="Times,serif" font-size="14.00" fill="#000000">participant</text>
</g>
<!-- diagnosis&#45;&gt;participant -->
<g id="edge31" class="edge">
<title>diagnosis&#45;&gt;participant</title>
<path fill="none" stroke="#000000" d="M879.1887,-176.0255C888.7572,-169.9541 899.5965,-162.848 909.1926,-156 917.9502,-149.7504 919.3623,-147.1464 928.1926,-141 935.2711,-136.0729 943.0257,-131.0747 950.5187,-126.4338"/>
<polygon fill="#000000" stroke="#000000" points="952.4244,-129.3712 959.1386,-121.1754 948.7789,-123.3953 952.4244,-129.3712"/>
<text text-anchor="middle" x="972.6926" y="-144.8" font-family="Times,serif" font-size="14.00" fill="#000000">of_diagnosis</text>
</g>
<!-- therapeutic_procedure -->
<g id="node2" class="node">
<title>therapeutic_procedure</title>
<ellipse fill="none" stroke="#000000" cx="1043.1926" cy="-192" rx="117.7793" ry="18"/>
<text text-anchor="middle" x="1043.1926" y="-188.3" font-family="Times,serif" font-size="14.00" fill="#000000">therapeutic_procedure</text>
</g>
<!-- therapeutic_procedure&#45;&gt;participant -->
<g id="edge27" class="edge">
<title>therapeutic_procedure&#45;&gt;participant</title>
<path fill="none" stroke="#000000" d="M1037.102,-173.7542C1033.3057,-163.6626 1027.8719,-151.1494 1021.1926,-141 1018.679,-137.1805 1015.7422,-133.3941 1012.6666,-129.792"/>
<polygon fill="#000000" stroke="#000000" points="1015.1375,-127.3067 1005.8223,-122.2593 1009.9567,-132.0141 1015.1375,-127.3067"/>
<text text-anchor="middle" x="1122.1926" y="-144.8" font-family="Times,serif" font-size="14.00" fill="#000000">of_therapeutic_procedure</text>
</g>
<!-- study_admin -->
<g id="node3" class="node">
<title>study_admin</title>
<ellipse fill="none" stroke="#000000" cx="103.1926" cy="-105" rx="70.3881" ry="18"/>
<text text-anchor="middle" x="103.1926" y="-101.3" font-family="Times,serif" font-size="14.00" fill="#000000">study_admin</text>
</g>
<!-- study -->
<g id="node11" class="node">
<title>study</title>
<ellipse fill="none" stroke="#000000" cx="683.1926" cy="-18" rx="36.2938" ry="18"/>
<text text-anchor="middle" x="683.1926" y="-14.3" font-family="Times,serif" font-size="14.00" fill="#000000">study</text>
</g>
<!-- study_admin&#45;&gt;study -->
<g id="edge19" class="edge">
<title>study_admin&#45;&gt;study</title>
<path fill="none" stroke="#000000" d="M97.9761,-86.6352C96.0911,-75.7352 96.1042,-62.4396 104.1926,-54 122.5121,-34.8851 501.4804,-22.8809 636.1863,-19.2045"/>
<polygon fill="#000000" stroke="#000000" points="636.6789,-22.6926 646.5809,-18.9241 636.4901,-15.6951 636.6789,-22.6926"/>
<text text-anchor="middle" x="160.6926" y="-57.8" font-family="Times,serif" font-size="14.00" fill="#000000">of_study_admin</text>
</g>
<!-- family_relationship -->
<g id="node4" class="node">
<title>family_relationship</title>
<ellipse fill="none" stroke="#000000" cx="1279.1926" cy="-192" rx="100.1823" ry="18"/>
<text text-anchor="middle" x="1279.1926" y="-188.3" font-family="Times,serif" font-size="14.00" fill="#000000">family_relationship</text>
</g>
<!-- family_relationship&#45;&gt;participant -->
<g id="edge4" class="edge">
<title>family_relationship&#45;&gt;participant</title>
<path fill="none" stroke="#000000" d="M1263.2502,-173.7533C1252.1245,-162.3139 1236.2574,-148.3817 1219.1926,-141 1153.5142,-112.5898 1129.6153,-135.706 1059.1926,-123 1053.8036,-122.0277 1048.2195,-120.8821 1042.6537,-119.6476"/>
<polygon fill="#000000" stroke="#000000" points="1043.2322,-116.1891 1032.7009,-117.3477 1041.656,-123.0094 1043.2322,-116.1891"/>
<text text-anchor="middle" x="1321.6926" y="-144.8" font-family="Times,serif" font-size="14.00" fill="#000000">of_family_relationship</text>
</g>
<!-- sequencing_file -->
<g id="node5" class="node">
<title>sequencing_file</title>
<ellipse fill="none" stroke="#000000" cx="83.1926" cy="-279" rx="83.3857" ry="18"/>
<text text-anchor="middle" x="83.1926" y="-275.3" font-family="Times,serif" font-size="14.00" fill="#000000">sequencing_file</text>
</g>
<!-- sample -->
<g id="node24" class="node">
<title>sample</title>
<ellipse fill="none" stroke="#000000" cx="372.1926" cy="-192" rx="44.393" ry="18"/>
<text text-anchor="middle" x="372.1926" y="-188.3" font-family="Times,serif" font-size="14.00" fill="#000000">sample</text>
</g>
<!-- sequencing_file&#45;&gt;sample -->
<g id="edge30" class="edge">
<title>sequencing_file&#45;&gt;sample</title>
<path fill="none" stroke="#000000" d="M90.1784,-260.9743C95.545,-249.6281 104.1028,-235.7168 116.1926,-228 148.6919,-207.256 252.8743,-198.1409 317.8848,-194.3891"/>
<polygon fill="#000000" stroke="#000000" points="318.1736,-197.8786 327.9652,-193.8321 317.7873,-190.8892 318.1736,-197.8786"/>
<text text-anchor="middle" x="182.6926" y="-231.8" font-family="Times,serif" font-size="14.00" fill="#000000">of_sequencing_file</text>
</g>
<!-- cell_line -->
<g id="node6" class="node">
<title>cell_line</title>
<ellipse fill="none" stroke="#000000" cx="250.1926" cy="-279" rx="49.2915" ry="18"/>
<text text-anchor="middle" x="250.1926" y="-275.3" font-family="Times,serif" font-size="14.00" fill="#000000">cell_line</text>
</g>
<!-- cell_line&#45;&gt;study -->
<g id="edge22" class="edge">
<title>cell_line&#45;&gt;study</title>
<path fill="none" stroke="#000000" d="M245.8872,-260.956C238.0151,-223.0168 226.0614,-134.5693 272.1926,-87 321.946,-35.6956 539.6619,-22.4835 636.4834,-19.1249"/>
<polygon fill="#000000" stroke="#000000" points="636.6911,-22.6201 646.5716,-18.7956 636.4627,-15.6238 636.6911,-22.6201"/>
<text text-anchor="middle" x="284.6926" y="-144.8" font-family="Times,serif" font-size="14.00" fill="#000000">of_cell_line</text>
</g>
<!-- cell_line&#45;&gt;sample -->
<g id="edge21" class="edge">
<title>cell_line&#45;&gt;sample</title>
<path fill="none" stroke="#000000" d="M249.7928,-260.9389C250.5026,-250.1532 253.1766,-236.8711 261.1926,-228 269.856,-218.4125 297.4476,-209.4409 322.9522,-202.852"/>
<polygon fill="#000000" stroke="#000000" points="324.0939,-206.1746 332.9494,-200.3582 322.3996,-199.3827 324.0939,-206.1746"/>
<text text-anchor="middle" x="301.6926" y="-231.8" font-family="Times,serif" font-size="14.00" fill="#000000">of_cell_line</text>
</g>
<!-- study_arm -->
<g id="node7" class="node">
<title>study_arm</title>
<ellipse fill="none" stroke="#000000" cx="341.1926" cy="-105" rx="59.5901" ry="18"/>
<text text-anchor="middle" x="341.1926" y="-101.3" font-family="Times,serif" font-size="14.00" fill="#000000">study_arm</text>
</g>
<!-- study_arm&#45;&gt;study -->
<g id="edge8" class="edge">
<title>study_arm&#45;&gt;study</title>
<path fill="none" stroke="#000000" d="M356.0497,-87.331C366.7885,-75.8329 382.3248,-61.6072 399.1926,-54 440.5625,-35.3426 567.4378,-24.9841 636.7696,-20.5788"/>
<polygon fill="#000000" stroke="#000000" points="637.2081,-24.0585 646.9727,-19.9472 636.7755,-17.0719 637.2081,-24.0585"/>
<text text-anchor="middle" x="447.6926" y="-57.8" font-family="Times,serif" font-size="14.00" fill="#000000">of_study_arm</text>
</g>
<!-- synonym -->
<g id="node8" class="node">
<title>synonym</title>
<ellipse fill="none" stroke="#000000" cx="1769.1926" cy="-279" rx="51.9908" ry="18"/>
<text text-anchor="middle" x="1769.1926" y="-275.3" font-family="Times,serif" font-size="14.00" fill="#000000">synonym</text>
</g>
<!-- synonym&#45;&gt;study -->
<g id="edge2" class="edge">
<title>synonym&#45;&gt;study</title>
<path fill="none" stroke="#000000" d="M1821.4623,-277.8853C1918.7851,-274.5873 2121.853,-261.5442 2165.1926,-210 2175.4896,-197.7537 2172.9608,-187.9877 2165.1926,-174 2093.6005,-45.0883 974.1296,-22.0605 729.9778,-18.5643"/>
<polygon fill="#000000" stroke="#000000" points="729.7233,-15.0605 719.6756,-18.421 729.6259,-22.0598 729.7233,-15.0605"/>
<text text-anchor="middle" x="2187.6926" y="-144.8" font-family="Times,serif" font-size="14.00" fill="#000000">of_synonym</text>
</g>
<!-- synonym&#45;&gt;participant -->
<g id="edge1" class="edge">
<title>synonym&#45;&gt;participant</title>
<path fill="none" stroke="#000000" d="M1770.2695,-260.5636C1770.9312,-229.4826 1767.0199,-167.4626 1728.1926,-141 1697.4695,-120.0608 1096.0297,-128.0387 1059.1926,-123 1053.4679,-122.217 1047.5395,-121.1559 1041.6545,-119.9383"/>
<polygon fill="#000000" stroke="#000000" points="1042.3552,-116.5088 1031.8348,-117.7628 1040.841,-123.343 1042.3552,-116.5088"/>
<text text-anchor="middle" x="1808.6926" y="-188.3" font-family="Times,serif" font-size="14.00" fill="#000000">of_synonym</text>
</g>
<!-- synonym&#45;&gt;sample -->
<g id="edge3" class="edge">
<title>synonym&#45;&gt;sample</title>
<path fill="none" stroke="#000000" d="M1719.6359,-273.3252C1622.3284,-262.4366 1399.3639,-238.7413 1211.1926,-228 1036.7641,-218.0432 597.2321,-240.4444 425.1926,-210 421.4817,-209.3433 417.6788,-208.4725 413.8969,-207.4675"/>
<polygon fill="#000000" stroke="#000000" points="414.5949,-204.0243 404.013,-204.5488 412.6124,-210.7377 414.5949,-204.0243"/>
<text text-anchor="middle" x="1452.6926" y="-231.8" font-family="Times,serif" font-size="14.00" fill="#000000">of_synonym</text>
</g>
<!-- clinical_measure_file -->
<g id="node9" class="node">
<title>clinical_measure_file</title>
<ellipse fill="none" stroke="#000000" cx="543.1926" cy="-192" rx="108.5808" ry="18"/>
<text text-anchor="middle" x="543.1926" y="-188.3" font-family="Times,serif" font-size="14.00" fill="#000000">clinical_measure_file</text>
</g>
<!-- clinical_measure_file&#45;&gt;study -->
<g id="edge25" class="edge">
<title>clinical_measure_file&#45;&gt;study</title>
<path fill="none" stroke="#000000" d="M560.2777,-173.9472C565.4866,-168.2885 571.1631,-161.9622 576.1926,-156 608.4339,-117.7794 643.5462,-71.5243 664.4465,-43.4533"/>
<polygon fill="#000000" stroke="#000000" points="667.3081,-45.4703 670.4576,-35.3544 661.6872,-41.2984 667.3081,-45.4703"/>
<text text-anchor="middle" x="717.1926" y="-101.3" font-family="Times,serif" font-size="14.00" fill="#000000">of_clinical_measure_file</text>
</g>
<!-- clinical_measure_file&#45;&gt;participant -->
<g id="edge26" class="edge">
<title>clinical_measure_file&#45;&gt;participant</title>
<path fill="none" stroke="#000000" d="M572.8178,-174.5013C582.0491,-168.8133 592.1706,-162.3311 601.1926,-156 609.9994,-149.8199 610.2134,-145.021 620.1926,-141 633.7335,-135.5439 814.3375,-119.5831 917.0306,-110.8595"/>
<polygon fill="#000000" stroke="#000000" points="917.3527,-114.3448 927.0213,-110.0128 916.7614,-107.3699 917.3527,-114.3448"/>
<text text-anchor="middle" x="706.1926" y="-144.8" font-family="Times,serif" font-size="14.00" fill="#000000">of_clinical_measure_file</text>
</g>
<!-- radiology_file -->
<g id="node10" class="node">
<title>radiology_file</title>
<ellipse fill="none" stroke="#000000" cx="1471.1926" cy="-192" rx="73.387" ry="18"/>
<text text-anchor="middle" x="1471.1926" y="-188.3" font-family="Times,serif" font-size="14.00" fill="#000000">radiology_file</text>
</g>
<!-- radiology_file&#45;&gt;participant -->
<g id="edge18" class="edge">
<title>radiology_file&#45;&gt;participant</title>
<path fill="none" stroke="#000000" d="M1454.5288,-174.4152C1442.1586,-162.6376 1424.2019,-148.0454 1405.1926,-141 1332.9987,-114.2429 1135.3384,-134.3897 1059.1926,-123 1053.4782,-122.1452 1047.5565,-121.0376 1041.6754,-119.7919"/>
<polygon fill="#000000" stroke="#000000" points="1042.3844,-116.364 1031.8602,-117.5855 1040.8491,-123.1936 1042.3844,-116.364"/>
<text text-anchor="middle" x="1489.1926" y="-144.8" font-family="Times,serif" font-size="14.00" fill="#000000">of_radiology_file</text>
</g>
<!-- pdx -->
<g id="node12" class="node">
<title>pdx</title>
<ellipse fill="none" stroke="#000000" cx="447.1926" cy="-105" rx="27.8951" ry="18"/>
<text text-anchor="middle" x="447.1926" y="-101.3" font-family="Times,serif" font-size="14.00" fill="#000000">pdx</text>
</g>
<!-- pdx&#45;&gt;study -->
<g id="edge16" class="edge">
<title>pdx&#45;&gt;study</title>
<path fill="none" stroke="#000000" d="M465.2056,-91.1731C481.0131,-79.6658 505.0327,-63.6575 528.1926,-54 563.586,-39.2413 606.1679,-29.9034 637.737,-24.4469"/>
<polygon fill="#000000" stroke="#000000" points="638.7033,-27.8344 647.9945,-22.743 637.5561,-20.9291 638.7033,-27.8344"/>
<text text-anchor="middle" x="552.1926" y="-57.8" font-family="Times,serif" font-size="14.00" fill="#000000">of_pdx</text>
</g>
<!-- pdx&#45;&gt;sample -->
<g id="edge15" class="edge">
<title>pdx&#45;&gt;sample</title>
<path fill="none" stroke="#000000" d="M425.183,-116.5375C420.3199,-118.8516 415.1408,-121.1402 410.1926,-123 381.7318,-133.697 362.6481,-116.8372 344.1926,-141 337.9666,-149.1514 341.0856,-158.8606 347.1155,-167.6091"/>
<polygon fill="#000000" stroke="#000000" points="344.5756,-170.035 353.5786,-175.6204 350.0237,-165.6398 344.5756,-170.035"/>
<text text-anchor="middle" x="368.1926" y="-144.8" font-family="Times,serif" font-size="14.00" fill="#000000">of_pdx</text>
</g>
<!-- study_funding -->
<g id="node13" class="node">
<title>study_funding</title>
<ellipse fill="none" stroke="#000000" cx="1145.1926" cy="-105" rx="77.1866" ry="18"/>
<text text-anchor="middle" x="1145.1926" y="-101.3" font-family="Times,serif" font-size="14.00" fill="#000000">study_funding</text>
</g>
<!-- study_funding&#45;&gt;study -->
<g id="edge17" class="edge">
<title>study_funding&#45;&gt;study</title>
<path fill="none" stroke="#000000" d="M1098.9907,-90.4192C1061.6121,-79.0882 1007.4454,-63.714 959.1926,-54 879.0856,-37.8733 784.3813,-27.3438 729.3174,-22.0535"/>
<polygon fill="#000000" stroke="#000000" points="729.4643,-18.5519 719.1794,-21.0959 728.8059,-25.5209 729.4643,-18.5519"/>
<text text-anchor="middle" x="1082.1926" y="-57.8" font-family="Times,serif" font-size="14.00" fill="#000000">of_study_funding</text>
</g>
<!-- publication -->
<g id="node14" class="node">
<title>publication</title>
<ellipse fill="none" stroke="#000000" cx="1303.1926" cy="-105" rx="63.0888" ry="18"/>
<text text-anchor="middle" x="1303.1926" y="-101.3" font-family="Times,serif" font-size="14.00" fill="#000000">publication</text>
</g>
<!-- publication&#45;&gt;study -->
<g id="edge28" class="edge">
<title>publication&#45;&gt;study</title>
<path fill="none" stroke="#000000" d="M1266.5969,-90.1806C1235.606,-78.3097 1189.7205,-62.3131 1148.1926,-54 1069.1145,-38.17 831.5532,-25.1782 730.0291,-20.1924"/>
<polygon fill="#000000" stroke="#000000" points="729.933,-16.6836 719.7746,-19.6933 729.5926,-23.6754 729.933,-16.6836"/>
<text text-anchor="middle" x="1255.1926" y="-57.8" font-family="Times,serif" font-size="14.00" fill="#000000">of_publication</text>
</g>
<!-- participant&#45;&gt;study -->
<g id="edge14" class="edge">
<title>participant&#45;&gt;study</title>
<path fill="none" stroke="#000000" d="M942.6628,-92.2563C884.0097,-75.4707 781.6458,-46.1757 724.5961,-29.849"/>
<polygon fill="#000000" stroke="#000000" points="725.4065,-26.4405 714.8294,-27.054 723.4805,-33.1703 725.4065,-26.4405"/>
<text text-anchor="middle" x="904.6926" y="-57.8" font-family="Times,serif" font-size="14.00" fill="#000000">of_participant</text>
</g>
<!-- medical_history -->
<g id="node16" class="node">
<title>medical_history</title>
<ellipse fill="none" stroke="#000000" cx="1648.1926" cy="-192" rx="85.2851" ry="18"/>
<text text-anchor="middle" x="1648.1926" y="-188.3" font-family="Times,serif" font-size="14.00" fill="#000000">medical_history</text>
</g>
<!-- medical_history&#45;&gt;participant -->
<g id="edge23" class="edge">
<title>medical_history&#45;&gt;participant</title>
<path fill="none" stroke="#000000" d="M1623.0382,-174.5505C1604.4044,-162.6733 1577.892,-147.9031 1552.1926,-141 1446.317,-112.5609 1167.7373,-138.3779 1059.1926,-123 1053.4718,-122.1895 1047.5459,-121.1106 1041.6623,-119.8823"/>
<polygon fill="#000000" stroke="#000000" points="1042.3661,-116.4533 1031.8443,-117.6949 1040.8438,-123.2858 1042.3661,-116.4533"/>
<text text-anchor="middle" x="1656.1926" y="-144.8" font-family="Times,serif" font-size="14.00" fill="#000000">of_medical_history</text>
</g>
<!-- single_cell_sequencing_file -->
<g id="node17" class="node">
<title>single_cell_sequencing_file</title>
<ellipse fill="none" stroke="#000000" cx="652.1926" cy="-279" rx="137.5759" ry="18"/>
<text text-anchor="middle" x="652.1926" y="-275.3" font-family="Times,serif" font-size="14.00" fill="#000000">single_cell_sequencing_file</text>
</g>
<!-- single_cell_sequencing_file&#45;&gt;sample -->
<g id="edge20" class="edge">
<title>single_cell_sequencing_file&#45;&gt;sample</title>
<path fill="none" stroke="#000000" d="M636.5061,-260.9793C625.3738,-249.4818 609.4002,-235.3959 592.1926,-228 523.6071,-198.5217 498.0878,-226.1007 425.1926,-210 421.6135,-209.2095 417.9386,-208.2611 414.2737,-207.2187"/>
<polygon fill="#000000" stroke="#000000" points="415.2551,-203.8588 404.6687,-204.283 413.209,-210.5532 415.2551,-203.8588"/>
<text text-anchor="middle" x="724.6926" y="-231.8" font-family="Times,serif" font-size="14.00" fill="#000000">of_single_cell_sequencing_file</text>
</g>
<!-- cytogenomic_file -->
<g id="node18" class="node">
<title>cytogenomic_file</title>
<ellipse fill="none" stroke="#000000" cx="407.1926" cy="-279" rx="89.8845" ry="18"/>
<text text-anchor="middle" x="407.1926" y="-275.3" font-family="Times,serif" font-size="14.00" fill="#000000">cytogenomic_file</text>
</g>
<!-- cytogenomic_file&#45;&gt;sample -->
<g id="edge6" class="edge">
<title>cytogenomic_file&#45;&gt;sample</title>
<path fill="none" stroke="#000000" d="M431.045,-261.3713C441.1338,-251.6876 449.1288,-239.3668 442.1926,-228 436.5825,-218.8062 427.7921,-211.8612 418.3114,-206.6517"/>
<polygon fill="#000000" stroke="#000000" points="419.6155,-203.3942 409.0914,-202.1721 416.5564,-209.6904 419.6155,-203.3942"/>
<text text-anchor="middle" x="516.6926" y="-231.8" font-family="Times,serif" font-size="14.00" fill="#000000">of_cytogenomic_file</text>
</g>
<!-- pathology_file -->
<g id="node19" class="node">
<title>pathology_file</title>
<ellipse fill="none" stroke="#000000" cx="884.1926" cy="-279" rx="76.0865" ry="18"/>
<text text-anchor="middle" x="884.1926" y="-275.3" font-family="Times,serif" font-size="14.00" fill="#000000">pathology_file</text>
</g>
<!-- pathology_file&#45;&gt;sample -->
<g id="edge5" class="edge">
<title>pathology_file&#45;&gt;sample</title>
<path fill="none" stroke="#000000" d="M873.0459,-260.9446C864.7422,-249.2741 852.2618,-235.0011 837.1926,-228 795.6371,-208.6934 470.2277,-218.4526 425.1926,-210 421.5394,-209.3143 417.7947,-208.4317 414.0674,-207.4263"/>
<polygon fill="#000000" stroke="#000000" points="414.899,-204.0223 404.3163,-204.5291 412.9053,-210.7324 414.899,-204.0223"/>
<text text-anchor="middle" x="918.1926" y="-231.8" font-family="Times,serif" font-size="14.00" fill="#000000">of_pathology_file</text>
</g>
<!-- study_personnel -->
<g id="node20" class="node">
<title>study_personnel</title>
<ellipse fill="none" stroke="#000000" cx="2299.1926" cy="-105" rx="87.1846" ry="18"/>
<text text-anchor="middle" x="2299.1926" y="-101.3" font-family="Times,serif" font-size="14.00" fill="#000000">study_personnel</text>
</g>
<!-- study_personnel&#45;&gt;study -->
<g id="edge7" class="edge">
<title>study_personnel&#45;&gt;study</title>
<path fill="none" stroke="#000000" d="M2273.0406,-87.7029C2253.3649,-75.7337 2225.2487,-60.7841 2198.1926,-54 2125.352,-35.7356 977.0965,-21.4117 729.8619,-18.5301"/>
<polygon fill="#000000" stroke="#000000" points="729.8119,-15.0294 719.7719,-18.4131 729.7306,-22.029 729.8119,-15.0294"/>
<text text-anchor="middle" x="2304.6926" y="-57.8" font-family="Times,serif" font-size="14.00" fill="#000000">of_study_personnel</text>
</g>
<!-- exposure -->
<g id="node21" class="node">
<title>exposure</title>
<ellipse fill="none" stroke="#000000" cx="1925.1926" cy="-192" rx="53.0913" ry="18"/>
<text text-anchor="middle" x="1925.1926" y="-188.3" font-family="Times,serif" font-size="14.00" fill="#000000">exposure</text>
</g>
<!-- exposure&#45;&gt;participant -->
<g id="edge24" class="edge">
<title>exposure&#45;&gt;participant</title>
<path fill="none" stroke="#000000" d="M1893.5834,-177.3319C1865.3336,-165.0342 1822.4589,-148.3415 1783.1926,-141 1624.9953,-111.4225 1218.6687,-144.6477 1059.1926,-123 1053.4671,-122.2228 1047.5382,-121.1656 1041.6528,-119.9503"/>
<polygon fill="#000000" stroke="#000000" points="1042.3529,-116.5206 1031.8328,-117.7772 1040.8404,-123.3552 1042.3529,-116.5206"/>
<text text-anchor="middle" x="1877.6926" y="-144.8" font-family="Times,serif" font-size="14.00" fill="#000000">of_exposure</text>
</g>
<!-- methylation_array_file -->
<g id="node22" class="node">
<title>methylation_array_file</title>
<ellipse fill="none" stroke="#000000" cx="1094.1926" cy="-279" rx="115.8798" ry="18"/>
<text text-anchor="middle" x="1094.1926" y="-275.3" font-family="Times,serif" font-size="14.00" fill="#000000">methylation_array_file</text>
</g>
<!-- methylation_array_file&#45;&gt;sample -->
<g id="edge29" class="edge">
<title>methylation_array_file&#45;&gt;sample</title>
<path fill="none" stroke="#000000" d="M1064.7387,-261.5244C1043.0148,-249.6346 1012.2978,-234.8599 983.1926,-228 862.4369,-199.5386 547.2566,-232.1897 425.1926,-210 421.4848,-209.326 417.6841,-208.4431 413.9037,-207.4301"/>
<polygon fill="#000000" stroke="#000000" points="414.6045,-203.9873 404.022,-204.4987 412.6137,-210.6982 414.6045,-203.9873"/>
<text text-anchor="middle" x="1115.6926" y="-231.8" font-family="Times,serif" font-size="14.00" fill="#000000">of_methylation_array_file</text>
</g>
<!-- molecular_test -->
<g id="node23" class="node">
<title>molecular_test</title>
<ellipse fill="none" stroke="#000000" cx="2076.1926" cy="-192" rx="79.8859" ry="18"/>
<text text-anchor="middle" x="2076.1926" y="-188.3" font-family="Times,serif" font-size="14.00" fill="#000000">molecular_test</text>
</g>
<!-- molecular_test&#45;&gt;participant -->
<g id="edge13" class="edge">
<title>molecular_test&#45;&gt;participant</title>
<path fill="none" stroke="#000000" d="M2039.1705,-175.9495C2009.1003,-163.7871 1965.2588,-148.0118 1925.1926,-141 1735.5882,-107.8183 1249.9817,-148.5024 1059.1926,-123 1053.3838,-122.2235 1047.3662,-121.1548 1041.3974,-119.9221"/>
<polygon fill="#000000" stroke="#000000" points="1041.9645,-116.4629 1031.444,-117.7154 1040.4494,-123.297 1041.9645,-116.4629"/>
<text text-anchor="middle" x="2044.1926" y="-144.8" font-family="Times,serif" font-size="14.00" fill="#000000">of_molecular_test</text>
</g>
<!-- sample&#45;&gt;cell_line -->
<g id="edge12" class="edge">
<title>sample&#45;&gt;cell_line</title>
<path fill="none" stroke="#000000" d="M366.6883,-210.1539C362.5834,-220.9746 355.9766,-234.2608 346.1926,-243 342.0254,-246.7222 318.8514,-255.4536 296.318,-263.3849"/>
<polygon fill="#000000" stroke="#000000" points="295.0476,-260.1211 286.7573,-266.7181 297.3521,-266.7309 295.0476,-260.1211"/>
<text text-anchor="middle" x="394.6926" y="-231.8" font-family="Times,serif" font-size="14.00" fill="#000000">of_sample</text>
</g>
<!-- sample&#45;&gt;pdx -->
<g id="edge11" class="edge">
<title>sample&#45;&gt;pdx</title>
<path fill="none" stroke="#000000" d="M382.8971,-174.2524C389.382,-164.0865 398.132,-151.3365 407.1926,-141 411.6383,-135.9283 416.7573,-130.8544 421.8165,-126.1827"/>
<polygon fill="#000000" stroke="#000000" points="424.4781,-128.4988 429.6119,-119.2308 419.819,-123.2744 424.4781,-128.4988"/>
<text text-anchor="middle" x="443.6926" y="-144.8" font-family="Times,serif" font-size="14.00" fill="#000000">of_sample</text>
</g>
<!-- sample&#45;&gt;participant -->
<g id="edge10" class="edge">
<title>sample&#45;&gt;participant</title>
<path fill="none" stroke="#000000" d="M406.1023,-180.421C412.4423,-178.2739 419.0161,-176.0595 425.1926,-174 449.5922,-165.8643 455.7977,-164.1498 480.1926,-156 499.7887,-149.4534 503.9495,-145.133 524.1926,-141 629.8653,-119.4252 658.6658,-131.3777 766.1926,-123 816.6457,-119.069 873.5597,-114.4287 916.9944,-110.8441"/>
<polygon fill="#000000" stroke="#000000" points="917.4928,-114.315 927.1706,-110.0033 916.9163,-107.3387 917.4928,-114.315"/>
<text text-anchor="middle" x="560.6926" y="-144.8" font-family="Times,serif" font-size="14.00" fill="#000000">of_sample</text>
</g>
<!-- follow_up -->
<g id="node25" class="node">
<title>follow_up</title>
<ellipse fill="none" stroke="#000000" cx="725.1926" cy="-192" rx="55.4913" ry="18"/>
<text text-anchor="middle" x="725.1926" y="-188.3" font-family="Times,serif" font-size="14.00" fill="#000000">follow_up</text>
</g>
<!-- follow_up&#45;&gt;participant -->
<g id="edge9" class="edge">
<title>follow_up&#45;&gt;participant</title>
<path fill="none" stroke="#000000" d="M757.3964,-177.3584C769.8247,-171.2765 783.9659,-163.8159 796.1926,-156 805.2576,-150.2053 805.4462,-145.5564 815.1926,-141 847.1136,-126.0771 885.2425,-117.2918 917.48,-112.1435"/>
<polygon fill="#000000" stroke="#000000" points="918.359,-115.5505 927.7243,-110.5966 917.3138,-108.629 918.359,-115.5505"/>
<text text-anchor="middle" x="860.1926" y="-144.8" font-family="Times,serif" font-size="14.00" fill="#000000">of_follow_up</text>
</g>
</g>
</svg>
