<svg width="3023pt" height="305pt"
 viewBox="0.00 0.00 3022.79 305.00" xmlns="http://www.w3.org/2000/svg" xmlns:xlink="http://www.w3.org/1999/xlink">
<g id="graph0" class="graph" transform="scale(1 1) rotate(0) translate(4 301)">
<title>Perl</title>
<polygon fill="#ffffff" stroke="transparent" points="-4,4 -4,-301 3018.7947,-301 3018.7947,4 -4,4"/>
<!-- study_arm -->
<g id="node1" class="node">
<title>study_arm</title>
<ellipse fill="none" stroke="#000000" cx="59.7947" cy="-105" rx="59.5901" ry="18"/>
<text text-anchor="middle" x="59.7947" y="-101.3" font-family="Times,serif" font-size="14.00" fill="#000000">study_arm</text>
</g>
<!-- study -->
<g id="node7" class="node">
<title>study</title>
<ellipse fill="none" stroke="#000000" cx="1441.7947" cy="-18" rx="36.2938" ry="18"/>
<text text-anchor="middle" x="1441.7947" y="-14.3" font-family="Times,serif" font-size="14.00" fill="#000000">study</text>
</g>
<!-- study_arm&#45;&gt;study -->
<g id="edge16" class="edge">
<title>study_arm&#45;&gt;study</title>
<path fill="none" stroke="#000000" d="M71.3623,-87.1028C80.08,-75.3427 93.1844,-60.9001 108.7947,-54 168.7498,-27.4986 1166.2608,-19.7103 1395.2161,-18.268"/>
<polygon fill="#000000" stroke="#000000" points="1395.2439,-21.7679 1405.222,-18.2059 1395.2004,-14.7681 1395.2439,-21.7679"/>
<text text-anchor="middle" x="157.2947" y="-57.8" font-family="Times,serif" font-size="14.00" fill="#000000">of_study_arm</text>
</g>
<!-- study_funding -->
<g id="node2" class="node">
<title>study_funding</title>
<ellipse fill="none" stroke="#000000" cx="214.7947" cy="-105" rx="77.1866" ry="18"/>
<text text-anchor="middle" x="214.7947" y="-101.3" font-family="Times,serif" font-size="14.00" fill="#000000">study_funding</text>
</g>
<!-- study_funding&#45;&gt;study -->
<g id="edge7" class="edge">
<title>study_funding&#45;&gt;study</title>
<path fill="none" stroke="#000000" d="M209.5703,-87.0366C207.562,-76.01 207.4446,-62.4319 215.7947,-54 236.9278,-32.6599 1173.4899,-20.9685 1395.1294,-18.4976"/>
<polygon fill="#000000" stroke="#000000" points="1395.1761,-21.9974 1405.1368,-18.387 1395.0986,-14.9979 1395.1761,-21.9974"/>
<text text-anchor="middle" x="277.7947" y="-57.8" font-family="Times,serif" font-size="14.00" fill="#000000">of_study_funding</text>
</g>
<!-- methylation_array_file -->
<g id="node3" class="node">
<title>methylation_array_file</title>
<ellipse fill="none" stroke="#000000" cx="2546.7947" cy="-279" rx="115.8798" ry="18"/>
<text text-anchor="middle" x="2546.7947" y="-275.3" font-family="Times,serif" font-size="14.00" fill="#000000">methylation_array_file</text>
</g>
<!-- sample -->
<g id="node23" class="node">
<title>sample</title>
<ellipse fill="none" stroke="#000000" cx="2336.7947" cy="-192" rx="44.393" ry="18"/>
<text text-anchor="middle" x="2336.7947" y="-188.3" font-family="Times,serif" font-size="14.00" fill="#000000">sample</text>
</g>
<!-- methylation_array_file&#45;&gt;sample -->
<g id="edge23" class="edge">
<title>methylation_array_file&#45;&gt;sample</title>
<path fill="none" stroke="#000000" d="M2514.9813,-261.645C2504.6334,-255.8567 2493.1501,-249.28 2482.7947,-243 2472.3596,-236.6717 2470.881,-233.1021 2459.7947,-228 2436.3777,-217.2231 2408.9641,-208.8274 2385.9675,-202.8649"/>
<polygon fill="#000000" stroke="#000000" points="2386.6273,-199.4219 2376.0756,-200.3779 2384.9204,-206.2106 2386.6273,-199.4219"/>
<text text-anchor="middle" x="2574.2947" y="-231.8" font-family="Times,serif" font-size="14.00" fill="#000000">of_methylation_array_file</text>
</g>
<!-- cell_line -->
<g id="node4" class="node">
<title>cell_line</title>
<ellipse fill="none" stroke="#000000" cx="2776.7947" cy="-279" rx="49.2915" ry="18"/>
<text text-anchor="middle" x="2776.7947" y="-275.3" font-family="Times,serif" font-size="14.00" fill="#000000">cell_line</text>
</g>
<!-- cell_line&#45;&gt;study -->
<g id="edge25" class="edge">
<title>cell_line&#45;&gt;study</title>
<path fill="none" stroke="#000000" d="M2817.219,-268.4364C2842.4027,-259.8144 2867.6044,-246.1028 2853.7947,-228 2676.3122,4.6581 2507.8271,-99.7176 2218.7947,-54 2076.9575,-31.565 1634.5171,-21.5602 1488.8328,-18.8165"/>
<polygon fill="#000000" stroke="#000000" points="1488.5257,-15.3103 1478.4625,-18.6241 1488.3958,-22.3091 1488.5257,-15.3103"/>
<text text-anchor="middle" x="2824.2947" y="-144.8" font-family="Times,serif" font-size="14.00" fill="#000000">of_cell_line</text>
</g>
<!-- cell_line&#45;&gt;sample -->
<g id="edge26" class="edge">
<title>cell_line&#45;&gt;sample</title>
<path fill="none" stroke="#000000" d="M2739.3832,-267.1965C2722.2087,-261.0727 2701.9055,-252.8115 2684.7947,-243 2675.4614,-237.6482 2675.7512,-232.0768 2665.7947,-228 2617.45,-208.2045 2471.7959,-198.3676 2391.4605,-194.3294"/>
<polygon fill="#000000" stroke="#000000" points="2391.2086,-190.813 2381.0495,-193.8202 2390.8665,-197.8046 2391.2086,-190.813"/>
<text text-anchor="middle" x="2725.2947" y="-231.8" font-family="Times,serif" font-size="14.00" fill="#000000">of_cell_line</text>
</g>
<!-- clinical_measure_file -->
<g id="node5" class="node">
<title>clinical_measure_file</title>
<ellipse fill="none" stroke="#000000" cx="353.7947" cy="-192" rx="108.5808" ry="18"/>
<text text-anchor="middle" x="353.7947" y="-188.3" font-family="Times,serif" font-size="14.00" fill="#000000">clinical_measure_file</text>
</g>
<!-- clinical_measure_file&#45;&gt;study -->
<g id="edge30" class="edge">
<title>clinical_measure_file&#45;&gt;study</title>
<path fill="none" stroke="#000000" d="M354.2903,-173.9656C355.6107,-162.7652 359.2607,-149.0212 368.7947,-141 448.572,-73.881 1199.6108,-30.5474 1395.3382,-20.3307"/>
<polygon fill="#000000" stroke="#000000" points="1395.7646,-23.8134 1405.5701,-19.8005 1395.4023,-16.8228 1395.7646,-23.8134"/>
<text text-anchor="middle" x="668.7947" y="-101.3" font-family="Times,serif" font-size="14.00" fill="#000000">of_clinical_measure_file</text>
</g>
<!-- participant -->
<g id="node13" class="node">
<title>participant</title>
<ellipse fill="none" stroke="#000000" cx="1203.7947" cy="-105" rx="62.2891" ry="18"/>
<text text-anchor="middle" x="1203.7947" y="-101.3" font-family="Times,serif" font-size="14.00" fill="#000000">participant</text>
</g>
<!-- clinical_measure_file&#45;&gt;participant -->
<g id="edge29" class="edge">
<title>clinical_measure_file&#45;&gt;participant</title>
<path fill="none" stroke="#000000" d="M360.7728,-173.8269C366.2513,-162.2632 375.0958,-148.1607 387.7947,-141 419.8763,-122.9096 937.44,-110.4695 1131.2688,-106.425"/>
<polygon fill="#000000" stroke="#000000" points="1131.4322,-109.9225 1141.3575,-106.216 1131.2872,-102.924 1131.4322,-109.9225"/>
<text text-anchor="middle" x="473.7947" y="-144.8" font-family="Times,serif" font-size="14.00" fill="#000000">of_clinical_measure_file</text>
</g>
<!-- radiology_file -->
<g id="node6" class="node">
<title>radiology_file</title>
<ellipse fill="none" stroke="#000000" cx="1278.7947" cy="-192" rx="73.387" ry="18"/>
<text text-anchor="middle" x="1278.7947" y="-188.3" font-family="Times,serif" font-size="14.00" fill="#000000">radiology_file</text>
</g>
<!-- radiology_file&#45;&gt;participant -->
<g id="edge31" class="edge">
<title>radiology_file&#45;&gt;participant</title>
<path fill="none" stroke="#000000" d="M1273.6922,-173.6354C1270.158,-163.2639 1264.658,-150.5139 1256.7947,-141 1252.462,-135.7579 1247.1758,-130.9663 1241.6386,-126.709"/>
<polygon fill="#000000" stroke="#000000" points="1243.6046,-123.8122 1233.4283,-120.8637 1239.5447,-129.5147 1243.6046,-123.8122"/>
<text text-anchor="middle" x="1324.7947" y="-144.8" font-family="Times,serif" font-size="14.00" fill="#000000">of_radiology_file</text>
</g>
<!-- molecular_test -->
<g id="node8" class="node">
<title>molecular_test</title>
<ellipse fill="none" stroke="#000000" cx="1449.7947" cy="-192" rx="79.8859" ry="18"/>
<text text-anchor="middle" x="1449.7947" y="-188.3" font-family="Times,serif" font-size="14.00" fill="#000000">molecular_test</text>
</g>
<!-- molecular_test&#45;&gt;participant -->
<g id="edge15" class="edge">
<title>molecular_test&#45;&gt;participant</title>
<path fill="none" stroke="#000000" d="M1433.3414,-174.2757C1421.7321,-162.907 1405.1996,-148.8532 1387.7947,-141 1341.8395,-120.2648 1325.1845,-133.1232 1275.7947,-123 1270.7182,-121.9595 1265.4596,-120.8016 1260.2016,-119.589"/>
<polygon fill="#000000" stroke="#000000" points="1260.6761,-116.1046 1250.1386,-117.206 1259.0629,-122.9162 1260.6761,-116.1046"/>
<text text-anchor="middle" x="1475.7947" y="-144.8" font-family="Times,serif" font-size="14.00" fill="#000000">of_molecular_test</text>
</g>
<!-- study_admin -->
<g id="node9" class="node">
<title>study_admin</title>
<ellipse fill="none" stroke="#000000" cx="1354.7947" cy="-105" rx="70.3881" ry="18"/>
<text text-anchor="middle" x="1354.7947" y="-101.3" font-family="Times,serif" font-size="14.00" fill="#000000">study_admin</text>
</g>
<!-- study_admin&#45;&gt;study -->
<g id="edge6" class="edge">
<title>study_admin&#45;&gt;study</title>
<path fill="none" stroke="#000000" d="M1367.1125,-87.0946C1374.5518,-76.8762 1384.5518,-64.1262 1394.7947,-54 1400.1214,-48.734 1406.2241,-43.5488 1412.2294,-38.8252"/>
<polygon fill="#000000" stroke="#000000" points="1414.4349,-41.5451 1420.2759,-32.7057 1410.1975,-35.9733 1414.4349,-41.5451"/>
<text text-anchor="middle" x="1451.2947" y="-57.8" font-family="Times,serif" font-size="14.00" fill="#000000">of_study_admin</text>
</g>
<!-- study_personnel -->
<g id="node10" class="node">
<title>study_personnel</title>
<ellipse fill="none" stroke="#000000" cx="1529.7947" cy="-105" rx="87.1846" ry="18"/>
<text text-anchor="middle" x="1529.7947" y="-101.3" font-family="Times,serif" font-size="14.00" fill="#000000">study_personnel</text>
</g>
<!-- study_personnel&#45;&gt;study -->
<g id="edge19" class="edge">
<title>study_personnel&#45;&gt;study</title>
<path fill="none" stroke="#000000" d="M1525.1911,-86.8292C1521.7826,-76.2695 1516.2414,-63.2627 1507.7947,-54 1500.1187,-45.5824 1490.0048,-38.7199 1480.0078,-33.3307"/>
<polygon fill="#000000" stroke="#000000" points="1481.4425,-30.1349 1470.933,-28.7931 1478.3119,-36.3959 1481.4425,-30.1349"/>
<text text-anchor="middle" x="1587.2947" y="-57.8" font-family="Times,serif" font-size="14.00" fill="#000000">of_study_personnel</text>
</g>
<!-- medical_history -->
<g id="node11" class="node">
<title>medical_history</title>
<ellipse fill="none" stroke="#000000" cx="1753.7947" cy="-192" rx="85.2851" ry="18"/>
<text text-anchor="middle" x="1753.7947" y="-188.3" font-family="Times,serif" font-size="14.00" fill="#000000">medical_history</text>
</g>
<!-- medical_history&#45;&gt;participant -->
<g id="edge32" class="edge">
<title>medical_history&#45;&gt;participant</title>
<path fill="none" stroke="#000000" d="M1710.8188,-176.4467C1675.9905,-164.5655 1625.3853,-148.9259 1579.7947,-141 1446.4471,-117.8175 1409.5807,-143.5018 1275.7947,-123 1270.3023,-122.1583 1264.6171,-121.0894 1258.9601,-119.8937"/>
<polygon fill="#000000" stroke="#000000" points="1259.3791,-116.4008 1248.8553,-117.6263 1257.8463,-123.2309 1259.3791,-116.4008"/>
<text text-anchor="middle" x="1710.7947" y="-144.8" font-family="Times,serif" font-size="14.00" fill="#000000">of_medical_history</text>
</g>
<!-- publication -->
<g id="node12" class="node">
<title>publication</title>
<ellipse fill="none" stroke="#000000" cx="1697.7947" cy="-105" rx="63.0888" ry="18"/>
<text text-anchor="middle" x="1697.7947" y="-101.3" font-family="Times,serif" font-size="14.00" fill="#000000">publication</text>
</g>
<!-- publication&#45;&gt;study -->
<g id="edge24" class="edge">
<title>publication&#45;&gt;study</title>
<path fill="none" stroke="#000000" d="M1689.3715,-87.0387C1683.105,-75.7197 1673.4538,-61.8146 1660.7947,-54 1632.6878,-36.6495 1543.9997,-26.392 1488.4831,-21.509"/>
<polygon fill="#000000" stroke="#000000" points="1488.4488,-17.9934 1478.1876,-20.6314 1487.8542,-24.9682 1488.4488,-17.9934"/>
<text text-anchor="middle" x="1727.7947" y="-57.8" font-family="Times,serif" font-size="14.00" fill="#000000">of_publication</text>
</g>
<!-- participant&#45;&gt;study -->
<g id="edge27" class="edge">
<title>participant&#45;&gt;study</title>
<path fill="none" stroke="#000000" d="M1223.5546,-87.6691C1237.3197,-76.4711 1256.5896,-62.4599 1275.7947,-54 1314.3145,-37.0319 1361.4846,-27.7939 1395.6844,-22.9408"/>
<polygon fill="#000000" stroke="#000000" points="1396.4139,-26.3743 1405.8578,-21.5718 1395.4803,-19.4368 1396.4139,-26.3743"/>
<text text-anchor="middle" x="1326.2947" y="-57.8" font-family="Times,serif" font-size="14.00" fill="#000000">of_participant</text>
</g>
<!-- family_relationship -->
<g id="node14" class="node">
<title>family_relationship</title>
<ellipse fill="none" stroke="#000000" cx="1956.7947" cy="-192" rx="100.1823" ry="18"/>
<text text-anchor="middle" x="1956.7947" y="-188.3" font-family="Times,serif" font-size="14.00" fill="#000000">family_relationship</text>
</g>
<!-- family_relationship&#45;&gt;participant -->
<g id="edge11" class="edge">
<title>family_relationship&#45;&gt;participant</title>
<path fill="none" stroke="#000000" d="M1912.7978,-175.7832C1878.0356,-163.7859 1828.0097,-148.3108 1782.7947,-141 1560.2102,-105.0103 1499.0566,-154.5156 1275.7947,-123 1270.0734,-122.1924 1264.1473,-121.1154 1258.2635,-119.8882"/>
<polygon fill="#000000" stroke="#000000" points="1258.967,-116.4592 1248.4453,-117.702 1257.4456,-123.2918 1258.967,-116.4592"/>
<text text-anchor="middle" x="1925.2947" y="-144.8" font-family="Times,serif" font-size="14.00" fill="#000000">of_family_relationship</text>
</g>
<!-- sequencing_file -->
<g id="node15" class="node">
<title>sequencing_file</title>
<ellipse fill="none" stroke="#000000" cx="2927.7947" cy="-279" rx="83.3857" ry="18"/>
<text text-anchor="middle" x="2927.7947" y="-275.3" font-family="Times,serif" font-size="14.00" fill="#000000">sequencing_file</text>
</g>
<!-- sequencing_file&#45;&gt;sample -->
<g id="edge18" class="edge">
<title>sequencing_file&#45;&gt;sample</title>
<path fill="none" stroke="#000000" d="M2908.3807,-261.2661C2894.3234,-249.5808 2874.2664,-235.1606 2853.7947,-228 2810.9942,-213.0293 2515.032,-199.3136 2391.1428,-194.1591"/>
<polygon fill="#000000" stroke="#000000" points="2391.2476,-190.6605 2381.1117,-193.7448 2390.9587,-197.6545 2391.2476,-190.6605"/>
<text text-anchor="middle" x="2948.2947" y="-231.8" font-family="Times,serif" font-size="14.00" fill="#000000">of_sequencing_file</text>
</g>
<!-- exposure -->
<g id="node16" class="node">
<title>exposure</title>
<ellipse fill="none" stroke="#000000" cx="658.7947" cy="-192" rx="53.0913" ry="18"/>
<text text-anchor="middle" x="658.7947" y="-188.3" font-family="Times,serif" font-size="14.00" fill="#000000">exposure</text>
</g>
<!-- exposure&#45;&gt;participant -->
<g id="edge8" class="edge">
<title>exposure&#45;&gt;participant</title>
<path fill="none" stroke="#000000" d="M685.2816,-176.1816C706.5362,-164.3188 737.5516,-148.8321 766.7947,-141 833.5996,-123.1077 1025.7181,-112.4785 1131.6103,-107.8157"/>
<polygon fill="#000000" stroke="#000000" points="1132.0552,-111.2998 1141.8941,-107.3697 1131.7518,-104.3064 1132.0552,-111.2998"/>
<text text-anchor="middle" x="810.2947" y="-144.8" font-family="Times,serif" font-size="14.00" fill="#000000">of_exposure</text>
</g>
<!-- treatment_response -->
<g id="node17" class="node">
<title>treatment_response</title>
<ellipse fill="none" stroke="#000000" cx="834.7947" cy="-192" rx="104.7816" ry="18"/>
<text text-anchor="middle" x="834.7947" y="-188.3" font-family="Times,serif" font-size="14.00" fill="#000000">treatment_response</text>
</g>
<!-- treatment_response&#45;&gt;participant -->
<g id="edge2" class="edge">
<title>treatment_response&#45;&gt;participant</title>
<path fill="none" stroke="#000000" d="M844.105,-173.7887C850.9657,-162.3642 861.4188,-148.4353 874.7947,-141 917.4008,-117.3164 1048.0541,-109.2128 1131.3256,-106.4407"/>
<polygon fill="#000000" stroke="#000000" points="1131.6031,-109.9338 1141.4881,-106.1209 1131.3829,-102.9373 1131.6031,-109.9338"/>
<text text-anchor="middle" x="957.7947" y="-144.8" font-family="Times,serif" font-size="14.00" fill="#000000">of_treatment_response</text>
</g>
<!-- survival -->
<g id="node18" class="node">
<title>survival</title>
<ellipse fill="none" stroke="#000000" cx="1005.7947" cy="-192" rx="48.1917" ry="18"/>
<text text-anchor="middle" x="1005.7947" y="-188.3" font-family="Times,serif" font-size="14.00" fill="#000000">survival</text>
</g>
<!-- survival&#45;&gt;participant -->
<g id="edge1" class="edge">
<title>survival&#45;&gt;participant</title>
<path fill="none" stroke="#000000" d="M1022.2589,-175.0733C1033.9983,-163.9066 1050.6775,-149.7719 1067.7947,-141 1089.9522,-129.6452 1116.0277,-121.6251 1139.3876,-116.0844"/>
<polygon fill="#000000" stroke="#000000" points="1140.2335,-119.4816 1149.2134,-113.8592 1138.6873,-112.6545 1140.2335,-119.4816"/>
<text text-anchor="middle" x="1107.2947" y="-144.8" font-family="Times,serif" font-size="14.00" fill="#000000">of_survival</text>
</g>
<!-- treatment -->
<g id="node19" class="node">
<title>treatment</title>
<ellipse fill="none" stroke="#000000" cx="1129.7947" cy="-192" rx="57.6901" ry="18"/>
<text text-anchor="middle" x="1129.7947" y="-188.3" font-family="Times,serif" font-size="14.00" fill="#000000">treatment</text>
</g>
<!-- treatment&#45;&gt;participant -->
<g id="edge20" class="edge">
<title>treatment&#45;&gt;participant</title>
<path fill="none" stroke="#000000" d="M1139.6779,-174.1628C1145.7224,-163.9671 1153.9724,-151.2171 1162.7947,-141 1166.4318,-136.7879 1170.5589,-132.6131 1174.7595,-128.6803"/>
<polygon fill="#000000" stroke="#000000" points="1177.2034,-131.1898 1182.31,-121.9068 1172.5291,-125.9792 1177.2034,-131.1898"/>
<text text-anchor="middle" x="1209.7947" y="-144.8" font-family="Times,serif" font-size="14.00" fill="#000000">of_treatment</text>
</g>
<!-- cytogenomic_file -->
<g id="node20" class="node">
<title>cytogenomic_file</title>
<ellipse fill="none" stroke="#000000" cx="2152.7947" cy="-279" rx="89.8845" ry="18"/>
<text text-anchor="middle" x="2152.7947" y="-275.3" font-family="Times,serif" font-size="14.00" fill="#000000">cytogenomic_file</text>
</g>
<!-- cytogenomic_file&#45;&gt;sample -->
<g id="edge28" class="edge">
<title>cytogenomic_file&#45;&gt;sample</title>
<path fill="none" stroke="#000000" d="M2161.7055,-260.8619C2168.0611,-249.7656 2177.6283,-236.1755 2189.7947,-228 2205.4432,-217.4846 2249.7416,-207.4457 2285.6515,-200.6535"/>
<polygon fill="#000000" stroke="#000000" points="2286.3305,-204.0874 2295.5266,-198.8262 2285.0567,-197.2042 2286.3305,-204.0874"/>
<text text-anchor="middle" x="2261.2947" y="-231.8" font-family="Times,serif" font-size="14.00" fill="#000000">of_cytogenomic_file</text>
</g>
<!-- pdx -->
<g id="node21" class="node">
<title>pdx</title>
<ellipse fill="none" stroke="#000000" cx="2288.7947" cy="-105" rx="27.8951" ry="18"/>
<text text-anchor="middle" x="2288.7947" y="-101.3" font-family="Times,serif" font-size="14.00" fill="#000000">pdx</text>
</g>
<!-- pdx&#45;&gt;study -->
<g id="edge21" class="edge">
<title>pdx&#45;&gt;study</title>
<path fill="none" stroke="#000000" d="M2263.9522,-96.5525C2228.0027,-84.7386 2159.1637,-63.6488 2098.7947,-54 1981.0046,-35.1736 1618.1497,-23.1053 1488.469,-19.2981"/>
<polygon fill="#000000" stroke="#000000" points="1488.5533,-15.7992 1478.4558,-19.007 1488.3498,-22.7962 1488.5533,-15.7992"/>
<text text-anchor="middle" x="2190.7947" y="-57.8" font-family="Times,serif" font-size="14.00" fill="#000000">of_pdx</text>
</g>
<!-- pdx&#45;&gt;sample -->
<g id="edge22" class="edge">
<title>pdx&#45;&gt;sample</title>
<path fill="none" stroke="#000000" d="M2315.5378,-110.4564C2332.2493,-115.3969 2352.49,-124.5275 2362.7947,-141 2367.8802,-149.1294 2365.4391,-158.3754 2360.4224,-166.7416"/>
<polygon fill="#000000" stroke="#000000" points="2357.4442,-164.8891 2354.4697,-175.0578 2363.1363,-168.9634 2357.4442,-164.8891"/>
<text text-anchor="middle" x="2388.7947" y="-144.8" font-family="Times,serif" font-size="14.00" fill="#000000">of_pdx</text>
</g>
<!-- pathology_file -->
<g id="node22" class="node">
<title>pathology_file</title>
<ellipse fill="none" stroke="#000000" cx="2336.7947" cy="-279" rx="76.0865" ry="18"/>
<text text-anchor="middle" x="2336.7947" y="-275.3" font-family="Times,serif" font-size="14.00" fill="#000000">pathology_file</text>
</g>
<!-- pathology_file&#45;&gt;sample -->
<g id="edge17" class="edge">
<title>pathology_file&#45;&gt;sample</title>
<path fill="none" stroke="#000000" d="M2336.7947,-260.9735C2336.7947,-249.1918 2336.7947,-233.5607 2336.7947,-220.1581"/>
<polygon fill="#000000" stroke="#000000" points="2340.2948,-220.0033 2336.7947,-210.0034 2333.2948,-220.0034 2340.2948,-220.0033"/>
<text text-anchor="middle" x="2397.7947" y="-231.8" font-family="Times,serif" font-size="14.00" fill="#000000">of_pathology_file</text>
</g>
<!-- sample&#45;&gt;cell_line -->
<g id="edge13" class="edge">
<title>sample&#45;&gt;cell_line</title>
<path fill="none" stroke="#000000" d="M2381.2151,-192.6037C2486.0205,-194.4582 2742.0113,-201.6634 2769.7947,-228 2775.9738,-233.8573 2778.5234,-242.4178 2779.2891,-250.8585"/>
<polygon fill="#000000" stroke="#000000" points="2775.7903,-250.967 2779.4624,-260.9051 2782.7893,-250.8462 2775.7903,-250.967"/>
<text text-anchor="middle" x="2813.2947" y="-231.8" font-family="Times,serif" font-size="14.00" fill="#000000">of_sample</text>
</g>
<!-- sample&#45;&gt;participant -->
<g id="edge14" class="edge">
<title>sample&#45;&gt;participant</title>
<path fill="none" stroke="#000000" d="M2298.9133,-182.6334C2273.0234,-175.9388 2238.0545,-166.3192 2207.7947,-156 2191,-150.2727 2188.1761,-144.5711 2170.7947,-141 1975.9357,-100.9656 1472.979,-149.2897 1275.7947,-123 1269.9856,-122.2255 1263.9678,-121.158 1257.9989,-119.926"/>
<polygon fill="#000000" stroke="#000000" points="1258.5658,-116.4668 1248.0454,-117.7202 1257.0512,-123.301 1258.5658,-116.4668"/>
<text text-anchor="middle" x="2244.2947" y="-144.8" font-family="Times,serif" font-size="14.00" fill="#000000">of_sample</text>
</g>
<!-- sample&#45;&gt;pdx -->
<g id="edge12" class="edge">
<title>sample&#45;&gt;pdx</title>
<path fill="none" stroke="#000000" d="M2309.8859,-177.7084C2301.9722,-172.0681 2294.2492,-164.8045 2289.7947,-156 2286.2765,-149.0462 2285.0589,-140.8467 2284.976,-133.0797"/>
<polygon fill="#000000" stroke="#000000" points="2288.4803,-133.0682 2285.4567,-122.914 2281.4882,-132.7375 2288.4803,-133.0682"/>
<text text-anchor="middle" x="2326.2947" y="-144.8" font-family="Times,serif" font-size="14.00" fill="#000000">of_sample</text>
</g>
<!-- synonym -->
<g id="node24" class="node">
<title>synonym</title>
<ellipse fill="none" stroke="#000000" cx="1992.7947" cy="-279" rx="51.9908" ry="18"/>
<text text-anchor="middle" x="1992.7947" y="-275.3" font-family="Times,serif" font-size="14.00" fill="#000000">synonym</text>
</g>
<!-- synonym&#45;&gt;study -->
<g id="edge4" class="edge">
<title>synonym&#45;&gt;study</title>
<path fill="none" stroke="#000000" d="M2010.3208,-261.8515C2020.5796,-251.8853 2033.8296,-239.1353 2045.7947,-228 2054.5489,-219.8529 2060.9294,-220.9243 2065.7947,-210 2072.3041,-195.384 2073.7864,-187.8612 2065.7947,-174 2051.1735,-148.6404 2035.2022,-153.6306 2008.7947,-141 1911.6993,-94.5598 1887.433,-79.1997 1782.7947,-54 1679.651,-29.1603 1554.8557,-21.4584 1488.5414,-19.0713"/>
<polygon fill="#000000" stroke="#000000" points="1488.5243,-15.5689 1478.4127,-18.732 1488.2899,-22.5649 1488.5243,-15.5689"/>
<text text-anchor="middle" x="2090.2947" y="-144.8" font-family="Times,serif" font-size="14.00" fill="#000000">of_synonym</text>
</g>
<!-- synonym&#45;&gt;participant -->
<g id="edge3" class="edge">
<title>synonym&#45;&gt;participant</title>
<path fill="none" stroke="#000000" d="M1941.0652,-276.477C1842.227,-270.7058 1631.3281,-253.521 1574.7947,-210 1548.1548,-189.4918 1571.3931,-160.199 1543.7947,-141 1519.2949,-123.9566 1305.277,-127.6376 1275.7947,-123 1270.3057,-122.1366 1264.6228,-121.0533 1258.9671,-119.8486"/>
<polygon fill="#000000" stroke="#000000" points="1259.389,-116.3559 1248.864,-117.5706 1257.8492,-123.1845 1259.389,-116.3559"/>
<text text-anchor="middle" x="1617.2947" y="-188.3" font-family="Times,serif" font-size="14.00" fill="#000000">of_synonym</text>
</g>
<!-- synonym&#45;&gt;sample -->
<g id="edge5" class="edge">
<title>synonym&#45;&gt;sample</title>
<path fill="none" stroke="#000000" d="M2016.2755,-262.8221C2034.2334,-251.2539 2060.0388,-236.3149 2084.7947,-228 2120.6104,-215.9704 2220.9973,-203.9508 2283.7248,-197.294"/>
<polygon fill="#000000" stroke="#000000" points="2284.2531,-200.7579 2293.8331,-196.2331 2283.5224,-193.7961 2284.2531,-200.7579"/>
<text text-anchor="middle" x="2127.2947" y="-231.8" font-family="Times,serif" font-size="14.00" fill="#000000">of_synonym</text>
</g>
<!-- diagnosis -->
<g id="node25" class="node">
<title>diagnosis</title>
<ellipse fill="none" stroke="#000000" cx="747.7947" cy="-279" rx="54.6905" ry="18"/>
<text text-anchor="middle" x="747.7947" y="-275.3" font-family="Times,serif" font-size="14.00" fill="#000000">diagnosis</text>
</g>
<!-- diagnosis&#45;&gt;participant -->
<g id="edge9" class="edge">
<title>diagnosis&#45;&gt;participant</title>
<path fill="none" stroke="#000000" d="M694.8923,-274.5185C608.4748,-265.2356 451.9622,-239.0559 507.7947,-174 527.9903,-150.4681 959.2411,-120.5494 1132.5851,-109.4258"/>
<polygon fill="#000000" stroke="#000000" points="1132.8756,-112.9145 1142.632,-108.7836 1132.429,-105.9287 1132.8756,-112.9145"/>
<text text-anchor="middle" x="552.2947" y="-188.3" font-family="Times,serif" font-size="14.00" fill="#000000">of_diagnosis</text>
</g>
<!-- diagnosis&#45;&gt;sample -->
<g id="edge10" class="edge">
<title>diagnosis&#45;&gt;sample</title>
<path fill="none" stroke="#000000" d="M802.1082,-276.43C982.1007,-267.8548 1575.4551,-239.118 2065.7947,-210 2141.1889,-205.5228 2228.3296,-199.6015 2283.0015,-195.796"/>
<polygon fill="#000000" stroke="#000000" points="2283.4237,-199.2751 2293.1558,-195.0875 2282.9364,-192.2921 2283.4237,-199.2751"/>
<text text-anchor="middle" x="1784.2947" y="-231.8" font-family="Times,serif" font-size="14.00" fill="#000000">of_diagnosis</text>
</g>
</g>
</svg>
