<svg width="2218pt" height="1522pt"
 viewBox="0.00 0.00 2217.50 1522.00" xmlns="http://www.w3.org/2000/svg" xmlns:xlink="http://www.w3.org/1999/xlink">
<g id="graph0" class="graph" transform="scale(1 1) rotate(0) translate(4 1518)">
<title>Perl</title>
<polygon fill="#ffffff" stroke="transparent" points="-4,4 -4,-1518 2213.5,-1518 2213.5,4 -4,4"/>
<!-- study_funding -->
<g id="node1" class="node">
<title>study_funding</title>
<path fill="none" stroke="#000000" d="M186,-305.5C186,-305.5 565,-305.5 565,-305.5 571,-305.5 577,-311.5 577,-317.5 577,-317.5 577,-431.5 577,-431.5 577,-437.5 571,-443.5 565,-443.5 565,-443.5 186,-443.5 186,-443.5 180,-443.5 174,-437.5 174,-431.5 174,-431.5 174,-317.5 174,-317.5 174,-311.5 180,-305.5 186,-305.5"/>
<text text-anchor="middle" x="233.5" y="-370.8" font-family="Times,serif" font-size="14.00" fill="#000000">study_funding</text>
<polyline fill="none" stroke="#000000" points="293,-305.5 293,-443.5 "/>
<text text-anchor="middle" x="303.5" y="-370.8" font-family="Times,serif" font-size="14.00" fill="#000000"> </text>
<polyline fill="none" stroke="#000000" points="314,-305.5 314,-443.5 "/>
<text text-anchor="middle" x="435" y="-428.3" font-family="Times,serif" font-size="14.00" fill="#000000">clinical_trial_arm</text>
<polyline fill="none" stroke="#000000" points="314,-420.5 556,-420.5 "/>
<text text-anchor="middle" x="435" y="-405.3" font-family="Times,serif" font-size="14.00" fill="#000000">clinical_trial_identifier</text>
<polyline fill="none" stroke="#000000" points="314,-397.5 556,-397.5 "/>
<text text-anchor="middle" x="435" y="-382.3" font-family="Times,serif" font-size="14.00" fill="#000000">clinical_trial_system</text>
<polyline fill="none" stroke="#000000" points="314,-374.5 556,-374.5 "/>
<text text-anchor="middle" x="435" y="-359.3" font-family="Times,serif" font-size="14.00" fill="#000000">funding_agency</text>
<polyline fill="none" stroke="#000000" points="314,-351.5 556,-351.5 "/>
<text text-anchor="middle" x="435" y="-336.3" font-family="Times,serif" font-size="14.00" fill="#000000">funding_source_program_name</text>
<polyline fill="none" stroke="#000000" points="314,-328.5 556,-328.5 "/>
<text text-anchor="middle" x="435" y="-313.3" font-family="Times,serif" font-size="14.00" fill="#000000">grant_id</text>
<polyline fill="none" stroke="#000000" points="556,-305.5 556,-443.5 "/>
<text text-anchor="middle" x="566.5" y="-370.8" font-family="Times,serif" font-size="14.00" fill="#000000"> </text>
</g>
<!-- study -->
<g id="node11" class="node">
<title>study</title>
<path fill="none" stroke="#000000" d="M790.5,-.5C790.5,-.5 1180.5,-.5 1180.5,-.5 1186.5,-.5 1192.5,-6.5 1192.5,-12.5 1192.5,-12.5 1192.5,-218.5 1192.5,-218.5 1192.5,-224.5 1186.5,-230.5 1180.5,-230.5 1180.5,-230.5 790.5,-230.5 790.5,-230.5 784.5,-230.5 778.5,-224.5 778.5,-218.5 778.5,-218.5 778.5,-12.5 778.5,-12.5 778.5,-6.5 784.5,-.5 790.5,-.5"/>
<text text-anchor="middle" x="806.5" y="-111.8" font-family="Times,serif" font-size="14.00" fill="#000000">study</text>
<polyline fill="none" stroke="#000000" points="834.5,-.5 834.5,-230.5 "/>
<text text-anchor="middle" x="845" y="-111.8" font-family="Times,serif" font-size="14.00" fill="#000000"> </text>
<polyline fill="none" stroke="#000000" points="855.5,-.5 855.5,-230.5 "/>
<text text-anchor="middle" x="1013.5" y="-215.3" font-family="Times,serif" font-size="14.00" fill="#000000">bioproject_accession</text>
<polyline fill="none" stroke="#000000" points="855.5,-207.5 1171.5,-207.5 "/>
<text text-anchor="middle" x="1013.5" y="-192.3" font-family="Times,serif" font-size="14.00" fill="#000000">experimental_strategy_and_data_subtype</text>
<polyline fill="none" stroke="#000000" points="855.5,-184.5 1171.5,-184.5 "/>
<text text-anchor="middle" x="1013.5" y="-169.3" font-family="Times,serif" font-size="14.00" fill="#000000">external_url</text>
<polyline fill="none" stroke="#000000" points="855.5,-161.5 1171.5,-161.5 "/>
<text text-anchor="middle" x="1013.5" y="-146.3" font-family="Times,serif" font-size="14.00" fill="#000000">phs_accession</text>
<polyline fill="none" stroke="#000000" points="855.5,-138.5 1171.5,-138.5 "/>
<text text-anchor="middle" x="1013.5" y="-123.3" font-family="Times,serif" font-size="14.00" fill="#000000">size_of_data_being_uploaded</text>
<polyline fill="none" stroke="#000000" points="855.5,-115.5 1171.5,-115.5 "/>
<text text-anchor="middle" x="1013.5" y="-100.3" font-family="Times,serif" font-size="14.00" fill="#000000">study_acronym</text>
<polyline fill="none" stroke="#000000" points="855.5,-92.5 1171.5,-92.5 "/>
<text text-anchor="middle" x="1013.5" y="-77.3" font-family="Times,serif" font-size="14.00" fill="#000000">study_data_types</text>
<polyline fill="none" stroke="#000000" points="855.5,-69.5 1171.5,-69.5 "/>
<text text-anchor="middle" x="1013.5" y="-54.3" font-family="Times,serif" font-size="14.00" fill="#000000">study_description</text>
<polyline fill="none" stroke="#000000" points="855.5,-46.5 1171.5,-46.5 "/>
<text text-anchor="middle" x="1013.5" y="-31.3" font-family="Times,serif" font-size="14.00" fill="#000000">study_name</text>
<polyline fill="none" stroke="#000000" points="855.5,-23.5 1171.5,-23.5 "/>
<text text-anchor="middle" x="1013.5" y="-8.3" font-family="Times,serif" font-size="14.00" fill="#000000">study_short_title</text>
<polyline fill="none" stroke="#000000" points="1171.5,-.5 1171.5,-230.5 "/>
<text text-anchor="middle" x="1182" y="-111.8" font-family="Times,serif" font-size="14.00" fill="#000000"> </text>
</g>
<!-- study_funding&#45;&gt;study -->
<g id="edge14" class="edge">
<title>study_funding&#45;&gt;study</title>
<path fill="none" stroke="#000000" d="M417.8397,-305.4796C433.624,-284.6641 453.202,-263.5139 475.5,-249 562.5498,-192.3389 672.6428,-159.6788 768.2428,-140.8752"/>
<polygon fill="#000000" stroke="#000000" points="769.1792,-144.2592 778.3364,-138.9304 767.8548,-137.3856 769.1792,-144.2592"/>
<text text-anchor="middle" x="537.5" y="-252.8" font-family="Times,serif" font-size="14.00" fill="#000000">of_study_funding</text>
</g>
<!-- participant -->
<g id="node2" class="node">
<title>participant</title>
<path fill="none" stroke="#000000" d="M856,-305.5C856,-305.5 1115,-305.5 1115,-305.5 1121,-305.5 1127,-311.5 1127,-317.5 1127,-317.5 1127,-431.5 1127,-431.5 1127,-437.5 1121,-443.5 1115,-443.5 1115,-443.5 856,-443.5 856,-443.5 850,-443.5 844,-437.5 844,-431.5 844,-431.5 844,-317.5 844,-317.5 844,-311.5 850,-305.5 856,-305.5"/>
<text text-anchor="middle" x="892" y="-370.8" font-family="Times,serif" font-size="14.00" fill="#000000">participant</text>
<polyline fill="none" stroke="#000000" points="940,-305.5 940,-443.5 "/>
<text text-anchor="middle" x="950.5" y="-370.8" font-family="Times,serif" font-size="14.00" fill="#000000"> </text>
<polyline fill="none" stroke="#000000" points="961,-305.5 961,-443.5 "/>
<text text-anchor="middle" x="1033.5" y="-428.3" font-family="Times,serif" font-size="14.00" fill="#000000">dbGaP_subject_id</text>
<polyline fill="none" stroke="#000000" points="961,-420.5 1106,-420.5 "/>
<text text-anchor="middle" x="1033.5" y="-405.3" font-family="Times,serif" font-size="14.00" fill="#000000">ethnicity</text>
<polyline fill="none" stroke="#000000" points="961,-397.5 1106,-397.5 "/>
<text text-anchor="middle" x="1033.5" y="-382.3" font-family="Times,serif" font-size="14.00" fill="#000000">gender</text>
<polyline fill="none" stroke="#000000" points="961,-374.5 1106,-374.5 "/>
<text text-anchor="middle" x="1033.5" y="-359.3" font-family="Times,serif" font-size="14.00" fill="#000000">participant_id</text>
<polyline fill="none" stroke="#000000" points="961,-351.5 1106,-351.5 "/>
<text text-anchor="middle" x="1033.5" y="-336.3" font-family="Times,serif" font-size="14.00" fill="#000000">race</text>
<polyline fill="none" stroke="#000000" points="961,-328.5 1106,-328.5 "/>
<text text-anchor="middle" x="1033.5" y="-313.3" font-family="Times,serif" font-size="14.00" fill="#000000">vital_status</text>
<polyline fill="none" stroke="#000000" points="1106,-305.5 1106,-443.5 "/>
<text text-anchor="middle" x="1116.5" y="-370.8" font-family="Times,serif" font-size="14.00" fill="#000000"> </text>
</g>
<!-- participant&#45;&gt;study -->
<g id="edge9" class="edge">
<title>participant&#45;&gt;study</title>
<path fill="none" stroke="#000000" d="M985.5,-305.433C985.5,-285.5505 985.5,-263.218 985.5,-241.0405"/>
<polygon fill="#000000" stroke="#000000" points="989.0001,-240.8711 985.5,-230.8711 982.0001,-240.8711 989.0001,-240.8711"/>
<text text-anchor="middle" x="1036" y="-252.8" font-family="Times,serif" font-size="14.00" fill="#000000">of_participant</text>
</g>
<!-- sample -->
<g id="node3" class="node">
<title>sample</title>
<path fill="none" stroke="#000000" d="M574.5,-518.5C574.5,-518.5 888.5,-518.5 888.5,-518.5 894.5,-518.5 900.5,-524.5 900.5,-530.5 900.5,-530.5 900.5,-943.5 900.5,-943.5 900.5,-949.5 894.5,-955.5 888.5,-955.5 888.5,-955.5 574.5,-955.5 574.5,-955.5 568.5,-955.5 562.5,-949.5 562.5,-943.5 562.5,-943.5 562.5,-530.5 562.5,-530.5 562.5,-524.5 568.5,-518.5 574.5,-518.5"/>
<text text-anchor="middle" x="596.5" y="-733.3" font-family="Times,serif" font-size="14.00" fill="#000000">sample</text>
<polyline fill="none" stroke="#000000" points="630.5,-518.5 630.5,-955.5 "/>
<text text-anchor="middle" x="641" y="-733.3" font-family="Times,serif" font-size="14.00" fill="#000000"> </text>
<polyline fill="none" stroke="#000000" points="651.5,-518.5 651.5,-955.5 "/>
<text text-anchor="middle" x="765.5" y="-940.3" font-family="Times,serif" font-size="14.00" fill="#000000">biosample_accession</text>
<polyline fill="none" stroke="#000000" points="651.5,-932.5 879.5,-932.5 "/>
<text text-anchor="middle" x="765.5" y="-917.3" font-family="Times,serif" font-size="14.00" fill="#000000">dbgap_sample_id</text>
<polyline fill="none" stroke="#000000" points="651.5,-909.5 879.5,-909.5 "/>
<text text-anchor="middle" x="765.5" y="-894.3" font-family="Times,serif" font-size="14.00" fill="#000000">derived_from_specimen</text>
<polyline fill="none" stroke="#000000" points="651.5,-886.5 879.5,-886.5 "/>
<text text-anchor="middle" x="765.5" y="-871.3" font-family="Times,serif" font-size="14.00" fill="#000000">disease_type</text>
<polyline fill="none" stroke="#000000" points="651.5,-863.5 879.5,-863.5 "/>
<text text-anchor="middle" x="765.5" y="-848.3" font-family="Times,serif" font-size="14.00" fill="#000000">participant_age_at_collection</text>
<polyline fill="none" stroke="#000000" points="651.5,-840.5 879.5,-840.5 "/>
<text text-anchor="middle" x="765.5" y="-825.3" font-family="Times,serif" font-size="14.00" fill="#000000">sample_age_at_collection</text>
<polyline fill="none" stroke="#000000" points="651.5,-817.5 879.5,-817.5 "/>
<text text-anchor="middle" x="765.5" y="-802.3" font-family="Times,serif" font-size="14.00" fill="#000000">sample_anatomic_site</text>
<polyline fill="none" stroke="#000000" points="651.5,-794.5 879.5,-794.5 "/>
<text text-anchor="middle" x="765.5" y="-779.3" font-family="Times,serif" font-size="14.00" fill="#000000">sample_description</text>
<polyline fill="none" stroke="#000000" points="651.5,-771.5 879.5,-771.5 "/>
<text text-anchor="middle" x="765.5" y="-756.3" font-family="Times,serif" font-size="14.00" fill="#000000">sample_id</text>
<polyline fill="none" stroke="#000000" points="651.5,-748.5 879.5,-748.5 "/>
<text text-anchor="middle" x="765.5" y="-733.3" font-family="Times,serif" font-size="14.00" fill="#000000">sample_tumor_status</text>
<polyline fill="none" stroke="#000000" points="651.5,-725.5 879.5,-725.5 "/>
<text text-anchor="middle" x="765.5" y="-710.3" font-family="Times,serif" font-size="14.00" fill="#000000">sample_type</text>
<polyline fill="none" stroke="#000000" points="651.5,-702.5 879.5,-702.5 "/>
<text text-anchor="middle" x="765.5" y="-687.3" font-family="Times,serif" font-size="14.00" fill="#000000">tumor_grade</text>
<polyline fill="none" stroke="#000000" points="651.5,-679.5 879.5,-679.5 "/>
<text text-anchor="middle" x="765.5" y="-664.3" font-family="Times,serif" font-size="14.00" fill="#000000">tumor_incidence_type</text>
<polyline fill="none" stroke="#000000" points="651.5,-656.5 879.5,-656.5 "/>
<text text-anchor="middle" x="765.5" y="-641.3" font-family="Times,serif" font-size="14.00" fill="#000000">tumor_morphology</text>
<polyline fill="none" stroke="#000000" points="651.5,-633.5 879.5,-633.5 "/>
<text text-anchor="middle" x="765.5" y="-618.3" font-family="Times,serif" font-size="14.00" fill="#000000">tumor_stage</text>
<polyline fill="none" stroke="#000000" points="651.5,-610.5 879.5,-610.5 "/>
<text text-anchor="middle" x="765.5" y="-595.3" font-family="Times,serif" font-size="14.00" fill="#000000">tumor_stage_clinical_m</text>
<polyline fill="none" stroke="#000000" points="651.5,-587.5 879.5,-587.5 "/>
<text text-anchor="middle" x="765.5" y="-572.3" font-family="Times,serif" font-size="14.00" fill="#000000">tumor_stage_clinical_n</text>
<polyline fill="none" stroke="#000000" points="651.5,-564.5 879.5,-564.5 "/>
<text text-anchor="middle" x="765.5" y="-549.3" font-family="Times,serif" font-size="14.00" fill="#000000">tumor_stage_clinical_t</text>
<polyline fill="none" stroke="#000000" points="651.5,-541.5 879.5,-541.5 "/>
<text text-anchor="middle" x="765.5" y="-526.3" font-family="Times,serif" font-size="14.00" fill="#000000">tumor_status</text>
<polyline fill="none" stroke="#000000" points="879.5,-518.5 879.5,-955.5 "/>
<text text-anchor="middle" x="890" y="-733.3" font-family="Times,serif" font-size="14.00" fill="#000000"> </text>
</g>
<!-- sample&#45;&gt;participant -->
<g id="edge5" class="edge">
<title>sample&#45;&gt;participant</title>
<path fill="none" stroke="#000000" d="M825.9584,-518.4349C833.3964,-506.7988 841.2468,-495.564 849.5,-485 858.872,-473.0039 869.7762,-461.4757 881.2557,-450.6906"/>
<polygon fill="#000000" stroke="#000000" points="883.8628,-453.049 888.8721,-443.7132 879.1343,-447.8875 883.8628,-453.049"/>
<text text-anchor="middle" x="886" y="-488.8" font-family="Times,serif" font-size="14.00" fill="#000000">of_sample</text>
</g>
<!-- sample&#45;&gt;study -->
<g id="edge6" class="edge">
<title>sample&#45;&gt;study</title>
<path fill="none" stroke="#000000" d="M728.7862,-518.3478C731.058,-422.6819 739.1837,-322.9746 761.5,-282 770.0552,-266.2918 780.8007,-251.6519 792.9269,-238.0986"/>
<polygon fill="#000000" stroke="#000000" points="795.5708,-240.3948 799.8006,-230.6809 790.4363,-235.6369 795.5708,-240.3948"/>
<text text-anchor="middle" x="798" y="-370.8" font-family="Times,serif" font-size="14.00" fill="#000000">of_sample</text>
</g>
<!-- alias -->
<g id="node4" class="node">
<title>alias</title>
<path fill="none" stroke="#000000" d="M854,-1214.5C854,-1214.5 1059,-1214.5 1059,-1214.5 1065,-1214.5 1071,-1220.5 1071,-1226.5 1071,-1226.5 1071,-1294.5 1071,-1294.5 1071,-1300.5 1065,-1306.5 1059,-1306.5 1059,-1306.5 854,-1306.5 854,-1306.5 848,-1306.5 842,-1300.5 842,-1294.5 842,-1294.5 842,-1226.5 842,-1226.5 842,-1220.5 848,-1214.5 854,-1214.5"/>
<text text-anchor="middle" x="867" y="-1256.8" font-family="Times,serif" font-size="14.00" fill="#000000">alias</text>
<polyline fill="none" stroke="#000000" points="892,-1214.5 892,-1306.5 "/>
<text text-anchor="middle" x="902.5" y="-1256.8" font-family="Times,serif" font-size="14.00" fill="#000000"> </text>
<polyline fill="none" stroke="#000000" points="913,-1214.5 913,-1306.5 "/>
<text text-anchor="middle" x="981.5" y="-1291.3" font-family="Times,serif" font-size="14.00" fill="#000000">cds_id</text>
<polyline fill="none" stroke="#000000" points="913,-1283.5 1050,-1283.5 "/>
<text text-anchor="middle" x="981.5" y="-1268.3" font-family="Times,serif" font-size="14.00" fill="#000000">cds_node</text>
<polyline fill="none" stroke="#000000" points="913,-1260.5 1050,-1260.5 "/>
<text text-anchor="middle" x="981.5" y="-1245.3" font-family="Times,serif" font-size="14.00" fill="#000000">repository_id</text>
<polyline fill="none" stroke="#000000" points="913,-1237.5 1050,-1237.5 "/>
<text text-anchor="middle" x="981.5" y="-1222.3" font-family="Times,serif" font-size="14.00" fill="#000000">repository_name</text>
<polyline fill="none" stroke="#000000" points="1050,-1214.5 1050,-1306.5 "/>
<text text-anchor="middle" x="1060.5" y="-1256.8" font-family="Times,serif" font-size="14.00" fill="#000000"> </text>
</g>
<!-- alias&#45;&gt;participant -->
<g id="edge4" class="edge">
<title>alias&#45;&gt;participant</title>
<path fill="none" stroke="#000000" d="M951.0063,-1214.1565C938.1458,-1096.9053 909.7753,-779.2106 945.5,-518 948.4044,-496.7638 953.6204,-474.2382 959.3469,-453.4836"/>
<polygon fill="#000000" stroke="#000000" points="962.7409,-454.3436 962.0989,-443.7682 956.0059,-452.4358 962.7409,-454.3436"/>
<text text-anchor="middle" x="973" y="-733.3" font-family="Times,serif" font-size="14.00" fill="#000000">of_alias</text>
</g>
<!-- alias&#45;&gt;sample -->
<g id="edge3" class="edge">
<title>alias&#45;&gt;sample</title>
<path fill="none" stroke="#000000" d="M936.5328,-1214.0429C912.281,-1157.6172 869.622,-1058.3639 829.4733,-964.9511"/>
<polygon fill="#000000" stroke="#000000" points="832.6359,-963.4458 825.4716,-955.6405 826.2048,-966.21 832.6359,-963.4458"/>
<text text-anchor="middle" x="865" y="-977.8" font-family="Times,serif" font-size="14.00" fill="#000000">of_alias</text>
</g>
<!-- diagnosis -->
<g id="node5" class="node">
<title>diagnosis</title>
<path fill="none" stroke="#000000" d="M1021.5,-610.5C1021.5,-610.5 1395.5,-610.5 1395.5,-610.5 1401.5,-610.5 1407.5,-616.5 1407.5,-622.5 1407.5,-622.5 1407.5,-851.5 1407.5,-851.5 1407.5,-857.5 1401.5,-863.5 1395.5,-863.5 1395.5,-863.5 1021.5,-863.5 1021.5,-863.5 1015.5,-863.5 1009.5,-857.5 1009.5,-851.5 1009.5,-851.5 1009.5,-622.5 1009.5,-622.5 1009.5,-616.5 1015.5,-610.5 1021.5,-610.5"/>
<text text-anchor="middle" x="1051.5" y="-733.3" font-family="Times,serif" font-size="14.00" fill="#000000">diagnosis</text>
<polyline fill="none" stroke="#000000" points="1093.5,-610.5 1093.5,-863.5 "/>
<text text-anchor="middle" x="1104" y="-733.3" font-family="Times,serif" font-size="14.00" fill="#000000"> </text>
<polyline fill="none" stroke="#000000" points="1114.5,-610.5 1114.5,-863.5 "/>
<text text-anchor="middle" x="1250.5" y="-848.3" font-family="Times,serif" font-size="14.00" fill="#000000">age_at_diagnosis</text>
<polyline fill="none" stroke="#000000" points="1114.5,-840.5 1386.5,-840.5 "/>
<text text-anchor="middle" x="1250.5" y="-825.3" font-family="Times,serif" font-size="14.00" fill="#000000">days_to_last_followup</text>
<polyline fill="none" stroke="#000000" points="1114.5,-817.5 1386.5,-817.5 "/>
<text text-anchor="middle" x="1250.5" y="-802.3" font-family="Times,serif" font-size="14.00" fill="#000000">days_to_last_known_disease_status</text>
<polyline fill="none" stroke="#000000" points="1114.5,-794.5 1386.5,-794.5 "/>
<text text-anchor="middle" x="1250.5" y="-779.3" font-family="Times,serif" font-size="14.00" fill="#000000">days_to_recurrence</text>
<polyline fill="none" stroke="#000000" points="1114.5,-771.5 1386.5,-771.5 "/>
<text text-anchor="middle" x="1250.5" y="-756.3" font-family="Times,serif" font-size="14.00" fill="#000000">diagnosis_id</text>
<polyline fill="none" stroke="#000000" points="1114.5,-748.5 1386.5,-748.5 "/>
<text text-anchor="middle" x="1250.5" y="-733.3" font-family="Times,serif" font-size="14.00" fill="#000000">last_known_disease_status</text>
<polyline fill="none" stroke="#000000" points="1114.5,-725.5 1386.5,-725.5 "/>
<text text-anchor="middle" x="1250.5" y="-710.3" font-family="Times,serif" font-size="14.00" fill="#000000">primary_diagnosis</text>
<polyline fill="none" stroke="#000000" points="1114.5,-702.5 1386.5,-702.5 "/>
<text text-anchor="middle" x="1250.5" y="-687.3" font-family="Times,serif" font-size="14.00" fill="#000000">primary_site</text>
<polyline fill="none" stroke="#000000" points="1114.5,-679.5 1386.5,-679.5 "/>
<text text-anchor="middle" x="1250.5" y="-664.3" font-family="Times,serif" font-size="14.00" fill="#000000">progression_or_recurrence</text>
<polyline fill="none" stroke="#000000" points="1114.5,-656.5 1386.5,-656.5 "/>
<text text-anchor="middle" x="1250.5" y="-641.3" font-family="Times,serif" font-size="14.00" fill="#000000">site_of_resection_or_biopsy</text>
<polyline fill="none" stroke="#000000" points="1114.5,-633.5 1386.5,-633.5 "/>
<text text-anchor="middle" x="1250.5" y="-618.3" font-family="Times,serif" font-size="14.00" fill="#000000">tissue_or_organ_of_origin</text>
<polyline fill="none" stroke="#000000" points="1386.5,-610.5 1386.5,-863.5 "/>
<text text-anchor="middle" x="1397" y="-733.3" font-family="Times,serif" font-size="14.00" fill="#000000"> </text>
</g>
<!-- diagnosis&#45;&gt;participant -->
<g id="edge15" class="edge">
<title>diagnosis&#45;&gt;participant</title>
<path fill="none" stroke="#000000" d="M1130.662,-610.4696C1098.2596,-557.7976 1061.6722,-498.3224 1033.3354,-452.2593"/>
<polygon fill="#000000" stroke="#000000" points="1036.1835,-450.2092 1027.9627,-443.5257 1030.2213,-453.877 1036.1835,-450.2092"/>
<text text-anchor="middle" x="1103" y="-488.8" font-family="Times,serif" font-size="14.00" fill="#000000">of_diagnosis</text>
</g>
<!-- study_personnel -->
<g id="node6" class="node">
<title>study_personnel</title>
<path fill="none" stroke="#000000" d="M1410,-317C1410,-317 1717,-317 1717,-317 1723,-317 1729,-323 1729,-329 1729,-329 1729,-420 1729,-420 1729,-426 1723,-432 1717,-432 1717,-432 1410,-432 1410,-432 1404,-432 1398,-426 1398,-420 1398,-420 1398,-329 1398,-329 1398,-323 1404,-317 1410,-317"/>
<text text-anchor="middle" x="1465" y="-370.8" font-family="Times,serif" font-size="14.00" fill="#000000">study_personnel</text>
<polyline fill="none" stroke="#000000" points="1532,-317 1532,-432 "/>
<text text-anchor="middle" x="1542.5" y="-370.8" font-family="Times,serif" font-size="14.00" fill="#000000"> </text>
<polyline fill="none" stroke="#000000" points="1553,-317 1553,-432 "/>
<text text-anchor="middle" x="1630.5" y="-416.8" font-family="Times,serif" font-size="14.00" fill="#000000">email_address</text>
<polyline fill="none" stroke="#000000" points="1553,-409 1708,-409 "/>
<text text-anchor="middle" x="1630.5" y="-393.8" font-family="Times,serif" font-size="14.00" fill="#000000">institution</text>
<polyline fill="none" stroke="#000000" points="1553,-386 1708,-386 "/>
<text text-anchor="middle" x="1630.5" y="-370.8" font-family="Times,serif" font-size="14.00" fill="#000000">personnel_name</text>
<polyline fill="none" stroke="#000000" points="1553,-363 1708,-363 "/>
<text text-anchor="middle" x="1630.5" y="-347.8" font-family="Times,serif" font-size="14.00" fill="#000000">personnel_type</text>
<polyline fill="none" stroke="#000000" points="1553,-340 1708,-340 "/>
<text text-anchor="middle" x="1630.5" y="-324.8" font-family="Times,serif" font-size="14.00" fill="#000000">study_personnel_id</text>
<polyline fill="none" stroke="#000000" points="1708,-317 1708,-432 "/>
<text text-anchor="middle" x="1718.5" y="-370.8" font-family="Times,serif" font-size="14.00" fill="#000000"> </text>
</g>
<!-- study_personnel&#45;&gt;study -->
<g id="edge16" class="edge">
<title>study_personnel&#45;&gt;study</title>
<path fill="none" stroke="#000000" d="M1458.9834,-316.8179C1436.2839,-304.8882 1412.253,-292.7052 1389.5,-282 1329.4313,-253.738 1263.2231,-225.3426 1202.0915,-200.2073"/>
<polygon fill="#000000" stroke="#000000" points="1203.2988,-196.9196 1192.7186,-196.3626 1200.6422,-203.3959 1203.2988,-196.9196"/>
<text text-anchor="middle" x="1415" y="-252.8" font-family="Times,serif" font-size="14.00" fill="#000000">of_study_personnel</text>
</g>
<!-- experiment -->
<g id="node7" class="node">
<title>experiment</title>
<path fill="none" stroke="#000000" d="M264.5,-714C264.5,-714 532.5,-714 532.5,-714 538.5,-714 544.5,-720 544.5,-726 544.5,-726 544.5,-748 544.5,-748 544.5,-754 538.5,-760 532.5,-760 532.5,-760 264.5,-760 264.5,-760 258.5,-760 252.5,-754 252.5,-748 252.5,-748 252.5,-726 252.5,-726 252.5,-720 258.5,-714 264.5,-714"/>
<text text-anchor="middle" x="301.5" y="-733.3" font-family="Times,serif" font-size="14.00" fill="#000000">experiment</text>
<polyline fill="none" stroke="#000000" points="350.5,-714 350.5,-760 "/>
<text text-anchor="middle" x="361" y="-733.3" font-family="Times,serif" font-size="14.00" fill="#000000"> </text>
<polyline fill="none" stroke="#000000" points="371.5,-714 371.5,-760 "/>
<text text-anchor="middle" x="447.5" y="-744.8" font-family="Times,serif" font-size="14.00" fill="#000000">design_description</text>
<polyline fill="none" stroke="#000000" points="371.5,-737 523.5,-737 "/>
<text text-anchor="middle" x="447.5" y="-721.8" font-family="Times,serif" font-size="14.00" fill="#000000">experiment_id</text>
<polyline fill="none" stroke="#000000" points="523.5,-714 523.5,-760 "/>
<text text-anchor="middle" x="534" y="-733.3" font-family="Times,serif" font-size="14.00" fill="#000000"> </text>
</g>
<!-- experiment&#45;&gt;study -->
<g id="edge11" class="edge">
<title>experiment&#45;&gt;study</title>
<path fill="none" stroke="#000000" d="M414.8176,-713.9727C459.2748,-651.165 579.6206,-480.6483 585.5,-467 618.7445,-389.8265 572.1077,-347.6962 624.5,-282 661.6201,-235.454 714.7116,-201.3716 768.7968,-176.6383"/>
<polygon fill="#000000" stroke="#000000" points="770.4896,-179.7155 778.1906,-172.439 767.6328,-173.3249 770.4896,-179.7155"/>
<text text-anchor="middle" x="676" y="-370.8" font-family="Times,serif" font-size="14.00" fill="#000000">of_experiment</text>
</g>
<!-- sequencing_file -->
<g id="node8" class="node">
<title>sequencing_file</title>
<path fill="none" stroke="#000000" d="M343,-1007.5C343,-1007.5 812,-1007.5 812,-1007.5 818,-1007.5 824,-1013.5 824,-1019.5 824,-1019.5 824,-1501.5 824,-1501.5 824,-1507.5 818,-1513.5 812,-1513.5 812,-1513.5 343,-1513.5 343,-1513.5 337,-1513.5 331,-1507.5 331,-1501.5 331,-1501.5 331,-1019.5 331,-1019.5 331,-1013.5 337,-1007.5 343,-1007.5"/>
<text text-anchor="middle" x="395" y="-1256.8" font-family="Times,serif" font-size="14.00" fill="#000000">sequencing_file</text>
<polyline fill="none" stroke="#000000" points="459,-1007.5 459,-1513.5 "/>
<text text-anchor="middle" x="469.5" y="-1256.8" font-family="Times,serif" font-size="14.00" fill="#000000"> </text>
<polyline fill="none" stroke="#000000" points="480,-1007.5 480,-1513.5 "/>
<text text-anchor="middle" x="641.5" y="-1498.3" font-family="Times,serif" font-size="14.00" fill="#000000">avg_read_length</text>
<polyline fill="none" stroke="#000000" points="480,-1490.5 803,-1490.5 "/>
<text text-anchor="middle" x="641.5" y="-1475.3" font-family="Times,serif" font-size="14.00" fill="#000000">checksum_algorithm</text>
<polyline fill="none" stroke="#000000" points="480,-1467.5 803,-1467.5 "/>
<text text-anchor="middle" x="641.5" y="-1452.3" font-family="Times,serif" font-size="14.00" fill="#000000">checksum_value</text>
<polyline fill="none" stroke="#000000" points="480,-1444.5 803,-1444.5 "/>
<text text-anchor="middle" x="641.5" y="-1429.3" font-family="Times,serif" font-size="14.00" fill="#000000">coverage</text>
<polyline fill="none" stroke="#000000" points="480,-1421.5 803,-1421.5 "/>
<text text-anchor="middle" x="641.5" y="-1406.3" font-family="Times,serif" font-size="14.00" fill="#000000">custom_assembly_fasta_file_for_alignment</text>
<polyline fill="none" stroke="#000000" points="480,-1398.5 803,-1398.5 "/>
<text text-anchor="middle" x="641.5" y="-1383.3" font-family="Times,serif" font-size="14.00" fill="#000000">dcf_indexd_guid</text>
<polyline fill="none" stroke="#000000" points="480,-1375.5 803,-1375.5 "/>
<text text-anchor="middle" x="641.5" y="-1360.3" font-family="Times,serif" font-size="14.00" fill="#000000">file_description</text>
<polyline fill="none" stroke="#000000" points="480,-1352.5 803,-1352.5 "/>
<text text-anchor="middle" x="641.5" y="-1337.3" font-family="Times,serif" font-size="14.00" fill="#000000">file_mapping_level</text>
<polyline fill="none" stroke="#000000" points="480,-1329.5 803,-1329.5 "/>
<text text-anchor="middle" x="641.5" y="-1314.3" font-family="Times,serif" font-size="14.00" fill="#000000">file_name</text>
<polyline fill="none" stroke="#000000" points="480,-1306.5 803,-1306.5 "/>
<text text-anchor="middle" x="641.5" y="-1291.3" font-family="Times,serif" font-size="14.00" fill="#000000">file_size</text>
<polyline fill="none" stroke="#000000" points="480,-1283.5 803,-1283.5 "/>
<text text-anchor="middle" x="641.5" y="-1268.3" font-family="Times,serif" font-size="14.00" fill="#000000">file_type</text>
<polyline fill="none" stroke="#000000" points="480,-1260.5 803,-1260.5 "/>
<text text-anchor="middle" x="641.5" y="-1245.3" font-family="Times,serif" font-size="14.00" fill="#000000">file_url_in_cds</text>
<polyline fill="none" stroke="#000000" points="480,-1237.5 803,-1237.5 "/>
<text text-anchor="middle" x="641.5" y="-1222.3" font-family="Times,serif" font-size="14.00" fill="#000000">library_id</text>
<polyline fill="none" stroke="#000000" points="480,-1214.5 803,-1214.5 "/>
<text text-anchor="middle" x="641.5" y="-1199.3" font-family="Times,serif" font-size="14.00" fill="#000000">library_layout</text>
<polyline fill="none" stroke="#000000" points="480,-1191.5 803,-1191.5 "/>
<text text-anchor="middle" x="641.5" y="-1176.3" font-family="Times,serif" font-size="14.00" fill="#000000">library_selection</text>
<polyline fill="none" stroke="#000000" points="480,-1168.5 803,-1168.5 "/>
<text text-anchor="middle" x="641.5" y="-1153.3" font-family="Times,serif" font-size="14.00" fill="#000000">library_source</text>
<polyline fill="none" stroke="#000000" points="480,-1145.5 803,-1145.5 "/>
<text text-anchor="middle" x="641.5" y="-1130.3" font-family="Times,serif" font-size="14.00" fill="#000000">library_strategy</text>
<polyline fill="none" stroke="#000000" points="480,-1122.5 803,-1122.5 "/>
<text text-anchor="middle" x="641.5" y="-1107.3" font-family="Times,serif" font-size="14.00" fill="#000000">md5sum</text>
<polyline fill="none" stroke="#000000" points="480,-1099.5 803,-1099.5 "/>
<text text-anchor="middle" x="641.5" y="-1084.3" font-family="Times,serif" font-size="14.00" fill="#000000">number_of_bp</text>
<polyline fill="none" stroke="#000000" points="480,-1076.5 803,-1076.5 "/>
<text text-anchor="middle" x="641.5" y="-1061.3" font-family="Times,serif" font-size="14.00" fill="#000000">number_of_reads</text>
<polyline fill="none" stroke="#000000" points="480,-1053.5 803,-1053.5 "/>
<text text-anchor="middle" x="641.5" y="-1038.3" font-family="Times,serif" font-size="14.00" fill="#000000">reference_genome_assembly</text>
<polyline fill="none" stroke="#000000" points="480,-1030.5 803,-1030.5 "/>
<text text-anchor="middle" x="641.5" y="-1015.3" font-family="Times,serif" font-size="14.00" fill="#000000">sequence_alignment_software</text>
<polyline fill="none" stroke="#000000" points="803,-1007.5 803,-1513.5 "/>
<text text-anchor="middle" x="813.5" y="-1256.8" font-family="Times,serif" font-size="14.00" fill="#000000"> </text>
</g>
<!-- sequencing_file&#45;&gt;sample -->
<g id="edge7" class="edge">
<title>sequencing_file&#45;&gt;sample</title>
<path fill="none" stroke="#000000" d="M652.0189,-1007.184C656.136,-993.1886 660.2626,-979.161 664.3514,-965.2615"/>
<polygon fill="#000000" stroke="#000000" points="667.7111,-966.2425 667.1756,-955.6612 660.9956,-964.267 667.7111,-966.2425"/>
<text text-anchor="middle" x="726" y="-977.8" font-family="Times,serif" font-size="14.00" fill="#000000">of_sequencing_file</text>
</g>
<!-- sequencing_file&#45;&gt;experiment -->
<g id="edge8" class="edge">
<title>sequencing_file&#45;&gt;experiment</title>
<path fill="none" stroke="#000000" d="M490.8838,-1007.184C458.8084,-913.3767 426.2385,-818.1235 409.6762,-769.6856"/>
<polygon fill="#000000" stroke="#000000" points="412.938,-768.4071 406.3908,-760.0774 406.3145,-770.672 412.938,-768.4071"/>
<text text-anchor="middle" x="550" y="-977.8" font-family="Times,serif" font-size="14.00" fill="#000000">of_sequencing_file</text>
</g>
<!-- therapeutic_procedure -->
<g id="node9" class="node">
<title>therapeutic_procedure</title>
<path fill="none" stroke="#000000" d="M1438,-679.5C1438,-679.5 1803,-679.5 1803,-679.5 1809,-679.5 1815,-685.5 1815,-691.5 1815,-691.5 1815,-782.5 1815,-782.5 1815,-788.5 1809,-794.5 1803,-794.5 1803,-794.5 1438,-794.5 1438,-794.5 1432,-794.5 1426,-788.5 1426,-782.5 1426,-782.5 1426,-691.5 1426,-691.5 1426,-685.5 1432,-679.5 1438,-679.5"/>
<text text-anchor="middle" x="1516.5" y="-733.3" font-family="Times,serif" font-size="14.00" fill="#000000">therapeutic_procedure</text>
<polyline fill="none" stroke="#000000" points="1607,-679.5 1607,-794.5 "/>
<text text-anchor="middle" x="1617.5" y="-733.3" font-family="Times,serif" font-size="14.00" fill="#000000"> </text>
<polyline fill="none" stroke="#000000" points="1628,-679.5 1628,-794.5 "/>
<text text-anchor="middle" x="1711" y="-779.3" font-family="Times,serif" font-size="14.00" fill="#000000">days_to_treatment</text>
<polyline fill="none" stroke="#000000" points="1628,-771.5 1794,-771.5 "/>
<text text-anchor="middle" x="1711" y="-756.3" font-family="Times,serif" font-size="14.00" fill="#000000">therapeutic_agents</text>
<polyline fill="none" stroke="#000000" points="1628,-748.5 1794,-748.5 "/>
<text text-anchor="middle" x="1711" y="-733.3" font-family="Times,serif" font-size="14.00" fill="#000000">treatement_outcome</text>
<polyline fill="none" stroke="#000000" points="1628,-725.5 1794,-725.5 "/>
<text text-anchor="middle" x="1711" y="-710.3" font-family="Times,serif" font-size="14.00" fill="#000000">treatment_id</text>
<polyline fill="none" stroke="#000000" points="1628,-702.5 1794,-702.5 "/>
<text text-anchor="middle" x="1711" y="-687.3" font-family="Times,serif" font-size="14.00" fill="#000000">treatment_type</text>
<polyline fill="none" stroke="#000000" points="1794,-679.5 1794,-794.5 "/>
<text text-anchor="middle" x="1804.5" y="-733.3" font-family="Times,serif" font-size="14.00" fill="#000000"> </text>
</g>
<!-- therapeutic_procedure&#45;&gt;participant -->
<g id="edge13" class="edge">
<title>therapeutic_procedure&#45;&gt;participant</title>
<path fill="none" stroke="#000000" d="M1582.9448,-679.1764C1546.6634,-628.2971 1486.9444,-556.5016 1416.5,-518 1305.1209,-457.1255 1254.0193,-512.4332 1135.5,-467 1122.0373,-461.8392 1108.4482,-455.444 1095.2354,-448.4436"/>
<polygon fill="#000000" stroke="#000000" points="1096.6119,-445.2083 1086.1543,-443.5083 1093.2693,-451.3587 1096.6119,-445.2083"/>
<text text-anchor="middle" x="1465.5" y="-488.8" font-family="Times,serif" font-size="14.00" fill="#000000">of_therapeutic_procedure</text>
</g>
<!-- clinical_measure_file -->
<g id="node10" class="node">
<title>clinical_measure_file</title>
<path fill="none" stroke="#000000" d="M1845.5,-622C1845.5,-622 2197.5,-622 2197.5,-622 2203.5,-622 2209.5,-628 2209.5,-634 2209.5,-634 2209.5,-840 2209.5,-840 2209.5,-846 2203.5,-852 2197.5,-852 2197.5,-852 1845.5,-852 1845.5,-852 1839.5,-852 1833.5,-846 1833.5,-840 1833.5,-840 1833.5,-634 1833.5,-634 1833.5,-628 1839.5,-622 1845.5,-622"/>
<text text-anchor="middle" x="1917" y="-733.3" font-family="Times,serif" font-size="14.00" fill="#000000">clinical_measure_file</text>
<polyline fill="none" stroke="#000000" points="2000.5,-622 2000.5,-852 "/>
<text text-anchor="middle" x="2011" y="-733.3" font-family="Times,serif" font-size="14.00" fill="#000000"> </text>
<polyline fill="none" stroke="#000000" points="2021.5,-622 2021.5,-852 "/>
<text text-anchor="middle" x="2105" y="-836.8" font-family="Times,serif" font-size="14.00" fill="#000000">checksum_algorithm</text>
<polyline fill="none" stroke="#000000" points="2021.5,-829 2188.5,-829 "/>
<text text-anchor="middle" x="2105" y="-813.8" font-family="Times,serif" font-size="14.00" fill="#000000">checksum_value</text>
<polyline fill="none" stroke="#000000" points="2021.5,-806 2188.5,-806 "/>
<text text-anchor="middle" x="2105" y="-790.8" font-family="Times,serif" font-size="14.00" fill="#000000">dcf_indexd_guid</text>
<polyline fill="none" stroke="#000000" points="2021.5,-783 2188.5,-783 "/>
<text text-anchor="middle" x="2105" y="-767.8" font-family="Times,serif" font-size="14.00" fill="#000000">file_description</text>
<polyline fill="none" stroke="#000000" points="2021.5,-760 2188.5,-760 "/>
<text text-anchor="middle" x="2105" y="-744.8" font-family="Times,serif" font-size="14.00" fill="#000000">file_mapping_level</text>
<polyline fill="none" stroke="#000000" points="2021.5,-737 2188.5,-737 "/>
<text text-anchor="middle" x="2105" y="-721.8" font-family="Times,serif" font-size="14.00" fill="#000000">file_name</text>
<polyline fill="none" stroke="#000000" points="2021.5,-714 2188.5,-714 "/>
<text text-anchor="middle" x="2105" y="-698.8" font-family="Times,serif" font-size="14.00" fill="#000000">file_size</text>
<polyline fill="none" stroke="#000000" points="2021.5,-691 2188.5,-691 "/>
<text text-anchor="middle" x="2105" y="-675.8" font-family="Times,serif" font-size="14.00" fill="#000000">file_type</text>
<polyline fill="none" stroke="#000000" points="2021.5,-668 2188.5,-668 "/>
<text text-anchor="middle" x="2105" y="-652.8" font-family="Times,serif" font-size="14.00" fill="#000000">file_url_in_cds</text>
<polyline fill="none" stroke="#000000" points="2021.5,-645 2188.5,-645 "/>
<text text-anchor="middle" x="2105" y="-629.8" font-family="Times,serif" font-size="14.00" fill="#000000">md5sum</text>
<polyline fill="none" stroke="#000000" points="2188.5,-622 2188.5,-852 "/>
<text text-anchor="middle" x="2199" y="-733.3" font-family="Times,serif" font-size="14.00" fill="#000000"> </text>
</g>
<!-- clinical_measure_file&#45;&gt;participant -->
<g id="edge12" class="edge">
<title>clinical_measure_file&#45;&gt;participant</title>
<path fill="none" stroke="#000000" d="M1944.5297,-621.9811C1912.1864,-582.625 1871.1789,-542.4063 1824.5,-518 1798.4985,-504.405 1591.7384,-487.4533 1562.5,-485 1467.8594,-477.0589 1226.3052,-494.8266 1135.5,-467 1120.3596,-462.3603 1105.2099,-455.8157 1090.6735,-448.326"/>
<polygon fill="#000000" stroke="#000000" points="1092.1787,-445.1622 1081.7074,-443.5491 1088.8872,-451.3401 1092.1787,-445.1622"/>
<text text-anchor="middle" x="1845" y="-488.8" font-family="Times,serif" font-size="14.00" fill="#000000">of_clinical_measure_file_participant</text>
</g>
<!-- clinical_measure -->
<g id="node12" class="node">
<title>clinical_measure</title>
<path fill="none" stroke="#000000" d="M1157,-356.5C1157,-356.5 1368,-356.5 1368,-356.5 1374,-356.5 1380,-362.5 1380,-368.5 1380,-368.5 1380,-380.5 1380,-380.5 1380,-386.5 1374,-392.5 1368,-392.5 1368,-392.5 1157,-392.5 1157,-392.5 1151,-392.5 1145,-386.5 1145,-380.5 1145,-380.5 1145,-368.5 1145,-368.5 1145,-362.5 1151,-356.5 1157,-356.5"/>
<text text-anchor="middle" x="1213.5" y="-370.8" font-family="Times,serif" font-size="14.00" fill="#000000">clinical_measure</text>
<polyline fill="none" stroke="#000000" points="1282,-356.5 1282,-392.5 "/>
<text text-anchor="middle" x="1292.5" y="-370.8" font-family="Times,serif" font-size="14.00" fill="#000000"> </text>
<polyline fill="none" stroke="#000000" points="1303,-356.5 1303,-392.5 "/>
<text text-anchor="middle" x="1331" y="-370.8" font-family="Times,serif" font-size="14.00" fill="#000000">name</text>
<polyline fill="none" stroke="#000000" points="1359,-356.5 1359,-392.5 "/>
<text text-anchor="middle" x="1369.5" y="-370.8" font-family="Times,serif" font-size="14.00" fill="#000000"> </text>
</g>
<!-- clinical_measure_file&#45;&gt;clinical_measure -->
<g id="edge10" class="edge">
<title>clinical_measure_file&#45;&gt;clinical_measure</title>
<path fill="none" stroke="#000000" d="M2042.3187,-621.8101C2044.2133,-572.8631 2035.8257,-519.292 1999.5,-485 1974.8463,-461.7266 1421.5798,-477.9702 1389.5,-467 1349.3842,-453.2818 1311.1651,-422.1235 1287.3273,-399.7594"/>
<polygon fill="#000000" stroke="#000000" points="1289.4518,-396.9473 1279.8125,-392.5501 1284.6057,-401.9987 1289.4518,-396.9473"/>
<text text-anchor="middle" x="2098.5" y="-488.8" font-family="Times,serif" font-size="14.00" fill="#000000">of_clinical_measure_file</text>
</g>
<!-- clinical_measure&#45;&gt;study -->
<g id="edge2" class="edge">
<title>clinical_measure&#45;&gt;study</title>
<path fill="none" stroke="#000000" d="M1243.0219,-356.2876C1216.1983,-331.2071 1165.5893,-283.8868 1116.2876,-237.7888"/>
<polygon fill="#000000" stroke="#000000" points="1118.4035,-234.9756 1108.7087,-230.7023 1113.6227,-240.0887 1118.4035,-234.9756"/>
<text text-anchor="middle" x="1212.5" y="-252.8" font-family="Times,serif" font-size="14.00" fill="#000000">of_clinical_measure</text>
</g>
<!-- imaging_file -->
<g id="node13" class="node">
<title>imaging_file</title>
<path fill="none" stroke="#000000" d="M12,-1088C12,-1088 301,-1088 301,-1088 307,-1088 313,-1094 313,-1100 313,-1100 313,-1421 313,-1421 313,-1427 307,-1433 301,-1433 301,-1433 12,-1433 12,-1433 6,-1433 0,-1427 0,-1421 0,-1421 0,-1100 0,-1100 0,-1094 6,-1088 12,-1088"/>
<text text-anchor="middle" x="52" y="-1256.8" font-family="Times,serif" font-size="14.00" fill="#000000">imaging_file</text>
<polyline fill="none" stroke="#000000" points="104,-1088 104,-1433 "/>
<text text-anchor="middle" x="114.5" y="-1256.8" font-family="Times,serif" font-size="14.00" fill="#000000"> </text>
<polyline fill="none" stroke="#000000" points="125,-1088 125,-1433 "/>
<text text-anchor="middle" x="208.5" y="-1417.8" font-family="Times,serif" font-size="14.00" fill="#000000">checksum_algorithm</text>
<polyline fill="none" stroke="#000000" points="125,-1410 292,-1410 "/>
<text text-anchor="middle" x="208.5" y="-1394.8" font-family="Times,serif" font-size="14.00" fill="#000000">checksum_value</text>
<polyline fill="none" stroke="#000000" points="125,-1387 292,-1387 "/>
<text text-anchor="middle" x="208.5" y="-1371.8" font-family="Times,serif" font-size="14.00" fill="#000000">dcf_indexd_guid</text>
<polyline fill="none" stroke="#000000" points="125,-1364 292,-1364 "/>
<text text-anchor="middle" x="208.5" y="-1348.8" font-family="Times,serif" font-size="14.00" fill="#000000">file_description</text>
<polyline fill="none" stroke="#000000" points="125,-1341 292,-1341 "/>
<text text-anchor="middle" x="208.5" y="-1325.8" font-family="Times,serif" font-size="14.00" fill="#000000">file_mapping_level</text>
<polyline fill="none" stroke="#000000" points="125,-1318 292,-1318 "/>
<text text-anchor="middle" x="208.5" y="-1302.8" font-family="Times,serif" font-size="14.00" fill="#000000">file_name</text>
<polyline fill="none" stroke="#000000" points="125,-1295 292,-1295 "/>
<text text-anchor="middle" x="208.5" y="-1279.8" font-family="Times,serif" font-size="14.00" fill="#000000">file_size</text>
<polyline fill="none" stroke="#000000" points="125,-1272 292,-1272 "/>
<text text-anchor="middle" x="208.5" y="-1256.8" font-family="Times,serif" font-size="14.00" fill="#000000">file_type</text>
<polyline fill="none" stroke="#000000" points="125,-1249 292,-1249 "/>
<text text-anchor="middle" x="208.5" y="-1233.8" font-family="Times,serif" font-size="14.00" fill="#000000">file_url_in_cds</text>
<polyline fill="none" stroke="#000000" points="125,-1226 292,-1226 "/>
<text text-anchor="middle" x="208.5" y="-1210.8" font-family="Times,serif" font-size="14.00" fill="#000000">image_modality</text>
<polyline fill="none" stroke="#000000" points="125,-1203 292,-1203 "/>
<text text-anchor="middle" x="208.5" y="-1187.8" font-family="Times,serif" font-size="14.00" fill="#000000">imaging_platform</text>
<polyline fill="none" stroke="#000000" points="125,-1180 292,-1180 "/>
<text text-anchor="middle" x="208.5" y="-1164.8" font-family="Times,serif" font-size="14.00" fill="#000000">instrument_model</text>
<polyline fill="none" stroke="#000000" points="125,-1157 292,-1157 "/>
<text text-anchor="middle" x="208.5" y="-1141.8" font-family="Times,serif" font-size="14.00" fill="#000000">md5sum</text>
<polyline fill="none" stroke="#000000" points="125,-1134 292,-1134 "/>
<text text-anchor="middle" x="208.5" y="-1118.8" font-family="Times,serif" font-size="14.00" fill="#000000">platform</text>
<polyline fill="none" stroke="#000000" points="125,-1111 292,-1111 "/>
<text text-anchor="middle" x="208.5" y="-1095.8" font-family="Times,serif" font-size="14.00" fill="#000000">software_package</text>
<polyline fill="none" stroke="#000000" points="292,-1088 292,-1433 "/>
<text text-anchor="middle" x="302.5" y="-1256.8" font-family="Times,serif" font-size="14.00" fill="#000000"> </text>
</g>
<!-- imaging_file&#45;&gt;sample -->
<g id="edge17" class="edge">
<title>imaging_file&#45;&gt;sample</title>
<path fill="none" stroke="#000000" d="M255.467,-1087.6873C275.4769,-1059.2036 297.7389,-1031.1371 321.5,-1007 339.9196,-988.289 345.7943,-982.8889 370.5,-974 447.3999,-946.332 481.5132,-994.6912 553.5,-956 553.5944,-955.9493 553.6888,-955.8984 553.7831,-955.8476"/>
<polygon fill="#000000" stroke="#000000" points="555.5038,-958.8955 562.4661,-950.9094 552.0432,-952.8107 555.5038,-958.8955"/>
<text text-anchor="middle" x="425" y="-977.8" font-family="Times,serif" font-size="14.00" fill="#000000">of_imaging_file</text>
</g>
<!-- imaging_file&#45;&gt;experiment -->
<g id="edge18" class="edge">
<title>imaging_file&#45;&gt;experiment</title>
<path fill="none" stroke="#000000" d="M150.3974,-1087.7824C154.1038,-1049.1326 162.1283,-1009.1915 177.5,-974 216.8316,-883.9552 305.3632,-806.4612 357.6538,-766.3052"/>
<polygon fill="#000000" stroke="#000000" points="359.8702,-769.017 365.7219,-760.1848 355.6395,-763.4401 359.8702,-769.017"/>
<text text-anchor="middle" x="232" y="-977.8" font-family="Times,serif" font-size="14.00" fill="#000000">of_imaging_file</text>
</g>
<!-- study_admin -->
<g id="node14" class="node">
<title>study_admin</title>
<path fill="none" stroke="#000000" d="M1759.5,-282.5C1759.5,-282.5 2085.5,-282.5 2085.5,-282.5 2091.5,-282.5 2097.5,-288.5 2097.5,-294.5 2097.5,-294.5 2097.5,-454.5 2097.5,-454.5 2097.5,-460.5 2091.5,-466.5 2085.5,-466.5 2085.5,-466.5 1759.5,-466.5 1759.5,-466.5 1753.5,-466.5 1747.5,-460.5 1747.5,-454.5 1747.5,-454.5 1747.5,-294.5 1747.5,-294.5 1747.5,-288.5 1753.5,-282.5 1759.5,-282.5"/>
<text text-anchor="middle" x="1801.5" y="-370.8" font-family="Times,serif" font-size="14.00" fill="#000000">study_admin</text>
<polyline fill="none" stroke="#000000" points="1855.5,-282.5 1855.5,-466.5 "/>
<text text-anchor="middle" x="1866" y="-370.8" font-family="Times,serif" font-size="14.00" fill="#000000"> </text>
<polyline fill="none" stroke="#000000" points="1876.5,-282.5 1876.5,-466.5 "/>
<text text-anchor="middle" x="1976.5" y="-451.3" font-family="Times,serif" font-size="14.00" fill="#000000">acl</text>
<polyline fill="none" stroke="#000000" points="1876.5,-443.5 2076.5,-443.5 "/>
<text text-anchor="middle" x="1976.5" y="-428.3" font-family="Times,serif" font-size="14.00" fill="#000000">adult_or_childhood_study</text>
<polyline fill="none" stroke="#000000" points="1876.5,-420.5 2076.5,-420.5 "/>
<text text-anchor="middle" x="1976.5" y="-405.3" font-family="Times,serif" font-size="14.00" fill="#000000">data_types</text>
<polyline fill="none" stroke="#000000" points="1876.5,-397.5 2076.5,-397.5 "/>
<text text-anchor="middle" x="1976.5" y="-382.3" font-family="Times,serif" font-size="14.00" fill="#000000">file_types_and_format</text>
<polyline fill="none" stroke="#000000" points="1876.5,-374.5 2076.5,-374.5 "/>
<text text-anchor="middle" x="1976.5" y="-359.3" font-family="Times,serif" font-size="14.00" fill="#000000">number_of_participants</text>
<polyline fill="none" stroke="#000000" points="1876.5,-351.5 2076.5,-351.5 "/>
<text text-anchor="middle" x="1976.5" y="-336.3" font-family="Times,serif" font-size="14.00" fill="#000000">number_of_samples</text>
<polyline fill="none" stroke="#000000" points="1876.5,-328.5 2076.5,-328.5 "/>
<text text-anchor="middle" x="1976.5" y="-313.3" font-family="Times,serif" font-size="14.00" fill="#000000">organism_species</text>
<polyline fill="none" stroke="#000000" points="1876.5,-305.5 2076.5,-305.5 "/>
<text text-anchor="middle" x="1976.5" y="-290.3" font-family="Times,serif" font-size="14.00" fill="#000000">study_admin_id</text>
<polyline fill="none" stroke="#000000" points="2076.5,-282.5 2076.5,-466.5 "/>
<text text-anchor="middle" x="2087" y="-370.8" font-family="Times,serif" font-size="14.00" fill="#000000"> </text>
</g>
<!-- study_admin&#45;&gt;study -->
<g id="edge1" class="edge">
<title>study_admin&#45;&gt;study</title>
<path fill="none" stroke="#000000" d="M1747.3788,-285.2506C1744.4086,-284.1331 1741.4476,-283.0484 1738.5,-282 1562.7588,-219.4942 1355.2888,-175.7099 1202.6711,-148.7821"/>
<polygon fill="#000000" stroke="#000000" points="1203.153,-145.3133 1192.6987,-147.0328 1201.9435,-152.208 1203.153,-145.3133"/>
<text text-anchor="middle" x="1735" y="-252.8" font-family="Times,serif" font-size="14.00" fill="#000000">of_study_admin</text>
</g>
</g>
</svg>
