<svg width="2365pt" height="305pt"
 viewBox="0.00 0.00 2365.43 305.00" xmlns="http://www.w3.org/2000/svg" xmlns:xlink="http://www.w3.org/1999/xlink">
<g id="graph0" class="graph" transform="scale(1 1) rotate(0) translate(4 301)">
<title>Perl</title>
<polygon fill="#ffffff" stroke="transparent" points="-4,4 -4,-301 2361.4259,-301 2361.4259,4 -4,4"/>
<!-- medical_history -->
<g id="node1" class="node">
<title>medical_history</title>
<ellipse fill="none" stroke="#000000" cx="1521.2321" cy="-192" rx="85.2851" ry="18"/>
<text text-anchor="middle" x="1521.2321" y="-188.3" font-family="Times,serif" font-size="14.00" fill="#000000">medical_history</text>
</g>
<!-- participant -->
<g id="node12" class="node">
<title>participant</title>
<ellipse fill="none" stroke="#000000" cx="1129.2321" cy="-105" rx="62.2891" ry="18"/>
<text text-anchor="middle" x="1129.2321" y="-101.3" font-family="Times,serif" font-size="14.00" fill="#000000">participant</text>
</g>
<!-- medical_history&#45;&gt;participant -->
<g id="edge14" class="edge">
<title>medical_history&#45;&gt;participant</title>
<path fill="none" stroke="#000000" d="M1488.4103,-175.264C1476.66,-169.2345 1463.332,-162.3519 1451.2321,-156 1438.7321,-149.4381 1436.7756,-144.9852 1423.2321,-141 1327.8426,-112.9313 1298.3246,-139.2749 1200.2321,-123 1194.9006,-122.1154 1189.3824,-121.0284 1183.8866,-119.8307"/>
<polygon fill="#000000" stroke="#000000" points="1184.5929,-116.4018 1174.0632,-117.5747 1183.0261,-123.2242 1184.5929,-116.4018"/>
<text text-anchor="middle" x="1519.2321" y="-144.8" font-family="Times,serif" font-size="14.00" fill="#000000">of_medical_history</text>
</g>
<!-- molecular_test -->
<g id="node2" class="node">
<title>molecular_test</title>
<ellipse fill="none" stroke="#000000" cx="95.2321" cy="-192" rx="79.8859" ry="18"/>
<text text-anchor="middle" x="95.2321" y="-188.3" font-family="Times,serif" font-size="14.00" fill="#000000">molecular_test</text>
</g>
<!-- molecular_test&#45;&gt;participant -->
<g id="edge20" class="edge">
<title>molecular_test&#45;&gt;participant</title>
<path fill="none" stroke="#000000" d="M105.5061,-174.1013C113.3518,-162.3405 125.3386,-147.8977 140.2321,-141 186.4684,-119.5864 1006.7232,-129.7217 1057.2321,-123 1063.0414,-122.2269 1069.0593,-121.1603 1075.0283,-119.9289"/>
<polygon fill="#000000" stroke="#000000" points="1075.9757,-123.3039 1084.9819,-117.7237 1074.4615,-116.4696 1075.9757,-123.3039"/>
<text text-anchor="middle" x="204.2321" y="-144.8" font-family="Times,serif" font-size="14.00" fill="#000000">of_molecular_test</text>
</g>
<!-- radiology_file -->
<g id="node3" class="node">
<title>radiology_file</title>
<ellipse fill="none" stroke="#000000" cx="266.2321" cy="-192" rx="73.387" ry="18"/>
<text text-anchor="middle" x="266.2321" y="-188.3" font-family="Times,serif" font-size="14.00" fill="#000000">radiology_file</text>
</g>
<!-- radiology_file&#45;&gt;participant -->
<g id="edge8" class="edge">
<title>radiology_file&#45;&gt;participant</title>
<path fill="none" stroke="#000000" d="M266.8354,-173.889C268.262,-162.5068 272.1473,-148.5874 282.2321,-141 316.6469,-115.1078 1014.5516,-128.758 1057.2321,-123 1063.04,-122.2165 1069.057,-121.1431 1075.0254,-119.9077"/>
<polygon fill="#000000" stroke="#000000" points="1075.9747,-123.2823 1084.9785,-117.6981 1074.4576,-116.4486 1075.9747,-123.2823"/>
<text text-anchor="middle" x="341.2321" y="-144.8" font-family="Times,serif" font-size="14.00" fill="#000000">of_radiology_file</text>
</g>
<!-- exposure -->
<g id="node4" class="node">
<title>exposure</title>
<ellipse fill="none" stroke="#000000" cx="411.2321" cy="-192" rx="53.0913" ry="18"/>
<text text-anchor="middle" x="411.2321" y="-188.3" font-family="Times,serif" font-size="14.00" fill="#000000">exposure</text>
</g>
<!-- exposure&#45;&gt;participant -->
<g id="edge11" class="edge">
<title>exposure&#45;&gt;participant</title>
<path fill="none" stroke="#000000" d="M405.1301,-174.0878C402.6203,-163.0816 401.9585,-149.507 410.2321,-141 435.3025,-115.2225 1021.6077,-127.8894 1057.2321,-123 1062.9565,-122.2143 1068.8846,-121.1516 1074.7696,-119.933"/>
<polygon fill="#000000" stroke="#000000" points="1075.5835,-123.3376 1084.5891,-117.7563 1074.0686,-116.5035 1075.5835,-123.3376"/>
<text text-anchor="middle" x="453.7321" y="-144.8" font-family="Times,serif" font-size="14.00" fill="#000000">of_exposure</text>
</g>
<!-- sample -->
<g id="node5" class="node">
<title>sample</title>
<ellipse fill="none" stroke="#000000" cx="1246.2321" cy="-192" rx="44.393" ry="18"/>
<text text-anchor="middle" x="1246.2321" y="-188.3" font-family="Times,serif" font-size="14.00" fill="#000000">sample</text>
</g>
<!-- sample&#45;&gt;participant -->
<g id="edge6" class="edge">
<title>sample&#45;&gt;participant</title>
<path fill="none" stroke="#000000" d="M1240.2872,-173.9174C1235.9382,-163.1236 1229.0671,-149.8406 1219.2321,-141 1209.7516,-132.4781 1198.0016,-125.8474 1186.1553,-120.7348"/>
<polygon fill="#000000" stroke="#000000" points="1187.2607,-117.4076 1176.6756,-116.953 1184.6669,-123.9093 1187.2607,-117.4076"/>
<text text-anchor="middle" x="1266.7321" y="-144.8" font-family="Times,serif" font-size="14.00" fill="#000000">of_sample</text>
</g>
<!-- pathology_file -->
<g id="node6" class="node">
<title>pathology_file</title>
<ellipse fill="none" stroke="#000000" cx="1663.2321" cy="-279" rx="76.0865" ry="18"/>
<text text-anchor="middle" x="1663.2321" y="-275.3" font-family="Times,serif" font-size="14.00" fill="#000000">pathology_file</text>
</g>
<!-- pathology_file&#45;&gt;sample -->
<g id="edge1" class="edge">
<title>pathology_file&#45;&gt;sample</title>
<path fill="none" stroke="#000000" d="M1651.0864,-260.9919C1642.1244,-249.3426 1628.8122,-235.0753 1613.2321,-228 1549.5945,-199.1004 1367.8357,-223.3598 1299.2321,-210 1295.5837,-209.2895 1291.8423,-208.3895 1288.1172,-207.3724"/>
<polygon fill="#000000" stroke="#000000" points="1288.9533,-203.9694 1278.3697,-204.4567 1286.9472,-210.6758 1288.9533,-203.9694"/>
<text text-anchor="middle" x="1694.2321" y="-231.8" font-family="Times,serif" font-size="14.00" fill="#000000">of_pathology_file</text>
</g>
<!-- synonym -->
<g id="node7" class="node">
<title>synonym</title>
<ellipse fill="none" stroke="#000000" cx="500.2321" cy="-279" rx="51.9908" ry="18"/>
<text text-anchor="middle" x="500.2321" y="-275.3" font-family="Times,serif" font-size="14.00" fill="#000000">synonym</text>
</g>
<!-- synonym&#45;&gt;sample -->
<g id="edge23" class="edge">
<title>synonym&#45;&gt;sample</title>
<path fill="none" stroke="#000000" d="M545.5151,-269.9842C606.3524,-258.2535 717.9699,-238.0705 814.2321,-228 981.9512,-210.454 1027.5512,-241.4222 1193.2321,-210 1196.884,-209.3074 1200.6278,-208.4199 1204.3545,-207.4113"/>
<polygon fill="#000000" stroke="#000000" points="1205.5188,-210.7166 1214.1046,-204.5089 1203.5216,-204.0075 1205.5188,-210.7166"/>
<text text-anchor="middle" x="856.7321" y="-231.8" font-family="Times,serif" font-size="14.00" fill="#000000">of_synonym</text>
</g>
<!-- synonym&#45;&gt;participant -->
<g id="edge22" class="edge">
<title>synonym&#45;&gt;participant</title>
<path fill="none" stroke="#000000" d="M495.6822,-260.7059C491.0702,-237.3334 487.372,-197.1431 509.2321,-174 545.4929,-135.6111 1021.5874,-128.4149 1057.2321,-123 1062.7256,-122.1655 1068.4115,-121.1013 1074.069,-119.9085"/>
<polygon fill="#000000" stroke="#000000" points="1075.1814,-123.2462 1084.1743,-117.6445 1073.651,-116.4155 1075.1814,-123.2462"/>
<text text-anchor="middle" x="551.7321" y="-188.3" font-family="Times,serif" font-size="14.00" fill="#000000">of_synonym</text>
</g>
<!-- study -->
<g id="node20" class="node">
<title>study</title>
<ellipse fill="none" stroke="#000000" cx="1207.2321" cy="-18" rx="36.2938" ry="18"/>
<text text-anchor="middle" x="1207.2321" y="-14.3" font-family="Times,serif" font-size="14.00" fill="#000000">study</text>
</g>
<!-- synonym&#45;&gt;study -->
<g id="edge21" class="edge">
<title>synonym&#45;&gt;study</title>
<path fill="none" stroke="#000000" d="M448.7417,-275.584C328.0802,-267.0566 35.043,-243.1147 6.2321,-210 -4.2699,-197.9291 .9922,-189.1176 6.2321,-174 65.897,-1.8626 635.9801,-72.4078 817.2321,-54 941.3507,-41.3946 1087.8864,-28.3659 1160.9506,-21.9957"/>
<polygon fill="#000000" stroke="#000000" points="1161.5272,-25.4588 1171.1861,-21.105 1160.9203,-18.4852 1161.5272,-25.4588"/>
<text text-anchor="middle" x="68.7321" y="-144.8" font-family="Times,serif" font-size="14.00" fill="#000000">of_synonym</text>
</g>
<!-- study_personnel -->
<g id="node8" class="node">
<title>study_personnel</title>
<ellipse fill="none" stroke="#000000" cx="789.2321" cy="-105" rx="87.1846" ry="18"/>
<text text-anchor="middle" x="789.2321" y="-101.3" font-family="Times,serif" font-size="14.00" fill="#000000">study_personnel</text>
</g>
<!-- study_personnel&#45;&gt;study -->
<g id="edge4" class="edge">
<title>study_personnel&#45;&gt;study</title>
<path fill="none" stroke="#000000" d="M803.0727,-87.1869C813.1453,-75.6245 827.8476,-61.3811 844.2321,-54 899.5922,-29.0606 1075.6801,-21.2842 1160.5781,-18.9518"/>
<polygon fill="#000000" stroke="#000000" points="1160.8046,-22.4472 1170.7099,-18.6875 1160.622,-15.4496 1160.8046,-22.4472"/>
<text text-anchor="middle" x="913.7321" y="-57.8" font-family="Times,serif" font-size="14.00" fill="#000000">of_study_personnel</text>
</g>
<!-- family_relationship -->
<g id="node9" class="node">
<title>family_relationship</title>
<ellipse fill="none" stroke="#000000" cx="703.2321" cy="-192" rx="100.1823" ry="18"/>
<text text-anchor="middle" x="703.2321" y="-188.3" font-family="Times,serif" font-size="14.00" fill="#000000">family_relationship</text>
</g>
<!-- family_relationship&#45;&gt;participant -->
<g id="edge24" class="edge">
<title>family_relationship&#45;&gt;participant</title>
<path fill="none" stroke="#000000" d="M720.185,-174.224C732.5564,-162.5195 750.3954,-148.0935 769.2321,-141 829.2429,-118.4012 993.8632,-132.8172 1057.2321,-123 1062.7232,-122.1493 1068.4074,-121.0745 1074.0639,-119.8751"/>
<polygon fill="#000000" stroke="#000000" points="1075.1793,-123.2117 1084.1679,-117.6032 1073.6437,-116.3822 1075.1793,-123.2117"/>
<text text-anchor="middle" x="848.7321" y="-144.8" font-family="Times,serif" font-size="14.00" fill="#000000">of_family_relationship</text>
</g>
<!-- pdx -->
<g id="node10" class="node">
<title>pdx</title>
<ellipse fill="none" stroke="#000000" cx="813.2321" cy="-279" rx="27.8951" ry="18"/>
<text text-anchor="middle" x="813.2321" y="-275.3" font-family="Times,serif" font-size="14.00" fill="#000000">pdx</text>
</g>
<!-- pdx&#45;&gt;sample -->
<g id="edge19" class="edge">
<title>pdx&#45;&gt;sample</title>
<path fill="none" stroke="#000000" d="M835.2303,-267.432C840.0941,-265.1197 845.2764,-262.8396 850.2321,-261 904.0994,-241.0039 918.6039,-237.735 975.2321,-228 1071.0453,-211.5287 1098.047,-229.7801 1193.2321,-210 1196.8208,-209.2542 1200.5026,-208.3375 1204.172,-207.3163"/>
<polygon fill="#000000" stroke="#000000" points="1205.2222,-210.6554 1213.7843,-204.4151 1203.1995,-203.954 1205.2222,-210.6554"/>
<text text-anchor="middle" x="999.2321" y="-231.8" font-family="Times,serif" font-size="14.00" fill="#000000">of_pdx</text>
</g>
<!-- study_funding -->
<g id="node11" class="node">
<title>study_funding</title>
<ellipse fill="none" stroke="#000000" cx="971.2321" cy="-105" rx="77.1866" ry="18"/>
<text text-anchor="middle" x="971.2321" y="-101.3" font-family="Times,serif" font-size="14.00" fill="#000000">study_funding</text>
</g>
<!-- study_funding&#45;&gt;study -->
<g id="edge10" class="edge">
<title>study_funding&#45;&gt;study</title>
<path fill="none" stroke="#000000" d="M977.7204,-86.8773C982.6921,-75.6406 990.6812,-61.8894 1002.2321,-54 1027.4088,-36.804 1108.4698,-26.6359 1160.7997,-21.7023"/>
<polygon fill="#000000" stroke="#000000" points="1161.2168,-25.1789 1170.8575,-20.7849 1160.5809,-18.2078 1161.2168,-25.1789"/>
<text text-anchor="middle" x="1064.2321" y="-57.8" font-family="Times,serif" font-size="14.00" fill="#000000">of_study_funding</text>
</g>
<!-- participant&#45;&gt;study -->
<g id="edge25" class="edge">
<title>participant&#45;&gt;study</title>
<path fill="none" stroke="#000000" d="M1128.1794,-86.961C1128.4522,-76.4479 1130.4086,-63.444 1137.2321,-54 1144.4853,-43.9616 1155.3754,-36.5189 1166.4186,-31.0923"/>
<polygon fill="#000000" stroke="#000000" points="1167.9327,-34.2496 1175.6544,-26.9953 1165.0942,-27.8509 1167.9327,-34.2496"/>
<text text-anchor="middle" x="1187.7321" y="-57.8" font-family="Times,serif" font-size="14.00" fill="#000000">of_participant</text>
</g>
<!-- therapeutic_procedure -->
<g id="node13" class="node">
<title>therapeutic_procedure</title>
<ellipse fill="none" stroke="#000000" cx="939.2321" cy="-192" rx="117.7793" ry="18"/>
<text text-anchor="middle" x="939.2321" y="-188.3" font-family="Times,serif" font-size="14.00" fill="#000000">therapeutic_procedure</text>
</g>
<!-- therapeutic_procedure&#45;&gt;participant -->
<g id="edge12" class="edge">
<title>therapeutic_procedure&#45;&gt;participant</title>
<path fill="none" stroke="#000000" d="M933.8717,-173.935C931.8544,-163.1478 931.6164,-149.8656 939.2321,-141 956.5166,-120.879 1031.2258,-128.2224 1057.2321,-123 1062.3128,-121.9797 1067.5741,-120.8358 1072.834,-119.6322"/>
<polygon fill="#000000" stroke="#000000" points="1073.9684,-122.9608 1082.8993,-117.2609 1072.3632,-116.1473 1073.9684,-122.9608"/>
<text text-anchor="middle" x="1032.2321" y="-144.8" font-family="Times,serif" font-size="14.00" fill="#000000">of_therapeutic_procedure</text>
</g>
<!-- methylation_array_file -->
<g id="node14" class="node">
<title>methylation_array_file</title>
<ellipse fill="none" stroke="#000000" cx="975.2321" cy="-279" rx="115.8798" ry="18"/>
<text text-anchor="middle" x="975.2321" y="-275.3" font-family="Times,serif" font-size="14.00" fill="#000000">methylation_array_file</text>
</g>
<!-- methylation_array_file&#45;&gt;sample -->
<g id="edge18" class="edge">
<title>methylation_array_file&#45;&gt;sample</title>
<path fill="none" stroke="#000000" d="M998.5236,-261.232C1014.6863,-249.8443 1037.1937,-235.7857 1059.2321,-228 1115.8909,-207.9837 1134.7304,-223.7265 1193.2321,-210 1196.6468,-209.1988 1200.1522,-208.2657 1203.6548,-207.2538"/>
<polygon fill="#000000" stroke="#000000" points="1204.9154,-210.5279 1213.441,-204.2377 1202.8537,-203.8384 1204.9154,-210.5279"/>
<text text-anchor="middle" x="1150.7321" y="-231.8" font-family="Times,serif" font-size="14.00" fill="#000000">of_methylation_array_file</text>
</g>
<!-- single_cell_sequencing_file -->
<g id="node15" class="node">
<title>single_cell_sequencing_file</title>
<ellipse fill="none" stroke="#000000" cx="1246.2321" cy="-279" rx="137.5759" ry="18"/>
<text text-anchor="middle" x="1246.2321" y="-275.3" font-family="Times,serif" font-size="14.00" fill="#000000">single_cell_sequencing_file</text>
</g>
<!-- single_cell_sequencing_file&#45;&gt;sample -->
<g id="edge3" class="edge">
<title>single_cell_sequencing_file&#45;&gt;sample</title>
<path fill="none" stroke="#000000" d="M1246.2321,-260.9735C1246.2321,-249.1918 1246.2321,-233.5607 1246.2321,-220.1581"/>
<polygon fill="#000000" stroke="#000000" points="1249.7322,-220.0033 1246.2321,-210.0034 1242.7322,-220.0034 1249.7322,-220.0033"/>
<text text-anchor="middle" x="1354.7321" y="-231.8" font-family="Times,serif" font-size="14.00" fill="#000000">of_single_cell_sequencing_file</text>
</g>
<!-- study_arm -->
<g id="node16" class="node">
<title>study_arm</title>
<ellipse fill="none" stroke="#000000" cx="1269.2321" cy="-105" rx="59.5901" ry="18"/>
<text text-anchor="middle" x="1269.2321" y="-101.3" font-family="Times,serif" font-size="14.00" fill="#000000">study_arm</text>
</g>
<!-- study_arm&#45;&gt;study -->
<g id="edge7" class="edge">
<title>study_arm&#45;&gt;study</title>
<path fill="none" stroke="#000000" d="M1261.162,-86.7984C1256.3167,-76.7207 1249.6599,-64.2065 1242.2321,-54 1239.1065,-49.7051 1235.4857,-45.415 1231.7827,-41.3709"/>
<polygon fill="#000000" stroke="#000000" points="1234.1189,-38.7505 1224.6687,-33.9604 1229.0691,-43.5982 1234.1189,-38.7505"/>
<text text-anchor="middle" x="1299.7321" y="-57.8" font-family="Times,serif" font-size="14.00" fill="#000000">of_study_arm</text>
</g>
<!-- diagnosis -->
<g id="node17" class="node">
<title>diagnosis</title>
<ellipse fill="none" stroke="#000000" cx="1129.2321" cy="-192" rx="54.6905" ry="18"/>
<text text-anchor="middle" x="1129.2321" y="-188.3" font-family="Times,serif" font-size="14.00" fill="#000000">diagnosis</text>
</g>
<!-- diagnosis&#45;&gt;participant -->
<g id="edge16" class="edge">
<title>diagnosis&#45;&gt;participant</title>
<path fill="none" stroke="#000000" d="M1129.2321,-173.9735C1129.2321,-162.1918 1129.2321,-146.5607 1129.2321,-133.1581"/>
<polygon fill="#000000" stroke="#000000" points="1132.7322,-133.0033 1129.2321,-123.0034 1125.7322,-133.0034 1132.7322,-133.0033"/>
<text text-anchor="middle" x="1173.7321" y="-144.8" font-family="Times,serif" font-size="14.00" fill="#000000">of_diagnosis</text>
</g>
<!-- clinical_measure_file -->
<g id="node18" class="node">
<title>clinical_measure_file</title>
<ellipse fill="none" stroke="#000000" cx="1808.2321" cy="-192" rx="108.5808" ry="18"/>
<text text-anchor="middle" x="1808.2321" y="-188.3" font-family="Times,serif" font-size="14.00" fill="#000000">clinical_measure_file</text>
</g>
<!-- clinical_measure_file&#45;&gt;participant -->
<g id="edge2" class="edge">
<title>clinical_measure_file&#45;&gt;participant</title>
<path fill="none" stroke="#000000" d="M1714.4291,-182.7437C1680.7528,-177.409 1643.0175,-169.0522 1610.2321,-156 1598.8936,-151.486 1598.8463,-144.7484 1587.2321,-141 1505.3006,-114.5571 1285.3917,-135.6428 1200.2321,-123 1194.8077,-122.1947 1189.196,-121.1499 1183.614,-119.9691"/>
<polygon fill="#000000" stroke="#000000" points="1184.1708,-116.5068 1173.6456,-117.7194 1182.6297,-123.3351 1184.1708,-116.5068"/>
<text text-anchor="middle" x="1739.7321" y="-144.8" font-family="Times,serif" font-size="14.00" fill="#000000">of_clinical_measure_file_participant</text>
</g>
<!-- clinical_measure_file&#45;&gt;study -->
<g id="edge9" class="edge">
<title>clinical_measure_file&#45;&gt;study</title>
<path fill="none" stroke="#000000" d="M1849.7242,-175.353C1866.6488,-166.1401 1879.998,-153.9504 1869.2321,-141 1790.3922,-46.1622 1391.7835,-24.1 1254.0925,-19.2743"/>
<polygon fill="#000000" stroke="#000000" points="1253.9844,-15.7688 1243.8726,-18.9313 1253.7495,-22.7649 1253.9844,-15.7688"/>
<text text-anchor="middle" x="1934.2321" y="-101.3" font-family="Times,serif" font-size="14.00" fill="#000000">of_clinical_measure_file</text>
</g>
<!-- follow_up -->
<g id="node19" class="node">
<title>follow_up</title>
<ellipse fill="none" stroke="#000000" cx="1363.2321" cy="-192" rx="55.4913" ry="18"/>
<text text-anchor="middle" x="1363.2321" y="-188.3" font-family="Times,serif" font-size="14.00" fill="#000000">follow_up</text>
</g>
<!-- follow_up&#45;&gt;participant -->
<g id="edge15" class="edge">
<title>follow_up&#45;&gt;participant</title>
<path fill="none" stroke="#000000" d="M1348.9083,-174.5412C1338.5491,-163.137 1323.5511,-148.937 1307.2321,-141 1263.8656,-119.9079 1247.4217,-132.9337 1200.2321,-123 1195.3033,-121.9624 1190.2,-120.8151 1185.0941,-119.6166"/>
<polygon fill="#000000" stroke="#000000" points="1185.8587,-116.2008 1175.3175,-117.2646 1184.2214,-123.0066 1185.8587,-116.2008"/>
<text text-anchor="middle" x="1374.2321" y="-144.8" font-family="Times,serif" font-size="14.00" fill="#000000">of_follow_up</text>
</g>
<!-- publication -->
<g id="node21" class="node">
<title>publication</title>
<ellipse fill="none" stroke="#000000" cx="2136.2321" cy="-105" rx="63.0888" ry="18"/>
<text text-anchor="middle" x="2136.2321" y="-101.3" font-family="Times,serif" font-size="14.00" fill="#000000">publication</text>
</g>
<!-- publication&#45;&gt;study -->
<g id="edge5" class="edge">
<title>publication&#45;&gt;study</title>
<path fill="none" stroke="#000000" d="M2089.9156,-92.7043C2042.054,-80.5698 1964.9938,-62.6207 1897.2321,-54 1772.3952,-38.1182 1388.6866,-24.087 1254.308,-19.5415"/>
<polygon fill="#000000" stroke="#000000" points="1254.0612,-16.0313 1243.9492,-19.1932 1253.8259,-23.0273 1254.0612,-16.0313"/>
<text text-anchor="middle" x="2034.2321" y="-57.8" font-family="Times,serif" font-size="14.00" fill="#000000">of_publication</text>
</g>
<!-- sequencing_file -->
<g id="node22" class="node">
<title>sequencing_file</title>
<ellipse fill="none" stroke="#000000" cx="1486.2321" cy="-279" rx="83.3857" ry="18"/>
<text text-anchor="middle" x="1486.2321" y="-275.3" font-family="Times,serif" font-size="14.00" fill="#000000">sequencing_file</text>
</g>
<!-- sequencing_file&#45;&gt;sample -->
<g id="edge17" class="edge">
<title>sequencing_file&#45;&gt;sample</title>
<path fill="none" stroke="#000000" d="M1483.1519,-260.7727C1480.2493,-249.4932 1474.7039,-235.7334 1464.2321,-228 1434.5618,-206.0884 1335.2431,-217.9783 1299.2321,-210 1295.6536,-209.2072 1291.979,-208.2572 1288.3143,-207.2136"/>
<polygon fill="#000000" stroke="#000000" points="1289.2962,-203.8539 1278.7098,-204.2762 1287.2489,-210.5479 1289.2962,-203.8539"/>
<text text-anchor="middle" x="1542.7321" y="-231.8" font-family="Times,serif" font-size="14.00" fill="#000000">of_sequencing_file</text>
</g>
<!-- study_admin -->
<g id="node23" class="node">
<title>study_admin</title>
<ellipse fill="none" stroke="#000000" cx="2287.2321" cy="-105" rx="70.3881" ry="18"/>
<text text-anchor="middle" x="2287.2321" y="-101.3" font-family="Times,serif" font-size="14.00" fill="#000000">study_admin</text>
</g>
<!-- study_admin&#45;&gt;study -->
<g id="edge13" class="edge">
<title>study_admin&#45;&gt;study</title>
<path fill="none" stroke="#000000" d="M2243.3495,-90.8432C2203.5852,-78.7031 2143.1368,-61.951 2089.2321,-54 1925.8342,-29.8987 1412.3131,-20.8615 1254.1019,-18.6072"/>
<polygon fill="#000000" stroke="#000000" points="1253.8156,-15.103 1243.7675,-18.4625 1253.7175,-22.1023 1253.8156,-15.103"/>
<text text-anchor="middle" x="2216.7321" y="-57.8" font-family="Times,serif" font-size="14.00" fill="#000000">of_study_admin</text>
</g>
</g>
</svg>
