<svg width="2751pt" height="305pt"
 viewBox="0.00 0.00 2751.29 305.00" xmlns="http://www.w3.org/2000/svg" xmlns:xlink="http://www.w3.org/1999/xlink">
<g id="graph0" class="graph" transform="scale(1 1) rotate(0) translate(4 301)">
<title>Perl</title>
<polygon fill="#ffffff" stroke="transparent" points="-4,4 -4,-301 2747.286,-301 2747.286,4 -4,4"/>
<!-- participant -->
<g id="node1" class="node">
<title>participant</title>
<ellipse fill="none" stroke="#000000" cx="1259.0923" cy="-105" rx="62.2891" ry="18"/>
<text text-anchor="middle" x="1259.0923" y="-101.3" font-family="Times,serif" font-size="14.00" fill="#000000">participant</text>
</g>
<!-- study -->
<g id="node18" class="node">
<title>study</title>
<ellipse fill="none" stroke="#000000" cx="2164.0923" cy="-18" rx="36.2938" ry="18"/>
<text text-anchor="middle" x="2164.0923" y="-14.3" font-family="Times,serif" font-size="14.00" fill="#000000">study</text>
</g>
<!-- participant&#45;&gt;study -->
<g id="edge4" class="edge">
<title>participant&#45;&gt;study</title>
<path fill="none" stroke="#000000" d="M1318.4718,-99.2917C1487.0576,-83.0851 1966.1979,-37.0241 2117.624,-22.4671"/>
<polygon fill="#000000" stroke="#000000" points="2118.3324,-25.9152 2127.9516,-21.4743 2117.6625,-18.9474 2118.3324,-25.9152"/>
<text text-anchor="middle" x="1815.5923" y="-57.8" font-family="Times,serif" font-size="14.00" fill="#000000">of_participant</text>
</g>
<!-- medical_history -->
<g id="node2" class="node">
<title>medical_history</title>
<ellipse fill="none" stroke="#000000" cx="498.0923" cy="-192" rx="85.2851" ry="18"/>
<text text-anchor="middle" x="498.0923" y="-188.3" font-family="Times,serif" font-size="14.00" fill="#000000">medical_history</text>
</g>
<!-- medical_history&#45;&gt;participant -->
<g id="edge16" class="edge">
<title>medical_history&#45;&gt;participant</title>
<path fill="none" stroke="#000000" d="M523.5728,-174.6894C542.4317,-162.8794 569.2311,-148.1325 595.0923,-141 650.8359,-125.626 1026.0247,-112.2662 1186.5067,-107.1844"/>
<polygon fill="#000000" stroke="#000000" points="1186.8763,-110.6746 1196.7612,-106.8617 1186.656,-103.678 1186.8763,-110.6746"/>
<text text-anchor="middle" x="663.0923" y="-144.8" font-family="Times,serif" font-size="14.00" fill="#000000">of_medical_history</text>
</g>
<!-- study_personnel -->
<g id="node3" class="node">
<title>study_personnel</title>
<ellipse fill="none" stroke="#000000" cx="87.0923" cy="-105" rx="87.1846" ry="18"/>
<text text-anchor="middle" x="87.0923" y="-101.3" font-family="Times,serif" font-size="14.00" fill="#000000">study_personnel</text>
</g>
<!-- study_personnel&#45;&gt;study -->
<g id="edge23" class="edge">
<title>study_personnel&#45;&gt;study</title>
<path fill="none" stroke="#000000" d="M81.8335,-87.0024C79.8114,-75.9621 79.6916,-62.3816 88.0923,-54 106.6716,-35.4628 1810.9712,-20.8487 2117.2314,-18.371"/>
<polygon fill="#000000" stroke="#000000" points="2117.5598,-21.8686 2127.5312,-18.288 2117.5033,-14.8688 2117.5598,-21.8686"/>
<text text-anchor="middle" x="157.5923" y="-57.8" font-family="Times,serif" font-size="14.00" fill="#000000">of_study_personnel</text>
</g>
<!-- clinical_measure_file -->
<g id="node4" class="node">
<title>clinical_measure_file</title>
<ellipse fill="none" stroke="#000000" cx="258.0923" cy="-192" rx="108.5808" ry="18"/>
<text text-anchor="middle" x="258.0923" y="-188.3" font-family="Times,serif" font-size="14.00" fill="#000000">clinical_measure_file</text>
</g>
<!-- clinical_measure_file&#45;&gt;participant -->
<g id="edge15" class="edge">
<title>clinical_measure_file&#45;&gt;participant</title>
<path fill="none" stroke="#000000" d="M266.2731,-174.0007C272.6156,-162.3553 282.6042,-148.0891 296.0923,-141 335.3166,-120.3844 969.3215,-109.2331 1186.6571,-106.002"/>
<polygon fill="#000000" stroke="#000000" points="1186.7401,-109.5013 1196.6874,-105.8542 1186.6369,-102.5021 1186.7401,-109.5013"/>
<text text-anchor="middle" x="425.5923" y="-144.8" font-family="Times,serif" font-size="14.00" fill="#000000">of_clinical_measure_file_participant</text>
</g>
<!-- clinical_measure_file&#45;&gt;study -->
<g id="edge19" class="edge">
<title>clinical_measure_file&#45;&gt;study</title>
<path fill="none" stroke="#000000" d="M259.2293,-173.7731C260.9619,-162.4937 265.1455,-148.734 275.0923,-141 535.7715,61.6889 686.613,-108.906 1016.0923,-87 1444.0567,-58.546 1962.1245,-29.2603 2117.743,-20.5737"/>
<polygon fill="#000000" stroke="#000000" points="2118.1008,-24.0593 2127.8904,-20.0078 2117.711,-17.0701 2118.1008,-24.0593"/>
<text text-anchor="middle" x="1102.0923" y="-101.3" font-family="Times,serif" font-size="14.00" fill="#000000">of_clinical_measure_file</text>
</g>
<!-- pdx -->
<g id="node5" class="node">
<title>pdx</title>
<ellipse fill="none" stroke="#000000" cx="1674.0923" cy="-279" rx="27.8951" ry="18"/>
<text text-anchor="middle" x="1674.0923" y="-275.3" font-family="Times,serif" font-size="14.00" fill="#000000">pdx</text>
</g>
<!-- sample -->
<g id="node19" class="node">
<title>sample</title>
<ellipse fill="none" stroke="#000000" cx="1839.0923" cy="-192" rx="44.393" ry="18"/>
<text text-anchor="middle" x="1839.0923" y="-188.3" font-family="Times,serif" font-size="14.00" fill="#000000">sample</text>
</g>
<!-- pdx&#45;&gt;sample -->
<g id="edge24" class="edge">
<title>pdx&#45;&gt;sample</title>
<path fill="none" stroke="#000000" d="M1679.1583,-261.2963C1683.2748,-250.0861 1690.2151,-236.2054 1701.0923,-228 1731.92,-204.7446 1748.8556,-220.2271 1786.0923,-210 1789.4261,-209.0844 1792.857,-208.0755 1796.2936,-207.0172"/>
<polygon fill="#000000" stroke="#000000" points="1797.459,-210.3192 1805.9176,-203.9393 1795.3267,-203.6518 1797.459,-210.3192"/>
<text text-anchor="middle" x="1725.0923" y="-231.8" font-family="Times,serif" font-size="14.00" fill="#000000">of_pdx</text>
</g>
<!-- synonym -->
<g id="node6" class="node">
<title>synonym</title>
<ellipse fill="none" stroke="#000000" cx="2095.0923" cy="-279" rx="51.9908" ry="18"/>
<text text-anchor="middle" x="2095.0923" y="-275.3" font-family="Times,serif" font-size="14.00" fill="#000000">synonym</text>
</g>
<!-- synonym&#45;&gt;participant -->
<g id="edge9" class="edge">
<title>synonym&#45;&gt;participant</title>
<path fill="none" stroke="#000000" d="M2094.3809,-260.7976C2093.0183,-249.9587 2089.5608,-236.6703 2081.0923,-228 2061.639,-208.0832 2046.8949,-220.4562 2021.0923,-210 1959.3748,-184.9897 1952.3099,-158.6257 1888.0923,-141 1835.6673,-126.611 1485.323,-112.8594 1331.3987,-107.4331"/>
<polygon fill="#000000" stroke="#000000" points="1331.2221,-103.9248 1321.1056,-107.0723 1330.9768,-110.9205 1331.2221,-103.9248"/>
<text text-anchor="middle" x="2063.5923" y="-188.3" font-family="Times,serif" font-size="14.00" fill="#000000">of_synonym</text>
</g>
<!-- synonym&#45;&gt;study -->
<g id="edge10" class="edge">
<title>synonym&#45;&gt;study</title>
<path fill="none" stroke="#000000" d="M2098.4889,-260.8095C2105.0666,-226.4919 2120.5409,-149.9838 2139.0923,-87 2143.2111,-73.0162 2148.6419,-57.7495 2153.3893,-45.1398"/>
<polygon fill="#000000" stroke="#000000" points="2156.7071,-46.2624 2157.0119,-35.672 2150.1694,-43.7608 2156.7071,-46.2624"/>
<text text-anchor="middle" x="2166.5923" y="-144.8" font-family="Times,serif" font-size="14.00" fill="#000000">of_synonym</text>
</g>
<!-- synonym&#45;&gt;sample -->
<g id="edge11" class="edge">
<title>synonym&#45;&gt;sample</title>
<path fill="none" stroke="#000000" d="M2055.6791,-266.9832C2037.1764,-260.7621 2015.0703,-252.4816 1996.0923,-243 1985.175,-237.5456 1984.2347,-232.9783 1973.0923,-228 1946.4922,-216.1154 1915.1171,-207.4251 1889.416,-201.5635"/>
<polygon fill="#000000" stroke="#000000" points="1890.0245,-198.1137 1879.5054,-199.378 1888.517,-204.9495 1890.0245,-198.1137"/>
<text text-anchor="middle" x="2038.5923" y="-231.8" font-family="Times,serif" font-size="14.00" fill="#000000">of_synonym</text>
</g>
<!-- study_arm -->
<g id="node7" class="node">
<title>study_arm</title>
<ellipse fill="none" stroke="#000000" cx="2208.0923" cy="-105" rx="59.5901" ry="18"/>
<text text-anchor="middle" x="2208.0923" y="-101.3" font-family="Times,serif" font-size="14.00" fill="#000000">study_arm</text>
</g>
<!-- study_arm&#45;&gt;study -->
<g id="edge21" class="edge">
<title>study_arm&#45;&gt;study</title>
<path fill="none" stroke="#000000" d="M2198.9754,-86.9735C2192.799,-74.7609 2184.5307,-58.4123 2177.5942,-44.697"/>
<polygon fill="#000000" stroke="#000000" points="2180.6833,-43.0498 2173.0469,-35.7057 2174.4368,-46.209 2180.6833,-43.0498"/>
<text text-anchor="middle" x="2236.5923" y="-57.8" font-family="Times,serif" font-size="14.00" fill="#000000">of_study_arm</text>
</g>
<!-- exposure -->
<g id="node8" class="node">
<title>exposure</title>
<ellipse fill="none" stroke="#000000" cx="654.0923" cy="-192" rx="53.0913" ry="18"/>
<text text-anchor="middle" x="654.0923" y="-188.3" font-family="Times,serif" font-size="14.00" fill="#000000">exposure</text>
</g>
<!-- exposure&#45;&gt;participant -->
<g id="edge17" class="edge">
<title>exposure&#45;&gt;participant</title>
<path fill="none" stroke="#000000" d="M684.2762,-177.053C709.9041,-165.1052 748.0043,-149.0673 783.0923,-141 857.8676,-123.808 1073.4918,-112.6523 1187.098,-107.7948"/>
<polygon fill="#000000" stroke="#000000" points="1187.2556,-111.2914 1197.0989,-107.3723 1186.96,-104.2976 1187.2556,-111.2914"/>
<text text-anchor="middle" x="826.5923" y="-144.8" font-family="Times,serif" font-size="14.00" fill="#000000">of_exposure</text>
</g>
<!-- family_relationship -->
<g id="node9" class="node">
<title>family_relationship</title>
<ellipse fill="none" stroke="#000000" cx="825.0923" cy="-192" rx="100.1823" ry="18"/>
<text text-anchor="middle" x="825.0923" y="-188.3" font-family="Times,serif" font-size="14.00" fill="#000000">family_relationship</text>
</g>
<!-- family_relationship&#45;&gt;participant -->
<g id="edge12" class="edge">
<title>family_relationship&#45;&gt;participant</title>
<path fill="none" stroke="#000000" d="M846.7291,-174.2378C862.0519,-162.6981 883.6215,-148.461 905.0923,-141 955.4691,-123.4943 1098.9276,-113.226 1186.99,-108.3958"/>
<polygon fill="#000000" stroke="#000000" points="1187.3829,-111.8798 1197.1804,-107.8475 1187.0068,-104.8899 1187.3829,-111.8798"/>
<text text-anchor="middle" x="984.5923" y="-144.8" font-family="Times,serif" font-size="14.00" fill="#000000">of_family_relationship</text>
</g>
<!-- single_cell_sequencing_file -->
<g id="node10" class="node">
<title>single_cell_sequencing_file</title>
<ellipse fill="none" stroke="#000000" cx="1858.0923" cy="-279" rx="137.5759" ry="18"/>
<text text-anchor="middle" x="1858.0923" y="-275.3" font-family="Times,serif" font-size="14.00" fill="#000000">single_cell_sequencing_file</text>
</g>
<!-- single_cell_sequencing_file&#45;&gt;sample -->
<g id="edge7" class="edge">
<title>single_cell_sequencing_file&#45;&gt;sample</title>
<path fill="none" stroke="#000000" d="M1794.4667,-263.0137C1776.9437,-257.2605 1761.2984,-250.3584 1756.0923,-243 1752.2418,-237.5577 1752.4345,-233.5736 1756.0923,-228 1758.7214,-223.9939 1777.7039,-215.6269 1796.8516,-207.9668"/>
<polygon fill="#000000" stroke="#000000" points="1798.1733,-211.208 1806.1937,-204.2854 1795.6068,-204.6954 1798.1733,-211.208"/>
<text text-anchor="middle" x="1864.5923" y="-231.8" font-family="Times,serif" font-size="14.00" fill="#000000">of_single_cell_sequencing_file</text>
</g>
<!-- publication -->
<g id="node11" class="node">
<title>publication</title>
<ellipse fill="none" stroke="#000000" cx="2349.0923" cy="-105" rx="63.0888" ry="18"/>
<text text-anchor="middle" x="2349.0923" y="-101.3" font-family="Times,serif" font-size="14.00" fill="#000000">publication</text>
</g>
<!-- publication&#45;&gt;study -->
<g id="edge1" class="edge">
<title>publication&#45;&gt;study</title>
<path fill="none" stroke="#000000" d="M2332.4505,-87.4379C2321.1515,-76.4313 2305.3554,-62.7259 2289.0923,-54 2263.9938,-40.5336 2233.2855,-31.5981 2208.5869,-25.9977"/>
<polygon fill="#000000" stroke="#000000" points="2209.2648,-22.5635 2198.7508,-23.8697 2207.7846,-29.4052 2209.2648,-22.5635"/>
<text text-anchor="middle" x="2361.0923" y="-57.8" font-family="Times,serif" font-size="14.00" fill="#000000">of_publication</text>
</g>
<!-- follow_up -->
<g id="node12" class="node">
<title>follow_up</title>
<ellipse fill="none" stroke="#000000" cx="998.0923" cy="-192" rx="55.4913" ry="18"/>
<text text-anchor="middle" x="998.0923" y="-188.3" font-family="Times,serif" font-size="14.00" fill="#000000">follow_up</text>
</g>
<!-- follow_up&#45;&gt;participant -->
<g id="edge18" class="edge">
<title>follow_up&#45;&gt;participant</title>
<path fill="none" stroke="#000000" d="M1026.1577,-176.393C1047.115,-165.2639 1076.7369,-150.6251 1104.0923,-141 1133.5812,-130.6242 1167.2852,-122.3872 1195.7163,-116.4255"/>
<polygon fill="#000000" stroke="#000000" points="1196.4441,-119.8492 1205.5373,-114.4119 1195.038,-112.9919 1196.4441,-119.8492"/>
<text text-anchor="middle" x="1149.0923" y="-144.8" font-family="Times,serif" font-size="14.00" fill="#000000">of_follow_up</text>
</g>
<!-- study_funding -->
<g id="node13" class="node">
<title>study_funding</title>
<ellipse fill="none" stroke="#000000" cx="2507.0923" cy="-105" rx="77.1866" ry="18"/>
<text text-anchor="middle" x="2507.0923" y="-101.3" font-family="Times,serif" font-size="14.00" fill="#000000">study_funding</text>
</g>
<!-- study_funding&#45;&gt;study -->
<g id="edge20" class="edge">
<title>study_funding&#45;&gt;study</title>
<path fill="none" stroke="#000000" d="M2482.3851,-87.8363C2464.7162,-76.4126 2439.9372,-62.0706 2416.0923,-54 2378.9934,-41.4434 2272.4647,-29.017 2210.4323,-22.5597"/>
<polygon fill="#000000" stroke="#000000" points="2210.4409,-19.0422 2200.1351,-21.5001 2209.7243,-26.0054 2210.4409,-19.0422"/>
<text text-anchor="middle" x="2512.0923" y="-57.8" font-family="Times,serif" font-size="14.00" fill="#000000">of_study_funding</text>
</g>
<!-- molecular_test -->
<g id="node14" class="node">
<title>molecular_test</title>
<ellipse fill="none" stroke="#000000" cx="1151.0923" cy="-192" rx="79.8859" ry="18"/>
<text text-anchor="middle" x="1151.0923" y="-188.3" font-family="Times,serif" font-size="14.00" fill="#000000">molecular_test</text>
</g>
<!-- molecular_test&#45;&gt;participant -->
<g id="edge5" class="edge">
<title>molecular_test&#45;&gt;participant</title>
<path fill="none" stroke="#000000" d="M1172.6881,-174.6033C1189.1296,-161.3588 1211.9309,-142.9911 1229.9822,-128.4498"/>
<polygon fill="#000000" stroke="#000000" points="1232.31,-131.069 1237.9019,-122.07 1227.9187,-125.6177 1232.31,-131.069"/>
<text text-anchor="middle" x="1275.0923" y="-144.8" font-family="Times,serif" font-size="14.00" fill="#000000">of_molecular_test</text>
</g>
<!-- pathology_file -->
<g id="node15" class="node">
<title>pathology_file</title>
<ellipse fill="none" stroke="#000000" cx="1107.0923" cy="-279" rx="76.0865" ry="18"/>
<text text-anchor="middle" x="1107.0923" y="-275.3" font-family="Times,serif" font-size="14.00" fill="#000000">pathology_file</text>
</g>
<!-- pathology_file&#45;&gt;sample -->
<g id="edge14" class="edge">
<title>pathology_file&#45;&gt;sample</title>
<path fill="none" stroke="#000000" d="M1133.4023,-262.0155C1153.5185,-250.0356 1182.4137,-234.9349 1210.0923,-228 1334.315,-196.8757 1660.0832,-232.8413 1786.0923,-210 1789.8004,-209.3278 1793.6014,-208.4462 1797.382,-207.4341"/>
<polygon fill="#000000" stroke="#000000" points="1798.6714,-210.7025 1807.2639,-204.5041 1796.6814,-203.9912 1798.6714,-210.7025"/>
<text text-anchor="middle" x="1271.0923" y="-231.8" font-family="Times,serif" font-size="14.00" fill="#000000">of_pathology_file</text>
</g>
<!-- methylation_array_file -->
<g id="node16" class="node">
<title>methylation_array_file</title>
<ellipse fill="none" stroke="#000000" cx="1317.0923" cy="-279" rx="115.8798" ry="18"/>
<text text-anchor="middle" x="1317.0923" y="-275.3" font-family="Times,serif" font-size="14.00" fill="#000000">methylation_array_file</text>
</g>
<!-- methylation_array_file&#45;&gt;sample -->
<g id="edge8" class="edge">
<title>methylation_array_file&#45;&gt;sample</title>
<path fill="none" stroke="#000000" d="M1324.7449,-260.7897C1330.6605,-249.2099 1340.0538,-235.1033 1353.0923,-228 1395.377,-204.9634 1738.7566,-218.8326 1786.0923,-210 1789.7462,-209.3182 1793.4914,-208.4383 1797.2191,-207.4347"/>
<polygon fill="#000000" stroke="#000000" points="1798.3799,-210.7412 1806.9707,-204.5404 1796.3881,-204.0305 1798.3799,-210.7412"/>
<text text-anchor="middle" x="1444.5923" y="-231.8" font-family="Times,serif" font-size="14.00" fill="#000000">of_methylation_array_file</text>
</g>
<!-- therapeutic_procedure -->
<g id="node17" class="node">
<title>therapeutic_procedure</title>
<ellipse fill="none" stroke="#000000" cx="1367.0923" cy="-192" rx="117.7793" ry="18"/>
<text text-anchor="middle" x="1367.0923" y="-188.3" font-family="Times,serif" font-size="14.00" fill="#000000">therapeutic_procedure</text>
</g>
<!-- therapeutic_procedure&#45;&gt;participant -->
<g id="edge6" class="edge">
<title>therapeutic_procedure&#45;&gt;participant</title>
<path fill="none" stroke="#000000" d="M1362.1947,-174.0104C1358.4746,-163.2516 1352.3841,-149.9727 1343.0923,-141 1334.7944,-132.9871 1324.4347,-126.622 1313.8535,-121.6149"/>
<polygon fill="#000000" stroke="#000000" points="1315.1097,-118.3445 1304.5442,-117.5571 1312.3126,-124.7614 1315.1097,-118.3445"/>
<text text-anchor="middle" x="1446.0923" y="-144.8" font-family="Times,serif" font-size="14.00" fill="#000000">of_therapeutic_procedure</text>
</g>
<!-- sample&#45;&gt;participant -->
<g id="edge22" class="edge">
<title>sample&#45;&gt;participant</title>
<path fill="none" stroke="#000000" d="M1827.9367,-174.557C1819.3944,-162.8463 1806.4816,-148.2757 1791.0923,-141 1750.6153,-121.8636 1467.4972,-111.0909 1331.5831,-106.9696"/>
<polygon fill="#000000" stroke="#000000" points="1331.3674,-103.4616 1321.2671,-106.661 1331.158,-110.4585 1331.3674,-103.4616"/>
<text text-anchor="middle" x="1847.5923" y="-144.8" font-family="Times,serif" font-size="14.00" fill="#000000">of_sample</text>
</g>
<!-- sequencing_file -->
<g id="node20" class="node">
<title>sequencing_file</title>
<ellipse fill="none" stroke="#000000" cx="1534.0923" cy="-279" rx="83.3857" ry="18"/>
<text text-anchor="middle" x="1534.0923" y="-275.3" font-family="Times,serif" font-size="14.00" fill="#000000">sequencing_file</text>
</g>
<!-- sequencing_file&#45;&gt;sample -->
<g id="edge3" class="edge">
<title>sequencing_file&#45;&gt;sample</title>
<path fill="none" stroke="#000000" d="M1535.2389,-260.7855C1536.9755,-249.5111 1541.1599,-235.7524 1551.0923,-228 1592.3799,-195.7744 1734.7812,-220.5041 1786.0923,-210 1789.7337,-209.2545 1793.4702,-208.33 1797.192,-207.2966"/>
<polygon fill="#000000" stroke="#000000" points="1798.373,-210.5961 1806.9343,-204.3547 1796.3495,-203.8949 1798.373,-210.5961"/>
<text text-anchor="middle" x="1617.5923" y="-231.8" font-family="Times,serif" font-size="14.00" fill="#000000">of_sequencing_file</text>
</g>
<!-- radiology_file -->
<g id="node21" class="node">
<title>radiology_file</title>
<ellipse fill="none" stroke="#000000" cx="1576.0923" cy="-192" rx="73.387" ry="18"/>
<text text-anchor="middle" x="1576.0923" y="-188.3" font-family="Times,serif" font-size="14.00" fill="#000000">radiology_file</text>
</g>
<!-- radiology_file&#45;&gt;participant -->
<g id="edge25" class="edge">
<title>radiology_file&#45;&gt;participant</title>
<path fill="none" stroke="#000000" d="M1569.1409,-173.9199C1563.7889,-162.5507 1555.2343,-148.6343 1543.0923,-141 1508.9552,-119.5364 1403.9877,-110.8186 1331.6995,-107.3121"/>
<polygon fill="#000000" stroke="#000000" points="1331.4341,-103.7962 1321.2834,-106.8317 1331.1115,-110.7888 1331.4341,-103.7962"/>
<text text-anchor="middle" x="1617.0923" y="-144.8" font-family="Times,serif" font-size="14.00" fill="#000000">of_radiology_file</text>
</g>
<!-- study_admin -->
<g id="node22" class="node">
<title>study_admin</title>
<ellipse fill="none" stroke="#000000" cx="2673.0923" cy="-105" rx="70.3881" ry="18"/>
<text text-anchor="middle" x="2673.0923" y="-101.3" font-family="Times,serif" font-size="14.00" fill="#000000">study_admin</text>
</g>
<!-- study_admin&#45;&gt;study -->
<g id="edge2" class="edge">
<title>study_admin&#45;&gt;study</title>
<path fill="none" stroke="#000000" d="M2648.1168,-87.9362C2629.637,-76.2458 2603.3867,-61.5402 2578.0923,-54 2510.3679,-33.8115 2303.8503,-23.4395 2210.6253,-19.6825"/>
<polygon fill="#000000" stroke="#000000" points="2210.7624,-16.1853 2200.632,-19.2877 2210.486,-23.1798 2210.7624,-16.1853"/>
<text text-anchor="middle" x="2669.5923" y="-57.8" font-family="Times,serif" font-size="14.00" fill="#000000">of_study_admin</text>
</g>
<!-- diagnosis -->
<g id="node23" class="node">
<title>diagnosis</title>
<ellipse fill="none" stroke="#000000" cx="1722.0923" cy="-192" rx="54.6905" ry="18"/>
<text text-anchor="middle" x="1722.0923" y="-188.3" font-family="Times,serif" font-size="14.00" fill="#000000">diagnosis</text>
</g>
<!-- diagnosis&#45;&gt;participant -->
<g id="edge13" class="edge">
<title>diagnosis&#45;&gt;participant</title>
<path fill="none" stroke="#000000" d="M1712.4804,-174.1732C1705.2159,-162.6048 1694.106,-148.3597 1680.0923,-141 1650.0591,-125.2272 1443.6263,-113.4526 1331.3927,-108.1332"/>
<polygon fill="#000000" stroke="#000000" points="1331.3179,-104.626 1321.165,-107.654 1330.9902,-111.6183 1331.3179,-104.626"/>
<text text-anchor="middle" x="1742.5923" y="-144.8" font-family="Times,serif" font-size="14.00" fill="#000000">of_diagnosis</text>
</g>
</g>
</svg>
