<svg width="3103pt" height="392pt"
 viewBox="0.00 0.00 3103.04 392.00" xmlns="http://www.w3.org/2000/svg" xmlns:xlink="http://www.w3.org/1999/xlink">
<g id="graph0" class="graph" transform="scale(1 1) rotate(0) translate(4 388)">
<title>Perl</title>
<polygon fill="#ffffff" stroke="transparent" points="-4,4 -4,-388 3099.0444,-388 3099.0444,4 -4,4"/>
<!-- consent_group -->
<g id="node1" class="node">
<title>consent_group</title>
<ellipse fill="none" stroke="#000000" cx="1727" cy="-105" rx="79.0865" ry="18"/>
<text text-anchor="middle" x="1727" y="-101.3" font-family="Times,serif" font-size="14.00" fill="#000000">consent_group</text>
</g>
<!-- study -->
<g id="node2" class="node">
<title>study</title>
<ellipse fill="none" stroke="#000000" cx="2280" cy="-18" rx="36.2938" ry="18"/>
<text text-anchor="middle" x="2280" y="-14.3" font-family="Times,serif" font-size="14.00" fill="#000000">study</text>
</g>
<!-- consent_group&#45;&gt;study -->
<g id="edge34" class="edge">
<title>consent_group&#45;&gt;study</title>
<path fill="none" stroke="#000000" d="M1789.4126,-93.772C1849.6463,-83.0654 1943.4501,-66.7319 2025,-54 2098.1497,-42.5795 2183.3601,-30.871 2234.4223,-24.0254"/>
<polygon fill="#000000" stroke="#000000" points="2235.0265,-27.4758 2244.4745,-22.6815 2234.0988,-20.5376 2235.0265,-27.4758"/>
<text text-anchor="middle" x="2088.5" y="-57.8" font-family="Times,serif" font-size="14.00" fill="#000000">of_consent_group</text>
</g>
<!-- cytogenomic_file -->
<g id="node3" class="node">
<title>cytogenomic_file</title>
<ellipse fill="none" stroke="#000000" cx="1045" cy="-366" rx="89.8845" ry="18"/>
<text text-anchor="middle" x="1045" y="-362.3" font-family="Times,serif" font-size="14.00" fill="#000000">cytogenomic_file</text>
</g>
<!-- sample -->
<g id="node5" class="node">
<title>sample</title>
<ellipse fill="none" stroke="#000000" cx="1922" cy="-279" rx="44.393" ry="18"/>
<text text-anchor="middle" x="1922" y="-275.3" font-family="Times,serif" font-size="14.00" fill="#000000">sample</text>
</g>
<!-- cytogenomic_file&#45;&gt;sample -->
<g id="edge28" class="edge">
<title>cytogenomic_file&#45;&gt;sample</title>
<path fill="none" stroke="#000000" d="M1065.5071,-348.2183C1080.5781,-336.348 1102.1571,-321.7258 1124,-315 1203.1353,-290.6328 1787.474,-311.4799 1869,-297 1872.7105,-296.341 1876.5131,-295.4685 1880.2948,-294.4625"/>
<polygon fill="#000000" stroke="#000000" points="1881.5801,-297.7323 1890.1784,-291.542 1879.5965,-291.0193 1881.5801,-297.7323"/>
<text text-anchor="middle" x="1195.5" y="-318.8" font-family="Times,serif" font-size="14.00" fill="#000000">of_cytogenomic_file</text>
</g>
<!-- radiology_file -->
<g id="node4" class="node">
<title>radiology_file</title>
<ellipse fill="none" stroke="#000000" cx="1083" cy="-279" rx="73.387" ry="18"/>
<text text-anchor="middle" x="1083" y="-275.3" font-family="Times,serif" font-size="14.00" fill="#000000">radiology_file</text>
</g>
<!-- participant -->
<g id="node17" class="node">
<title>participant</title>
<ellipse fill="none" stroke="#000000" cx="1232" cy="-192" rx="62.2891" ry="18"/>
<text text-anchor="middle" x="1232" y="-188.3" font-family="Times,serif" font-size="14.00" fill="#000000">participant</text>
</g>
<!-- radiology_file&#45;&gt;participant -->
<g id="edge22" class="edge">
<title>radiology_file&#45;&gt;participant</title>
<path fill="none" stroke="#000000" d="M1088.6615,-260.5869C1092.9038,-249.6687 1099.7623,-236.371 1110,-228 1125.6488,-215.2045 1145.7044,-206.9568 1165.0148,-201.6405"/>
<polygon fill="#000000" stroke="#000000" points="1165.8761,-205.033 1174.7135,-199.1892 1164.1607,-198.2464 1165.8761,-205.033"/>
<text text-anchor="middle" x="1169" y="-231.8" font-family="Times,serif" font-size="14.00" fill="#000000">of_radiology_file</text>
</g>
<!-- cell_line -->
<g id="node7" class="node">
<title>cell_line</title>
<ellipse fill="none" stroke="#000000" cx="2043" cy="-366" rx="49.2915" ry="18"/>
<text text-anchor="middle" x="2043" y="-362.3" font-family="Times,serif" font-size="14.00" fill="#000000">cell_line</text>
</g>
<!-- sample&#45;&gt;cell_line -->
<g id="edge7" class="edge">
<title>sample&#45;&gt;cell_line</title>
<path fill="none" stroke="#000000" d="M1916.999,-297.1968C1915.2261,-307.7657 1915.1186,-320.7731 1922,-330 1926.4781,-336.0044 1960.678,-345.8618 1991.5795,-353.745"/>
<polygon fill="#000000" stroke="#000000" points="1990.9031,-357.1838 2001.4548,-356.2277 1992.6099,-350.3951 1990.9031,-357.1838"/>
<text text-anchor="middle" x="1958.5" y="-318.8" font-family="Times,serif" font-size="14.00" fill="#000000">of_sample</text>
</g>
<!-- pdx -->
<g id="node13" class="node">
<title>pdx</title>
<ellipse fill="none" stroke="#000000" cx="2166" cy="-192" rx="27.8951" ry="18"/>
<text text-anchor="middle" x="2166" y="-188.3" font-family="Times,serif" font-size="14.00" fill="#000000">pdx</text>
</g>
<!-- sample&#45;&gt;pdx -->
<g id="edge9" class="edge">
<title>sample&#45;&gt;pdx</title>
<path fill="none" stroke="#000000" d="M1955.4155,-267.0854C2001.7437,-250.5668 2085.0482,-220.864 2131.7932,-204.1967"/>
<polygon fill="#000000" stroke="#000000" points="2133.2197,-207.404 2141.4634,-200.7487 2130.8687,-200.8105 2133.2197,-207.404"/>
<text text-anchor="middle" x="2095.5" y="-231.8" font-family="Times,serif" font-size="14.00" fill="#000000">of_sample</text>
</g>
<!-- sample&#45;&gt;participant -->
<g id="edge8" class="edge">
<title>sample&#45;&gt;participant</title>
<path fill="none" stroke="#000000" d="M1904.103,-262.448C1890.007,-250.5241 1869.2491,-235.2998 1848,-228 1797.7993,-210.7543 1456.105,-198.6339 1304.3575,-194.0396"/>
<polygon fill="#000000" stroke="#000000" points="1304.3046,-190.5366 1294.2041,-193.7349 1304.0946,-197.5334 1304.3046,-190.5366"/>
<text text-anchor="middle" x="1913.5" y="-231.8" font-family="Times,serif" font-size="14.00" fill="#000000">of_sample</text>
</g>
<!-- treatment -->
<g id="node6" class="node">
<title>treatment</title>
<ellipse fill="none" stroke="#000000" cx="1232" cy="-279" rx="57.6901" ry="18"/>
<text text-anchor="middle" x="1232" y="-275.3" font-family="Times,serif" font-size="14.00" fill="#000000">treatment</text>
</g>
<!-- treatment&#45;&gt;participant -->
<g id="edge12" class="edge">
<title>treatment&#45;&gt;participant</title>
<path fill="none" stroke="#000000" d="M1232,-260.9735C1232,-249.1918 1232,-233.5607 1232,-220.1581"/>
<polygon fill="#000000" stroke="#000000" points="1235.5001,-220.0033 1232,-210.0034 1228.5001,-220.0034 1235.5001,-220.0033"/>
<text text-anchor="middle" x="1279" y="-231.8" font-family="Times,serif" font-size="14.00" fill="#000000">of_treatment</text>
</g>
<!-- cell_line&#45;&gt;study -->
<g id="edge2" class="edge">
<title>cell_line&#45;&gt;study</title>
<path fill="none" stroke="#000000" d="M2089.9155,-360.1803C2137.8299,-353.6957 2208.5503,-342.4696 2233,-330 2252.0456,-320.2865 2259.5289,-316.6297 2268,-297 2274.3396,-282.3095 2271.581,-276.5941 2268,-261 2264.3519,-245.1138 2259.5164,-242.4632 2252,-228 2247.7798,-219.8795 2244.2956,-218.8591 2242,-210 2237.9865,-194.5115 2240.0931,-189.886 2242,-174 2247.4922,-128.2472 2261.737,-76.533 2271.1402,-45.6353"/>
<polygon fill="#000000" stroke="#000000" points="2274.5111,-46.5814 2274.1239,-35.9937 2267.824,-44.512 2274.5111,-46.5814"/>
<text text-anchor="middle" x="2282.5" y="-188.3" font-family="Times,serif" font-size="14.00" fill="#000000">of_cell_line</text>
</g>
<!-- cell_line&#45;&gt;sample -->
<g id="edge3" class="edge">
<title>cell_line&#45;&gt;sample</title>
<path fill="none" stroke="#000000" d="M2030.6924,-348.2541C2022.6194,-337.587 2011.3057,-324.3189 1999,-315 1988.6961,-307.1971 1976.4296,-300.5195 1964.7495,-295.1105"/>
<polygon fill="#000000" stroke="#000000" points="1966.1182,-291.8888 1955.5568,-291.0473 1963.2883,-298.2913 1966.1182,-291.8888"/>
<text text-anchor="middle" x="2056.5" y="-318.8" font-family="Times,serif" font-size="14.00" fill="#000000">of_cell_line</text>
</g>
<!-- clinical_measure_file -->
<g id="node8" class="node">
<title>clinical_measure_file</title>
<ellipse fill="none" stroke="#000000" cx="137" cy="-279" rx="108.5808" ry="18"/>
<text text-anchor="middle" x="137" y="-275.3" font-family="Times,serif" font-size="14.00" fill="#000000">clinical_measure_file</text>
</g>
<!-- clinical_measure_file&#45;&gt;study -->
<g id="edge24" class="edge">
<title>clinical_measure_file&#45;&gt;study</title>
<path fill="none" stroke="#000000" d="M136.6963,-260.977C137.5398,-249.7813 140.6433,-236.0382 150,-228 313.7443,-87.3306 1935.2734,-29.0066 2233.1236,-19.4409"/>
<polygon fill="#000000" stroke="#000000" points="2233.6709,-22.9253 2243.5543,-19.1086 2233.4479,-15.9289 2233.6709,-22.9253"/>
<text text-anchor="middle" x="562" y="-144.8" font-family="Times,serif" font-size="14.00" fill="#000000">of_clinical_measure_file</text>
</g>
<!-- clinical_measure_file&#45;&gt;participant -->
<g id="edge23" class="edge">
<title>clinical_measure_file&#45;&gt;participant</title>
<path fill="none" stroke="#000000" d="M142.9248,-260.8308C147.73,-249.2688 155.7466,-235.1667 168,-228 210.7158,-203.0165 926.793,-194.6381 1159.5491,-192.5679"/>
<polygon fill="#000000" stroke="#000000" points="1159.6366,-196.0673 1169.6055,-192.4797 1159.5751,-189.0676 1159.6366,-196.0673"/>
<text text-anchor="middle" x="254" y="-231.8" font-family="Times,serif" font-size="14.00" fill="#000000">of_clinical_measure_file</text>
</g>
<!-- family_relationship -->
<g id="node9" class="node">
<title>family_relationship</title>
<ellipse fill="none" stroke="#000000" cx="1760" cy="-279" rx="100.1823" ry="18"/>
<text text-anchor="middle" x="1760" y="-275.3" font-family="Times,serif" font-size="14.00" fill="#000000">family_relationship</text>
</g>
<!-- family_relationship&#45;&gt;participant -->
<g id="edge35" class="edge">
<title>family_relationship&#45;&gt;participant</title>
<path fill="none" stroke="#000000" d="M1727.6035,-261.9333C1703.9876,-250.3212 1670.8554,-235.7125 1640,-228 1578.2233,-212.5584 1403.1903,-201.1027 1303.6071,-195.6137"/>
<polygon fill="#000000" stroke="#000000" points="1303.7973,-192.119 1293.6216,-195.0693 1303.4162,-199.1086 1303.7973,-192.119"/>
<text text-anchor="middle" x="1764.5" y="-231.8" font-family="Times,serif" font-size="14.00" fill="#000000">of_family_relationship</text>
</g>
<!-- pathology_file -->
<g id="node10" class="node">
<title>pathology_file</title>
<ellipse fill="none" stroke="#000000" cx="1229" cy="-366" rx="76.0865" ry="18"/>
<text text-anchor="middle" x="1229" y="-362.3" font-family="Times,serif" font-size="14.00" fill="#000000">pathology_file</text>
</g>
<!-- pathology_file&#45;&gt;sample -->
<g id="edge19" class="edge">
<title>pathology_file&#45;&gt;sample</title>
<path fill="none" stroke="#000000" d="M1246.2249,-348.289C1258.9963,-336.452 1277.5056,-321.8406 1297,-315 1357.0002,-293.9457 1806.4338,-308.3482 1869,-297 1872.7081,-296.3274 1876.509,-295.4455 1880.2895,-294.4332"/>
<polygon fill="#000000" stroke="#000000" points="1881.579,-297.7015 1890.1714,-291.503 1879.5889,-290.9904 1881.579,-297.7015"/>
<text text-anchor="middle" x="1358" y="-318.8" font-family="Times,serif" font-size="14.00" fill="#000000">of_pathology_file</text>
</g>
<!-- generic_file -->
<g id="node11" class="node">
<title>generic_file</title>
<ellipse fill="none" stroke="#000000" cx="270" cy="-366" rx="65.7887" ry="18"/>
<text text-anchor="middle" x="270" y="-362.3" font-family="Times,serif" font-size="14.00" fill="#000000">generic_file</text>
</g>
<!-- generic_file&#45;&gt;study -->
<g id="edge26" class="edge">
<title>generic_file&#45;&gt;study</title>
<path fill="none" stroke="#000000" d="M209.7428,-358.852C130.1676,-347.7004 0,-322.7695 0,-279 0,-279 0,-279 0,-105 0,-47.016 1908.3317,-22.3098 2233.2433,-18.5235"/>
<polygon fill="#000000" stroke="#000000" points="2233.3044,-22.0231 2243.2632,-18.4075 2233.2233,-15.0236 2233.3044,-22.0231"/>
<text text-anchor="middle" x="53" y="-188.3" font-family="Times,serif" font-size="14.00" fill="#000000">of_generic_file</text>
</g>
<!-- generic_file&#45;&gt;sample -->
<g id="edge27" class="edge">
<title>generic_file&#45;&gt;sample</title>
<path fill="none" stroke="#000000" d="M319.8635,-354.2373C375.226,-341.7915 467.4204,-322.884 548,-315 694.0938,-300.706 1724.3374,-321.9087 1869,-297 1872.7139,-296.3605 1876.5189,-295.5017 1880.3022,-294.5047"/>
<polygon fill="#000000" stroke="#000000" points="1881.5814,-297.7768 1890.1883,-291.5984 1879.6071,-291.061 1881.5814,-297.7768"/>
<text text-anchor="middle" x="601" y="-318.8" font-family="Times,serif" font-size="14.00" fill="#000000">of_generic_file</text>
</g>
<!-- generic_file&#45;&gt;participant -->
<g id="edge25" class="edge">
<title>generic_file&#45;&gt;participant</title>
<path fill="none" stroke="#000000" d="M275.3629,-347.6997C283.3018,-323.9374 300.5123,-282.9193 330,-261 382.3476,-222.088 408.3861,-236.9143 473,-228 604.0704,-209.9172 995.7539,-198.0692 1159.1533,-193.7878"/>
<polygon fill="#000000" stroke="#000000" points="1159.6752,-197.2755 1169.5809,-193.5168 1159.4933,-190.2779 1159.6752,-197.2755"/>
<text text-anchor="middle" x="383" y="-275.3" font-family="Times,serif" font-size="14.00" fill="#000000">of_generic_file</text>
</g>
<!-- laboratory_test -->
<g id="node12" class="node">
<title>laboratory_test</title>
<ellipse fill="none" stroke="#000000" cx="1867" cy="-366" rx="81.7856" ry="18"/>
<text text-anchor="middle" x="1867" y="-362.3" font-family="Times,serif" font-size="14.00" fill="#000000">laboratory_test</text>
</g>
<!-- laboratory_test&#45;&gt;sample -->
<g id="edge37" class="edge">
<title>laboratory_test&#45;&gt;sample</title>
<path fill="none" stroke="#000000" d="M1804.8597,-354.2456C1776.9971,-346.1847 1753.4989,-333.5404 1769,-315 1783.4829,-297.6774 1847.138,-302.6463 1869,-297 1872.3475,-296.1354 1875.7882,-295.1635 1879.2316,-294.1308"/>
<polygon fill="#000000" stroke="#000000" points="1880.3797,-297.4388 1888.8676,-291.098 1878.2781,-290.7617 1880.3797,-297.4388"/>
<text text-anchor="middle" x="1834.5" y="-318.8" font-family="Times,serif" font-size="14.00" fill="#000000">of_laboratory_test</text>
</g>
<!-- laboratory_test&#45;&gt;participant -->
<g id="edge38" class="edge">
<title>laboratory_test&#45;&gt;participant</title>
<path fill="none" stroke="#000000" d="M1932.8737,-355.1907C1960.3594,-349.2124 1987.8106,-340.7877 1996,-330 2025.6436,-290.9511 1996.3756,-252.6549 1954,-228 1926.2662,-211.864 1481.9875,-198.5323 1304.4584,-193.8238"/>
<polygon fill="#000000" stroke="#000000" points="1304.5148,-190.3241 1294.4261,-193.5593 1304.3303,-197.3217 1304.5148,-190.3241"/>
<text text-anchor="middle" x="2074.5" y="-275.3" font-family="Times,serif" font-size="14.00" fill="#000000">of_laboratory_test</text>
</g>
<!-- pdx&#45;&gt;study -->
<g id="edge4" class="edge">
<title>pdx&#45;&gt;study</title>
<path fill="none" stroke="#000000" d="M2164.1718,-173.8286C2162.8437,-151.6561 2163.5712,-113.8152 2180,-87 2188.2307,-73.5659 2220.9076,-52.3146 2246.6972,-36.9439"/>
<polygon fill="#000000" stroke="#000000" points="2248.6375,-39.8632 2255.4807,-31.7749 2245.0871,-33.8304 2248.6375,-39.8632"/>
<text text-anchor="middle" x="2204" y="-101.3" font-family="Times,serif" font-size="14.00" fill="#000000">of_pdx</text>
</g>
<!-- pdx&#45;&gt;sample -->
<g id="edge5" class="edge">
<title>pdx&#45;&gt;sample</title>
<path fill="none" stroke="#000000" d="M2183.9269,-205.9915C2195.7216,-216.8468 2207.2453,-231.8696 2197,-243 2180.6147,-260.8008 2003.7501,-256.3871 1980,-261 1975.2682,-261.9191 1970.3766,-263.0839 1965.5333,-264.3775"/>
<polygon fill="#000000" stroke="#000000" points="1964.3818,-261.0663 1955.7261,-267.176 1966.3026,-267.7976 1964.3818,-261.0663"/>
<text text-anchor="middle" x="2224" y="-231.8" font-family="Times,serif" font-size="14.00" fill="#000000">of_pdx</text>
</g>
<!-- diagnosis -->
<g id="node14" class="node">
<title>diagnosis</title>
<ellipse fill="none" stroke="#000000" cx="441" cy="-366" rx="54.6905" ry="18"/>
<text text-anchor="middle" x="441" y="-362.3" font-family="Times,serif" font-size="14.00" fill="#000000">diagnosis</text>
</g>
<!-- diagnosis&#45;&gt;sample -->
<g id="edge21" class="edge">
<title>diagnosis&#45;&gt;sample</title>
<path fill="none" stroke="#000000" d="M488.0679,-356.8677C553.1592,-344.7042 674.4704,-323.7102 779,-315 899.7093,-304.9416 1749.6588,-317.7262 1869,-297 1872.713,-296.3552 1876.5174,-295.4926 1880.3002,-294.4931"/>
<polygon fill="#000000" stroke="#000000" points="1881.5811,-297.7646 1890.1856,-291.583 1879.6042,-291.0495 1881.5811,-297.7646"/>
<text text-anchor="middle" x="823.5" y="-318.8" font-family="Times,serif" font-size="14.00" fill="#000000">of_diagnosis</text>
</g>
<!-- diagnosis&#45;&gt;participant -->
<g id="edge20" class="edge">
<title>diagnosis&#45;&gt;participant</title>
<path fill="none" stroke="#000000" d="M437.9768,-347.8613C435.2207,-324.6569 434.381,-284.6481 456,-261 499.1339,-213.8176 532.7344,-237.1748 596,-228 702.8432,-212.5056 1016.6405,-199.7059 1159.5794,-194.5028"/>
<polygon fill="#000000" stroke="#000000" points="1160.1167,-197.9857 1169.9836,-194.1265 1159.8637,-190.9903 1160.1167,-197.9857"/>
<text text-anchor="middle" x="500.5" y="-275.3" font-family="Times,serif" font-size="14.00" fill="#000000">of_diagnosis</text>
</g>
<!-- medical_history -->
<g id="node15" class="node">
<title>medical_history</title>
<ellipse fill="none" stroke="#000000" cx="792" cy="-279" rx="85.2851" ry="18"/>
<text text-anchor="middle" x="792" y="-275.3" font-family="Times,serif" font-size="14.00" fill="#000000">medical_history</text>
</g>
<!-- medical_history&#45;&gt;participant -->
<g id="edge14" class="edge">
<title>medical_history&#45;&gt;participant</title>
<path fill="none" stroke="#000000" d="M806.1458,-261.1573C816.4254,-249.5817 831.4016,-235.3347 848,-228 901.9959,-204.1397 1063.7816,-196.0694 1159.2564,-193.3571"/>
<polygon fill="#000000" stroke="#000000" points="1159.5189,-196.8514 1169.4203,-193.0815 1159.3291,-189.854 1159.5189,-196.8514"/>
<text text-anchor="middle" x="916" y="-231.8" font-family="Times,serif" font-size="14.00" fill="#000000">of_medical_history</text>
</g>
<!-- sequencing_file -->
<g id="node16" class="node">
<title>sequencing_file</title>
<ellipse fill="none" stroke="#000000" cx="1406" cy="-366" rx="83.3857" ry="18"/>
<text text-anchor="middle" x="1406" y="-362.3" font-family="Times,serif" font-size="14.00" fill="#000000">sequencing_file</text>
</g>
<!-- sequencing_file&#45;&gt;sample -->
<g id="edge10" class="edge">
<title>sequencing_file&#45;&gt;sample</title>
<path fill="none" stroke="#000000" d="M1411.943,-347.8618C1416.7562,-336.3133 1424.7747,-322.2146 1437,-315 1478.3743,-290.5835 1821.7739,-305.8145 1869,-297 1872.6539,-296.318 1876.3991,-295.438 1880.1267,-294.4343"/>
<polygon fill="#000000" stroke="#000000" points="1881.2876,-297.7408 1889.8783,-291.5399 1879.2957,-291.0301 1881.2876,-297.7408"/>
<text text-anchor="middle" x="1503.5" y="-318.8" font-family="Times,serif" font-size="14.00" fill="#000000">of_sequencing_file</text>
</g>
<!-- participant&#45;&gt;consent_group -->
<g id="edge11" class="edge">
<title>participant&#45;&gt;consent_group</title>
<path fill="none" stroke="#000000" d="M1285.444,-182.6068C1374.5075,-166.9532 1553.4169,-135.5085 1654.0148,-117.8277"/>
<polygon fill="#000000" stroke="#000000" points="1654.8524,-121.2342 1664.0955,-116.0559 1653.6406,-114.3399 1654.8524,-121.2342"/>
<text text-anchor="middle" x="1560.5" y="-144.8" font-family="Times,serif" font-size="14.00" fill="#000000">of_participant</text>
</g>
<!-- study_arm -->
<g id="node18" class="node">
<title>study_arm</title>
<ellipse fill="none" stroke="#000000" cx="2368" cy="-105" rx="59.5901" ry="18"/>
<text text-anchor="middle" x="2368" y="-101.3" font-family="Times,serif" font-size="14.00" fill="#000000">study_arm</text>
</g>
<!-- study_arm&#45;&gt;study -->
<g id="edge13" class="edge">
<title>study_arm&#45;&gt;study</title>
<path fill="none" stroke="#000000" d="M2350.1919,-87.3943C2336.7629,-74.1179 2318.2161,-55.7818 2303.5597,-41.292"/>
<polygon fill="#000000" stroke="#000000" points="2305.8698,-38.6541 2296.2977,-34.1125 2300.9484,-43.632 2305.8698,-38.6541"/>
<text text-anchor="middle" x="2377.5" y="-57.8" font-family="Times,serif" font-size="14.00" fill="#000000">of_study_arm</text>
</g>
<!-- survival -->
<g id="node19" class="node">
<title>survival</title>
<ellipse fill="none" stroke="#000000" cx="943" cy="-279" rx="48.1917" ry="18"/>
<text text-anchor="middle" x="943" y="-275.3" font-family="Times,serif" font-size="14.00" fill="#000000">survival</text>
</g>
<!-- survival&#45;&gt;participant -->
<g id="edge6" class="edge">
<title>survival&#45;&gt;participant</title>
<path fill="none" stroke="#000000" d="M961.4424,-262.3468C975.2128,-250.8552 995.0261,-236.2185 1015,-228 1041.3347,-217.1642 1110.6331,-206.7357 1163.8988,-199.9174"/>
<polygon fill="#000000" stroke="#000000" points="1164.4989,-203.3695 1173.9819,-198.645 1163.6224,-196.4246 1164.4989,-203.3695"/>
<text text-anchor="middle" x="1054.5" y="-231.8" font-family="Times,serif" font-size="14.00" fill="#000000">of_survival</text>
</g>
<!-- study_funding -->
<g id="node20" class="node">
<title>study_funding</title>
<ellipse fill="none" stroke="#000000" cx="2523" cy="-105" rx="77.1866" ry="18"/>
<text text-anchor="middle" x="2523" y="-101.3" font-family="Times,serif" font-size="14.00" fill="#000000">study_funding</text>
</g>
<!-- study_funding&#45;&gt;study -->
<g id="edge36" class="edge">
<title>study_funding&#45;&gt;study</title>
<path fill="none" stroke="#000000" d="M2496.2531,-87.8351C2478.1485,-76.8524 2453.3615,-63.0228 2430,-54 2395.6587,-40.7366 2354.9486,-31.3373 2324.6106,-25.4766"/>
<polygon fill="#000000" stroke="#000000" points="2325.218,-22.0295 2314.7439,-23.6242 2323.9264,-28.9093 2325.218,-22.0295"/>
<text text-anchor="middle" x="2523" y="-57.8" font-family="Times,serif" font-size="14.00" fill="#000000">of_study_funding</text>
</g>
<!-- genetic_analysis -->
<g id="node21" class="node">
<title>genetic_analysis</title>
<ellipse fill="none" stroke="#000000" cx="734" cy="-366" rx="87.9851" ry="18"/>
<text text-anchor="middle" x="734" y="-362.3" font-family="Times,serif" font-size="14.00" fill="#000000">genetic_analysis</text>
</g>
<!-- genetic_analysis&#45;&gt;sample -->
<g id="edge15" class="edge">
<title>genetic_analysis&#45;&gt;sample</title>
<path fill="none" stroke="#000000" d="M783.6414,-351.1026C827.0705,-338.8373 892.0861,-322.3198 950,-315 1152.6492,-289.387 1667.805,-332.2602 1869,-297 1872.712,-296.3495 1876.5157,-295.4829 1880.298,-294.4808"/>
<polygon fill="#000000" stroke="#000000" points="1881.5807,-297.7516 1890.1827,-291.5665 1879.6011,-291.0374 1881.5807,-297.7516"/>
<text text-anchor="middle" x="1020" y="-318.8" font-family="Times,serif" font-size="14.00" fill="#000000">of_genetic_analysis</text>
</g>
<!-- genetic_analysis&#45;&gt;participant -->
<g id="edge16" class="edge">
<title>genetic_analysis&#45;&gt;participant</title>
<path fill="none" stroke="#000000" d="M671.8839,-353.1937C606.6001,-337.0278 518.441,-305.8117 558,-261 597.2918,-216.491 993.8288,-199.2699 1159.6795,-193.979"/>
<polygon fill="#000000" stroke="#000000" points="1159.9026,-197.4738 1169.7881,-193.6622 1159.6833,-190.4772 1159.9026,-197.4738"/>
<text text-anchor="middle" x="628" y="-275.3" font-family="Times,serif" font-size="14.00" fill="#000000">of_genetic_analysis</text>
</g>
<!-- exposure -->
<g id="node22" class="node">
<title>exposure</title>
<ellipse fill="none" stroke="#000000" cx="1361" cy="-279" rx="53.0913" ry="18"/>
<text text-anchor="middle" x="1361" y="-275.3" font-family="Times,serif" font-size="14.00" fill="#000000">exposure</text>
</g>
<!-- exposure&#45;&gt;participant -->
<g id="edge18" class="edge">
<title>exposure&#45;&gt;participant</title>
<path fill="none" stroke="#000000" d="M1353.6612,-260.8104C1348.4748,-249.9763 1340.563,-236.6885 1330,-228 1318.6832,-218.6914 1304.7407,-211.6719 1290.9595,-206.4239"/>
<polygon fill="#000000" stroke="#000000" points="1292.0735,-203.1055 1281.4787,-203.0675 1289.7373,-209.7042 1292.0735,-203.1055"/>
<text text-anchor="middle" x="1387.5" y="-231.8" font-family="Times,serif" font-size="14.00" fill="#000000">of_exposure</text>
</g>
<!-- study_admin -->
<g id="node23" class="node">
<title>study_admin</title>
<ellipse fill="none" stroke="#000000" cx="2689" cy="-105" rx="70.3881" ry="18"/>
<text text-anchor="middle" x="2689" y="-101.3" font-family="Times,serif" font-size="14.00" fill="#000000">study_admin</text>
</g>
<!-- study_admin&#45;&gt;study -->
<g id="edge29" class="edge">
<title>study_admin&#45;&gt;study</title>
<path fill="none" stroke="#000000" d="M2662.5137,-88.1889C2642.9662,-76.6208 2615.3014,-61.9576 2589,-54 2541.0837,-39.5027 2400.5265,-27.1236 2326.6276,-21.3973"/>
<polygon fill="#000000" stroke="#000000" points="2326.4651,-17.8747 2316.2271,-20.6012 2325.9308,-24.8543 2326.4651,-17.8747"/>
<text text-anchor="middle" x="2682.5" y="-57.8" font-family="Times,serif" font-size="14.00" fill="#000000">of_study_admin</text>
</g>
<!-- study_personnel -->
<g id="node24" class="node">
<title>study_personnel</title>
<ellipse fill="none" stroke="#000000" cx="2864" cy="-105" rx="87.1846" ry="18"/>
<text text-anchor="middle" x="2864" y="-101.3" font-family="Times,serif" font-size="14.00" fill="#000000">study_personnel</text>
</g>
<!-- study_personnel&#45;&gt;study -->
<g id="edge33" class="edge">
<title>study_personnel&#45;&gt;study</title>
<path fill="none" stroke="#000000" d="M2832.1002,-88.2117C2808.2454,-76.4955 2774.4569,-61.6395 2743,-54 2664.966,-35.0489 2428.0349,-23.7932 2326.739,-19.7314"/>
<polygon fill="#000000" stroke="#000000" points="2326.6377,-16.2248 2316.5073,-19.3272 2326.3613,-23.2193 2326.6377,-16.2248"/>
<text text-anchor="middle" x="2856.5" y="-57.8" font-family="Times,serif" font-size="14.00" fill="#000000">of_study_personnel</text>
</g>
<!-- methylation_array_file -->
<g id="node25" class="node">
<title>methylation_array_file</title>
<ellipse fill="none" stroke="#000000" cx="1623" cy="-366" rx="115.8798" ry="18"/>
<text text-anchor="middle" x="1623" y="-362.3" font-family="Times,serif" font-size="14.00" fill="#000000">methylation_array_file</text>
</g>
<!-- methylation_array_file&#45;&gt;sample -->
<g id="edge17" class="edge">
<title>methylation_array_file&#45;&gt;sample</title>
<path fill="none" stroke="#000000" d="M1592.4119,-348.5245C1578.7232,-338.5633 1567.7286,-325.9264 1578,-315 1600.1884,-291.3967 1837.2163,-303.264 1869,-297 1872.6468,-296.2813 1876.3871,-295.3755 1880.1114,-294.3546"/>
<polygon fill="#000000" stroke="#000000" points="1881.284,-297.657 1889.8577,-291.4327 1879.2738,-290.9518 1881.284,-297.657"/>
<text text-anchor="middle" x="1669.5" y="-318.8" font-family="Times,serif" font-size="14.00" fill="#000000">of_methylation_array_file</text>
</g>
<!-- treatment_response -->
<g id="node26" class="node">
<title>treatment_response</title>
<ellipse fill="none" stroke="#000000" cx="1537" cy="-279" rx="104.7816" ry="18"/>
<text text-anchor="middle" x="1537" y="-275.3" font-family="Times,serif" font-size="14.00" fill="#000000">treatment_response</text>
</g>
<!-- treatment_response&#45;&gt;participant -->
<g id="edge1" class="edge">
<title>treatment_response&#45;&gt;participant</title>
<path fill="none" stroke="#000000" d="M1507.6254,-261.4637C1487.7521,-250.3242 1460.5626,-236.4593 1435,-228 1391.7055,-213.6728 1341.2231,-204.6895 1301.4314,-199.2798"/>
<polygon fill="#000000" stroke="#000000" points="1301.6658,-195.7806 1291.2948,-197.9471 1300.7532,-202.7208 1301.6658,-195.7806"/>
<text text-anchor="middle" x="1553" y="-231.8" font-family="Times,serif" font-size="14.00" fill="#000000">of_treatment_response</text>
</g>
<!-- synonym -->
<g id="node27" class="node">
<title>synonym</title>
<ellipse fill="none" stroke="#000000" cx="2272" cy="-366" rx="51.9908" ry="18"/>
<text text-anchor="middle" x="2272" y="-362.3" font-family="Times,serif" font-size="14.00" fill="#000000">synonym</text>
</g>
<!-- synonym&#45;&gt;study -->
<g id="edge31" class="edge">
<title>synonym&#45;&gt;study</title>
<path fill="none" stroke="#000000" d="M2280.7039,-347.8156C2293.8397,-319.2583 2318.136,-261.7997 2327,-210 2329.6987,-194.2292 2330.9747,-189.4985 2327,-174 2320.5764,-148.9525 2307.6368,-147.3731 2299,-123 2290.1073,-97.9048 2285.2111,-67.8936 2282.6268,-46.3953"/>
<polygon fill="#000000" stroke="#000000" points="2286.0875,-45.8461 2281.5068,-36.2927 2279.1301,-46.6175 2286.0875,-45.8461"/>
<text text-anchor="middle" x="2371.5" y="-188.3" font-family="Times,serif" font-size="14.00" fill="#000000">of_synonym</text>
</g>
<!-- synonym&#45;&gt;sample -->
<g id="edge30" class="edge">
<title>synonym&#45;&gt;sample</title>
<path fill="none" stroke="#000000" d="M2235.0401,-353.315C2200.6739,-341.9191 2147.8742,-325.4211 2101,-315 2047.9262,-303.2007 2033.0076,-309.093 1980,-297 1975.3616,-295.9418 1970.5562,-294.6974 1965.787,-293.3653"/>
<polygon fill="#000000" stroke="#000000" points="1966.6934,-289.9838 1956.1131,-290.5393 1964.7305,-296.703 1966.6934,-289.9838"/>
<text text-anchor="middle" x="2201.5" y="-318.8" font-family="Times,serif" font-size="14.00" fill="#000000">of_synonym</text>
</g>
<!-- synonym&#45;&gt;participant -->
<g id="edge32" class="edge">
<title>synonym&#45;&gt;participant</title>
<path fill="none" stroke="#000000" d="M2266.6896,-347.7613C2262.869,-337.1776 2256.8178,-324.1693 2248,-315 2211.8992,-277.4604 2193.1321,-278.2779 2144,-261 2073.4496,-236.1901 2053.2227,-237.1588 1979,-228 1849.9919,-212.0809 1465.8133,-199.0409 1304.5447,-194.1147"/>
<polygon fill="#000000" stroke="#000000" points="1304.3513,-190.6073 1294.2496,-193.8021 1304.1387,-197.6041 1304.3513,-190.6073"/>
<text text-anchor="middle" x="2270.5" y="-275.3" font-family="Times,serif" font-size="14.00" fill="#000000">of_synonym</text>
</g>
<!-- publication -->
<g id="node28" class="node">
<title>publication</title>
<ellipse fill="none" stroke="#000000" cx="3032" cy="-105" rx="63.0888" ry="18"/>
<text text-anchor="middle" x="3032" y="-101.3" font-family="Times,serif" font-size="14.00" fill="#000000">publication</text>
</g>
<!-- publication&#45;&gt;study -->
<g id="edge39" class="edge">
<title>publication&#45;&gt;study</title>
<path fill="none" stroke="#000000" d="M3006.3355,-88.4569C2986.3844,-76.5375 2957.5554,-61.3152 2930,-54 2872.2439,-38.6673 2466.2933,-24.0984 2326.877,-19.4959"/>
<polygon fill="#000000" stroke="#000000" points="2326.6437,-15.9864 2316.5343,-19.1566 2326.4142,-22.9827 2326.6437,-15.9864"/>
<text text-anchor="middle" x="3019" y="-57.8" font-family="Times,serif" font-size="14.00" fill="#000000">of_publication</text>
</g>
</g>
</svg>
