<svg width="2167pt" height="305pt"
 viewBox="0.00 0.00 2166.95 305.00" xmlns="http://www.w3.org/2000/svg" xmlns:xlink="http://www.w3.org/1999/xlink">
<g id="graph0" class="graph" transform="scale(1 1) rotate(0) translate(4 301)">
<title>Perl</title>
<polygon fill="#ffffff" stroke="transparent" points="-4,4 -4,-301 2162.9475,-301 2162.9475,4 -4,4"/>
<!-- treatment_response -->
<g id="node1" class="node">
<title>treatment_response</title>
<ellipse fill="none" stroke="#000000" cx="1251.9475" cy="-192" rx="104.7816" ry="18"/>
<text text-anchor="middle" x="1251.9475" y="-188.3" font-family="Times,serif" font-size="14.00" fill="#000000">treatment_response</text>
</g>
<!-- participant -->
<g id="node13" class="node">
<title>participant</title>
<ellipse fill="none" stroke="#000000" cx="1075.9475" cy="-105" rx="62.2891" ry="18"/>
<text text-anchor="middle" x="1075.9475" y="-101.3" font-family="Times,serif" font-size="14.00" fill="#000000">participant</text>
</g>
<!-- treatment_response&#45;&gt;participant -->
<g id="edge22" class="edge">
<title>treatment_response&#45;&gt;participant</title>
<path fill="none" stroke="#000000" d="M1225.4004,-174.5342C1208.9467,-164.1003 1187.1628,-150.9795 1166.9475,-141 1153.5791,-134.4005 1138.6834,-128.0955 1124.8782,-122.6585"/>
<polygon fill="#000000" stroke="#000000" points="1126.1164,-119.3848 1115.5271,-119.0401 1123.5902,-125.9131 1126.1164,-119.3848"/>
<text text-anchor="middle" x="1275.9475" y="-144.8" font-family="Times,serif" font-size="14.00" fill="#000000">of_treatment_response</text>
</g>
<!-- clinical_measure_file -->
<g id="node2" class="node">
<title>clinical_measure_file</title>
<ellipse fill="none" stroke="#000000" cx="395.9475" cy="-192" rx="108.5808" ry="18"/>
<text text-anchor="middle" x="395.9475" y="-188.3" font-family="Times,serif" font-size="14.00" fill="#000000">clinical_measure_file</text>
</g>
<!-- clinical_measure_file&#45;&gt;participant -->
<g id="edge12" class="edge">
<title>clinical_measure_file&#45;&gt;participant</title>
<path fill="none" stroke="#000000" d="M415.3388,-174.2007C429.3857,-162.4854 449.4396,-148.0562 469.9475,-141 494.7899,-132.4524 848.6524,-115.3766 1003.8628,-108.2459"/>
<polygon fill="#000000" stroke="#000000" points="1004.4113,-111.7245 1014.2405,-107.7703 1004.0908,-104.7318 1004.4113,-111.7245"/>
<text text-anchor="middle" x="555.9475" y="-144.8" font-family="Times,serif" font-size="14.00" fill="#000000">of_clinical_measure_file</text>
</g>
<!-- study -->
<g id="node22" class="node">
<title>study</title>
<ellipse fill="none" stroke="#000000" cx="777.9475" cy="-18" rx="36.2938" ry="18"/>
<text text-anchor="middle" x="777.9475" y="-14.3" font-family="Times,serif" font-size="14.00" fill="#000000">study</text>
</g>
<!-- clinical_measure_file&#45;&gt;study -->
<g id="edge11" class="edge">
<title>clinical_measure_file&#45;&gt;study</title>
<path fill="none" stroke="#000000" d="M407.2561,-173.8391C414.7967,-163.0158 425.5767,-149.7293 437.9475,-141 450.7877,-131.9396 651.6405,-61.7714 738.464,-31.6563"/>
<polygon fill="#000000" stroke="#000000" points="739.6749,-34.9409 747.977,-28.3587 737.3822,-28.327 739.6749,-34.9409"/>
<text text-anchor="middle" x="661.9475" y="-101.3" font-family="Times,serif" font-size="14.00" fill="#000000">of_clinical_measure_file</text>
</g>
<!-- radiology_file -->
<g id="node3" class="node">
<title>radiology_file</title>
<ellipse fill="none" stroke="#000000" cx="1447.9475" cy="-192" rx="73.387" ry="18"/>
<text text-anchor="middle" x="1447.9475" y="-188.3" font-family="Times,serif" font-size="14.00" fill="#000000">radiology_file</text>
</g>
<!-- radiology_file&#45;&gt;participant -->
<g id="edge6" class="edge">
<title>radiology_file&#45;&gt;participant</title>
<path fill="none" stroke="#000000" d="M1425.5145,-174.6809C1409.1251,-163.0286 1385.8512,-148.4768 1362.9475,-141 1278.9472,-113.5784 1252.3817,-135.7772 1164.9475,-123 1155.4543,-121.6127 1145.4449,-119.8677 1135.7011,-118.0135"/>
<polygon fill="#000000" stroke="#000000" points="1136.162,-114.5374 1125.676,-116.0522 1134.8179,-121.4072 1136.162,-114.5374"/>
<text text-anchor="middle" x="1453.9475" y="-144.8" font-family="Times,serif" font-size="14.00" fill="#000000">of_radiology_file</text>
</g>
<!-- diagnosis -->
<g id="node4" class="node">
<title>diagnosis</title>
<ellipse fill="none" stroke="#000000" cx="1374.9475" cy="-279" rx="54.6905" ry="18"/>
<text text-anchor="middle" x="1374.9475" y="-275.3" font-family="Times,serif" font-size="14.00" fill="#000000">diagnosis</text>
</g>
<!-- sample -->
<g id="node9" class="node">
<title>sample</title>
<ellipse fill="none" stroke="#000000" cx="224.9475" cy="-192" rx="44.393" ry="18"/>
<text text-anchor="middle" x="224.9475" y="-188.3" font-family="Times,serif" font-size="14.00" fill="#000000">sample</text>
</g>
<!-- diagnosis&#45;&gt;sample -->
<g id="edge15" class="edge">
<title>diagnosis&#45;&gt;sample</title>
<path fill="none" stroke="#000000" d="M1323.4455,-272.6903C1231.2557,-261.6595 1031.8679,-238.9988 862.9475,-228 733.1608,-219.5493 405.9291,-233.1671 277.9475,-210 274.2392,-209.3287 270.4381,-208.4477 266.6575,-207.436"/>
<polygon fill="#000000" stroke="#000000" points="267.3578,-203.9931 256.7755,-204.5067 265.3684,-210.7045 267.3578,-203.9931"/>
<text text-anchor="middle" x="1090.4475" y="-231.8" font-family="Times,serif" font-size="14.00" fill="#000000">of_diagnosis</text>
</g>
<!-- diagnosis&#45;&gt;participant -->
<g id="edge14" class="edge">
<title>diagnosis&#45;&gt;participant</title>
<path fill="none" stroke="#000000" d="M1424.7261,-271.3614C1460.6899,-262.958 1506.8451,-245.5725 1529.9475,-210 1546.9444,-183.8288 1542.2854,-159.2158 1516.9475,-141 1485.1497,-118.14 1203.8026,-127.8951 1164.9475,-123 1155.2112,-121.7734 1144.9475,-120.079 1134.9886,-118.2168"/>
<polygon fill="#000000" stroke="#000000" points="1135.6457,-114.7791 1125.1621,-116.3099 1134.3121,-121.6509 1135.6457,-114.7791"/>
<text text-anchor="middle" x="1584.4475" y="-188.3" font-family="Times,serif" font-size="14.00" fill="#000000">of_diagnosis</text>
</g>
<!-- cytogenomic_file -->
<g id="node5" class="node">
<title>cytogenomic_file</title>
<ellipse fill="none" stroke="#000000" cx="163.9475" cy="-279" rx="89.8845" ry="18"/>
<text text-anchor="middle" x="163.9475" y="-275.3" font-family="Times,serif" font-size="14.00" fill="#000000">cytogenomic_file</text>
</g>
<!-- cytogenomic_file&#45;&gt;sample -->
<g id="edge5" class="edge">
<title>cytogenomic_file&#45;&gt;sample</title>
<path fill="none" stroke="#000000" d="M176.5868,-260.9735C185.3721,-248.4437 197.21,-231.56 206.9746,-217.6335"/>
<polygon fill="#000000" stroke="#000000" points="209.8655,-219.607 212.7407,-209.4097 204.134,-215.5883 209.8655,-219.607"/>
<text text-anchor="middle" x="270.4475" y="-231.8" font-family="Times,serif" font-size="14.00" fill="#000000">of_cytogenomic_file</text>
</g>
<!-- publication -->
<g id="node6" class="node">
<title>publication</title>
<ellipse fill="none" stroke="#000000" cx="98.9475" cy="-105" rx="63.0888" ry="18"/>
<text text-anchor="middle" x="98.9475" y="-101.3" font-family="Times,serif" font-size="14.00" fill="#000000">publication</text>
</g>
<!-- publication&#45;&gt;study -->
<g id="edge26" class="edge">
<title>publication&#45;&gt;study</title>
<path fill="none" stroke="#000000" d="M112.162,-87.2272C121.9831,-75.5241 136.4887,-61.0985 152.9475,-54 205.5322,-31.3208 595.1503,-21.5838 731.2159,-18.8507"/>
<polygon fill="#000000" stroke="#000000" points="731.3946,-22.3479 741.3236,-18.6512 731.2565,-15.3493 731.3946,-22.3479"/>
<text text-anchor="middle" x="203.9475" y="-57.8" font-family="Times,serif" font-size="14.00" fill="#000000">of_publication</text>
</g>
<!-- methylation_array_file -->
<g id="node7" class="node">
<title>methylation_array_file</title>
<ellipse fill="none" stroke="#000000" cx="386.9475" cy="-279" rx="115.8798" ry="18"/>
<text text-anchor="middle" x="386.9475" y="-275.3" font-family="Times,serif" font-size="14.00" fill="#000000">methylation_array_file</text>
</g>
<!-- methylation_array_file&#45;&gt;sample -->
<g id="edge2" class="edge">
<title>methylation_array_file&#45;&gt;sample</title>
<path fill="none" stroke="#000000" d="M376.5852,-260.943C369.3477,-249.879 358.7126,-236.2945 345.9475,-228 319.7325,-210.966 307.8775,-219.0322 277.9475,-210 274.7844,-209.0455 271.5267,-208.027 268.2552,-206.9783"/>
<polygon fill="#000000" stroke="#000000" points="269.0731,-203.5633 258.4804,-203.7759 266.8937,-210.2154 269.0731,-203.5633"/>
<text text-anchor="middle" x="454.4475" y="-231.8" font-family="Times,serif" font-size="14.00" fill="#000000">of_methylation_array_file</text>
</g>
<!-- pdx -->
<g id="node8" class="node">
<title>pdx</title>
<ellipse fill="none" stroke="#000000" cx="27.9475" cy="-279" rx="27.8951" ry="18"/>
<text text-anchor="middle" x="27.9475" y="-275.3" font-family="Times,serif" font-size="14.00" fill="#000000">pdx</text>
</g>
<!-- pdx&#45;&gt;sample -->
<g id="edge17" class="edge">
<title>pdx&#45;&gt;sample</title>
<path fill="none" stroke="#000000" d="M26.7754,-260.6124C27.1163,-249.7038 29.5114,-236.4072 37.9475,-228 56.3671,-209.6436 122.761,-200.2533 171.2141,-195.7413"/>
<polygon fill="#000000" stroke="#000000" points="171.6055,-199.2204 181.2574,-194.8511 170.9874,-192.2478 171.6055,-199.2204"/>
<text text-anchor="middle" x="61.9475" y="-231.8" font-family="Times,serif" font-size="14.00" fill="#000000">of_pdx</text>
</g>
<!-- pdx&#45;&gt;study -->
<g id="edge16" class="edge">
<title>pdx&#45;&gt;study</title>
<path fill="none" stroke="#000000" d="M21.5604,-261.2857C9.6092,-224.7321 -11.6192,-139.9431 26.9475,-87 68.4899,-29.9721 572.4855,-20.0607 730.729,-18.3523"/>
<polygon fill="#000000" stroke="#000000" points="731.1156,-21.8487 741.0795,-18.2471 731.0444,-14.849 731.1156,-21.8487"/>
<text text-anchor="middle" x="30.9475" y="-144.8" font-family="Times,serif" font-size="14.00" fill="#000000">of_pdx</text>
</g>
<!-- sample&#45;&gt;pdx -->
<g id="edge10" class="edge">
<title>sample&#45;&gt;pdx</title>
<path fill="none" stroke="#000000" d="M187.5874,-201.6383C165.6358,-207.9056 137.6355,-216.9605 113.9475,-228 102.5462,-233.3134 100.7212,-236.5077 89.9475,-243 79.5816,-249.2466 68.1456,-255.9415 57.948,-261.8431"/>
<polygon fill="#000000" stroke="#000000" points="55.9118,-258.9769 48.9971,-267.0042 59.4085,-265.041 55.9118,-258.9769"/>
<text text-anchor="middle" x="150.4475" y="-231.8" font-family="Times,serif" font-size="14.00" fill="#000000">of_sample</text>
</g>
<!-- cell_line -->
<g id="node12" class="node">
<title>cell_line</title>
<ellipse fill="none" stroke="#000000" cx="228.9475" cy="-105" rx="49.2915" ry="18"/>
<text text-anchor="middle" x="228.9475" y="-101.3" font-family="Times,serif" font-size="14.00" fill="#000000">cell_line</text>
</g>
<!-- sample&#45;&gt;cell_line -->
<g id="edge8" class="edge">
<title>sample&#45;&gt;cell_line</title>
<path fill="none" stroke="#000000" d="M184.3504,-184.8038C153.3205,-177.3851 118.3068,-163.6531 133.9475,-141 137.0713,-136.4757 159.6888,-127.8184 182.0697,-120.1274"/>
<polygon fill="#000000" stroke="#000000" points="183.2395,-123.4266 191.5896,-116.9053 180.9953,-116.7961 183.2395,-123.4266"/>
<text text-anchor="middle" x="170.4475" y="-144.8" font-family="Times,serif" font-size="14.00" fill="#000000">of_sample</text>
</g>
<!-- sample&#45;&gt;participant -->
<g id="edge9" class="edge">
<title>sample&#45;&gt;participant</title>
<path fill="none" stroke="#000000" d="M254.2406,-178.4031C282.0618,-166.2006 325.3975,-149.0158 364.9475,-141 380.4599,-137.856 826.6136,-116.6829 1004.1174,-108.355"/>
<polygon fill="#000000" stroke="#000000" points="1004.321,-111.8494 1014.1461,-107.8848 1003.9931,-104.8571 1004.321,-111.8494"/>
<text text-anchor="middle" x="401.4475" y="-144.8" font-family="Times,serif" font-size="14.00" fill="#000000">of_sample</text>
</g>
<!-- study_personnel -->
<g id="node10" class="node">
<title>study_personnel</title>
<ellipse fill="none" stroke="#000000" cx="382.9475" cy="-105" rx="87.1846" ry="18"/>
<text text-anchor="middle" x="382.9475" y="-101.3" font-family="Times,serif" font-size="14.00" fill="#000000">study_personnel</text>
</g>
<!-- study_personnel&#45;&gt;study -->
<g id="edge18" class="edge">
<title>study_personnel&#45;&gt;study</title>
<path fill="none" stroke="#000000" d="M370.514,-86.9859C364.7398,-76.2179 360.7618,-62.9379 368.9475,-54 393.0344,-27.6999 629.4125,-20.5192 731.446,-18.6376"/>
<polygon fill="#000000" stroke="#000000" points="731.5321,-22.1367 741.4692,-18.4619 731.4093,-15.1378 731.5321,-22.1367"/>
<text text-anchor="middle" x="438.4475" y="-57.8" font-family="Times,serif" font-size="14.00" fill="#000000">of_study_personnel</text>
</g>
<!-- survival -->
<g id="node11" class="node">
<title>survival</title>
<ellipse fill="none" stroke="#000000" cx="1711.9475" cy="-192" rx="48.1917" ry="18"/>
<text text-anchor="middle" x="1711.9475" y="-188.3" font-family="Times,serif" font-size="14.00" fill="#000000">survival</text>
</g>
<!-- survival&#45;&gt;participant -->
<g id="edge21" class="edge">
<title>survival&#45;&gt;participant</title>
<path fill="none" stroke="#000000" d="M1681.6332,-177.9937C1653.5873,-165.7767 1610.3982,-148.8199 1570.9475,-141 1393.773,-105.8804 1344.2282,-144.9688 1164.9475,-123 1155.0898,-121.792 1144.6939,-120.0885 1134.6217,-118.2065"/>
<polygon fill="#000000" stroke="#000000" points="1135.1733,-114.7483 1124.6893,-116.2767 1133.8382,-121.6198 1135.1733,-114.7483"/>
<text text-anchor="middle" x="1661.4475" y="-144.8" font-family="Times,serif" font-size="14.00" fill="#000000">of_survival</text>
</g>
<!-- cell_line&#45;&gt;sample -->
<g id="edge23" class="edge">
<title>cell_line&#45;&gt;sample</title>
<path fill="none" stroke="#000000" d="M228.1198,-123.0034C227.5783,-134.7801 226.8597,-150.4102 226.2434,-163.8156"/>
<polygon fill="#000000" stroke="#000000" points="222.7394,-163.8233 225.7763,-173.9735 229.732,-164.1449 222.7394,-163.8233"/>
<text text-anchor="middle" x="268.4475" y="-144.8" font-family="Times,serif" font-size="14.00" fill="#000000">of_cell_line</text>
</g>
<!-- cell_line&#45;&gt;study -->
<g id="edge24" class="edge">
<title>cell_line&#45;&gt;study</title>
<path fill="none" stroke="#000000" d="M241.2492,-87.3136C250.4428,-75.6501 264.118,-61.2364 279.9475,-54 320.3227,-35.5426 614.9707,-23.5726 731.0924,-19.5265"/>
<polygon fill="#000000" stroke="#000000" points="731.559,-23.0126 741.4327,-19.1707 731.3182,-16.0167 731.559,-23.0126"/>
<text text-anchor="middle" x="320.4475" y="-57.8" font-family="Times,serif" font-size="14.00" fill="#000000">of_cell_line</text>
</g>
<!-- participant&#45;&gt;study -->
<g id="edge3" class="edge">
<title>participant&#45;&gt;study</title>
<path fill="none" stroke="#000000" d="M1031.9766,-92.1629C974.6684,-75.4319 875.1844,-46.388 819.2316,-30.0527"/>
<polygon fill="#000000" stroke="#000000" points="819.8908,-26.5991 809.3106,-27.1563 817.929,-33.3186 819.8908,-26.5991"/>
<text text-anchor="middle" x="994.4475" y="-57.8" font-family="Times,serif" font-size="14.00" fill="#000000">of_participant</text>
</g>
<!-- family_relationship -->
<g id="node14" class="node">
<title>family_relationship</title>
<ellipse fill="none" stroke="#000000" cx="1877.9475" cy="-192" rx="100.1823" ry="18"/>
<text text-anchor="middle" x="1877.9475" y="-188.3" font-family="Times,serif" font-size="14.00" fill="#000000">family_relationship</text>
</g>
<!-- family_relationship&#45;&gt;participant -->
<g id="edge13" class="edge">
<title>family_relationship&#45;&gt;participant</title>
<path fill="none" stroke="#000000" d="M1834.2163,-175.754C1799.6608,-163.7408 1749.9255,-148.2585 1704.9475,-141 1467.8813,-102.7426 1403.4548,-150.8975 1164.9475,-123 1155.0833,-121.8462 1144.6841,-120.1702 1134.6106,-118.2988"/>
<polygon fill="#000000" stroke="#000000" points="1135.1608,-114.8404 1124.6776,-116.3745 1133.8293,-121.7126 1135.1608,-114.8404"/>
<text text-anchor="middle" x="1846.4475" y="-144.8" font-family="Times,serif" font-size="14.00" fill="#000000">of_family_relationship</text>
</g>
<!-- synonym -->
<g id="node15" class="node">
<title>synonym</title>
<ellipse fill="none" stroke="#000000" cx="2013.9475" cy="-279" rx="51.9908" ry="18"/>
<text text-anchor="middle" x="2013.9475" y="-275.3" font-family="Times,serif" font-size="14.00" fill="#000000">synonym</text>
</g>
<!-- synonym&#45;&gt;sample -->
<g id="edge32" class="edge">
<title>synonym&#45;&gt;sample</title>
<path fill="none" stroke="#000000" d="M1962.6954,-275.3423C1827.8808,-265.8665 1452.1674,-240.3979 1138.9475,-228 1043.3348,-224.2155 372.1877,-226.58 277.9475,-210 274.2359,-209.347 270.4326,-208.4788 266.6504,-207.4755"/>
<polygon fill="#000000" stroke="#000000" points="267.3478,-204.0321 256.766,-204.5595 265.367,-210.7461 267.3478,-204.0321"/>
<text text-anchor="middle" x="1469.4475" y="-231.8" font-family="Times,serif" font-size="14.00" fill="#000000">of_synonym</text>
</g>
<!-- synonym&#45;&gt;participant -->
<g id="edge30" class="edge">
<title>synonym&#45;&gt;participant</title>
<path fill="none" stroke="#000000" d="M2013.453,-260.8359C2011.9737,-238.3268 2006.5102,-199.7952 1986.9475,-174 1969.259,-150.6761 1958.1269,-148.9252 1929.9475,-141 1848.0994,-117.9808 1249.4427,-132.4639 1164.9475,-123 1155.0778,-121.8945 1144.6758,-120.2431 1134.6012,-118.3812"/>
<polygon fill="#000000" stroke="#000000" points="1135.15,-114.9226 1124.6676,-116.4617 1133.8219,-121.7955 1135.15,-114.9226"/>
<text text-anchor="middle" x="2046.4475" y="-188.3" font-family="Times,serif" font-size="14.00" fill="#000000">of_synonym</text>
</g>
<!-- synonym&#45;&gt;study -->
<g id="edge31" class="edge">
<title>synonym&#45;&gt;study</title>
<path fill="none" stroke="#000000" d="M2040.3016,-263.4037C2071.8038,-242.7929 2117.389,-205.421 2092.9475,-174 2056.3477,-126.9486 2022.0069,-149.0856 1962.9475,-141 1878.7098,-129.4673 1278.6791,-149.6724 1197.9475,-123 1171.6032,-114.2963 1171.6873,-99.5587 1146.9475,-87 1105.9667,-66.1968 1093.7122,-64.4076 1048.9475,-54 971.208,-35.9258 878.6647,-26.063 824.3107,-21.4227"/>
<polygon fill="#000000" stroke="#000000" points="824.5471,-17.9304 814.2915,-20.5898 823.9672,-24.9064 824.5471,-17.9304"/>
<text text-anchor="middle" x="2116.4475" y="-144.8" font-family="Times,serif" font-size="14.00" fill="#000000">of_synonym</text>
</g>
<!-- medical_history -->
<g id="node16" class="node">
<title>medical_history</title>
<ellipse fill="none" stroke="#000000" cx="607.9475" cy="-192" rx="85.2851" ry="18"/>
<text text-anchor="middle" x="607.9475" y="-188.3" font-family="Times,serif" font-size="14.00" fill="#000000">medical_history</text>
</g>
<!-- medical_history&#45;&gt;participant -->
<g id="edge1" class="edge">
<title>medical_history&#45;&gt;participant</title>
<path fill="none" stroke="#000000" d="M623.9757,-174.125C635.5204,-162.535 652.1462,-148.284 669.9475,-141 728.5162,-117.0346 903.4256,-108.984 1003.521,-106.3083"/>
<polygon fill="#000000" stroke="#000000" points="1003.6543,-109.8061 1013.5614,-106.0512 1003.4751,-102.8084 1003.6543,-109.8061"/>
<text text-anchor="middle" x="737.9475" y="-144.8" font-family="Times,serif" font-size="14.00" fill="#000000">of_medical_history</text>
</g>
<!-- treatment -->
<g id="node17" class="node">
<title>treatment</title>
<ellipse fill="none" stroke="#000000" cx="768.9475" cy="-192" rx="57.6901" ry="18"/>
<text text-anchor="middle" x="768.9475" y="-188.3" font-family="Times,serif" font-size="14.00" fill="#000000">treatment</text>
</g>
<!-- treatment&#45;&gt;participant -->
<g id="edge4" class="edge">
<title>treatment&#45;&gt;participant</title>
<path fill="none" stroke="#000000" d="M786.102,-174.7265C798.5659,-163.2525 816.4326,-148.8954 834.9475,-141 864.928,-128.2153 946.1279,-117.7786 1006.0281,-111.4951"/>
<polygon fill="#000000" stroke="#000000" points="1006.6079,-114.954 1016.1961,-110.4466 1005.8899,-107.9909 1006.6079,-114.954"/>
<text text-anchor="middle" x="881.9475" y="-144.8" font-family="Times,serif" font-size="14.00" fill="#000000">of_treatment</text>
</g>
<!-- pathology_file -->
<g id="node18" class="node">
<title>pathology_file</title>
<ellipse fill="none" stroke="#000000" cx="596.9475" cy="-279" rx="76.0865" ry="18"/>
<text text-anchor="middle" x="596.9475" y="-275.3" font-family="Times,serif" font-size="14.00" fill="#000000">pathology_file</text>
</g>
<!-- pathology_file&#45;&gt;sample -->
<g id="edge29" class="edge">
<title>pathology_file&#45;&gt;sample</title>
<path fill="none" stroke="#000000" d="M585.7501,-261.052C577.4238,-249.4294 564.9373,-235.1696 549.9475,-228 495.3,-201.8622 337.3556,-221.8411 277.9475,-210 274.3023,-209.2734 270.5631,-208.3621 266.8395,-207.3375"/>
<polygon fill="#000000" stroke="#000000" points="267.6785,-203.9351 257.0943,-204.4098 265.6644,-210.6391 267.6785,-203.9351"/>
<text text-anchor="middle" x="630.9475" y="-231.8" font-family="Times,serif" font-size="14.00" fill="#000000">of_pathology_file</text>
</g>
<!-- molecular_test -->
<g id="node19" class="node">
<title>molecular_test</title>
<ellipse fill="none" stroke="#000000" cx="924.9475" cy="-192" rx="79.8859" ry="18"/>
<text text-anchor="middle" x="924.9475" y="-188.3" font-family="Times,serif" font-size="14.00" fill="#000000">molecular_test</text>
</g>
<!-- molecular_test&#45;&gt;participant -->
<g id="edge20" class="edge">
<title>molecular_test&#45;&gt;participant</title>
<path fill="none" stroke="#000000" d="M927.5208,-173.6157C929.9752,-162.7083 934.739,-149.4118 943.9475,-141 954.4586,-131.3983 984.0662,-122.8956 1012.5827,-116.5678"/>
<polygon fill="#000000" stroke="#000000" points="1013.5467,-119.9407 1022.5907,-114.422 1012.0791,-113.0962 1013.5467,-119.9407"/>
<text text-anchor="middle" x="1007.9475" y="-144.8" font-family="Times,serif" font-size="14.00" fill="#000000">of_molecular_test</text>
</g>
<!-- exposure -->
<g id="node20" class="node">
<title>exposure</title>
<ellipse fill="none" stroke="#000000" cx="1075.9475" cy="-192" rx="53.0913" ry="18"/>
<text text-anchor="middle" x="1075.9475" y="-188.3" font-family="Times,serif" font-size="14.00" fill="#000000">exposure</text>
</g>
<!-- exposure&#45;&gt;participant -->
<g id="edge19" class="edge">
<title>exposure&#45;&gt;participant</title>
<path fill="none" stroke="#000000" d="M1075.9475,-173.9735C1075.9475,-162.1918 1075.9475,-146.5607 1075.9475,-133.1581"/>
<polygon fill="#000000" stroke="#000000" points="1079.4476,-133.0033 1075.9475,-123.0034 1072.4476,-133.0034 1079.4476,-133.0033"/>
<text text-anchor="middle" x="1119.4475" y="-144.8" font-family="Times,serif" font-size="14.00" fill="#000000">of_exposure</text>
</g>
<!-- study_funding -->
<g id="node21" class="node">
<title>study_funding</title>
<ellipse fill="none" stroke="#000000" cx="1283.9475" cy="-105" rx="77.1866" ry="18"/>
<text text-anchor="middle" x="1283.9475" y="-101.3" font-family="Times,serif" font-size="14.00" fill="#000000">study_funding</text>
</g>
<!-- study_funding&#45;&gt;study -->
<g id="edge25" class="edge">
<title>study_funding&#45;&gt;study</title>
<path fill="none" stroke="#000000" d="M1259.7535,-87.671C1242.1236,-76.014 1217.1798,-61.4608 1192.9475,-54 1125.1617,-33.1296 917.6204,-23.1068 824.2791,-19.5609"/>
<polygon fill="#000000" stroke="#000000" points="824.3997,-16.0631 814.2766,-19.1892 824.1397,-23.0582 824.3997,-16.0631"/>
<text text-anchor="middle" x="1288.9475" y="-57.8" font-family="Times,serif" font-size="14.00" fill="#000000">of_study_funding</text>
</g>
<!-- study_arm -->
<g id="node23" class="node">
<title>study_arm</title>
<ellipse fill="none" stroke="#000000" cx="1438.9475" cy="-105" rx="59.5901" ry="18"/>
<text text-anchor="middle" x="1438.9475" y="-101.3" font-family="Times,serif" font-size="14.00" fill="#000000">study_arm</text>
</g>
<!-- study_arm&#45;&gt;study -->
<g id="edge28" class="edge">
<title>study_arm&#45;&gt;study</title>
<path fill="none" stroke="#000000" d="M1417.5623,-87.9809C1401.3798,-76.1499 1378.0631,-61.2515 1354.9475,-54 1304.9969,-38.3302 953.2251,-24.2906 824.7652,-19.6318"/>
<polygon fill="#000000" stroke="#000000" points="824.5918,-16.1234 814.4723,-19.2613 824.3399,-23.1189 824.5918,-16.1234"/>
<text text-anchor="middle" x="1434.4475" y="-57.8" font-family="Times,serif" font-size="14.00" fill="#000000">of_study_arm</text>
</g>
<!-- sequencing_file -->
<g id="node24" class="node">
<title>sequencing_file</title>
<ellipse fill="none" stroke="#000000" cx="773.9475" cy="-279" rx="83.3857" ry="18"/>
<text text-anchor="middle" x="773.9475" y="-275.3" font-family="Times,serif" font-size="14.00" fill="#000000">sequencing_file</text>
</g>
<!-- sequencing_file&#45;&gt;sample -->
<g id="edge7" class="edge">
<title>sequencing_file&#45;&gt;sample</title>
<path fill="none" stroke="#000000" d="M753.6986,-261.3457C738.8177,-249.5354 717.5117,-234.9327 695.9475,-228 607.4343,-199.5438 369.3323,-227.1223 277.9475,-210 274.2941,-209.3155 270.5493,-208.4337 266.8218,-207.4288"/>
<polygon fill="#000000" stroke="#000000" points="267.6533,-204.0247 257.0706,-204.5325 265.6601,-210.735 267.6533,-204.0247"/>
<text text-anchor="middle" x="792.4475" y="-231.8" font-family="Times,serif" font-size="14.00" fill="#000000">of_sequencing_file</text>
</g>
<!-- study_admin -->
<g id="node25" class="node">
<title>study_admin</title>
<ellipse fill="none" stroke="#000000" cx="1586.9475" cy="-105" rx="70.3881" ry="18"/>
<text text-anchor="middle" x="1586.9475" y="-101.3" font-family="Times,serif" font-size="14.00" fill="#000000">study_admin</text>
</g>
<!-- study_admin&#45;&gt;study -->
<g id="edge27" class="edge">
<title>study_admin&#45;&gt;study</title>
<path fill="none" stroke="#000000" d="M1561.4337,-88.1682C1541.9187,-76.2662 1513.8711,-61.1961 1486.9475,-54 1423.3577,-37.0038 972.1955,-23.3051 824.5718,-19.2356"/>
<polygon fill="#000000" stroke="#000000" points="824.569,-15.7343 814.4769,-18.9593 824.3774,-22.7317 824.569,-15.7343"/>
<text text-anchor="middle" x="1580.4475" y="-57.8" font-family="Times,serif" font-size="14.00" fill="#000000">of_study_admin</text>
</g>
</g>
</svg>
