<svg width="3454pt" height="392pt"
 viewBox="0.00 0.00 3453.88 392.00" xmlns="http://www.w3.org/2000/svg" xmlns:xlink="http://www.w3.org/1999/xlink">
<g id="graph0" class="graph" transform="scale(1 1) rotate(0) translate(4 388)">
<title>Perl</title>
<polygon fill="#ffffff" stroke="transparent" points="-4,4 -4,-388 3449.88,-388 3449.88,4 -4,4"/>
<!-- sequencing_file -->
<g id="node1" class="node">
<title>sequencing_file</title>
<ellipse fill="none" stroke="#000000" cx="1528.7878" cy="-366" rx="83.3857" ry="18"/>
<text text-anchor="middle" x="1528.7878" y="-362.3" font-family="Times,serif" font-size="14.00" fill="#000000">sequencing_file</text>
</g>
<!-- cell_line -->
<g id="node16" class="node">
<title>cell_line</title>
<ellipse fill="none" stroke="#000000" cx="439.7878" cy="-279" rx="49.2915" ry="18"/>
<text text-anchor="middle" x="439.7878" y="-275.3" font-family="Times,serif" font-size="14.00" fill="#000000">cell_line</text>
</g>
<!-- sequencing_file&#45;&gt;cell_line -->
<g id="edge22" class="edge">
<title>sequencing_file&#45;&gt;cell_line</title>
<path fill="none" stroke="#000000" d="M1470.6109,-353.0961C1459.436,-351.0499 1447.7883,-349.2119 1436.7878,-348 1360.9978,-339.6506 822.4848,-355.9492 750.7878,-330 740.6711,-326.3385 741.7609,-319.036 731.7878,-315 658.0799,-285.1718 632.6448,-307.2046 553.7878,-297 534.5065,-294.5049 513.464,-291.3153 494.7654,-288.3161"/>
<polygon fill="#000000" stroke="#000000" points="495.0758,-284.8208 484.6445,-286.6751 493.9554,-291.7306 495.0758,-284.8208"/>
<text text-anchor="middle" x="817.2878" y="-318.8" font-family="Times,serif" font-size="14.00" fill="#000000">of_sequencing_file</text>
</g>
<!-- pdx -->
<g id="node18" class="node">
<title>pdx</title>
<ellipse fill="none" stroke="#000000" cx="1133.7878" cy="-279" rx="27.8951" ry="18"/>
<text text-anchor="middle" x="1133.7878" y="-275.3" font-family="Times,serif" font-size="14.00" fill="#000000">pdx</text>
</g>
<!-- sequencing_file&#45;&gt;pdx -->
<g id="edge23" class="edge">
<title>sequencing_file&#45;&gt;pdx</title>
<path fill="none" stroke="#000000" d="M1513.9778,-348.225C1503.2601,-336.6797 1487.7296,-322.441 1470.7878,-315 1417.9845,-291.8084 1248.4453,-283.0254 1171.9109,-280.1831"/>
<polygon fill="#000000" stroke="#000000" points="1171.8691,-276.6794 1161.7507,-279.8206 1171.6195,-283.675 1171.8691,-276.6794"/>
<text text-anchor="middle" x="1561.2878" y="-318.8" font-family="Times,serif" font-size="14.00" fill="#000000">of_sequencing_file</text>
</g>
<!-- sample -->
<g id="node20" class="node">
<title>sample</title>
<ellipse fill="none" stroke="#000000" cx="1083.7878" cy="-192" rx="44.393" ry="18"/>
<text text-anchor="middle" x="1083.7878" y="-188.3" font-family="Times,serif" font-size="14.00" fill="#000000">sample</text>
</g>
<!-- sequencing_file&#45;&gt;sample -->
<g id="edge21" class="edge">
<title>sequencing_file&#45;&gt;sample</title>
<path fill="none" stroke="#000000" d="M1584.9129,-352.6023C1605.7114,-346.4086 1625.73,-338.5345 1631.7878,-330 1654.9332,-297.3919 1624.1485,-282.7242 1581.7878,-261 1404.651,-170.1574 1331.3389,-252.1865 1136.7878,-210 1133.2057,-209.2233 1129.5286,-208.2846 1125.8622,-207.2487"/>
<polygon fill="#000000" stroke="#000000" points="1126.8409,-203.8881 1116.255,-204.3237 1124.802,-210.5846 1126.8409,-203.8881"/>
<text text-anchor="middle" x="1702.2878" y="-275.3" font-family="Times,serif" font-size="14.00" fill="#000000">of_sequencing_file</text>
</g>
<!-- study -->
<g id="node2" class="node">
<title>study</title>
<ellipse fill="none" stroke="#000000" cx="2682.7878" cy="-18" rx="36.2938" ry="18"/>
<text text-anchor="middle" x="2682.7878" y="-14.3" font-family="Times,serif" font-size="14.00" fill="#000000">study</text>
</g>
<!-- pathology_file -->
<g id="node3" class="node">
<title>pathology_file</title>
<ellipse fill="none" stroke="#000000" cx="1351.7878" cy="-366" rx="76.0865" ry="18"/>
<text text-anchor="middle" x="1351.7878" y="-362.3" font-family="Times,serif" font-size="14.00" fill="#000000">pathology_file</text>
</g>
<!-- pathology_file&#45;&gt;cell_line -->
<g id="edge35" class="edge">
<title>pathology_file&#45;&gt;cell_line</title>
<path fill="none" stroke="#000000" d="M1275.6407,-365.0027C1112.8586,-362.4308 735.6028,-354.0032 609.7878,-330 589.4931,-326.1282 585.5047,-321.1732 565.7878,-315 540.6165,-307.119 512.4017,-298.9927 489.0627,-292.4596"/>
<polygon fill="#000000" stroke="#000000" points="489.9543,-289.0748 479.3819,-289.7627 488.0757,-295.818 489.9543,-289.0748"/>
<text text-anchor="middle" x="670.7878" y="-318.8" font-family="Times,serif" font-size="14.00" fill="#000000">of_pathology_file</text>
</g>
<!-- pathology_file&#45;&gt;pdx -->
<g id="edge34" class="edge">
<title>pathology_file&#45;&gt;pdx</title>
<path fill="none" stroke="#000000" d="M1349.9501,-347.8456C1347.8544,-336.7428 1343.3719,-323.1515 1333.7878,-315 1309.9026,-294.6851 1222.7621,-285.2251 1171.7247,-281.3401"/>
<polygon fill="#000000" stroke="#000000" points="1171.9498,-277.8473 1161.7228,-280.6148 1171.4435,-284.829 1171.9498,-277.8473"/>
<text text-anchor="middle" x="1405.7878" y="-318.8" font-family="Times,serif" font-size="14.00" fill="#000000">of_pathology_file</text>
</g>
<!-- pathology_file&#45;&gt;sample -->
<g id="edge36" class="edge">
<title>pathology_file&#45;&gt;sample</title>
<path fill="none" stroke="#000000" d="M1411.6296,-354.8094C1437.3217,-348.6734 1463.1978,-340.2258 1470.7878,-330 1474.7611,-324.6468 1474.7321,-320.3746 1470.7878,-315 1378.7229,-189.5504 1284.6903,-258.3567 1136.7878,-210 1133.6936,-208.9884 1130.5016,-207.9332 1127.2904,-206.8633"/>
<polygon fill="#000000" stroke="#000000" points="1128.2718,-203.5009 1117.6779,-203.6381 1126.0451,-210.1373 1128.2718,-203.5009"/>
<text text-anchor="middle" x="1516.7878" y="-275.3" font-family="Times,serif" font-size="14.00" fill="#000000">of_pathology_file</text>
</g>
<!-- synonym -->
<g id="node4" class="node">
<title>synonym</title>
<ellipse fill="none" stroke="#000000" cx="2012.7878" cy="-279" rx="51.9908" ry="18"/>
<text text-anchor="middle" x="2012.7878" y="-275.3" font-family="Times,serif" font-size="14.00" fill="#000000">synonym</text>
</g>
<!-- synonym&#45;&gt;study -->
<g id="edge30" class="edge">
<title>synonym&#45;&gt;study</title>
<path fill="none" stroke="#000000" d="M2065.0538,-278.1016C2186.1463,-275.1371 2481.825,-262.5662 2563.7878,-210 2595.3658,-189.7477 2646.2085,-92.5305 2669.8843,-44.6978"/>
<polygon fill="#000000" stroke="#000000" points="2673.1073,-46.0749 2674.3756,-35.5562 2666.8246,-42.9881 2673.1073,-46.0749"/>
<text text-anchor="middle" x="2658.2878" y="-144.8" font-family="Times,serif" font-size="14.00" fill="#000000">of_synonym</text>
</g>
<!-- synonym&#45;&gt;sample -->
<g id="edge28" class="edge">
<title>synonym&#45;&gt;sample</title>
<path fill="none" stroke="#000000" d="M1967.528,-270.0921C1904.9379,-258.1875 1788.2898,-237.4908 1687.7878,-228 1565.8206,-216.4821 1257.3176,-231.9363 1136.7878,-210 1133.0801,-209.3252 1129.2794,-208.4418 1125.4991,-207.4284"/>
<polygon fill="#000000" stroke="#000000" points="1126.2001,-203.9856 1115.6176,-204.4966 1124.2089,-210.6965 1126.2001,-203.9856"/>
<text text-anchor="middle" x="1847.2878" y="-231.8" font-family="Times,serif" font-size="14.00" fill="#000000">of_synonym</text>
</g>
<!-- participant -->
<g id="node22" class="node">
<title>participant</title>
<ellipse fill="none" stroke="#000000" cx="1583.7878" cy="-105" rx="62.2891" ry="18"/>
<text text-anchor="middle" x="1583.7878" y="-101.3" font-family="Times,serif" font-size="14.00" fill="#000000">participant</text>
</g>
<!-- synonym&#45;&gt;participant -->
<g id="edge29" class="edge">
<title>synonym&#45;&gt;participant</title>
<path fill="none" stroke="#000000" d="M2014.3351,-260.8838C2015.7917,-230.8491 2013.7782,-171.0789 1978.7878,-141 1954.9171,-120.48 1763.6281,-110.9072 1656.2606,-107.1119"/>
<polygon fill="#000000" stroke="#000000" points="1656.2555,-103.6098 1646.1406,-106.7625 1656.0138,-110.6056 1656.2555,-103.6098"/>
<text text-anchor="middle" x="2055.2878" y="-188.3" font-family="Times,serif" font-size="14.00" fill="#000000">of_synonym</text>
</g>
<!-- medical_history -->
<g id="node5" class="node">
<title>medical_history</title>
<ellipse fill="none" stroke="#000000" cx="2200.7878" cy="-192" rx="85.2851" ry="18"/>
<text text-anchor="middle" x="2200.7878" y="-188.3" font-family="Times,serif" font-size="14.00" fill="#000000">medical_history</text>
</g>
<!-- medical_history&#45;&gt;participant -->
<g id="edge1" class="edge">
<title>medical_history&#45;&gt;participant</title>
<path fill="none" stroke="#000000" d="M2138.3233,-179.6866C2103.2641,-172.3271 2063.3259,-163.0658 2046.7878,-156 2035.5651,-151.2052 2035.3342,-144.952 2023.7878,-141 1957.8422,-118.429 1763.4988,-109.7584 1656.4937,-106.6296"/>
<polygon fill="#000000" stroke="#000000" points="1656.5136,-103.1289 1646.4183,-106.3439 1656.315,-110.1261 1656.5136,-103.1289"/>
<text text-anchor="middle" x="2114.7878" y="-144.8" font-family="Times,serif" font-size="14.00" fill="#000000">of_medical_history</text>
</g>
<!-- family_relationship -->
<g id="node6" class="node">
<title>family_relationship</title>
<ellipse fill="none" stroke="#000000" cx="793.7878" cy="-192" rx="100.1823" ry="18"/>
<text text-anchor="middle" x="793.7878" y="-188.3" font-family="Times,serif" font-size="14.00" fill="#000000">family_relationship</text>
</g>
<!-- family_relationship&#45;&gt;participant -->
<g id="edge31" class="edge">
<title>family_relationship&#45;&gt;participant</title>
<path fill="none" stroke="#000000" d="M812.2448,-174.1434C825.6543,-162.4019 844.8749,-147.9649 864.7878,-141 924.5812,-120.0861 1340.5909,-109.7194 1511.1224,-106.3108"/>
<polygon fill="#000000" stroke="#000000" points="1511.3321,-109.8075 1521.2611,-106.1106 1511.1939,-102.8088 1511.3321,-109.8075"/>
<text text-anchor="middle" x="944.2878" y="-144.8" font-family="Times,serif" font-size="14.00" fill="#000000">of_family_relationship</text>
</g>
<!-- study_funding -->
<g id="node7" class="node">
<title>study_funding</title>
<ellipse fill="none" stroke="#000000" cx="2735.7878" cy="-105" rx="77.1866" ry="18"/>
<text text-anchor="middle" x="2735.7878" y="-101.3" font-family="Times,serif" font-size="14.00" fill="#000000">study_funding</text>
</g>
<!-- study_funding&#45;&gt;study -->
<g id="edge8" class="edge">
<title>study_funding&#45;&gt;study</title>
<path fill="none" stroke="#000000" d="M2724.8061,-86.9735C2717.245,-74.5619 2707.0814,-57.8782 2698.6442,-44.0284"/>
<polygon fill="#000000" stroke="#000000" points="2701.5853,-42.1289 2693.3937,-35.4097 2695.6073,-45.7707 2701.5853,-42.1289"/>
<text text-anchor="middle" x="2773.7878" y="-57.8" font-family="Times,serif" font-size="14.00" fill="#000000">of_study_funding</text>
</g>
<!-- study_admin -->
<g id="node8" class="node">
<title>study_admin</title>
<ellipse fill="none" stroke="#000000" cx="2901.7878" cy="-105" rx="70.3881" ry="18"/>
<text text-anchor="middle" x="2901.7878" y="-101.3" font-family="Times,serif" font-size="14.00" fill="#000000">study_admin</text>
</g>
<!-- study_admin&#45;&gt;study -->
<g id="edge3" class="edge">
<title>study_admin&#45;&gt;study</title>
<path fill="none" stroke="#000000" d="M2884.9035,-87.3996C2873.2336,-76.233 2856.7988,-62.3621 2839.7878,-54 2804.6875,-36.7458 2761.078,-27.5994 2728.7342,-22.8517"/>
<polygon fill="#000000" stroke="#000000" points="2729.0385,-19.3606 2718.6538,-21.4601 2728.0812,-26.2948 2729.0385,-19.3606"/>
<text text-anchor="middle" x="2918.2878" y="-57.8" font-family="Times,serif" font-size="14.00" fill="#000000">of_study_admin</text>
</g>
<!-- diagnosis -->
<g id="node9" class="node">
<title>diagnosis</title>
<ellipse fill="none" stroke="#000000" cx="966.7878" cy="-192" rx="54.6905" ry="18"/>
<text text-anchor="middle" x="966.7878" y="-188.3" font-family="Times,serif" font-size="14.00" fill="#000000">diagnosis</text>
</g>
<!-- diagnosis&#45;&gt;participant -->
<g id="edge19" class="edge">
<title>diagnosis&#45;&gt;participant</title>
<path fill="none" stroke="#000000" d="M990.8314,-175.5489C1009.5506,-163.6777 1036.6596,-148.4754 1062.7878,-141 1144.9242,-117.5003 1388.4645,-109.0903 1511.2666,-106.2882"/>
<polygon fill="#000000" stroke="#000000" points="1511.411,-109.786 1521.3309,-106.065 1511.2557,-102.7877 1511.411,-109.786"/>
<text text-anchor="middle" x="1107.2878" y="-144.8" font-family="Times,serif" font-size="14.00" fill="#000000">of_diagnosis</text>
</g>
<!-- clinical_measure_file -->
<g id="node10" class="node">
<title>clinical_measure_file</title>
<ellipse fill="none" stroke="#000000" cx="2445.7878" cy="-192" rx="108.5808" ry="18"/>
<text text-anchor="middle" x="2445.7878" y="-188.3" font-family="Times,serif" font-size="14.00" fill="#000000">clinical_measure_file</text>
</g>
<!-- clinical_measure_file&#45;&gt;study -->
<g id="edge32" class="edge">
<title>clinical_measure_file&#45;&gt;study</title>
<path fill="none" stroke="#000000" d="M2457.465,-174.0075C2460.4562,-168.4561 2463.2585,-162.1738 2464.7878,-156 2466.3907,-149.5289 2467.5,-147.09 2464.7878,-141 2459.9225,-130.0757 2449.6531,-133.9243 2444.7878,-123 2438.2784,-108.384 2435.1774,-99.7922 2444.7878,-87 2467.9191,-56.21 2575.0997,-34.7388 2637.4569,-24.6112"/>
<polygon fill="#000000" stroke="#000000" points="2638.1056,-28.0521 2647.4322,-23.0256 2637.0067,-21.1389 2638.1056,-28.0521"/>
<text text-anchor="middle" x="2530.7878" y="-101.3" font-family="Times,serif" font-size="14.00" fill="#000000">of_clinical_measure_file</text>
</g>
<!-- clinical_measure_file&#45;&gt;participant -->
<g id="edge2" class="edge">
<title>clinical_measure_file&#45;&gt;participant</title>
<path fill="none" stroke="#000000" d="M2359.8603,-180.9287C2296.985,-172.5194 2220.2358,-161.4944 2205.7878,-156 2194.3807,-151.6621 2194.3762,-144.827 2182.7878,-141 2134.0011,-124.8886 1804.7294,-112.2312 1656.2071,-107.2712"/>
<polygon fill="#000000" stroke="#000000" points="1655.9426,-103.7606 1645.8322,-106.9274 1655.7107,-110.7568 1655.9426,-103.7606"/>
<text text-anchor="middle" x="2335.2878" y="-144.8" font-family="Times,serif" font-size="14.00" fill="#000000">of_clinical_measure_file_participant</text>
</g>
<!-- study_arm -->
<g id="node11" class="node">
<title>study_arm</title>
<ellipse fill="none" stroke="#000000" cx="3049.7878" cy="-105" rx="59.5901" ry="18"/>
<text text-anchor="middle" x="3049.7878" y="-101.3" font-family="Times,serif" font-size="14.00" fill="#000000">study_arm</text>
</g>
<!-- study_arm&#45;&gt;study -->
<g id="edge12" class="edge">
<title>study_arm&#45;&gt;study</title>
<path fill="none" stroke="#000000" d="M3031.4581,-87.8322C3017.9607,-76.2511 2998.5823,-61.7224 2978.7878,-54 2934.3724,-36.6723 2800.6382,-25.6427 2729.1073,-20.8184"/>
<polygon fill="#000000" stroke="#000000" points="2729.2321,-17.3191 2719.023,-20.1517 2728.7703,-24.3039 2729.2321,-17.3191"/>
<text text-anchor="middle" x="3054.2878" y="-57.8" font-family="Times,serif" font-size="14.00" fill="#000000">of_study_arm</text>
</g>
<!-- publication -->
<g id="node12" class="node">
<title>publication</title>
<ellipse fill="none" stroke="#000000" cx="3190.7878" cy="-105" rx="63.0888" ry="18"/>
<text text-anchor="middle" x="3190.7878" y="-101.3" font-family="Times,serif" font-size="14.00" fill="#000000">publication</text>
</g>
<!-- publication&#45;&gt;study -->
<g id="edge26" class="edge">
<title>publication&#45;&gt;study</title>
<path fill="none" stroke="#000000" d="M3169.01,-87.8858C3152.8179,-76.171 3129.6585,-61.4569 3106.7878,-54 3037.7347,-31.4855 2824.6199,-22.3187 2729.4835,-19.2779"/>
<polygon fill="#000000" stroke="#000000" points="2729.3994,-15.7737 2719.2954,-18.9613 2729.1819,-22.7703 2729.3994,-15.7737"/>
<text text-anchor="middle" x="3188.7878" y="-57.8" font-family="Times,serif" font-size="14.00" fill="#000000">of_publication</text>
</g>
<!-- study_personnel -->
<g id="node13" class="node">
<title>study_personnel</title>
<ellipse fill="none" stroke="#000000" cx="3358.7878" cy="-105" rx="87.1846" ry="18"/>
<text text-anchor="middle" x="3358.7878" y="-101.3" font-family="Times,serif" font-size="14.00" fill="#000000">study_personnel</text>
</g>
<!-- study_personnel&#45;&gt;study -->
<g id="edge25" class="edge">
<title>study_personnel&#45;&gt;study</title>
<path fill="none" stroke="#000000" d="M3328.6019,-88.066C3305.9956,-76.2774 3273.9069,-61.3946 3243.7878,-54 3146.7229,-30.1694 2845.8714,-21.427 2729.4537,-18.8839"/>
<polygon fill="#000000" stroke="#000000" points="2729.4999,-15.3842 2719.4276,-18.6703 2729.3507,-22.3826 2729.4999,-15.3842"/>
<text text-anchor="middle" x="3355.2878" y="-57.8" font-family="Times,serif" font-size="14.00" fill="#000000">of_study_personnel</text>
</g>
<!-- single_cell_sequencing_file -->
<g id="node14" class="node">
<title>single_cell_sequencing_file</title>
<ellipse fill="none" stroke="#000000" cx="137.7878" cy="-366" rx="137.5759" ry="18"/>
<text text-anchor="middle" x="137.7878" y="-362.3" font-family="Times,serif" font-size="14.00" fill="#000000">single_cell_sequencing_file</text>
</g>
<!-- single_cell_sequencing_file&#45;&gt;cell_line -->
<g id="edge14" class="edge">
<title>single_cell_sequencing_file&#45;&gt;cell_line</title>
<path fill="none" stroke="#000000" d="M139.0089,-347.8796C140.7761,-336.6438 144.9666,-322.8928 154.7878,-315 184.5717,-291.0642 287.9039,-301.9813 325.7878,-297 345.0639,-294.4654 366.1051,-291.2662 384.8042,-288.2704"/>
<polygon fill="#000000" stroke="#000000" points="385.6131,-291.6852 394.9255,-286.6325 384.4948,-284.775 385.6131,-291.6852"/>
<text text-anchor="middle" x="263.2878" y="-318.8" font-family="Times,serif" font-size="14.00" fill="#000000">of_single_cell_sequencing_file</text>
</g>
<!-- single_cell_sequencing_file&#45;&gt;pdx -->
<g id="edge13" class="edge">
<title>single_cell_sequencing_file&#45;&gt;pdx</title>
<path fill="none" stroke="#000000" d="M262.6562,-358.3521C319.9655,-354.9621 388.8129,-351.0582 450.7878,-348 499.3254,-345.6049 842.2166,-346.8794 887.7878,-330 897.8768,-326.2631 896.9326,-319.316 906.7878,-315 940.0095,-300.4507 1040.5112,-288.4117 1095.9911,-282.6542"/>
<polygon fill="#000000" stroke="#000000" points="1096.5338,-286.1171 1106.1269,-281.6203 1095.8234,-279.1532 1096.5338,-286.1171"/>
<text text-anchor="middle" x="1015.2878" y="-318.8" font-family="Times,serif" font-size="14.00" fill="#000000">of_single_cell_sequencing_file</text>
</g>
<!-- single_cell_sequencing_file&#45;&gt;sample -->
<g id="edge15" class="edge">
<title>single_cell_sequencing_file&#45;&gt;sample</title>
<path fill="none" stroke="#000000" d="M136.0958,-347.6014C134.9896,-322.9197 137.4201,-279.9979 164.7878,-261 263.5487,-192.443 584.7667,-234.9807 704.7878,-228 849.6525,-219.5743 888.3247,-237.5875 1030.7878,-210 1034.437,-209.2933 1038.1789,-208.396 1041.9043,-207.3808"/>
<polygon fill="#000000" stroke="#000000" points="1043.0731,-210.6845 1051.6524,-204.4679 1041.0689,-203.9775 1043.0731,-210.6845"/>
<text text-anchor="middle" x="273.2878" y="-275.3" font-family="Times,serif" font-size="14.00" fill="#000000">of_single_cell_sequencing_file</text>
</g>
<!-- therapeutic_procedure -->
<g id="node15" class="node">
<title>therapeutic_procedure</title>
<ellipse fill="none" stroke="#000000" cx="1263.7878" cy="-192" rx="117.7793" ry="18"/>
<text text-anchor="middle" x="1263.7878" y="-188.3" font-family="Times,serif" font-size="14.00" fill="#000000">therapeutic_procedure</text>
</g>
<!-- therapeutic_procedure&#45;&gt;participant -->
<g id="edge4" class="edge">
<title>therapeutic_procedure&#45;&gt;participant</title>
<path fill="none" stroke="#000000" d="M1266.8981,-173.8132C1269.8131,-162.5503 1275.3609,-148.7938 1285.7878,-141 1303.6185,-127.672 1430.4112,-116.0974 1512.7635,-109.8735"/>
<polygon fill="#000000" stroke="#000000" points="1513.1131,-113.3572 1522.825,-109.1229 1512.5923,-106.3766 1513.1131,-113.3572"/>
<text text-anchor="middle" x="1378.7878" y="-144.8" font-family="Times,serif" font-size="14.00" fill="#000000">of_therapeutic_procedure</text>
</g>
<!-- cell_line&#45;&gt;study -->
<g id="edge5" class="edge">
<title>cell_line&#45;&gt;study</title>
<path fill="none" stroke="#000000" d="M445.7491,-261.1273C456.591,-231.4514 482.4141,-172.1963 524.7878,-141 650.3976,-48.5238 710.2305,-75.0171 864.7878,-54 1044.6927,-29.5361 2369.388,-19.9688 2636.0846,-18.2806"/>
<polygon fill="#000000" stroke="#000000" points="2636.224,-21.7799 2646.2018,-18.2171 2636.18,-14.78 2636.224,-21.7799"/>
<text text-anchor="middle" x="565.2878" y="-144.8" font-family="Times,serif" font-size="14.00" fill="#000000">of_cell_line</text>
</g>
<!-- cell_line&#45;&gt;participant -->
<g id="edge6" class="edge">
<title>cell_line&#45;&gt;participant</title>
<path fill="none" stroke="#000000" d="M457.2928,-261.9873C490.4226,-231.0644 565.9717,-166.4872 643.7878,-141 725.2036,-114.3338 1304.6831,-107.1957 1511.0433,-105.4884"/>
<polygon fill="#000000" stroke="#000000" points="1511.2,-108.9873 1521.1713,-105.4065 1511.1433,-101.9876 1511.2,-108.9873"/>
<text text-anchor="middle" x="614.2878" y="-188.3" font-family="Times,serif" font-size="14.00" fill="#000000">of_cell_line</text>
</g>
<!-- follow_up -->
<g id="node17" class="node">
<title>follow_up</title>
<ellipse fill="none" stroke="#000000" cx="1454.7878" cy="-192" rx="55.4913" ry="18"/>
<text text-anchor="middle" x="1454.7878" y="-188.3" font-family="Times,serif" font-size="14.00" fill="#000000">follow_up</text>
</g>
<!-- follow_up&#45;&gt;participant -->
<g id="edge9" class="edge">
<title>follow_up&#45;&gt;participant</title>
<path fill="none" stroke="#000000" d="M1463.2571,-173.8539C1469.1035,-163.0362 1477.7997,-149.7504 1488.7878,-141 1499.7792,-132.247 1513.1294,-125.4555 1526.3059,-120.2524"/>
<polygon fill="#000000" stroke="#000000" points="1527.6621,-123.4827 1535.8336,-116.739 1525.2403,-116.915 1527.6621,-123.4827"/>
<text text-anchor="middle" x="1533.7878" y="-144.8" font-family="Times,serif" font-size="14.00" fill="#000000">of_follow_up</text>
</g>
<!-- pdx&#45;&gt;study -->
<g id="edge10" class="edge">
<title>pdx&#45;&gt;study</title>
<path fill="none" stroke="#000000" d="M1106.0342,-276.8134C1012.4083,-269.1599 712.4887,-242.283 684.7878,-210 674.3687,-197.8574 675.3938,-186.952 684.7878,-174 865.388,75.0037 1756.7197,-72.1246 2063.7878,-54 2277.805,-41.3677 2533.4658,-26.602 2636.4444,-20.6678"/>
<polygon fill="#000000" stroke="#000000" points="2636.724,-24.1576 2646.5061,-20.0881 2636.3213,-17.1692 2636.724,-24.1576"/>
<text text-anchor="middle" x="738.7878" y="-144.8" font-family="Times,serif" font-size="14.00" fill="#000000">of_pdx</text>
</g>
<!-- pdx&#45;&gt;sample -->
<g id="edge11" class="edge">
<title>pdx&#45;&gt;sample</title>
<path fill="none" stroke="#000000" d="M1123.9094,-261.8116C1116.8122,-249.4624 1107.1105,-232.5816 1099.0252,-218.513"/>
<polygon fill="#000000" stroke="#000000" points="1102.0064,-216.6761 1093.9889,-209.75 1095.9373,-220.1642 1102.0064,-216.6761"/>
<text text-anchor="middle" x="1135.7878" y="-231.8" font-family="Times,serif" font-size="14.00" fill="#000000">of_pdx</text>
</g>
<!-- methylation_array_file -->
<g id="node19" class="node">
<title>methylation_array_file</title>
<ellipse fill="none" stroke="#000000" cx="575.7878" cy="-366" rx="115.8798" ry="18"/>
<text text-anchor="middle" x="575.7878" y="-362.3" font-family="Times,serif" font-size="14.00" fill="#000000">methylation_array_file</text>
</g>
<!-- methylation_array_file&#45;&gt;cell_line -->
<g id="edge17" class="edge">
<title>methylation_array_file&#45;&gt;cell_line</title>
<path fill="none" stroke="#000000" d="M469.9427,-358.7335C429.9974,-353.5959 391.1729,-344.8535 378.7878,-330 368.4199,-317.5659 380.3546,-305.8206 396.3329,-296.7427"/>
<polygon fill="#000000" stroke="#000000" points="398.242,-299.6955 405.5098,-291.9864 395.0208,-293.4806 398.242,-299.6955"/>
<text text-anchor="middle" x="470.2878" y="-318.8" font-family="Times,serif" font-size="14.00" fill="#000000">of_methylation_array_file</text>
</g>
<!-- methylation_array_file&#45;&gt;pdx -->
<g id="edge16" class="edge">
<title>methylation_array_file&#45;&gt;pdx</title>
<path fill="none" stroke="#000000" d="M689.0362,-362.2871C845.9526,-356.6148 1112.1273,-344.8668 1127.7878,-330 1133.9474,-324.1525 1136.3535,-315.5946 1136.9468,-307.1532"/>
<polygon fill="#000000" stroke="#000000" points="1140.4466,-307.0885 1136.9017,-297.1044 1133.4467,-307.12 1140.4466,-307.0885"/>
<text text-anchor="middle" x="1227.2878" y="-318.8" font-family="Times,serif" font-size="14.00" fill="#000000">of_methylation_array_file</text>
</g>
<!-- methylation_array_file&#45;&gt;sample -->
<g id="edge18" class="edge">
<title>methylation_array_file&#45;&gt;sample</title>
<path fill="none" stroke="#000000" d="M576.3255,-347.6231C577.6228,-336.7185 581.0726,-323.4224 589.7878,-315 734.6679,-174.9874 837.1872,-265.7905 1030.7878,-210 1033.9626,-209.0851 1037.2289,-208.0957 1040.5065,-207.0678"/>
<polygon fill="#000000" stroke="#000000" points="1041.8542,-210.3106 1050.2927,-203.9042 1039.701,-203.6499 1041.8542,-210.3106"/>
<text text-anchor="middle" x="751.2878" y="-275.3" font-family="Times,serif" font-size="14.00" fill="#000000">of_methylation_array_file</text>
</g>
<!-- sample&#45;&gt;participant -->
<g id="edge24" class="edge">
<title>sample&#45;&gt;participant</title>
<path fill="none" stroke="#000000" d="M1109.8102,-177.2521C1132.1433,-165.3404 1165.5739,-149.2487 1196.7878,-141 1254.4607,-125.7592 1417.07,-114.3985 1512.1559,-108.8282"/>
<polygon fill="#000000" stroke="#000000" points="1512.4916,-112.3147 1522.2726,-108.2425 1512.087,-105.3264 1512.4916,-112.3147"/>
<text text-anchor="middle" x="1233.2878" y="-144.8" font-family="Times,serif" font-size="14.00" fill="#000000">of_sample</text>
</g>
<!-- exposure -->
<g id="node21" class="node">
<title>exposure</title>
<ellipse fill="none" stroke="#000000" cx="1581.7878" cy="-192" rx="53.0913" ry="18"/>
<text text-anchor="middle" x="1581.7878" y="-188.3" font-family="Times,serif" font-size="14.00" fill="#000000">exposure</text>
</g>
<!-- exposure&#45;&gt;participant -->
<g id="edge20" class="edge">
<title>exposure&#45;&gt;participant</title>
<path fill="none" stroke="#000000" d="M1582.2022,-173.9735C1582.473,-162.1918 1582.8324,-146.5607 1583.1405,-133.1581"/>
<polygon fill="#000000" stroke="#000000" points="1586.6431,-133.0812 1583.3739,-123.0034 1579.6449,-132.9202 1586.6431,-133.0812"/>
<text text-anchor="middle" x="1627.2878" y="-144.8" font-family="Times,serif" font-size="14.00" fill="#000000">of_exposure</text>
</g>
<!-- participant&#45;&gt;study -->
<g id="edge7" class="edge">
<title>participant&#45;&gt;study</title>
<path fill="none" stroke="#000000" d="M1644.0472,-100.2297C1840.8232,-84.6523 2461.9069,-35.4856 2636.6425,-21.653"/>
<polygon fill="#000000" stroke="#000000" points="2637.0925,-25.1284 2646.785,-20.8501 2636.54,-18.1502 2637.0925,-25.1284"/>
<text text-anchor="middle" x="2250.2878" y="-57.8" font-family="Times,serif" font-size="14.00" fill="#000000">of_participant</text>
</g>
<!-- molecular_test -->
<g id="node23" class="node">
<title>molecular_test</title>
<ellipse fill="none" stroke="#000000" cx="1732.7878" cy="-192" rx="79.8859" ry="18"/>
<text text-anchor="middle" x="1732.7878" y="-188.3" font-family="Times,serif" font-size="14.00" fill="#000000">molecular_test</text>
</g>
<!-- molecular_test&#45;&gt;participant -->
<g id="edge33" class="edge">
<title>molecular_test&#45;&gt;participant</title>
<path fill="none" stroke="#000000" d="M1715.7739,-174.1957C1704.8348,-163.5066 1689.8862,-150.2359 1674.7878,-141 1662.7753,-133.6518 1649.0024,-127.2881 1635.8682,-122.0418"/>
<polygon fill="#000000" stroke="#000000" points="1637.0416,-118.7432 1626.4517,-118.421 1634.5293,-125.2768 1637.0416,-118.7432"/>
<text text-anchor="middle" x="1759.7878" y="-144.8" font-family="Times,serif" font-size="14.00" fill="#000000">of_molecular_test</text>
</g>
<!-- radiology_file -->
<g id="node24" class="node">
<title>radiology_file</title>
<ellipse fill="none" stroke="#000000" cx="1903.7878" cy="-192" rx="73.387" ry="18"/>
<text text-anchor="middle" x="1903.7878" y="-188.3" font-family="Times,serif" font-size="14.00" fill="#000000">radiology_file</text>
</g>
<!-- radiology_file&#45;&gt;participant -->
<g id="edge27" class="edge">
<title>radiology_file&#45;&gt;participant</title>
<path fill="none" stroke="#000000" d="M1883.269,-174.5202C1868.7285,-163.1066 1848.2418,-148.9041 1827.7878,-141 1796.8271,-129.0357 1713.8808,-118.3597 1653.2675,-111.7994"/>
<polygon fill="#000000" stroke="#000000" points="1653.3013,-108.2832 1642.9864,-110.7027 1652.5587,-115.2438 1653.3013,-108.2832"/>
<text text-anchor="middle" x="1915.7878" y="-144.8" font-family="Times,serif" font-size="14.00" fill="#000000">of_radiology_file</text>
</g>
</g>
</svg>
