<svg width="3350pt" height="392pt"
 viewBox="0.00 0.00 3349.64 392.00" xmlns="http://www.w3.org/2000/svg" xmlns:xlink="http://www.w3.org/1999/xlink">
<g id="graph0" class="graph" transform="scale(1 1) rotate(0) translate(4 388)">
<title>Perl</title>
<polygon fill="#ffffff" stroke="transparent" points="-4,4 -4,-388 3345.6396,-388 3345.6396,4 -4,4"/>
<!-- medical_history -->
<g id="node1" class="node">
<title>medical_history</title>
<ellipse fill="none" stroke="#000000" cx="971.6396" cy="-192" rx="85.2851" ry="18"/>
<text text-anchor="middle" x="971.6396" y="-188.3" font-family="Times,serif" font-size="14.00" fill="#000000">medical_history</text>
</g>
<!-- participant -->
<g id="node9" class="node">
<title>participant</title>
<ellipse fill="none" stroke="#000000" cx="1242.6396" cy="-105" rx="62.2891" ry="18"/>
<text text-anchor="middle" x="1242.6396" y="-101.3" font-family="Times,serif" font-size="14.00" fill="#000000">participant</text>
</g>
<!-- medical_history&#45;&gt;participant -->
<g id="edge36" class="edge">
<title>medical_history&#45;&gt;participant</title>
<path fill="none" stroke="#000000" d="M975.3581,-173.9592C978.6859,-162.6067 984.7807,-148.694 995.6396,-141 1027.7185,-118.2707 1132.9256,-129.8491 1171.6396,-123 1176.752,-122.0955 1182.0397,-121.0217 1187.3166,-119.8556"/>
<polygon fill="#000000" stroke="#000000" points="1188.45,-123.1858 1197.4023,-117.5195 1186.8705,-116.3663 1188.45,-123.1858"/>
<text text-anchor="middle" x="1063.6396" y="-144.8" font-family="Times,serif" font-size="14.00" fill="#000000">of_medical_history</text>
</g>
<!-- follow_up -->
<g id="node2" class="node">
<title>follow_up</title>
<ellipse fill="none" stroke="#000000" cx="1129.6396" cy="-192" rx="55.4913" ry="18"/>
<text text-anchor="middle" x="1129.6396" y="-188.3" font-family="Times,serif" font-size="14.00" fill="#000000">follow_up</text>
</g>
<!-- follow_up&#45;&gt;participant -->
<g id="edge39" class="edge">
<title>follow_up&#45;&gt;participant</title>
<path fill="none" stroke="#000000" d="M1131.3268,-173.9459C1133.2131,-163.1629 1137.2034,-149.8811 1145.6396,-141 1152.1184,-134.1794 1169.5338,-126.9136 1187.8517,-120.7087"/>
<polygon fill="#000000" stroke="#000000" points="1189.0419,-124.0019 1197.4599,-117.5686 1186.8673,-117.3482 1189.0419,-124.0019"/>
<text text-anchor="middle" x="1190.6396" y="-144.8" font-family="Times,serif" font-size="14.00" fill="#000000">of_follow_up</text>
</g>
<!-- molecular_test -->
<g id="node3" class="node">
<title>molecular_test</title>
<ellipse fill="none" stroke="#000000" cx="1282.6396" cy="-192" rx="79.8859" ry="18"/>
<text text-anchor="middle" x="1282.6396" y="-188.3" font-family="Times,serif" font-size="14.00" fill="#000000">molecular_test</text>
</g>
<!-- molecular_test&#45;&gt;participant -->
<g id="edge38" class="edge">
<title>molecular_test&#45;&gt;participant</title>
<path fill="none" stroke="#000000" d="M1257.7789,-174.6447C1252.1032,-169.3623 1246.8133,-163.0596 1243.6396,-156 1240.494,-149.0031 1239.3628,-140.902 1239.2428,-133.2449"/>
<polygon fill="#000000" stroke="#000000" points="1242.7413,-133.3463 1239.6117,-123.2243 1235.746,-133.0887 1242.7413,-133.3463"/>
<text text-anchor="middle" x="1307.6396" y="-144.8" font-family="Times,serif" font-size="14.00" fill="#000000">of_molecular_test</text>
</g>
<!-- study_funding -->
<g id="node4" class="node">
<title>study_funding</title>
<ellipse fill="none" stroke="#000000" cx="893.6396" cy="-105" rx="77.1866" ry="18"/>
<text text-anchor="middle" x="893.6396" y="-101.3" font-family="Times,serif" font-size="14.00" fill="#000000">study_funding</text>
</g>
<!-- study -->
<g id="node20" class="node">
<title>study</title>
<ellipse fill="none" stroke="#000000" cx="1879.6396" cy="-18" rx="36.2938" ry="18"/>
<text text-anchor="middle" x="1879.6396" y="-14.3" font-family="Times,serif" font-size="14.00" fill="#000000">study</text>
</g>
<!-- study_funding&#45;&gt;study -->
<g id="edge18" class="edge">
<title>study_funding&#45;&gt;study</title>
<path fill="none" stroke="#000000" d="M941.0379,-90.5851C982.8641,-78.5391 1045.7044,-62.0733 1101.6396,-54 1243.9499,-33.4598 1686.7674,-22.2015 1832.5659,-18.9793"/>
<polygon fill="#000000" stroke="#000000" points="1833.0232,-22.4702 1842.9443,-18.7524 1832.8702,-15.4719 1833.0232,-22.4702"/>
<text text-anchor="middle" x="1163.6396" y="-57.8" font-family="Times,serif" font-size="14.00" fill="#000000">of_study_funding</text>
</g>
<!-- cytogenomic_file -->
<g id="node5" class="node">
<title>cytogenomic_file</title>
<ellipse fill="none" stroke="#000000" cx="3128.6396" cy="-366" rx="89.8845" ry="18"/>
<text text-anchor="middle" x="3128.6396" y="-362.3" font-family="Times,serif" font-size="14.00" fill="#000000">cytogenomic_file</text>
</g>
<!-- sample -->
<g id="node11" class="node">
<title>sample</title>
<ellipse fill="none" stroke="#000000" cx="2374.6396" cy="-192" rx="44.393" ry="18"/>
<text text-anchor="middle" x="2374.6396" y="-188.3" font-family="Times,serif" font-size="14.00" fill="#000000">sample</text>
</g>
<!-- cytogenomic_file&#45;&gt;sample -->
<g id="edge13" class="edge">
<title>cytogenomic_file&#45;&gt;sample</title>
<path fill="none" stroke="#000000" d="M3114.1655,-348.1021C3093.9854,-324.3999 3055.0679,-283.0336 3012.6396,-261 2911.4595,-208.4558 2564.2695,-195.8251 2429.1034,-192.8723"/>
<polygon fill="#000000" stroke="#000000" points="2429.0502,-189.3706 2418.9792,-192.6607 2428.9038,-196.369 2429.0502,-189.3706"/>
<text text-anchor="middle" x="3134.1396" y="-275.3" font-family="Times,serif" font-size="14.00" fill="#000000">of_cytogenomic_file</text>
</g>
<!-- cell_line -->
<g id="node15" class="node">
<title>cell_line</title>
<ellipse fill="none" stroke="#000000" cx="2658.6396" cy="-279" rx="49.2915" ry="18"/>
<text text-anchor="middle" x="2658.6396" y="-275.3" font-family="Times,serif" font-size="14.00" fill="#000000">cell_line</text>
</g>
<!-- cytogenomic_file&#45;&gt;cell_line -->
<g id="edge12" class="edge">
<title>cytogenomic_file&#45;&gt;cell_line</title>
<path fill="none" stroke="#000000" d="M3062.652,-353.7322C3051.6374,-351.762 3040.3223,-349.7856 3029.6396,-348 2977.3143,-339.2541 2963.879,-339.2442 2911.6396,-330 2842.148,-317.7029 2762.3997,-301.2328 2711.3188,-290.3791"/>
<polygon fill="#000000" stroke="#000000" points="2712.0063,-286.9471 2701.4964,-288.2861 2710.5474,-293.7934 2712.0063,-286.9471"/>
<text text-anchor="middle" x="2983.1396" y="-318.8" font-family="Times,serif" font-size="14.00" fill="#000000">of_cytogenomic_file</text>
</g>
<!-- pdx -->
<g id="node18" class="node">
<title>pdx</title>
<ellipse fill="none" stroke="#000000" cx="2415.6396" cy="-105" rx="27.8951" ry="18"/>
<text text-anchor="middle" x="2415.6396" y="-101.3" font-family="Times,serif" font-size="14.00" fill="#000000">pdx</text>
</g>
<!-- cytogenomic_file&#45;&gt;pdx -->
<g id="edge11" class="edge">
<title>cytogenomic_file&#45;&gt;pdx</title>
<path fill="none" stroke="#000000" d="M3159.6341,-348.9683C3177.8785,-337.0584 3199.339,-319.3057 3209.6396,-297 3216.3475,-282.474 3215.7625,-275.7821 3209.6396,-261 3182.8647,-196.3598 3075.6646,-157.9046 3016.6396,-141 2962.8147,-125.5847 2578.109,-110.7561 2454.0762,-106.3299"/>
<polygon fill="#000000" stroke="#000000" points="2454.0278,-102.826 2443.9101,-105.9696 2453.7798,-109.8217 2454.0278,-102.826"/>
<text text-anchor="middle" x="3270.1396" y="-231.8" font-family="Times,serif" font-size="14.00" fill="#000000">of_cytogenomic_file</text>
</g>
<!-- methylation_array_file -->
<g id="node6" class="node">
<title>methylation_array_file</title>
<ellipse fill="none" stroke="#000000" cx="2154.6396" cy="-366" rx="115.8798" ry="18"/>
<text text-anchor="middle" x="2154.6396" y="-362.3" font-family="Times,serif" font-size="14.00" fill="#000000">methylation_array_file</text>
</g>
<!-- methylation_array_file&#45;&gt;sample -->
<g id="edge2" class="edge">
<title>methylation_array_file&#45;&gt;sample</title>
<path fill="none" stroke="#000000" d="M2148.8636,-347.6423C2142.9401,-324.9336 2136.9759,-286.196 2155.6396,-261 2160.9465,-253.8356 2265.8192,-222.9788 2328.4848,-205.0484"/>
<polygon fill="#000000" stroke="#000000" points="2329.5029,-208.3977 2338.1582,-202.2873 2327.5816,-201.6665 2329.5029,-208.3977"/>
<text text-anchor="middle" x="2247.1396" y="-275.3" font-family="Times,serif" font-size="14.00" fill="#000000">of_methylation_array_file</text>
</g>
<!-- methylation_array_file&#45;&gt;cell_line -->
<g id="edge3" class="edge">
<title>methylation_array_file&#45;&gt;cell_line</title>
<path fill="none" stroke="#000000" d="M2173.3988,-348.1343C2187.0165,-336.3886 2206.5136,-321.9503 2226.6396,-315 2304.24,-288.2013 2514.6372,-310.3649 2595.6396,-297 2600.9707,-296.1204 2606.4924,-294.9475 2611.9505,-293.6205"/>
<polygon fill="#000000" stroke="#000000" points="2612.8554,-297.0016 2621.6513,-291.0953 2611.092,-290.2273 2612.8554,-297.0016"/>
<text text-anchor="middle" x="2318.1396" y="-318.8" font-family="Times,serif" font-size="14.00" fill="#000000">of_methylation_array_file</text>
</g>
<!-- methylation_array_file&#45;&gt;pdx -->
<g id="edge4" class="edge">
<title>methylation_array_file&#45;&gt;pdx</title>
<path fill="none" stroke="#000000" d="M2077.9602,-352.5159C2019.4665,-338.1461 1952.5346,-310.4516 1975.6396,-261 2029.1714,-146.4258 2109.7781,-166.5192 2233.6396,-141 2283.7429,-130.6772 2341.7291,-119.3067 2378.5325,-112.1616"/>
<polygon fill="#000000" stroke="#000000" points="2379.6331,-115.5135 2388.7842,-110.1743 2378.3008,-108.6415 2379.6331,-115.5135"/>
<text text-anchor="middle" x="2085.1396" y="-231.8" font-family="Times,serif" font-size="14.00" fill="#000000">of_methylation_array_file</text>
</g>
<!-- study_personnel -->
<g id="node7" class="node">
<title>study_personnel</title>
<ellipse fill="none" stroke="#000000" cx="1075.6396" cy="-105" rx="87.1846" ry="18"/>
<text text-anchor="middle" x="1075.6396" y="-101.3" font-family="Times,serif" font-size="14.00" fill="#000000">study_personnel</text>
</g>
<!-- study_personnel&#45;&gt;study -->
<g id="edge35" class="edge">
<title>study_personnel&#45;&gt;study</title>
<path fill="none" stroke="#000000" d="M1130.9915,-90.9637C1179.7867,-79.1604 1252.9769,-62.838 1317.6396,-54 1507.6036,-28.036 1736.3156,-20.7255 1832.9389,-18.726"/>
<polygon fill="#000000" stroke="#000000" points="1833.0377,-22.2248 1842.9666,-18.5279 1832.8994,-15.2262 1833.0377,-22.2248"/>
<text text-anchor="middle" x="1387.1396" y="-57.8" font-family="Times,serif" font-size="14.00" fill="#000000">of_study_personnel</text>
</g>
<!-- diagnosis -->
<g id="node8" class="node">
<title>diagnosis</title>
<ellipse fill="none" stroke="#000000" cx="1435.6396" cy="-192" rx="54.6905" ry="18"/>
<text text-anchor="middle" x="1435.6396" y="-188.3" font-family="Times,serif" font-size="14.00" fill="#000000">diagnosis</text>
</g>
<!-- diagnosis&#45;&gt;participant -->
<g id="edge23" class="edge">
<title>diagnosis&#45;&gt;participant</title>
<path fill="none" stroke="#000000" d="M1416.0771,-174.9827C1400.9291,-162.0828 1381.0012,-145.7848 1371.6396,-141 1351.0819,-130.4929 1327.0648,-122.7207 1305.3646,-117.1425"/>
<polygon fill="#000000" stroke="#000000" points="1306.1249,-113.7252 1295.578,-114.732 1304.4507,-120.5221 1306.1249,-113.7252"/>
<text text-anchor="middle" x="1436.1396" y="-144.8" font-family="Times,serif" font-size="14.00" fill="#000000">of_diagnosis</text>
</g>
<!-- participant&#45;&gt;study -->
<g id="edge14" class="edge">
<title>participant&#45;&gt;study</title>
<path fill="none" stroke="#000000" d="M1295.8542,-95.5236C1358.2115,-84.6128 1464.7129,-66.5802 1556.6396,-54 1655.1351,-40.5208 1771.0522,-28.543 1833.7543,-22.3848"/>
<polygon fill="#000000" stroke="#000000" points="1834.107,-25.8671 1843.7193,-21.4112 1833.4263,-18.9003 1834.107,-25.8671"/>
<text text-anchor="middle" x="1607.1396" y="-57.8" font-family="Times,serif" font-size="14.00" fill="#000000">of_participant</text>
</g>
<!-- sequencing_file -->
<g id="node10" class="node">
<title>sequencing_file</title>
<ellipse fill="none" stroke="#000000" cx="2937.6396" cy="-366" rx="83.3857" ry="18"/>
<text text-anchor="middle" x="2937.6396" y="-362.3" font-family="Times,serif" font-size="14.00" fill="#000000">sequencing_file</text>
</g>
<!-- sequencing_file&#45;&gt;sample -->
<g id="edge15" class="edge">
<title>sequencing_file&#45;&gt;sample</title>
<path fill="none" stroke="#000000" d="M2968.0384,-349.2341C2982.0047,-339.3955 2993.5047,-326.6455 2983.6396,-315 2952.1856,-277.8698 2913.6235,-327.4174 2875.6396,-297 2849.8064,-276.3129 2874.3692,-247.5149 2847.6396,-228 2814.5091,-203.8119 2546.4502,-195.4682 2429.2051,-192.9573"/>
<polygon fill="#000000" stroke="#000000" points="2429.0826,-189.4541 2419.012,-192.7456 2428.9372,-196.4526 2429.0826,-189.4541"/>
<text text-anchor="middle" x="2942.1396" y="-275.3" font-family="Times,serif" font-size="14.00" fill="#000000">of_sequencing_file</text>
</g>
<!-- sequencing_file&#45;&gt;cell_line -->
<g id="edge17" class="edge">
<title>sequencing_file&#45;&gt;cell_line</title>
<path fill="none" stroke="#000000" d="M2857.6825,-360.913C2780.2939,-355.1621 2672.7752,-344.6541 2659.6396,-330 2654.1534,-323.8796 2652.5137,-315.4936 2652.6527,-307.2892"/>
<polygon fill="#000000" stroke="#000000" points="2656.1516,-307.4672 2653.6242,-297.1783 2649.1837,-306.7977 2656.1516,-307.4672"/>
<text text-anchor="middle" x="2726.1396" y="-318.8" font-family="Times,serif" font-size="14.00" fill="#000000">of_sequencing_file</text>
</g>
<!-- sequencing_file&#45;&gt;pdx -->
<g id="edge16" class="edge">
<title>sequencing_file&#45;&gt;pdx</title>
<path fill="none" stroke="#000000" d="M2974.922,-349.8945C2983.705,-344.6316 2992.334,-338.0258 2998.6396,-330 3050.5374,-263.9439 3057.1514,-199.2675 2996.6396,-141 2977.0764,-122.1624 2580.6302,-109.5753 2454.0966,-106.0256"/>
<polygon fill="#000000" stroke="#000000" points="2453.8299,-102.5169 2443.7367,-105.7383 2453.6358,-109.5142 2453.8299,-102.5169"/>
<text text-anchor="middle" x="3106.1396" y="-231.8" font-family="Times,serif" font-size="14.00" fill="#000000">of_sequencing_file</text>
</g>
<!-- sample&#45;&gt;participant -->
<g id="edge30" class="edge">
<title>sample&#45;&gt;participant</title>
<path fill="none" stroke="#000000" d="M2342.5554,-179.4252C2305.5025,-165.0032 2248.2582,-143.0671 2237.6396,-141 2098.2008,-113.8555 1740.586,-128.5871 1598.6396,-123 1500.0657,-119.1201 1386.2158,-113.0927 1314.3366,-109.0967"/>
<polygon fill="#000000" stroke="#000000" points="1314.2223,-105.585 1304.0429,-108.5224 1313.8323,-112.5741 1314.2223,-105.585"/>
<text text-anchor="middle" x="2314.1396" y="-144.8" font-family="Times,serif" font-size="14.00" fill="#000000">of_sample</text>
</g>
<!-- sample&#45;&gt;cell_line -->
<g id="edge31" class="edge">
<title>sample&#45;&gt;cell_line</title>
<path fill="none" stroke="#000000" d="M2413.3171,-200.8737C2439.2475,-207.2879 2473.9514,-216.7777 2503.6396,-228 2517.9568,-233.412 2520.3507,-237.5136 2534.6396,-243 2538.3733,-244.4336 2576.4913,-255.4599 2609.4904,-264.9362"/>
<polygon fill="#000000" stroke="#000000" points="2608.946,-268.4212 2619.5235,-267.8151 2610.8767,-261.6927 2608.946,-268.4212"/>
<text text-anchor="middle" x="2571.1396" y="-231.8" font-family="Times,serif" font-size="14.00" fill="#000000">of_sample</text>
</g>
<!-- sample&#45;&gt;pdx -->
<g id="edge29" class="edge">
<title>sample&#45;&gt;pdx</title>
<path fill="none" stroke="#000000" d="M2365.6546,-174.1907C2361.8262,-164.0043 2359.3262,-151.2543 2364.6396,-141 2368.8684,-132.8387 2375.8929,-126.1337 2383.3966,-120.8159"/>
<polygon fill="#000000" stroke="#000000" points="2385.6972,-123.5028 2392.2865,-115.2063 2381.9616,-117.5828 2385.6972,-123.5028"/>
<text text-anchor="middle" x="2401.1396" y="-144.8" font-family="Times,serif" font-size="14.00" fill="#000000">of_sample</text>
</g>
<!-- exposure -->
<g id="node12" class="node">
<title>exposure</title>
<ellipse fill="none" stroke="#000000" cx="694.6396" cy="-192" rx="53.0913" ry="18"/>
<text text-anchor="middle" x="694.6396" y="-188.3" font-family="Times,serif" font-size="14.00" fill="#000000">exposure</text>
</g>
<!-- exposure&#45;&gt;participant -->
<g id="edge21" class="edge">
<title>exposure&#45;&gt;participant</title>
<path fill="none" stroke="#000000" d="M689.4395,-174.0606C687.4408,-163.0435 687.3251,-149.4671 695.6396,-141 714.181,-122.1182 1145.4465,-126.7725 1171.6396,-123 1177.0675,-122.2182 1182.6815,-121.1891 1188.2648,-120.018"/>
<polygon fill="#000000" stroke="#000000" points="1189.2445,-123.3853 1198.2349,-117.7797 1187.7111,-116.5553 1189.2445,-123.3853"/>
<text text-anchor="middle" x="739.1396" y="-144.8" font-family="Times,serif" font-size="14.00" fill="#000000">of_exposure</text>
</g>
<!-- pathology_file -->
<g id="node13" class="node">
<title>pathology_file</title>
<ellipse fill="none" stroke="#000000" cx="1944.6396" cy="-366" rx="76.0865" ry="18"/>
<text text-anchor="middle" x="1944.6396" y="-362.3" font-family="Times,serif" font-size="14.00" fill="#000000">pathology_file</text>
</g>
<!-- pathology_file&#45;&gt;sample -->
<g id="edge5" class="edge">
<title>pathology_file&#45;&gt;sample</title>
<path fill="none" stroke="#000000" d="M1951.4797,-348.066C1961.702,-323.9234 1983.3945,-281.624 2016.6396,-261 2065.0834,-230.9472 2087.8076,-254.5226 2143.6396,-243 2168.4538,-237.8788 2173.8815,-233.3865 2198.6396,-228 2247.0463,-217.4684 2260.2328,-220.5316 2308.6396,-210 2315.1893,-208.575 2322.0589,-206.9035 2328.789,-205.1634"/>
<polygon fill="#000000" stroke="#000000" points="2329.7294,-208.5351 2338.496,-202.5856 2327.9327,-201.7695 2329.7294,-208.5351"/>
<text text-anchor="middle" x="2077.6396" y="-275.3" font-family="Times,serif" font-size="14.00" fill="#000000">of_pathology_file</text>
</g>
<!-- pathology_file&#45;&gt;cell_line -->
<g id="edge6" class="edge">
<title>pathology_file&#45;&gt;cell_line</title>
<path fill="none" stroke="#000000" d="M1976.8182,-349.5667C2002.1369,-337.5372 2038.6927,-322.1213 2072.6396,-315 2186.4532,-291.1242 2480.767,-315.1083 2595.6396,-297 2601.0471,-296.1476 2606.6479,-294.9795 2612.1782,-293.6446"/>
<polygon fill="#000000" stroke="#000000" points="2613.2007,-296.9953 2621.9998,-291.0938 2611.441,-290.2201 2613.2007,-296.9953"/>
<text text-anchor="middle" x="2133.6396" y="-318.8" font-family="Times,serif" font-size="14.00" fill="#000000">of_pathology_file</text>
</g>
<!-- pathology_file&#45;&gt;pdx -->
<g id="edge7" class="edge">
<title>pathology_file&#45;&gt;pdx</title>
<path fill="none" stroke="#000000" d="M1883.0358,-355.3223C1794.5306,-337.3557 1647.854,-296.2027 1703.6396,-228 1704.604,-226.8209 2132.1365,-141.2477 2133.6396,-141 2220.613,-126.6695 2323.4822,-114.813 2377.7392,-108.9531"/>
<polygon fill="#000000" stroke="#000000" points="2378.3531,-112.4074 2387.9234,-107.8621 2377.6074,-105.4473 2378.3531,-112.4074"/>
<text text-anchor="middle" x="1764.6396" y="-231.8" font-family="Times,serif" font-size="14.00" fill="#000000">of_pathology_file</text>
</g>
<!-- study_arm -->
<g id="node14" class="node">
<title>study_arm</title>
<ellipse fill="none" stroke="#000000" cx="1667.6396" cy="-105" rx="59.5901" ry="18"/>
<text text-anchor="middle" x="1667.6396" y="-101.3" font-family="Times,serif" font-size="14.00" fill="#000000">study_arm</text>
</g>
<!-- study_arm&#45;&gt;study -->
<g id="edge24" class="edge">
<title>study_arm&#45;&gt;study</title>
<path fill="none" stroke="#000000" d="M1662.7485,-86.9309C1660.986,-76.1421 1661.0135,-62.8597 1668.6396,-54 1679.3026,-41.612 1774.9678,-29.248 1833.763,-22.7261"/>
<polygon fill="#000000" stroke="#000000" points="1834.3675,-26.181 1843.9283,-21.6158 1833.6074,-19.2223 1834.3675,-26.181"/>
<text text-anchor="middle" x="1717.1396" y="-57.8" font-family="Times,serif" font-size="14.00" fill="#000000">of_study_arm</text>
</g>
<!-- cell_line&#45;&gt;participant -->
<g id="edge40" class="edge">
<title>cell_line&#45;&gt;participant</title>
<path fill="none" stroke="#000000" d="M2619.081,-268.1203C2608.301,-265.4644 2596.5784,-262.8564 2585.6396,-261 2502.0127,-246.8081 2479.5218,-255.5948 2395.6396,-243 2173.9379,-209.7117 2123.9609,-169.8611 1901.6396,-141 1872.9459,-137.2751 1479.1503,-117.0103 1314.3559,-108.63"/>
<polygon fill="#000000" stroke="#000000" points="1314.4763,-105.1317 1304.3115,-108.1195 1314.1209,-112.1226 1314.4763,-105.1317"/>
<text text-anchor="middle" x="2263.1396" y="-188.3" font-family="Times,serif" font-size="14.00" fill="#000000">of_cell_line</text>
</g>
<!-- cell_line&#45;&gt;sample -->
<g id="edge41" class="edge">
<title>cell_line&#45;&gt;sample</title>
<path fill="none" stroke="#000000" d="M2621.2577,-267.1437C2612.8941,-264.8212 2604.0177,-262.6097 2595.6396,-261 2517.9875,-246.0802 2488.771,-279.5244 2418.6396,-243 2407.5694,-237.2347 2398.0816,-227.4114 2390.7811,-217.9162"/>
<polygon fill="#000000" stroke="#000000" points="2393.6123,-215.8582 2384.9438,-209.7666 2387.9215,-219.9344 2393.6123,-215.8582"/>
<text text-anchor="middle" x="2459.1396" y="-231.8" font-family="Times,serif" font-size="14.00" fill="#000000">of_cell_line</text>
</g>
<!-- cell_line&#45;&gt;study -->
<g id="edge42" class="edge">
<title>cell_line&#45;&gt;study</title>
<path fill="none" stroke="#000000" d="M2706.8972,-275.0759C2773.1093,-269.1956 2885.3734,-257.2522 2897.6396,-243 2901.9884,-237.9471 2901.5778,-233.3791 2897.6396,-228 2780.1254,-67.4931 2109.9851,-27.6931 1926.2328,-19.7372"/>
<polygon fill="#000000" stroke="#000000" points="1926.2277,-16.234 1916.089,-19.3092 1925.9325,-23.2278 1926.2277,-16.234"/>
<text text-anchor="middle" x="2828.1396" y="-144.8" font-family="Times,serif" font-size="14.00" fill="#000000">of_cell_line</text>
</g>
<!-- synonym -->
<g id="node16" class="node">
<title>synonym</title>
<ellipse fill="none" stroke="#000000" cx="1626.6396" cy="-279" rx="51.9908" ry="18"/>
<text text-anchor="middle" x="1626.6396" y="-275.3" font-family="Times,serif" font-size="14.00" fill="#000000">synonym</text>
</g>
<!-- synonym&#45;&gt;participant -->
<g id="edge26" class="edge">
<title>synonym&#45;&gt;participant</title>
<path fill="none" stroke="#000000" d="M1574.6042,-278.6892C1400.4051,-277.1148 845.6561,-267.584 792.6396,-210 781.8023,-198.2291 782.3615,-186.2622 792.6396,-174 847.23,-108.8716 1087.8925,-137.4312 1171.6396,-123 1176.756,-122.1183 1182.0464,-121.0601 1187.325,-119.9039"/>
<polygon fill="#000000" stroke="#000000" points="1188.4536,-123.2357 1197.413,-117.5807 1186.8826,-116.4143 1188.4536,-123.2357"/>
<text text-anchor="middle" x="835.1396" y="-188.3" font-family="Times,serif" font-size="14.00" fill="#000000">of_synonym</text>
</g>
<!-- synonym&#45;&gt;sample -->
<g id="edge27" class="edge">
<title>synonym&#45;&gt;sample</title>
<path fill="none" stroke="#000000" d="M1677.818,-275.6307C1719.8223,-271.5349 1780.2141,-262.5528 1829.6396,-243 1840.9878,-238.5106 1841.0123,-231.7076 1852.6396,-228 1949.2587,-197.1911 2208.4097,-225.4408 2308.6396,-210 2315.501,-208.943 2322.67,-207.4302 2329.6484,-205.7249"/>
<polygon fill="#000000" stroke="#000000" points="2330.8795,-209.0214 2339.6782,-203.1194 2329.1194,-202.2462 2330.8795,-209.0214"/>
<text text-anchor="middle" x="1895.1396" y="-231.8" font-family="Times,serif" font-size="14.00" fill="#000000">of_synonym</text>
</g>
<!-- synonym&#45;&gt;study -->
<g id="edge28" class="edge">
<title>synonym&#45;&gt;study</title>
<path fill="none" stroke="#000000" d="M1643.2198,-261.4307C1654.6881,-250.2772 1670.8549,-236.4093 1687.6396,-228 1718.6746,-212.4512 1734.7599,-229.2589 1763.6396,-210 1795.1479,-188.9881 1780.9788,-160.1715 1813.6396,-141 1842.9732,-123.7815 1943.0466,-148.4263 1965.6396,-123 1991.7165,-93.6528 1947.423,-58.0302 1913.3113,-36.7312"/>
<polygon fill="#000000" stroke="#000000" points="1914.8353,-33.5625 1904.4679,-31.3791 1911.2109,-39.5512 1914.8353,-33.5625"/>
<text text-anchor="middle" x="1856.1396" y="-144.8" font-family="Times,serif" font-size="14.00" fill="#000000">of_synonym</text>
</g>
<!-- clinical_measure_file -->
<g id="node17" class="node">
<title>clinical_measure_file</title>
<ellipse fill="none" stroke="#000000" cx="1645.6396" cy="-192" rx="108.5808" ry="18"/>
<text text-anchor="middle" x="1645.6396" y="-188.3" font-family="Times,serif" font-size="14.00" fill="#000000">clinical_measure_file</text>
</g>
<!-- clinical_measure_file&#45;&gt;participant -->
<g id="edge1" class="edge">
<title>clinical_measure_file&#45;&gt;participant</title>
<path fill="none" stroke="#000000" d="M1574.4964,-178.2755C1552.252,-172.7506 1527.9627,-165.4116 1506.6396,-156 1495.4747,-151.0721 1495.0479,-145.3345 1483.6396,-141 1453.0784,-129.3887 1371.5732,-118.6756 1311.7781,-112.0086"/>
<polygon fill="#000000" stroke="#000000" points="1311.9552,-108.5071 1301.6325,-110.8928 1311.1899,-115.4651 1311.9552,-108.5071"/>
<text text-anchor="middle" x="1636.1396" y="-144.8" font-family="Times,serif" font-size="14.00" fill="#000000">of_clinical_measure_file_participant</text>
</g>
<!-- clinical_measure_file&#45;&gt;study -->
<g id="edge19" class="edge">
<title>clinical_measure_file&#45;&gt;study</title>
<path fill="none" stroke="#000000" d="M1711.5266,-177.5701C1734.6579,-171.4066 1757.0336,-163.8325 1765.6396,-156 1790.1156,-133.7238 1773.8733,-113.5444 1793.6396,-87 1808.2787,-67.3409 1829.7891,-50.0854 1847.6345,-37.7475"/>
<polygon fill="#000000" stroke="#000000" points="1849.7014,-40.5755 1856.0544,-32.0967 1845.8005,-34.7632 1849.7014,-40.5755"/>
<text text-anchor="middle" x="1879.6396" y="-101.3" font-family="Times,serif" font-size="14.00" fill="#000000">of_clinical_measure_file</text>
</g>
<!-- pdx&#45;&gt;sample -->
<g id="edge9" class="edge">
<title>pdx&#45;&gt;sample</title>
<path fill="none" stroke="#000000" d="M2431.6052,-120.0148C2440.5725,-130.3282 2448.6777,-144.2286 2441.6396,-156 2436.4049,-164.7551 2428.2286,-171.5044 2419.3626,-176.6613"/>
<polygon fill="#000000" stroke="#000000" points="2417.638,-173.6125 2410.3501,-181.3026 2420.8429,-179.8358 2417.638,-173.6125"/>
<text text-anchor="middle" x="2467.6396" y="-144.8" font-family="Times,serif" font-size="14.00" fill="#000000">of_pdx</text>
</g>
<!-- pdx&#45;&gt;study -->
<g id="edge10" class="edge">
<title>pdx&#45;&gt;study</title>
<path fill="none" stroke="#000000" d="M2388.3223,-100.566C2301.6101,-86.4915 2031.9832,-42.7274 1924.5145,-25.2838"/>
<polygon fill="#000000" stroke="#000000" points="1924.7623,-21.7783 1914.3307,-23.6308 1923.6407,-28.6879 1924.7623,-21.7783"/>
<text text-anchor="middle" x="2203.6396" y="-57.8" font-family="Times,serif" font-size="14.00" fill="#000000">of_pdx</text>
</g>
<!-- single_cell_sequencing_file -->
<g id="node19" class="node">
<title>single_cell_sequencing_file</title>
<ellipse fill="none" stroke="#000000" cx="2425.6396" cy="-366" rx="137.5759" ry="18"/>
<text text-anchor="middle" x="2425.6396" y="-362.3" font-family="Times,serif" font-size="14.00" fill="#000000">single_cell_sequencing_file</text>
</g>
<!-- single_cell_sequencing_file&#45;&gt;sample -->
<g id="edge34" class="edge">
<title>single_cell_sequencing_file&#45;&gt;sample</title>
<path fill="none" stroke="#000000" d="M2326.2203,-353.4507C2265.7217,-345.3276 2199.185,-335.3087 2194.6396,-330 2190.3036,-324.936 2190.2192,-319.9905 2194.6396,-315 2238.5748,-265.3975 2291.874,-339.5861 2342.6396,-297 2365.0233,-278.2228 2372.0737,-244.2774 2374.1284,-220.0661"/>
<polygon fill="#000000" stroke="#000000" points="2377.6246,-220.234 2374.7458,-210.0378 2370.6378,-219.8038 2377.6246,-220.234"/>
<text text-anchor="middle" x="2473.1396" y="-275.3" font-family="Times,serif" font-size="14.00" fill="#000000">of_single_cell_sequencing_file</text>
</g>
<!-- single_cell_sequencing_file&#45;&gt;cell_line -->
<g id="edge32" class="edge">
<title>single_cell_sequencing_file&#45;&gt;cell_line</title>
<path fill="none" stroke="#000000" d="M2417.2291,-347.8427C2413.5946,-337.0207 2411.7529,-323.7344 2419.6396,-315 2445.9874,-285.82 2557.0328,-304.4292 2595.6396,-297 2600.7447,-296.0176 2606.035,-294.8123 2611.2816,-293.4949"/>
<polygon fill="#000000" stroke="#000000" points="2612.4866,-296.7965 2621.257,-290.8527 2610.6942,-290.0299 2612.4866,-296.7965"/>
<text text-anchor="middle" x="2528.1396" y="-318.8" font-family="Times,serif" font-size="14.00" fill="#000000">of_single_cell_sequencing_file</text>
</g>
<!-- single_cell_sequencing_file&#45;&gt;pdx -->
<g id="edge33" class="edge">
<title>single_cell_sequencing_file&#45;&gt;pdx</title>
<path fill="none" stroke="#000000" d="M2559.0964,-361.4933C2712.5164,-355.6471 2945.122,-344.4614 2958.6396,-330 2963.192,-325.1297 2962.9201,-320.1109 2958.6396,-315 2929.3629,-280.0444 2901.2914,-310.1729 2857.6396,-297 2815.4311,-284.2627 2543.0613,-162.3277 2448.1765,-119.6574"/>
<polygon fill="#000000" stroke="#000000" points="2449.3432,-116.3445 2438.7876,-115.4334 2446.4712,-122.7282 2449.3432,-116.3445"/>
<text text-anchor="middle" x="2834.1396" y="-231.8" font-family="Times,serif" font-size="14.00" fill="#000000">of_single_cell_sequencing_file</text>
</g>
<!-- therapeutic_procedure -->
<g id="node21" class="node">
<title>therapeutic_procedure</title>
<ellipse fill="none" stroke="#000000" cx="117.6396" cy="-192" rx="117.7793" ry="18"/>
<text text-anchor="middle" x="117.6396" y="-188.3" font-family="Times,serif" font-size="14.00" fill="#000000">therapeutic_procedure</text>
</g>
<!-- therapeutic_procedure&#45;&gt;participant -->
<g id="edge25" class="edge">
<title>therapeutic_procedure&#45;&gt;participant</title>
<path fill="none" stroke="#000000" d="M132.9531,-173.9835C144.2245,-162.1686 160.6634,-147.7096 178.6396,-141 230.3319,-121.7058 1116.9526,-130.3281 1171.6396,-123 1177.1537,-122.2611 1182.8567,-121.249 1188.5231,-120.0788"/>
<polygon fill="#000000" stroke="#000000" points="1189.6346,-123.417 1198.6342,-117.8262 1188.1124,-116.5845 1189.6346,-123.417"/>
<text text-anchor="middle" x="271.6396" y="-144.8" font-family="Times,serif" font-size="14.00" fill="#000000">of_therapeutic_procedure</text>
</g>
<!-- study_admin -->
<g id="node22" class="node">
<title>study_admin</title>
<ellipse fill="none" stroke="#000000" cx="3009.6396" cy="-105" rx="70.3881" ry="18"/>
<text text-anchor="middle" x="3009.6396" y="-101.3" font-family="Times,serif" font-size="14.00" fill="#000000">study_admin</text>
</g>
<!-- study_admin&#45;&gt;study -->
<g id="edge22" class="edge">
<title>study_admin&#45;&gt;study</title>
<path fill="none" stroke="#000000" d="M2988.3132,-87.7886C2972.1599,-75.8621 2948.8541,-60.9282 2925.6396,-54 2829.2496,-25.2329 2116.9798,-19.2968 1926.416,-18.2183"/>
<polygon fill="#000000" stroke="#000000" points="1926.194,-14.7172 1916.175,-18.1622 1926.1556,-21.717 1926.194,-14.7172"/>
<text text-anchor="middle" x="3013.1396" y="-57.8" font-family="Times,serif" font-size="14.00" fill="#000000">of_study_admin</text>
</g>
<!-- publication -->
<g id="node23" class="node">
<title>publication</title>
<ellipse fill="none" stroke="#000000" cx="3160.6396" cy="-105" rx="63.0888" ry="18"/>
<text text-anchor="middle" x="3160.6396" y="-101.3" font-family="Times,serif" font-size="14.00" fill="#000000">publication</text>
</g>
<!-- publication&#45;&gt;study -->
<g id="edge20" class="edge">
<title>publication&#45;&gt;study</title>
<path fill="none" stroke="#000000" d="M3138.8147,-88.0087C3122.0266,-76.0253 3097.6998,-60.9233 3073.6396,-54 3017.6598,-37.8919 2140.0214,-22.3253 1926.2927,-18.7602"/>
<polygon fill="#000000" stroke="#000000" points="1926.0999,-15.2566 1916.0431,-18.59 1925.9836,-22.2556 1926.0999,-15.2566"/>
<text text-anchor="middle" x="3156.6396" y="-57.8" font-family="Times,serif" font-size="14.00" fill="#000000">of_publication</text>
</g>
<!-- radiology_file -->
<g id="node24" class="node">
<title>radiology_file</title>
<ellipse fill="none" stroke="#000000" cx="326.6396" cy="-192" rx="73.387" ry="18"/>
<text text-anchor="middle" x="326.6396" y="-188.3" font-family="Times,serif" font-size="14.00" fill="#000000">radiology_file</text>
</g>
<!-- radiology_file&#45;&gt;participant -->
<g id="edge37" class="edge">
<title>radiology_file&#45;&gt;participant</title>
<path fill="none" stroke="#000000" d="M343.8471,-174.2392C356.6103,-162.3787 375.117,-147.7597 394.6396,-141 476.2428,-112.7448 1086.0773,-134.6849 1171.6396,-123 1177.1518,-122.2472 1182.8536,-121.226 1188.5192,-120.0501"/>
<polygon fill="#000000" stroke="#000000" points="1189.6334,-123.3876 1198.6294,-117.7911 1188.1068,-116.556 1189.6334,-123.3876"/>
<text text-anchor="middle" x="453.6396" y="-144.8" font-family="Times,serif" font-size="14.00" fill="#000000">of_radiology_file</text>
</g>
<!-- family_relationship -->
<g id="node25" class="node">
<title>family_relationship</title>
<ellipse fill="none" stroke="#000000" cx="518.6396" cy="-192" rx="100.1823" ry="18"/>
<text text-anchor="middle" x="518.6396" y="-188.3" font-family="Times,serif" font-size="14.00" fill="#000000">family_relationship</text>
</g>
<!-- family_relationship&#45;&gt;participant -->
<g id="edge8" class="edge">
<title>family_relationship&#45;&gt;participant</title>
<path fill="none" stroke="#000000" d="M515.8332,-173.989C515.2025,-162.7981 516.6579,-149.056 525.6396,-141 552.3665,-117.0274 1136.0784,-127.9415 1171.6396,-123 1177.15,-122.2343 1182.8507,-121.2046 1188.5155,-120.0235"/>
<polygon fill="#000000" stroke="#000000" points="1189.6322,-123.3601 1198.6249,-117.7583 1188.1016,-116.5295 1189.6322,-123.3601"/>
<text text-anchor="middle" x="605.1396" y="-144.8" font-family="Times,serif" font-size="14.00" fill="#000000">of_family_relationship</text>
</g>
</g>
</svg>
