<svg width="2803pt" height="392pt"
 viewBox="0.00 0.00 2803.03 392.00" xmlns="http://www.w3.org/2000/svg" xmlns:xlink="http://www.w3.org/1999/xlink">
<g id="graph0" class="graph" transform="scale(1 1) rotate(0) translate(4 388)">
<title>Perl</title>
<polygon fill="#ffffff" stroke="transparent" points="-4,4 -4,-388 2799.0252,-388 2799.0252,4 -4,4"/>
<!-- cell_line -->
<g id="node1" class="node">
<title>cell_line</title>
<ellipse fill="none" stroke="#000000" cx="2012.0252" cy="-279" rx="49.2915" ry="18"/>
<text text-anchor="middle" x="2012.0252" y="-275.3" font-family="Times,serif" font-size="14.00" fill="#000000">cell_line</text>
</g>
<!-- participant -->
<g id="node20" class="node">
<title>participant</title>
<ellipse fill="none" stroke="#000000" cx="897.0252" cy="-105" rx="62.2891" ry="18"/>
<text text-anchor="middle" x="897.0252" y="-101.3" font-family="Times,serif" font-size="14.00" fill="#000000">participant</text>
</g>
<!-- cell_line&#45;&gt;participant -->
<g id="edge21" class="edge">
<title>cell_line&#45;&gt;participant</title>
<path fill="none" stroke="#000000" d="M1975.435,-266.7715C1969.613,-264.835 1963.6556,-262.8587 1958.0252,-261 1888.7577,-238.133 1867.7785,-241.5816 1802.0252,-210 1775.6901,-197.3511 1771.7781,-189.5185 1747.0252,-174 1722.8725,-158.8577 1719.401,-148.9503 1692.0252,-141 1614.7487,-118.5579 1047.7452,-133.9558 968.0252,-123 962.5136,-122.2425 956.8122,-121.2183 951.1468,-120.0405"/>
<polygon fill="#000000" stroke="#000000" points="951.5598,-116.5465 941.0369,-117.7792 950.0318,-123.3777 951.5598,-116.5465"/>
<text text-anchor="middle" x="1842.5252" y="-188.3" font-family="Times,serif" font-size="14.00" fill="#000000">of_cell_line</text>
</g>
<!-- study -->
<g id="node22" class="node">
<title>study</title>
<ellipse fill="none" stroke="#000000" cx="897.0252" cy="-18" rx="36.2938" ry="18"/>
<text text-anchor="middle" x="897.0252" y="-14.3" font-family="Times,serif" font-size="14.00" fill="#000000">study</text>
</g>
<!-- cell_line&#45;&gt;study -->
<g id="edge22" class="edge">
<title>cell_line&#45;&gt;study</title>
<path fill="none" stroke="#000000" d="M2016.1693,-260.7363C2020.1622,-238.4708 2023.4485,-200.5361 2007.0252,-174 1991.2134,-148.4519 1976.5318,-150.4915 1948.0252,-141 1671.068,-48.7849 1587.1245,-86.4237 1297.0252,-54 1169.1307,-39.7055 1017.7326,-27.3101 943.2015,-21.5056"/>
<polygon fill="#000000" stroke="#000000" points="943.446,-18.0142 933.2054,-20.7308 942.905,-24.9932 943.446,-18.0142"/>
<text text-anchor="middle" x="2030.5252" y="-144.8" font-family="Times,serif" font-size="14.00" fill="#000000">of_cell_line</text>
</g>
<!-- study_admin -->
<g id="node2" class="node">
<title>study_admin</title>
<ellipse fill="none" stroke="#000000" cx="105.0252" cy="-105" rx="70.3881" ry="18"/>
<text text-anchor="middle" x="105.0252" y="-101.3" font-family="Times,serif" font-size="14.00" fill="#000000">study_admin</text>
</g>
<!-- study_admin&#45;&gt;study -->
<g id="edge31" class="edge">
<title>study_admin&#45;&gt;study</title>
<path fill="none" stroke="#000000" d="M111.669,-86.8545C116.9305,-75.3029 125.5008,-61.2033 138.0252,-54 168.9718,-36.2012 690.4061,-22.76 850.5944,-19.0356"/>
<polygon fill="#000000" stroke="#000000" points="850.6978,-22.5343 860.6143,-18.8044 850.5362,-15.5362 850.6978,-22.5343"/>
<text text-anchor="middle" x="194.5252" y="-57.8" font-family="Times,serif" font-size="14.00" fill="#000000">of_study_admin</text>
</g>
<!-- study_funding -->
<g id="node3" class="node">
<title>study_funding</title>
<ellipse fill="none" stroke="#000000" cx="271.0252" cy="-105" rx="77.1866" ry="18"/>
<text text-anchor="middle" x="271.0252" y="-101.3" font-family="Times,serif" font-size="14.00" fill="#000000">study_funding</text>
</g>
<!-- study_funding&#45;&gt;study -->
<g id="edge19" class="edge">
<title>study_funding&#45;&gt;study</title>
<path fill="none" stroke="#000000" d="M259.5014,-86.8367C254.226,-76.0125 250.7778,-62.7259 259.0252,-54 279.284,-32.5658 706.2185,-21.8989 850.1365,-18.9025"/>
<polygon fill="#000000" stroke="#000000" points="850.4726,-22.3964 860.3987,-18.6919 850.3289,-15.3979 850.4726,-22.3964"/>
<text text-anchor="middle" x="321.0252" y="-57.8" font-family="Times,serif" font-size="14.00" fill="#000000">of_study_funding</text>
</g>
<!-- clinical_measure_file -->
<g id="node4" class="node">
<title>clinical_measure_file</title>
<ellipse fill="none" stroke="#000000" cx="144.0252" cy="-192" rx="108.5808" ry="18"/>
<text text-anchor="middle" x="144.0252" y="-188.3" font-family="Times,serif" font-size="14.00" fill="#000000">clinical_measure_file</text>
</g>
<!-- clinical_measure_file&#45;&gt;participant -->
<g id="edge12" class="edge">
<title>clinical_measure_file&#45;&gt;participant</title>
<path fill="none" stroke="#000000" d="M141.6508,-173.993C141.2719,-162.8039 143.0032,-149.0621 152.0252,-141 169.2329,-125.623 543.9756,-124.1285 567.0252,-123 656.1489,-118.6367 758.7729,-112.932 825.6045,-109.1258"/>
<polygon fill="#000000" stroke="#000000" points="825.8228,-112.6192 835.6072,-108.5551 825.424,-105.6305 825.8228,-112.6192"/>
<text text-anchor="middle" x="281.5252" y="-144.8" font-family="Times,serif" font-size="14.00" fill="#000000">of_clinical_measure_file_participant</text>
</g>
<!-- clinical_measure_file&#45;&gt;study -->
<g id="edge11" class="edge">
<title>clinical_measure_file&#45;&gt;study</title>
<path fill="none" stroke="#000000" d="M136.5305,-173.7661C133.3971,-162.9153 132.0855,-149.6255 140.0252,-141 156.4105,-123.1992 333.0593,-126.3139 357.0252,-123 543.5421,-97.2093 763.046,-48.8681 854.1071,-28.006"/>
<polygon fill="#000000" stroke="#000000" points="855.0924,-31.3709 864.0539,-25.7193 853.524,-24.5488 855.0924,-31.3709"/>
<text text-anchor="middle" x="659.0252" y="-101.3" font-family="Times,serif" font-size="14.00" fill="#000000">of_clinical_measure_file</text>
</g>
<!-- family_relationship -->
<g id="node5" class="node">
<title>family_relationship</title>
<ellipse fill="none" stroke="#000000" cx="1638.0252" cy="-192" rx="100.1823" ry="18"/>
<text text-anchor="middle" x="1638.0252" y="-188.3" font-family="Times,serif" font-size="14.00" fill="#000000">family_relationship</text>
</g>
<!-- family_relationship&#45;&gt;participant -->
<g id="edge15" class="edge">
<title>family_relationship&#45;&gt;participant</title>
<path fill="none" stroke="#000000" d="M1594.7219,-175.6575C1560.7912,-163.6767 1512.1072,-148.2823 1468.0252,-141 1248.6326,-104.7565 1188.1489,-154.5002 968.0252,-123 962.5966,-122.2232 956.9821,-121.1972 951.3985,-120.0282"/>
<polygon fill="#000000" stroke="#000000" points="951.9515,-116.5654 941.428,-117.7923 950.4198,-123.3957 951.9515,-116.5654"/>
<text text-anchor="middle" x="1608.5252" y="-144.8" font-family="Times,serif" font-size="14.00" fill="#000000">of_family_relationship</text>
</g>
<!-- sample -->
<g id="node6" class="node">
<title>sample</title>
<ellipse fill="none" stroke="#000000" cx="1476.0252" cy="-192" rx="44.393" ry="18"/>
<text text-anchor="middle" x="1476.0252" y="-188.3" font-family="Times,serif" font-size="14.00" fill="#000000">sample</text>
</g>
<!-- sample&#45;&gt;participant -->
<g id="edge28" class="edge">
<title>sample&#45;&gt;participant</title>
<path fill="none" stroke="#000000" d="M1447.771,-178.1286C1421.3814,-165.9143 1380.5374,-148.8804 1343.0252,-141 1179.731,-106.6959 1133.0565,-147.6259 968.0252,-123 962.6013,-122.1907 956.99,-121.1432 951.4083,-119.9608"/>
<polygon fill="#000000" stroke="#000000" points="951.9656,-116.4986 941.4402,-117.7091 950.4232,-123.3265 951.9656,-116.4986"/>
<text text-anchor="middle" x="1427.5252" y="-144.8" font-family="Times,serif" font-size="14.00" fill="#000000">of_sample</text>
</g>
<!-- pdx -->
<g id="node7" class="node">
<title>pdx</title>
<ellipse fill="none" stroke="#000000" cx="1655.0252" cy="-279" rx="27.8951" ry="18"/>
<text text-anchor="middle" x="1655.0252" y="-275.3" font-family="Times,serif" font-size="14.00" fill="#000000">pdx</text>
</g>
<!-- pdx&#45;&gt;sample -->
<g id="edge27" class="edge">
<title>pdx&#45;&gt;sample</title>
<path fill="none" stroke="#000000" d="M1632.7166,-268.1573C1602.9499,-253.6897 1549.8151,-227.8644 1513.7599,-210.3403"/>
<polygon fill="#000000" stroke="#000000" points="1515.056,-207.0788 1504.532,-205.8553 1511.996,-213.3746 1515.056,-207.0788"/>
<text text-anchor="middle" x="1600.0252" y="-231.8" font-family="Times,serif" font-size="14.00" fill="#000000">of_pdx</text>
</g>
<!-- single_cell_sequencing_file -->
<g id="node8" class="node">
<title>single_cell_sequencing_file</title>
<ellipse fill="none" stroke="#000000" cx="1449.0252" cy="-366" rx="137.5759" ry="18"/>
<text text-anchor="middle" x="1449.0252" y="-362.3" font-family="Times,serif" font-size="14.00" fill="#000000">single_cell_sequencing_file</text>
</g>
<!-- single_cell_sequencing_file&#45;&gt;cell_line -->
<g id="edge6" class="edge">
<title>single_cell_sequencing_file&#45;&gt;cell_line</title>
<path fill="none" stroke="#000000" d="M1581.478,-360.9584C1678.4397,-355.9776 1801.1005,-346.6208 1849.0252,-330 1860.5555,-326.0012 1860.8561,-319.9183 1872.0252,-315 1899.1123,-303.0723 1930.9539,-294.4942 1957.4209,-288.7109"/>
<polygon fill="#000000" stroke="#000000" points="1958.2187,-292.1197 1967.2804,-286.63 1956.7731,-285.2706 1958.2187,-292.1197"/>
<text text-anchor="middle" x="1980.5252" y="-318.8" font-family="Times,serif" font-size="14.00" fill="#000000">of_single_cell_sequencing_file</text>
</g>
<!-- single_cell_sequencing_file&#45;&gt;sample -->
<g id="edge7" class="edge">
<title>single_cell_sequencing_file&#45;&gt;sample</title>
<path fill="none" stroke="#000000" d="M1430.7774,-347.8657C1412.0993,-326.9954 1387.5746,-291.6515 1401.0252,-261 1409.6035,-241.4516 1426.7558,-225.0027 1442.4946,-213.0739"/>
<polygon fill="#000000" stroke="#000000" points="1444.9645,-215.6081 1451.0295,-206.9209 1440.8709,-209.9298 1444.9645,-215.6081"/>
<text text-anchor="middle" x="1509.5252" y="-275.3" font-family="Times,serif" font-size="14.00" fill="#000000">of_single_cell_sequencing_file</text>
</g>
<!-- single_cell_sequencing_file&#45;&gt;pdx -->
<g id="edge8" class="edge">
<title>single_cell_sequencing_file&#45;&gt;pdx</title>
<path fill="none" stroke="#000000" d="M1431.6246,-347.8901C1423.5989,-337.352 1417.5352,-324.3464 1426.0252,-315 1454.0954,-284.0981 1572.5798,-307.3458 1613.0252,-297 1616.4333,-296.1282 1619.9209,-295.0184 1623.3582,-293.7791"/>
<polygon fill="#000000" stroke="#000000" points="1624.7983,-296.9733 1632.8043,-290.034 1622.2183,-290.466 1624.7983,-296.9733"/>
<text text-anchor="middle" x="1534.5252" y="-318.8" font-family="Times,serif" font-size="14.00" fill="#000000">of_single_cell_sequencing_file</text>
</g>
<!-- exposure -->
<g id="node9" class="node">
<title>exposure</title>
<ellipse fill="none" stroke="#000000" cx="1945.0252" cy="-192" rx="53.0913" ry="18"/>
<text text-anchor="middle" x="1945.0252" y="-188.3" font-family="Times,serif" font-size="14.00" fill="#000000">exposure</text>
</g>
<!-- exposure&#45;&gt;participant -->
<g id="edge9" class="edge">
<title>exposure&#45;&gt;participant</title>
<path fill="none" stroke="#000000" d="M1914.0887,-177.1752C1886.6659,-164.8664 1845.1671,-148.2455 1807.0252,-141 1623.8141,-106.1971 1152.819,-148.0754 968.0252,-123 962.5123,-122.2519 956.8101,-121.2338 951.1442,-120.0599"/>
<polygon fill="#000000" stroke="#000000" points="951.556,-116.5657 941.0337,-117.803 950.031,-123.3976 951.556,-116.5657"/>
<text text-anchor="middle" x="1900.5252" y="-144.8" font-family="Times,serif" font-size="14.00" fill="#000000">of_exposure</text>
</g>
<!-- methylation_array_file -->
<g id="node10" class="node">
<title>methylation_array_file</title>
<ellipse fill="none" stroke="#000000" cx="1178.0252" cy="-366" rx="115.8798" ry="18"/>
<text text-anchor="middle" x="1178.0252" y="-362.3" font-family="Times,serif" font-size="14.00" fill="#000000">methylation_array_file</text>
</g>
<!-- methylation_array_file&#45;&gt;cell_line -->
<g id="edge33" class="edge">
<title>methylation_array_file&#45;&gt;cell_line</title>
<path fill="none" stroke="#000000" d="M1259.2703,-353.1216C1273.493,-351.1775 1288.1704,-349.3684 1302.0252,-348 1377.541,-340.5417 1572.02,-356.7682 1643.0252,-330 1653.0924,-326.2048 1651.9904,-318.8803 1662.0252,-315 1715.6299,-294.2721 1863.0482,-304.5321 1920.0252,-297 1932.8838,-295.3002 1946.6524,-292.9142 1959.5183,-290.4341"/>
<polygon fill="#000000" stroke="#000000" points="1960.4787,-293.812 1969.6084,-288.4362 1959.119,-286.9453 1960.4787,-293.812"/>
<text text-anchor="middle" x="1753.5252" y="-318.8" font-family="Times,serif" font-size="14.00" fill="#000000">of_methylation_array_file</text>
</g>
<!-- methylation_array_file&#45;&gt;sample -->
<g id="edge35" class="edge">
<title>methylation_array_file&#45;&gt;sample</title>
<path fill="none" stroke="#000000" d="M1178.4045,-347.6462C1179.909,-324.2093 1186.0908,-283.9493 1210.0252,-261 1210.2769,-260.7587 1352.2454,-224.0135 1428.6466,-204.2517"/>
<polygon fill="#000000" stroke="#000000" points="1429.7171,-207.59 1438.5221,-201.6974 1427.9643,-200.8131 1429.7171,-207.59"/>
<text text-anchor="middle" x="1301.5252" y="-275.3" font-family="Times,serif" font-size="14.00" fill="#000000">of_methylation_array_file</text>
</g>
<!-- methylation_array_file&#45;&gt;pdx -->
<g id="edge34" class="edge">
<title>methylation_array_file&#45;&gt;pdx</title>
<path fill="none" stroke="#000000" d="M1192.0662,-347.9126C1202.2991,-336.2278 1217.2624,-321.9509 1234.0252,-315 1311.9118,-282.7035 1530.8555,-315.9082 1613.0252,-297 1616.4534,-296.2111 1619.9542,-295.1555 1623.3995,-293.9491"/>
<polygon fill="#000000" stroke="#000000" points="1624.8203,-297.1516 1632.856,-290.2467 1622.2682,-290.6334 1624.8203,-297.1516"/>
<text text-anchor="middle" x="1325.5252" y="-318.8" font-family="Times,serif" font-size="14.00" fill="#000000">of_methylation_array_file</text>
</g>
<!-- synonym -->
<g id="node11" class="node">
<title>synonym</title>
<ellipse fill="none" stroke="#000000" cx="1085.0252" cy="-279" rx="51.9908" ry="18"/>
<text text-anchor="middle" x="1085.0252" y="-275.3" font-family="Times,serif" font-size="14.00" fill="#000000">synonym</text>
</g>
<!-- synonym&#45;&gt;sample -->
<g id="edge4" class="edge">
<title>synonym&#45;&gt;sample</title>
<path fill="none" stroke="#000000" d="M1120.84,-265.698C1136.5426,-259.4378 1155.006,-251.4863 1171.0252,-243 1181.8094,-237.2869 1182.4759,-231.9436 1194.0252,-228 1288.5435,-195.7261 1319.9565,-228.9167 1418.0252,-210 1422.7582,-209.087 1427.6505,-207.9261 1432.4943,-206.6348"/>
<polygon fill="#000000" stroke="#000000" points="1433.6446,-209.9464 1442.302,-203.839 1431.7256,-203.2146 1433.6446,-209.9464"/>
<text text-anchor="middle" x="1236.5252" y="-231.8" font-family="Times,serif" font-size="14.00" fill="#000000">of_synonym</text>
</g>
<!-- synonym&#45;&gt;participant -->
<g id="edge3" class="edge">
<title>synonym&#45;&gt;participant</title>
<path fill="none" stroke="#000000" d="M1107.6566,-262.7859C1124.9863,-251.1991 1149.9334,-236.2529 1174.0252,-228 1201.1993,-218.6912 1283.1812,-231.6793 1302.0252,-210 1322.1434,-186.8547 1323.1183,-163.2604 1302.0252,-141 1276.4625,-114.0226 1004.7669,-128.593 968.0252,-123 962.6037,-122.1747 956.994,-121.1167 951.4133,-119.9277"/>
<polygon fill="#000000" stroke="#000000" points="951.9727,-116.4658 941.4463,-117.6682 950.425,-123.2926 951.9727,-116.4658"/>
<text text-anchor="middle" x="1359.5252" y="-188.3" font-family="Times,serif" font-size="14.00" fill="#000000">of_synonym</text>
</g>
<!-- synonym&#45;&gt;study -->
<g id="edge2" class="edge">
<title>synonym&#45;&gt;study</title>
<path fill="none" stroke="#000000" d="M1033.0048,-277.5662C824.7654,-271.5784 60.8254,-247.1415 26.0252,-210 -11.3522,-170.108 -5.5111,-131.6532 26.0252,-87 51.3264,-51.1753 75.9863,-62.4384 119.0252,-54 260.1237,-26.3355 703.7429,-19.7902 849.8474,-18.3672"/>
<polygon fill="#000000" stroke="#000000" points="850.2811,-21.8634 860.2478,-18.2697 850.2154,-14.8637 850.2811,-21.8634"/>
<text text-anchor="middle" x="43.5252" y="-144.8" font-family="Times,serif" font-size="14.00" fill="#000000">of_synonym</text>
</g>
<!-- radiology_file -->
<g id="node12" class="node">
<title>radiology_file</title>
<ellipse fill="none" stroke="#000000" cx="344.0252" cy="-192" rx="73.387" ry="18"/>
<text text-anchor="middle" x="344.0252" y="-188.3" font-family="Times,serif" font-size="14.00" fill="#000000">radiology_file</text>
</g>
<!-- radiology_file&#45;&gt;participant -->
<g id="edge20" class="edge">
<title>radiology_file&#45;&gt;participant</title>
<path fill="none" stroke="#000000" d="M378.7364,-176.124C390.5343,-170.2802 403.6136,-163.2948 415.0252,-156 424.0902,-150.2053 424.0059,-144.9201 434.0252,-141 469.4088,-127.156 703.7274,-114.1804 824.8236,-108.3007"/>
<polygon fill="#000000" stroke="#000000" points="825.2957,-111.7822 835.1157,-107.8049 824.9588,-104.7903 825.2957,-111.7822"/>
<text text-anchor="middle" x="493.0252" y="-144.8" font-family="Times,serif" font-size="14.00" fill="#000000">of_radiology_file</text>
</g>
<!-- study_personnel -->
<g id="node13" class="node">
<title>study_personnel</title>
<ellipse fill="none" stroke="#000000" cx="1064.0252" cy="-105" rx="87.1846" ry="18"/>
<text text-anchor="middle" x="1064.0252" y="-101.3" font-family="Times,serif" font-size="14.00" fill="#000000">study_personnel</text>
</g>
<!-- study_personnel&#45;&gt;study -->
<g id="edge10" class="edge">
<title>study_personnel&#45;&gt;study</title>
<path fill="none" stroke="#000000" d="M1046.049,-87.253C1034.3118,-76.451 1018.2094,-63.0385 1002.0252,-54 982.5945,-43.1484 959.3261,-34.7611 939.6371,-28.8232"/>
<polygon fill="#000000" stroke="#000000" points="940.5794,-25.4524 930,-26.0233 938.6263,-32.1744 940.5794,-25.4524"/>
<text text-anchor="middle" x="1092.5252" y="-57.8" font-family="Times,serif" font-size="14.00" fill="#000000">of_study_personnel</text>
</g>
<!-- pathology_file -->
<g id="node14" class="node">
<title>pathology_file</title>
<ellipse fill="none" stroke="#000000" cx="2593.0252" cy="-366" rx="76.0865" ry="18"/>
<text text-anchor="middle" x="2593.0252" y="-362.3" font-family="Times,serif" font-size="14.00" fill="#000000">pathology_file</text>
</g>
<!-- pathology_file&#45;&gt;cell_line -->
<g id="edge24" class="edge">
<title>pathology_file&#45;&gt;cell_line</title>
<path fill="none" stroke="#000000" d="M2590.1212,-347.8675C2587.2837,-336.4763 2581.7447,-322.5549 2571.0252,-315 2530.9814,-286.778 2207.6503,-280.6801 2071.798,-279.3628"/>
<polygon fill="#000000" stroke="#000000" points="2071.602,-275.861 2061.5703,-279.2693 2071.5379,-282.8607 2071.602,-275.861"/>
<text text-anchor="middle" x="2644.0252" y="-318.8" font-family="Times,serif" font-size="14.00" fill="#000000">of_pathology_file</text>
</g>
<!-- pathology_file&#45;&gt;sample -->
<g id="edge25" class="edge">
<title>pathology_file&#45;&gt;sample</title>
<path fill="none" stroke="#000000" d="M2659.7086,-357.275C2695.7184,-349.8957 2729.0734,-336.9114 2709.0252,-315 2620.1698,-217.8869 1657.8152,-237.1915 1529.0252,-210 1525.4389,-209.2428 1521.7588,-208.318 1518.0905,-207.2914"/>
<polygon fill="#000000" stroke="#000000" points="1519.0653,-203.9297 1508.4801,-204.3814 1517.0366,-210.6293 1519.0653,-203.9297"/>
<text text-anchor="middle" x="2734.0252" y="-275.3" font-family="Times,serif" font-size="14.00" fill="#000000">of_pathology_file</text>
</g>
<!-- pathology_file&#45;&gt;pdx -->
<g id="edge26" class="edge">
<title>pathology_file&#45;&gt;pdx</title>
<path fill="none" stroke="#000000" d="M2534.7124,-354.3176C2507.1849,-348.1697 2474.0739,-339.8543 2445.0252,-330 2429.3843,-324.6941 2427.1377,-318.63 2411.0252,-315 2270.0585,-283.2419 1904.8324,-311.1306 1761.0252,-297 1737.9291,-294.7306 1712.2651,-290.4199 1691.975,-286.586"/>
<polygon fill="#000000" stroke="#000000" points="1692.379,-283.0994 1681.8964,-284.6379 1691.0505,-289.9722 1692.379,-283.0994"/>
<text text-anchor="middle" x="2506.0252" y="-318.8" font-family="Times,serif" font-size="14.00" fill="#000000">of_pathology_file</text>
</g>
<!-- sequencing_file -->
<g id="node15" class="node">
<title>sequencing_file</title>
<ellipse fill="none" stroke="#000000" cx="2259.0252" cy="-366" rx="83.3857" ry="18"/>
<text text-anchor="middle" x="2259.0252" y="-362.3" font-family="Times,serif" font-size="14.00" fill="#000000">sequencing_file</text>
</g>
<!-- sequencing_file&#45;&gt;cell_line -->
<g id="edge18" class="edge">
<title>sequencing_file&#45;&gt;cell_line</title>
<path fill="none" stroke="#000000" d="M2269.7917,-348.0435C2274.7038,-337.2971 2277.8737,-324.0196 2270.0252,-315 2257.1329,-300.1838 2142.948,-288.8993 2070.8692,-283.1754"/>
<polygon fill="#000000" stroke="#000000" points="2070.799,-279.6594 2060.5572,-282.3715 2070.2549,-286.6382 2070.799,-279.6594"/>
<text text-anchor="middle" x="2340.5252" y="-318.8" font-family="Times,serif" font-size="14.00" fill="#000000">of_sequencing_file</text>
</g>
<!-- sequencing_file&#45;&gt;sample -->
<g id="edge17" class="edge">
<title>sequencing_file&#45;&gt;sample</title>
<path fill="none" stroke="#000000" d="M2259.0967,-347.7658C2258.0835,-336.4834 2254.7204,-322.7231 2245.0252,-315 2208.1431,-285.6202 1867.3042,-306.0391 1821.0252,-297 1731.6197,-279.5375 1716.0207,-251.5598 1628.0252,-228 1584.8254,-216.4338 1572.3159,-221.2213 1529.0252,-210 1525.6785,-209.1325 1522.2383,-208.1585 1518.7953,-207.1243"/>
<polygon fill="#000000" stroke="#000000" points="1519.7496,-203.7554 1509.16,-204.0888 1517.6462,-210.4319 1519.7496,-203.7554"/>
<text text-anchor="middle" x="1887.5252" y="-275.3" font-family="Times,serif" font-size="14.00" fill="#000000">of_sequencing_file</text>
</g>
<!-- sequencing_file&#45;&gt;pdx -->
<g id="edge16" class="edge">
<title>sequencing_file&#45;&gt;pdx</title>
<path fill="none" stroke="#000000" d="M2193.4486,-354.8942C2167.4532,-349.2294 2137.6996,-341.1295 2112.0252,-330 2100.8279,-325.1461 2100.6236,-318.7968 2089.0252,-315 2019.6493,-292.2893 1833.5703,-305.1236 1761.0252,-297 1737.962,-294.4174 1712.2989,-290.0978 1692.0011,-286.3375"/>
<polygon fill="#000000" stroke="#000000" points="1692.3935,-282.8498 1681.9179,-284.4342 1691.0951,-289.7284 1692.3935,-282.8498"/>
<text text-anchor="middle" x="2178.5252" y="-318.8" font-family="Times,serif" font-size="14.00" fill="#000000">of_sequencing_file</text>
</g>
<!-- diagnosis -->
<g id="node16" class="node">
<title>diagnosis</title>
<ellipse fill="none" stroke="#000000" cx="490.0252" cy="-192" rx="54.6905" ry="18"/>
<text text-anchor="middle" x="490.0252" y="-188.3" font-family="Times,serif" font-size="14.00" fill="#000000">diagnosis</text>
</g>
<!-- diagnosis&#45;&gt;participant -->
<g id="edge14" class="edge">
<title>diagnosis&#45;&gt;participant</title>
<path fill="none" stroke="#000000" d="M519.621,-176.6636C531.1298,-170.4912 544.3336,-163.1502 556.0252,-156 566.1211,-149.8257 566.9305,-145.1179 578.0252,-141 621.9319,-124.7037 745.673,-114.2888 825.5043,-109.0566"/>
<polygon fill="#000000" stroke="#000000" points="825.7421,-112.5486 835.4967,-108.4136 825.2926,-105.5631 825.7421,-112.5486"/>
<text text-anchor="middle" x="622.5252" y="-144.8" font-family="Times,serif" font-size="14.00" fill="#000000">of_diagnosis</text>
</g>
<!-- molecular_test -->
<g id="node17" class="node">
<title>molecular_test</title>
<ellipse fill="none" stroke="#000000" cx="643.0252" cy="-192" rx="79.8859" ry="18"/>
<text text-anchor="middle" x="643.0252" y="-188.3" font-family="Times,serif" font-size="14.00" fill="#000000">molecular_test</text>
</g>
<!-- molecular_test&#45;&gt;participant -->
<g id="edge23" class="edge">
<title>molecular_test&#45;&gt;participant</title>
<path fill="none" stroke="#000000" d="M655.1828,-174.0593C663.8316,-162.749 676.4687,-148.8458 691.0252,-141 714.2719,-128.4702 777.6219,-118.5555 827.9889,-112.33"/>
<polygon fill="#000000" stroke="#000000" points="828.6888,-115.771 838.1965,-111.0962 827.8488,-108.8215 828.6888,-115.771"/>
<text text-anchor="middle" x="755.0252" y="-144.8" font-family="Times,serif" font-size="14.00" fill="#000000">of_molecular_test</text>
</g>
<!-- publication -->
<g id="node18" class="node">
<title>publication</title>
<ellipse fill="none" stroke="#000000" cx="1232.0252" cy="-105" rx="63.0888" ry="18"/>
<text text-anchor="middle" x="1232.0252" y="-101.3" font-family="Times,serif" font-size="14.00" fill="#000000">publication</text>
</g>
<!-- publication&#45;&gt;study -->
<g id="edge13" class="edge">
<title>publication&#45;&gt;study</title>
<path fill="none" stroke="#000000" d="M1214.9081,-87.638C1202.4613,-76.1233 1184.5998,-61.7541 1166.0252,-54 1126.8158,-37.6318 1009.3428,-26.4589 943.3397,-21.285"/>
<polygon fill="#000000" stroke="#000000" points="943.4472,-17.783 933.2084,-20.5062 942.9107,-24.7624 943.4472,-17.783"/>
<text text-anchor="middle" x="1242.0252" y="-57.8" font-family="Times,serif" font-size="14.00" fill="#000000">of_publication</text>
</g>
<!-- follow_up -->
<g id="node19" class="node">
<title>follow_up</title>
<ellipse fill="none" stroke="#000000" cx="796.0252" cy="-192" rx="55.4913" ry="18"/>
<text text-anchor="middle" x="796.0252" y="-188.3" font-family="Times,serif" font-size="14.00" fill="#000000">follow_up</text>
</g>
<!-- follow_up&#45;&gt;participant -->
<g id="edge30" class="edge">
<title>follow_up&#45;&gt;participant</title>
<path fill="none" stroke="#000000" d="M808.3494,-174.2012C816.1098,-163.7734 826.7645,-150.7746 838.0252,-141 844.0781,-135.7459 850.9891,-130.7828 857.8983,-126.3164"/>
<polygon fill="#000000" stroke="#000000" points="859.9234,-129.1792 866.5844,-120.9401 856.2393,-123.2271 859.9234,-129.1792"/>
<text text-anchor="middle" x="883.0252" y="-144.8" font-family="Times,serif" font-size="14.00" fill="#000000">of_follow_up</text>
</g>
<!-- participant&#45;&gt;study -->
<g id="edge5" class="edge">
<title>participant&#45;&gt;study</title>
<path fill="none" stroke="#000000" d="M897.0252,-86.9735C897.0252,-75.1918 897.0252,-59.5607 897.0252,-46.1581"/>
<polygon fill="#000000" stroke="#000000" points="900.5253,-46.0033 897.0252,-36.0034 893.5253,-46.0034 900.5253,-46.0033"/>
<text text-anchor="middle" x="947.5252" y="-57.8" font-family="Times,serif" font-size="14.00" fill="#000000">of_participant</text>
</g>
<!-- medical_history -->
<g id="node21" class="node">
<title>medical_history</title>
<ellipse fill="none" stroke="#000000" cx="954.0252" cy="-192" rx="85.2851" ry="18"/>
<text text-anchor="middle" x="954.0252" y="-188.3" font-family="Times,serif" font-size="14.00" fill="#000000">medical_history</text>
</g>
<!-- medical_history&#45;&gt;participant -->
<g id="edge32" class="edge">
<title>medical_history&#45;&gt;participant</title>
<path fill="none" stroke="#000000" d="M947.9913,-173.7165C944.2127,-163.6132 938.7777,-151.1007 932.0252,-141 929.4485,-137.1456 926.4317,-133.3389 923.2688,-129.7264"/>
<polygon fill="#000000" stroke="#000000" points="925.6093,-127.1046 916.2258,-122.1851 920.4934,-131.8825 925.6093,-127.1046"/>
<text text-anchor="middle" x="1008.0252" y="-144.8" font-family="Times,serif" font-size="14.00" fill="#000000">of_medical_history</text>
</g>
<!-- study_arm -->
<g id="node23" class="node">
<title>study_arm</title>
<ellipse fill="none" stroke="#000000" cx="2114.0252" cy="-105" rx="59.5901" ry="18"/>
<text text-anchor="middle" x="2114.0252" y="-101.3" font-family="Times,serif" font-size="14.00" fill="#000000">study_arm</text>
</g>
<!-- study_arm&#45;&gt;study -->
<g id="edge29" class="edge">
<title>study_arm&#45;&gt;study</title>
<path fill="none" stroke="#000000" d="M2095.5935,-87.7814C2081.54,-75.8512 2061.0741,-60.9161 2040.0252,-54 1987.2174,-36.6488 1151.8571,-22.1018 943.7168,-18.7343"/>
<polygon fill="#000000" stroke="#000000" points="943.4913,-15.2304 933.4363,-18.5689 943.3786,-22.2294 943.4913,-15.2304"/>
<text text-anchor="middle" x="2116.5252" y="-57.8" font-family="Times,serif" font-size="14.00" fill="#000000">of_study_arm</text>
</g>
<!-- therapeutic_procedure -->
<g id="node24" class="node">
<title>therapeutic_procedure</title>
<ellipse fill="none" stroke="#000000" cx="1175.0252" cy="-192" rx="117.7793" ry="18"/>
<text text-anchor="middle" x="1175.0252" y="-188.3" font-family="Times,serif" font-size="14.00" fill="#000000">therapeutic_procedure</text>
</g>
<!-- therapeutic_procedure&#45;&gt;participant -->
<g id="edge1" class="edge">
<title>therapeutic_procedure&#45;&gt;participant</title>
<path fill="none" stroke="#000000" d="M1147.8702,-174.2622C1129.4468,-163.0376 1104.1426,-149.1537 1080.0252,-141 1032.2643,-124.8529 1017.3981,-133.2049 968.0252,-123 963.0926,-121.9805 957.9867,-120.8455 952.8791,-119.6553"/>
<polygon fill="#000000" stroke="#000000" points="953.6403,-116.2387 943.1002,-117.314 952.0104,-123.0463 953.6403,-116.2387"/>
<text text-anchor="middle" x="1205.0252" y="-144.8" font-family="Times,serif" font-size="14.00" fill="#000000">of_therapeutic_procedure</text>
</g>
</g>
</svg>
