<svg width="1758pt" height="1039pt"
 viewBox="0.00 0.00 1758.00 1039.00" xmlns="http://www.w3.org/2000/svg" xmlns:xlink="http://www.w3.org/1999/xlink">
<g id="graph0" class="graph" transform="scale(1 1) rotate(0) translate(4 1035)">
<title>Perl</title>
<polygon fill="#ffffff" stroke="transparent" points="-4,4 -4,-1035 1754,-1035 1754,4 -4,4"/>
<!-- study_funding -->
<g id="node1" class="node">
<title>study_funding</title>
<path fill="none" stroke="#000000" d="M34,-213.5C34,-213.5 301,-213.5 301,-213.5 307,-213.5 313,-219.5 313,-225.5 313,-225.5 313,-247.5 313,-247.5 313,-253.5 307,-259.5 301,-259.5 301,-259.5 34,-259.5 34,-259.5 28,-259.5 22,-253.5 22,-247.5 22,-247.5 22,-225.5 22,-225.5 22,-219.5 28,-213.5 34,-213.5"/>
<text text-anchor="middle" x="81.5" y="-232.8" font-family="Times,serif" font-size="14.00" fill="#000000">study_funding</text>
<polyline fill="none" stroke="#000000" points="141,-213.5 141,-259.5 "/>
<text text-anchor="middle" x="151.5" y="-232.8" font-family="Times,serif" font-size="14.00" fill="#000000"> </text>
<polyline fill="none" stroke="#000000" points="162,-213.5 162,-259.5 "/>
<text text-anchor="middle" x="227" y="-244.3" font-family="Times,serif" font-size="14.00" fill="#000000">funding_agency</text>
<polyline fill="none" stroke="#000000" points="162,-236.5 292,-236.5 "/>
<text text-anchor="middle" x="227" y="-221.3" font-family="Times,serif" font-size="14.00" fill="#000000">funding_id</text>
<polyline fill="none" stroke="#000000" points="292,-213.5 292,-259.5 "/>
<text text-anchor="middle" x="302.5" y="-232.8" font-family="Times,serif" font-size="14.00" fill="#000000"> </text>
</g>
<!-- study -->
<g id="node13" class="node">
<title>study</title>
<path fill="none" stroke="#000000" d="M753,-.5C753,-.5 998,-.5 998,-.5 1004,-.5 1010,-6.5 1010,-12.5 1010,-12.5 1010,-103.5 1010,-103.5 1010,-109.5 1004,-115.5 998,-115.5 998,-115.5 753,-115.5 753,-115.5 747,-115.5 741,-109.5 741,-103.5 741,-103.5 741,-12.5 741,-12.5 741,-6.5 747,-.5 753,-.5"/>
<text text-anchor="middle" x="769" y="-54.3" font-family="Times,serif" font-size="14.00" fill="#000000">study</text>
<polyline fill="none" stroke="#000000" points="797,-.5 797,-115.5 "/>
<text text-anchor="middle" x="807.5" y="-54.3" font-family="Times,serif" font-size="14.00" fill="#000000"> </text>
<polyline fill="none" stroke="#000000" points="818,-.5 818,-115.5 "/>
<text text-anchor="middle" x="903.5" y="-100.3" font-family="Times,serif" font-size="14.00" fill="#000000">dbgap_phs_accession</text>
<polyline fill="none" stroke="#000000" points="818,-92.5 989,-92.5 "/>
<text text-anchor="middle" x="903.5" y="-77.3" font-family="Times,serif" font-size="14.00" fill="#000000">external_url</text>
<polyline fill="none" stroke="#000000" points="818,-69.5 989,-69.5 "/>
<text text-anchor="middle" x="903.5" y="-54.3" font-family="Times,serif" font-size="14.00" fill="#000000">study_acronym</text>
<polyline fill="none" stroke="#000000" points="818,-46.5 989,-46.5 "/>
<text text-anchor="middle" x="903.5" y="-31.3" font-family="Times,serif" font-size="14.00" fill="#000000">study_description</text>
<polyline fill="none" stroke="#000000" points="818,-23.5 989,-23.5 "/>
<text text-anchor="middle" x="903.5" y="-8.3" font-family="Times,serif" font-size="14.00" fill="#000000">study_title</text>
<polyline fill="none" stroke="#000000" points="989,-.5 989,-115.5 "/>
<text text-anchor="middle" x="999.5" y="-54.3" font-family="Times,serif" font-size="14.00" fill="#000000"> </text>
</g>
<!-- study_funding&#45;&gt;study -->
<g id="edge12" class="edge">
<title>study_funding&#45;&gt;study</title>
<path fill="none" stroke="#000000" d="M213.1612,-213.4253C243.3717,-198.7784 284.1555,-180.1713 321.5,-167 456.2145,-119.4864 617.0761,-90.7462 730.6637,-74.8024"/>
<polygon fill="#000000" stroke="#000000" points="731.393,-78.2348 740.817,-73.3936 730.4309,-71.3012 731.393,-78.2348"/>
<text text-anchor="middle" x="487.5" y="-137.8" font-family="Times,serif" font-size="14.00" fill="#000000">of_study_funding</text>
</g>
<!-- participant -->
<g id="node2" class="node">
<title>participant</title>
<path fill="none" stroke="#000000" d="M596,-179C596,-179 827,-179 827,-179 833,-179 839,-185 839,-191 839,-191 839,-282 839,-282 839,-288 833,-294 827,-294 827,-294 596,-294 596,-294 590,-294 584,-288 584,-282 584,-282 584,-191 584,-191 584,-185 590,-179 596,-179"/>
<text text-anchor="middle" x="632" y="-232.8" font-family="Times,serif" font-size="14.00" fill="#000000">participant</text>
<polyline fill="none" stroke="#000000" points="680,-179 680,-294 "/>
<text text-anchor="middle" x="690.5" y="-232.8" font-family="Times,serif" font-size="14.00" fill="#000000"> </text>
<polyline fill="none" stroke="#000000" points="701,-179 701,-294 "/>
<text text-anchor="middle" x="759.5" y="-278.8" font-family="Times,serif" font-size="14.00" fill="#000000">ethnicity</text>
<polyline fill="none" stroke="#000000" points="701,-271 818,-271 "/>
<text text-anchor="middle" x="759.5" y="-255.8" font-family="Times,serif" font-size="14.00" fill="#000000">gender</text>
<polyline fill="none" stroke="#000000" points="701,-248 818,-248 "/>
<text text-anchor="middle" x="759.5" y="-232.8" font-family="Times,serif" font-size="14.00" fill="#000000">participant_id</text>
<polyline fill="none" stroke="#000000" points="701,-225 818,-225 "/>
<text text-anchor="middle" x="759.5" y="-209.8" font-family="Times,serif" font-size="14.00" fill="#000000">race</text>
<polyline fill="none" stroke="#000000" points="701,-202 818,-202 "/>
<text text-anchor="middle" x="759.5" y="-186.8" font-family="Times,serif" font-size="14.00" fill="#000000">vital_status</text>
<polyline fill="none" stroke="#000000" points="818,-179 818,-294 "/>
<text text-anchor="middle" x="828.5" y="-232.8" font-family="Times,serif" font-size="14.00" fill="#000000"> </text>
</g>
<!-- participant&#45;&gt;study -->
<g id="edge7" class="edge">
<title>participant&#45;&gt;study</title>
<path fill="none" stroke="#000000" d="M732.3849,-178.9215C739.7506,-163.2932 749.1024,-147.0906 760.5,-134 763.9474,-130.0406 767.6484,-126.2016 771.5343,-122.4916"/>
<polygon fill="#000000" stroke="#000000" points="774.1648,-124.8308 779.217,-115.5181 769.46,-119.6476 774.1648,-124.8308"/>
<text text-anchor="middle" x="811" y="-137.8" font-family="Times,serif" font-size="14.00" fill="#000000">of_participant</text>
</g>
<!-- study_admin -->
<g id="node3" class="node">
<title>study_admin</title>
<path fill="none" stroke="#000000" d="M1118,-167.5C1118,-167.5 1389,-167.5 1389,-167.5 1395,-167.5 1401,-173.5 1401,-179.5 1401,-179.5 1401,-293.5 1401,-293.5 1401,-299.5 1395,-305.5 1389,-305.5 1389,-305.5 1118,-305.5 1118,-305.5 1112,-305.5 1106,-299.5 1106,-293.5 1106,-293.5 1106,-179.5 1106,-179.5 1106,-173.5 1112,-167.5 1118,-167.5"/>
<text text-anchor="middle" x="1160" y="-232.8" font-family="Times,serif" font-size="14.00" fill="#000000">study_admin</text>
<polyline fill="none" stroke="#000000" points="1214,-167.5 1214,-305.5 "/>
<text text-anchor="middle" x="1224.5" y="-232.8" font-family="Times,serif" font-size="14.00" fill="#000000"> </text>
<polyline fill="none" stroke="#000000" points="1235,-167.5 1235,-305.5 "/>
<text text-anchor="middle" x="1307.5" y="-290.3" font-family="Times,serif" font-size="14.00" fill="#000000">data_access_level</text>
<polyline fill="none" stroke="#000000" points="1235,-282.5 1380,-282.5 "/>
<text text-anchor="middle" x="1307.5" y="-267.3" font-family="Times,serif" font-size="14.00" fill="#000000">data_types</text>
<polyline fill="none" stroke="#000000" points="1235,-259.5 1380,-259.5 "/>
<text text-anchor="middle" x="1307.5" y="-244.3" font-family="Times,serif" font-size="14.00" fill="#000000">file_types</text>
<polyline fill="none" stroke="#000000" points="1235,-236.5 1380,-236.5 "/>
<text text-anchor="middle" x="1307.5" y="-221.3" font-family="Times,serif" font-size="14.00" fill="#000000">species</text>
<polyline fill="none" stroke="#000000" points="1235,-213.5 1380,-213.5 "/>
<text text-anchor="middle" x="1307.5" y="-198.3" font-family="Times,serif" font-size="14.00" fill="#000000">study_admin_id</text>
<polyline fill="none" stroke="#000000" points="1235,-190.5 1380,-190.5 "/>
<text text-anchor="middle" x="1307.5" y="-175.3" font-family="Times,serif" font-size="14.00" fill="#000000">study_type</text>
<polyline fill="none" stroke="#000000" points="1380,-167.5 1380,-305.5 "/>
<text text-anchor="middle" x="1390.5" y="-232.8" font-family="Times,serif" font-size="14.00" fill="#000000"> </text>
</g>
<!-- study_admin&#45;&gt;study -->
<g id="edge4" class="edge">
<title>study_admin&#45;&gt;study</title>
<path fill="none" stroke="#000000" d="M1107.3553,-167.4872C1074.1231,-151.7942 1039.0249,-135.2201 1006.4703,-119.8471"/>
<polygon fill="#000000" stroke="#000000" points="1007.8965,-116.65 997.3594,-115.5447 1004.9074,-122.9797 1007.8965,-116.65"/>
<text text-anchor="middle" x="1121" y="-137.8" font-family="Times,serif" font-size="14.00" fill="#000000">of_study_admin</text>
</g>
<!-- clinical_measure_file -->
<g id="node4" class="node">
<title>clinical_measure_file</title>
<path fill="none" stroke="#000000" d="M12,-403.5C12,-403.5 331,-403.5 331,-403.5 337,-403.5 343,-409.5 343,-415.5 343,-415.5 343,-552.5 343,-552.5 343,-558.5 337,-564.5 331,-564.5 331,-564.5 12,-564.5 12,-564.5 6,-564.5 0,-558.5 0,-552.5 0,-552.5 0,-415.5 0,-415.5 0,-409.5 6,-403.5 12,-403.5"/>
<text text-anchor="middle" x="83.5" y="-480.3" font-family="Times,serif" font-size="14.00" fill="#000000">clinical_measure_file</text>
<polyline fill="none" stroke="#000000" points="167,-403.5 167,-564.5 "/>
<text text-anchor="middle" x="177.5" y="-480.3" font-family="Times,serif" font-size="14.00" fill="#000000"> </text>
<polyline fill="none" stroke="#000000" points="188,-403.5 188,-564.5 "/>
<text text-anchor="middle" x="255" y="-549.3" font-family="Times,serif" font-size="14.00" fill="#000000">cds_url</text>
<polyline fill="none" stroke="#000000" points="188,-541.5 322,-541.5 "/>
<text text-anchor="middle" x="255" y="-526.3" font-family="Times,serif" font-size="14.00" fill="#000000">dcf_indexd_guid</text>
<polyline fill="none" stroke="#000000" points="188,-518.5 322,-518.5 "/>
<text text-anchor="middle" x="255" y="-503.3" font-family="Times,serif" font-size="14.00" fill="#000000">file_description</text>
<polyline fill="none" stroke="#000000" points="188,-495.5 322,-495.5 "/>
<text text-anchor="middle" x="255" y="-480.3" font-family="Times,serif" font-size="14.00" fill="#000000">file_name</text>
<polyline fill="none" stroke="#000000" points="188,-472.5 322,-472.5 "/>
<text text-anchor="middle" x="255" y="-457.3" font-family="Times,serif" font-size="14.00" fill="#000000">file_size</text>
<polyline fill="none" stroke="#000000" points="188,-449.5 322,-449.5 "/>
<text text-anchor="middle" x="255" y="-434.3" font-family="Times,serif" font-size="14.00" fill="#000000">file_type</text>
<polyline fill="none" stroke="#000000" points="188,-426.5 322,-426.5 "/>
<text text-anchor="middle" x="255" y="-411.3" font-family="Times,serif" font-size="14.00" fill="#000000">md5sum</text>
<polyline fill="none" stroke="#000000" points="322,-403.5 322,-564.5 "/>
<text text-anchor="middle" x="332.5" y="-480.3" font-family="Times,serif" font-size="14.00" fill="#000000"> </text>
</g>
<!-- clinical_measure_file&#45;&gt;participant -->
<g id="edge14" class="edge">
<title>clinical_measure_file&#45;&gt;participant</title>
<path fill="none" stroke="#000000" d="M263.1612,-403.3957C304.6565,-368.6926 349.8474,-333.8073 374.5,-324 457.4271,-291.0101 488.7181,-330.6311 574.5,-306 582.5148,-303.6987 590.6153,-300.9228 598.6611,-297.8226"/>
<polygon fill="#000000" stroke="#000000" points="600.0972,-301.0177 608.0727,-294.0433 597.4887,-294.5219 600.0972,-301.0177"/>
<text text-anchor="middle" x="504" y="-327.8" font-family="Times,serif" font-size="14.00" fill="#000000">of_clinical_measure_file_participant</text>
</g>
<!-- clinical_measure -->
<g id="node6" class="node">
<title>clinical_measure</title>
<path fill="none" stroke="#000000" d="M343,-218.5C343,-218.5 554,-218.5 554,-218.5 560,-218.5 566,-224.5 566,-230.5 566,-230.5 566,-242.5 566,-242.5 566,-248.5 560,-254.5 554,-254.5 554,-254.5 343,-254.5 343,-254.5 337,-254.5 331,-248.5 331,-242.5 331,-242.5 331,-230.5 331,-230.5 331,-224.5 337,-218.5 343,-218.5"/>
<text text-anchor="middle" x="399.5" y="-232.8" font-family="Times,serif" font-size="14.00" fill="#000000">clinical_measure</text>
<polyline fill="none" stroke="#000000" points="468,-218.5 468,-254.5 "/>
<text text-anchor="middle" x="478.5" y="-232.8" font-family="Times,serif" font-size="14.00" fill="#000000"> </text>
<polyline fill="none" stroke="#000000" points="489,-218.5 489,-254.5 "/>
<text text-anchor="middle" x="517" y="-232.8" font-family="Times,serif" font-size="14.00" fill="#000000">name</text>
<polyline fill="none" stroke="#000000" points="545,-218.5 545,-254.5 "/>
<text text-anchor="middle" x="555.5" y="-232.8" font-family="Times,serif" font-size="14.00" fill="#000000"> </text>
</g>
<!-- clinical_measure_file&#45;&gt;clinical_measure -->
<g id="edge13" class="edge">
<title>clinical_measure_file&#45;&gt;clinical_measure</title>
<path fill="none" stroke="#000000" d="M151.7039,-403.3272C149.6098,-375.1302 153.5461,-345.2473 172.5,-324 194.7018,-299.1118 289.7427,-316.1893 321.5,-306 354.7513,-295.3313 389.3178,-275.7717 413.9778,-260.1143"/>
<polygon fill="#000000" stroke="#000000" points="416.095,-262.9134 422.5941,-254.546 412.2956,-257.0342 416.095,-262.9134"/>
<text text-anchor="middle" x="258.5" y="-327.8" font-family="Times,serif" font-size="14.00" fill="#000000">of_clinical_measure_file</text>
</g>
<!-- study_personnel -->
<g id="node5" class="node">
<title>study_personnel</title>
<path fill="none" stroke="#000000" d="M1431,-179C1431,-179 1738,-179 1738,-179 1744,-179 1750,-185 1750,-191 1750,-191 1750,-282 1750,-282 1750,-288 1744,-294 1738,-294 1738,-294 1431,-294 1431,-294 1425,-294 1419,-288 1419,-282 1419,-282 1419,-191 1419,-191 1419,-185 1425,-179 1431,-179"/>
<text text-anchor="middle" x="1486" y="-232.8" font-family="Times,serif" font-size="14.00" fill="#000000">study_personnel</text>
<polyline fill="none" stroke="#000000" points="1553,-179 1553,-294 "/>
<text text-anchor="middle" x="1563.5" y="-232.8" font-family="Times,serif" font-size="14.00" fill="#000000"> </text>
<polyline fill="none" stroke="#000000" points="1574,-179 1574,-294 "/>
<text text-anchor="middle" x="1651.5" y="-278.8" font-family="Times,serif" font-size="14.00" fill="#000000">email_address</text>
<polyline fill="none" stroke="#000000" points="1574,-271 1729,-271 "/>
<text text-anchor="middle" x="1651.5" y="-255.8" font-family="Times,serif" font-size="14.00" fill="#000000">institution</text>
<polyline fill="none" stroke="#000000" points="1574,-248 1729,-248 "/>
<text text-anchor="middle" x="1651.5" y="-232.8" font-family="Times,serif" font-size="14.00" fill="#000000">personnel_name</text>
<polyline fill="none" stroke="#000000" points="1574,-225 1729,-225 "/>
<text text-anchor="middle" x="1651.5" y="-209.8" font-family="Times,serif" font-size="14.00" fill="#000000">personnel_type</text>
<polyline fill="none" stroke="#000000" points="1574,-202 1729,-202 "/>
<text text-anchor="middle" x="1651.5" y="-186.8" font-family="Times,serif" font-size="14.00" fill="#000000">study_personnel_id</text>
<polyline fill="none" stroke="#000000" points="1729,-179 1729,-294 "/>
<text text-anchor="middle" x="1739.5" y="-232.8" font-family="Times,serif" font-size="14.00" fill="#000000"> </text>
</g>
<!-- study_personnel&#45;&gt;study -->
<g id="edge11" class="edge">
<title>study_personnel&#45;&gt;study</title>
<path fill="none" stroke="#000000" d="M1446.6277,-178.8418C1434.5041,-174.5614 1422.3431,-170.5406 1410.5,-167 1280.5981,-128.165 1128.8408,-98.699 1020.2031,-80.2561"/>
<polygon fill="#000000" stroke="#000000" points="1020.5996,-76.7736 1010.1566,-78.5611 1019.435,-83.676 1020.5996,-76.7736"/>
<text text-anchor="middle" x="1408" y="-137.8" font-family="Times,serif" font-size="14.00" fill="#000000">of_study_personnel</text>
</g>
<!-- clinical_measure&#45;&gt;study -->
<g id="edge10" class="edge">
<title>clinical_measure&#45;&gt;study</title>
<path fill="none" stroke="#000000" d="M470.8043,-218.474C499.7938,-195.8429 552.7306,-157.1836 603.5,-134 643.5329,-115.7191 688.9311,-100.9146 731.0108,-89.3959"/>
<polygon fill="#000000" stroke="#000000" points="732.0346,-92.745 740.7797,-86.7639 730.2135,-85.986 732.0346,-92.745"/>
<text text-anchor="middle" x="674.5" y="-137.8" font-family="Times,serif" font-size="14.00" fill="#000000">of_clinical_measure</text>
</g>
<!-- imaging_file -->
<g id="node7" class="node">
<title>imaging_file</title>
<path fill="none" stroke="#000000" d="M736,-720C736,-720 1005,-720 1005,-720 1011,-720 1017,-726 1017,-732 1017,-732 1017,-961 1017,-961 1017,-967 1011,-973 1005,-973 1005,-973 736,-973 736,-973 730,-973 724,-967 724,-961 724,-961 724,-732 724,-732 724,-726 730,-720 736,-720"/>
<text text-anchor="middle" x="776" y="-842.8" font-family="Times,serif" font-size="14.00" fill="#000000">imaging_file</text>
<polyline fill="none" stroke="#000000" points="828,-720 828,-973 "/>
<text text-anchor="middle" x="838.5" y="-842.8" font-family="Times,serif" font-size="14.00" fill="#000000"> </text>
<polyline fill="none" stroke="#000000" points="849,-720 849,-973 "/>
<text text-anchor="middle" x="922.5" y="-957.8" font-family="Times,serif" font-size="14.00" fill="#000000">cds_url</text>
<polyline fill="none" stroke="#000000" points="849,-950 996,-950 "/>
<text text-anchor="middle" x="922.5" y="-934.8" font-family="Times,serif" font-size="14.00" fill="#000000">dcf_indexd_guid</text>
<polyline fill="none" stroke="#000000" points="849,-927 996,-927 "/>
<text text-anchor="middle" x="922.5" y="-911.8" font-family="Times,serif" font-size="14.00" fill="#000000">file_description</text>
<polyline fill="none" stroke="#000000" points="849,-904 996,-904 "/>
<text text-anchor="middle" x="922.5" y="-888.8" font-family="Times,serif" font-size="14.00" fill="#000000">file_name</text>
<polyline fill="none" stroke="#000000" points="849,-881 996,-881 "/>
<text text-anchor="middle" x="922.5" y="-865.8" font-family="Times,serif" font-size="14.00" fill="#000000">file_size</text>
<polyline fill="none" stroke="#000000" points="849,-858 996,-858 "/>
<text text-anchor="middle" x="922.5" y="-842.8" font-family="Times,serif" font-size="14.00" fill="#000000">file_type</text>
<polyline fill="none" stroke="#000000" points="849,-835 996,-835 "/>
<text text-anchor="middle" x="922.5" y="-819.8" font-family="Times,serif" font-size="14.00" fill="#000000">image_modality</text>
<polyline fill="none" stroke="#000000" points="849,-812 996,-812 "/>
<text text-anchor="middle" x="922.5" y="-796.8" font-family="Times,serif" font-size="14.00" fill="#000000">instrument_model</text>
<polyline fill="none" stroke="#000000" points="849,-789 996,-789 "/>
<text text-anchor="middle" x="922.5" y="-773.8" font-family="Times,serif" font-size="14.00" fill="#000000">md5sum</text>
<polyline fill="none" stroke="#000000" points="849,-766 996,-766 "/>
<text text-anchor="middle" x="922.5" y="-750.8" font-family="Times,serif" font-size="14.00" fill="#000000">platform</text>
<polyline fill="none" stroke="#000000" points="849,-743 996,-743 "/>
<text text-anchor="middle" x="922.5" y="-727.8" font-family="Times,serif" font-size="14.00" fill="#000000">software_package</text>
<polyline fill="none" stroke="#000000" points="996,-720 996,-973 "/>
<text text-anchor="middle" x="1006.5" y="-842.8" font-family="Times,serif" font-size="14.00" fill="#000000"> </text>
</g>
<!-- sample -->
<g id="node8" class="node">
<title>sample</title>
<path fill="none" stroke="#000000" d="M728.5,-357.5C728.5,-357.5 1042.5,-357.5 1042.5,-357.5 1048.5,-357.5 1054.5,-363.5 1054.5,-369.5 1054.5,-369.5 1054.5,-598.5 1054.5,-598.5 1054.5,-604.5 1048.5,-610.5 1042.5,-610.5 1042.5,-610.5 728.5,-610.5 728.5,-610.5 722.5,-610.5 716.5,-604.5 716.5,-598.5 716.5,-598.5 716.5,-369.5 716.5,-369.5 716.5,-363.5 722.5,-357.5 728.5,-357.5"/>
<text text-anchor="middle" x="750.5" y="-480.3" font-family="Times,serif" font-size="14.00" fill="#000000">sample</text>
<polyline fill="none" stroke="#000000" points="784.5,-357.5 784.5,-610.5 "/>
<text text-anchor="middle" x="795" y="-480.3" font-family="Times,serif" font-size="14.00" fill="#000000"> </text>
<polyline fill="none" stroke="#000000" points="805.5,-357.5 805.5,-610.5 "/>
<text text-anchor="middle" x="919.5" y="-595.3" font-family="Times,serif" font-size="14.00" fill="#000000">anatomic_site</text>
<polyline fill="none" stroke="#000000" points="805.5,-587.5 1033.5,-587.5 "/>
<text text-anchor="middle" x="919.5" y="-572.3" font-family="Times,serif" font-size="14.00" fill="#000000">dbgap_sample_id</text>
<polyline fill="none" stroke="#000000" points="805.5,-564.5 1033.5,-564.5 "/>
<text text-anchor="middle" x="919.5" y="-549.3" font-family="Times,serif" font-size="14.00" fill="#000000">disease_type</text>
<polyline fill="none" stroke="#000000" points="805.5,-541.5 1033.5,-541.5 "/>
<text text-anchor="middle" x="919.5" y="-526.3" font-family="Times,serif" font-size="14.00" fill="#000000">participant_age_at_collection</text>
<polyline fill="none" stroke="#000000" points="805.5,-518.5 1033.5,-518.5 "/>
<text text-anchor="middle" x="919.5" y="-503.3" font-family="Times,serif" font-size="14.00" fill="#000000">sample_id</text>
<polyline fill="none" stroke="#000000" points="805.5,-495.5 1033.5,-495.5 "/>
<text text-anchor="middle" x="919.5" y="-480.3" font-family="Times,serif" font-size="14.00" fill="#000000">sample_type</text>
<polyline fill="none" stroke="#000000" points="805.5,-472.5 1033.5,-472.5 "/>
<text text-anchor="middle" x="919.5" y="-457.3" font-family="Times,serif" font-size="14.00" fill="#000000">tumor_grade</text>
<polyline fill="none" stroke="#000000" points="805.5,-449.5 1033.5,-449.5 "/>
<text text-anchor="middle" x="919.5" y="-434.3" font-family="Times,serif" font-size="14.00" fill="#000000">tumor_incidence_type</text>
<polyline fill="none" stroke="#000000" points="805.5,-426.5 1033.5,-426.5 "/>
<text text-anchor="middle" x="919.5" y="-411.3" font-family="Times,serif" font-size="14.00" fill="#000000">tumor_morphology</text>
<polyline fill="none" stroke="#000000" points="805.5,-403.5 1033.5,-403.5 "/>
<text text-anchor="middle" x="919.5" y="-388.3" font-family="Times,serif" font-size="14.00" fill="#000000">tumor_stage</text>
<polyline fill="none" stroke="#000000" points="805.5,-380.5 1033.5,-380.5 "/>
<text text-anchor="middle" x="919.5" y="-365.3" font-family="Times,serif" font-size="14.00" fill="#000000">tumor_status</text>
<polyline fill="none" stroke="#000000" points="1033.5,-357.5 1033.5,-610.5 "/>
<text text-anchor="middle" x="1044" y="-480.3" font-family="Times,serif" font-size="14.00" fill="#000000"> </text>
</g>
<!-- imaging_file&#45;&gt;sample -->
<g id="edge9" class="edge">
<title>imaging_file&#45;&gt;sample</title>
<path fill="none" stroke="#000000" d="M842.5272,-719.8943C839.1673,-690.0595 838.2342,-658.3882 842.5,-629 842.8931,-626.2919 843.3254,-623.564 843.7932,-620.8223"/>
<polygon fill="#000000" stroke="#000000" points="847.2612,-621.3157 845.6348,-610.8465 840.3775,-620.0449 847.2612,-621.3157"/>
<text text-anchor="middle" x="897" y="-632.8" font-family="Times,serif" font-size="14.00" fill="#000000">of_imaging_file</text>
</g>
<!-- experiment -->
<g id="node9" class="node">
<title>experiment</title>
<path fill="none" stroke="#000000" d="M1084.5,-461C1084.5,-461 1352.5,-461 1352.5,-461 1358.5,-461 1364.5,-467 1364.5,-473 1364.5,-473 1364.5,-495 1364.5,-495 1364.5,-501 1358.5,-507 1352.5,-507 1352.5,-507 1084.5,-507 1084.5,-507 1078.5,-507 1072.5,-501 1072.5,-495 1072.5,-495 1072.5,-473 1072.5,-473 1072.5,-467 1078.5,-461 1084.5,-461"/>
<text text-anchor="middle" x="1121.5" y="-480.3" font-family="Times,serif" font-size="14.00" fill="#000000">experiment</text>
<polyline fill="none" stroke="#000000" points="1170.5,-461 1170.5,-507 "/>
<text text-anchor="middle" x="1181" y="-480.3" font-family="Times,serif" font-size="14.00" fill="#000000"> </text>
<polyline fill="none" stroke="#000000" points="1191.5,-461 1191.5,-507 "/>
<text text-anchor="middle" x="1267.5" y="-491.8" font-family="Times,serif" font-size="14.00" fill="#000000">design_description</text>
<polyline fill="none" stroke="#000000" points="1191.5,-484 1343.5,-484 "/>
<text text-anchor="middle" x="1267.5" y="-468.8" font-family="Times,serif" font-size="14.00" fill="#000000">experiment_id</text>
<polyline fill="none" stroke="#000000" points="1343.5,-461 1343.5,-507 "/>
<text text-anchor="middle" x="1354" y="-480.3" font-family="Times,serif" font-size="14.00" fill="#000000"> </text>
</g>
<!-- imaging_file&#45;&gt;experiment -->
<g id="edge8" class="edge">
<title>imaging_file&#45;&gt;experiment</title>
<path fill="none" stroke="#000000" d="M907.501,-719.9596C923.1176,-685.9181 944.7913,-652.1602 974.5,-629 1006.3277,-604.1879 1027.0391,-628.2986 1063.5,-611 1113.5592,-587.2498 1161.3247,-543.8952 1190.2747,-514.5222"/>
<polygon fill="#000000" stroke="#000000" points="1193.1173,-516.619 1197.5732,-507.0067 1188.0956,-511.7422 1193.1173,-516.619"/>
<text text-anchor="middle" x="1029" y="-632.8" font-family="Times,serif" font-size="14.00" fill="#000000">of_imaging_file</text>
</g>
<!-- sample&#45;&gt;participant -->
<g id="edge3" class="edge">
<title>sample&#45;&gt;participant</title>
<path fill="none" stroke="#000000" d="M796.4611,-357.3498C783.0961,-338.3393 769.7953,-319.42 757.8212,-302.3879"/>
<polygon fill="#000000" stroke="#000000" points="760.6696,-300.3539 752.0551,-294.1861 754.9432,-304.3798 760.6696,-300.3539"/>
<text text-anchor="middle" x="820" y="-327.8" font-family="Times,serif" font-size="14.00" fill="#000000">of_sample</text>
</g>
<!-- sample&#45;&gt;study -->
<g id="edge2" class="edge">
<title>sample&#45;&gt;study</title>
<path fill="none" stroke="#000000" d="M882.5267,-357.3393C880.7434,-281.3686 878.546,-187.7585 877.0882,-125.6588"/>
<polygon fill="#000000" stroke="#000000" points="880.5857,-125.504 876.8519,-115.5889 873.5876,-125.6683 880.5857,-125.504"/>
<text text-anchor="middle" x="918" y="-232.8" font-family="Times,serif" font-size="14.00" fill="#000000">of_sample</text>
</g>
<!-- experiment&#45;&gt;study -->
<g id="edge15" class="edge">
<title>experiment&#45;&gt;study</title>
<path fill="none" stroke="#000000" d="M1191.1168,-460.8669C1160.4032,-435.0846 1108.9325,-392.3675 1063.5,-357 1033.4086,-333.575 1015.8385,-337.6053 994.5,-306 958.791,-253.1099 986.3791,-224.4043 958.5,-167 951.3578,-152.2939 942.0675,-137.6271 932.2975,-124.0387"/>
<polygon fill="#000000" stroke="#000000" points="934.9195,-121.6971 926.1672,-115.7266 929.2859,-125.852 934.9195,-121.6971"/>
<text text-anchor="middle" x="1046" y="-232.8" font-family="Times,serif" font-size="14.00" fill="#000000">of_experiment</text>
</g>
<!-- diagnosis -->
<g id="node10" class="node">
<title>diagnosis</title>
<path fill="none" stroke="#000000" d="M372.5,-403.5C372.5,-403.5 686.5,-403.5 686.5,-403.5 692.5,-403.5 698.5,-409.5 698.5,-415.5 698.5,-415.5 698.5,-552.5 698.5,-552.5 698.5,-558.5 692.5,-564.5 686.5,-564.5 686.5,-564.5 372.5,-564.5 372.5,-564.5 366.5,-564.5 360.5,-558.5 360.5,-552.5 360.5,-552.5 360.5,-415.5 360.5,-415.5 360.5,-409.5 366.5,-403.5 372.5,-403.5"/>
<text text-anchor="middle" x="402.5" y="-480.3" font-family="Times,serif" font-size="14.00" fill="#000000">diagnosis</text>
<polyline fill="none" stroke="#000000" points="444.5,-403.5 444.5,-564.5 "/>
<text text-anchor="middle" x="455" y="-480.3" font-family="Times,serif" font-size="14.00" fill="#000000"> </text>
<polyline fill="none" stroke="#000000" points="465.5,-403.5 465.5,-564.5 "/>
<text text-anchor="middle" x="571.5" y="-549.3" font-family="Times,serif" font-size="14.00" fill="#000000">age_at_diagnosis</text>
<polyline fill="none" stroke="#000000" points="465.5,-541.5 677.5,-541.5 "/>
<text text-anchor="middle" x="571.5" y="-526.3" font-family="Times,serif" font-size="14.00" fill="#000000">days_to_last_known_status</text>
<polyline fill="none" stroke="#000000" points="465.5,-518.5 677.5,-518.5 "/>
<text text-anchor="middle" x="571.5" y="-503.3" font-family="Times,serif" font-size="14.00" fill="#000000">days_to_recurrence</text>
<polyline fill="none" stroke="#000000" points="465.5,-495.5 677.5,-495.5 "/>
<text text-anchor="middle" x="571.5" y="-480.3" font-family="Times,serif" font-size="14.00" fill="#000000">diagnosis_id</text>
<polyline fill="none" stroke="#000000" points="465.5,-472.5 677.5,-472.5 "/>
<text text-anchor="middle" x="571.5" y="-457.3" font-family="Times,serif" font-size="14.00" fill="#000000">last_known_disease_status</text>
<polyline fill="none" stroke="#000000" points="465.5,-449.5 677.5,-449.5 "/>
<text text-anchor="middle" x="571.5" y="-434.3" font-family="Times,serif" font-size="14.00" fill="#000000">primary_diagnosis</text>
<polyline fill="none" stroke="#000000" points="465.5,-426.5 677.5,-426.5 "/>
<text text-anchor="middle" x="571.5" y="-411.3" font-family="Times,serif" font-size="14.00" fill="#000000">primary_site</text>
<polyline fill="none" stroke="#000000" points="677.5,-403.5 677.5,-564.5 "/>
<text text-anchor="middle" x="688" y="-480.3" font-family="Times,serif" font-size="14.00" fill="#000000"> </text>
</g>
<!-- diagnosis&#45;&gt;participant -->
<g id="edge1" class="edge">
<title>diagnosis&#45;&gt;participant</title>
<path fill="none" stroke="#000000" d="M588.8418,-403.3017C612.8381,-370.6694 640.1895,-333.4744 662.9658,-302.5012"/>
<polygon fill="#000000" stroke="#000000" points="665.852,-304.4842 668.9565,-294.3544 660.2126,-300.3372 665.852,-304.4842"/>
<text text-anchor="middle" x="687" y="-327.8" font-family="Times,serif" font-size="14.00" fill="#000000">of_diagnosis</text>
</g>
<!-- sequencing_file -->
<g id="node11" class="node">
<title>sequencing_file</title>
<path fill="none" stroke="#000000" d="M1061.5,-662.5C1061.5,-662.5 1431.5,-662.5 1431.5,-662.5 1437.5,-662.5 1443.5,-668.5 1443.5,-674.5 1443.5,-674.5 1443.5,-1018.5 1443.5,-1018.5 1443.5,-1024.5 1437.5,-1030.5 1431.5,-1030.5 1431.5,-1030.5 1061.5,-1030.5 1061.5,-1030.5 1055.5,-1030.5 1049.5,-1024.5 1049.5,-1018.5 1049.5,-1018.5 1049.5,-674.5 1049.5,-674.5 1049.5,-668.5 1055.5,-662.5 1061.5,-662.5"/>
<text text-anchor="middle" x="1113.5" y="-842.8" font-family="Times,serif" font-size="14.00" fill="#000000">sequencing_file</text>
<polyline fill="none" stroke="#000000" points="1177.5,-662.5 1177.5,-1030.5 "/>
<text text-anchor="middle" x="1188" y="-842.8" font-family="Times,serif" font-size="14.00" fill="#000000"> </text>
<polyline fill="none" stroke="#000000" points="1198.5,-662.5 1198.5,-1030.5 "/>
<text text-anchor="middle" x="1310.5" y="-1015.3" font-family="Times,serif" font-size="14.00" fill="#000000">average_read_length</text>
<polyline fill="none" stroke="#000000" points="1198.5,-1007.5 1422.5,-1007.5 "/>
<text text-anchor="middle" x="1310.5" y="-992.3" font-family="Times,serif" font-size="14.00" fill="#000000">cds_url</text>
<polyline fill="none" stroke="#000000" points="1198.5,-984.5 1422.5,-984.5 "/>
<text text-anchor="middle" x="1310.5" y="-969.3" font-family="Times,serif" font-size="14.00" fill="#000000">coverage</text>
<polyline fill="none" stroke="#000000" points="1198.5,-961.5 1422.5,-961.5 "/>
<text text-anchor="middle" x="1310.5" y="-946.3" font-family="Times,serif" font-size="14.00" fill="#000000">dcf_indexd_guid</text>
<polyline fill="none" stroke="#000000" points="1198.5,-938.5 1422.5,-938.5 "/>
<text text-anchor="middle" x="1310.5" y="-923.3" font-family="Times,serif" font-size="14.00" fill="#000000">file_description</text>
<polyline fill="none" stroke="#000000" points="1198.5,-915.5 1422.5,-915.5 "/>
<text text-anchor="middle" x="1310.5" y="-900.3" font-family="Times,serif" font-size="14.00" fill="#000000">file_name</text>
<polyline fill="none" stroke="#000000" points="1198.5,-892.5 1422.5,-892.5 "/>
<text text-anchor="middle" x="1310.5" y="-877.3" font-family="Times,serif" font-size="14.00" fill="#000000">file_size</text>
<polyline fill="none" stroke="#000000" points="1198.5,-869.5 1422.5,-869.5 "/>
<text text-anchor="middle" x="1310.5" y="-854.3" font-family="Times,serif" font-size="14.00" fill="#000000">file_type</text>
<polyline fill="none" stroke="#000000" points="1198.5,-846.5 1422.5,-846.5 "/>
<text text-anchor="middle" x="1310.5" y="-831.3" font-family="Times,serif" font-size="14.00" fill="#000000">library_id</text>
<polyline fill="none" stroke="#000000" points="1198.5,-823.5 1422.5,-823.5 "/>
<text text-anchor="middle" x="1310.5" y="-808.3" font-family="Times,serif" font-size="14.00" fill="#000000">library_layout</text>
<polyline fill="none" stroke="#000000" points="1198.5,-800.5 1422.5,-800.5 "/>
<text text-anchor="middle" x="1310.5" y="-785.3" font-family="Times,serif" font-size="14.00" fill="#000000">library_source</text>
<polyline fill="none" stroke="#000000" points="1198.5,-777.5 1422.5,-777.5 "/>
<text text-anchor="middle" x="1310.5" y="-762.3" font-family="Times,serif" font-size="14.00" fill="#000000">library_strategy</text>
<polyline fill="none" stroke="#000000" points="1198.5,-754.5 1422.5,-754.5 "/>
<text text-anchor="middle" x="1310.5" y="-739.3" font-family="Times,serif" font-size="14.00" fill="#000000">md5sum</text>
<polyline fill="none" stroke="#000000" points="1198.5,-731.5 1422.5,-731.5 "/>
<text text-anchor="middle" x="1310.5" y="-716.3" font-family="Times,serif" font-size="14.00" fill="#000000">number_of_bp</text>
<polyline fill="none" stroke="#000000" points="1198.5,-708.5 1422.5,-708.5 "/>
<text text-anchor="middle" x="1310.5" y="-693.3" font-family="Times,serif" font-size="14.00" fill="#000000">number_of_reads</text>
<polyline fill="none" stroke="#000000" points="1198.5,-685.5 1422.5,-685.5 "/>
<text text-anchor="middle" x="1310.5" y="-670.3" font-family="Times,serif" font-size="14.00" fill="#000000">reference_genome_assembly</text>
<polyline fill="none" stroke="#000000" points="1422.5,-662.5 1422.5,-1030.5 "/>
<text text-anchor="middle" x="1433" y="-842.8" font-family="Times,serif" font-size="14.00" fill="#000000"> </text>
</g>
<!-- sequencing_file&#45;&gt;sample -->
<g id="edge5" class="edge">
<title>sequencing_file&#45;&gt;sample</title>
<path fill="none" stroke="#000000" d="M1114.9213,-662.459C1104.6694,-650.8028 1094.1522,-639.5352 1083.5,-629 1078.4039,-623.9599 1071.2275,-617.7401 1062.6054,-610.7377"/>
<polygon fill="#000000" stroke="#000000" points="1064.6679,-607.9055 1054.6723,-604.3927 1060.2956,-613.3721 1064.6679,-607.9055"/>
<text text-anchor="middle" x="1160" y="-632.8" font-family="Times,serif" font-size="14.00" fill="#000000">of_sequencing_file</text>
</g>
<!-- sequencing_file&#45;&gt;experiment -->
<g id="edge6" class="edge">
<title>sequencing_file&#45;&gt;experiment</title>
<path fill="none" stroke="#000000" d="M1242.0204,-662.4845C1241.2975,-651.146 1240.4629,-639.9138 1239.5,-629 1236.0954,-590.4113 1229.3094,-546.4181 1224.3702,-517.1081"/>
<polygon fill="#000000" stroke="#000000" points="1227.7792,-516.2782 1222.6437,-507.0112 1220.8793,-517.458 1227.7792,-516.2782"/>
<text text-anchor="middle" x="1306" y="-632.8" font-family="Times,serif" font-size="14.00" fill="#000000">of_sequencing_file</text>
</g>
<!-- alias -->
<g id="node12" class="node">
<title>alias</title>
<path fill="none" stroke="#000000" d="M1474,-800.5C1474,-800.5 1679,-800.5 1679,-800.5 1685,-800.5 1691,-806.5 1691,-812.5 1691,-812.5 1691,-880.5 1691,-880.5 1691,-886.5 1685,-892.5 1679,-892.5 1679,-892.5 1474,-892.5 1474,-892.5 1468,-892.5 1462,-886.5 1462,-880.5 1462,-880.5 1462,-812.5 1462,-812.5 1462,-806.5 1468,-800.5 1474,-800.5"/>
<text text-anchor="middle" x="1487" y="-842.8" font-family="Times,serif" font-size="14.00" fill="#000000">alias</text>
<polyline fill="none" stroke="#000000" points="1512,-800.5 1512,-892.5 "/>
<text text-anchor="middle" x="1522.5" y="-842.8" font-family="Times,serif" font-size="14.00" fill="#000000"> </text>
<polyline fill="none" stroke="#000000" points="1533,-800.5 1533,-892.5 "/>
<text text-anchor="middle" x="1601.5" y="-877.3" font-family="Times,serif" font-size="14.00" fill="#000000">cds_id</text>
<polyline fill="none" stroke="#000000" points="1533,-869.5 1670,-869.5 "/>
<text text-anchor="middle" x="1601.5" y="-854.3" font-family="Times,serif" font-size="14.00" fill="#000000">cds_node</text>
<polyline fill="none" stroke="#000000" points="1533,-846.5 1670,-846.5 "/>
<text text-anchor="middle" x="1601.5" y="-831.3" font-family="Times,serif" font-size="14.00" fill="#000000">repository_id</text>
<polyline fill="none" stroke="#000000" points="1533,-823.5 1670,-823.5 "/>
<text text-anchor="middle" x="1601.5" y="-808.3" font-family="Times,serif" font-size="14.00" fill="#000000">repository_name</text>
<polyline fill="none" stroke="#000000" points="1670,-800.5 1670,-892.5 "/>
<text text-anchor="middle" x="1680.5" y="-842.8" font-family="Times,serif" font-size="14.00" fill="#000000"> </text>
</g>
</g>
</svg>
