<svg width="2789pt" height="305pt"
 viewBox="0.00 0.00 2789.24 305.00" xmlns="http://www.w3.org/2000/svg" xmlns:xlink="http://www.w3.org/1999/xlink">
<g id="graph0" class="graph" transform="scale(1 1) rotate(0) translate(4 301)">
<title>Perl</title>
<polygon fill="#ffffff" stroke="transparent" points="-4,4 -4,-301 2785.2382,-301 2785.2382,4 -4,4"/>
<!-- study_admin -->
<g id="node1" class="node">
<title>study_admin</title>
<ellipse fill="none" stroke="#000000" cx="70.1938" cy="-105" rx="70.3881" ry="18"/>
<text text-anchor="middle" x="70.1938" y="-101.3" font-family="Times,serif" font-size="14.00" fill="#000000">study_admin</text>
</g>
<!-- study -->
<g id="node21" class="node">
<title>study</title>
<ellipse fill="none" stroke="#000000" cx="1023.1938" cy="-18" rx="36.2938" ry="18"/>
<text text-anchor="middle" x="1023.1938" y="-14.3" font-family="Times,serif" font-size="14.00" fill="#000000">study</text>
</g>
<!-- study_admin&#45;&gt;study -->
<g id="edge5" class="edge">
<title>study_admin&#45;&gt;study</title>
<path fill="none" stroke="#000000" d="M64.9055,-86.5656C62.9935,-75.6394 63.0034,-62.3407 71.1938,-54 87.2231,-37.6764 787.0494,-22.6709 976.3866,-18.9045"/>
<polygon fill="#000000" stroke="#000000" points="976.641,-22.4002 986.5697,-18.703 976.5024,-15.4016 976.641,-22.4002"/>
<text text-anchor="middle" x="127.6938" y="-57.8" font-family="Times,serif" font-size="14.00" fill="#000000">of_study_admin</text>
</g>
<!-- pdx -->
<g id="node2" class="node">
<title>pdx</title>
<ellipse fill="none" stroke="#000000" cx="231.1938" cy="-279" rx="27.8951" ry="18"/>
<text text-anchor="middle" x="231.1938" y="-275.3" font-family="Times,serif" font-size="14.00" fill="#000000">pdx</text>
</g>
<!-- sample -->
<g id="node5" class="node">
<title>sample</title>
<ellipse fill="none" stroke="#000000" cx="705.1938" cy="-192" rx="44.393" ry="18"/>
<text text-anchor="middle" x="705.1938" y="-188.3" font-family="Times,serif" font-size="14.00" fill="#000000">sample</text>
</g>
<!-- pdx&#45;&gt;sample -->
<g id="edge24" class="edge">
<title>pdx&#45;&gt;sample</title>
<path fill="none" stroke="#000000" d="M253.0491,-267.3353C276.5799,-255.3503 315.4576,-237.1862 351.1938,-228 406.4746,-213.7897 566.4026,-201.3365 651.0949,-195.5081"/>
<polygon fill="#000000" stroke="#000000" points="651.5476,-198.9855 661.2865,-194.8137 651.0717,-192.0017 651.5476,-198.9855"/>
<text text-anchor="middle" x="375.1938" y="-231.8" font-family="Times,serif" font-size="14.00" fill="#000000">of_pdx</text>
</g>
<!-- pdx&#45;&gt;study -->
<g id="edge25" class="edge">
<title>pdx&#45;&gt;study</title>
<path fill="none" stroke="#000000" d="M222.291,-261.6587C218.2366,-251.1439 215.6389,-237.8937 222.1938,-228 333.7886,-59.5617 445.3883,-99.7438 642.1938,-54 704.6921,-39.4734 889.7662,-26.3741 976.8755,-20.8175"/>
<polygon fill="#000000" stroke="#000000" points="977.2388,-24.3017 986.9981,-20.1777 976.7972,-17.3156 977.2388,-24.3017"/>
<text text-anchor="middle" x="325.1938" y="-144.8" font-family="Times,serif" font-size="14.00" fill="#000000">of_pdx</text>
</g>
<!-- treatment_response -->
<g id="node3" class="node">
<title>treatment_response</title>
<ellipse fill="none" stroke="#000000" cx="1387.1938" cy="-192" rx="104.7816" ry="18"/>
<text text-anchor="middle" x="1387.1938" y="-188.3" font-family="Times,serif" font-size="14.00" fill="#000000">treatment_response</text>
</g>
<!-- participant -->
<g id="node16" class="node">
<title>participant</title>
<ellipse fill="none" stroke="#000000" cx="1370.1938" cy="-105" rx="62.2891" ry="18"/>
<text text-anchor="middle" x="1370.1938" y="-101.3" font-family="Times,serif" font-size="14.00" fill="#000000">participant</text>
</g>
<!-- treatment_response&#45;&gt;participant -->
<g id="edge11" class="edge">
<title>treatment_response&#45;&gt;participant</title>
<path fill="none" stroke="#000000" d="M1377.4222,-173.7992C1374.905,-168.2419 1372.5306,-162.0086 1371.1938,-156 1369.5728,-148.7143 1368.9108,-140.698 1368.752,-133.222"/>
<polygon fill="#000000" stroke="#000000" points="1372.2523,-133.167 1368.8151,-123.1452 1365.2525,-133.1231 1372.2523,-133.167"/>
<text text-anchor="middle" x="1454.1938" y="-144.8" font-family="Times,serif" font-size="14.00" fill="#000000">of_treatment_response</text>
</g>
<!-- cytogenomic_file -->
<g id="node4" class="node">
<title>cytogenomic_file</title>
<ellipse fill="none" stroke="#000000" cx="374.1938" cy="-279" rx="89.8845" ry="18"/>
<text text-anchor="middle" x="374.1938" y="-275.3" font-family="Times,serif" font-size="14.00" fill="#000000">cytogenomic_file</text>
</g>
<!-- cytogenomic_file&#45;&gt;sample -->
<g id="edge2" class="edge">
<title>cytogenomic_file&#45;&gt;sample</title>
<path fill="none" stroke="#000000" d="M386.2338,-260.8349C394.833,-249.4299 407.4589,-235.5054 422.1938,-228 461.0502,-208.2079 580.3501,-198.6108 651.0427,-194.5479"/>
<polygon fill="#000000" stroke="#000000" points="651.3147,-198.0383 661.1047,-193.988 650.9257,-191.0491 651.3147,-198.0383"/>
<text text-anchor="middle" x="493.6938" y="-231.8" font-family="Times,serif" font-size="14.00" fill="#000000">of_cytogenomic_file</text>
</g>
<!-- sample&#45;&gt;pdx -->
<g id="edge17" class="edge">
<title>sample&#45;&gt;pdx</title>
<path fill="none" stroke="#000000" d="M661.0341,-193.7671C546.3311,-198.5676 246.8137,-212.532 232.1938,-228 226.3986,-234.1313 224.7781,-242.7619 225.0277,-251.1825"/>
<polygon fill="#000000" stroke="#000000" points="221.5525,-251.6007 226.1048,-261.1677 228.5121,-250.8499 221.5525,-251.6007"/>
<text text-anchor="middle" x="268.6938" y="-231.8" font-family="Times,serif" font-size="14.00" fill="#000000">of_sample</text>
</g>
<!-- cell_line -->
<g id="node11" class="node">
<title>cell_line</title>
<ellipse fill="none" stroke="#000000" cx="613.1938" cy="-105" rx="49.2915" ry="18"/>
<text text-anchor="middle" x="613.1938" y="-101.3" font-family="Times,serif" font-size="14.00" fill="#000000">cell_line</text>
</g>
<!-- sample&#45;&gt;cell_line -->
<g id="edge16" class="edge">
<title>sample&#45;&gt;cell_line</title>
<path fill="none" stroke="#000000" d="M666.8935,-182.9106C642.2516,-176.1994 613.512,-166.4483 606.1938,-156 601.5072,-149.3089 601.0597,-140.8941 602.4217,-132.8395"/>
<polygon fill="#000000" stroke="#000000" points="605.8547,-133.5411 604.9317,-122.9865 599.0714,-131.813 605.8547,-133.5411"/>
<text text-anchor="middle" x="642.6938" y="-144.8" font-family="Times,serif" font-size="14.00" fill="#000000">of_sample</text>
</g>
<!-- sample&#45;&gt;participant -->
<g id="edge18" class="edge">
<title>sample&#45;&gt;participant</title>
<path fill="none" stroke="#000000" d="M733.9679,-178.1873C760.5974,-166.1023 801.6269,-149.2305 839.1938,-141 861.2487,-136.168 1159.2438,-117.7241 1298.9,-109.2741"/>
<polygon fill="#000000" stroke="#000000" points="1299.3098,-112.7558 1309.0804,-108.6588 1298.8875,-105.7685 1299.3098,-112.7558"/>
<text text-anchor="middle" x="875.6938" y="-144.8" font-family="Times,serif" font-size="14.00" fill="#000000">of_sample</text>
</g>
<!-- pathology_file -->
<g id="node6" class="node">
<title>pathology_file</title>
<ellipse fill="none" stroke="#000000" cx="558.1938" cy="-279" rx="76.0865" ry="18"/>
<text text-anchor="middle" x="558.1938" y="-275.3" font-family="Times,serif" font-size="14.00" fill="#000000">pathology_file</text>
</g>
<!-- pathology_file&#45;&gt;sample -->
<g id="edge3" class="edge">
<title>pathology_file&#45;&gt;sample</title>
<path fill="none" stroke="#000000" d="M561.5679,-260.6227C564.48,-249.7179 569.7687,-236.4218 579.1938,-228 590.6249,-217.7856 624.9386,-208.349 654.875,-201.7019"/>
<polygon fill="#000000" stroke="#000000" points="655.7826,-205.0867 664.8202,-199.5575 654.3071,-198.244 655.7826,-205.0867"/>
<text text-anchor="middle" x="640.1938" y="-231.8" font-family="Times,serif" font-size="14.00" fill="#000000">of_pathology_file</text>
</g>
<!-- methylation_array_file -->
<g id="node7" class="node">
<title>methylation_array_file</title>
<ellipse fill="none" stroke="#000000" cx="768.1938" cy="-279" rx="115.8798" ry="18"/>
<text text-anchor="middle" x="768.1938" y="-275.3" font-family="Times,serif" font-size="14.00" fill="#000000">methylation_array_file</text>
</g>
<!-- methylation_array_file&#45;&gt;sample -->
<g id="edge23" class="edge">
<title>methylation_array_file&#45;&gt;sample</title>
<path fill="none" stroke="#000000" d="M729.5506,-261.9777C721.9963,-256.9277 714.9516,-250.6479 710.1938,-243 706.0582,-236.3524 704.1751,-228.2486 703.4844,-220.4753"/>
<polygon fill="#000000" stroke="#000000" points="706.9762,-220.1403 703.1823,-210.248 699.9792,-220.3471 706.9762,-220.1403"/>
<text text-anchor="middle" x="801.6938" y="-231.8" font-family="Times,serif" font-size="14.00" fill="#000000">of_methylation_array_file</text>
</g>
<!-- clinical_measure_file -->
<g id="node8" class="node">
<title>clinical_measure_file</title>
<ellipse fill="none" stroke="#000000" cx="897.1938" cy="-192" rx="108.5808" ry="18"/>
<text text-anchor="middle" x="897.1938" y="-188.3" font-family="Times,serif" font-size="14.00" fill="#000000">clinical_measure_file</text>
</g>
<!-- clinical_measure_file&#45;&gt;participant -->
<g id="edge31" class="edge">
<title>clinical_measure_file&#45;&gt;participant</title>
<path fill="none" stroke="#000000" d="M904.6019,-173.9706C910.3392,-162.4693 919.4681,-148.3824 932.1938,-141 947.7648,-131.9669 1178.4765,-116.684 1298.6179,-109.2778"/>
<polygon fill="#000000" stroke="#000000" points="1299.0661,-112.7569 1308.8328,-108.6506 1298.6371,-105.7701 1299.0661,-112.7569"/>
<text text-anchor="middle" x="1018.1938" y="-144.8" font-family="Times,serif" font-size="14.00" fill="#000000">of_clinical_measure_file</text>
</g>
<!-- clinical_measure_file&#45;&gt;study -->
<g id="edge32" class="edge">
<title>clinical_measure_file&#45;&gt;study</title>
<path fill="none" stroke="#000000" d="M900.4769,-173.7534C902.7933,-163.6616 906.5158,-151.1484 912.1938,-141 934.4983,-101.1347 971.8473,-63.3949 996.9908,-40.4855"/>
<polygon fill="#000000" stroke="#000000" points="999.5798,-42.8651 1004.6909,-33.5846 994.908,-37.6522 999.5798,-42.8651"/>
<text text-anchor="middle" x="1037.1938" y="-101.3" font-family="Times,serif" font-size="14.00" fill="#000000">of_clinical_measure_file</text>
</g>
<!-- radiology_file -->
<g id="node9" class="node">
<title>radiology_file</title>
<ellipse fill="none" stroke="#000000" cx="1583.1938" cy="-192" rx="73.387" ry="18"/>
<text text-anchor="middle" x="1583.1938" y="-188.3" font-family="Times,serif" font-size="14.00" fill="#000000">radiology_file</text>
</g>
<!-- radiology_file&#45;&gt;participant -->
<g id="edge15" class="edge">
<title>radiology_file&#45;&gt;participant</title>
<path fill="none" stroke="#000000" d="M1571.6705,-174.1163C1563.4359,-162.8301 1551.3375,-148.9323 1537.1938,-141 1499.3316,-119.7656 1483.5876,-132.3386 1441.1938,-123 1436.2748,-121.9164 1431.1783,-120.7373 1426.077,-119.518"/>
<polygon fill="#000000" stroke="#000000" points="1426.8505,-116.1042 1416.3062,-117.1386 1425.1941,-122.9054 1426.8505,-116.1042"/>
<text text-anchor="middle" x="1616.1938" y="-144.8" font-family="Times,serif" font-size="14.00" fill="#000000">of_radiology_file</text>
</g>
<!-- study_funding -->
<g id="node10" class="node">
<title>study_funding</title>
<ellipse fill="none" stroke="#000000" cx="758.1938" cy="-105" rx="77.1866" ry="18"/>
<text text-anchor="middle" x="758.1938" y="-101.3" font-family="Times,serif" font-size="14.00" fill="#000000">study_funding</text>
</g>
<!-- study_funding&#45;&gt;study -->
<g id="edge6" class="edge">
<title>study_funding&#45;&gt;study</title>
<path fill="none" stroke="#000000" d="M753.1991,-86.8402C751.3976,-76.0173 751.4206,-62.7309 759.1938,-54 773.4127,-38.0292 904.8208,-26.3482 976.7109,-21.0921"/>
<polygon fill="#000000" stroke="#000000" points="977.1409,-24.5703 986.8647,-20.3634 976.6398,-17.5882 977.1409,-24.5703"/>
<text text-anchor="middle" x="821.1938" y="-57.8" font-family="Times,serif" font-size="14.00" fill="#000000">of_study_funding</text>
</g>
<!-- cell_line&#45;&gt;sample -->
<g id="edge8" class="edge">
<title>cell_line&#45;&gt;sample</title>
<path fill="none" stroke="#000000" d="M648.7399,-117.5199C660.8865,-123.1844 673.7702,-130.9153 683.1938,-141 689.2785,-147.5116 693.8372,-155.9688 697.1787,-164.118"/>
<polygon fill="#000000" stroke="#000000" points="693.9732,-165.5454 700.6716,-173.754 700.5542,-163.1598 693.9732,-165.5454"/>
<text text-anchor="middle" x="734.6938" y="-144.8" font-family="Times,serif" font-size="14.00" fill="#000000">of_cell_line</text>
</g>
<!-- cell_line&#45;&gt;study -->
<g id="edge9" class="edge">
<title>cell_line&#45;&gt;study</title>
<path fill="none" stroke="#000000" d="M626.8213,-87.4492C636.9015,-75.848 651.6988,-61.4529 668.1938,-54 722.0607,-29.6615 892.8938,-21.6042 976.3713,-19.0793"/>
<polygon fill="#000000" stroke="#000000" points="976.6919,-22.5716 986.5869,-18.7848 976.4902,-15.5745 976.6919,-22.5716"/>
<text text-anchor="middle" x="708.6938" y="-57.8" font-family="Times,serif" font-size="14.00" fill="#000000">of_cell_line</text>
</g>
<!-- survival -->
<g id="node12" class="node">
<title>survival</title>
<ellipse fill="none" stroke="#000000" cx="1843.1938" cy="-192" rx="48.1917" ry="18"/>
<text text-anchor="middle" x="1843.1938" y="-188.3" font-family="Times,serif" font-size="14.00" fill="#000000">survival</text>
</g>
<!-- survival&#45;&gt;participant -->
<g id="edge12" class="edge">
<title>survival&#45;&gt;participant</title>
<path fill="none" stroke="#000000" d="M1812.942,-177.8454C1785.6753,-165.7944 1744.154,-149.1741 1706.1938,-141 1590.7898,-116.1497 1557.7715,-141.5807 1441.1938,-123 1435.8567,-122.1494 1430.3348,-121.085 1424.8367,-119.9015"/>
<polygon fill="#000000" stroke="#000000" points="1425.5382,-116.4717 1415.0106,-117.6626 1423.9831,-123.2968 1425.5382,-116.4717"/>
<text text-anchor="middle" x="1796.6938" y="-144.8" font-family="Times,serif" font-size="14.00" fill="#000000">of_survival</text>
</g>
<!-- synonym -->
<g id="node13" class="node">
<title>synonym</title>
<ellipse fill="none" stroke="#000000" cx="1692.1938" cy="-279" rx="51.9908" ry="18"/>
<text text-anchor="middle" x="1692.1938" y="-275.3" font-family="Times,serif" font-size="14.00" fill="#000000">synonym</text>
</g>
<!-- synonym&#45;&gt;sample -->
<g id="edge28" class="edge">
<title>synonym&#45;&gt;sample</title>
<path fill="none" stroke="#000000" d="M1642.4921,-273.3558C1549.1065,-262.9365 1341.0005,-240.598 1165.1938,-228 993.891,-215.7247 949.1925,-234.4081 779.1938,-210 770.2553,-208.7166 760.8193,-206.8369 751.7873,-204.7703"/>
<polygon fill="#000000" stroke="#000000" points="752.3501,-201.3062 741.8097,-202.3796 750.7189,-208.1135 752.3501,-201.3062"/>
<text text-anchor="middle" x="1382.6938" y="-231.8" font-family="Times,serif" font-size="14.00" fill="#000000">of_synonym</text>
</g>
<!-- synonym&#45;&gt;participant -->
<g id="edge27" class="edge">
<title>synonym&#45;&gt;participant</title>
<path fill="none" stroke="#000000" d="M1693.0905,-260.9883C1694.3403,-227.4204 1694.8324,-157.2229 1678.1938,-141 1659.2849,-122.5636 1467.257,-127.2608 1441.1938,-123 1435.8601,-122.1281 1430.3406,-121.0495 1424.8438,-119.857"/>
<polygon fill="#000000" stroke="#000000" points="1425.5484,-116.4278 1415.0195,-117.6075 1423.986,-123.2513 1425.5484,-116.4278"/>
<text text-anchor="middle" x="1736.6938" y="-188.3" font-family="Times,serif" font-size="14.00" fill="#000000">of_synonym</text>
</g>
<!-- synonym&#45;&gt;study -->
<g id="edge26" class="edge">
<title>synonym&#45;&gt;study</title>
<path fill="none" stroke="#000000" d="M1744.1439,-277.0222C1933.6983,-269.5585 2578.6072,-241.8991 2608.1938,-210 2619.0743,-198.2691 2615.1034,-188.4311 2608.1938,-174 2544.0581,-40.0491 3001.9609,-153.9227 1699.1938,-54 1462.7858,-35.8674 1179.1658,-23.9567 1069.5619,-19.7224"/>
<polygon fill="#000000" stroke="#000000" points="1069.6326,-16.2226 1059.5058,-19.3366 1069.3642,-23.2174 1069.6326,-16.2226"/>
<text text-anchor="middle" x="2643.6938" y="-144.8" font-family="Times,serif" font-size="14.00" fill="#000000">of_synonym</text>
</g>
<!-- study_personnel -->
<g id="node14" class="node">
<title>study_personnel</title>
<ellipse fill="none" stroke="#000000" cx="1537.1938" cy="-105" rx="87.1846" ry="18"/>
<text text-anchor="middle" x="1537.1938" y="-101.3" font-family="Times,serif" font-size="14.00" fill="#000000">study_personnel</text>
</g>
<!-- study_personnel&#45;&gt;study -->
<g id="edge4" class="edge">
<title>study_personnel&#45;&gt;study</title>
<path fill="none" stroke="#000000" d="M1484.3416,-90.6183C1441.2455,-79.3243 1378.6517,-63.9022 1323.1938,-54 1234.0447,-38.0821 1128.7056,-27.2617 1069.553,-21.9024"/>
<polygon fill="#000000" stroke="#000000" points="1069.683,-18.4002 1059.4112,-20.9963 1069.06,-25.3724 1069.683,-18.4002"/>
<text text-anchor="middle" x="1464.6938" y="-57.8" font-family="Times,serif" font-size="14.00" fill="#000000">of_study_personnel</text>
</g>
<!-- study_arm -->
<g id="node15" class="node">
<title>study_arm</title>
<ellipse fill="none" stroke="#000000" cx="1702.1938" cy="-105" rx="59.5901" ry="18"/>
<text text-anchor="middle" x="1702.1938" y="-101.3" font-family="Times,serif" font-size="14.00" fill="#000000">study_arm</text>
</g>
<!-- study_arm&#45;&gt;study -->
<g id="edge30" class="edge">
<title>study_arm&#45;&gt;study</title>
<path fill="none" stroke="#000000" d="M1665.0402,-90.7297C1632.2017,-78.7764 1582.7371,-62.3655 1538.1938,-54 1449.0185,-37.2525 1178.7605,-24.4775 1069.6344,-19.8672"/>
<polygon fill="#000000" stroke="#000000" points="1069.726,-16.368 1059.5883,-19.4466 1069.4331,-23.3619 1069.726,-16.368"/>
<text text-anchor="middle" x="1646.6938" y="-57.8" font-family="Times,serif" font-size="14.00" fill="#000000">of_study_arm</text>
</g>
<!-- participant&#45;&gt;study -->
<g id="edge13" class="edge">
<title>participant&#45;&gt;study</title>
<path fill="none" stroke="#000000" d="M1323.0347,-93.1763C1255.1392,-76.1535 1130.8657,-44.9956 1065.6752,-28.651"/>
<polygon fill="#000000" stroke="#000000" points="1066.2885,-25.1965 1055.7375,-26.1594 1064.5861,-31.9863 1066.2885,-25.1965"/>
<text text-anchor="middle" x="1268.6938" y="-57.8" font-family="Times,serif" font-size="14.00" fill="#000000">of_participant</text>
</g>
<!-- family_relationship -->
<g id="node17" class="node">
<title>family_relationship</title>
<ellipse fill="none" stroke="#000000" cx="2009.1938" cy="-192" rx="100.1823" ry="18"/>
<text text-anchor="middle" x="2009.1938" y="-188.3" font-family="Times,serif" font-size="14.00" fill="#000000">family_relationship</text>
</g>
<!-- family_relationship&#45;&gt;participant -->
<g id="edge10" class="edge">
<title>family_relationship&#45;&gt;participant</title>
<path fill="none" stroke="#000000" d="M1965.7855,-175.6445C1932.0648,-163.7406 1883.8474,-148.4523 1840.1938,-141 1665.2115,-111.1282 1616.8011,-148.9455 1441.1938,-123 1435.7687,-122.1985 1430.1567,-121.1562 1424.5745,-119.977"/>
<polygon fill="#000000" stroke="#000000" points="1425.1308,-116.5146 1414.6058,-117.7291 1423.5909,-123.3432 1425.1308,-116.5146"/>
<text text-anchor="middle" x="1980.6938" y="-144.8" font-family="Times,serif" font-size="14.00" fill="#000000">of_family_relationship</text>
</g>
<!-- publication -->
<g id="node18" class="node">
<title>publication</title>
<ellipse fill="none" stroke="#000000" cx="2718.1938" cy="-105" rx="63.0888" ry="18"/>
<text text-anchor="middle" x="2718.1938" y="-101.3" font-family="Times,serif" font-size="14.00" fill="#000000">publication</text>
</g>
<!-- publication&#45;&gt;study -->
<g id="edge7" class="edge">
<title>publication&#45;&gt;study</title>
<path fill="none" stroke="#000000" d="M2698.9108,-87.7167C2684.2359,-75.7544 2662.9211,-60.8074 2641.1938,-54 2564.3366,-29.9199 1326.8379,-20.0934 1069.744,-18.3069"/>
<polygon fill="#000000" stroke="#000000" points="1069.6476,-14.8062 1059.6237,-18.2372 1069.5994,-21.8061 1069.6476,-14.8062"/>
<text text-anchor="middle" x="2721.1938" y="-57.8" font-family="Times,serif" font-size="14.00" fill="#000000">of_publication</text>
</g>
<!-- sequencing_file -->
<g id="node19" class="node">
<title>sequencing_file</title>
<ellipse fill="none" stroke="#000000" cx="985.1938" cy="-279" rx="83.3857" ry="18"/>
<text text-anchor="middle" x="985.1938" y="-275.3" font-family="Times,serif" font-size="14.00" fill="#000000">sequencing_file</text>
</g>
<!-- sequencing_file&#45;&gt;sample -->
<g id="edge21" class="edge">
<title>sequencing_file&#45;&gt;sample</title>
<path fill="none" stroke="#000000" d="M951.8473,-262.4294C940.4128,-256.5299 927.6226,-249.687 916.1938,-243 905.6603,-236.8368 904.584,-232.3819 893.1938,-228 845.3198,-209.5827 829.4899,-220.0702 779.1938,-210 770.5278,-208.2649 761.3422,-206.2087 752.4992,-204.1174"/>
<polygon fill="#000000" stroke="#000000" points="753.2484,-200.6978 742.7066,-201.7566 751.6077,-207.5029 753.2484,-200.6978"/>
<text text-anchor="middle" x="982.6938" y="-231.8" font-family="Times,serif" font-size="14.00" fill="#000000">of_sequencing_file</text>
</g>
<!-- exposure -->
<g id="node20" class="node">
<title>exposure</title>
<ellipse fill="none" stroke="#000000" cx="2180.1938" cy="-192" rx="53.0913" ry="18"/>
<text text-anchor="middle" x="2180.1938" y="-188.3" font-family="Times,serif" font-size="14.00" fill="#000000">exposure</text>
</g>
<!-- exposure&#45;&gt;participant -->
<g id="edge29" class="edge">
<title>exposure&#45;&gt;participant</title>
<path fill="none" stroke="#000000" d="M2153.0985,-176.4941C2130.2214,-164.298 2096.1716,-148.203 2064.1938,-141 1929.0769,-110.5651 1578.3681,-142.1332 1441.1938,-123 1435.7624,-122.2424 1430.1462,-121.2293 1424.5614,-120.0682"/>
<polygon fill="#000000" stroke="#000000" points="1425.112,-116.605 1414.5896,-117.8417 1423.5865,-123.4368 1425.112,-116.605"/>
<text text-anchor="middle" x="2149.6938" y="-144.8" font-family="Times,serif" font-size="14.00" fill="#000000">of_exposure</text>
</g>
<!-- molecular_test -->
<g id="node22" class="node">
<title>molecular_test</title>
<ellipse fill="none" stroke="#000000" cx="2331.1938" cy="-192" rx="79.8859" ry="18"/>
<text text-anchor="middle" x="2331.1938" y="-188.3" font-family="Times,serif" font-size="14.00" fill="#000000">molecular_test</text>
</g>
<!-- molecular_test&#45;&gt;participant -->
<g id="edge14" class="edge">
<title>molecular_test&#45;&gt;participant</title>
<path fill="none" stroke="#000000" d="M2297.7132,-175.5943C2271.1612,-163.4942 2232.7339,-147.9729 2197.1938,-141 2032.2901,-108.6463 1607.6886,-145.792 1441.1938,-123 1435.6818,-122.2454 1429.9801,-121.2231 1424.3146,-120.0465"/>
<polygon fill="#000000" stroke="#000000" points="1424.7272,-116.5524 1414.2045,-117.7866 1423.2001,-123.3838 1424.7272,-116.5524"/>
<text text-anchor="middle" x="2310.1938" y="-144.8" font-family="Times,serif" font-size="14.00" fill="#000000">of_molecular_test</text>
</g>
<!-- medical_history -->
<g id="node23" class="node">
<title>medical_history</title>
<ellipse fill="none" stroke="#000000" cx="2514.1938" cy="-192" rx="85.2851" ry="18"/>
<text text-anchor="middle" x="2514.1938" y="-188.3" font-family="Times,serif" font-size="14.00" fill="#000000">medical_history</text>
</g>
<!-- medical_history&#45;&gt;participant -->
<g id="edge1" class="edge">
<title>medical_history&#45;&gt;participant</title>
<path fill="none" stroke="#000000" d="M2479.9164,-175.4245C2452.9682,-163.3185 2414.1069,-147.8692 2378.1938,-141 2173.6413,-101.8749 1647.5944,-150.7717 1441.1938,-123 1435.6801,-122.2581 1429.9773,-121.2441 1424.3111,-120.0726"/>
<polygon fill="#000000" stroke="#000000" points="1424.7221,-116.5784 1414.2001,-117.8187 1423.199,-123.4107 1424.7221,-116.5784"/>
<text text-anchor="middle" x="2495.1938" y="-144.8" font-family="Times,serif" font-size="14.00" fill="#000000">of_medical_history</text>
</g>
<!-- treatment -->
<g id="node24" class="node">
<title>treatment</title>
<ellipse fill="none" stroke="#000000" cx="1081.1938" cy="-192" rx="57.6901" ry="18"/>
<text text-anchor="middle" x="1081.1938" y="-188.3" font-family="Times,serif" font-size="14.00" fill="#000000">treatment</text>
</g>
<!-- treatment&#45;&gt;participant -->
<g id="edge22" class="edge">
<title>treatment&#45;&gt;participant</title>
<path fill="none" stroke="#000000" d="M1092.2828,-173.9361C1100.2608,-162.5738 1112.0788,-148.6589 1126.1938,-141 1155.2943,-125.2098 1238.2723,-115.36 1299.4179,-110.0356"/>
<polygon fill="#000000" stroke="#000000" points="1299.7452,-113.5205 1309.4138,-109.1882 1299.1538,-106.5455 1299.7452,-113.5205"/>
<text text-anchor="middle" x="1173.1938" y="-144.8" font-family="Times,serif" font-size="14.00" fill="#000000">of_treatment</text>
</g>
<!-- diagnosis -->
<g id="node25" class="node">
<title>diagnosis</title>
<ellipse fill="none" stroke="#000000" cx="1161.1938" cy="-279" rx="54.6905" ry="18"/>
<text text-anchor="middle" x="1161.1938" y="-275.3" font-family="Times,serif" font-size="14.00" fill="#000000">diagnosis</text>
</g>
<!-- diagnosis&#45;&gt;sample -->
<g id="edge20" class="edge">
<title>diagnosis&#45;&gt;sample</title>
<path fill="none" stroke="#000000" d="M1123.6654,-265.6757C1107.5048,-259.4673 1088.5943,-251.5621 1072.1938,-243 1061.3753,-237.3521 1060.7697,-231.8649 1049.1938,-228 935.1175,-189.9132 898.0628,-228.2802 779.1938,-210 770.2686,-208.6274 760.8387,-206.7061 751.8087,-204.6265"/>
<polygon fill="#000000" stroke="#000000" points="752.3724,-201.1625 741.8317,-202.2321 750.7388,-207.9692 752.3724,-201.1625"/>
<text text-anchor="middle" x="1116.6938" y="-231.8" font-family="Times,serif" font-size="14.00" fill="#000000">of_diagnosis</text>
</g>
<!-- diagnosis&#45;&gt;participant -->
<g id="edge19" class="edge">
<title>diagnosis&#45;&gt;participant</title>
<path fill="none" stroke="#000000" d="M1163.0554,-260.9643C1166.1277,-234.4797 1173.0524,-186.8162 1184.1938,-174 1188.9136,-168.5707 1266.719,-140.831 1320.1884,-122.2196"/>
<polygon fill="#000000" stroke="#000000" points="1321.5681,-125.4456 1329.866,-118.8581 1319.2712,-118.8331 1321.5681,-125.4456"/>
<text text-anchor="middle" x="1228.6938" y="-188.3" font-family="Times,serif" font-size="14.00" fill="#000000">of_diagnosis</text>
</g>
</g>
</svg>
