<svg width="2093pt" height="1522pt"
 viewBox="0.00 0.00 2092.50 1522.00" xmlns="http://www.w3.org/2000/svg" xmlns:xlink="http://www.w3.org/1999/xlink">
<g id="graph0" class="graph" transform="scale(1 1) rotate(0) translate(4 1518)">
<title>Perl</title>
<polygon fill="#ffffff" stroke="transparent" points="-4,4 -4,-1518 2088.5,-1518 2088.5,4 -4,4"/>
<!-- clinical_measure -->
<g id="node1" class="node">
<title>clinical_measure</title>
<path fill="none" stroke="#000000" d="M76.5,-356.5C76.5,-356.5 287.5,-356.5 287.5,-356.5 293.5,-356.5 299.5,-362.5 299.5,-368.5 299.5,-368.5 299.5,-380.5 299.5,-380.5 299.5,-386.5 293.5,-392.5 287.5,-392.5 287.5,-392.5 76.5,-392.5 76.5,-392.5 70.5,-392.5 64.5,-386.5 64.5,-380.5 64.5,-380.5 64.5,-368.5 64.5,-368.5 64.5,-362.5 70.5,-356.5 76.5,-356.5"/>
<text text-anchor="middle" x="133" y="-370.8" font-family="Times,serif" font-size="14.00" fill="#000000">clinical_measure</text>
<polyline fill="none" stroke="#000000" points="201.5,-356.5 201.5,-392.5 "/>
<text text-anchor="middle" x="212" y="-370.8" font-family="Times,serif" font-size="14.00" fill="#000000"> </text>
<polyline fill="none" stroke="#000000" points="222.5,-356.5 222.5,-392.5 "/>
<text text-anchor="middle" x="250.5" y="-370.8" font-family="Times,serif" font-size="14.00" fill="#000000">name</text>
<polyline fill="none" stroke="#000000" points="278.5,-356.5 278.5,-392.5 "/>
<text text-anchor="middle" x="289" y="-370.8" font-family="Times,serif" font-size="14.00" fill="#000000"> </text>
</g>
<!-- study -->
<g id="node8" class="node">
<title>study</title>
<path fill="none" stroke="#000000" d="M902,-.5C902,-.5 1292,-.5 1292,-.5 1298,-.5 1304,-6.5 1304,-12.5 1304,-12.5 1304,-218.5 1304,-218.5 1304,-224.5 1298,-230.5 1292,-230.5 1292,-230.5 902,-230.5 902,-230.5 896,-230.5 890,-224.5 890,-218.5 890,-218.5 890,-12.5 890,-12.5 890,-6.5 896,-.5 902,-.5"/>
<text text-anchor="middle" x="918" y="-111.8" font-family="Times,serif" font-size="14.00" fill="#000000">study</text>
<polyline fill="none" stroke="#000000" points="946,-.5 946,-230.5 "/>
<text text-anchor="middle" x="956.5" y="-111.8" font-family="Times,serif" font-size="14.00" fill="#000000"> </text>
<polyline fill="none" stroke="#000000" points="967,-.5 967,-230.5 "/>
<text text-anchor="middle" x="1125" y="-215.3" font-family="Times,serif" font-size="14.00" fill="#000000">bioproject_accession</text>
<polyline fill="none" stroke="#000000" points="967,-207.5 1283,-207.5 "/>
<text text-anchor="middle" x="1125" y="-192.3" font-family="Times,serif" font-size="14.00" fill="#000000">experimental_strategy_and_data_subtype</text>
<polyline fill="none" stroke="#000000" points="967,-184.5 1283,-184.5 "/>
<text text-anchor="middle" x="1125" y="-169.3" font-family="Times,serif" font-size="14.00" fill="#000000">external_url</text>
<polyline fill="none" stroke="#000000" points="967,-161.5 1283,-161.5 "/>
<text text-anchor="middle" x="1125" y="-146.3" font-family="Times,serif" font-size="14.00" fill="#000000">phs_accession</text>
<polyline fill="none" stroke="#000000" points="967,-138.5 1283,-138.5 "/>
<text text-anchor="middle" x="1125" y="-123.3" font-family="Times,serif" font-size="14.00" fill="#000000">size_of_data_being_uploaded</text>
<polyline fill="none" stroke="#000000" points="967,-115.5 1283,-115.5 "/>
<text text-anchor="middle" x="1125" y="-100.3" font-family="Times,serif" font-size="14.00" fill="#000000">study_acronym</text>
<polyline fill="none" stroke="#000000" points="967,-92.5 1283,-92.5 "/>
<text text-anchor="middle" x="1125" y="-77.3" font-family="Times,serif" font-size="14.00" fill="#000000">study_data_types</text>
<polyline fill="none" stroke="#000000" points="967,-69.5 1283,-69.5 "/>
<text text-anchor="middle" x="1125" y="-54.3" font-family="Times,serif" font-size="14.00" fill="#000000">study_description</text>
<polyline fill="none" stroke="#000000" points="967,-46.5 1283,-46.5 "/>
<text text-anchor="middle" x="1125" y="-31.3" font-family="Times,serif" font-size="14.00" fill="#000000">study_name</text>
<polyline fill="none" stroke="#000000" points="967,-23.5 1283,-23.5 "/>
<text text-anchor="middle" x="1125" y="-8.3" font-family="Times,serif" font-size="14.00" fill="#000000">study_short_title</text>
<polyline fill="none" stroke="#000000" points="1283,-.5 1283,-230.5 "/>
<text text-anchor="middle" x="1293.5" y="-111.8" font-family="Times,serif" font-size="14.00" fill="#000000"> </text>
</g>
<!-- clinical_measure&#45;&gt;study -->
<g id="edge12" class="edge">
<title>clinical_measure&#45;&gt;study</title>
<path fill="none" stroke="#000000" d="M204.3298,-356.3467C231.3092,-335.3279 278.8458,-301.1497 325,-282 504.2205,-207.6404 721.2106,-164.6122 879.4435,-140.999"/>
<polygon fill="#000000" stroke="#000000" points="880.3992,-144.3958 889.7801,-139.4715 879.3758,-137.471 880.3992,-144.3958"/>
<text text-anchor="middle" x="476" y="-252.8" font-family="Times,serif" font-size="14.00" fill="#000000">of_clinical_measure</text>
</g>
<!-- study_funding -->
<g id="node2" class="node">
<title>study_funding</title>
<path fill="none" stroke="#000000" d="M346.5,-305.5C346.5,-305.5 725.5,-305.5 725.5,-305.5 731.5,-305.5 737.5,-311.5 737.5,-317.5 737.5,-317.5 737.5,-431.5 737.5,-431.5 737.5,-437.5 731.5,-443.5 725.5,-443.5 725.5,-443.5 346.5,-443.5 346.5,-443.5 340.5,-443.5 334.5,-437.5 334.5,-431.5 334.5,-431.5 334.5,-317.5 334.5,-317.5 334.5,-311.5 340.5,-305.5 346.5,-305.5"/>
<text text-anchor="middle" x="394" y="-370.8" font-family="Times,serif" font-size="14.00" fill="#000000">study_funding</text>
<polyline fill="none" stroke="#000000" points="453.5,-305.5 453.5,-443.5 "/>
<text text-anchor="middle" x="464" y="-370.8" font-family="Times,serif" font-size="14.00" fill="#000000"> </text>
<polyline fill="none" stroke="#000000" points="474.5,-305.5 474.5,-443.5 "/>
<text text-anchor="middle" x="595.5" y="-428.3" font-family="Times,serif" font-size="14.00" fill="#000000">clinical_trial_arm</text>
<polyline fill="none" stroke="#000000" points="474.5,-420.5 716.5,-420.5 "/>
<text text-anchor="middle" x="595.5" y="-405.3" font-family="Times,serif" font-size="14.00" fill="#000000">clinical_trial_identifier</text>
<polyline fill="none" stroke="#000000" points="474.5,-397.5 716.5,-397.5 "/>
<text text-anchor="middle" x="595.5" y="-382.3" font-family="Times,serif" font-size="14.00" fill="#000000">clinical_trial_system</text>
<polyline fill="none" stroke="#000000" points="474.5,-374.5 716.5,-374.5 "/>
<text text-anchor="middle" x="595.5" y="-359.3" font-family="Times,serif" font-size="14.00" fill="#000000">funding_agency</text>
<polyline fill="none" stroke="#000000" points="474.5,-351.5 716.5,-351.5 "/>
<text text-anchor="middle" x="595.5" y="-336.3" font-family="Times,serif" font-size="14.00" fill="#000000">funding_source_program_name</text>
<polyline fill="none" stroke="#000000" points="474.5,-328.5 716.5,-328.5 "/>
<text text-anchor="middle" x="595.5" y="-313.3" font-family="Times,serif" font-size="14.00" fill="#000000">grant_id</text>
<polyline fill="none" stroke="#000000" points="716.5,-305.5 716.5,-443.5 "/>
<text text-anchor="middle" x="727" y="-370.8" font-family="Times,serif" font-size="14.00" fill="#000000"> </text>
</g>
<!-- study_funding&#45;&gt;study -->
<g id="edge15" class="edge">
<title>study_funding&#45;&gt;study</title>
<path fill="none" stroke="#000000" d="M685.6008,-305.433C745.4317,-277.8105 815.5052,-245.4593 880.6913,-215.3645"/>
<polygon fill="#000000" stroke="#000000" points="882.2432,-218.503 889.8553,-211.1337 879.3091,-212.1476 882.2432,-218.503"/>
<text text-anchor="middle" x="862" y="-252.8" font-family="Times,serif" font-size="14.00" fill="#000000">of_study_funding</text>
</g>
<!-- sequencing_file -->
<g id="node3" class="node">
<title>sequencing_file</title>
<path fill="none" stroke="#000000" d="M1261.5,-1007.5C1261.5,-1007.5 1730.5,-1007.5 1730.5,-1007.5 1736.5,-1007.5 1742.5,-1013.5 1742.5,-1019.5 1742.5,-1019.5 1742.5,-1501.5 1742.5,-1501.5 1742.5,-1507.5 1736.5,-1513.5 1730.5,-1513.5 1730.5,-1513.5 1261.5,-1513.5 1261.5,-1513.5 1255.5,-1513.5 1249.5,-1507.5 1249.5,-1501.5 1249.5,-1501.5 1249.5,-1019.5 1249.5,-1019.5 1249.5,-1013.5 1255.5,-1007.5 1261.5,-1007.5"/>
<text text-anchor="middle" x="1313.5" y="-1256.8" font-family="Times,serif" font-size="14.00" fill="#000000">sequencing_file</text>
<polyline fill="none" stroke="#000000" points="1377.5,-1007.5 1377.5,-1513.5 "/>
<text text-anchor="middle" x="1388" y="-1256.8" font-family="Times,serif" font-size="14.00" fill="#000000"> </text>
<polyline fill="none" stroke="#000000" points="1398.5,-1007.5 1398.5,-1513.5 "/>
<text text-anchor="middle" x="1560" y="-1498.3" font-family="Times,serif" font-size="14.00" fill="#000000">avg_read_length</text>
<polyline fill="none" stroke="#000000" points="1398.5,-1490.5 1721.5,-1490.5 "/>
<text text-anchor="middle" x="1560" y="-1475.3" font-family="Times,serif" font-size="14.00" fill="#000000">checksum_algorithm</text>
<polyline fill="none" stroke="#000000" points="1398.5,-1467.5 1721.5,-1467.5 "/>
<text text-anchor="middle" x="1560" y="-1452.3" font-family="Times,serif" font-size="14.00" fill="#000000">checksum_value</text>
<polyline fill="none" stroke="#000000" points="1398.5,-1444.5 1721.5,-1444.5 "/>
<text text-anchor="middle" x="1560" y="-1429.3" font-family="Times,serif" font-size="14.00" fill="#000000">coverage</text>
<polyline fill="none" stroke="#000000" points="1398.5,-1421.5 1721.5,-1421.5 "/>
<text text-anchor="middle" x="1560" y="-1406.3" font-family="Times,serif" font-size="14.00" fill="#000000">custom_assembly_fasta_file_for_alignment</text>
<polyline fill="none" stroke="#000000" points="1398.5,-1398.5 1721.5,-1398.5 "/>
<text text-anchor="middle" x="1560" y="-1383.3" font-family="Times,serif" font-size="14.00" fill="#000000">dcf_indexd_guid</text>
<polyline fill="none" stroke="#000000" points="1398.5,-1375.5 1721.5,-1375.5 "/>
<text text-anchor="middle" x="1560" y="-1360.3" font-family="Times,serif" font-size="14.00" fill="#000000">file_description</text>
<polyline fill="none" stroke="#000000" points="1398.5,-1352.5 1721.5,-1352.5 "/>
<text text-anchor="middle" x="1560" y="-1337.3" font-family="Times,serif" font-size="14.00" fill="#000000">file_mapping_level</text>
<polyline fill="none" stroke="#000000" points="1398.5,-1329.5 1721.5,-1329.5 "/>
<text text-anchor="middle" x="1560" y="-1314.3" font-family="Times,serif" font-size="14.00" fill="#000000">file_name</text>
<polyline fill="none" stroke="#000000" points="1398.5,-1306.5 1721.5,-1306.5 "/>
<text text-anchor="middle" x="1560" y="-1291.3" font-family="Times,serif" font-size="14.00" fill="#000000">file_size</text>
<polyline fill="none" stroke="#000000" points="1398.5,-1283.5 1721.5,-1283.5 "/>
<text text-anchor="middle" x="1560" y="-1268.3" font-family="Times,serif" font-size="14.00" fill="#000000">file_type</text>
<polyline fill="none" stroke="#000000" points="1398.5,-1260.5 1721.5,-1260.5 "/>
<text text-anchor="middle" x="1560" y="-1245.3" font-family="Times,serif" font-size="14.00" fill="#000000">file_url_in_cds</text>
<polyline fill="none" stroke="#000000" points="1398.5,-1237.5 1721.5,-1237.5 "/>
<text text-anchor="middle" x="1560" y="-1222.3" font-family="Times,serif" font-size="14.00" fill="#000000">library_id</text>
<polyline fill="none" stroke="#000000" points="1398.5,-1214.5 1721.5,-1214.5 "/>
<text text-anchor="middle" x="1560" y="-1199.3" font-family="Times,serif" font-size="14.00" fill="#000000">library_layout</text>
<polyline fill="none" stroke="#000000" points="1398.5,-1191.5 1721.5,-1191.5 "/>
<text text-anchor="middle" x="1560" y="-1176.3" font-family="Times,serif" font-size="14.00" fill="#000000">library_selection</text>
<polyline fill="none" stroke="#000000" points="1398.5,-1168.5 1721.5,-1168.5 "/>
<text text-anchor="middle" x="1560" y="-1153.3" font-family="Times,serif" font-size="14.00" fill="#000000">library_source</text>
<polyline fill="none" stroke="#000000" points="1398.5,-1145.5 1721.5,-1145.5 "/>
<text text-anchor="middle" x="1560" y="-1130.3" font-family="Times,serif" font-size="14.00" fill="#000000">library_strategy</text>
<polyline fill="none" stroke="#000000" points="1398.5,-1122.5 1721.5,-1122.5 "/>
<text text-anchor="middle" x="1560" y="-1107.3" font-family="Times,serif" font-size="14.00" fill="#000000">md5sum</text>
<polyline fill="none" stroke="#000000" points="1398.5,-1099.5 1721.5,-1099.5 "/>
<text text-anchor="middle" x="1560" y="-1084.3" font-family="Times,serif" font-size="14.00" fill="#000000">number_of_bp</text>
<polyline fill="none" stroke="#000000" points="1398.5,-1076.5 1721.5,-1076.5 "/>
<text text-anchor="middle" x="1560" y="-1061.3" font-family="Times,serif" font-size="14.00" fill="#000000">number_of_reads</text>
<polyline fill="none" stroke="#000000" points="1398.5,-1053.5 1721.5,-1053.5 "/>
<text text-anchor="middle" x="1560" y="-1038.3" font-family="Times,serif" font-size="14.00" fill="#000000">reference_genome_assembly</text>
<polyline fill="none" stroke="#000000" points="1398.5,-1030.5 1721.5,-1030.5 "/>
<text text-anchor="middle" x="1560" y="-1015.3" font-family="Times,serif" font-size="14.00" fill="#000000">sequence_alignment_software</text>
<polyline fill="none" stroke="#000000" points="1721.5,-1007.5 1721.5,-1513.5 "/>
<text text-anchor="middle" x="1732" y="-1256.8" font-family="Times,serif" font-size="14.00" fill="#000000"> </text>
</g>
<!-- sample -->
<g id="node6" class="node">
<title>sample</title>
<path fill="none" stroke="#000000" d="M1344,-518.5C1344,-518.5 1658,-518.5 1658,-518.5 1664,-518.5 1670,-524.5 1670,-530.5 1670,-530.5 1670,-943.5 1670,-943.5 1670,-949.5 1664,-955.5 1658,-955.5 1658,-955.5 1344,-955.5 1344,-955.5 1338,-955.5 1332,-949.5 1332,-943.5 1332,-943.5 1332,-530.5 1332,-530.5 1332,-524.5 1338,-518.5 1344,-518.5"/>
<text text-anchor="middle" x="1366" y="-733.3" font-family="Times,serif" font-size="14.00" fill="#000000">sample</text>
<polyline fill="none" stroke="#000000" points="1400,-518.5 1400,-955.5 "/>
<text text-anchor="middle" x="1410.5" y="-733.3" font-family="Times,serif" font-size="14.00" fill="#000000"> </text>
<polyline fill="none" stroke="#000000" points="1421,-518.5 1421,-955.5 "/>
<text text-anchor="middle" x="1535" y="-940.3" font-family="Times,serif" font-size="14.00" fill="#000000">biosample_accession</text>
<polyline fill="none" stroke="#000000" points="1421,-932.5 1649,-932.5 "/>
<text text-anchor="middle" x="1535" y="-917.3" font-family="Times,serif" font-size="14.00" fill="#000000">dbgap_sample_id</text>
<polyline fill="none" stroke="#000000" points="1421,-909.5 1649,-909.5 "/>
<text text-anchor="middle" x="1535" y="-894.3" font-family="Times,serif" font-size="14.00" fill="#000000">derived_from_specimen</text>
<polyline fill="none" stroke="#000000" points="1421,-886.5 1649,-886.5 "/>
<text text-anchor="middle" x="1535" y="-871.3" font-family="Times,serif" font-size="14.00" fill="#000000">disease_type</text>
<polyline fill="none" stroke="#000000" points="1421,-863.5 1649,-863.5 "/>
<text text-anchor="middle" x="1535" y="-848.3" font-family="Times,serif" font-size="14.00" fill="#000000">participant_age_at_collection</text>
<polyline fill="none" stroke="#000000" points="1421,-840.5 1649,-840.5 "/>
<text text-anchor="middle" x="1535" y="-825.3" font-family="Times,serif" font-size="14.00" fill="#000000">sample_age_at_collection</text>
<polyline fill="none" stroke="#000000" points="1421,-817.5 1649,-817.5 "/>
<text text-anchor="middle" x="1535" y="-802.3" font-family="Times,serif" font-size="14.00" fill="#000000">sample_anatomic_site</text>
<polyline fill="none" stroke="#000000" points="1421,-794.5 1649,-794.5 "/>
<text text-anchor="middle" x="1535" y="-779.3" font-family="Times,serif" font-size="14.00" fill="#000000">sample_description</text>
<polyline fill="none" stroke="#000000" points="1421,-771.5 1649,-771.5 "/>
<text text-anchor="middle" x="1535" y="-756.3" font-family="Times,serif" font-size="14.00" fill="#000000">sample_id</text>
<polyline fill="none" stroke="#000000" points="1421,-748.5 1649,-748.5 "/>
<text text-anchor="middle" x="1535" y="-733.3" font-family="Times,serif" font-size="14.00" fill="#000000">sample_tumor_status</text>
<polyline fill="none" stroke="#000000" points="1421,-725.5 1649,-725.5 "/>
<text text-anchor="middle" x="1535" y="-710.3" font-family="Times,serif" font-size="14.00" fill="#000000">sample_type</text>
<polyline fill="none" stroke="#000000" points="1421,-702.5 1649,-702.5 "/>
<text text-anchor="middle" x="1535" y="-687.3" font-family="Times,serif" font-size="14.00" fill="#000000">tumor_grade</text>
<polyline fill="none" stroke="#000000" points="1421,-679.5 1649,-679.5 "/>
<text text-anchor="middle" x="1535" y="-664.3" font-family="Times,serif" font-size="14.00" fill="#000000">tumor_incidence_type</text>
<polyline fill="none" stroke="#000000" points="1421,-656.5 1649,-656.5 "/>
<text text-anchor="middle" x="1535" y="-641.3" font-family="Times,serif" font-size="14.00" fill="#000000">tumor_morphology</text>
<polyline fill="none" stroke="#000000" points="1421,-633.5 1649,-633.5 "/>
<text text-anchor="middle" x="1535" y="-618.3" font-family="Times,serif" font-size="14.00" fill="#000000">tumor_stage</text>
<polyline fill="none" stroke="#000000" points="1421,-610.5 1649,-610.5 "/>
<text text-anchor="middle" x="1535" y="-595.3" font-family="Times,serif" font-size="14.00" fill="#000000">tumor_stage_clinical_m</text>
<polyline fill="none" stroke="#000000" points="1421,-587.5 1649,-587.5 "/>
<text text-anchor="middle" x="1535" y="-572.3" font-family="Times,serif" font-size="14.00" fill="#000000">tumor_stage_clinical_n</text>
<polyline fill="none" stroke="#000000" points="1421,-564.5 1649,-564.5 "/>
<text text-anchor="middle" x="1535" y="-549.3" font-family="Times,serif" font-size="14.00" fill="#000000">tumor_stage_clinical_t</text>
<polyline fill="none" stroke="#000000" points="1421,-541.5 1649,-541.5 "/>
<text text-anchor="middle" x="1535" y="-526.3" font-family="Times,serif" font-size="14.00" fill="#000000">tumor_status</text>
<polyline fill="none" stroke="#000000" points="1649,-518.5 1649,-955.5 "/>
<text text-anchor="middle" x="1659.5" y="-733.3" font-family="Times,serif" font-size="14.00" fill="#000000"> </text>
</g>
<!-- sequencing_file&#45;&gt;sample -->
<g id="edge3" class="edge">
<title>sequencing_file&#45;&gt;sample</title>
<path fill="none" stroke="#000000" d="M1490.5261,-1007.4103C1490.6151,-996.1191 1490.7693,-984.9419 1491,-974 1491.058,-971.2481 1491.1198,-968.4784 1491.1852,-965.6937"/>
<polygon fill="#000000" stroke="#000000" points="1494.6877,-965.6339 1491.437,-955.5501 1487.6898,-965.4602 1494.6877,-965.6339"/>
<text text-anchor="middle" x="1557.5" y="-977.8" font-family="Times,serif" font-size="14.00" fill="#000000">of_sequencing_file</text>
</g>
<!-- experiment -->
<g id="node12" class="node">
<title>experiment</title>
<path fill="none" stroke="#000000" d="M1790,-714C1790,-714 2058,-714 2058,-714 2064,-714 2070,-720 2070,-726 2070,-726 2070,-748 2070,-748 2070,-754 2064,-760 2058,-760 2058,-760 1790,-760 1790,-760 1784,-760 1778,-754 1778,-748 1778,-748 1778,-726 1778,-726 1778,-720 1784,-714 1790,-714"/>
<text text-anchor="middle" x="1827" y="-733.3" font-family="Times,serif" font-size="14.00" fill="#000000">experiment</text>
<polyline fill="none" stroke="#000000" points="1876,-714 1876,-760 "/>
<text text-anchor="middle" x="1886.5" y="-733.3" font-family="Times,serif" font-size="14.00" fill="#000000"> </text>
<polyline fill="none" stroke="#000000" points="1897,-714 1897,-760 "/>
<text text-anchor="middle" x="1973" y="-744.8" font-family="Times,serif" font-size="14.00" fill="#000000">design_description</text>
<polyline fill="none" stroke="#000000" points="1897,-737 2049,-737 "/>
<text text-anchor="middle" x="1973" y="-721.8" font-family="Times,serif" font-size="14.00" fill="#000000">experiment_id</text>
<polyline fill="none" stroke="#000000" points="2049,-714 2049,-760 "/>
<text text-anchor="middle" x="2059.5" y="-733.3" font-family="Times,serif" font-size="14.00" fill="#000000"> </text>
</g>
<!-- sequencing_file&#45;&gt;experiment -->
<g id="edge2" class="edge">
<title>sequencing_file&#45;&gt;experiment</title>
<path fill="none" stroke="#000000" d="M1613.4764,-1007.3618C1622.7321,-995.5406 1632.5693,-984.3226 1643,-974 1655.7148,-961.4169 1664.201,-966.0494 1679,-956 1764.4401,-897.9809 1851.5551,-812.5071 1895.2525,-767.4193"/>
<polygon fill="#000000" stroke="#000000" points="1897.9716,-769.6416 1902.3916,-760.0128 1892.9317,-764.7836 1897.9716,-769.6416"/>
<text text-anchor="middle" x="1709.5" y="-977.8" font-family="Times,serif" font-size="14.00" fill="#000000">of_sequencing_file</text>
</g>
<!-- participant -->
<g id="node4" class="node">
<title>participant</title>
<path fill="none" stroke="#000000" d="M767.5,-305.5C767.5,-305.5 1026.5,-305.5 1026.5,-305.5 1032.5,-305.5 1038.5,-311.5 1038.5,-317.5 1038.5,-317.5 1038.5,-431.5 1038.5,-431.5 1038.5,-437.5 1032.5,-443.5 1026.5,-443.5 1026.5,-443.5 767.5,-443.5 767.5,-443.5 761.5,-443.5 755.5,-437.5 755.5,-431.5 755.5,-431.5 755.5,-317.5 755.5,-317.5 755.5,-311.5 761.5,-305.5 767.5,-305.5"/>
<text text-anchor="middle" x="803.5" y="-370.8" font-family="Times,serif" font-size="14.00" fill="#000000">participant</text>
<polyline fill="none" stroke="#000000" points="851.5,-305.5 851.5,-443.5 "/>
<text text-anchor="middle" x="862" y="-370.8" font-family="Times,serif" font-size="14.00" fill="#000000"> </text>
<polyline fill="none" stroke="#000000" points="872.5,-305.5 872.5,-443.5 "/>
<text text-anchor="middle" x="945" y="-428.3" font-family="Times,serif" font-size="14.00" fill="#000000">dbGaP_subject_id</text>
<polyline fill="none" stroke="#000000" points="872.5,-420.5 1017.5,-420.5 "/>
<text text-anchor="middle" x="945" y="-405.3" font-family="Times,serif" font-size="14.00" fill="#000000">ethnicity</text>
<polyline fill="none" stroke="#000000" points="872.5,-397.5 1017.5,-397.5 "/>
<text text-anchor="middle" x="945" y="-382.3" font-family="Times,serif" font-size="14.00" fill="#000000">gender</text>
<polyline fill="none" stroke="#000000" points="872.5,-374.5 1017.5,-374.5 "/>
<text text-anchor="middle" x="945" y="-359.3" font-family="Times,serif" font-size="14.00" fill="#000000">participant_id</text>
<polyline fill="none" stroke="#000000" points="872.5,-351.5 1017.5,-351.5 "/>
<text text-anchor="middle" x="945" y="-336.3" font-family="Times,serif" font-size="14.00" fill="#000000">race</text>
<polyline fill="none" stroke="#000000" points="872.5,-328.5 1017.5,-328.5 "/>
<text text-anchor="middle" x="945" y="-313.3" font-family="Times,serif" font-size="14.00" fill="#000000">vital_status</text>
<polyline fill="none" stroke="#000000" points="1017.5,-305.5 1017.5,-443.5 "/>
<text text-anchor="middle" x="1028" y="-370.8" font-family="Times,serif" font-size="14.00" fill="#000000"> </text>
</g>
<!-- participant&#45;&gt;study -->
<g id="edge4" class="edge">
<title>participant&#45;&gt;study</title>
<path fill="none" stroke="#000000" d="M941.6931,-305.4232C954.3048,-286.7994 968.3262,-266.8678 982,-249 984.6144,-245.5838 987.2885,-242.14 990.008,-238.6821"/>
<polygon fill="#000000" stroke="#000000" points="992.9524,-240.6023 996.4289,-230.5941 987.47,-236.2499 992.9524,-240.6023"/>
<text text-anchor="middle" x="1032.5" y="-252.8" font-family="Times,serif" font-size="14.00" fill="#000000">of_participant</text>
</g>
<!-- therapeutic_procedure -->
<g id="node5" class="node">
<title>therapeutic_procedure</title>
<path fill="none" stroke="#000000" d="M429.5,-679.5C429.5,-679.5 794.5,-679.5 794.5,-679.5 800.5,-679.5 806.5,-685.5 806.5,-691.5 806.5,-691.5 806.5,-782.5 806.5,-782.5 806.5,-788.5 800.5,-794.5 794.5,-794.5 794.5,-794.5 429.5,-794.5 429.5,-794.5 423.5,-794.5 417.5,-788.5 417.5,-782.5 417.5,-782.5 417.5,-691.5 417.5,-691.5 417.5,-685.5 423.5,-679.5 429.5,-679.5"/>
<text text-anchor="middle" x="508" y="-733.3" font-family="Times,serif" font-size="14.00" fill="#000000">therapeutic_procedure</text>
<polyline fill="none" stroke="#000000" points="598.5,-679.5 598.5,-794.5 "/>
<text text-anchor="middle" x="609" y="-733.3" font-family="Times,serif" font-size="14.00" fill="#000000"> </text>
<polyline fill="none" stroke="#000000" points="619.5,-679.5 619.5,-794.5 "/>
<text text-anchor="middle" x="702.5" y="-779.3" font-family="Times,serif" font-size="14.00" fill="#000000">days_to_treatment</text>
<polyline fill="none" stroke="#000000" points="619.5,-771.5 785.5,-771.5 "/>
<text text-anchor="middle" x="702.5" y="-756.3" font-family="Times,serif" font-size="14.00" fill="#000000">therapeutic_agents</text>
<polyline fill="none" stroke="#000000" points="619.5,-748.5 785.5,-748.5 "/>
<text text-anchor="middle" x="702.5" y="-733.3" font-family="Times,serif" font-size="14.00" fill="#000000">treatement_outcome</text>
<polyline fill="none" stroke="#000000" points="619.5,-725.5 785.5,-725.5 "/>
<text text-anchor="middle" x="702.5" y="-710.3" font-family="Times,serif" font-size="14.00" fill="#000000">treatment_id</text>
<polyline fill="none" stroke="#000000" points="619.5,-702.5 785.5,-702.5 "/>
<text text-anchor="middle" x="702.5" y="-687.3" font-family="Times,serif" font-size="14.00" fill="#000000">treatment_type</text>
<polyline fill="none" stroke="#000000" points="785.5,-679.5 785.5,-794.5 "/>
<text text-anchor="middle" x="796" y="-733.3" font-family="Times,serif" font-size="14.00" fill="#000000"> </text>
</g>
<!-- therapeutic_procedure&#45;&gt;participant -->
<g id="edge14" class="edge">
<title>therapeutic_procedure&#45;&gt;participant</title>
<path fill="none" stroke="#000000" d="M601.373,-679.3644C594.4467,-622.3105 594.2553,-536.2762 643,-485 675.0184,-451.3187 702.529,-483.4279 746,-467 759.5522,-461.8785 773.2318,-455.5082 786.5327,-448.5222"/>
<polygon fill="#000000" stroke="#000000" points="788.5319,-451.4207 795.6742,-443.5952 785.2108,-445.2587 788.5319,-451.4207"/>
<text text-anchor="middle" x="736" y="-488.8" font-family="Times,serif" font-size="14.00" fill="#000000">of_therapeutic_procedure</text>
</g>
<!-- sample&#45;&gt;participant -->
<g id="edge6" class="edge">
<title>sample&#45;&gt;participant</title>
<path fill="none" stroke="#000000" d="M1331.7379,-522.7324C1328.857,-521.0853 1325.9443,-519.5063 1323,-518 1260.975,-486.2687 1072.807,-530.1538 1010,-500 996.9396,-493.7297 977.1224,-473.597 957.7117,-451.2396"/>
<polygon fill="#000000" stroke="#000000" points="960.3199,-448.9044 951.1548,-443.589 955.0048,-453.4596 960.3199,-448.9044"/>
<text text-anchor="middle" x="1046.5" y="-488.8" font-family="Times,serif" font-size="14.00" fill="#000000">of_sample</text>
</g>
<!-- sample&#45;&gt;study -->
<g id="edge5" class="edge">
<title>sample&#45;&gt;study</title>
<path fill="none" stroke="#000000" d="M1331.9471,-523.8579C1328.9931,-521.84 1326.0104,-519.8856 1323,-518 1239.038,-465.4102 1168.5099,-543.8623 1106,-467 1078.491,-433.1749 1078.8791,-327.6589 1084.5968,-240.9883"/>
<polygon fill="#000000" stroke="#000000" points="1088.1039,-241.0047 1085.2997,-230.7877 1081.1205,-240.5235 1088.1039,-241.0047"/>
<text text-anchor="middle" x="1142.5" y="-370.8" font-family="Times,serif" font-size="14.00" fill="#000000">of_sample</text>
</g>
<!-- diagnosis -->
<g id="node7" class="node">
<title>diagnosis</title>
<path fill="none" stroke="#000000" d="M928,-610.5C928,-610.5 1302,-610.5 1302,-610.5 1308,-610.5 1314,-616.5 1314,-622.5 1314,-622.5 1314,-851.5 1314,-851.5 1314,-857.5 1308,-863.5 1302,-863.5 1302,-863.5 928,-863.5 928,-863.5 922,-863.5 916,-857.5 916,-851.5 916,-851.5 916,-622.5 916,-622.5 916,-616.5 922,-610.5 928,-610.5"/>
<text text-anchor="middle" x="958" y="-733.3" font-family="Times,serif" font-size="14.00" fill="#000000">diagnosis</text>
<polyline fill="none" stroke="#000000" points="1000,-610.5 1000,-863.5 "/>
<text text-anchor="middle" x="1010.5" y="-733.3" font-family="Times,serif" font-size="14.00" fill="#000000"> </text>
<polyline fill="none" stroke="#000000" points="1021,-610.5 1021,-863.5 "/>
<text text-anchor="middle" x="1157" y="-848.3" font-family="Times,serif" font-size="14.00" fill="#000000">age_at_diagnosis</text>
<polyline fill="none" stroke="#000000" points="1021,-840.5 1293,-840.5 "/>
<text text-anchor="middle" x="1157" y="-825.3" font-family="Times,serif" font-size="14.00" fill="#000000">days_to_last_followup</text>
<polyline fill="none" stroke="#000000" points="1021,-817.5 1293,-817.5 "/>
<text text-anchor="middle" x="1157" y="-802.3" font-family="Times,serif" font-size="14.00" fill="#000000">days_to_last_known_disease_status</text>
<polyline fill="none" stroke="#000000" points="1021,-794.5 1293,-794.5 "/>
<text text-anchor="middle" x="1157" y="-779.3" font-family="Times,serif" font-size="14.00" fill="#000000">days_to_recurrence</text>
<polyline fill="none" stroke="#000000" points="1021,-771.5 1293,-771.5 "/>
<text text-anchor="middle" x="1157" y="-756.3" font-family="Times,serif" font-size="14.00" fill="#000000">diagnosis_id</text>
<polyline fill="none" stroke="#000000" points="1021,-748.5 1293,-748.5 "/>
<text text-anchor="middle" x="1157" y="-733.3" font-family="Times,serif" font-size="14.00" fill="#000000">last_known_disease_status</text>
<polyline fill="none" stroke="#000000" points="1021,-725.5 1293,-725.5 "/>
<text text-anchor="middle" x="1157" y="-710.3" font-family="Times,serif" font-size="14.00" fill="#000000">primary_diagnosis</text>
<polyline fill="none" stroke="#000000" points="1021,-702.5 1293,-702.5 "/>
<text text-anchor="middle" x="1157" y="-687.3" font-family="Times,serif" font-size="14.00" fill="#000000">primary_site</text>
<polyline fill="none" stroke="#000000" points="1021,-679.5 1293,-679.5 "/>
<text text-anchor="middle" x="1157" y="-664.3" font-family="Times,serif" font-size="14.00" fill="#000000">progression_or_recurrence</text>
<polyline fill="none" stroke="#000000" points="1021,-656.5 1293,-656.5 "/>
<text text-anchor="middle" x="1157" y="-641.3" font-family="Times,serif" font-size="14.00" fill="#000000">site_of_resection_or_biopsy</text>
<polyline fill="none" stroke="#000000" points="1021,-633.5 1293,-633.5 "/>
<text text-anchor="middle" x="1157" y="-618.3" font-family="Times,serif" font-size="14.00" fill="#000000">tissue_or_organ_of_origin</text>
<polyline fill="none" stroke="#000000" points="1293,-610.5 1293,-863.5 "/>
<text text-anchor="middle" x="1303.5" y="-733.3" font-family="Times,serif" font-size="14.00" fill="#000000"> </text>
</g>
<!-- diagnosis&#45;&gt;participant -->
<g id="edge11" class="edge">
<title>diagnosis&#45;&gt;participant</title>
<path fill="none" stroke="#000000" d="M968.4215,-610.3785C939.7845,-577.5887 913.7717,-540.1064 898,-500 892.3419,-485.6118 889.7435,-469.558 888.9434,-453.8673"/>
<polygon fill="#000000" stroke="#000000" points="892.4356,-453.5304 888.6633,-443.6299 885.4383,-453.7219 892.4356,-453.5304"/>
<text text-anchor="middle" x="942.5" y="-488.8" font-family="Times,serif" font-size="14.00" fill="#000000">of_diagnosis</text>
</g>
<!-- alias -->
<g id="node9" class="node">
<title>alias</title>
<path fill="none" stroke="#000000" d="M874.5,-1214.5C874.5,-1214.5 1079.5,-1214.5 1079.5,-1214.5 1085.5,-1214.5 1091.5,-1220.5 1091.5,-1226.5 1091.5,-1226.5 1091.5,-1294.5 1091.5,-1294.5 1091.5,-1300.5 1085.5,-1306.5 1079.5,-1306.5 1079.5,-1306.5 874.5,-1306.5 874.5,-1306.5 868.5,-1306.5 862.5,-1300.5 862.5,-1294.5 862.5,-1294.5 862.5,-1226.5 862.5,-1226.5 862.5,-1220.5 868.5,-1214.5 874.5,-1214.5"/>
<text text-anchor="middle" x="887.5" y="-1256.8" font-family="Times,serif" font-size="14.00" fill="#000000">alias</text>
<polyline fill="none" stroke="#000000" points="912.5,-1214.5 912.5,-1306.5 "/>
<text text-anchor="middle" x="923" y="-1256.8" font-family="Times,serif" font-size="14.00" fill="#000000"> </text>
<polyline fill="none" stroke="#000000" points="933.5,-1214.5 933.5,-1306.5 "/>
<text text-anchor="middle" x="1002" y="-1291.3" font-family="Times,serif" font-size="14.00" fill="#000000">cds_id</text>
<polyline fill="none" stroke="#000000" points="933.5,-1283.5 1070.5,-1283.5 "/>
<text text-anchor="middle" x="1002" y="-1268.3" font-family="Times,serif" font-size="14.00" fill="#000000">cds_node</text>
<polyline fill="none" stroke="#000000" points="933.5,-1260.5 1070.5,-1260.5 "/>
<text text-anchor="middle" x="1002" y="-1245.3" font-family="Times,serif" font-size="14.00" fill="#000000">repository_id</text>
<polyline fill="none" stroke="#000000" points="933.5,-1237.5 1070.5,-1237.5 "/>
<text text-anchor="middle" x="1002" y="-1222.3" font-family="Times,serif" font-size="14.00" fill="#000000">repository_name</text>
<polyline fill="none" stroke="#000000" points="1070.5,-1214.5 1070.5,-1306.5 "/>
<text text-anchor="middle" x="1081" y="-1256.8" font-family="Times,serif" font-size="14.00" fill="#000000"> </text>
</g>
<!-- alias&#45;&gt;participant -->
<g id="edge17" class="edge">
<title>alias&#45;&gt;participant</title>
<path fill="none" stroke="#000000" d="M951.3334,-1214.3015C920.621,-1156.1333 870.9676,-1052.1516 852,-956 814.3247,-765.0139 822.5364,-710.424 852,-518 855.275,-496.6111 861.1457,-474.0317 867.5881,-453.2741"/>
<polygon fill="#000000" stroke="#000000" points="870.9819,-454.1516 870.684,-443.561 864.3125,-452.0258 870.9819,-454.1516"/>
<text text-anchor="middle" x="879.5" y="-733.3" font-family="Times,serif" font-size="14.00" fill="#000000">of_alias</text>
</g>
<!-- alias&#45;&gt;sample -->
<g id="edge16" class="edge">
<title>alias&#45;&gt;sample</title>
<path fill="none" stroke="#000000" d="M1019.2616,-1214.4544C1069.3603,-1161.2147 1156.7172,-1072.5146 1241,-1007 1274.8851,-980.6604 1290.8006,-984.3756 1323,-956 1323.3676,-955.6761 1323.735,-955.3513 1324.1023,-955.0258"/>
<polygon fill="#000000" stroke="#000000" points="1326.7192,-957.3782 1331.79,-948.0756 1322.0248,-952.1856 1326.7192,-957.3782"/>
<text text-anchor="middle" x="1324.5" y="-977.8" font-family="Times,serif" font-size="14.00" fill="#000000">of_alias</text>
</g>
<!-- study_admin -->
<g id="node10" class="node">
<title>study_admin</title>
<path fill="none" stroke="#000000" d="M1200,-282.5C1200,-282.5 1526,-282.5 1526,-282.5 1532,-282.5 1538,-288.5 1538,-294.5 1538,-294.5 1538,-454.5 1538,-454.5 1538,-460.5 1532,-466.5 1526,-466.5 1526,-466.5 1200,-466.5 1200,-466.5 1194,-466.5 1188,-460.5 1188,-454.5 1188,-454.5 1188,-294.5 1188,-294.5 1188,-288.5 1194,-282.5 1200,-282.5"/>
<text text-anchor="middle" x="1242" y="-370.8" font-family="Times,serif" font-size="14.00" fill="#000000">study_admin</text>
<polyline fill="none" stroke="#000000" points="1296,-282.5 1296,-466.5 "/>
<text text-anchor="middle" x="1306.5" y="-370.8" font-family="Times,serif" font-size="14.00" fill="#000000"> </text>
<polyline fill="none" stroke="#000000" points="1317,-282.5 1317,-466.5 "/>
<text text-anchor="middle" x="1417" y="-451.3" font-family="Times,serif" font-size="14.00" fill="#000000">acl</text>
<polyline fill="none" stroke="#000000" points="1317,-443.5 1517,-443.5 "/>
<text text-anchor="middle" x="1417" y="-428.3" font-family="Times,serif" font-size="14.00" fill="#000000">adult_or_childhood_study</text>
<polyline fill="none" stroke="#000000" points="1317,-420.5 1517,-420.5 "/>
<text text-anchor="middle" x="1417" y="-405.3" font-family="Times,serif" font-size="14.00" fill="#000000">data_types</text>
<polyline fill="none" stroke="#000000" points="1317,-397.5 1517,-397.5 "/>
<text text-anchor="middle" x="1417" y="-382.3" font-family="Times,serif" font-size="14.00" fill="#000000">file_types_and_format</text>
<polyline fill="none" stroke="#000000" points="1317,-374.5 1517,-374.5 "/>
<text text-anchor="middle" x="1417" y="-359.3" font-family="Times,serif" font-size="14.00" fill="#000000">number_of_participants</text>
<polyline fill="none" stroke="#000000" points="1317,-351.5 1517,-351.5 "/>
<text text-anchor="middle" x="1417" y="-336.3" font-family="Times,serif" font-size="14.00" fill="#000000">number_of_samples</text>
<polyline fill="none" stroke="#000000" points="1317,-328.5 1517,-328.5 "/>
<text text-anchor="middle" x="1417" y="-313.3" font-family="Times,serif" font-size="14.00" fill="#000000">organism_species</text>
<polyline fill="none" stroke="#000000" points="1317,-305.5 1517,-305.5 "/>
<text text-anchor="middle" x="1417" y="-290.3" font-family="Times,serif" font-size="14.00" fill="#000000">study_admin_id</text>
<polyline fill="none" stroke="#000000" points="1517,-282.5 1517,-466.5 "/>
<text text-anchor="middle" x="1527.5" y="-370.8" font-family="Times,serif" font-size="14.00" fill="#000000"> </text>
</g>
<!-- study_admin&#45;&gt;study -->
<g id="edge13" class="edge">
<title>study_admin&#45;&gt;study</title>
<path fill="none" stroke="#000000" d="M1268.4694,-282.457C1253.7116,-268.0876 1238.2623,-253.0449 1222.9384,-238.1243"/>
<polygon fill="#000000" stroke="#000000" points="1225.0359,-235.2814 1215.4295,-230.8129 1220.1525,-240.2967 1225.0359,-235.2814"/>
<text text-anchor="middle" x="1301.5" y="-252.8" font-family="Times,serif" font-size="14.00" fill="#000000">of_study_admin</text>
</g>
<!-- study_personnel -->
<g id="node11" class="node">
<title>study_personnel</title>
<path fill="none" stroke="#000000" d="M1568.5,-317C1568.5,-317 1875.5,-317 1875.5,-317 1881.5,-317 1887.5,-323 1887.5,-329 1887.5,-329 1887.5,-420 1887.5,-420 1887.5,-426 1881.5,-432 1875.5,-432 1875.5,-432 1568.5,-432 1568.5,-432 1562.5,-432 1556.5,-426 1556.5,-420 1556.5,-420 1556.5,-329 1556.5,-329 1556.5,-323 1562.5,-317 1568.5,-317"/>
<text text-anchor="middle" x="1623.5" y="-370.8" font-family="Times,serif" font-size="14.00" fill="#000000">study_personnel</text>
<polyline fill="none" stroke="#000000" points="1690.5,-317 1690.5,-432 "/>
<text text-anchor="middle" x="1701" y="-370.8" font-family="Times,serif" font-size="14.00" fill="#000000"> </text>
<polyline fill="none" stroke="#000000" points="1711.5,-317 1711.5,-432 "/>
<text text-anchor="middle" x="1789" y="-416.8" font-family="Times,serif" font-size="14.00" fill="#000000">email_address</text>
<polyline fill="none" stroke="#000000" points="1711.5,-409 1866.5,-409 "/>
<text text-anchor="middle" x="1789" y="-393.8" font-family="Times,serif" font-size="14.00" fill="#000000">institution</text>
<polyline fill="none" stroke="#000000" points="1711.5,-386 1866.5,-386 "/>
<text text-anchor="middle" x="1789" y="-370.8" font-family="Times,serif" font-size="14.00" fill="#000000">personnel_name</text>
<polyline fill="none" stroke="#000000" points="1711.5,-363 1866.5,-363 "/>
<text text-anchor="middle" x="1789" y="-347.8" font-family="Times,serif" font-size="14.00" fill="#000000">personnel_type</text>
<polyline fill="none" stroke="#000000" points="1711.5,-340 1866.5,-340 "/>
<text text-anchor="middle" x="1789" y="-324.8" font-family="Times,serif" font-size="14.00" fill="#000000">study_personnel_id</text>
<polyline fill="none" stroke="#000000" points="1866.5,-317 1866.5,-432 "/>
<text text-anchor="middle" x="1877" y="-370.8" font-family="Times,serif" font-size="14.00" fill="#000000"> </text>
</g>
<!-- study_personnel&#45;&gt;study -->
<g id="edge18" class="edge">
<title>study_personnel&#45;&gt;study</title>
<path fill="none" stroke="#000000" d="M1618.5483,-316.938C1595.2939,-304.8108 1570.5305,-292.5168 1547,-282 1472.2452,-248.5886 1388.5531,-216.2877 1313.8082,-189.1704"/>
<polygon fill="#000000" stroke="#000000" points="1314.8624,-185.8298 1304.2682,-185.7197 1312.4814,-192.4125 1314.8624,-185.8298"/>
<text text-anchor="middle" x="1568.5" y="-252.8" font-family="Times,serif" font-size="14.00" fill="#000000">of_study_personnel</text>
</g>
<!-- experiment&#45;&gt;study -->
<g id="edge1" class="edge">
<title>experiment&#45;&gt;study</title>
<path fill="none" stroke="#000000" d="M1931.2209,-713.8564C1952.5764,-640.3767 2007.3077,-409.7045 1897,-282 1822.2973,-195.5158 1524.7649,-151.942 1314.4624,-131.5219"/>
<polygon fill="#000000" stroke="#000000" points="1314.4902,-128.0086 1304.2015,-130.5372 1313.8214,-134.9765 1314.4902,-128.0086"/>
<text text-anchor="middle" x="2013.5" y="-370.8" font-family="Times,serif" font-size="14.00" fill="#000000">of_experiment</text>
</g>
<!-- imaging_file -->
<g id="node13" class="node">
<title>imaging_file</title>
<path fill="none" stroke="#000000" d="M1783.5,-1088C1783.5,-1088 2072.5,-1088 2072.5,-1088 2078.5,-1088 2084.5,-1094 2084.5,-1100 2084.5,-1100 2084.5,-1421 2084.5,-1421 2084.5,-1427 2078.5,-1433 2072.5,-1433 2072.5,-1433 1783.5,-1433 1783.5,-1433 1777.5,-1433 1771.5,-1427 1771.5,-1421 1771.5,-1421 1771.5,-1100 1771.5,-1100 1771.5,-1094 1777.5,-1088 1783.5,-1088"/>
<text text-anchor="middle" x="1823.5" y="-1256.8" font-family="Times,serif" font-size="14.00" fill="#000000">imaging_file</text>
<polyline fill="none" stroke="#000000" points="1875.5,-1088 1875.5,-1433 "/>
<text text-anchor="middle" x="1886" y="-1256.8" font-family="Times,serif" font-size="14.00" fill="#000000"> </text>
<polyline fill="none" stroke="#000000" points="1896.5,-1088 1896.5,-1433 "/>
<text text-anchor="middle" x="1980" y="-1417.8" font-family="Times,serif" font-size="14.00" fill="#000000">checksum_algorithm</text>
<polyline fill="none" stroke="#000000" points="1896.5,-1410 2063.5,-1410 "/>
<text text-anchor="middle" x="1980" y="-1394.8" font-family="Times,serif" font-size="14.00" fill="#000000">checksum_value</text>
<polyline fill="none" stroke="#000000" points="1896.5,-1387 2063.5,-1387 "/>
<text text-anchor="middle" x="1980" y="-1371.8" font-family="Times,serif" font-size="14.00" fill="#000000">dcf_indexd_guid</text>
<polyline fill="none" stroke="#000000" points="1896.5,-1364 2063.5,-1364 "/>
<text text-anchor="middle" x="1980" y="-1348.8" font-family="Times,serif" font-size="14.00" fill="#000000">file_description</text>
<polyline fill="none" stroke="#000000" points="1896.5,-1341 2063.5,-1341 "/>
<text text-anchor="middle" x="1980" y="-1325.8" font-family="Times,serif" font-size="14.00" fill="#000000">file_mapping_level</text>
<polyline fill="none" stroke="#000000" points="1896.5,-1318 2063.5,-1318 "/>
<text text-anchor="middle" x="1980" y="-1302.8" font-family="Times,serif" font-size="14.00" fill="#000000">file_name</text>
<polyline fill="none" stroke="#000000" points="1896.5,-1295 2063.5,-1295 "/>
<text text-anchor="middle" x="1980" y="-1279.8" font-family="Times,serif" font-size="14.00" fill="#000000">file_size</text>
<polyline fill="none" stroke="#000000" points="1896.5,-1272 2063.5,-1272 "/>
<text text-anchor="middle" x="1980" y="-1256.8" font-family="Times,serif" font-size="14.00" fill="#000000">file_type</text>
<polyline fill="none" stroke="#000000" points="1896.5,-1249 2063.5,-1249 "/>
<text text-anchor="middle" x="1980" y="-1233.8" font-family="Times,serif" font-size="14.00" fill="#000000">file_url_in_cds</text>
<polyline fill="none" stroke="#000000" points="1896.5,-1226 2063.5,-1226 "/>
<text text-anchor="middle" x="1980" y="-1210.8" font-family="Times,serif" font-size="14.00" fill="#000000">image_modality</text>
<polyline fill="none" stroke="#000000" points="1896.5,-1203 2063.5,-1203 "/>
<text text-anchor="middle" x="1980" y="-1187.8" font-family="Times,serif" font-size="14.00" fill="#000000">imaging_platform</text>
<polyline fill="none" stroke="#000000" points="1896.5,-1180 2063.5,-1180 "/>
<text text-anchor="middle" x="1980" y="-1164.8" font-family="Times,serif" font-size="14.00" fill="#000000">instrument_model</text>
<polyline fill="none" stroke="#000000" points="1896.5,-1157 2063.5,-1157 "/>
<text text-anchor="middle" x="1980" y="-1141.8" font-family="Times,serif" font-size="14.00" fill="#000000">md5sum</text>
<polyline fill="none" stroke="#000000" points="1896.5,-1134 2063.5,-1134 "/>
<text text-anchor="middle" x="1980" y="-1118.8" font-family="Times,serif" font-size="14.00" fill="#000000">platform</text>
<polyline fill="none" stroke="#000000" points="1896.5,-1111 2063.5,-1111 "/>
<text text-anchor="middle" x="1980" y="-1095.8" font-family="Times,serif" font-size="14.00" fill="#000000">software_package</text>
<polyline fill="none" stroke="#000000" points="2063.5,-1088 2063.5,-1433 "/>
<text text-anchor="middle" x="2074" y="-1256.8" font-family="Times,serif" font-size="14.00" fill="#000000"> </text>
</g>
<!-- imaging_file&#45;&gt;sample -->
<g id="edge8" class="edge">
<title>imaging_file&#45;&gt;sample</title>
<path fill="none" stroke="#000000" d="M1852.6594,-1087.9095C1831.843,-1048.6425 1807.35,-1008.4001 1780,-974 1750.3673,-936.7288 1714.1829,-900.9741 1677.8197,-869.0406"/>
<polygon fill="#000000" stroke="#000000" points="1679.9003,-866.2114 1670.0598,-862.2852 1675.304,-871.4911 1679.9003,-866.2114"/>
<text text-anchor="middle" x="1844.5" y="-977.8" font-family="Times,serif" font-size="14.00" fill="#000000">of_imaging_file</text>
</g>
<!-- imaging_file&#45;&gt;experiment -->
<g id="edge9" class="edge">
<title>imaging_file&#45;&gt;experiment</title>
<path fill="none" stroke="#000000" d="M1926.6819,-1087.9987C1925.8083,-973.66 1924.7374,-833.5107 1924.2559,-770.4937"/>
<polygon fill="#000000" stroke="#000000" points="1927.7548,-770.3241 1924.1784,-760.3512 1920.755,-770.3777 1927.7548,-770.3241"/>
<text text-anchor="middle" x="1979.5" y="-977.8" font-family="Times,serif" font-size="14.00" fill="#000000">of_imaging_file</text>
</g>
<!-- clinical_measure_file -->
<g id="node14" class="node">
<title>clinical_measure_file</title>
<path fill="none" stroke="#000000" d="M12,-622C12,-622 364,-622 364,-622 370,-622 376,-628 376,-634 376,-634 376,-840 376,-840 376,-846 370,-852 364,-852 364,-852 12,-852 12,-852 6,-852 0,-846 0,-840 0,-840 0,-634 0,-634 0,-628 6,-622 12,-622"/>
<text text-anchor="middle" x="83.5" y="-733.3" font-family="Times,serif" font-size="14.00" fill="#000000">clinical_measure_file</text>
<polyline fill="none" stroke="#000000" points="167,-622 167,-852 "/>
<text text-anchor="middle" x="177.5" y="-733.3" font-family="Times,serif" font-size="14.00" fill="#000000"> </text>
<polyline fill="none" stroke="#000000" points="188,-622 188,-852 "/>
<text text-anchor="middle" x="271.5" y="-836.8" font-family="Times,serif" font-size="14.00" fill="#000000">checksum_algorithm</text>
<polyline fill="none" stroke="#000000" points="188,-829 355,-829 "/>
<text text-anchor="middle" x="271.5" y="-813.8" font-family="Times,serif" font-size="14.00" fill="#000000">checksum_value</text>
<polyline fill="none" stroke="#000000" points="188,-806 355,-806 "/>
<text text-anchor="middle" x="271.5" y="-790.8" font-family="Times,serif" font-size="14.00" fill="#000000">dcf_indexd_guid</text>
<polyline fill="none" stroke="#000000" points="188,-783 355,-783 "/>
<text text-anchor="middle" x="271.5" y="-767.8" font-family="Times,serif" font-size="14.00" fill="#000000">file_description</text>
<polyline fill="none" stroke="#000000" points="188,-760 355,-760 "/>
<text text-anchor="middle" x="271.5" y="-744.8" font-family="Times,serif" font-size="14.00" fill="#000000">file_mapping_level</text>
<polyline fill="none" stroke="#000000" points="188,-737 355,-737 "/>
<text text-anchor="middle" x="271.5" y="-721.8" font-family="Times,serif" font-size="14.00" fill="#000000">file_name</text>
<polyline fill="none" stroke="#000000" points="188,-714 355,-714 "/>
<text text-anchor="middle" x="271.5" y="-698.8" font-family="Times,serif" font-size="14.00" fill="#000000">file_size</text>
<polyline fill="none" stroke="#000000" points="188,-691 355,-691 "/>
<text text-anchor="middle" x="271.5" y="-675.8" font-family="Times,serif" font-size="14.00" fill="#000000">file_type</text>
<polyline fill="none" stroke="#000000" points="188,-668 355,-668 "/>
<text text-anchor="middle" x="271.5" y="-652.8" font-family="Times,serif" font-size="14.00" fill="#000000">file_url_in_cds</text>
<polyline fill="none" stroke="#000000" points="188,-645 355,-645 "/>
<text text-anchor="middle" x="271.5" y="-629.8" font-family="Times,serif" font-size="14.00" fill="#000000">md5sum</text>
<polyline fill="none" stroke="#000000" points="355,-622 355,-852 "/>
<text text-anchor="middle" x="365.5" y="-733.3" font-family="Times,serif" font-size="14.00" fill="#000000"> </text>
</g>
<!-- clinical_measure_file&#45;&gt;clinical_measure -->
<g id="edge10" class="edge">
<title>clinical_measure_file&#45;&gt;clinical_measure</title>
<path fill="none" stroke="#000000" d="M170.2348,-621.9575C165.635,-579.0007 162.7742,-529.7885 166,-485 168.0224,-456.9204 172.8997,-425.1362 176.7418,-402.8884"/>
<polygon fill="#000000" stroke="#000000" points="180.2325,-403.2476 178.5277,-392.7909 173.3395,-402.0285 180.2325,-403.2476"/>
<text text-anchor="middle" x="252" y="-488.8" font-family="Times,serif" font-size="14.00" fill="#000000">of_clinical_measure_file</text>
</g>
<!-- clinical_measure_file&#45;&gt;participant -->
<g id="edge7" class="edge">
<title>clinical_measure_file&#45;&gt;participant</title>
<path fill="none" stroke="#000000" d="M242.2832,-621.7096C272.787,-570.5139 316.0812,-515.1218 372,-485 445.2553,-445.5396 666.4809,-491.4985 746,-467 761.0849,-462.3526 776.1929,-455.8485 790.7079,-448.4196"/>
<polygon fill="#000000" stroke="#000000" points="792.4602,-451.4522 799.6634,-443.6828 789.1873,-445.2645 792.4602,-451.4522"/>
<text text-anchor="middle" x="501.5" y="-488.8" font-family="Times,serif" font-size="14.00" fill="#000000">of_clinical_measure_file_participant</text>
</g>
</g>
</svg>
