<svg width="3481pt" height="392pt"
 viewBox="0.00 0.00 3480.54 392.00" xmlns="http://www.w3.org/2000/svg" xmlns:xlink="http://www.w3.org/1999/xlink">
<g id="graph0" class="graph" transform="scale(1 1) rotate(0) translate(4 388)">
<title>Perl</title>
<polygon fill="#ffffff" stroke="transparent" points="-4,4 -4,-388 3476.5404,-388 3476.5404,4 -4,4"/>
<!-- methylation_array_file -->
<g id="node1" class="node">
<title>methylation_array_file</title>
<ellipse fill="none" stroke="#000000" cx="2292.5404" cy="-366" rx="115.8798" ry="18"/>
<text text-anchor="middle" x="2292.5404" y="-362.3" font-family="Times,serif" font-size="14.00" fill="#000000">methylation_array_file</text>
</g>
<!-- cell_line -->
<g id="node4" class="node">
<title>cell_line</title>
<ellipse fill="none" stroke="#000000" cx="2795.5404" cy="-279" rx="49.2915" ry="18"/>
<text text-anchor="middle" x="2795.5404" y="-275.3" font-family="Times,serif" font-size="14.00" fill="#000000">cell_line</text>
</g>
<!-- methylation_array_file&#45;&gt;cell_line -->
<g id="edge2" class="edge">
<title>methylation_array_file&#45;&gt;cell_line</title>
<path fill="none" stroke="#000000" d="M2311.2999,-348.1352C2324.9177,-336.3898 2344.4149,-321.9517 2364.5404,-315 2441.9292,-288.2686 2651.7579,-310.3341 2732.5404,-297 2737.8714,-296.12 2743.3931,-294.9469 2748.8512,-293.6198"/>
<polygon fill="#000000" stroke="#000000" points="2749.7562,-297.0009 2758.5519,-291.0945 2747.9927,-290.2266 2749.7562,-297.0009"/>
<text text-anchor="middle" x="2456.0404" y="-318.8" font-family="Times,serif" font-size="14.00" fill="#000000">of_methylation_array_file</text>
</g>
<!-- sample -->
<g id="node6" class="node">
<title>sample</title>
<ellipse fill="none" stroke="#000000" cx="2543.5404" cy="-192" rx="44.393" ry="18"/>
<text text-anchor="middle" x="2543.5404" y="-188.3" font-family="Times,serif" font-size="14.00" fill="#000000">sample</text>
</g>
<!-- methylation_array_file&#45;&gt;sample -->
<g id="edge1" class="edge">
<title>methylation_array_file&#45;&gt;sample</title>
<path fill="none" stroke="#000000" d="M2286.5117,-347.9545C2280.1441,-325.2153 2273.4233,-286.0816 2292.5404,-261 2304.8943,-244.7917 2424.4525,-217.168 2494.0083,-202.2625"/>
<polygon fill="#000000" stroke="#000000" points="2494.8373,-205.6645 2503.8891,-200.1585 2493.3794,-198.818 2494.8373,-205.6645"/>
<text text-anchor="middle" x="2384.0404" y="-275.3" font-family="Times,serif" font-size="14.00" fill="#000000">of_methylation_array_file</text>
</g>
<!-- pdx -->
<g id="node21" class="node">
<title>pdx</title>
<ellipse fill="none" stroke="#000000" cx="2639.5404" cy="-105" rx="27.8951" ry="18"/>
<text text-anchor="middle" x="2639.5404" y="-101.3" font-family="Times,serif" font-size="14.00" fill="#000000">pdx</text>
</g>
<!-- methylation_array_file&#45;&gt;pdx -->
<g id="edge3" class="edge">
<title>methylation_array_file&#45;&gt;pdx</title>
<path fill="none" stroke="#000000" d="M2220.9492,-351.8362C2200.2633,-346.4057 2178.0244,-339.2295 2158.5404,-330 2135.8013,-319.2287 2124.0307,-319.3843 2112.5404,-297 2105.2337,-282.7658 2106.3073,-275.736 2112.5404,-261 2138.827,-198.8542 2189.5407,-224.0401 2255.5404,-210 2405.1601,-178.1715 2442.2887,-167.828 2588.5404,-123 2594.0389,-121.3146 2599.8258,-119.4053 2605.4482,-117.4757"/>
<polygon fill="#000000" stroke="#000000" points="2607.0142,-120.6357 2615.2933,-114.0246 2604.6985,-114.0298 2607.0142,-120.6357"/>
<text text-anchor="middle" x="2228.0404" y="-231.8" font-family="Times,serif" font-size="14.00" fill="#000000">of_methylation_array_file</text>
</g>
<!-- exposure -->
<g id="node2" class="node">
<title>exposure</title>
<ellipse fill="none" stroke="#000000" cx="1684.5404" cy="-192" rx="53.0913" ry="18"/>
<text text-anchor="middle" x="1684.5404" y="-188.3" font-family="Times,serif" font-size="14.00" fill="#000000">exposure</text>
</g>
<!-- participant -->
<g id="node7" class="node">
<title>participant</title>
<ellipse fill="none" stroke="#000000" cx="1233.5404" cy="-105" rx="62.2891" ry="18"/>
<text text-anchor="middle" x="1233.5404" y="-101.3" font-family="Times,serif" font-size="14.00" fill="#000000">participant</text>
</g>
<!-- exposure&#45;&gt;participant -->
<g id="edge27" class="edge">
<title>exposure&#45;&gt;participant</title>
<path fill="none" stroke="#000000" d="M1669.0021,-174.6485C1657.4362,-162.9809 1640.5854,-148.4243 1622.5404,-141 1567.0916,-118.1867 1402.6802,-109.7135 1306.2666,-106.6543"/>
<polygon fill="#000000" stroke="#000000" points="1306.109,-103.148 1296.0068,-106.341 1305.8953,-110.1447 1306.109,-103.148"/>
<text text-anchor="middle" x="1691.0404" y="-144.8" font-family="Times,serif" font-size="14.00" fill="#000000">of_exposure</text>
</g>
<!-- medical_history -->
<g id="node3" class="node">
<title>medical_history</title>
<ellipse fill="none" stroke="#000000" cx="1234.5404" cy="-192" rx="85.2851" ry="18"/>
<text text-anchor="middle" x="1234.5404" y="-188.3" font-family="Times,serif" font-size="14.00" fill="#000000">medical_history</text>
</g>
<!-- medical_history&#45;&gt;participant -->
<g id="edge24" class="edge">
<title>medical_history&#45;&gt;participant</title>
<path fill="none" stroke="#000000" d="M1234.3332,-173.9735C1234.1977,-162.1918 1234.0181,-146.5607 1233.864,-133.1581"/>
<polygon fill="#000000" stroke="#000000" points="1237.3621,-132.9624 1233.7473,-123.0034 1230.3626,-133.043 1237.3621,-132.9624"/>
<text text-anchor="middle" x="1302.5404" y="-144.8" font-family="Times,serif" font-size="14.00" fill="#000000">of_medical_history</text>
</g>
<!-- cell_line&#45;&gt;sample -->
<g id="edge12" class="edge">
<title>cell_line&#45;&gt;sample</title>
<path fill="none" stroke="#000000" d="M2758.1527,-267.1736C2749.7895,-264.8494 2740.9146,-262.6297 2732.5404,-261 2695.4679,-253.7854 2593.5705,-265.9044 2563.5404,-243 2556.2027,-237.4035 2551.5542,-228.7227 2548.6104,-220.0996"/>
<polygon fill="#000000" stroke="#000000" points="2551.9108,-218.9018 2545.8788,-210.1917 2545.1626,-220.7623 2551.9108,-218.9018"/>
<text text-anchor="middle" x="2604.0404" y="-231.8" font-family="Times,serif" font-size="14.00" fill="#000000">of_cell_line</text>
</g>
<!-- cell_line&#45;&gt;participant -->
<g id="edge13" class="edge">
<title>cell_line&#45;&gt;participant</title>
<path fill="none" stroke="#000000" d="M2758.723,-266.9075C2750.8139,-264.6565 2742.4536,-262.5338 2734.5404,-261 2652.5706,-245.1123 2630.4246,-253.0823 2547.5404,-243 2238.5001,-205.4072 2164.24,-172.7061 1854.5404,-141 1656.6604,-120.7416 1422.0524,-110.9986 1306.005,-107.1267"/>
<polygon fill="#000000" stroke="#000000" points="1305.9356,-103.6226 1295.826,-106.792 1305.7055,-110.6188 1305.9356,-103.6226"/>
<text text-anchor="middle" x="2353.0404" y="-188.3" font-family="Times,serif" font-size="14.00" fill="#000000">of_cell_line</text>
</g>
<!-- study -->
<g id="node15" class="node">
<title>study</title>
<ellipse fill="none" stroke="#000000" cx="2081.5404" cy="-18" rx="36.2938" ry="18"/>
<text text-anchor="middle" x="2081.5404" y="-14.3" font-family="Times,serif" font-size="14.00" fill="#000000">study</text>
</g>
<!-- cell_line&#45;&gt;study -->
<g id="edge14" class="edge">
<title>cell_line&#45;&gt;study</title>
<path fill="none" stroke="#000000" d="M2844.3727,-275.8255C2917.2583,-270.5837 3047.4929,-259.0767 3061.5404,-243 3065.9269,-237.9798 3065.2201,-233.5591 3061.5404,-228 2952.2769,-62.9337 2844.1801,-99.5555 2651.5404,-54 2552.4874,-30.5759 2245.7123,-21.5691 2128.094,-18.9204"/>
<polygon fill="#000000" stroke="#000000" points="2128.0469,-15.4186 2117.9723,-18.6977 2127.8929,-22.4169 2128.0469,-15.4186"/>
<text text-anchor="middle" x="3041.0404" y="-144.8" font-family="Times,serif" font-size="14.00" fill="#000000">of_cell_line</text>
</g>
<!-- diagnosis -->
<g id="node5" class="node">
<title>diagnosis</title>
<ellipse fill="none" stroke="#000000" cx="559.5404" cy="-192" rx="54.6905" ry="18"/>
<text text-anchor="middle" x="559.5404" y="-188.3" font-family="Times,serif" font-size="14.00" fill="#000000">diagnosis</text>
</g>
<!-- diagnosis&#45;&gt;participant -->
<g id="edge23" class="edge">
<title>diagnosis&#45;&gt;participant</title>
<path fill="none" stroke="#000000" d="M554.2982,-173.6105C552.4035,-162.7012 552.4155,-149.4046 560.5404,-141 581.1495,-119.6814 991.1882,-109.551 1160.9315,-106.2583"/>
<polygon fill="#000000" stroke="#000000" points="1161.0969,-109.7558 1171.0281,-106.065 1160.9629,-102.7571 1161.0969,-109.7558"/>
<text text-anchor="middle" x="605.0404" y="-144.8" font-family="Times,serif" font-size="14.00" fill="#000000">of_diagnosis</text>
</g>
<!-- sample&#45;&gt;cell_line -->
<g id="edge16" class="edge">
<title>sample&#45;&gt;cell_line</title>
<path fill="none" stroke="#000000" d="M2578.5813,-203.191C2598.2246,-209.7863 2623.0279,-218.6533 2644.5404,-228 2657.8494,-233.7825 2660.0761,-237.5887 2673.5404,-243 2680.6357,-245.8516 2715.7673,-256.1561 2746.5198,-265.0138"/>
<polygon fill="#000000" stroke="#000000" points="2745.7317,-268.429 2756.3095,-267.8276 2747.6654,-261.7013 2745.7317,-268.429"/>
<text text-anchor="middle" x="2710.0404" y="-231.8" font-family="Times,serif" font-size="14.00" fill="#000000">of_sample</text>
</g>
<!-- sample&#45;&gt;participant -->
<g id="edge17" class="edge">
<title>sample&#45;&gt;participant</title>
<path fill="none" stroke="#000000" d="M2502.5712,-185.1648C2433.3518,-173.9108 2288.7446,-151.6663 2165.5404,-141 2080.963,-133.6778 1509.5317,-114.194 1305.643,-107.3873"/>
<polygon fill="#000000" stroke="#000000" points="1305.7464,-103.8889 1295.6353,-107.0535 1305.513,-110.885 1305.7464,-103.8889"/>
<text text-anchor="middle" x="2337.0404" y="-144.8" font-family="Times,serif" font-size="14.00" fill="#000000">of_sample</text>
</g>
<!-- sample&#45;&gt;pdx -->
<g id="edge15" class="edge">
<title>sample&#45;&gt;pdx</title>
<path fill="none" stroke="#000000" d="M2539.2076,-173.9358C2537.7524,-163.4138 2537.9066,-150.4093 2544.5404,-141 2545.5021,-139.6359 2578.5563,-127.2929 2605.4056,-117.4347"/>
<polygon fill="#000000" stroke="#000000" points="2606.7598,-120.6661 2614.9458,-113.94 2604.3521,-114.0932 2606.7598,-120.6661"/>
<text text-anchor="middle" x="2581.0404" y="-144.8" font-family="Times,serif" font-size="14.00" fill="#000000">of_sample</text>
</g>
<!-- participant&#45;&gt;study -->
<g id="edge5" class="edge">
<title>participant&#45;&gt;study</title>
<path fill="none" stroke="#000000" d="M1290.1194,-97.3816C1370.2411,-86.7524 1521.3972,-67.2858 1650.5404,-54 1790.4689,-39.6047 1956.4093,-26.9994 2035.3565,-21.2733"/>
<polygon fill="#000000" stroke="#000000" points="2035.732,-24.7554 2045.4539,-20.5441 2035.2277,-17.7736 2035.732,-24.7554"/>
<text text-anchor="middle" x="1701.0404" y="-57.8" font-family="Times,serif" font-size="14.00" fill="#000000">of_participant</text>
</g>
<!-- family_relationship -->
<g id="node8" class="node">
<title>family_relationship</title>
<ellipse fill="none" stroke="#000000" cx="853.5404" cy="-192" rx="100.1823" ry="18"/>
<text text-anchor="middle" x="853.5404" y="-188.3" font-family="Times,serif" font-size="14.00" fill="#000000">family_relationship</text>
</g>
<!-- family_relationship&#45;&gt;participant -->
<g id="edge31" class="edge">
<title>family_relationship&#45;&gt;participant</title>
<path fill="none" stroke="#000000" d="M871.506,-174.287C884.3403,-162.7694 902.6224,-148.5383 921.5404,-141 963.7754,-124.1705 1083.3805,-113.9907 1161.6331,-108.9386"/>
<polygon fill="#000000" stroke="#000000" points="1162.1532,-112.4128 1171.9125,-108.289 1161.7116,-105.4267 1162.1532,-112.4128"/>
<text text-anchor="middle" x="1001.0404" y="-144.8" font-family="Times,serif" font-size="14.00" fill="#000000">of_family_relationship</text>
</g>
<!-- molecular_test -->
<g id="node9" class="node">
<title>molecular_test</title>
<ellipse fill="none" stroke="#000000" cx="1051.5404" cy="-192" rx="79.8859" ry="18"/>
<text text-anchor="middle" x="1051.5404" y="-188.3" font-family="Times,serif" font-size="14.00" fill="#000000">molecular_test</text>
</g>
<!-- molecular_test&#45;&gt;participant -->
<g id="edge11" class="edge">
<title>molecular_test&#45;&gt;participant</title>
<path fill="none" stroke="#000000" d="M1065.3665,-174.0393C1074.7427,-163.0138 1088.0362,-149.4359 1102.5404,-141 1122.6079,-129.3284 1146.6091,-121.3101 1168.5527,-115.8612"/>
<polygon fill="#000000" stroke="#000000" points="1169.5326,-119.2264 1178.4687,-113.5346 1167.9335,-112.4115 1169.5326,-119.2264"/>
<text text-anchor="middle" x="1166.5404" y="-144.8" font-family="Times,serif" font-size="14.00" fill="#000000">of_molecular_test</text>
</g>
<!-- synonym -->
<g id="node10" class="node">
<title>synonym</title>
<ellipse fill="none" stroke="#000000" cx="1755.5404" cy="-279" rx="51.9908" ry="18"/>
<text text-anchor="middle" x="1755.5404" y="-275.3" font-family="Times,serif" font-size="14.00" fill="#000000">synonym</text>
</g>
<!-- synonym&#45;&gt;sample -->
<g id="edge36" class="edge">
<title>synonym&#45;&gt;sample</title>
<path fill="none" stroke="#000000" d="M1806.7188,-275.6307C1848.7231,-271.5349 1909.1149,-262.5528 1958.5404,-243 1969.8887,-238.5106 1969.9595,-231.8498 1981.5404,-228 1987.5297,-226.009 2349.8134,-203.789 2489.4647,-195.2842"/>
<polygon fill="#000000" stroke="#000000" points="2489.7529,-198.7733 2499.5217,-194.672 2489.3275,-191.7862 2489.7529,-198.7733"/>
<text text-anchor="middle" x="2024.0404" y="-231.8" font-family="Times,serif" font-size="14.00" fill="#000000">of_synonym</text>
</g>
<!-- synonym&#45;&gt;participant -->
<g id="edge35" class="edge">
<title>synonym&#45;&gt;participant</title>
<path fill="none" stroke="#000000" d="M1703.5191,-277.6845C1490.6754,-272.0539 695.6955,-248.5029 659.5404,-210 648.5879,-198.3363 649.0535,-186.0841 659.5404,-174 691.9634,-136.6387 1014.8549,-115.9008 1161.6118,-108.34"/>
<polygon fill="#000000" stroke="#000000" points="1162.0582,-111.8219 1171.8675,-107.8184 1161.7026,-104.831 1162.0582,-111.8219"/>
<text text-anchor="middle" x="702.0404" y="-188.3" font-family="Times,serif" font-size="14.00" fill="#000000">of_synonym</text>
</g>
<!-- synonym&#45;&gt;study -->
<g id="edge37" class="edge">
<title>synonym&#45;&gt;study</title>
<path fill="none" stroke="#000000" d="M1751.973,-260.836C1745.6378,-222.6666 1737.1867,-133.8031 1784.5404,-87 1819.6895,-52.2596 1961.5621,-31.4899 2035.7787,-22.7924"/>
<polygon fill="#000000" stroke="#000000" points="2036.2477,-26.2616 2045.7838,-21.645 2035.4501,-19.3072 2036.2477,-26.2616"/>
<text text-anchor="middle" x="1797.0404" y="-144.8" font-family="Times,serif" font-size="14.00" fill="#000000">of_synonym</text>
</g>
<!-- single_cell_sequencing_file -->
<g id="node11" class="node">
<title>single_cell_sequencing_file</title>
<ellipse fill="none" stroke="#000000" cx="2563.5404" cy="-366" rx="137.5759" ry="18"/>
<text text-anchor="middle" x="2563.5404" y="-362.3" font-family="Times,serif" font-size="14.00" fill="#000000">single_cell_sequencing_file</text>
</g>
<!-- single_cell_sequencing_file&#45;&gt;cell_line -->
<g id="edge29" class="edge">
<title>single_cell_sequencing_file&#45;&gt;cell_line</title>
<path fill="none" stroke="#000000" d="M2555.1317,-347.8443C2551.4978,-337.023 2549.6563,-323.7366 2557.5404,-315 2583.7317,-285.9765 2694.1528,-304.3985 2732.5404,-297 2737.6452,-296.0161 2742.9353,-294.8099 2748.1818,-293.4919"/>
<polygon fill="#000000" stroke="#000000" points="2749.387,-296.7935 2758.1571,-290.8491 2747.5943,-290.0269 2749.387,-296.7935"/>
<text text-anchor="middle" x="2666.0404" y="-318.8" font-family="Times,serif" font-size="14.00" fill="#000000">of_single_cell_sequencing_file</text>
</g>
<!-- single_cell_sequencing_file&#45;&gt;sample -->
<g id="edge30" class="edge">
<title>single_cell_sequencing_file&#45;&gt;sample</title>
<path fill="none" stroke="#000000" d="M2464.1211,-353.4507C2403.6225,-345.3276 2337.0858,-335.3087 2332.5404,-330 2328.2044,-324.936 2328.1221,-319.9923 2332.5404,-315 2354.3517,-290.355 2451.8795,-314.8323 2479.5404,-297 2507.4537,-279.0049 2525.0759,-244.1064 2534.6067,-219.4933"/>
<polygon fill="#000000" stroke="#000000" points="2537.9395,-220.5705 2538.0911,-209.9768 2531.3662,-218.1638 2537.9395,-220.5705"/>
<text text-anchor="middle" x="2622.0404" y="-275.3" font-family="Times,serif" font-size="14.00" fill="#000000">of_single_cell_sequencing_file</text>
</g>
<!-- single_cell_sequencing_file&#45;&gt;pdx -->
<g id="edge28" class="edge">
<title>single_cell_sequencing_file&#45;&gt;pdx</title>
<path fill="none" stroke="#000000" d="M2696.9972,-361.4933C2850.4172,-355.6471 3083.0228,-344.4614 3096.5404,-330 3101.0928,-325.1297 3100.8165,-320.1146 3096.5404,-315 3067.5745,-280.3548 3039.1773,-311.8795 2996.5404,-297 2865.985,-251.4387 2725.5297,-162.7086 2667.2825,-123.917"/>
<polygon fill="#000000" stroke="#000000" points="2668.9097,-120.7942 2658.6542,-118.1343 2665.0125,-126.6091 2668.9097,-120.7942"/>
<text text-anchor="middle" x="2979.0404" y="-231.8" font-family="Times,serif" font-size="14.00" fill="#000000">of_single_cell_sequencing_file</text>
</g>
<!-- follow_up -->
<g id="node12" class="node">
<title>follow_up</title>
<ellipse fill="none" stroke="#000000" cx="1392.5404" cy="-192" rx="55.4913" ry="18"/>
<text text-anchor="middle" x="1392.5404" y="-188.3" font-family="Times,serif" font-size="14.00" fill="#000000">follow_up</text>
</g>
<!-- follow_up&#45;&gt;participant -->
<g id="edge26" class="edge">
<title>follow_up&#45;&gt;participant</title>
<path fill="none" stroke="#000000" d="M1388.9883,-174.032C1385.9058,-163.0035 1380.3373,-149.4251 1370.5404,-141 1359.1909,-131.2398 1327.6547,-122.6214 1297.6975,-116.2659"/>
<polygon fill="#000000" stroke="#000000" points="1298.1297,-112.7817 1287.6301,-114.199 1296.7219,-119.6387 1298.1297,-112.7817"/>
<text text-anchor="middle" x="1426.5404" y="-144.8" font-family="Times,serif" font-size="14.00" fill="#000000">of_follow_up</text>
</g>
<!-- study_admin -->
<g id="node13" class="node">
<title>study_admin</title>
<ellipse fill="none" stroke="#000000" cx="1863.5404" cy="-105" rx="70.3881" ry="18"/>
<text text-anchor="middle" x="1863.5404" y="-101.3" font-family="Times,serif" font-size="14.00" fill="#000000">study_admin</text>
</g>
<!-- study_admin&#45;&gt;study -->
<g id="edge9" class="edge">
<title>study_admin&#45;&gt;study</title>
<path fill="none" stroke="#000000" d="M1874.7815,-87.2069C1882.8237,-75.9589 1894.6561,-62.0697 1908.5404,-54 1929.7805,-41.655 1992.1573,-30.666 2035.885,-24.1683"/>
<polygon fill="#000000" stroke="#000000" points="2036.6201,-27.5982 2046.0114,-22.6937 2035.6114,-20.6713 2036.6201,-27.5982"/>
<text text-anchor="middle" x="1965.0404" y="-57.8" font-family="Times,serif" font-size="14.00" fill="#000000">of_study_admin</text>
</g>
<!-- study_arm -->
<g id="node14" class="node">
<title>study_arm</title>
<ellipse fill="none" stroke="#000000" cx="2011.5404" cy="-105" rx="59.5901" ry="18"/>
<text text-anchor="middle" x="2011.5404" y="-101.3" font-family="Times,serif" font-size="14.00" fill="#000000">study_arm</text>
</g>
<!-- study_arm&#45;&gt;study -->
<g id="edge10" class="edge">
<title>study_arm&#45;&gt;study</title>
<path fill="none" stroke="#000000" d="M2016.8116,-86.7716C2020.402,-76.4454 2025.902,-63.6954 2033.5404,-54 2038.1495,-48.1496 2043.9283,-42.7589 2049.8639,-38.0276"/>
<polygon fill="#000000" stroke="#000000" points="2052.0268,-40.7809 2057.9599,-32.0032 2047.8479,-35.1651 2052.0268,-40.7809"/>
<text text-anchor="middle" x="2082.0404" y="-57.8" font-family="Times,serif" font-size="14.00" fill="#000000">of_study_arm</text>
</g>
<!-- publication -->
<g id="node16" class="node">
<title>publication</title>
<ellipse fill="none" stroke="#000000" cx="2152.5404" cy="-105" rx="63.0888" ry="18"/>
<text text-anchor="middle" x="2152.5404" y="-101.3" font-family="Times,serif" font-size="14.00" fill="#000000">publication</text>
</g>
<!-- publication&#45;&gt;study -->
<g id="edge4" class="edge">
<title>publication&#45;&gt;study</title>
<path fill="none" stroke="#000000" d="M2147.3049,-86.7432C2143.7265,-76.4076 2138.2265,-63.6576 2130.5404,-54 2125.7952,-48.0376 2119.8299,-42.5753 2113.71,-37.8051"/>
<polygon fill="#000000" stroke="#000000" points="2115.5168,-34.7917 2105.3688,-31.7474 2111.4034,-40.4557 2115.5168,-34.7917"/>
<text text-anchor="middle" x="2189.5404" y="-57.8" font-family="Times,serif" font-size="14.00" fill="#000000">of_publication</text>
</g>
<!-- radiology_file -->
<g id="node17" class="node">
<title>radiology_file</title>
<ellipse fill="none" stroke="#000000" cx="1539.5404" cy="-192" rx="73.387" ry="18"/>
<text text-anchor="middle" x="1539.5404" y="-188.3" font-family="Times,serif" font-size="14.00" fill="#000000">radiology_file</text>
</g>
<!-- radiology_file&#45;&gt;participant -->
<g id="edge22" class="edge">
<title>radiology_file&#45;&gt;participant</title>
<path fill="none" stroke="#000000" d="M1522.7426,-174.4665C1510.7128,-163.0289 1493.5198,-148.8199 1475.5404,-141 1445.4849,-127.9279 1363.7244,-117.5339 1303.5185,-111.3395"/>
<polygon fill="#000000" stroke="#000000" points="1303.6015,-107.8301 1293.3002,-110.3069 1302.8976,-114.7947 1303.6015,-107.8301"/>
<text text-anchor="middle" x="1559.5404" y="-144.8" font-family="Times,serif" font-size="14.00" fill="#000000">of_radiology_file</text>
</g>
<!-- pathology_file -->
<g id="node18" class="node">
<title>pathology_file</title>
<ellipse fill="none" stroke="#000000" cx="2082.5404" cy="-366" rx="76.0865" ry="18"/>
<text text-anchor="middle" x="2082.5404" y="-362.3" font-family="Times,serif" font-size="14.00" fill="#000000">pathology_file</text>
</g>
<!-- pathology_file&#45;&gt;cell_line -->
<g id="edge19" class="edge">
<title>pathology_file&#45;&gt;cell_line</title>
<path fill="none" stroke="#000000" d="M2114.7191,-349.5674C2140.0379,-337.5381 2176.5938,-322.1225 2210.5404,-315 2324.1359,-291.1661 2617.8878,-315.0775 2732.5404,-297 2737.9479,-296.1474 2743.5487,-294.9792 2749.079,-293.6443"/>
<polygon fill="#000000" stroke="#000000" points="2750.1015,-296.9949 2758.9005,-291.0934 2748.3417,-290.2197 2750.1015,-296.9949"/>
<text text-anchor="middle" x="2271.5404" y="-318.8" font-family="Times,serif" font-size="14.00" fill="#000000">of_pathology_file</text>
</g>
<!-- pathology_file&#45;&gt;sample -->
<g id="edge18" class="edge">
<title>pathology_file&#45;&gt;sample</title>
<path fill="none" stroke="#000000" d="M2089.4134,-347.7046C2099.514,-323.5519 2120.7919,-281.6768 2153.5404,-261 2198.77,-232.4428 2220.156,-253.822 2272.5404,-243 2298.1945,-237.7001 2303.931,-233.5119 2329.5404,-228 2384.4379,-216.1845 2447.9536,-205.924 2491.4422,-199.4131"/>
<polygon fill="#000000" stroke="#000000" points="2492.1227,-202.8505 2501.5006,-197.9206 2491.0952,-195.9264 2492.1227,-202.8505"/>
<text text-anchor="middle" x="2214.5404" y="-275.3" font-family="Times,serif" font-size="14.00" fill="#000000">of_pathology_file</text>
</g>
<!-- pathology_file&#45;&gt;pdx -->
<g id="edge20" class="edge">
<title>pathology_file&#45;&gt;pdx</title>
<path fill="none" stroke="#000000" d="M2018.9002,-356.1338C1927.8989,-339.2989 1777.3441,-299.6895 1832.5404,-228 1936.0145,-93.6067 2422.0029,-155.1513 2588.5404,-123 2594.4464,-121.8598 2600.5903,-120.163 2606.4831,-118.2597"/>
<polygon fill="#000000" stroke="#000000" points="2607.7815,-121.5138 2616.077,-114.9233 2605.4822,-114.9023 2607.7815,-121.5138"/>
<text text-anchor="middle" x="1893.5404" y="-231.8" font-family="Times,serif" font-size="14.00" fill="#000000">of_pathology_file</text>
</g>
<!-- study_funding -->
<g id="node19" class="node">
<title>study_funding</title>
<ellipse fill="none" stroke="#000000" cx="2310.5404" cy="-105" rx="77.1866" ry="18"/>
<text text-anchor="middle" x="2310.5404" y="-101.3" font-family="Times,serif" font-size="14.00" fill="#000000">study_funding</text>
</g>
<!-- study_funding&#45;&gt;study -->
<g id="edge25" class="edge">
<title>study_funding&#45;&gt;study</title>
<path fill="none" stroke="#000000" d="M2292.3884,-87.3891C2279.8902,-76.218 2262.3781,-62.3461 2244.5404,-54 2207.1924,-36.5253 2161.009,-27.3547 2127.3481,-22.6554"/>
<polygon fill="#000000" stroke="#000000" points="2127.6985,-19.1715 2117.3273,-21.3364 2126.7849,-26.1116 2127.6985,-19.1715"/>
<text text-anchor="middle" x="2329.5404" y="-57.8" font-family="Times,serif" font-size="14.00" fill="#000000">of_study_funding</text>
</g>
<!-- study_personnel -->
<g id="node20" class="node">
<title>study_personnel</title>
<ellipse fill="none" stroke="#000000" cx="2492.5404" cy="-105" rx="87.1846" ry="18"/>
<text text-anchor="middle" x="2492.5404" y="-101.3" font-family="Times,serif" font-size="14.00" fill="#000000">study_personnel</text>
</g>
<!-- study_personnel&#45;&gt;study -->
<g id="edge34" class="edge">
<title>study_personnel&#45;&gt;study</title>
<path fill="none" stroke="#000000" d="M2466.1132,-87.6622C2447.2377,-76.1586 2420.8124,-61.7927 2395.5404,-54 2346.713,-38.944 2202.7427,-26.7412 2127.9048,-21.2087"/>
<polygon fill="#000000" stroke="#000000" points="2128.0491,-17.71 2117.8208,-20.4727 2127.5394,-24.6915 2128.0491,-17.71"/>
<text text-anchor="middle" x="2501.0404" y="-57.8" font-family="Times,serif" font-size="14.00" fill="#000000">of_study_personnel</text>
</g>
<!-- pdx&#45;&gt;sample -->
<g id="edge32" class="edge">
<title>pdx&#45;&gt;sample</title>
<path fill="none" stroke="#000000" d="M2635.245,-122.8275C2631.908,-133.5253 2626.3336,-146.797 2617.5404,-156 2609.3724,-164.5486 2598.7519,-171.3323 2588.1183,-176.5988"/>
<polygon fill="#000000" stroke="#000000" points="2586.4721,-173.5029 2578.8315,-180.8427 2589.3816,-179.8696 2586.4721,-173.5029"/>
<text text-anchor="middle" x="2651.5404" y="-144.8" font-family="Times,serif" font-size="14.00" fill="#000000">of_pdx</text>
</g>
<!-- pdx&#45;&gt;study -->
<g id="edge33" class="edge">
<title>pdx&#45;&gt;study</title>
<path fill="none" stroke="#000000" d="M2625.167,-89.5171C2612.9706,-77.5076 2594.3394,-61.6586 2574.5404,-54 2533.5981,-38.1628 2243.1615,-24.6441 2128.2107,-19.8549"/>
<polygon fill="#000000" stroke="#000000" points="2128.1068,-16.3478 2117.9709,-19.4321 2127.818,-23.3418 2128.1068,-16.3478"/>
<text text-anchor="middle" x="2623.5404" y="-57.8" font-family="Times,serif" font-size="14.00" fill="#000000">of_pdx</text>
</g>
<!-- clinical_measure_file -->
<g id="node22" class="node">
<title>clinical_measure_file</title>
<ellipse fill="none" stroke="#000000" cx="108.5404" cy="-192" rx="108.5808" ry="18"/>
<text text-anchor="middle" x="108.5404" y="-188.3" font-family="Times,serif" font-size="14.00" fill="#000000">clinical_measure_file</text>
</g>
<!-- clinical_measure_file&#45;&gt;participant -->
<g id="edge42" class="edge">
<title>clinical_measure_file&#45;&gt;participant</title>
<path fill="none" stroke="#000000" d="M126.9631,-174.0442C140.3569,-162.2571 159.5728,-147.8065 179.5404,-141 225.8633,-125.2095 930.2131,-110.6803 1160.9605,-106.3229"/>
<polygon fill="#000000" stroke="#000000" points="1161.3277,-109.8167 1171.2601,-106.1292 1161.196,-102.8179 1161.3277,-109.8167"/>
<text text-anchor="middle" x="265.5404" y="-144.8" font-family="Times,serif" font-size="14.00" fill="#000000">of_clinical_measure_file</text>
</g>
<!-- clinical_measure_file&#45;&gt;study -->
<g id="edge41" class="edge">
<title>clinical_measure_file&#45;&gt;study</title>
<path fill="none" stroke="#000000" d="M117.593,-173.8428C124.4045,-162.2861 134.9012,-148.1853 148.5404,-141 320.3737,-50.4755 1756.357,-23.1652 2034.8589,-18.6987"/>
<polygon fill="#000000" stroke="#000000" points="2035.0797,-22.1957 2045.023,-18.5376 2034.9687,-15.1966 2035.0797,-22.1957"/>
<text text-anchor="middle" x="532.5404" y="-101.3" font-family="Times,serif" font-size="14.00" fill="#000000">of_clinical_measure_file</text>
</g>
<!-- therapeutic_procedure -->
<g id="node23" class="node">
<title>therapeutic_procedure</title>
<ellipse fill="none" stroke="#000000" cx="352.5404" cy="-192" rx="117.7793" ry="18"/>
<text text-anchor="middle" x="352.5404" y="-188.3" font-family="Times,serif" font-size="14.00" fill="#000000">therapeutic_procedure</text>
</g>
<!-- therapeutic_procedure&#45;&gt;participant -->
<g id="edge21" class="edge">
<title>therapeutic_procedure&#45;&gt;participant</title>
<path fill="none" stroke="#000000" d="M351.7043,-173.8319C352.2547,-162.5766 355.0742,-148.8216 364.5404,-141 395.003,-115.8297 956.8417,-107.7512 1160.5511,-105.643"/>
<polygon fill="#000000" stroke="#000000" points="1160.8834,-109.1399 1170.8473,-105.5384 1160.8123,-102.1403 1160.8834,-109.1399"/>
<text text-anchor="middle" x="457.5404" y="-144.8" font-family="Times,serif" font-size="14.00" fill="#000000">of_therapeutic_procedure</text>
</g>
<!-- cytogenomic_file -->
<g id="node24" class="node">
<title>cytogenomic_file</title>
<ellipse fill="none" stroke="#000000" cx="3080.5404" cy="-366" rx="89.8845" ry="18"/>
<text text-anchor="middle" x="3080.5404" y="-362.3" font-family="Times,serif" font-size="14.00" fill="#000000">cytogenomic_file</text>
</g>
<!-- cytogenomic_file&#45;&gt;cell_line -->
<g id="edge39" class="edge">
<title>cytogenomic_file&#45;&gt;cell_line</title>
<path fill="none" stroke="#000000" d="M2994.7982,-360.6359C2916.4558,-354.8546 2810.8195,-344.4926 2797.5404,-330 2791.9845,-323.9364 2790.1942,-315.566 2790.1695,-307.3584"/>
<polygon fill="#000000" stroke="#000000" points="2793.6709,-307.4698 2790.9318,-297.2351 2786.6907,-306.9441 2793.6709,-307.4698"/>
<text text-anchor="middle" x="2869.0404" y="-318.8" font-family="Times,serif" font-size="14.00" fill="#000000">of_cytogenomic_file</text>
</g>
<!-- cytogenomic_file&#45;&gt;sample -->
<g id="edge38" class="edge">
<title>cytogenomic_file&#45;&gt;sample</title>
<path fill="none" stroke="#000000" d="M3108.0835,-348.827C3120.6813,-338.8526 3130.9313,-326.1026 3121.5404,-315 3090.3976,-278.1807 3052.1593,-327.1719 3014.5404,-297 2988.7229,-276.2934 3013.22,-247.5833 2986.5404,-228 2955.8519,-205.4741 2709.2367,-196.2847 2597.8276,-193.2562"/>
<polygon fill="#000000" stroke="#000000" points="2597.8888,-189.7567 2587.7996,-192.9903 2597.7033,-196.7542 2597.8888,-189.7567"/>
<text text-anchor="middle" x="3086.0404" y="-275.3" font-family="Times,serif" font-size="14.00" fill="#000000">of_cytogenomic_file</text>
</g>
<!-- cytogenomic_file&#45;&gt;pdx -->
<g id="edge40" class="edge">
<title>cytogenomic_file&#45;&gt;pdx</title>
<path fill="none" stroke="#000000" d="M3112.5735,-349.1288C3130.6509,-337.3832 3150.9158,-319.7492 3157.5404,-297 3176.9251,-230.4317 3204.8364,-191.6971 3157.5404,-141 3141.1972,-123.4816 2794.7051,-110.2305 2677.726,-106.2421"/>
<polygon fill="#000000" stroke="#000000" points="2677.5706,-102.735 2667.4583,-105.8958 2677.3346,-109.731 2677.5706,-102.735"/>
<text text-anchor="middle" x="3250.0404" y="-231.8" font-family="Times,serif" font-size="14.00" fill="#000000">of_cytogenomic_file</text>
</g>
<!-- sequencing_file -->
<g id="node25" class="node">
<title>sequencing_file</title>
<ellipse fill="none" stroke="#000000" cx="3271.5404" cy="-366" rx="83.3857" ry="18"/>
<text text-anchor="middle" x="3271.5404" y="-362.3" font-family="Times,serif" font-size="14.00" fill="#000000">sequencing_file</text>
</g>
<!-- sequencing_file&#45;&gt;cell_line -->
<g id="edge8" class="edge">
<title>sequencing_file&#45;&gt;cell_line</title>
<path fill="none" stroke="#000000" d="M3210.2236,-353.7415C3199.9873,-351.7702 3189.4707,-349.791 3179.5404,-348 3131.2194,-339.2851 3118.9036,-338.477 3070.5404,-330 2993.5466,-316.5047 2904.6424,-299.8151 2849.2524,-289.285"/>
<polygon fill="#000000" stroke="#000000" points="2849.7884,-285.8242 2839.3103,-287.3926 2848.4795,-292.7008 2849.7884,-285.8242"/>
<text text-anchor="middle" x="3137.0404" y="-318.8" font-family="Times,serif" font-size="14.00" fill="#000000">of_sequencing_file</text>
</g>
<!-- sequencing_file&#45;&gt;sample -->
<g id="edge6" class="edge">
<title>sequencing_file&#45;&gt;sample</title>
<path fill="none" stroke="#000000" d="M3258.0688,-347.9971C3239.2202,-324.1759 3202.6406,-282.6752 3161.5404,-261 3064.2655,-209.6998 2730.4111,-196.3512 2598.1404,-193.039"/>
<polygon fill="#000000" stroke="#000000" points="2597.9278,-189.5329 2587.8465,-192.7914 2597.7594,-196.5309 2597.9278,-189.5329"/>
<text text-anchor="middle" x="3276.0404" y="-275.3" font-family="Times,serif" font-size="14.00" fill="#000000">of_sequencing_file</text>
</g>
<!-- sequencing_file&#45;&gt;pdx -->
<g id="edge7" class="edge">
<title>sequencing_file&#45;&gt;pdx</title>
<path fill="none" stroke="#000000" d="M3299.5345,-348.9863C3316.6103,-336.8645 3336.9423,-318.8723 3346.5404,-297 3352.9697,-282.3486 3351.0138,-276.3619 3346.5404,-261 3320.7847,-172.5536 3265.57,-168.1461 3177.5404,-141 3084.0425,-112.1677 2784.5163,-106.4183 2677.7717,-105.2791"/>
<polygon fill="#000000" stroke="#000000" points="2677.7982,-101.7793 2667.764,-105.18 2677.7288,-108.779 2677.7982,-101.7793"/>
<text text-anchor="middle" x="3406.0404" y="-231.8" font-family="Times,serif" font-size="14.00" fill="#000000">of_sequencing_file</text>
</g>
</g>
</svg>
