<svg width="2444pt" height="305pt"
 viewBox="0.00 0.00 2443.76 305.00" xmlns="http://www.w3.org/2000/svg" xmlns:xlink="http://www.w3.org/1999/xlink">
<g id="graph0" class="graph" transform="scale(1 1) rotate(0) translate(4 301)">
<title>Perl</title>
<polygon fill="#ffffff" stroke="transparent" points="-4,4 -4,-301 2439.7628,-301 2439.7628,4 -4,4"/>
<!-- family_relationship -->
<g id="node1" class="node">
<title>family_relationship</title>
<ellipse fill="none" stroke="#000000" cx="1215.3672" cy="-192" rx="100.1823" ry="18"/>
<text text-anchor="middle" x="1215.3672" y="-188.3" font-family="Times,serif" font-size="14.00" fill="#000000">family_relationship</text>
</g>
<!-- participant -->
<g id="node18" class="node">
<title>participant</title>
<ellipse fill="none" stroke="#000000" cx="1173.3672" cy="-105" rx="62.2891" ry="18"/>
<text text-anchor="middle" x="1173.3672" y="-101.3" font-family="Times,serif" font-size="14.00" fill="#000000">participant</text>
</g>
<!-- family_relationship&#45;&gt;participant -->
<g id="edge10" class="edge">
<title>family_relationship&#45;&gt;participant</title>
<path fill="none" stroke="#000000" d="M1188.8279,-174.4775C1183.0227,-169.2695 1177.6399,-163.0444 1174.3672,-156 1171.1349,-149.0428 1169.9756,-140.9544 1169.8564,-133.297"/>
<polygon fill="#000000" stroke="#000000" points="1173.3551,-133.3959 1170.2417,-123.2689 1166.3603,-133.1271 1173.3551,-133.3959"/>
<text text-anchor="middle" x="1253.8672" y="-144.8" font-family="Times,serif" font-size="14.00" fill="#000000">of_family_relationship</text>
</g>
<!-- study_admin -->
<g id="node2" class="node">
<title>study_admin</title>
<ellipse fill="none" stroke="#000000" cx="849.3672" cy="-105" rx="70.3881" ry="18"/>
<text text-anchor="middle" x="849.3672" y="-101.3" font-family="Times,serif" font-size="14.00" fill="#000000">study_admin</text>
</g>
<!-- study -->
<g id="node19" class="node">
<title>study</title>
<ellipse fill="none" stroke="#000000" cx="1708.3672" cy="-18" rx="36.2938" ry="18"/>
<text text-anchor="middle" x="1708.3672" y="-14.3" font-family="Times,serif" font-size="14.00" fill="#000000">study</text>
</g>
<!-- study_admin&#45;&gt;study -->
<g id="edge23" class="edge">
<title>study_admin&#45;&gt;study</title>
<path fill="none" stroke="#000000" d="M896.3396,-91.5772C940.3853,-79.5857 1008.278,-62.6208 1068.3672,-54 1183.0141,-37.5519 1534.3301,-24.0515 1661.6605,-19.5792"/>
<polygon fill="#000000" stroke="#000000" points="1661.986,-23.07 1671.8579,-19.2235 1661.7419,-16.0743 1661.986,-23.07"/>
<text text-anchor="middle" x="1124.8672" y="-57.8" font-family="Times,serif" font-size="14.00" fill="#000000">of_study_admin</text>
</g>
<!-- study_funding -->
<g id="node3" class="node">
<title>study_funding</title>
<ellipse fill="none" stroke="#000000" cx="1015.3672" cy="-105" rx="77.1866" ry="18"/>
<text text-anchor="middle" x="1015.3672" y="-101.3" font-family="Times,serif" font-size="14.00" fill="#000000">study_funding</text>
</g>
<!-- study_funding&#45;&gt;study -->
<g id="edge29" class="edge">
<title>study_funding&#45;&gt;study</title>
<path fill="none" stroke="#000000" d="M1073.3798,-92.9128C1083.0564,-90.9209 1092.9929,-88.8904 1102.3672,-87 1176.9591,-71.958 1194.9969,-64.4663 1270.3672,-54 1412.1254,-34.3146 1581.3008,-24.1493 1661.6063,-20.1216"/>
<polygon fill="#000000" stroke="#000000" points="1662.0593,-23.6037 1671.875,-19.6159 1661.715,-16.6121 1662.0593,-23.6037"/>
<text text-anchor="middle" x="1332.3672" y="-57.8" font-family="Times,serif" font-size="14.00" fill="#000000">of_study_funding</text>
</g>
<!-- cytogenomic_file -->
<g id="node4" class="node">
<title>cytogenomic_file</title>
<ellipse fill="none" stroke="#000000" cx="2231.3672" cy="-279" rx="89.8845" ry="18"/>
<text text-anchor="middle" x="2231.3672" y="-275.3" font-family="Times,serif" font-size="14.00" fill="#000000">cytogenomic_file</text>
</g>
<!-- sample -->
<g id="node5" class="node">
<title>sample</title>
<ellipse fill="none" stroke="#000000" cx="1926.3672" cy="-192" rx="44.393" ry="18"/>
<text text-anchor="middle" x="1926.3672" y="-188.3" font-family="Times,serif" font-size="14.00" fill="#000000">sample</text>
</g>
<!-- cytogenomic_file&#45;&gt;sample -->
<g id="edge32" class="edge">
<title>cytogenomic_file&#45;&gt;sample</title>
<path fill="none" stroke="#000000" d="M2213.6682,-261.2367C2201.2301,-249.851 2183.611,-235.793 2165.3672,-228 2132.9019,-214.1322 2039.8602,-202.9417 1979.9002,-196.9003"/>
<polygon fill="#000000" stroke="#000000" points="1980.1406,-193.407 1969.8442,-195.9039 1979.4504,-200.3729 1980.1406,-193.407"/>
<text text-anchor="middle" x="2261.8672" y="-231.8" font-family="Times,serif" font-size="14.00" fill="#000000">of_cytogenomic_file</text>
</g>
<!-- cell_line -->
<g id="node16" class="node">
<title>cell_line</title>
<ellipse fill="none" stroke="#000000" cx="2386.3672" cy="-105" rx="49.2915" ry="18"/>
<text text-anchor="middle" x="2386.3672" y="-101.3" font-family="Times,serif" font-size="14.00" fill="#000000">cell_line</text>
</g>
<!-- sample&#45;&gt;cell_line -->
<g id="edge7" class="edge">
<title>sample&#45;&gt;cell_line</title>
<path fill="none" stroke="#000000" d="M1970.5168,-190.8884C2034.4285,-188.4495 2156.0545,-180.6821 2256.3672,-156 2287.7841,-148.2698 2321.7733,-134.7399 2347.1154,-123.5577"/>
<polygon fill="#000000" stroke="#000000" points="2348.688,-126.6884 2356.3813,-119.4039 2345.8245,-120.3008 2348.688,-126.6884"/>
<text text-anchor="middle" x="2339.8672" y="-144.8" font-family="Times,serif" font-size="14.00" fill="#000000">of_sample</text>
</g>
<!-- sample&#45;&gt;participant -->
<g id="edge6" class="edge">
<title>sample&#45;&gt;participant</title>
<path fill="none" stroke="#000000" d="M1893.5358,-179.9278C1886.9162,-177.7556 1879.9642,-175.6583 1873.3672,-174 1826.1733,-162.1365 1812.8513,-166.6422 1765.3672,-156 1741.479,-150.6462 1736.4899,-145.1718 1712.3672,-141 1624.7282,-125.8435 1371.0838,-113.3845 1245.5243,-107.9456"/>
<polygon fill="#000000" stroke="#000000" points="1245.3863,-104.4366 1235.2452,-107.5037 1245.0856,-111.4301 1245.3863,-104.4366"/>
<text text-anchor="middle" x="1801.8672" y="-144.8" font-family="Times,serif" font-size="14.00" fill="#000000">of_sample</text>
</g>
<!-- pdx -->
<g id="node20" class="node">
<title>pdx</title>
<ellipse fill="none" stroke="#000000" cx="1817.3672" cy="-105" rx="27.8951" ry="18"/>
<text text-anchor="middle" x="1817.3672" y="-101.3" font-family="Times,serif" font-size="14.00" fill="#000000">pdx</text>
</g>
<!-- sample&#45;&gt;pdx -->
<g id="edge5" class="edge">
<title>sample&#45;&gt;pdx</title>
<path fill="none" stroke="#000000" d="M1922.41,-173.8315C1919.2003,-163.0054 1913.6409,-149.7185 1904.3672,-141 1887.1593,-124.8224 1876.1288,-132.1793 1854.3672,-123 1852.5407,-122.2296 1850.6755,-121.4147 1848.8013,-120.574"/>
<polygon fill="#000000" stroke="#000000" points="1850.0375,-117.2889 1839.4944,-116.2423 1847.0837,-123.6351 1850.0375,-117.2889"/>
<text text-anchor="middle" x="1950.8672" y="-144.8" font-family="Times,serif" font-size="14.00" fill="#000000">of_sample</text>
</g>
<!-- synonym -->
<g id="node6" class="node">
<title>synonym</title>
<ellipse fill="none" stroke="#000000" cx="70.3672" cy="-279" rx="51.9908" ry="18"/>
<text text-anchor="middle" x="70.3672" y="-275.3" font-family="Times,serif" font-size="14.00" fill="#000000">synonym</text>
</g>
<!-- synonym&#45;&gt;sample -->
<g id="edge24" class="edge">
<title>synonym&#45;&gt;sample</title>
<path fill="none" stroke="#000000" d="M122.1747,-277.1187C415.0689,-266.4706 1851.2396,-214.0912 1873.3672,-210 1877.0222,-209.3242 1880.7682,-208.4485 1884.4964,-207.4478"/>
<polygon fill="#000000" stroke="#000000" points="1885.6553,-210.7549 1894.2488,-204.558 1883.6665,-204.0433 1885.6553,-210.7549"/>
<text text-anchor="middle" x="1468.8672" y="-231.8" font-family="Times,serif" font-size="14.00" fill="#000000">of_synonym</text>
</g>
<!-- synonym&#45;&gt;participant -->
<g id="edge25" class="edge">
<title>synonym&#45;&gt;participant</title>
<path fill="none" stroke="#000000" d="M65.8307,-260.7185C61.2331,-237.3598 57.5506,-197.1842 79.3672,-174 148.329,-100.7151 203.0953,-149.4842 303.3672,-141 480.114,-126.0451 925.5733,-146.6564 1101.3672,-123 1107.1753,-122.2184 1113.1925,-121.1463 1119.161,-119.9116"/>
<polygon fill="#000000" stroke="#000000" points="1120.1099,-123.2863 1129.1141,-117.7029 1118.5933,-116.4525 1120.1099,-123.2863"/>
<text text-anchor="middle" x="121.8672" y="-188.3" font-family="Times,serif" font-size="14.00" fill="#000000">of_synonym</text>
</g>
<!-- synonym&#45;&gt;study -->
<g id="edge26" class="edge">
<title>synonym&#45;&gt;study</title>
<path fill="none" stroke="#000000" d="M52.2088,-261.7101C24.6248,-233.4063 -21.3424,-176.7615 11.3672,-141 158.0313,19.3484 768.5844,-69.073 985.3672,-54 1240.3773,-36.269 1546.5761,-23.9876 1661.6386,-19.6893"/>
<polygon fill="#000000" stroke="#000000" points="1661.9854,-23.1789 1671.8486,-19.3101 1661.7255,-16.1837 1661.9854,-23.1789"/>
<text text-anchor="middle" x="53.8672" y="-144.8" font-family="Times,serif" font-size="14.00" fill="#000000">of_synonym</text>
</g>
<!-- medical_history -->
<g id="node7" class="node">
<title>medical_history</title>
<ellipse fill="none" stroke="#000000" cx="1543.3672" cy="-192" rx="85.2851" ry="18"/>
<text text-anchor="middle" x="1543.3672" y="-188.3" font-family="Times,serif" font-size="14.00" fill="#000000">medical_history</text>
</g>
<!-- medical_history&#45;&gt;participant -->
<g id="edge11" class="edge">
<title>medical_history&#45;&gt;participant</title>
<path fill="none" stroke="#000000" d="M1478.9204,-180.1174C1441.7397,-172.7865 1398.9605,-163.4028 1381.3672,-156 1370.1184,-151.2668 1369.6776,-145.5839 1358.3672,-141 1321.7968,-126.1789 1278.6274,-117.3327 1243.1916,-112.1211"/>
<polygon fill="#000000" stroke="#000000" points="1243.3271,-108.6058 1232.9377,-110.6817 1242.354,-115.5379 1243.3271,-108.6058"/>
<text text-anchor="middle" x="1449.3672" y="-144.8" font-family="Times,serif" font-size="14.00" fill="#000000">of_medical_history</text>
</g>
<!-- exposure -->
<g id="node8" class="node">
<title>exposure</title>
<ellipse fill="none" stroke="#000000" cx="226.3672" cy="-192" rx="53.0913" ry="18"/>
<text text-anchor="middle" x="226.3672" y="-188.3" font-family="Times,serif" font-size="14.00" fill="#000000">exposure</text>
</g>
<!-- exposure&#45;&gt;participant -->
<g id="edge20" class="edge">
<title>exposure&#45;&gt;participant</title>
<path fill="none" stroke="#000000" d="M255.6947,-176.8277C281.0565,-164.5688 319.0951,-148.2097 354.3672,-141 517.0516,-107.7469 936.8194,-145.272 1101.3672,-123 1107.1747,-122.2139 1113.1915,-121.139 1119.1598,-119.9026"/>
<polygon fill="#000000" stroke="#000000" points="1120.1095,-123.277 1129.1127,-117.6919 1118.5916,-116.4435 1120.1095,-123.277"/>
<text text-anchor="middle" x="397.8672" y="-144.8" font-family="Times,serif" font-size="14.00" fill="#000000">of_exposure</text>
</g>
<!-- diagnosis -->
<g id="node9" class="node">
<title>diagnosis</title>
<ellipse fill="none" stroke="#000000" cx="1635.3672" cy="-279" rx="54.6905" ry="18"/>
<text text-anchor="middle" x="1635.3672" y="-275.3" font-family="Times,serif" font-size="14.00" fill="#000000">diagnosis</text>
</g>
<!-- diagnosis&#45;&gt;sample -->
<g id="edge18" class="edge">
<title>diagnosis&#45;&gt;sample</title>
<path fill="none" stroke="#000000" d="M1660.496,-262.7586C1679.6846,-251.158 1707.1963,-236.2063 1733.3672,-228 1793.2277,-209.2298 1812.2511,-224.1575 1873.3672,-210 1876.7841,-209.2085 1880.2911,-208.2823 1883.7948,-207.2752"/>
<polygon fill="#000000" stroke="#000000" points="1885.0522,-210.5505 1893.5829,-204.2674 1882.996,-203.8593 1885.0522,-210.5505"/>
<text text-anchor="middle" x="1777.8672" y="-231.8" font-family="Times,serif" font-size="14.00" fill="#000000">of_diagnosis</text>
</g>
<!-- diagnosis&#45;&gt;participant -->
<g id="edge17" class="edge">
<title>diagnosis&#45;&gt;participant</title>
<path fill="none" stroke="#000000" d="M1594.115,-267.1558C1586.5613,-265.056 1578.7374,-262.9265 1571.3672,-261 1478.0249,-236.602 1433.0599,-273.4335 1360.3672,-210 1335.5549,-188.3482 1358.3501,-162.4545 1333.3672,-141 1319.2995,-128.9192 1278.1261,-119.8121 1241.0719,-113.7803"/>
<polygon fill="#000000" stroke="#000000" points="1241.1777,-110.2541 1230.7559,-112.1606 1240.092,-117.1694 1241.1777,-110.2541"/>
<text text-anchor="middle" x="1404.8672" y="-188.3" font-family="Times,serif" font-size="14.00" fill="#000000">of_diagnosis</text>
</g>
<!-- pathology_file -->
<g id="node10" class="node">
<title>pathology_file</title>
<ellipse fill="none" stroke="#000000" cx="1486.3672" cy="-279" rx="76.0865" ry="18"/>
<text text-anchor="middle" x="1486.3672" y="-275.3" font-family="Times,serif" font-size="14.00" fill="#000000">pathology_file</text>
</g>
<!-- pathology_file&#45;&gt;sample -->
<g id="edge15" class="edge">
<title>pathology_file&#45;&gt;sample</title>
<path fill="none" stroke="#000000" d="M1508.0888,-261.7098C1524.2537,-249.9098 1547.4037,-235.1663 1570.3672,-228 1699.1461,-187.8116 1740.9773,-235.9239 1873.3672,-210 1877.0149,-209.2857 1880.7557,-208.3831 1884.4805,-207.3642"/>
<polygon fill="#000000" stroke="#000000" points="1885.6517,-210.6672 1894.2274,-204.4457 1883.6437,-203.9613 1885.6517,-210.6672"/>
<text text-anchor="middle" x="1631.3672" y="-231.8" font-family="Times,serif" font-size="14.00" fill="#000000">of_pathology_file</text>
</g>
<!-- methylation_array_file -->
<g id="node11" class="node">
<title>methylation_array_file</title>
<ellipse fill="none" stroke="#000000" cx="1823.3672" cy="-279" rx="115.8798" ry="18"/>
<text text-anchor="middle" x="1823.3672" y="-275.3" font-family="Times,serif" font-size="14.00" fill="#000000">methylation_array_file</text>
</g>
<!-- methylation_array_file&#45;&gt;sample -->
<g id="edge14" class="edge">
<title>methylation_array_file&#45;&gt;sample</title>
<path fill="none" stroke="#000000" d="M1823.6081,-260.6001C1824.6625,-249.9592 1827.6362,-236.9475 1835.3672,-228 1838.8747,-223.9405 1861.0738,-215.1231 1882.666,-207.2311"/>
<polygon fill="#000000" stroke="#000000" points="1883.9325,-210.4951 1892.1494,-203.8067 1881.555,-203.9112 1883.9325,-210.4951"/>
<text text-anchor="middle" x="1926.8672" y="-231.8" font-family="Times,serif" font-size="14.00" fill="#000000">of_methylation_array_file</text>
</g>
<!-- publication -->
<g id="node12" class="node">
<title>publication</title>
<ellipse fill="none" stroke="#000000" cx="1926.3672" cy="-105" rx="63.0888" ry="18"/>
<text text-anchor="middle" x="1926.3672" y="-101.3" font-family="Times,serif" font-size="14.00" fill="#000000">publication</text>
</g>
<!-- publication&#45;&gt;study -->
<g id="edge31" class="edge">
<title>publication&#45;&gt;study</title>
<path fill="none" stroke="#000000" d="M1896.5592,-89.0988C1875.8188,-78.3898 1847.3359,-64.3808 1821.3672,-54 1798.2605,-44.7632 1771.7855,-36.2241 1750.2727,-29.7826"/>
<polygon fill="#000000" stroke="#000000" points="1751.0399,-26.3599 1740.4581,-26.8856 1749.0581,-33.0735 1751.0399,-26.3599"/>
<text text-anchor="middle" x="1904.3672" y="-57.8" font-family="Times,serif" font-size="14.00" fill="#000000">of_publication</text>
</g>
<!-- study_personnel -->
<g id="node13" class="node">
<title>study_personnel</title>
<ellipse fill="none" stroke="#000000" cx="2094.3672" cy="-105" rx="87.1846" ry="18"/>
<text text-anchor="middle" x="2094.3672" y="-101.3" font-family="Times,serif" font-size="14.00" fill="#000000">study_personnel</text>
</g>
<!-- study_personnel&#45;&gt;study -->
<g id="edge8" class="edge">
<title>study_personnel&#45;&gt;study</title>
<path fill="none" stroke="#000000" d="M2057.5416,-88.5798C2030.7925,-77.2765 1993.458,-62.7713 1959.3672,-54 1889.168,-35.9384 1805.4349,-26.2179 1754.6184,-21.5807"/>
<polygon fill="#000000" stroke="#000000" points="1754.8692,-18.0893 1744.5995,-20.6936 1754.2518,-25.062 1754.8692,-18.0893"/>
<text text-anchor="middle" x="2073.8672" y="-57.8" font-family="Times,serif" font-size="14.00" fill="#000000">of_study_personnel</text>
</g>
<!-- treatment_response -->
<g id="node14" class="node">
<title>treatment_response</title>
<ellipse fill="none" stroke="#000000" cx="402.3672" cy="-192" rx="104.7816" ry="18"/>
<text text-anchor="middle" x="402.3672" y="-188.3" font-family="Times,serif" font-size="14.00" fill="#000000">treatment_response</text>
</g>
<!-- treatment_response&#45;&gt;participant -->
<g id="edge16" class="edge">
<title>treatment_response&#45;&gt;participant</title>
<path fill="none" stroke="#000000" d="M420.1668,-174.0146C433.1354,-162.2139 451.7958,-147.7592 471.3672,-141 537.5594,-118.1398 1031.9926,-132.5481 1101.3672,-123 1107.0912,-122.2122 1113.0192,-121.1481 1118.904,-119.9286"/>
<polygon fill="#000000" stroke="#000000" points="1119.7183,-123.3331 1128.7233,-117.751 1118.2027,-116.4991 1119.7183,-123.3331"/>
<text text-anchor="middle" x="554.3672" y="-144.8" font-family="Times,serif" font-size="14.00" fill="#000000">of_treatment_response</text>
</g>
<!-- treatment -->
<g id="node15" class="node">
<title>treatment</title>
<ellipse fill="none" stroke="#000000" cx="582.3672" cy="-192" rx="57.6901" ry="18"/>
<text text-anchor="middle" x="582.3672" y="-188.3" font-family="Times,serif" font-size="14.00" fill="#000000">treatment</text>
</g>
<!-- treatment&#45;&gt;participant -->
<g id="edge9" class="edge">
<title>treatment&#45;&gt;participant</title>
<path fill="none" stroke="#000000" d="M606.0794,-175.3485C624.5613,-163.3724 651.3703,-148.1265 677.3672,-141 768.3188,-116.0675 1008.0321,-136.5056 1101.3672,-123 1107.0856,-122.1725 1113.0099,-121.0826 1118.8925,-119.8477"/>
<polygon fill="#000000" stroke="#000000" points="1119.714,-123.2505 1128.7095,-117.653 1118.1868,-116.4191 1119.714,-123.2505"/>
<text text-anchor="middle" x="724.3672" y="-144.8" font-family="Times,serif" font-size="14.00" fill="#000000">of_treatment</text>
</g>
<!-- cell_line&#45;&gt;sample -->
<g id="edge27" class="edge">
<title>cell_line&#45;&gt;sample</title>
<path fill="none" stroke="#000000" d="M2350.1317,-117.3825C2342.9807,-119.5025 2335.4859,-121.501 2328.3672,-123 2259.6394,-137.4718 2240.7084,-129.8317 2171.3672,-141 2102.6895,-152.0615 2024.0823,-169.2361 1974.8307,-180.5502"/>
<polygon fill="#000000" stroke="#000000" points="1973.7365,-177.2107 1964.7806,-182.8712 1975.3118,-184.0311 1973.7365,-177.2107"/>
<text text-anchor="middle" x="2211.8672" y="-144.8" font-family="Times,serif" font-size="14.00" fill="#000000">of_cell_line</text>
</g>
<!-- cell_line&#45;&gt;study -->
<g id="edge28" class="edge">
<title>cell_line&#45;&gt;study</title>
<path fill="none" stroke="#000000" d="M2362.8466,-88.9914C2343.9049,-77.0237 2316.1167,-61.4887 2289.3672,-54 2189.2305,-25.9661 1874.6461,-19.74 1755.0953,-18.3761"/>
<polygon fill="#000000" stroke="#000000" points="1754.8521,-14.8734 1744.815,-18.2654 1754.7767,-21.873 1754.8521,-14.8734"/>
<text text-anchor="middle" x="2365.8672" y="-57.8" font-family="Times,serif" font-size="14.00" fill="#000000">of_cell_line</text>
</g>
<!-- study_arm -->
<g id="node17" class="node">
<title>study_arm</title>
<ellipse fill="none" stroke="#000000" cx="2259.3672" cy="-105" rx="59.5901" ry="18"/>
<text text-anchor="middle" x="2259.3672" y="-101.3" font-family="Times,serif" font-size="14.00" fill="#000000">study_arm</text>
</g>
<!-- study_arm&#45;&gt;study -->
<g id="edge4" class="edge">
<title>study_arm&#45;&gt;study</title>
<path fill="none" stroke="#000000" d="M2231.3677,-88.9503C2209.2982,-77.1269 2177.3487,-61.8014 2147.3672,-54 2074.1771,-34.9555 1852.0212,-23.8493 1754.7812,-19.7834"/>
<polygon fill="#000000" stroke="#000000" points="1754.798,-16.2812 1744.6625,-19.3669 1754.5101,-23.2753 1754.798,-16.2812"/>
<text text-anchor="middle" x="2236.8672" y="-57.8" font-family="Times,serif" font-size="14.00" fill="#000000">of_study_arm</text>
</g>
<!-- participant&#45;&gt;study -->
<g id="edge19" class="edge">
<title>participant&#45;&gt;study</title>
<path fill="none" stroke="#000000" d="M1227.5737,-96.0571C1289.6228,-85.8328 1394.3103,-68.6208 1484.3672,-54 1546.4063,-43.9279 1618.1354,-32.4251 1663.3706,-25.1884"/>
<polygon fill="#000000" stroke="#000000" points="1664.1202,-28.6131 1673.4419,-23.5776 1663.0146,-21.7009 1664.1202,-28.6131"/>
<text text-anchor="middle" x="1534.8672" y="-57.8" font-family="Times,serif" font-size="14.00" fill="#000000">of_participant</text>
</g>
<!-- pdx&#45;&gt;sample -->
<g id="edge3" class="edge">
<title>pdx&#45;&gt;sample</title>
<path fill="none" stroke="#000000" d="M1827.6906,-122.1799C1834.7612,-132.894 1844.9096,-146.4182 1856.3672,-156 1865.0353,-163.2491 1875.4068,-169.5711 1885.477,-174.8086"/>
<polygon fill="#000000" stroke="#000000" points="1884.0673,-178.016 1894.5829,-179.3092 1887.1689,-171.7406 1884.0673,-178.016"/>
<text text-anchor="middle" x="1880.3672" y="-144.8" font-family="Times,serif" font-size="14.00" fill="#000000">of_pdx</text>
</g>
<!-- pdx&#45;&gt;study -->
<g id="edge2" class="edge">
<title>pdx&#45;&gt;study</title>
<path fill="none" stroke="#000000" d="M1799.368,-90.6337C1782.0428,-76.8054 1755.6098,-55.7074 1735.6884,-39.8069"/>
<polygon fill="#000000" stroke="#000000" points="1737.865,-37.066 1727.866,-33.5633 1733.4983,-42.537 1737.865,-37.066"/>
<text text-anchor="middle" x="1793.3672" y="-57.8" font-family="Times,serif" font-size="14.00" fill="#000000">of_pdx</text>
</g>
<!-- molecular_test -->
<g id="node21" class="node">
<title>molecular_test</title>
<ellipse fill="none" stroke="#000000" cx="738.3672" cy="-192" rx="79.8859" ry="18"/>
<text text-anchor="middle" x="738.3672" y="-188.3" font-family="Times,serif" font-size="14.00" fill="#000000">molecular_test</text>
</g>
<!-- molecular_test&#45;&gt;participant -->
<g id="edge12" class="edge">
<title>molecular_test&#45;&gt;participant</title>
<path fill="none" stroke="#000000" d="M754.0803,-174.2147C765.6046,-162.5059 782.3334,-148.0787 800.3672,-141 862.7424,-116.5163 1035.135,-133.1696 1101.3672,-123 1106.8593,-122.1567 1112.5443,-121.0867 1118.2013,-119.8904"/>
<polygon fill="#000000" stroke="#000000" points="1119.3153,-123.2275 1128.3059,-117.6221 1117.7821,-116.3975 1119.3153,-123.2275"/>
<text text-anchor="middle" x="864.3672" y="-144.8" font-family="Times,serif" font-size="14.00" fill="#000000">of_molecular_test</text>
</g>
<!-- radiology_file -->
<g id="node22" class="node">
<title>radiology_file</title>
<ellipse fill="none" stroke="#000000" cx="909.3672" cy="-192" rx="73.387" ry="18"/>
<text text-anchor="middle" x="909.3672" y="-188.3" font-family="Times,serif" font-size="14.00" fill="#000000">radiology_file</text>
</g>
<!-- radiology_file&#45;&gt;participant -->
<g id="edge30" class="edge">
<title>radiology_file&#45;&gt;participant</title>
<path fill="none" stroke="#000000" d="M919.0402,-173.8252C926.1273,-162.416 936.854,-148.4907 950.3672,-141 1009.479,-108.2328 1034.8949,-135.2204 1101.3672,-123 1106.6737,-122.0244 1112.1707,-120.8864 1117.6538,-119.6652"/>
<polygon fill="#000000" stroke="#000000" points="1118.5114,-123.0593 1127.4644,-117.3942 1116.9327,-116.2396 1118.5114,-123.0593"/>
<text text-anchor="middle" x="1009.3672" y="-144.8" font-family="Times,serif" font-size="14.00" fill="#000000">of_radiology_file</text>
</g>
<!-- survival -->
<g id="node23" class="node">
<title>survival</title>
<ellipse fill="none" stroke="#000000" cx="1049.3672" cy="-192" rx="48.1917" ry="18"/>
<text text-anchor="middle" x="1049.3672" y="-188.3" font-family="Times,serif" font-size="14.00" fill="#000000">survival</text>
</g>
<!-- survival&#45;&gt;participant -->
<g id="edge13" class="edge">
<title>survival&#45;&gt;participant</title>
<path fill="none" stroke="#000000" d="M1059.3942,-174.0126C1066.1396,-163.2546 1075.8838,-149.9758 1087.3672,-141 1097.1308,-133.3684 1108.7466,-127.0816 1120.2334,-122.0178"/>
<polygon fill="#000000" stroke="#000000" points="1121.9106,-125.1115 1129.8084,-118.0493 1119.2303,-118.6449 1121.9106,-125.1115"/>
<text text-anchor="middle" x="1126.8672" y="-144.8" font-family="Times,serif" font-size="14.00" fill="#000000">of_survival</text>
</g>
<!-- sequencing_file -->
<g id="node24" class="node">
<title>sequencing_file</title>
<ellipse fill="none" stroke="#000000" cx="2040.3672" cy="-279" rx="83.3857" ry="18"/>
<text text-anchor="middle" x="2040.3672" y="-275.3" font-family="Times,serif" font-size="14.00" fill="#000000">sequencing_file</text>
</g>
<!-- sequencing_file&#45;&gt;sample -->
<g id="edge1" class="edge">
<title>sequencing_file&#45;&gt;sample</title>
<path fill="none" stroke="#000000" d="M2036.3253,-260.9205C2033.0836,-250.1278 2027.5205,-236.8449 2018.3672,-228 2006.6306,-216.6589 1990.908,-208.775 1975.7842,-203.3451"/>
<polygon fill="#000000" stroke="#000000" points="1976.5731,-199.9201 1965.9801,-200.1195 1974.3854,-206.5695 1976.5731,-199.9201"/>
<text text-anchor="middle" x="2094.8672" y="-231.8" font-family="Times,serif" font-size="14.00" fill="#000000">of_sequencing_file</text>
</g>
<!-- clinical_measure_file -->
<g id="node25" class="node">
<title>clinical_measure_file</title>
<ellipse fill="none" stroke="#000000" cx="1755.3672" cy="-192" rx="108.5808" ry="18"/>
<text text-anchor="middle" x="1755.3672" y="-188.3" font-family="Times,serif" font-size="14.00" fill="#000000">clinical_measure_file</text>
</g>
<!-- clinical_measure_file&#45;&gt;participant -->
<g id="edge22" class="edge">
<title>clinical_measure_file&#45;&gt;participant</title>
<path fill="none" stroke="#000000" d="M1676.6371,-179.5903C1617.9695,-170.2183 1546.9011,-158.5486 1540.3672,-156 1528.9974,-151.5652 1528.8681,-145.0824 1517.3672,-141 1468.8343,-123.7728 1330.9034,-113.4692 1245.1613,-108.5452"/>
<polygon fill="#000000" stroke="#000000" points="1245.1542,-105.0394 1234.9731,-107.9713 1244.7604,-112.0283 1245.1542,-105.0394"/>
<text text-anchor="middle" x="1626.3672" y="-144.8" font-family="Times,serif" font-size="14.00" fill="#000000">of_clinical_measure_file</text>
</g>
<!-- clinical_measure_file&#45;&gt;study -->
<g id="edge21" class="edge">
<title>clinical_measure_file&#45;&gt;study</title>
<path fill="none" stroke="#000000" d="M1791.2585,-174.8591C1806.7524,-165.2173 1819.1362,-152.7818 1808.3672,-141 1778.2606,-108.0621 1638.4737,-155.9379 1608.3672,-123 1579.5147,-91.4343 1632.9912,-55.5245 1672.2356,-34.9364"/>
<polygon fill="#000000" stroke="#000000" points="1674.0302,-37.9501 1681.35,-30.2903 1670.8512,-31.7136 1674.0302,-37.9501"/>
<text text-anchor="middle" x="1694.3672" y="-101.3" font-family="Times,serif" font-size="14.00" fill="#000000">of_clinical_measure_file</text>
</g>
</g>
</svg>
