<svg width="3862pt" height="392pt"
 viewBox="0.00 0.00 3862.28 392.00" xmlns="http://www.w3.org/2000/svg" xmlns:xlink="http://www.w3.org/1999/xlink">
<g id="graph0" class="graph" transform="scale(1 1) rotate(0) translate(4 388)">
<title>Perl</title>
<polygon fill="#ffffff" stroke="transparent" points="-4,4 -4,-388 3858.2849,-388 3858.2849,4 -4,4"/>
<!-- single_cell_sequencing_file -->
<g id="node1" class="node">
<title>single_cell_sequencing_file</title>
<ellipse fill="none" stroke="#000000" cx="1077.1926" cy="-366" rx="137.5759" ry="18"/>
<text text-anchor="middle" x="1077.1926" y="-362.3" font-family="Times,serif" font-size="14.00" fill="#000000">single_cell_sequencing_file</text>
</g>
<!-- cell_line -->
<g id="node12" class="node">
<title>cell_line</title>
<ellipse fill="none" stroke="#000000" cx="870.1926" cy="-279" rx="49.2915" ry="18"/>
<text text-anchor="middle" x="870.1926" y="-275.3" font-family="Times,serif" font-size="14.00" fill="#000000">cell_line</text>
</g>
<!-- single_cell_sequencing_file&#45;&gt;cell_line -->
<g id="edge5" class="edge">
<title>single_cell_sequencing_file&#45;&gt;cell_line</title>
<path fill="none" stroke="#000000" d="M970.9412,-354.5183C919.8275,-347.8994 867.9098,-339.1029 860.1926,-330 854.657,-323.4703 854.5979,-314.7758 856.7164,-306.4178"/>
<polygon fill="#000000" stroke="#000000" points="860.0436,-307.5055 860.006,-296.9107 853.4284,-305.2165 860.0436,-307.5055"/>
<text text-anchor="middle" x="968.6926" y="-318.8" font-family="Times,serif" font-size="14.00" fill="#000000">of_single_cell_sequencing_file</text>
</g>
<!-- pdx -->
<g id="node15" class="node">
<title>pdx</title>
<ellipse fill="none" stroke="#000000" cx="849.1926" cy="-105" rx="27.8951" ry="18"/>
<text text-anchor="middle" x="849.1926" y="-101.3" font-family="Times,serif" font-size="14.00" fill="#000000">pdx</text>
</g>
<!-- single_cell_sequencing_file&#45;&gt;pdx -->
<g id="edge6" class="edge">
<title>single_cell_sequencing_file&#45;&gt;pdx</title>
<path fill="none" stroke="#000000" d="M1095.182,-348.1515C1106.7227,-337.4457 1122.4487,-324.1731 1138.1926,-315 1157.8789,-303.5299 1173.215,-315.7268 1186.1926,-297 1195.3061,-283.8492 1196.2361,-273.4551 1186.1926,-261 1162.4985,-231.6167 1138.1169,-257.3207 1103.1926,-243 1024.8185,-210.8628 1017.8286,-179.1379 942.1926,-141 923.4096,-131.5291 901.5072,-122.939 883.6773,-116.527"/>
<polygon fill="#000000" stroke="#000000" points="884.8312,-113.2227 874.2364,-113.1971 882.5028,-119.8241 884.8312,-113.2227"/>
<text text-anchor="middle" x="1211.6926" y="-231.8" font-family="Times,serif" font-size="14.00" fill="#000000">of_single_cell_sequencing_file</text>
</g>
<!-- sample -->
<g id="node23" class="node">
<title>sample</title>
<ellipse fill="none" stroke="#000000" cx="867.1926" cy="-192" rx="44.393" ry="18"/>
<text text-anchor="middle" x="867.1926" y="-188.3" font-family="Times,serif" font-size="14.00" fill="#000000">sample</text>
</g>
<!-- single_cell_sequencing_file&#45;&gt;sample -->
<g id="edge7" class="edge">
<title>single_cell_sequencing_file&#45;&gt;sample</title>
<path fill="none" stroke="#000000" d="M1082.5099,-347.9718C1084.511,-337.1984 1084.7471,-323.9178 1077.1926,-315 1045.7387,-277.8698 1007.1766,-327.4174 969.1926,-297 943.3594,-276.3129 963.7942,-252.1759 941.1926,-228 933.1181,-219.3631 922.5307,-212.5481 911.899,-207.2797"/>
<polygon fill="#000000" stroke="#000000" points="913.1574,-204.0069 902.6066,-203.0412 910.2524,-210.3756 913.1574,-204.0069"/>
<text text-anchor="middle" x="1077.6926" y="-275.3" font-family="Times,serif" font-size="14.00" fill="#000000">of_single_cell_sequencing_file</text>
</g>
<!-- cytogenomic_file -->
<g id="node2" class="node">
<title>cytogenomic_file</title>
<ellipse fill="none" stroke="#000000" cx="1322.1926" cy="-366" rx="89.8845" ry="18"/>
<text text-anchor="middle" x="1322.1926" y="-362.3" font-family="Times,serif" font-size="14.00" fill="#000000">cytogenomic_file</text>
</g>
<!-- cytogenomic_file&#45;&gt;cell_line -->
<g id="edge28" class="edge">
<title>cytogenomic_file&#45;&gt;cell_line</title>
<path fill="none" stroke="#000000" d="M1261.8444,-352.598C1202.2573,-339.4795 1115.2591,-320.665 1081.1926,-315 1015.8277,-304.1303 998.1387,-310.1425 933.1926,-297 928.165,-295.9826 922.9539,-294.7652 917.7798,-293.4497"/>
<polygon fill="#000000" stroke="#000000" points="918.4976,-290.0189 907.9336,-290.8259 916.6952,-296.7828 918.4976,-290.0189"/>
<text text-anchor="middle" x="1228.6926" y="-318.8" font-family="Times,serif" font-size="14.00" fill="#000000">of_cytogenomic_file</text>
</g>
<!-- cytogenomic_file&#45;&gt;pdx -->
<g id="edge29" class="edge">
<title>cytogenomic_file&#45;&gt;pdx</title>
<path fill="none" stroke="#000000" d="M1353.1871,-348.9683C1371.4315,-337.0584 1392.8921,-319.3057 1403.1926,-297 1409.9005,-282.474 1412.8541,-273.7536 1403.1926,-261 1385.3502,-237.4472 1357.035,-266.5528 1339.1926,-243 1335.167,-237.686 1336.0469,-233.8778 1339.1926,-228 1345.9979,-215.2843 1359.3874,-222.7157 1366.1926,-210 1373.7423,-195.8932 1374.336,-187.7726 1366.1926,-174 1350.703,-147.8028 1335.3494,-149.7239 1306.1926,-141 1228.1081,-117.6367 982.4299,-108.6138 887.3211,-105.9398"/>
<polygon fill="#000000" stroke="#000000" points="887.3684,-102.4399 877.2766,-105.6655 887.1772,-109.4373 887.3684,-102.4399"/>
<text text-anchor="middle" x="1410.6926" y="-231.8" font-family="Times,serif" font-size="14.00" fill="#000000">of_cytogenomic_file</text>
</g>
<!-- cytogenomic_file&#45;&gt;sample -->
<g id="edge30" class="edge">
<title>cytogenomic_file&#45;&gt;sample</title>
<path fill="none" stroke="#000000" d="M1318.2613,-347.5679C1315.1719,-336.9155 1309.8925,-323.9031 1301.1926,-315 1287.2838,-300.7664 1275.6832,-309.4936 1260.1926,-297 1230.7138,-273.2246 1242.9801,-246.954 1210.1926,-228 1185.7661,-213.8794 1011.3692,-201.0365 921.0818,-195.2446"/>
<polygon fill="#000000" stroke="#000000" points="921.2327,-191.7472 911.031,-194.6067 920.7892,-198.7332 921.2327,-191.7472"/>
<text text-anchor="middle" x="1331.6926" y="-275.3" font-family="Times,serif" font-size="14.00" fill="#000000">of_cytogenomic_file</text>
</g>
<!-- follow_up -->
<g id="node3" class="node">
<title>follow_up</title>
<ellipse fill="none" stroke="#000000" cx="2350.1926" cy="-192" rx="55.4913" ry="18"/>
<text text-anchor="middle" x="2350.1926" y="-188.3" font-family="Times,serif" font-size="14.00" fill="#000000">follow_up</text>
</g>
<!-- participant -->
<g id="node25" class="node">
<title>participant</title>
<ellipse fill="none" stroke="#000000" cx="2294.1926" cy="-105" rx="62.2891" ry="18"/>
<text text-anchor="middle" x="2294.1926" y="-101.3" font-family="Times,serif" font-size="14.00" fill="#000000">participant</text>
</g>
<!-- follow_up&#45;&gt;participant -->
<g id="edge11" class="edge">
<title>follow_up&#45;&gt;participant</title>
<path fill="none" stroke="#000000" d="M2344.102,-173.7542C2340.3057,-163.6626 2334.8719,-151.1494 2328.1926,-141 2325.679,-137.1805 2322.7422,-133.3941 2319.6666,-129.792"/>
<polygon fill="#000000" stroke="#000000" points="2322.1375,-127.3067 2312.8223,-122.2593 2316.9567,-132.0141 2322.1375,-127.3067"/>
<text text-anchor="middle" x="2382.1926" y="-144.8" font-family="Times,serif" font-size="14.00" fill="#000000">of_follow_up</text>
</g>
<!-- radiology_file -->
<g id="node4" class="node">
<title>radiology_file</title>
<ellipse fill="none" stroke="#000000" cx="2497.1926" cy="-192" rx="73.387" ry="18"/>
<text text-anchor="middle" x="2497.1926" y="-188.3" font-family="Times,serif" font-size="14.00" fill="#000000">radiology_file</text>
</g>
<!-- radiology_file&#45;&gt;participant -->
<g id="edge41" class="edge">
<title>radiology_file&#45;&gt;participant</title>
<path fill="none" stroke="#000000" d="M2478.6519,-174.376C2466.1266,-163.3441 2448.7317,-149.6336 2431.1926,-141 2408.5082,-129.8336 2381.9474,-121.8298 2358.2827,-116.2494"/>
<polygon fill="#000000" stroke="#000000" points="2358.8631,-112.7924 2348.3378,-114.004 2357.3214,-119.6205 2358.8631,-112.7924"/>
<text text-anchor="middle" x="2514.1926" y="-144.8" font-family="Times,serif" font-size="14.00" fill="#000000">of_radiology_file</text>
</g>
<!-- exposure -->
<g id="node5" class="node">
<title>exposure</title>
<ellipse fill="none" stroke="#000000" cx="2642.1926" cy="-192" rx="53.0913" ry="18"/>
<text text-anchor="middle" x="2642.1926" y="-188.3" font-family="Times,serif" font-size="14.00" fill="#000000">exposure</text>
</g>
<!-- exposure&#45;&gt;participant -->
<g id="edge36" class="edge">
<title>exposure&#45;&gt;participant</title>
<path fill="none" stroke="#000000" d="M2625.6621,-174.8456C2613.4231,-163.2709 2595.7204,-148.7442 2577.1926,-141 2540.1167,-125.503 2436.3378,-115.1878 2365.3139,-109.7117"/>
<polygon fill="#000000" stroke="#000000" points="2365.3198,-106.2022 2355.0845,-108.9388 2364.7924,-113.1823 2365.3198,-106.2022"/>
<text text-anchor="middle" x="2646.6926" y="-144.8" font-family="Times,serif" font-size="14.00" fill="#000000">of_exposure</text>
</g>
<!-- study_admin -->
<g id="node6" class="node">
<title>study_admin</title>
<ellipse fill="none" stroke="#000000" cx="1833.1926" cy="-105" rx="70.3881" ry="18"/>
<text text-anchor="middle" x="1833.1926" y="-101.3" font-family="Times,serif" font-size="14.00" fill="#000000">study_admin</text>
</g>
<!-- study -->
<g id="node20" class="node">
<title>study</title>
<ellipse fill="none" stroke="#000000" cx="2076.1926" cy="-18" rx="36.2938" ry="18"/>
<text text-anchor="middle" x="2076.1926" y="-14.3" font-family="Times,serif" font-size="14.00" fill="#000000">study</text>
</g>
<!-- study_admin&#45;&gt;study -->
<g id="edge24" class="edge">
<title>study_admin&#45;&gt;study</title>
<path fill="none" stroke="#000000" d="M1846.7084,-87.1323C1856.2237,-75.8528 1869.9466,-61.9565 1885.1926,-54 1909.8575,-41.128 1981.9966,-29.9017 2030.2156,-23.5418"/>
<polygon fill="#000000" stroke="#000000" points="2030.9473,-26.9764 2040.4153,-22.2217 2030.0488,-20.0343 2030.9473,-26.9764"/>
<text text-anchor="middle" x="1941.6926" y="-57.8" font-family="Times,serif" font-size="14.00" fill="#000000">of_study_admin</text>
</g>
<!-- study_funding -->
<g id="node7" class="node">
<title>study_funding</title>
<ellipse fill="none" stroke="#000000" cx="1999.1926" cy="-105" rx="77.1866" ry="18"/>
<text text-anchor="middle" x="1999.1926" y="-101.3" font-family="Times,serif" font-size="14.00" fill="#000000">study_funding</text>
</g>
<!-- study_funding&#45;&gt;study -->
<g id="edge16" class="edge">
<title>study_funding&#45;&gt;study</title>
<path fill="none" stroke="#000000" d="M1998.5876,-86.9649C1999.0999,-76.4533 2001.3133,-63.4494 2008.1926,-54 2015.1247,-44.4782 2025.3482,-37.2448 2035.7736,-31.8531"/>
<polygon fill="#000000" stroke="#000000" points="2037.3358,-34.9864 2044.9096,-27.5778 2034.3688,-28.6463 2037.3358,-34.9864"/>
<text text-anchor="middle" x="2070.1926" y="-57.8" font-family="Times,serif" font-size="14.00" fill="#000000">of_study_funding</text>
</g>
<!-- study_arm -->
<g id="node8" class="node">
<title>study_arm</title>
<ellipse fill="none" stroke="#000000" cx="2154.1926" cy="-105" rx="59.5901" ry="18"/>
<text text-anchor="middle" x="2154.1926" y="-101.3" font-family="Times,serif" font-size="14.00" fill="#000000">study_arm</text>
</g>
<!-- study_arm&#45;&gt;study -->
<g id="edge15" class="edge">
<title>study_arm&#45;&gt;study</title>
<path fill="none" stroke="#000000" d="M2149.3428,-87.0458C2145.847,-76.5628 2140.3005,-63.5607 2132.1926,-54 2126.3898,-47.1574 2118.9573,-41.1545 2111.4168,-36.1112"/>
<polygon fill="#000000" stroke="#000000" points="2112.948,-32.9421 2102.6066,-30.6388 2109.2545,-38.8884 2112.948,-32.9421"/>
<text text-anchor="middle" x="2190.6926" y="-57.8" font-family="Times,serif" font-size="14.00" fill="#000000">of_study_arm</text>
</g>
<!-- sequencing_file -->
<g id="node9" class="node">
<title>sequencing_file</title>
<ellipse fill="none" stroke="#000000" cx="83.1926" cy="-366" rx="83.3857" ry="18"/>
<text text-anchor="middle" x="83.1926" y="-362.3" font-family="Times,serif" font-size="14.00" fill="#000000">sequencing_file</text>
</g>
<!-- sequencing_file&#45;&gt;cell_line -->
<g id="edge18" class="edge">
<title>sequencing_file&#45;&gt;cell_line</title>
<path fill="none" stroke="#000000" d="M133.6237,-351.5929C178.5014,-339.4646 246.1415,-322.8737 306.1926,-315 527.1121,-286.0338 587.1264,-331.8611 807.1926,-297 812.5995,-296.1435 818.1999,-294.9729 823.73,-293.6366"/>
<polygon fill="#000000" stroke="#000000" points="824.7531,-296.987 833.5513,-291.0842 822.9924,-290.2121 824.7531,-296.987"/>
<text text-anchor="middle" x="372.6926" y="-318.8" font-family="Times,serif" font-size="14.00" fill="#000000">of_sequencing_file</text>
</g>
<!-- sequencing_file&#45;&gt;pdx -->
<g id="edge20" class="edge">
<title>sequencing_file&#45;&gt;pdx</title>
<path fill="none" stroke="#000000" d="M86.2342,-347.7092C92.4491,-316.8481 109.7806,-255.1507 152.1926,-228 219.3162,-185.0299 246.0032,-193.8444 323.1926,-174 502.1263,-127.9985 723.6036,-111.7229 811.0881,-106.8328"/>
<polygon fill="#000000" stroke="#000000" points="811.2848,-110.3273 821.0809,-106.2916 810.9062,-103.3376 811.2848,-110.3273"/>
<text text-anchor="middle" x="218.6926" y="-231.8" font-family="Times,serif" font-size="14.00" fill="#000000">of_sequencing_file</text>
</g>
<!-- sequencing_file&#45;&gt;sample -->
<g id="edge19" class="edge">
<title>sequencing_file&#45;&gt;sample</title>
<path fill="none" stroke="#000000" d="M91.5179,-347.9401C104.008,-323.2352 130.1481,-279.8258 167.1926,-261 247.7035,-220.0849 486.107,-266.9196 573.1926,-243 586.8061,-239.2608 587.7616,-232.3492 601.1926,-228 639.5939,-215.5649 747.8273,-203.4745 813.7993,-196.9564"/>
<polygon fill="#000000" stroke="#000000" points="814.3952,-200.4149 824.0074,-195.9589 813.7144,-193.4481 814.3952,-200.4149"/>
<text text-anchor="middle" x="233.6926" y="-275.3" font-family="Times,serif" font-size="14.00" fill="#000000">of_sequencing_file</text>
</g>
<!-- pathology_file -->
<g id="node10" class="node">
<title>pathology_file</title>
<ellipse fill="none" stroke="#000000" cx="269.1926" cy="-366" rx="76.0865" ry="18"/>
<text text-anchor="middle" x="269.1926" y="-362.3" font-family="Times,serif" font-size="14.00" fill="#000000">pathology_file</text>
</g>
<!-- pathology_file&#45;&gt;cell_line -->
<g id="edge8" class="edge">
<title>pathology_file&#45;&gt;cell_line</title>
<path fill="none" stroke="#000000" d="M325.3204,-353.8098C388.0512,-340.3497 485.734,-319.9248 523.1926,-315 648.589,-298.5137 682.5574,-318.4968 807.1926,-297 812.5172,-296.0816 818.0348,-294.8844 823.4905,-293.5433"/>
<polygon fill="#000000" stroke="#000000" points="824.4018,-296.9228 833.1888,-291.0033 822.6283,-290.1511 824.4018,-296.9228"/>
<text text-anchor="middle" x="584.1926" y="-318.8" font-family="Times,serif" font-size="14.00" fill="#000000">of_pathology_file</text>
</g>
<!-- pathology_file&#45;&gt;pdx -->
<g id="edge10" class="edge">
<title>pathology_file&#45;&gt;pdx</title>
<path fill="none" stroke="#000000" d="M267.5111,-347.8072C265.8654,-318.2049 267.3469,-259.7361 300.1926,-228 374.28,-156.4155 699.0331,-119.2879 811.048,-108.4366"/>
<polygon fill="#000000" stroke="#000000" points="811.5857,-111.9013 821.2085,-107.4683 810.9215,-104.9329 811.5857,-111.9013"/>
<text text-anchor="middle" x="361.1926" y="-231.8" font-family="Times,serif" font-size="14.00" fill="#000000">of_pathology_file</text>
</g>
<!-- pathology_file&#45;&gt;sample -->
<g id="edge9" class="edge">
<title>pathology_file&#45;&gt;sample</title>
<path fill="none" stroke="#000000" d="M269.7978,-347.6921C271.1205,-336.8135 274.5733,-323.5204 283.1926,-315 385.325,-214.0397 457.8871,-273.6328 598.1926,-243 622.9467,-237.5954 628.4466,-233.4417 653.1926,-228 708.0368,-215.9396 771.5613,-205.7193 815.0666,-199.2848"/>
<polygon fill="#000000" stroke="#000000" points="815.7418,-202.7234 825.1291,-197.8113 814.7274,-195.7973 815.7418,-202.7234"/>
<text text-anchor="middle" x="428.1926" y="-275.3" font-family="Times,serif" font-size="14.00" fill="#000000">of_pathology_file</text>
</g>
<!-- synonym -->
<g id="node11" class="node">
<title>synonym</title>
<ellipse fill="none" stroke="#000000" cx="1608.1926" cy="-279" rx="51.9908" ry="18"/>
<text text-anchor="middle" x="1608.1926" y="-275.3" font-family="Times,serif" font-size="14.00" fill="#000000">synonym</text>
</g>
<!-- synonym&#45;&gt;study -->
<g id="edge3" class="edge">
<title>synonym&#45;&gt;study</title>
<path fill="none" stroke="#000000" d="M1602.5568,-260.948C1594.8864,-232.5715 1584.8184,-177.0541 1610.1926,-141 1658.9532,-71.7161 1922.1684,-35.0783 2030.0414,-22.7919"/>
<polygon fill="#000000" stroke="#000000" points="2030.7388,-26.2358 2040.2875,-21.6452 2029.9602,-19.2792 2030.7388,-26.2358"/>
<text text-anchor="middle" x="1652.6926" y="-144.8" font-family="Times,serif" font-size="14.00" fill="#000000">of_synonym</text>
</g>
<!-- synonym&#45;&gt;sample -->
<g id="edge2" class="edge">
<title>synonym&#45;&gt;sample</title>
<path fill="none" stroke="#000000" d="M1568.7795,-266.9832C1550.2767,-260.7621 1528.1706,-252.4816 1509.1926,-243 1498.2753,-237.5456 1497.7848,-231.8158 1486.1926,-228 1459.6067,-219.2487 1067.5571,-200.9514 921.4968,-194.3986"/>
<polygon fill="#000000" stroke="#000000" points="921.5605,-190.898 911.414,-193.9474 921.2475,-197.891 921.5605,-190.898"/>
<text text-anchor="middle" x="1551.6926" y="-231.8" font-family="Times,serif" font-size="14.00" fill="#000000">of_synonym</text>
</g>
<!-- synonym&#45;&gt;participant -->
<g id="edge1" class="edge">
<title>synonym&#45;&gt;participant</title>
<path fill="none" stroke="#000000" d="M1613.7513,-261.0184C1622.9434,-231.4001 1640.4744,-175.4549 1642.1926,-174 1693.0449,-130.9408 2155.7918,-133.1311 2223.1926,-123 2228.6156,-122.1849 2234.2264,-121.1336 2239.8077,-119.9488"/>
<polygon fill="#000000" stroke="#000000" points="2240.794,-123.3142 2249.7754,-117.6942 2239.2496,-116.4867 2240.794,-123.3142"/>
<text text-anchor="middle" x="1684.6926" y="-188.3" font-family="Times,serif" font-size="14.00" fill="#000000">of_synonym</text>
</g>
<!-- cell_line&#45;&gt;study -->
<g id="edge25" class="edge">
<title>cell_line&#45;&gt;study</title>
<path fill="none" stroke="#000000" d="M910.668,-268.6431C923.2574,-265.7597 937.234,-262.9005 950.1926,-261 1063.4828,-244.3851 1097.1773,-274.7387 1207.1926,-243 1220.7571,-239.0867 1222.2959,-233.7431 1235.1926,-228 1403.9479,-152.8502 1449.24,-140.0432 1626.1926,-87 1686.1856,-69.0165 1701.5236,-64.9318 1763.1926,-54 1857.1279,-37.3485 1968.3496,-26.6764 2029.7031,-21.5652"/>
<polygon fill="#000000" stroke="#000000" points="2030.1571,-25.0398 2039.8375,-20.7338 2029.5848,-18.0632 2030.1571,-25.0398"/>
<text text-anchor="middle" x="1491.6926" y="-144.8" font-family="Times,serif" font-size="14.00" fill="#000000">of_cell_line</text>
</g>
<!-- cell_line&#45;&gt;sample -->
<g id="edge26" class="edge">
<title>cell_line&#45;&gt;sample</title>
<path fill="none" stroke="#000000" d="M831.5283,-267.6827C811.0971,-260.8381 789.0517,-251.7654 783.1926,-243 770.7082,-224.3231 793.291,-211.3665 818.1693,-203.187"/>
<polygon fill="#000000" stroke="#000000" points="819.1932,-206.534 827.7482,-200.284 817.1629,-199.8348 819.1932,-206.534"/>
<text text-anchor="middle" x="823.6926" y="-231.8" font-family="Times,serif" font-size="14.00" fill="#000000">of_cell_line</text>
</g>
<!-- cell_line&#45;&gt;participant -->
<g id="edge27" class="edge">
<title>cell_line&#45;&gt;participant</title>
<path fill="none" stroke="#000000" d="M910.6601,-268.5884C923.2491,-265.7028 937.2276,-262.8561 950.1926,-261 1075.8307,-243.0136 1109.5278,-260.7988 1235.1926,-243 1305.2847,-233.0724 1477.0787,-189.3205 1546.1926,-174 1612.4121,-159.3211 1627.9035,-149.5248 1695.1926,-141 1928.1337,-111.4889 1990.7259,-156.0404 2223.1926,-123 2228.622,-122.2283 2234.2369,-121.2058 2239.8209,-120.0389"/>
<polygon fill="#000000" stroke="#000000" points="2240.7986,-123.4068 2249.7917,-117.8056 2239.2685,-116.576 2240.7986,-123.4068"/>
<text text-anchor="middle" x="1586.6926" y="-188.3" font-family="Times,serif" font-size="14.00" fill="#000000">of_cell_line</text>
</g>
<!-- medical_history -->
<g id="node13" class="node">
<title>medical_history</title>
<ellipse fill="none" stroke="#000000" cx="2798.1926" cy="-192" rx="85.2851" ry="18"/>
<text text-anchor="middle" x="2798.1926" y="-188.3" font-family="Times,serif" font-size="14.00" fill="#000000">medical_history</text>
</g>
<!-- medical_history&#45;&gt;participant -->
<g id="edge38" class="edge">
<title>medical_history&#45;&gt;participant</title>
<path fill="none" stroke="#000000" d="M2766.9374,-175.0999C2741.9262,-161.8751 2708.717,-145.0642 2694.1926,-141 2634.3677,-124.2598 2464.0222,-113.3818 2366.0021,-108.3159"/>
<polygon fill="#000000" stroke="#000000" points="2366.0406,-104.8134 2355.8754,-107.7999 2365.6843,-111.8043 2366.0406,-104.8134"/>
<text text-anchor="middle" x="2796.1926" y="-144.8" font-family="Times,serif" font-size="14.00" fill="#000000">of_medical_history</text>
</g>
<!-- family_relationship -->
<g id="node14" class="node">
<title>family_relationship</title>
<ellipse fill="none" stroke="#000000" cx="3001.1926" cy="-192" rx="100.1823" ry="18"/>
<text text-anchor="middle" x="3001.1926" y="-188.3" font-family="Times,serif" font-size="14.00" fill="#000000">family_relationship</text>
</g>
<!-- family_relationship&#45;&gt;participant -->
<g id="edge33" class="edge">
<title>family_relationship&#45;&gt;participant</title>
<path fill="none" stroke="#000000" d="M2945.8186,-176.9863C2927.9914,-171.3385 2908.4055,-164.2532 2891.1926,-156 2880.1882,-150.7236 2879.7761,-144.8421 2868.1926,-141 2821.744,-125.5936 2509.8136,-112.6714 2366.2534,-107.4637"/>
<polygon fill="#000000" stroke="#000000" points="2366.3335,-103.9645 2356.214,-107.1022 2366.0815,-110.9599 2366.3335,-103.9645"/>
<text text-anchor="middle" x="2970.6926" y="-144.8" font-family="Times,serif" font-size="14.00" fill="#000000">of_family_relationship</text>
</g>
<!-- pdx&#45;&gt;study -->
<g id="edge35" class="edge">
<title>pdx&#45;&gt;study</title>
<path fill="none" stroke="#000000" d="M875.9957,-99.4388C929.5366,-88.5862 1053.6489,-64.712 1159.1926,-54 1330.7767,-36.5854 1867.9773,-22.8786 2029.6827,-19.0631"/>
<polygon fill="#000000" stroke="#000000" points="2029.8679,-22.5598 2039.7831,-18.8261 2029.7037,-15.5617 2029.8679,-22.5598"/>
<text text-anchor="middle" x="1183.1926" y="-57.8" font-family="Times,serif" font-size="14.00" fill="#000000">of_pdx</text>
</g>
<!-- pdx&#45;&gt;sample -->
<g id="edge34" class="edge">
<title>pdx&#45;&gt;sample</title>
<path fill="none" stroke="#000000" d="M828.8809,-117.6719C815.7532,-127.5635 802.4449,-141.9431 810.1926,-156 814.1253,-163.1352 820.1337,-169.0519 826.7982,-173.885"/>
<polygon fill="#000000" stroke="#000000" points="825.1732,-177.0003 835.4838,-179.4378 828.9437,-171.1025 825.1732,-177.0003"/>
<text text-anchor="middle" x="834.1926" y="-144.8" font-family="Times,serif" font-size="14.00" fill="#000000">of_pdx</text>
</g>
<!-- molecular_test -->
<g id="node16" class="node">
<title>molecular_test</title>
<ellipse fill="none" stroke="#000000" cx="1816.1926" cy="-192" rx="79.8859" ry="18"/>
<text text-anchor="middle" x="1816.1926" y="-188.3" font-family="Times,serif" font-size="14.00" fill="#000000">molecular_test</text>
</g>
<!-- molecular_test&#45;&gt;participant -->
<g id="edge31" class="edge">
<title>molecular_test&#45;&gt;participant</title>
<path fill="none" stroke="#000000" d="M1837.9546,-174.4306C1853.8908,-162.6603 1876.5953,-148.0705 1899.1926,-141 1968.0135,-119.4666 2151.9119,-133.9112 2223.1926,-123 2228.6134,-122.1702 2234.2227,-121.1092 2239.8031,-119.9184"/>
<polygon fill="#000000" stroke="#000000" points="2240.7922,-123.283 2249.7697,-117.6567 2239.2431,-116.4566 2240.7922,-123.283"/>
<text text-anchor="middle" x="1963.1926" y="-144.8" font-family="Times,serif" font-size="14.00" fill="#000000">of_molecular_test</text>
</g>
<!-- publication -->
<g id="node17" class="node">
<title>publication</title>
<ellipse fill="none" stroke="#000000" cx="3599.1926" cy="-105" rx="63.0888" ry="18"/>
<text text-anchor="middle" x="3599.1926" y="-101.3" font-family="Times,serif" font-size="14.00" fill="#000000">publication</text>
</g>
<!-- publication&#45;&gt;study -->
<g id="edge40" class="edge">
<title>publication&#45;&gt;study</title>
<path fill="none" stroke="#000000" d="M3553.3618,-92.4822C3505.5665,-80.0763 3428.264,-61.8279 3360.1926,-54 3113.432,-25.6238 2323.875,-19.3728 2123.0217,-18.2279"/>
<polygon fill="#000000" stroke="#000000" points="2122.8315,-14.7269 2112.8122,-18.1713 2122.7926,-21.7268 2122.8315,-14.7269"/>
<text text-anchor="middle" x="3497.1926" y="-57.8" font-family="Times,serif" font-size="14.00" fill="#000000">of_publication</text>
</g>
<!-- therapeutic_procedure -->
<g id="node18" class="node">
<title>therapeutic_procedure</title>
<ellipse fill="none" stroke="#000000" cx="2032.1926" cy="-192" rx="117.7793" ry="18"/>
<text text-anchor="middle" x="2032.1926" y="-188.3" font-family="Times,serif" font-size="14.00" fill="#000000">therapeutic_procedure</text>
</g>
<!-- therapeutic_procedure&#45;&gt;participant -->
<g id="edge37" class="edge">
<title>therapeutic_procedure&#45;&gt;participant</title>
<path fill="none" stroke="#000000" d="M2029.1687,-173.989C2028.4167,-162.9434 2029.6607,-149.362 2038.1926,-141 2067.6921,-112.088 2182.5014,-130.0956 2223.1926,-123 2228.3073,-122.1081 2233.5964,-121.0429 2238.8743,-119.8823"/>
<polygon fill="#000000" stroke="#000000" points="2240.0051,-123.2134 2248.9613,-117.5533 2238.4303,-116.3928 2240.0051,-123.2134"/>
<text text-anchor="middle" x="2131.1926" y="-144.8" font-family="Times,serif" font-size="14.00" fill="#000000">of_therapeutic_procedure</text>
</g>
<!-- methylation_array_file -->
<g id="node19" class="node">
<title>methylation_array_file</title>
<ellipse fill="none" stroke="#000000" cx="620.1926" cy="-366" rx="115.8798" ry="18"/>
<text text-anchor="middle" x="620.1926" y="-362.3" font-family="Times,serif" font-size="14.00" fill="#000000">methylation_array_file</text>
</g>
<!-- methylation_array_file&#45;&gt;cell_line -->
<g id="edge21" class="edge">
<title>methylation_array_file&#45;&gt;cell_line</title>
<path fill="none" stroke="#000000" d="M632.5725,-347.8486C641.3885,-336.4494 654.2859,-322.5262 669.1926,-315 724.4072,-287.1229 746.6223,-309.5307 807.1926,-297 812.2157,-295.9608 817.424,-294.7292 822.5963,-293.4053"/>
<polygon fill="#000000" stroke="#000000" points="823.6848,-296.7372 832.4406,-290.7717 821.8757,-289.975 823.6848,-296.7372"/>
<text text-anchor="middle" x="760.6926" y="-318.8" font-family="Times,serif" font-size="14.00" fill="#000000">of_methylation_array_file</text>
</g>
<!-- methylation_array_file&#45;&gt;pdx -->
<g id="edge23" class="edge">
<title>methylation_array_file&#45;&gt;pdx</title>
<path fill="none" stroke="#000000" d="M611.2324,-347.7779C604.5927,-336.3488 594.4121,-322.419 581.1926,-315 547.8715,-296.2997 435.7578,-325.3975 410.1926,-297 399.4875,-285.1088 402.0493,-274.7726 410.1926,-261 452.8416,-188.869 714.0366,-131.3063 812.067,-111.9816"/>
<polygon fill="#000000" stroke="#000000" points="812.9692,-115.3717 822.1146,-110.0227 811.6296,-108.5011 812.9692,-115.3717"/>
<text text-anchor="middle" x="535.6926" y="-231.8" font-family="Times,serif" font-size="14.00" fill="#000000">of_methylation_array_file</text>
</g>
<!-- methylation_array_file&#45;&gt;sample -->
<g id="edge22" class="edge">
<title>methylation_array_file&#45;&gt;sample</title>
<path fill="none" stroke="#000000" d="M616.0863,-347.7618C612.0645,-324.8191 609.1167,-285.4707 629.1926,-261 652.7787,-232.2507 753.0437,-210.8642 815.6697,-200.0068"/>
<polygon fill="#000000" stroke="#000000" points="816.4871,-203.4182 825.7592,-198.292 815.3141,-196.5172 816.4871,-203.4182"/>
<text text-anchor="middle" x="720.6926" y="-275.3" font-family="Times,serif" font-size="14.00" fill="#000000">of_methylation_array_file</text>
</g>
<!-- study_personnel -->
<g id="node21" class="node">
<title>study_personnel</title>
<ellipse fill="none" stroke="#000000" cx="3767.1926" cy="-105" rx="87.1846" ry="18"/>
<text text-anchor="middle" x="3767.1926" y="-101.3" font-family="Times,serif" font-size="14.00" fill="#000000">study_personnel</text>
</g>
<!-- study_personnel&#45;&gt;study -->
<g id="edge4" class="edge">
<title>study_personnel&#45;&gt;study</title>
<path fill="none" stroke="#000000" d="M3717.7773,-90.1708C3674.547,-77.9486 3609.831,-61.4561 3552.1926,-54 3407.9225,-35.3373 2358.8717,-21.4649 2123.1362,-18.5624"/>
<polygon fill="#000000" stroke="#000000" points="2122.8916,-15.0592 2112.8495,-18.4364 2122.8058,-22.0587 2122.8916,-15.0592"/>
<text text-anchor="middle" x="3698.6926" y="-57.8" font-family="Times,serif" font-size="14.00" fill="#000000">of_study_personnel</text>
</g>
<!-- clinical_measure_file -->
<g id="node22" class="node">
<title>clinical_measure_file</title>
<ellipse fill="none" stroke="#000000" cx="3278.1926" cy="-192" rx="108.5808" ry="18"/>
<text text-anchor="middle" x="3278.1926" y="-188.3" font-family="Times,serif" font-size="14.00" fill="#000000">clinical_measure_file</text>
</g>
<!-- clinical_measure_file&#45;&gt;study -->
<g id="edge42" class="edge">
<title>clinical_measure_file&#45;&gt;study</title>
<path fill="none" stroke="#000000" d="M3314.648,-174.9837C3330.4,-165.3796 3343.0208,-152.9404 3332.1926,-141 3249.3335,-49.6301 2340.4021,-23.8322 2122.7991,-18.9457"/>
<polygon fill="#000000" stroke="#000000" points="2122.7457,-15.4438 2112.6709,-18.7223 2122.5912,-22.4421 2122.7457,-15.4438"/>
<text text-anchor="middle" x="3385.1926" y="-101.3" font-family="Times,serif" font-size="14.00" fill="#000000">of_clinical_measure_file</text>
</g>
<!-- clinical_measure_file&#45;&gt;participant -->
<g id="edge32" class="edge">
<title>clinical_measure_file&#45;&gt;participant</title>
<path fill="none" stroke="#000000" d="M3182.6283,-183.3569C3147.3729,-178.0759 3107.6452,-169.5961 3073.1926,-156 3061.8406,-151.5201 3061.8047,-144.7548 3050.1926,-141 2986.3728,-120.3636 2543.4296,-109.7446 2366.7306,-106.2913"/>
<polygon fill="#000000" stroke="#000000" points="2366.5588,-102.7874 2356.493,-106.0934 2366.4234,-109.7861 2366.5588,-102.7874"/>
<text text-anchor="middle" x="3202.6926" y="-144.8" font-family="Times,serif" font-size="14.00" fill="#000000">of_clinical_measure_file_participant</text>
</g>
<!-- sample&#45;&gt;cell_line -->
<g id="edge14" class="edge">
<title>sample&#45;&gt;cell_line</title>
<path fill="none" stroke="#000000" d="M867.3943,-210.4173C867.5409,-220.1147 867.787,-232.2035 868.1926,-243 868.2838,-245.4278 868.3934,-247.9469 868.5135,-250.4739"/>
<polygon fill="#000000" stroke="#000000" points="865.0303,-250.8883 869.0481,-260.6918 872.0208,-250.5226 865.0303,-250.8883"/>
<text text-anchor="middle" x="904.6926" y="-231.8" font-family="Times,serif" font-size="14.00" fill="#000000">of_sample</text>
</g>
<!-- sample&#45;&gt;pdx -->
<g id="edge12" class="edge">
<title>sample&#45;&gt;pdx</title>
<path fill="none" stroke="#000000" d="M866.514,-173.8879C865.8721,-164.0626 864.623,-151.7608 862.1926,-141 861.5476,-138.144 860.7394,-135.2046 859.8435,-132.2952"/>
<polygon fill="#000000" stroke="#000000" points="863.1067,-131.0202 856.5683,-122.6835 856.4808,-133.278 863.1067,-131.0202"/>
<text text-anchor="middle" x="901.6926" y="-144.8" font-family="Times,serif" font-size="14.00" fill="#000000">of_sample</text>
</g>
<!-- sample&#45;&gt;participant -->
<g id="edge13" class="edge">
<title>sample&#45;&gt;participant</title>
<path fill="none" stroke="#000000" d="M905.0487,-182.3428C955.216,-170.0541 1046.6654,-149.4146 1126.1926,-141 1368.6498,-115.3462 1981.5142,-155.1738 2223.1926,-123 2228.7074,-122.2658 2234.4108,-121.2569 2240.0775,-120.0885"/>
<polygon fill="#000000" stroke="#000000" points="2241.188,-123.4271 2250.1889,-117.8382 2239.6673,-116.5943 2241.188,-123.4271"/>
<text text-anchor="middle" x="1162.6926" y="-144.8" font-family="Times,serif" font-size="14.00" fill="#000000">of_sample</text>
</g>
<!-- diagnosis -->
<g id="node24" class="node">
<title>diagnosis</title>
<ellipse fill="none" stroke="#000000" cx="2222.1926" cy="-192" rx="54.6905" ry="18"/>
<text text-anchor="middle" x="2222.1926" y="-188.3" font-family="Times,serif" font-size="14.00" fill="#000000">diagnosis</text>
</g>
<!-- diagnosis&#45;&gt;participant -->
<g id="edge39" class="edge">
<title>diagnosis&#45;&gt;participant</title>
<path fill="none" stroke="#000000" d="M2223.4805,-173.5554C2224.9931,-163.1572 2228.2431,-150.4072 2235.1926,-141 2239.5552,-135.0946 2245.2029,-129.9556 2251.2721,-125.5539"/>
<polygon fill="#000000" stroke="#000000" points="2253.2873,-128.4179 2259.7285,-120.0059 2249.4474,-122.565 2253.2873,-128.4179"/>
<text text-anchor="middle" x="2279.6926" y="-144.8" font-family="Times,serif" font-size="14.00" fill="#000000">of_diagnosis</text>
</g>
<!-- participant&#45;&gt;study -->
<g id="edge17" class="edge">
<title>participant&#45;&gt;study</title>
<path fill="none" stroke="#000000" d="M2280.9376,-87.2581C2271.6056,-76.0317 2258.1467,-62.1473 2243.1926,-54 2222.5005,-42.7265 2163.1562,-31.5783 2121.1143,-24.7432"/>
<polygon fill="#000000" stroke="#000000" points="2121.5262,-21.2647 2111.0992,-23.1428 2120.4216,-28.177 2121.5262,-21.2647"/>
<text text-anchor="middle" x="2313.6926" y="-57.8" font-family="Times,serif" font-size="14.00" fill="#000000">of_participant</text>
</g>
</g>
</svg>
