<svg width="2951pt" height="305pt"
 viewBox="0.00 0.00 2950.59 305.00" xmlns="http://www.w3.org/2000/svg" xmlns:xlink="http://www.w3.org/1999/xlink">
<g id="graph0" class="graph" transform="scale(1 1) rotate(0) translate(4 301)">
<title>Perl</title>
<polygon fill="#ffffff" stroke="transparent" points="-4,4 -4,-301 2946.5894,-301 2946.5894,4 -4,4"/>
<!-- treatment -->
<g id="node1" class="node">
<title>treatment</title>
<ellipse fill="none" stroke="#000000" cx="2331.3956" cy="-192" rx="57.6901" ry="18"/>
<text text-anchor="middle" x="2331.3956" y="-188.3" font-family="Times,serif" font-size="14.00" fill="#000000">treatment</text>
</g>
<!-- participant -->
<g id="node3" class="node">
<title>participant</title>
<ellipse fill="none" stroke="#000000" cx="1802.3956" cy="-105" rx="62.2891" ry="18"/>
<text text-anchor="middle" x="1802.3956" y="-101.3" font-family="Times,serif" font-size="14.00" fill="#000000">participant</text>
</g>
<!-- treatment&#45;&gt;participant -->
<g id="edge27" class="edge">
<title>treatment&#45;&gt;participant</title>
<path fill="none" stroke="#000000" d="M2314.9787,-174.5641C2302.7933,-162.8566 2285.1079,-148.2871 2266.3956,-141 2261.8713,-139.2381 2002.348,-119.8113 1873.4596,-110.2515"/>
<polygon fill="#000000" stroke="#000000" points="1873.5147,-106.746 1863.2833,-109.497 1872.9971,-113.7269 1873.5147,-106.746"/>
<text text-anchor="middle" x="2338.3956" y="-144.8" font-family="Times,serif" font-size="14.00" fill="#000000">of_treatment</text>
</g>
<!-- sequencing_file -->
<g id="node2" class="node">
<title>sequencing_file</title>
<ellipse fill="none" stroke="#000000" cx="646.3956" cy="-279" rx="83.3857" ry="18"/>
<text text-anchor="middle" x="646.3956" y="-275.3" font-family="Times,serif" font-size="14.00" fill="#000000">sequencing_file</text>
</g>
<!-- sample -->
<g id="node9" class="node">
<title>sample</title>
<ellipse fill="none" stroke="#000000" cx="696.3956" cy="-192" rx="44.393" ry="18"/>
<text text-anchor="middle" x="696.3956" y="-188.3" font-family="Times,serif" font-size="14.00" fill="#000000">sample</text>
</g>
<!-- sequencing_file&#45;&gt;sample -->
<g id="edge6" class="edge">
<title>sequencing_file&#45;&gt;sample</title>
<path fill="none" stroke="#000000" d="M629.0556,-260.989C621.5683,-250.971 615.8565,-238.453 622.3956,-228 628.6075,-218.07 638.4302,-210.8079 648.9139,-205.5235"/>
<polygon fill="#000000" stroke="#000000" points="650.5158,-208.6414 658.2228,-201.3713 647.6643,-202.2485 650.5158,-208.6414"/>
<text text-anchor="middle" x="688.8956" y="-231.8" font-family="Times,serif" font-size="14.00" fill="#000000">of_sequencing_file</text>
</g>
<!-- study -->
<g id="node17" class="node">
<title>study</title>
<ellipse fill="none" stroke="#000000" cx="2205.3956" cy="-18" rx="36.2938" ry="18"/>
<text text-anchor="middle" x="2205.3956" y="-14.3" font-family="Times,serif" font-size="14.00" fill="#000000">study</text>
</g>
<!-- participant&#45;&gt;study -->
<g id="edge11" class="edge">
<title>participant&#45;&gt;study</title>
<path fill="none" stroke="#000000" d="M1840.0878,-90.5536C1871.1542,-79.1455 1916.5826,-63.5998 1957.3956,-54 2026.786,-37.6784 2108.9415,-27.5026 2159.0979,-22.2914"/>
<polygon fill="#000000" stroke="#000000" points="2159.7042,-25.7479 2169.2989,-21.2543 2158.9961,-18.7838 2159.7042,-25.7479"/>
<text text-anchor="middle" x="2007.8956" y="-57.8" font-family="Times,serif" font-size="14.00" fill="#000000">of_participant</text>
</g>
<!-- publication -->
<g id="node4" class="node">
<title>publication</title>
<ellipse fill="none" stroke="#000000" cx="1121.3956" cy="-105" rx="63.0888" ry="18"/>
<text text-anchor="middle" x="1121.3956" y="-101.3" font-family="Times,serif" font-size="14.00" fill="#000000">publication</text>
</g>
<!-- publication&#45;&gt;study -->
<g id="edge15" class="edge">
<title>publication&#45;&gt;study</title>
<path fill="none" stroke="#000000" d="M1166.8786,-92.5084C1175.6285,-90.4243 1184.7577,-88.4667 1193.3956,-87 1383.1035,-54.7878 1986.3926,-27.2897 2158.9065,-19.9311"/>
<polygon fill="#000000" stroke="#000000" points="2159.0901,-23.4266 2168.9326,-19.5055 2158.7931,-16.4329 2159.0901,-23.4266"/>
<text text-anchor="middle" x="1560.3956" y="-57.8" font-family="Times,serif" font-size="14.00" fill="#000000">of_publication</text>
</g>
<!-- pathology_file -->
<g id="node5" class="node">
<title>pathology_file</title>
<ellipse fill="none" stroke="#000000" cx="823.3956" cy="-279" rx="76.0865" ry="18"/>
<text text-anchor="middle" x="823.3956" y="-275.3" font-family="Times,serif" font-size="14.00" fill="#000000">pathology_file</text>
</g>
<!-- pathology_file&#45;&gt;sample -->
<g id="edge30" class="edge">
<title>pathology_file&#45;&gt;sample</title>
<path fill="none" stroke="#000000" d="M801.4284,-261.6848C788.2969,-251.5474 771.1533,-238.6809 755.3956,-228 747.5178,-222.6603 738.8582,-217.1738 730.6574,-212.1439"/>
<polygon fill="#000000" stroke="#000000" points="732.3632,-209.0851 721.9974,-206.8938 728.7342,-215.071 732.3632,-209.0851"/>
<text text-anchor="middle" x="837.3956" y="-231.8" font-family="Times,serif" font-size="14.00" fill="#000000">of_pathology_file</text>
</g>
<!-- survival -->
<g id="node6" class="node">
<title>survival</title>
<ellipse fill="none" stroke="#000000" cx="1106.3956" cy="-192" rx="48.1917" ry="18"/>
<text text-anchor="middle" x="1106.3956" y="-188.3" font-family="Times,serif" font-size="14.00" fill="#000000">survival</text>
</g>
<!-- survival&#45;&gt;participant -->
<g id="edge22" class="edge">
<title>survival&#45;&gt;participant</title>
<path fill="none" stroke="#000000" d="M1135.5176,-177.5462C1161.3372,-165.4753 1200.4223,-148.9948 1236.3956,-141 1328.3409,-120.5659 1598.9776,-110.5676 1729.8666,-106.8198"/>
<polygon fill="#000000" stroke="#000000" points="1730.2893,-110.3093 1740.1867,-106.5289 1730.092,-103.3121 1730.2893,-110.3093"/>
<text text-anchor="middle" x="1275.8956" y="-144.8" font-family="Times,serif" font-size="14.00" fill="#000000">of_survival</text>
</g>
<!-- cell_line -->
<g id="node7" class="node">
<title>cell_line</title>
<ellipse fill="none" stroke="#000000" cx="49.3956" cy="-279" rx="49.2915" ry="18"/>
<text text-anchor="middle" x="49.3956" y="-275.3" font-family="Times,serif" font-size="14.00" fill="#000000">cell_line</text>
</g>
<!-- cell_line&#45;&gt;sample -->
<g id="edge29" class="edge">
<title>cell_line&#45;&gt;sample</title>
<path fill="none" stroke="#000000" d="M43.2647,-260.6721C40.8792,-249.786 40.3622,-236.4921 48.3956,-228 68.6668,-206.5714 489.4852,-196.1096 641.8946,-193.0129"/>
<polygon fill="#000000" stroke="#000000" points="642.0393,-196.5108 651.9672,-192.8111 641.899,-189.5122 642.0393,-196.5108"/>
<text text-anchor="middle" x="88.8956" y="-231.8" font-family="Times,serif" font-size="14.00" fill="#000000">of_cell_line</text>
</g>
<!-- cell_line&#45;&gt;study -->
<g id="edge28" class="edge">
<title>cell_line&#45;&gt;study</title>
<path fill="none" stroke="#000000" d="M38.6733,-261.0816C33.7778,-250.3496 30.6099,-237.0739 38.3956,-228 204.1277,-34.8467 352.2578,-175.6674 604.3956,-141 801.7674,-113.8626 851.4583,-109.6469 1049.3956,-87 1185.7366,-71.4006 1219.5482,-64.2456 1356.3956,-54 1661.9009,-31.1273 2030.4198,-21.6739 2158.695,-18.9194"/>
<polygon fill="#000000" stroke="#000000" points="2159.0133,-22.4135 2168.937,-18.7028 2158.8652,-15.4151 2159.0133,-22.4135"/>
<text text-anchor="middle" x="644.8956" y="-144.8" font-family="Times,serif" font-size="14.00" fill="#000000">of_cell_line</text>
</g>
<!-- study_funding -->
<g id="node8" class="node">
<title>study_funding</title>
<ellipse fill="none" stroke="#000000" cx="2339.3956" cy="-105" rx="77.1866" ry="18"/>
<text text-anchor="middle" x="2339.3956" y="-101.3" font-family="Times,serif" font-size="14.00" fill="#000000">study_funding</text>
</g>
<!-- study_funding&#45;&gt;study -->
<g id="edge14" class="edge">
<title>study_funding&#45;&gt;study</title>
<path fill="none" stroke="#000000" d="M2313.241,-88.019C2291.0889,-73.6367 2259.3038,-53.0001 2235.9781,-37.8558"/>
<polygon fill="#000000" stroke="#000000" points="2237.7834,-34.8549 2227.4901,-32.3449 2233.9715,-40.726 2237.7834,-34.8549"/>
<text text-anchor="middle" x="2342.3956" y="-57.8" font-family="Times,serif" font-size="14.00" fill="#000000">of_study_funding</text>
</g>
<!-- sample&#45;&gt;participant -->
<g id="edge2" class="edge">
<title>sample&#45;&gt;participant</title>
<path fill="none" stroke="#000000" d="M737.9049,-185.512C767.5696,-179.9704 807.9824,-170.5474 841.3956,-156 852.5851,-151.1283 852.7664,-144.7012 864.3956,-141 874.6901,-137.7236 1512.0019,-115.1577 1730.1143,-107.5203"/>
<polygon fill="#000000" stroke="#000000" points="1730.3081,-111.0158 1740.1795,-107.168 1730.0632,-104.0201 1730.3081,-111.0158"/>
<text text-anchor="middle" x="900.8956" y="-144.8" font-family="Times,serif" font-size="14.00" fill="#000000">of_sample</text>
</g>
<!-- sample&#45;&gt;cell_line -->
<g id="edge4" class="edge">
<title>sample&#45;&gt;cell_line</title>
<path fill="none" stroke="#000000" d="M652.3267,-193.3915C544.6762,-197.0621 270.6277,-208.1169 181.3956,-228 149.182,-235.178 114.4281,-248.8665 88.6708,-260.256"/>
<polygon fill="#000000" stroke="#000000" points="86.9459,-257.1941 79.2635,-264.4902 89.819,-263.5773 86.9459,-257.1941"/>
<text text-anchor="middle" x="217.8956" y="-231.8" font-family="Times,serif" font-size="14.00" fill="#000000">of_sample</text>
</g>
<!-- pdx -->
<g id="node22" class="node">
<title>pdx</title>
<ellipse fill="none" stroke="#000000" cx="1230.3956" cy="-105" rx="27.8951" ry="18"/>
<text text-anchor="middle" x="1230.3956" y="-101.3" font-family="Times,serif" font-size="14.00" fill="#000000">pdx</text>
</g>
<!-- sample&#45;&gt;pdx -->
<g id="edge3" class="edge">
<title>sample&#45;&gt;pdx</title>
<path fill="none" stroke="#000000" d="M717.9538,-176.2813C738.0964,-161.6649 765.4966,-141.9908 768.3956,-141 857.8452,-110.43 1101.7482,-146.1627 1193.3956,-123 1195.5902,-122.4454 1197.8084,-121.7522 1200.0107,-120.9634"/>
<polygon fill="#000000" stroke="#000000" points="1201.563,-124.1082 1209.4421,-117.025 1198.8656,-117.6487 1201.563,-124.1082"/>
<text text-anchor="middle" x="804.8956" y="-144.8" font-family="Times,serif" font-size="14.00" fill="#000000">of_sample</text>
</g>
<!-- molecular_test -->
<g id="node10" class="node">
<title>molecular_test</title>
<ellipse fill="none" stroke="#000000" cx="1252.3956" cy="-192" rx="79.8859" ry="18"/>
<text text-anchor="middle" x="1252.3956" y="-188.3" font-family="Times,serif" font-size="14.00" fill="#000000">molecular_test</text>
</g>
<!-- molecular_test&#45;&gt;participant -->
<g id="edge32" class="edge">
<title>molecular_test&#45;&gt;participant</title>
<path fill="none" stroke="#000000" d="M1280.811,-174.9371C1301.7631,-163.2471 1331.377,-148.5416 1359.3956,-141 1427.3377,-122.7123 1623.2905,-112.2109 1730.3928,-107.6827"/>
<polygon fill="#000000" stroke="#000000" points="1730.6272,-111.1761 1740.4729,-107.2631 1730.3359,-104.1822 1730.6272,-111.1761"/>
<text text-anchor="middle" x="1423.3956" y="-144.8" font-family="Times,serif" font-size="14.00" fill="#000000">of_molecular_test</text>
</g>
<!-- treatment_response -->
<g id="node11" class="node">
<title>treatment_response</title>
<ellipse fill="none" stroke="#000000" cx="1455.3956" cy="-192" rx="104.7816" ry="18"/>
<text text-anchor="middle" x="1455.3956" y="-188.3" font-family="Times,serif" font-size="14.00" fill="#000000">treatment_response</text>
</g>
<!-- treatment_response&#45;&gt;participant -->
<g id="edge31" class="edge">
<title>treatment_response&#45;&gt;participant</title>
<path fill="none" stroke="#000000" d="M1471.6944,-173.8292C1483.0439,-162.4217 1499.184,-148.4967 1516.3956,-141 1553.676,-124.7621 1658.8738,-114.6329 1730.7389,-109.4002"/>
<polygon fill="#000000" stroke="#000000" points="1731.3618,-112.8648 1741.088,-108.6636 1730.8647,-105.8825 1731.3618,-112.8648"/>
<text text-anchor="middle" x="1599.3956" y="-144.8" font-family="Times,serif" font-size="14.00" fill="#000000">of_treatment_response</text>
</g>
<!-- exposure -->
<g id="node12" class="node">
<title>exposure</title>
<ellipse fill="none" stroke="#000000" cx="1631.3956" cy="-192" rx="53.0913" ry="18"/>
<text text-anchor="middle" x="1631.3956" y="-188.3" font-family="Times,serif" font-size="14.00" fill="#000000">exposure</text>
</g>
<!-- exposure&#45;&gt;participant -->
<g id="edge8" class="edge">
<title>exposure&#45;&gt;participant</title>
<path fill="none" stroke="#000000" d="M1654.4998,-175.6028C1670.1142,-164.9442 1691.4455,-151.1874 1711.3956,-141 1724.4239,-134.3472 1738.9825,-128.0972 1752.5682,-122.7316"/>
<polygon fill="#000000" stroke="#000000" points="1754.1876,-125.8581 1762.2529,-118.9878 1751.6636,-119.3289 1754.1876,-125.8581"/>
<text text-anchor="middle" x="1754.8956" y="-144.8" font-family="Times,serif" font-size="14.00" fill="#000000">of_exposure</text>
</g>
<!-- family_relationship -->
<g id="node13" class="node">
<title>family_relationship</title>
<ellipse fill="none" stroke="#000000" cx="1802.3956" cy="-192" rx="100.1823" ry="18"/>
<text text-anchor="middle" x="1802.3956" y="-188.3" font-family="Times,serif" font-size="14.00" fill="#000000">family_relationship</text>
</g>
<!-- family_relationship&#45;&gt;participant -->
<g id="edge25" class="edge">
<title>family_relationship&#45;&gt;participant</title>
<path fill="none" stroke="#000000" d="M1802.3956,-173.9735C1802.3956,-162.1918 1802.3956,-146.5607 1802.3956,-133.1581"/>
<polygon fill="#000000" stroke="#000000" points="1805.8957,-133.0033 1802.3956,-123.0034 1798.8957,-133.0034 1805.8957,-133.0033"/>
<text text-anchor="middle" x="1881.8956" y="-144.8" font-family="Times,serif" font-size="14.00" fill="#000000">of_family_relationship</text>
</g>
<!-- diagnosis -->
<g id="node14" class="node">
<title>diagnosis</title>
<ellipse fill="none" stroke="#000000" cx="999.3956" cy="-279" rx="54.6905" ry="18"/>
<text text-anchor="middle" x="999.3956" y="-275.3" font-family="Times,serif" font-size="14.00" fill="#000000">diagnosis</text>
</g>
<!-- diagnosis&#45;&gt;participant -->
<g id="edge9" class="edge">
<title>diagnosis&#45;&gt;participant</title>
<path fill="none" stroke="#000000" d="M1010.7505,-261.1297C1015.8256,-250.6764 1019.2856,-237.6761 1012.3956,-228 998.2099,-208.078 974.5814,-229.922 960.3956,-210 951.115,-196.9666 949.935,-186.1068 960.3956,-174 985.4611,-144.9901 1531.3992,-117.3337 1730.5333,-108.1764"/>
<polygon fill="#000000" stroke="#000000" points="1730.7718,-111.6692 1740.6013,-107.7156 1730.4517,-104.6766 1730.7718,-111.6692"/>
<text text-anchor="middle" x="1004.8956" y="-188.3" font-family="Times,serif" font-size="14.00" fill="#000000">of_diagnosis</text>
</g>
<!-- diagnosis&#45;&gt;sample -->
<g id="edge10" class="edge">
<title>diagnosis&#45;&gt;sample</title>
<path fill="none" stroke="#000000" d="M966.359,-264.5357C952.8323,-258.3097 937.1559,-250.6994 923.3956,-243 912.7454,-237.0408 911.7458,-232.4846 900.3956,-228 851.7282,-208.7708 792.4818,-199.7706 750.4038,-195.5836"/>
<polygon fill="#000000" stroke="#000000" points="750.644,-192.0909 740.3612,-194.643 749.9912,-199.0604 750.644,-192.0909"/>
<text text-anchor="middle" x="967.8956" y="-231.8" font-family="Times,serif" font-size="14.00" fill="#000000">of_diagnosis</text>
</g>
<!-- study_arm -->
<g id="node15" class="node">
<title>study_arm</title>
<ellipse fill="none" stroke="#000000" cx="2494.3956" cy="-105" rx="59.5901" ry="18"/>
<text text-anchor="middle" x="2494.3956" y="-101.3" font-family="Times,serif" font-size="14.00" fill="#000000">study_arm</text>
</g>
<!-- study_arm&#45;&gt;study -->
<g id="edge1" class="edge">
<title>study_arm&#45;&gt;study</title>
<path fill="none" stroke="#000000" d="M2471.4585,-88.2841C2454.7632,-76.916 2431.1789,-62.4561 2408.3956,-54 2356.7348,-34.8259 2293.793,-25.6939 2251.8221,-21.4603"/>
<polygon fill="#000000" stroke="#000000" points="2251.9105,-17.9529 2241.623,-20.4864 2251.245,-24.9212 2251.9105,-17.9529"/>
<text text-anchor="middle" x="2485.8956" y="-57.8" font-family="Times,serif" font-size="14.00" fill="#000000">of_study_arm</text>
</g>
<!-- medical_history -->
<g id="node16" class="node">
<title>medical_history</title>
<ellipse fill="none" stroke="#000000" cx="2005.3956" cy="-192" rx="85.2851" ry="18"/>
<text text-anchor="middle" x="2005.3956" y="-188.3" font-family="Times,serif" font-size="14.00" fill="#000000">medical_history</text>
</g>
<!-- medical_history&#45;&gt;participant -->
<g id="edge26" class="edge">
<title>medical_history&#45;&gt;participant</title>
<path fill="none" stroke="#000000" d="M1995.6524,-174.011C1988.6744,-162.8293 1978.2539,-149.089 1965.3956,-141 1949.1263,-130.7652 1905.9547,-121.4715 1868.1276,-114.8914"/>
<polygon fill="#000000" stroke="#000000" points="1868.5829,-111.4187 1858.1378,-113.1937 1867.41,-118.3197 1868.5829,-111.4187"/>
<text text-anchor="middle" x="2048.3956" y="-144.8" font-family="Times,serif" font-size="14.00" fill="#000000">of_medical_history</text>
</g>
<!-- study_personnel -->
<g id="node18" class="node">
<title>study_personnel</title>
<ellipse fill="none" stroke="#000000" cx="2659.3956" cy="-105" rx="87.1846" ry="18"/>
<text text-anchor="middle" x="2659.3956" y="-101.3" font-family="Times,serif" font-size="14.00" fill="#000000">study_personnel</text>
</g>
<!-- study_personnel&#45;&gt;study -->
<g id="edge19" class="edge">
<title>study_personnel&#45;&gt;study</title>
<path fill="none" stroke="#000000" d="M2626.9191,-88.2477C2603.0595,-76.7081 2569.5133,-62.0548 2538.3956,-54 2485.3286,-40.2636 2329.8127,-27.2342 2251.5305,-21.3209"/>
<polygon fill="#000000" stroke="#000000" points="2251.7031,-17.8241 2241.4697,-20.568 2251.1806,-24.8046 2251.7031,-17.8241"/>
<text text-anchor="middle" x="2651.8956" y="-57.8" font-family="Times,serif" font-size="14.00" fill="#000000">of_study_personnel</text>
</g>
<!-- clinical_measure_file -->
<g id="node19" class="node">
<title>clinical_measure_file</title>
<ellipse fill="none" stroke="#000000" cx="2637.3956" cy="-192" rx="108.5808" ry="18"/>
<text text-anchor="middle" x="2637.3956" y="-188.3" font-family="Times,serif" font-size="14.00" fill="#000000">clinical_measure_file</text>
</g>
<!-- clinical_measure_file&#45;&gt;participant -->
<g id="edge20" class="edge">
<title>clinical_measure_file&#45;&gt;participant</title>
<path fill="none" stroke="#000000" d="M2558.8027,-179.4969C2518.5729,-172.4912 2474.19,-163.6507 2455.3956,-156 2444.0923,-151.3987 2444.0086,-144.7519 2432.3956,-141 2351.5283,-114.8734 2135.2269,-128.0764 2050.3956,-123 1990.428,-119.4115 1922.3724,-114.4053 1872.7428,-110.5832"/>
<polygon fill="#000000" stroke="#000000" points="1872.9965,-107.0925 1862.7564,-109.811 1872.4567,-114.0717 1872.9965,-107.0925"/>
<text text-anchor="middle" x="2541.3956" y="-144.8" font-family="Times,serif" font-size="14.00" fill="#000000">of_clinical_measure_file</text>
</g>
<!-- clinical_measure_file&#45;&gt;study -->
<g id="edge21" class="edge">
<title>clinical_measure_file&#45;&gt;study</title>
<path fill="none" stroke="#000000" d="M2639.0226,-173.8805C2638.9457,-162.6451 2636.6721,-148.8941 2627.3956,-141 2581.1686,-101.6616 2123.6037,-166.6225 2081.3956,-123 2046.9872,-87.4386 2117.9536,-51.312 2166.0413,-32.0916"/>
<polygon fill="#000000" stroke="#000000" points="2167.5635,-35.255 2175.6125,-28.3656 2165.0239,-28.7319 2167.5635,-35.255"/>
<text text-anchor="middle" x="2167.3956" y="-101.3" font-family="Times,serif" font-size="14.00" fill="#000000">of_clinical_measure_file</text>
</g>
<!-- methylation_array_file -->
<g id="node20" class="node">
<title>methylation_array_file</title>
<ellipse fill="none" stroke="#000000" cx="232.3956" cy="-279" rx="115.8798" ry="18"/>
<text text-anchor="middle" x="232.3956" y="-275.3" font-family="Times,serif" font-size="14.00" fill="#000000">methylation_array_file</text>
</g>
<!-- methylation_array_file&#45;&gt;sample -->
<g id="edge5" class="edge">
<title>methylation_array_file&#45;&gt;sample</title>
<path fill="none" stroke="#000000" d="M242.8305,-260.909C250.5302,-249.381 262.1282,-235.2874 276.3956,-228 308.2087,-211.7508 535.8063,-199.3468 642.0377,-194.3746"/>
<polygon fill="#000000" stroke="#000000" points="642.4071,-197.8614 652.2346,-193.9028 642.0835,-190.8689 642.4071,-197.8614"/>
<text text-anchor="middle" x="367.8956" y="-231.8" font-family="Times,serif" font-size="14.00" fill="#000000">of_methylation_array_file</text>
</g>
<!-- radiology_file -->
<g id="node21" class="node">
<title>radiology_file</title>
<ellipse fill="none" stroke="#000000" cx="2182.3956" cy="-192" rx="73.387" ry="18"/>
<text text-anchor="middle" x="2182.3956" y="-188.3" font-family="Times,serif" font-size="14.00" fill="#000000">radiology_file</text>
</g>
<!-- radiology_file&#45;&gt;participant -->
<g id="edge24" class="edge">
<title>radiology_file&#45;&gt;participant</title>
<path fill="none" stroke="#000000" d="M2166.3102,-174.2624C2154.7399,-162.7338 2138.1072,-148.4997 2120.3956,-141 2077.4639,-122.8213 1954.1589,-113.0058 1874.309,-108.4007"/>
<polygon fill="#000000" stroke="#000000" points="1874.4925,-104.9056 1864.3116,-107.8382 1874.0992,-111.8946 1874.4925,-104.9056"/>
<text text-anchor="middle" x="2203.3956" y="-144.8" font-family="Times,serif" font-size="14.00" fill="#000000">of_radiology_file</text>
</g>
<!-- pdx&#45;&gt;sample -->
<g id="edge12" class="edge">
<title>pdx&#45;&gt;sample</title>
<path fill="none" stroke="#000000" d="M1209.4482,-117.0493C1204.3485,-119.4537 1198.8018,-121.6515 1193.3956,-123 1166.534,-129.7004 714.6149,-121.0735 695.3956,-141 689.5388,-147.0724 688.1794,-155.6879 688.7814,-164.1128"/>
<polygon fill="#000000" stroke="#000000" points="685.3395,-164.7588 690.3178,-174.1112 692.2582,-163.6956 685.3395,-164.7588"/>
<text text-anchor="middle" x="719.3956" y="-144.8" font-family="Times,serif" font-size="14.00" fill="#000000">of_pdx</text>
</g>
<!-- pdx&#45;&gt;study -->
<g id="edge13" class="edge">
<title>pdx&#45;&gt;study</title>
<path fill="none" stroke="#000000" d="M1258.2639,-102.5133C1394.2304,-90.3809 1988.3313,-37.3688 2159.246,-22.118"/>
<polygon fill="#000000" stroke="#000000" points="2159.7675,-25.5854 2169.4169,-21.2104 2159.1453,-18.6131 2159.7675,-25.5854"/>
<text text-anchor="middle" x="1799.3956" y="-57.8" font-family="Times,serif" font-size="14.00" fill="#000000">of_pdx</text>
</g>
<!-- cytogenomic_file -->
<g id="node23" class="node">
<title>cytogenomic_file</title>
<ellipse fill="none" stroke="#000000" cx="455.3956" cy="-279" rx="89.8845" ry="18"/>
<text text-anchor="middle" x="455.3956" y="-275.3" font-family="Times,serif" font-size="14.00" fill="#000000">cytogenomic_file</text>
</g>
<!-- cytogenomic_file&#45;&gt;sample -->
<g id="edge23" class="edge">
<title>cytogenomic_file&#45;&gt;sample</title>
<path fill="none" stroke="#000000" d="M457.1834,-260.7865C459.2593,-249.6601 463.7383,-236.0648 473.3956,-228 498.384,-207.1322 584.7599,-198.1898 642.3855,-194.4817"/>
<polygon fill="#000000" stroke="#000000" points="642.6664,-197.9712 652.4348,-193.8689 642.2403,-190.9841 642.6664,-197.9712"/>
<text text-anchor="middle" x="544.8956" y="-231.8" font-family="Times,serif" font-size="14.00" fill="#000000">of_cytogenomic_file</text>
</g>
<!-- synonym -->
<g id="node24" class="node">
<title>synonym</title>
<ellipse fill="none" stroke="#000000" cx="2425.3956" cy="-279" rx="51.9908" ry="18"/>
<text text-anchor="middle" x="2425.3956" y="-275.3" font-family="Times,serif" font-size="14.00" fill="#000000">synonym</text>
</g>
<!-- synonym&#45;&gt;participant -->
<g id="edge16" class="edge">
<title>synonym&#45;&gt;participant</title>
<path fill="none" stroke="#000000" d="M2426.8048,-260.675C2428.0094,-230.3327 2425.3927,-170.121 2389.3956,-141 2361.5367,-118.4627 2103.1608,-125.2142 2067.3956,-123 2001.5655,-118.9244 1926.5724,-113.7841 1873.2053,-110.041"/>
<polygon fill="#000000" stroke="#000000" points="1873.3854,-106.5451 1863.1647,-109.3354 1872.8946,-113.5279 1873.3854,-106.5451"/>
<text text-anchor="middle" x="2465.8956" y="-188.3" font-family="Times,serif" font-size="14.00" fill="#000000">of_synonym</text>
</g>
<!-- synonym&#45;&gt;sample -->
<g id="edge18" class="edge">
<title>synonym&#45;&gt;sample</title>
<path fill="none" stroke="#000000" d="M2373.359,-277.1849C2181.3937,-270.3646 1494.7927,-244.8699 929.3956,-210 867.7124,-206.1958 796.9424,-200.546 749.7375,-196.5937"/>
<polygon fill="#000000" stroke="#000000" points="749.9983,-193.1034 739.74,-195.7525 749.4113,-200.0787 749.9983,-193.1034"/>
<text text-anchor="middle" x="1587.8956" y="-231.8" font-family="Times,serif" font-size="14.00" fill="#000000">of_synonym</text>
</g>
<!-- synonym&#45;&gt;study -->
<g id="edge17" class="edge">
<title>synonym&#45;&gt;study</title>
<path fill="none" stroke="#000000" d="M2476.8717,-275.9208C2560.7092,-269.7129 2720.8848,-252.473 2755.3956,-210 2789.8689,-167.5732 2775.1082,-137.9888 2755.3956,-87 2748.2481,-68.5121 2743.2347,-62.6404 2725.3956,-54 2683.4457,-33.6815 2372.2042,-22.7501 2252.3008,-19.2569"/>
<polygon fill="#000000" stroke="#000000" points="2252.0762,-15.7491 2241.9799,-18.9609 2251.8754,-22.7462 2252.0762,-15.7491"/>
<text text-anchor="middle" x="2817.8956" y="-144.8" font-family="Times,serif" font-size="14.00" fill="#000000">of_synonym</text>
</g>
<!-- study_admin -->
<g id="node25" class="node">
<title>study_admin</title>
<ellipse fill="none" stroke="#000000" cx="2872.3956" cy="-105" rx="70.3881" ry="18"/>
<text text-anchor="middle" x="2872.3956" y="-101.3" font-family="Times,serif" font-size="14.00" fill="#000000">study_admin</text>
</g>
<!-- study_admin&#45;&gt;study -->
<g id="edge7" class="edge">
<title>study_admin&#45;&gt;study</title>
<path fill="none" stroke="#000000" d="M2850.6689,-87.726C2834.5016,-75.9339 2811.3507,-61.1931 2788.3956,-54 2737.8637,-38.1656 2381.6658,-24.204 2252.2469,-19.6007"/>
<polygon fill="#000000" stroke="#000000" points="2251.9988,-16.0899 2241.8815,-19.2348 2251.7518,-23.0855 2251.9988,-16.0899"/>
<text text-anchor="middle" x="2875.8956" y="-57.8" font-family="Times,serif" font-size="14.00" fill="#000000">of_study_admin</text>
</g>
</g>
</svg>
