<svg width="2623pt" height="305pt"
 viewBox="0.00 0.00 2623.32 305.00" xmlns="http://www.w3.org/2000/svg" xmlns:xlink="http://www.w3.org/1999/xlink">
<g id="graph0" class="graph" transform="scale(1 1) rotate(0) translate(4 301)">
<title>Perl</title>
<polygon fill="#ffffff" stroke="transparent" points="-4,4 -4,-301 2619.3218,-301 2619.3218,4 -4,4"/>
<!-- medical_history -->
<g id="node1" class="node">
<title>medical_history</title>
<ellipse fill="none" stroke="#000000" cx="1796.2295" cy="-192" rx="85.2851" ry="18"/>
<text text-anchor="middle" x="1796.2295" y="-188.3" font-family="Times,serif" font-size="14.00" fill="#000000">medical_history</text>
</g>
<!-- participant -->
<g id="node9" class="node">
<title>participant</title>
<ellipse fill="none" stroke="#000000" cx="1277.2295" cy="-105" rx="62.2891" ry="18"/>
<text text-anchor="middle" x="1277.2295" y="-101.3" font-family="Times,serif" font-size="14.00" fill="#000000">participant</text>
</g>
<!-- medical_history&#45;&gt;participant -->
<g id="edge2" class="edge">
<title>medical_history&#45;&gt;participant</title>
<path fill="none" stroke="#000000" d="M1751.0619,-176.5803C1711.1533,-163.1946 1655.8786,-145.3018 1633.2295,-141 1524.2229,-120.2959 1494.3948,-136.2181 1384.2295,-123 1369.717,-121.2587 1354.1719,-118.9193 1339.5534,-116.5044"/>
<polygon fill="#000000" stroke="#000000" points="1340.0478,-113.0385 1329.605,-114.8269 1338.8838,-119.941 1340.0478,-113.0385"/>
<text text-anchor="middle" x="1752.2295" y="-144.8" font-family="Times,serif" font-size="14.00" fill="#000000">of_medical_history</text>
</g>
<!-- diagnosis -->
<g id="node2" class="node">
<title>diagnosis</title>
<ellipse fill="none" stroke="#000000" cx="1389.2295" cy="-279" rx="54.6905" ry="18"/>
<text text-anchor="middle" x="1389.2295" y="-275.3" font-family="Times,serif" font-size="14.00" fill="#000000">diagnosis</text>
</g>
<!-- sample -->
<g id="node6" class="node">
<title>sample</title>
<ellipse fill="none" stroke="#000000" cx="1943.2295" cy="-192" rx="44.393" ry="18"/>
<text text-anchor="middle" x="1943.2295" y="-188.3" font-family="Times,serif" font-size="14.00" fill="#000000">sample</text>
</g>
<!-- diagnosis&#45;&gt;sample -->
<g id="edge8" class="edge">
<title>diagnosis&#45;&gt;sample</title>
<path fill="none" stroke="#000000" d="M1425.1278,-265.1618C1442.1628,-258.5417 1462.7819,-250.4515 1481.2295,-243 1497.3013,-236.5082 1500.3197,-231.8081 1517.2295,-228 1679.1452,-191.5365 1727.1774,-240.988 1890.2295,-210 1893.8812,-209.306 1897.6248,-208.4176 1901.3514,-207.4083"/>
<polygon fill="#000000" stroke="#000000" points="1902.5161,-210.7134 1911.1012,-204.5049 1900.5182,-204.0045 1902.5161,-210.7134"/>
<text text-anchor="middle" x="1561.7295" y="-231.8" font-family="Times,serif" font-size="14.00" fill="#000000">of_diagnosis</text>
</g>
<!-- diagnosis&#45;&gt;participant -->
<g id="edge7" class="edge">
<title>diagnosis&#45;&gt;participant</title>
<path fill="none" stroke="#000000" d="M1366.7747,-262.3545C1355.665,-252.1015 1346.3479,-238.8823 1355.2295,-228 1380.4715,-197.0723 1416.0479,-239.2376 1443.2295,-210 1464.2172,-187.4248 1469.6789,-164.9133 1450.2295,-141 1446.6265,-136.57 1388.6817,-125.1132 1340.8324,-116.3032"/>
<polygon fill="#000000" stroke="#000000" points="1341.265,-112.8243 1330.7983,-114.4668 1340.0048,-119.7099 1341.265,-112.8243"/>
<text text-anchor="middle" x="1505.7295" y="-188.3" font-family="Times,serif" font-size="14.00" fill="#000000">of_diagnosis</text>
</g>
<!-- generic_file -->
<g id="node3" class="node">
<title>generic_file</title>
<ellipse fill="none" stroke="#000000" cx="301.2295" cy="-279" rx="65.7887" ry="18"/>
<text text-anchor="middle" x="301.2295" y="-275.3" font-family="Times,serif" font-size="14.00" fill="#000000">generic_file</text>
</g>
<!-- study -->
<g id="node4" class="node">
<title>study</title>
<ellipse fill="none" stroke="#000000" cx="1629.2295" cy="-18" rx="36.2938" ry="18"/>
<text text-anchor="middle" x="1629.2295" y="-14.3" font-family="Times,serif" font-size="14.00" fill="#000000">study</text>
</g>
<!-- generic_file&#45;&gt;study -->
<g id="edge23" class="edge">
<title>generic_file&#45;&gt;study</title>
<path fill="none" stroke="#000000" d="M242.9482,-270.6607C174.545,-259.7204 66.7954,-238.5122 38.2295,-210 -1.1326,-170.7118 -12.3628,-135.2866 15.2295,-87 29.5624,-61.9174 43.4482,-61.9226 71.2295,-54 145.6148,-32.787 1330.673,-20.7431 1582.4413,-18.4168"/>
<polygon fill="#000000" stroke="#000000" points="1582.7391,-21.9143 1592.7065,-18.3225 1582.6747,-14.9146 1582.7391,-21.9143"/>
<text text-anchor="middle" x="56.2295" y="-144.8" font-family="Times,serif" font-size="14.00" fill="#000000">of_generic_file</text>
</g>
<!-- generic_file&#45;&gt;sample -->
<g id="edge24" class="edge">
<title>generic_file&#45;&gt;sample</title>
<path fill="none" stroke="#000000" d="M365.744,-275.6331C532.2016,-267.0093 989.8394,-243.7022 1371.2295,-228 1486.5345,-223.2528 1776.7128,-230.7779 1890.2295,-210 1893.8858,-209.3308 1897.6326,-208.4597 1901.3614,-207.462"/>
<polygon fill="#000000" stroke="#000000" points="1902.5182,-210.7698 1911.1147,-204.5771 1900.5326,-204.0573 1902.5182,-210.7698"/>
<text text-anchor="middle" x="1424.2295" y="-231.8" font-family="Times,serif" font-size="14.00" fill="#000000">of_generic_file</text>
</g>
<!-- generic_file&#45;&gt;participant -->
<g id="edge22" class="edge">
<title>generic_file&#45;&gt;participant</title>
<path fill="none" stroke="#000000" d="M296.682,-261.0334C291.9482,-237.6406 287.9866,-197.0305 310.2295,-174 341.2518,-141.8792 985.593,-115.5888 1204.8915,-107.5419"/>
<polygon fill="#000000" stroke="#000000" points="1205.1433,-111.0352 1215.0089,-107.1726 1204.8878,-104.0398 1205.1433,-111.0352"/>
<text text-anchor="middle" x="363.2295" y="-188.3" font-family="Times,serif" font-size="14.00" fill="#000000">of_generic_file</text>
</g>
<!-- radiology_file -->
<g id="node5" class="node">
<title>radiology_file</title>
<ellipse fill="none" stroke="#000000" cx="945.2295" cy="-192" rx="73.387" ry="18"/>
<text text-anchor="middle" x="945.2295" y="-188.3" font-family="Times,serif" font-size="14.00" fill="#000000">radiology_file</text>
</g>
<!-- radiology_file&#45;&gt;participant -->
<g id="edge19" class="edge">
<title>radiology_file&#45;&gt;participant</title>
<path fill="none" stroke="#000000" d="M959.9133,-173.8468C970.2146,-162.4468 985.0053,-148.5235 1001.2295,-141 1036.5367,-124.6275 1136.6828,-114.6058 1206.0948,-109.425"/>
<polygon fill="#000000" stroke="#000000" points="1206.3825,-112.9134 1216.1015,-108.6956 1205.8735,-105.9319 1206.3825,-112.9134"/>
<text text-anchor="middle" x="1060.2295" y="-144.8" font-family="Times,serif" font-size="14.00" fill="#000000">of_radiology_file</text>
</g>
<!-- sample&#45;&gt;participant -->
<g id="edge32" class="edge">
<title>sample&#45;&gt;participant</title>
<path fill="none" stroke="#000000" d="M1914.3304,-178.1754C1885.1882,-164.4981 1842.0404,-145.0369 1824.2295,-141 1728.7907,-119.3683 1481.5626,-133.1372 1384.2295,-123 1369.5393,-121.47 1353.8105,-119.1888 1339.0574,-116.7599"/>
<polygon fill="#000000" stroke="#000000" points="1339.468,-113.2797 1329.0242,-115.0623 1338.3002,-120.1816 1339.468,-113.2797"/>
<text text-anchor="middle" x="1898.7295" y="-144.8" font-family="Times,serif" font-size="14.00" fill="#000000">of_sample</text>
</g>
<!-- pdx -->
<g id="node17" class="node">
<title>pdx</title>
<ellipse fill="none" stroke="#000000" cx="2220.2295" cy="-105" rx="27.8951" ry="18"/>
<text text-anchor="middle" x="2220.2295" y="-101.3" font-family="Times,serif" font-size="14.00" fill="#000000">pdx</text>
</g>
<!-- sample&#45;&gt;pdx -->
<g id="edge31" class="edge">
<title>sample&#45;&gt;pdx</title>
<path fill="none" stroke="#000000" d="M1987.3753,-190.5836C2050.6099,-187.7507 2162.9203,-179.481 2195.2295,-156 2203.1963,-150.2101 2208.7519,-141.1754 2212.5652,-132.3089"/>
<polygon fill="#000000" stroke="#000000" points="2215.8533,-133.5085 2216.0509,-122.9155 2209.2905,-131.0732 2215.8533,-133.5085"/>
<text text-anchor="middle" x="2243.7295" y="-144.8" font-family="Times,serif" font-size="14.00" fill="#000000">of_sample</text>
</g>
<!-- cell_line -->
<g id="node18" class="node">
<title>cell_line</title>
<ellipse fill="none" stroke="#000000" cx="1943.2295" cy="-105" rx="49.2915" ry="18"/>
<text text-anchor="middle" x="1943.2295" y="-101.3" font-family="Times,serif" font-size="14.00" fill="#000000">cell_line</text>
</g>
<!-- sample&#45;&gt;cell_line -->
<g id="edge30" class="edge">
<title>sample&#45;&gt;cell_line</title>
<path fill="none" stroke="#000000" d="M1982.2196,-183.4392C2009.4695,-175.4804 2038.7513,-161.7039 2025.2295,-141 2018.3199,-130.4204 2007.5328,-122.9298 1996.0266,-117.6333"/>
<polygon fill="#000000" stroke="#000000" points="1997.2867,-114.3674 1986.705,-113.8388 1994.6475,-120.8508 1997.2867,-114.3674"/>
<text text-anchor="middle" x="2064.7295" y="-144.8" font-family="Times,serif" font-size="14.00" fill="#000000">of_sample</text>
</g>
<!-- treatment -->
<g id="node7" class="node">
<title>treatment</title>
<ellipse fill="none" stroke="#000000" cx="1635.2295" cy="-192" rx="57.6901" ry="18"/>
<text text-anchor="middle" x="1635.2295" y="-188.3" font-family="Times,serif" font-size="14.00" fill="#000000">treatment</text>
</g>
<!-- treatment&#45;&gt;participant -->
<g id="edge18" class="edge">
<title>treatment&#45;&gt;participant</title>
<path fill="none" stroke="#000000" d="M1599.0314,-177.9102C1568.9447,-166.6334 1524.8102,-151.088 1485.2295,-141 1478.1692,-139.2005 1399.595,-125.7412 1341.0931,-115.8048"/>
<polygon fill="#000000" stroke="#000000" points="1341.6038,-112.3415 1331.1591,-114.1186 1340.4324,-119.2428 1341.6038,-112.3415"/>
<text text-anchor="middle" x="1582.2295" y="-144.8" font-family="Times,serif" font-size="14.00" fill="#000000">of_treatment</text>
</g>
<!-- study_arm -->
<g id="node8" class="node">
<title>study_arm</title>
<ellipse fill="none" stroke="#000000" cx="84.2295" cy="-105" rx="59.5901" ry="18"/>
<text text-anchor="middle" x="84.2295" y="-101.3" font-family="Times,serif" font-size="14.00" fill="#000000">study_arm</text>
</g>
<!-- study_arm&#45;&gt;study -->
<g id="edge17" class="edge">
<title>study_arm&#45;&gt;study</title>
<path fill="none" stroke="#000000" d="M77.1759,-87.0838C74.1351,-76.076 72.9238,-62.5012 81.2295,-54 108.1408,-26.4557 1327.6956,-19.3759 1582.764,-18.1954"/>
<polygon fill="#000000" stroke="#000000" points="1582.8252,-21.6953 1592.8091,-18.1497 1582.7932,-14.6954 1582.8252,-21.6953"/>
<text text-anchor="middle" x="129.7295" y="-57.8" font-family="Times,serif" font-size="14.00" fill="#000000">of_study_arm</text>
</g>
<!-- participant&#45;&gt;study -->
<g id="edge35" class="edge">
<title>participant&#45;&gt;study</title>
<path fill="none" stroke="#000000" d="M1306.0293,-89.0221C1327.9356,-77.556 1359.1646,-62.6571 1388.2295,-54 1454.281,-34.3263 1533.8641,-25.1133 1583.0073,-21.0144"/>
<polygon fill="#000000" stroke="#000000" points="1583.3263,-24.5002 1593.0161,-20.2155 1582.7692,-17.5224 1583.3263,-24.5002"/>
<text text-anchor="middle" x="1438.7295" y="-57.8" font-family="Times,serif" font-size="14.00" fill="#000000">of_participant</text>
</g>
<!-- treatment_response -->
<g id="node10" class="node">
<title>treatment_response</title>
<ellipse fill="none" stroke="#000000" cx="530.2295" cy="-192" rx="104.7816" ry="18"/>
<text text-anchor="middle" x="530.2295" y="-188.3" font-family="Times,serif" font-size="14.00" fill="#000000">treatment_response</text>
</g>
<!-- treatment_response&#45;&gt;participant -->
<g id="edge25" class="edge">
<title>treatment_response&#45;&gt;participant</title>
<path fill="none" stroke="#000000" d="M554.058,-174.4319C571.4472,-162.6623 596.1018,-148.0726 620.2295,-141 675.0692,-124.9247 1045.6042,-111.9844 1204.791,-107.1001"/>
<polygon fill="#000000" stroke="#000000" points="1205.0764,-110.5931 1214.9651,-106.79 1204.8631,-103.5963 1205.0764,-110.5931"/>
<text text-anchor="middle" x="703.2295" y="-144.8" font-family="Times,serif" font-size="14.00" fill="#000000">of_treatment_response</text>
</g>
<!-- family_relationship -->
<g id="node11" class="node">
<title>family_relationship</title>
<ellipse fill="none" stroke="#000000" cx="753.2295" cy="-192" rx="100.1823" ry="18"/>
<text text-anchor="middle" x="753.2295" y="-188.3" font-family="Times,serif" font-size="14.00" fill="#000000">family_relationship</text>
</g>
<!-- family_relationship&#45;&gt;participant -->
<g id="edge9" class="edge">
<title>family_relationship&#45;&gt;participant</title>
<path fill="none" stroke="#000000" d="M769.2331,-174.0643C780.7669,-162.4473 797.3896,-148.1889 815.2295,-141 850.3956,-126.8292 1084.2749,-114.0081 1205.1545,-108.2326"/>
<polygon fill="#000000" stroke="#000000" points="1205.6051,-111.7153 1215.4282,-107.7457 1205.2737,-104.7231 1205.6051,-111.7153"/>
<text text-anchor="middle" x="894.7295" y="-144.8" font-family="Times,serif" font-size="14.00" fill="#000000">of_family_relationship</text>
</g>
<!-- clinical_measure_file -->
<g id="node12" class="node">
<title>clinical_measure_file</title>
<ellipse fill="none" stroke="#000000" cx="156.2295" cy="-192" rx="108.5808" ry="18"/>
<text text-anchor="middle" x="156.2295" y="-188.3" font-family="Times,serif" font-size="14.00" fill="#000000">clinical_measure_file</text>
</g>
<!-- clinical_measure_file&#45;&gt;study -->
<g id="edge10" class="edge">
<title>clinical_measure_file&#45;&gt;study</title>
<path fill="none" stroke="#000000" d="M163.4263,-173.7434C168.9552,-162.2996 177.7724,-148.3665 190.2295,-141 312.6499,-68.6074 1348.3979,-27.9194 1582.3837,-19.6016"/>
<polygon fill="#000000" stroke="#000000" points="1582.7277,-23.0917 1592.598,-19.241 1582.4807,-16.0961 1582.7277,-23.0917"/>
<text text-anchor="middle" x="550.2295" y="-101.3" font-family="Times,serif" font-size="14.00" fill="#000000">of_clinical_measure_file</text>
</g>
<!-- clinical_measure_file&#45;&gt;participant -->
<g id="edge11" class="edge">
<title>clinical_measure_file&#45;&gt;participant</title>
<path fill="none" stroke="#000000" d="M172.5047,-174.121C184.9755,-160.924 201.4824,-144.6497 210.2295,-141 256.0278,-121.8911 972.1295,-109.557 1204.8114,-106.0379"/>
<polygon fill="#000000" stroke="#000000" points="1204.9181,-109.5368 1214.8644,-105.8869 1204.8129,-102.5376 1204.9181,-109.5368"/>
<text text-anchor="middle" x="296.2295" y="-144.8" font-family="Times,serif" font-size="14.00" fill="#000000">of_clinical_measure_file</text>
</g>
<!-- sequencing_file -->
<g id="node13" class="node">
<title>sequencing_file</title>
<ellipse fill="none" stroke="#000000" cx="1574.2295" cy="-279" rx="83.3857" ry="18"/>
<text text-anchor="middle" x="1574.2295" y="-275.3" font-family="Times,serif" font-size="14.00" fill="#000000">sequencing_file</text>
</g>
<!-- sequencing_file&#45;&gt;sample -->
<g id="edge34" class="edge">
<title>sequencing_file&#45;&gt;sample</title>
<path fill="none" stroke="#000000" d="M1589.657,-261.2768C1600.9806,-249.5965 1617.4351,-235.1778 1635.2295,-228 1687.9127,-206.7491 1834.5423,-221.2267 1890.2295,-210 1893.8732,-209.2654 1897.6112,-208.3485 1901.3341,-207.3202"/>
<polygon fill="#000000" stroke="#000000" points="1902.5117,-210.6209 1911.0781,-204.3865 1900.4936,-203.9181 1902.5117,-210.6209"/>
<text text-anchor="middle" x="1701.7295" y="-231.8" font-family="Times,serif" font-size="14.00" fill="#000000">of_sequencing_file</text>
</g>
<!-- study_admin -->
<g id="node14" class="node">
<title>study_admin</title>
<ellipse fill="none" stroke="#000000" cx="1463.2295" cy="-105" rx="70.3881" ry="18"/>
<text text-anchor="middle" x="1463.2295" y="-101.3" font-family="Times,serif" font-size="14.00" fill="#000000">study_admin</text>
</g>
<!-- study_admin&#45;&gt;study -->
<g id="edge1" class="edge">
<title>study_admin&#45;&gt;study</title>
<path fill="none" stroke="#000000" d="M1476.4626,-87.1697C1485.4508,-76.1962 1498.2194,-62.6272 1512.2295,-54 1534.2987,-40.4101 1561.893,-31.5983 1584.7399,-26.0964"/>
<polygon fill="#000000" stroke="#000000" points="1585.5636,-29.4985 1594.5375,-23.8665 1584.0101,-22.673 1585.5636,-29.4985"/>
<text text-anchor="middle" x="1568.7295" y="-57.8" font-family="Times,serif" font-size="14.00" fill="#000000">of_study_admin</text>
</g>
<!-- study_funding -->
<g id="node15" class="node">
<title>study_funding</title>
<ellipse fill="none" stroke="#000000" cx="1629.2295" cy="-105" rx="77.1866" ry="18"/>
<text text-anchor="middle" x="1629.2295" y="-101.3" font-family="Times,serif" font-size="14.00" fill="#000000">study_funding</text>
</g>
<!-- study_funding&#45;&gt;study -->
<g id="edge4" class="edge">
<title>study_funding&#45;&gt;study</title>
<path fill="none" stroke="#000000" d="M1629.2295,-86.9735C1629.2295,-75.1918 1629.2295,-59.5607 1629.2295,-46.1581"/>
<polygon fill="#000000" stroke="#000000" points="1632.7296,-46.0033 1629.2295,-36.0034 1625.7296,-46.0034 1632.7296,-46.0033"/>
<text text-anchor="middle" x="1691.2295" y="-57.8" font-family="Times,serif" font-size="14.00" fill="#000000">of_study_funding</text>
</g>
<!-- publication -->
<g id="node16" class="node">
<title>publication</title>
<ellipse fill="none" stroke="#000000" cx="1787.2295" cy="-105" rx="63.0888" ry="18"/>
<text text-anchor="middle" x="1787.2295" y="-101.3" font-family="Times,serif" font-size="14.00" fill="#000000">publication</text>
</g>
<!-- publication&#45;&gt;study -->
<g id="edge21" class="edge">
<title>publication&#45;&gt;study</title>
<path fill="none" stroke="#000000" d="M1780.7119,-87.0168C1775.8408,-75.9822 1768.1323,-62.4028 1757.2295,-54 1743.9894,-43.7958 1704.7638,-33.6154 1673.1916,-26.6978"/>
<polygon fill="#000000" stroke="#000000" points="1673.7635,-23.241 1663.2524,-24.5706 1672.2985,-30.086 1673.7635,-23.241"/>
<text text-anchor="middle" x="1821.2295" y="-57.8" font-family="Times,serif" font-size="14.00" fill="#000000">of_publication</text>
</g>
<!-- pdx&#45;&gt;study -->
<g id="edge29" class="edge">
<title>pdx&#45;&gt;study</title>
<path fill="none" stroke="#000000" d="M2194.0953,-98.2801C2151.0481,-87.4431 2062.4028,-66.1011 1986.2295,-54 1875.3379,-36.3834 1743.6215,-25.7274 1675.3791,-20.9635"/>
<polygon fill="#000000" stroke="#000000" points="1675.5992,-17.4705 1665.3826,-20.2763 1675.119,-24.454 1675.5992,-17.4705"/>
<text text-anchor="middle" x="2087.2295" y="-57.8" font-family="Times,serif" font-size="14.00" fill="#000000">of_pdx</text>
</g>
<!-- pdx&#45;&gt;sample -->
<g id="edge28" class="edge">
<title>pdx&#45;&gt;sample</title>
<path fill="none" stroke="#000000" d="M2198.2717,-116.3144C2175.5036,-127.6673 2138.6293,-145.0042 2105.2295,-156 2068.9298,-167.9506 2026.7545,-177.1819 1994.5379,-183.3036"/>
<polygon fill="#000000" stroke="#000000" points="1993.6387,-179.9107 1984.4479,-185.1813 1994.9195,-186.7925 1993.6387,-179.9107"/>
<text text-anchor="middle" x="2167.2295" y="-144.8" font-family="Times,serif" font-size="14.00" fill="#000000">of_pdx</text>
</g>
<!-- cell_line&#45;&gt;study -->
<g id="edge6" class="edge">
<title>cell_line&#45;&gt;study</title>
<path fill="none" stroke="#000000" d="M1926.0492,-87.9576C1913.3671,-76.4356 1895.0982,-61.926 1876.2295,-54 1840.9162,-39.1663 1736.5976,-27.6531 1675.4111,-21.9476"/>
<polygon fill="#000000" stroke="#000000" points="1675.5244,-18.4434 1665.2467,-21.0162 1674.8856,-25.4142 1675.5244,-18.4434"/>
<text text-anchor="middle" x="1941.7295" y="-57.8" font-family="Times,serif" font-size="14.00" fill="#000000">of_cell_line</text>
</g>
<!-- cell_line&#45;&gt;sample -->
<g id="edge5" class="edge">
<title>cell_line&#45;&gt;sample</title>
<path fill="none" stroke="#000000" d="M1943.2295,-123.0034C1943.2295,-134.7801 1943.2295,-150.4102 1943.2295,-163.8156"/>
<polygon fill="#000000" stroke="#000000" points="1939.7296,-163.9735 1943.2295,-173.9735 1946.7296,-163.9736 1939.7296,-163.9735"/>
<text text-anchor="middle" x="1983.7295" y="-144.8" font-family="Times,serif" font-size="14.00" fill="#000000">of_cell_line</text>
</g>
<!-- pathology_file -->
<g id="node19" class="node">
<title>pathology_file</title>
<ellipse fill="none" stroke="#000000" cx="1751.2295" cy="-279" rx="76.0865" ry="18"/>
<text text-anchor="middle" x="1751.2295" y="-275.3" font-family="Times,serif" font-size="14.00" fill="#000000">pathology_file</text>
</g>
<!-- pathology_file&#45;&gt;sample -->
<g id="edge26" class="edge">
<title>pathology_file&#45;&gt;sample</title>
<path fill="none" stroke="#000000" d="M1760.0294,-261.0901C1766.528,-249.7928 1776.4542,-235.8926 1789.2295,-228 1828.0201,-204.0353 1846.0722,-221.3639 1890.2295,-210 1893.5778,-209.1383 1897.019,-208.1685 1900.4628,-207.1372"/>
<polygon fill="#000000" stroke="#000000" points="1901.6099,-210.4456 1910.0994,-204.1069 1899.51,-203.7679 1901.6099,-210.4456"/>
<text text-anchor="middle" x="1850.2295" y="-231.8" font-family="Times,serif" font-size="14.00" fill="#000000">of_pathology_file</text>
</g>
<!-- cytogenomic_file -->
<g id="node20" class="node">
<title>cytogenomic_file</title>
<ellipse fill="none" stroke="#000000" cx="1935.2295" cy="-279" rx="89.8845" ry="18"/>
<text text-anchor="middle" x="1935.2295" y="-275.3" font-family="Times,serif" font-size="14.00" fill="#000000">cytogenomic_file</text>
</g>
<!-- cytogenomic_file&#45;&gt;sample -->
<g id="edge20" class="edge">
<title>cytogenomic_file&#45;&gt;sample</title>
<path fill="none" stroke="#000000" d="M1922.9506,-261.1411C1917.7586,-251.3899 1913.6474,-239.0782 1917.2295,-228 1918.3889,-224.4147 1920.0532,-220.8862 1921.9875,-217.5235"/>
<polygon fill="#000000" stroke="#000000" points="1924.9729,-219.3544 1927.5766,-209.0844 1919.1368,-215.4892 1924.9729,-219.3544"/>
<text text-anchor="middle" x="1988.7295" y="-231.8" font-family="Times,serif" font-size="14.00" fill="#000000">of_cytogenomic_file</text>
</g>
<!-- synonym -->
<g id="node21" class="node">
<title>synonym</title>
<ellipse fill="none" stroke="#000000" cx="2388.2295" cy="-279" rx="51.9908" ry="18"/>
<text text-anchor="middle" x="2388.2295" y="-275.3" font-family="Times,serif" font-size="14.00" fill="#000000">synonym</text>
</g>
<!-- synonym&#45;&gt;study -->
<g id="edge12" class="edge">
<title>synonym&#45;&gt;study</title>
<path fill="none" stroke="#000000" d="M2396.1278,-261.004C2404.4922,-239.0082 2414.5454,-201.3455 2399.2295,-174 2363.0616,-109.4244 2325.7138,-115.0719 2257.2295,-87 2197.2777,-62.4255 2179.2838,-63.7556 2115.2295,-54 1955.0835,-29.6095 1762.6307,-21.5655 1675.7792,-19.0599"/>
<polygon fill="#000000" stroke="#000000" points="1675.8135,-15.5596 1665.7203,-18.781 1675.6195,-22.5569 1675.8135,-15.5596"/>
<text text-anchor="middle" x="2429.7295" y="-144.8" font-family="Times,serif" font-size="14.00" fill="#000000">of_synonym</text>
</g>
<!-- synonym&#45;&gt;sample -->
<g id="edge13" class="edge">
<title>synonym&#45;&gt;sample</title>
<path fill="none" stroke="#000000" d="M2348.8164,-266.9832C2330.3137,-260.7621 2308.2076,-252.4816 2289.2295,-243 2278.3122,-237.5456 2277.7167,-232.121 2266.2295,-228 2218.0706,-210.7229 2076.0421,-199.8577 1997.313,-194.9904"/>
<polygon fill="#000000" stroke="#000000" points="1997.2994,-191.4833 1987.1057,-194.3711 1996.8754,-198.4704 1997.2994,-191.4833"/>
<text text-anchor="middle" x="2331.7295" y="-231.8" font-family="Times,serif" font-size="14.00" fill="#000000">of_synonym</text>
</g>
<!-- synonym&#45;&gt;participant -->
<g id="edge14" class="edge">
<title>synonym&#45;&gt;participant</title>
<path fill="none" stroke="#000000" d="M2387.5182,-260.7976C2386.1556,-249.9587 2382.6981,-236.6703 2374.2295,-228 2354.7762,-208.0832 2340.784,-218.3648 2314.2295,-210 2220.929,-180.6097 2201.6077,-157.7344 2105.2295,-141 1947.3201,-113.5818 1543.7666,-138.3325 1384.2295,-123 1369.4514,-121.5797 1353.6312,-119.3279 1338.8112,-116.8912"/>
<polygon fill="#000000" stroke="#000000" points="1339.1805,-113.404 1328.7361,-115.1827 1338.0101,-120.3054 1339.1805,-113.404"/>
<text text-anchor="middle" x="2356.7295" y="-188.3" font-family="Times,serif" font-size="14.00" fill="#000000">of_synonym</text>
</g>
<!-- molecular_test -->
<g id="node22" class="node">
<title>molecular_test</title>
<ellipse fill="none" stroke="#000000" cx="1116.2295" cy="-192" rx="79.8859" ry="18"/>
<text text-anchor="middle" x="1116.2295" y="-188.3" font-family="Times,serif" font-size="14.00" fill="#000000">molecular_test</text>
</g>
<!-- molecular_test&#45;&gt;participant -->
<g id="edge27" class="edge">
<title>molecular_test&#45;&gt;participant</title>
<path fill="none" stroke="#000000" d="M1118.3601,-173.5712C1120.5697,-162.647 1125.0691,-149.3486 1134.2295,-141 1145.9252,-130.3409 1179.6711,-121.5815 1211.4441,-115.3727"/>
<polygon fill="#000000" stroke="#000000" points="1212.4815,-118.7389 1221.6602,-113.4473 1211.1849,-111.86 1212.4815,-118.7389"/>
<text text-anchor="middle" x="1198.2295" y="-144.8" font-family="Times,serif" font-size="14.00" fill="#000000">of_molecular_test</text>
</g>
<!-- methylation_array_file -->
<g id="node23" class="node">
<title>methylation_array_file</title>
<ellipse fill="none" stroke="#000000" cx="2158.2295" cy="-279" rx="115.8798" ry="18"/>
<text text-anchor="middle" x="2158.2295" y="-275.3" font-family="Times,serif" font-size="14.00" fill="#000000">methylation_array_file</text>
</g>
<!-- methylation_array_file&#45;&gt;sample -->
<g id="edge3" class="edge">
<title>methylation_array_file&#45;&gt;sample</title>
<path fill="none" stroke="#000000" d="M2119.968,-261.815C2108.0331,-256.1417 2094.9345,-249.589 2083.2295,-243 2072.5947,-237.0134 2071.2805,-233.1783 2060.2295,-228 2038.4662,-217.802 2013.0986,-209.5887 1991.5582,-203.5968"/>
<polygon fill="#000000" stroke="#000000" points="1992.2084,-200.147 1981.6416,-200.918 1990.3829,-206.9048 1992.2084,-200.147"/>
<text text-anchor="middle" x="2174.7295" y="-231.8" font-family="Times,serif" font-size="14.00" fill="#000000">of_methylation_array_file</text>
</g>
<!-- study_personnel -->
<g id="node24" class="node">
<title>study_personnel</title>
<ellipse fill="none" stroke="#000000" cx="2528.2295" cy="-105" rx="87.1846" ry="18"/>
<text text-anchor="middle" x="2528.2295" y="-101.3" font-family="Times,serif" font-size="14.00" fill="#000000">study_personnel</text>
</g>
<!-- study_personnel&#45;&gt;study -->
<g id="edge33" class="edge">
<title>study_personnel&#45;&gt;study</title>
<path fill="none" stroke="#000000" d="M2501.6162,-87.6227C2481.94,-75.7806 2454.0217,-61.0224 2427.2295,-54 2354.7759,-35.0093 1836.3107,-22.4333 1676.2024,-18.9696"/>
<polygon fill="#000000" stroke="#000000" points="1675.8161,-15.4606 1665.7433,-18.7453 1675.6659,-22.459 1675.8161,-15.4606"/>
<text text-anchor="middle" x="2533.7295" y="-57.8" font-family="Times,serif" font-size="14.00" fill="#000000">of_study_personnel</text>
</g>
<!-- exposure -->
<g id="node25" class="node">
<title>exposure</title>
<ellipse fill="none" stroke="#000000" cx="1267.2295" cy="-192" rx="53.0913" ry="18"/>
<text text-anchor="middle" x="1267.2295" y="-188.3" font-family="Times,serif" font-size="14.00" fill="#000000">exposure</text>
</g>
<!-- exposure&#45;&gt;participant -->
<g id="edge15" class="edge">
<title>exposure&#45;&gt;participant</title>
<path fill="none" stroke="#000000" d="M1266.5976,-173.9873C1266.5012,-164.1911 1266.781,-151.8853 1268.2295,-141 1268.5716,-138.4296 1269.0285,-135.7776 1269.5558,-133.1331"/>
<polygon fill="#000000" stroke="#000000" points="1273.0191,-133.6894 1271.8437,-123.16 1266.1963,-132.1242 1273.0191,-133.6894"/>
<text text-anchor="middle" x="1311.7295" y="-144.8" font-family="Times,serif" font-size="14.00" fill="#000000">of_exposure</text>
</g>
<!-- survival -->
<g id="node26" class="node">
<title>survival</title>
<ellipse fill="none" stroke="#000000" cx="1386.2295" cy="-192" rx="48.1917" ry="18"/>
<text text-anchor="middle" x="1386.2295" y="-188.3" font-family="Times,serif" font-size="14.00" fill="#000000">survival</text>
</g>
<!-- survival&#45;&gt;participant -->
<g id="edge16" class="edge">
<title>survival&#45;&gt;participant</title>
<path fill="none" stroke="#000000" d="M1378.639,-174.1041C1373.358,-163.3806 1365.435,-150.1058 1355.2295,-141 1347.2179,-133.8515 1337.5437,-127.8766 1327.7756,-122.9805"/>
<polygon fill="#000000" stroke="#000000" points="1328.9742,-119.6773 1318.4329,-118.6138 1326.0102,-126.0189 1328.9742,-119.6773"/>
<text text-anchor="middle" x="1406.7295" y="-144.8" font-family="Times,serif" font-size="14.00" fill="#000000">of_survival</text>
</g>
</g>
</svg>
