<svg width="1214pt" height="1350pt"
 viewBox="0.00 0.00 1213.84 1350.00" xmlns="http://www.w3.org/2000/svg" xmlns:xlink="http://www.w3.org/1999/xlink">
<g id="graph0" class="graph" transform="scale(1 1) rotate(0) translate(4 1346)">
<title>Perl</title>
<polygon fill="#ffffff" stroke="transparent" points="-4,4 -4,-1346 1209.8424,-1346 1209.8424,4 -4,4"/>
<!-- clinical_measure -->
<g id="node1" class="node">
<title>clinical_measure</title>
<path fill="none" stroke="#000000" d="M76.3424,-674C76.3424,-674 457.3424,-674 457.3424,-674 463.3424,-674 469.3424,-680 469.3424,-686 469.3424,-686 469.3424,-708 469.3424,-708 469.3424,-714 463.3424,-720 457.3424,-720 457.3424,-720 76.3424,-720 76.3424,-720 70.3424,-720 64.3424,-714 64.3424,-708 64.3424,-708 64.3424,-686 64.3424,-686 64.3424,-680 70.3424,-674 76.3424,-674"/>
<text text-anchor="middle" x="132.8424" y="-693.3" font-family="Times,serif" font-size="14.00" fill="#000000">clinical_measure</text>
<polyline fill="none" stroke="#000000" points="201.3424,-674 201.3424,-720 "/>
<text text-anchor="middle" x="211.8424" y="-693.3" font-family="Times,serif" font-size="14.00" fill="#000000"> </text>
<polyline fill="none" stroke="#000000" points="222.3424,-674 222.3424,-720 "/>
<text text-anchor="middle" x="335.3424" y="-704.8" font-family="Times,serif" font-size="14.00" fill="#000000">clinical_measure_description</text>
<polyline fill="none" stroke="#000000" points="222.3424,-697 448.3424,-697 "/>
<text text-anchor="middle" x="335.3424" y="-681.8" font-family="Times,serif" font-size="14.00" fill="#000000">clinical_measure_id</text>
<polyline fill="none" stroke="#000000" points="448.3424,-674 448.3424,-720 "/>
<text text-anchor="middle" x="458.8424" y="-693.3" font-family="Times,serif" font-size="14.00" fill="#000000"> </text>
</g>
<!-- study -->
<g id="node3" class="node">
<title>study</title>
<path fill="none" stroke="#000000" d="M306.3424,-167.5C306.3424,-167.5 551.3424,-167.5 551.3424,-167.5 557.3424,-167.5 563.3424,-173.5 563.3424,-179.5 563.3424,-179.5 563.3424,-293.5 563.3424,-293.5 563.3424,-299.5 557.3424,-305.5 551.3424,-305.5 551.3424,-305.5 306.3424,-305.5 306.3424,-305.5 300.3424,-305.5 294.3424,-299.5 294.3424,-293.5 294.3424,-293.5 294.3424,-179.5 294.3424,-179.5 294.3424,-173.5 300.3424,-167.5 306.3424,-167.5"/>
<text text-anchor="middle" x="322.3424" y="-232.8" font-family="Times,serif" font-size="14.00" fill="#000000">study</text>
<polyline fill="none" stroke="#000000" points="350.3424,-167.5 350.3424,-305.5 "/>
<text text-anchor="middle" x="360.8424" y="-232.8" font-family="Times,serif" font-size="14.00" fill="#000000"> </text>
<polyline fill="none" stroke="#000000" points="371.3424,-167.5 371.3424,-305.5 "/>
<text text-anchor="middle" x="456.8424" y="-290.3" font-family="Times,serif" font-size="14.00" fill="#000000">dbgap_phs_accession</text>
<polyline fill="none" stroke="#000000" points="371.3424,-282.5 542.3424,-282.5 "/>
<text text-anchor="middle" x="456.8424" y="-267.3" font-family="Times,serif" font-size="14.00" fill="#000000">external_url</text>
<polyline fill="none" stroke="#000000" points="371.3424,-259.5 542.3424,-259.5 "/>
<text text-anchor="middle" x="456.8424" y="-244.3" font-family="Times,serif" font-size="14.00" fill="#000000">study_acronym</text>
<polyline fill="none" stroke="#000000" points="371.3424,-236.5 542.3424,-236.5 "/>
<text text-anchor="middle" x="456.8424" y="-221.3" font-family="Times,serif" font-size="14.00" fill="#000000">study_description</text>
<polyline fill="none" stroke="#000000" points="371.3424,-213.5 542.3424,-213.5 "/>
<text text-anchor="middle" x="456.8424" y="-198.3" font-family="Times,serif" font-size="14.00" fill="#000000">study_id</text>
<polyline fill="none" stroke="#000000" points="371.3424,-190.5 542.3424,-190.5 "/>
<text text-anchor="middle" x="456.8424" y="-175.3" font-family="Times,serif" font-size="14.00" fill="#000000">study_title</text>
<polyline fill="none" stroke="#000000" points="542.3424,-167.5 542.3424,-305.5 "/>
<text text-anchor="middle" x="552.8424" y="-232.8" font-family="Times,serif" font-size="14.00" fill="#000000"> </text>
</g>
<!-- clinical_measure&#45;&gt;study -->
<g id="edge14" class="edge">
<title>clinical_measure&#45;&gt;study</title>
<path fill="none" stroke="#000000" d="M252.4356,-673.6198C218.7057,-615.5888 142.0551,-462.0719 204.8424,-357 223.4769,-325.816 253.2666,-302.2304 285.1177,-284.58"/>
<polygon fill="#000000" stroke="#000000" points="286.9759,-287.5555 294.1484,-279.7577 283.6786,-281.3807 286.9759,-287.5555"/>
<text text-anchor="middle" x="235.3424" y="-434.3" font-family="Times,serif" font-size="14.00" fill="#000000">of_study</text>
</g>
<!-- study_subject -->
<g id="node12" class="node">
<title>study_subject</title>
<path fill="none" stroke="#000000" d="M287.3424,-357.5C287.3424,-357.5 570.3424,-357.5 570.3424,-357.5 576.3424,-357.5 582.3424,-363.5 582.3424,-369.5 582.3424,-369.5 582.3424,-506.5 582.3424,-506.5 582.3424,-512.5 576.3424,-518.5 570.3424,-518.5 570.3424,-518.5 287.3424,-518.5 287.3424,-518.5 281.3424,-518.5 275.3424,-512.5 275.3424,-506.5 275.3424,-506.5 275.3424,-369.5 275.3424,-369.5 275.3424,-363.5 281.3424,-357.5 287.3424,-357.5"/>
<text text-anchor="middle" x="333.3424" y="-434.3" font-family="Times,serif" font-size="14.00" fill="#000000">study_subject</text>
<polyline fill="none" stroke="#000000" points="391.3424,-357.5 391.3424,-518.5 "/>
<text text-anchor="middle" x="401.8424" y="-434.3" font-family="Times,serif" font-size="14.00" fill="#000000"> </text>
<polyline fill="none" stroke="#000000" points="412.3424,-357.5 412.3424,-518.5 "/>
<text text-anchor="middle" x="486.8424" y="-503.3" font-family="Times,serif" font-size="14.00" fill="#000000">age_at_enrollment</text>
<polyline fill="none" stroke="#000000" points="412.3424,-495.5 561.3424,-495.5 "/>
<text text-anchor="middle" x="486.8424" y="-480.3" font-family="Times,serif" font-size="14.00" fill="#000000">age_unit</text>
<polyline fill="none" stroke="#000000" points="412.3424,-472.5 561.3424,-472.5 "/>
<text text-anchor="middle" x="486.8424" y="-457.3" font-family="Times,serif" font-size="14.00" fill="#000000">ethnicity</text>
<polyline fill="none" stroke="#000000" points="412.3424,-449.5 561.3424,-449.5 "/>
<text text-anchor="middle" x="486.8424" y="-434.3" font-family="Times,serif" font-size="14.00" fill="#000000">gender</text>
<polyline fill="none" stroke="#000000" points="412.3424,-426.5 561.3424,-426.5 "/>
<text text-anchor="middle" x="486.8424" y="-411.3" font-family="Times,serif" font-size="14.00" fill="#000000">race</text>
<polyline fill="none" stroke="#000000" points="412.3424,-403.5 561.3424,-403.5 "/>
<text text-anchor="middle" x="486.8424" y="-388.3" font-family="Times,serif" font-size="14.00" fill="#000000">study_subject_id</text>
<polyline fill="none" stroke="#000000" points="412.3424,-380.5 561.3424,-380.5 "/>
<text text-anchor="middle" x="486.8424" y="-365.3" font-family="Times,serif" font-size="14.00" fill="#000000">vital_status</text>
<polyline fill="none" stroke="#000000" points="561.3424,-357.5 561.3424,-518.5 "/>
<text text-anchor="middle" x="571.8424" y="-434.3" font-family="Times,serif" font-size="14.00" fill="#000000"> </text>
</g>
<!-- clinical_measure&#45;&gt;study_subject -->
<g id="edge5" class="edge">
<title>clinical_measure&#45;&gt;study_subject</title>
<path fill="none" stroke="#000000" d="M277.0572,-673.9641C291.5446,-642.1556 319.6728,-583.4507 349.8424,-537 352.0039,-533.672 354.2533,-530.3212 356.5674,-526.9674"/>
<polygon fill="#000000" stroke="#000000" points="359.5394,-528.826 362.4397,-518.6359 353.8178,-524.7933 359.5394,-528.826"/>
<text text-anchor="middle" x="420.8424" y="-540.8" font-family="Times,serif" font-size="14.00" fill="#000000">from_study_subject</text>
</g>
<!-- file -->
<g id="node2" class="node">
<title>file</title>
<path fill="none" stroke="#000000" d="M410.3424,-875.5C410.3424,-875.5 601.3424,-875.5 601.3424,-875.5 607.3424,-875.5 613.3424,-881.5 613.3424,-887.5 613.3424,-887.5 613.3424,-1047.5 613.3424,-1047.5 613.3424,-1053.5 607.3424,-1059.5 601.3424,-1059.5 601.3424,-1059.5 410.3424,-1059.5 410.3424,-1059.5 404.3424,-1059.5 398.3424,-1053.5 398.3424,-1047.5 398.3424,-1047.5 398.3424,-887.5 398.3424,-887.5 398.3424,-881.5 404.3424,-875.5 410.3424,-875.5"/>
<text text-anchor="middle" x="417.8424" y="-963.8" font-family="Times,serif" font-size="14.00" fill="#000000">file</text>
<polyline fill="none" stroke="#000000" points="437.3424,-875.5 437.3424,-1059.5 "/>
<text text-anchor="middle" x="447.8424" y="-963.8" font-family="Times,serif" font-size="14.00" fill="#000000"> </text>
<polyline fill="none" stroke="#000000" points="458.3424,-875.5 458.3424,-1059.5 "/>
<text text-anchor="middle" x="525.3424" y="-1044.3" font-family="Times,serif" font-size="14.00" fill="#000000">cds_url</text>
<polyline fill="none" stroke="#000000" points="458.3424,-1036.5 592.3424,-1036.5 "/>
<text text-anchor="middle" x="525.3424" y="-1021.3" font-family="Times,serif" font-size="14.00" fill="#000000">dcf_indexd_guid</text>
<polyline fill="none" stroke="#000000" points="458.3424,-1013.5 592.3424,-1013.5 "/>
<text text-anchor="middle" x="525.3424" y="-998.3" font-family="Times,serif" font-size="14.00" fill="#000000">file_description</text>
<polyline fill="none" stroke="#000000" points="458.3424,-990.5 592.3424,-990.5 "/>
<text text-anchor="middle" x="525.3424" y="-975.3" font-family="Times,serif" font-size="14.00" fill="#000000">file_id</text>
<polyline fill="none" stroke="#000000" points="458.3424,-967.5 592.3424,-967.5 "/>
<text text-anchor="middle" x="525.3424" y="-952.3" font-family="Times,serif" font-size="14.00" fill="#000000">file_name</text>
<polyline fill="none" stroke="#000000" points="458.3424,-944.5 592.3424,-944.5 "/>
<text text-anchor="middle" x="525.3424" y="-929.3" font-family="Times,serif" font-size="14.00" fill="#000000">file_size</text>
<polyline fill="none" stroke="#000000" points="458.3424,-921.5 592.3424,-921.5 "/>
<text text-anchor="middle" x="525.3424" y="-906.3" font-family="Times,serif" font-size="14.00" fill="#000000">file_type</text>
<polyline fill="none" stroke="#000000" points="458.3424,-898.5 592.3424,-898.5 "/>
<text text-anchor="middle" x="525.3424" y="-883.3" font-family="Times,serif" font-size="14.00" fill="#000000">md5sum</text>
<polyline fill="none" stroke="#000000" points="592.3424,-875.5 592.3424,-1059.5 "/>
<text text-anchor="middle" x="602.8424" y="-963.8" font-family="Times,serif" font-size="14.00" fill="#000000"> </text>
</g>
<!-- file&#45;&gt;clinical_measure -->
<g id="edge4" class="edge">
<title>file&#45;&gt;clinical_measure</title>
<path fill="none" stroke="#000000" d="M398.1629,-901.6088C380.7795,-888.1661 363.9018,-873.1431 349.8424,-857 316.3595,-818.5548 291.8783,-764.2421 278.5022,-729.8284"/>
<polygon fill="#000000" stroke="#000000" points="281.6886,-728.3603 274.8676,-720.2533 275.1442,-730.8445 281.6886,-728.3603"/>
<text text-anchor="middle" x="420.8424" y="-845.8" font-family="Times,serif" font-size="14.00" fill="#000000">of_clinical_measure</text>
</g>
<!-- file&#45;&gt;study -->
<g id="edge15" class="edge">
<title>file&#45;&gt;study</title>
<path fill="none" stroke="#000000" d="M398.1159,-948.2514C278.1617,-924.3679 95.7028,-879.88 54.8424,-824 -71.8459,-650.7434 43.506,-524.3962 177.8424,-357 205.4189,-322.637 245.1784,-297.4678 284.9493,-279.3019"/>
<polygon fill="#000000" stroke="#000000" points="286.5147,-282.4364 294.2375,-275.1832 283.6772,-276.0373 286.5147,-282.4364"/>
<text text-anchor="middle" x="73.3424" y="-540.8" font-family="Times,serif" font-size="14.00" fill="#000000">of_study</text>
</g>
<!-- experiment -->
<g id="node5" class="node">
<title>experiment</title>
<path fill="none" stroke="#000000" d="M925.8424,-415C925.8424,-415 1193.8424,-415 1193.8424,-415 1199.8424,-415 1205.8424,-421 1205.8424,-427 1205.8424,-427 1205.8424,-449 1205.8424,-449 1205.8424,-455 1199.8424,-461 1193.8424,-461 1193.8424,-461 925.8424,-461 925.8424,-461 919.8424,-461 913.8424,-455 913.8424,-449 913.8424,-449 913.8424,-427 913.8424,-427 913.8424,-421 919.8424,-415 925.8424,-415"/>
<text text-anchor="middle" x="962.8424" y="-434.3" font-family="Times,serif" font-size="14.00" fill="#000000">experiment</text>
<polyline fill="none" stroke="#000000" points="1011.8424,-415 1011.8424,-461 "/>
<text text-anchor="middle" x="1022.3424" y="-434.3" font-family="Times,serif" font-size="14.00" fill="#000000"> </text>
<polyline fill="none" stroke="#000000" points="1032.8424,-415 1032.8424,-461 "/>
<text text-anchor="middle" x="1108.8424" y="-445.8" font-family="Times,serif" font-size="14.00" fill="#000000">design_description</text>
<polyline fill="none" stroke="#000000" points="1032.8424,-438 1184.8424,-438 "/>
<text text-anchor="middle" x="1108.8424" y="-422.8" font-family="Times,serif" font-size="14.00" fill="#000000">experiment_id</text>
<polyline fill="none" stroke="#000000" points="1184.8424,-415 1184.8424,-461 "/>
<text text-anchor="middle" x="1195.3424" y="-434.3" font-family="Times,serif" font-size="14.00" fill="#000000"> </text>
</g>
<!-- file&#45;&gt;experiment -->
<g id="edge10" class="edge">
<title>file&#45;&gt;experiment</title>
<path fill="none" stroke="#000000" d="M613.4433,-952.9782C751.6362,-931.9497 980.0073,-888.3579 1032.8424,-824 1117.7541,-720.5699 1086.8684,-544.3834 1068.9839,-471.2961"/>
<polygon fill="#000000" stroke="#000000" points="1072.297,-470.1203 1066.4549,-461.2817 1065.51,-471.8343 1072.297,-470.1203"/>
<text text-anchor="middle" x="1140.3424" y="-693.3" font-family="Times,serif" font-size="14.00" fill="#000000">of_experiment</text>
</g>
<!-- sample -->
<g id="node8" class="node">
<title>sample</title>
<path fill="none" stroke="#000000" d="M677.8424,-570.5C677.8424,-570.5 1011.8424,-570.5 1011.8424,-570.5 1017.8424,-570.5 1023.8424,-576.5 1023.8424,-582.5 1023.8424,-582.5 1023.8424,-811.5 1023.8424,-811.5 1023.8424,-817.5 1017.8424,-823.5 1011.8424,-823.5 1011.8424,-823.5 677.8424,-823.5 677.8424,-823.5 671.8424,-823.5 665.8424,-817.5 665.8424,-811.5 665.8424,-811.5 665.8424,-582.5 665.8424,-582.5 665.8424,-576.5 671.8424,-570.5 677.8424,-570.5"/>
<text text-anchor="middle" x="699.8424" y="-693.3" font-family="Times,serif" font-size="14.00" fill="#000000">sample</text>
<polyline fill="none" stroke="#000000" points="733.8424,-570.5 733.8424,-823.5 "/>
<text text-anchor="middle" x="744.3424" y="-693.3" font-family="Times,serif" font-size="14.00" fill="#000000"> </text>
<polyline fill="none" stroke="#000000" points="754.8424,-570.5 754.8424,-823.5 "/>
<text text-anchor="middle" x="878.8424" y="-808.3" font-family="Times,serif" font-size="14.00" fill="#000000">anatomic_site</text>
<polyline fill="none" stroke="#000000" points="754.8424,-800.5 1002.8424,-800.5 "/>
<text text-anchor="middle" x="878.8424" y="-785.3" font-family="Times,serif" font-size="14.00" fill="#000000">dbgap_sample_id</text>
<polyline fill="none" stroke="#000000" points="754.8424,-777.5 1002.8424,-777.5 "/>
<text text-anchor="middle" x="878.8424" y="-762.3" font-family="Times,serif" font-size="14.00" fill="#000000">disease_type</text>
<polyline fill="none" stroke="#000000" points="754.8424,-754.5 1002.8424,-754.5 "/>
<text text-anchor="middle" x="878.8424" y="-739.3" font-family="Times,serif" font-size="14.00" fill="#000000">sample_id</text>
<polyline fill="none" stroke="#000000" points="754.8424,-731.5 1002.8424,-731.5 "/>
<text text-anchor="middle" x="878.8424" y="-716.3" font-family="Times,serif" font-size="14.00" fill="#000000">sample_type</text>
<polyline fill="none" stroke="#000000" points="754.8424,-708.5 1002.8424,-708.5 "/>
<text text-anchor="middle" x="878.8424" y="-693.3" font-family="Times,serif" font-size="14.00" fill="#000000">study_subject_age_at_collection</text>
<polyline fill="none" stroke="#000000" points="754.8424,-685.5 1002.8424,-685.5 "/>
<text text-anchor="middle" x="878.8424" y="-670.3" font-family="Times,serif" font-size="14.00" fill="#000000">tumor_grade</text>
<polyline fill="none" stroke="#000000" points="754.8424,-662.5 1002.8424,-662.5 "/>
<text text-anchor="middle" x="878.8424" y="-647.3" font-family="Times,serif" font-size="14.00" fill="#000000">tumor_incidence_type</text>
<polyline fill="none" stroke="#000000" points="754.8424,-639.5 1002.8424,-639.5 "/>
<text text-anchor="middle" x="878.8424" y="-624.3" font-family="Times,serif" font-size="14.00" fill="#000000">tumor_morphology</text>
<polyline fill="none" stroke="#000000" points="754.8424,-616.5 1002.8424,-616.5 "/>
<text text-anchor="middle" x="878.8424" y="-601.3" font-family="Times,serif" font-size="14.00" fill="#000000">tumor_stage</text>
<polyline fill="none" stroke="#000000" points="754.8424,-593.5 1002.8424,-593.5 "/>
<text text-anchor="middle" x="878.8424" y="-578.3" font-family="Times,serif" font-size="14.00" fill="#000000">tumor_status</text>
<polyline fill="none" stroke="#000000" points="1002.8424,-570.5 1002.8424,-823.5 "/>
<text text-anchor="middle" x="1013.3424" y="-693.3" font-family="Times,serif" font-size="14.00" fill="#000000"> </text>
</g>
<!-- file&#45;&gt;sample -->
<g id="edge1" class="edge">
<title>file&#45;&gt;sample</title>
<path fill="none" stroke="#000000" d="M613.5699,-881.5404C634.1177,-865.1447 656.0685,-847.6294 677.961,-830.1605"/>
<polygon fill="#000000" stroke="#000000" points="680.3878,-832.7018 686.0214,-823.7289 676.0218,-827.2302 680.3878,-832.7018"/>
<text text-anchor="middle" x="701.3424" y="-845.8" font-family="Times,serif" font-size="14.00" fill="#000000">from_sample</text>
</g>
<!-- file&#45;&gt;study_subject -->
<g id="edge6" class="edge">
<title>file&#45;&gt;study_subject</title>
<path fill="none" stroke="#000000" d="M508.5065,-875.4252C510.6211,-768.1447 510.6308,-597.8198 491.8424,-537 490.925,-534.0301 489.8931,-531.0625 488.7636,-528.1076"/>
<polygon fill="#000000" stroke="#000000" points="491.9291,-526.6048 484.8456,-518.726 485.4698,-529.3025 491.9291,-526.6048"/>
<text text-anchor="middle" x="580.8424" y="-693.3" font-family="Times,serif" font-size="14.00" fill="#000000">from_study_subject</text>
</g>
<!-- study_funding -->
<g id="node6" class="node">
<title>study_funding</title>
<path fill="none" stroke="#000000" d="M131.3424,-35C131.3424,-35 398.3424,-35 398.3424,-35 404.3424,-35 410.3424,-41 410.3424,-47 410.3424,-47 410.3424,-69 410.3424,-69 410.3424,-75 404.3424,-81 398.3424,-81 398.3424,-81 131.3424,-81 131.3424,-81 125.3424,-81 119.3424,-75 119.3424,-69 119.3424,-69 119.3424,-47 119.3424,-47 119.3424,-41 125.3424,-35 131.3424,-35"/>
<text text-anchor="middle" x="178.8424" y="-54.3" font-family="Times,serif" font-size="14.00" fill="#000000">study_funding</text>
<polyline fill="none" stroke="#000000" points="238.3424,-35 238.3424,-81 "/>
<text text-anchor="middle" x="248.8424" y="-54.3" font-family="Times,serif" font-size="14.00" fill="#000000"> </text>
<polyline fill="none" stroke="#000000" points="259.3424,-35 259.3424,-81 "/>
<text text-anchor="middle" x="324.3424" y="-65.8" font-family="Times,serif" font-size="14.00" fill="#000000">funding_agency</text>
<polyline fill="none" stroke="#000000" points="259.3424,-58 389.3424,-58 "/>
<text text-anchor="middle" x="324.3424" y="-42.8" font-family="Times,serif" font-size="14.00" fill="#000000">funding_id</text>
<polyline fill="none" stroke="#000000" points="389.3424,-35 389.3424,-81 "/>
<text text-anchor="middle" x="399.8424" y="-54.3" font-family="Times,serif" font-size="14.00" fill="#000000"> </text>
</g>
<!-- study&#45;&gt;study_funding -->
<g id="edge3" class="edge">
<title>study&#45;&gt;study_funding</title>
<path fill="none" stroke="#000000" d="M365.4357,-167.4872C340.3892,-140.2263 312.8997,-110.3062 292.9963,-88.6431"/>
<polygon fill="#000000" stroke="#000000" points="295.3684,-86.0516 286.0253,-81.0558 290.2137,-90.7876 295.3684,-86.0516"/>
<text text-anchor="middle" x="422.3424" y="-137.8" font-family="Times,serif" font-size="14.00" fill="#000000">from_study__funding</text>
</g>
<!-- study_personnel -->
<g id="node10" class="node">
<title>study_personnel</title>
<path fill="none" stroke="#000000" d="M440.3424,-.5C440.3424,-.5 747.3424,-.5 747.3424,-.5 753.3424,-.5 759.3424,-6.5 759.3424,-12.5 759.3424,-12.5 759.3424,-103.5 759.3424,-103.5 759.3424,-109.5 753.3424,-115.5 747.3424,-115.5 747.3424,-115.5 440.3424,-115.5 440.3424,-115.5 434.3424,-115.5 428.3424,-109.5 428.3424,-103.5 428.3424,-103.5 428.3424,-12.5 428.3424,-12.5 428.3424,-6.5 434.3424,-.5 440.3424,-.5"/>
<text text-anchor="middle" x="495.3424" y="-54.3" font-family="Times,serif" font-size="14.00" fill="#000000">study_personnel</text>
<polyline fill="none" stroke="#000000" points="562.3424,-.5 562.3424,-115.5 "/>
<text text-anchor="middle" x="572.8424" y="-54.3" font-family="Times,serif" font-size="14.00" fill="#000000"> </text>
<polyline fill="none" stroke="#000000" points="583.3424,-.5 583.3424,-115.5 "/>
<text text-anchor="middle" x="660.8424" y="-100.3" font-family="Times,serif" font-size="14.00" fill="#000000">email_address</text>
<polyline fill="none" stroke="#000000" points="583.3424,-92.5 738.3424,-92.5 "/>
<text text-anchor="middle" x="660.8424" y="-77.3" font-family="Times,serif" font-size="14.00" fill="#000000">institution</text>
<polyline fill="none" stroke="#000000" points="583.3424,-69.5 738.3424,-69.5 "/>
<text text-anchor="middle" x="660.8424" y="-54.3" font-family="Times,serif" font-size="14.00" fill="#000000">personnel_name</text>
<polyline fill="none" stroke="#000000" points="583.3424,-46.5 738.3424,-46.5 "/>
<text text-anchor="middle" x="660.8424" y="-31.3" font-family="Times,serif" font-size="14.00" fill="#000000">personnel_type</text>
<polyline fill="none" stroke="#000000" points="583.3424,-23.5 738.3424,-23.5 "/>
<text text-anchor="middle" x="660.8424" y="-8.3" font-family="Times,serif" font-size="14.00" fill="#000000">study_personnel_id</text>
<polyline fill="none" stroke="#000000" points="738.3424,-.5 738.3424,-115.5 "/>
<text text-anchor="middle" x="748.8424" y="-54.3" font-family="Times,serif" font-size="14.00" fill="#000000"> </text>
</g>
<!-- study&#45;&gt;study_personnel -->
<g id="edge7" class="edge">
<title>study&#45;&gt;study_personnel</title>
<path fill="none" stroke="#000000" d="M492.6357,-167.4872C506.15,-152.8673 520.3712,-137.4825 533.7429,-123.0167"/>
<polygon fill="#000000" stroke="#000000" points="536.432,-125.2638 540.6498,-115.5447 531.2917,-120.5123 536.432,-125.2638"/>
<text text-anchor="middle" x="601.8424" y="-137.8" font-family="Times,serif" font-size="14.00" fill="#000000">from_study_personnel</text>
</g>
<!-- alias -->
<g id="node4" class="node">
<title>alias</title>
<path fill="none" stroke="#000000" d="M932.3424,-1180.5C932.3424,-1180.5 1137.3424,-1180.5 1137.3424,-1180.5 1143.3424,-1180.5 1149.3424,-1186.5 1149.3424,-1192.5 1149.3424,-1192.5 1149.3424,-1260.5 1149.3424,-1260.5 1149.3424,-1266.5 1143.3424,-1272.5 1137.3424,-1272.5 1137.3424,-1272.5 932.3424,-1272.5 932.3424,-1272.5 926.3424,-1272.5 920.3424,-1266.5 920.3424,-1260.5 920.3424,-1260.5 920.3424,-1192.5 920.3424,-1192.5 920.3424,-1186.5 926.3424,-1180.5 932.3424,-1180.5"/>
<text text-anchor="middle" x="945.3424" y="-1222.8" font-family="Times,serif" font-size="14.00" fill="#000000">alias</text>
<polyline fill="none" stroke="#000000" points="970.3424,-1180.5 970.3424,-1272.5 "/>
<text text-anchor="middle" x="980.8424" y="-1222.8" font-family="Times,serif" font-size="14.00" fill="#000000"> </text>
<polyline fill="none" stroke="#000000" points="991.3424,-1180.5 991.3424,-1272.5 "/>
<text text-anchor="middle" x="1059.8424" y="-1257.3" font-family="Times,serif" font-size="14.00" fill="#000000">cds_id</text>
<polyline fill="none" stroke="#000000" points="991.3424,-1249.5 1128.3424,-1249.5 "/>
<text text-anchor="middle" x="1059.8424" y="-1234.3" font-family="Times,serif" font-size="14.00" fill="#000000">cds_node</text>
<polyline fill="none" stroke="#000000" points="991.3424,-1226.5 1128.3424,-1226.5 "/>
<text text-anchor="middle" x="1059.8424" y="-1211.3" font-family="Times,serif" font-size="14.00" fill="#000000">repository_id</text>
<polyline fill="none" stroke="#000000" points="991.3424,-1203.5 1128.3424,-1203.5 "/>
<text text-anchor="middle" x="1059.8424" y="-1188.3" font-family="Times,serif" font-size="14.00" fill="#000000">repository_name</text>
<polyline fill="none" stroke="#000000" points="1128.3424,-1180.5 1128.3424,-1272.5 "/>
<text text-anchor="middle" x="1138.8424" y="-1222.8" font-family="Times,serif" font-size="14.00" fill="#000000"> </text>
</g>
<!-- experiment&#45;&gt;study -->
<g id="edge12" class="edge">
<title>experiment&#45;&gt;study</title>
<path fill="none" stroke="#000000" d="M1021.8355,-414.928C991.1521,-397.1002 946.3974,-372.867 904.8424,-357 796.6795,-315.7001 669.3049,-284.3052 573.5487,-263.9301"/>
<polygon fill="#000000" stroke="#000000" points="574.011,-260.4506 563.5035,-261.8084 572.5643,-267.2995 574.011,-260.4506"/>
<text text-anchor="middle" x="884.3424" y="-327.8" font-family="Times,serif" font-size="14.00" fill="#000000">of_study</text>
</g>
<!-- imaging_detail -->
<g id="node7" class="node">
<title>imaging_detail</title>
<path fill="none" stroke="#000000" d="M172.3424,-1169C172.3424,-1169 459.3424,-1169 459.3424,-1169 465.3424,-1169 471.3424,-1175 471.3424,-1181 471.3424,-1181 471.3424,-1272 471.3424,-1272 471.3424,-1278 465.3424,-1284 459.3424,-1284 459.3424,-1284 172.3424,-1284 172.3424,-1284 166.3424,-1284 160.3424,-1278 160.3424,-1272 160.3424,-1272 160.3424,-1181 160.3424,-1181 160.3424,-1175 166.3424,-1169 172.3424,-1169"/>
<text text-anchor="middle" x="221.3424" y="-1222.8" font-family="Times,serif" font-size="14.00" fill="#000000">imaging_detail</text>
<polyline fill="none" stroke="#000000" points="282.3424,-1169 282.3424,-1284 "/>
<text text-anchor="middle" x="292.8424" y="-1222.8" font-family="Times,serif" font-size="14.00" fill="#000000"> </text>
<polyline fill="none" stroke="#000000" points="303.3424,-1169 303.3424,-1284 "/>
<text text-anchor="middle" x="376.8424" y="-1268.8" font-family="Times,serif" font-size="14.00" fill="#000000">image_modality</text>
<polyline fill="none" stroke="#000000" points="303.3424,-1261 450.3424,-1261 "/>
<text text-anchor="middle" x="376.8424" y="-1245.8" font-family="Times,serif" font-size="14.00" fill="#000000">imaging_detail_id</text>
<polyline fill="none" stroke="#000000" points="303.3424,-1238 450.3424,-1238 "/>
<text text-anchor="middle" x="376.8424" y="-1222.8" font-family="Times,serif" font-size="14.00" fill="#000000">instrument_model</text>
<polyline fill="none" stroke="#000000" points="303.3424,-1215 450.3424,-1215 "/>
<text text-anchor="middle" x="376.8424" y="-1199.8" font-family="Times,serif" font-size="14.00" fill="#000000">platform</text>
<polyline fill="none" stroke="#000000" points="303.3424,-1192 450.3424,-1192 "/>
<text text-anchor="middle" x="376.8424" y="-1176.8" font-family="Times,serif" font-size="14.00" fill="#000000">software_package</text>
<polyline fill="none" stroke="#000000" points="450.3424,-1169 450.3424,-1284 "/>
<text text-anchor="middle" x="460.8424" y="-1222.8" font-family="Times,serif" font-size="14.00" fill="#000000"> </text>
</g>
<!-- imaging_detail&#45;&gt;file -->
<g id="edge8" class="edge">
<title>imaging_detail&#45;&gt;file</title>
<path fill="none" stroke="#000000" d="M358.2457,-1168.6977C380.0149,-1139.0227 407.1648,-1102.0132 432.2218,-1067.8566"/>
<polygon fill="#000000" stroke="#000000" points="435.111,-1069.8353 438.2039,-1059.7019 429.4668,-1065.6948 435.111,-1069.8353"/>
<text text-anchor="middle" x="444.8424" y="-1081.8" font-family="Times,serif" font-size="14.00" fill="#000000">of_file</text>
</g>
<!-- sample&#45;&gt;experiment -->
<g id="edge11" class="edge">
<title>sample&#45;&gt;experiment</title>
<path fill="none" stroke="#000000" d="M917.1201,-570.275C925.3116,-558.667 933.9345,-547.3837 942.8424,-537 965.3143,-510.8053 995.05,-485.7401 1018.92,-467.3843"/>
<polygon fill="#000000" stroke="#000000" points="1021.2457,-470.0132 1027.0969,-461.1806 1017.0147,-464.4365 1021.2457,-470.0132"/>
<text text-anchor="middle" x="994.3424" y="-540.8" font-family="Times,serif" font-size="14.00" fill="#000000">of_experiment</text>
</g>
<!-- sample&#45;&gt;study_subject -->
<g id="edge2" class="edge">
<title>sample&#45;&gt;study_subject</title>
<path fill="none" stroke="#000000" d="M665.7598,-578.7433C661.0805,-575.7871 656.4353,-572.8682 651.8424,-570 627.5007,-554.7989 601.444,-538.9775 576.0382,-523.7889"/>
<polygon fill="#000000" stroke="#000000" points="577.8315,-520.7832 567.4507,-518.6641 574.2442,-526.7942 577.8315,-520.7832"/>
<text text-anchor="middle" x="682.3424" y="-540.8" font-family="Times,serif" font-size="14.00" fill="#000000">of_study_subject</text>
</g>
<!-- study_admin -->
<g id="node9" class="node">
<title>study_admin</title>
<path fill="none" stroke="#000000" d="M612.3424,-369C612.3424,-369 883.3424,-369 883.3424,-369 889.3424,-369 895.3424,-375 895.3424,-381 895.3424,-381 895.3424,-495 895.3424,-495 895.3424,-501 889.3424,-507 883.3424,-507 883.3424,-507 612.3424,-507 612.3424,-507 606.3424,-507 600.3424,-501 600.3424,-495 600.3424,-495 600.3424,-381 600.3424,-381 600.3424,-375 606.3424,-369 612.3424,-369"/>
<text text-anchor="middle" x="654.3424" y="-434.3" font-family="Times,serif" font-size="14.00" fill="#000000">study_admin</text>
<polyline fill="none" stroke="#000000" points="708.3424,-369 708.3424,-507 "/>
<text text-anchor="middle" x="718.8424" y="-434.3" font-family="Times,serif" font-size="14.00" fill="#000000"> </text>
<polyline fill="none" stroke="#000000" points="729.3424,-369 729.3424,-507 "/>
<text text-anchor="middle" x="801.8424" y="-491.8" font-family="Times,serif" font-size="14.00" fill="#000000">data_access_level</text>
<polyline fill="none" stroke="#000000" points="729.3424,-484 874.3424,-484 "/>
<text text-anchor="middle" x="801.8424" y="-468.8" font-family="Times,serif" font-size="14.00" fill="#000000">data_types</text>
<polyline fill="none" stroke="#000000" points="729.3424,-461 874.3424,-461 "/>
<text text-anchor="middle" x="801.8424" y="-445.8" font-family="Times,serif" font-size="14.00" fill="#000000">file_types</text>
<polyline fill="none" stroke="#000000" points="729.3424,-438 874.3424,-438 "/>
<text text-anchor="middle" x="801.8424" y="-422.8" font-family="Times,serif" font-size="14.00" fill="#000000">species</text>
<polyline fill="none" stroke="#000000" points="729.3424,-415 874.3424,-415 "/>
<text text-anchor="middle" x="801.8424" y="-399.8" font-family="Times,serif" font-size="14.00" fill="#000000">study_admin_id</text>
<polyline fill="none" stroke="#000000" points="729.3424,-392 874.3424,-392 "/>
<text text-anchor="middle" x="801.8424" y="-376.8" font-family="Times,serif" font-size="14.00" fill="#000000">study_type</text>
<polyline fill="none" stroke="#000000" points="874.3424,-369 874.3424,-507 "/>
<text text-anchor="middle" x="884.8424" y="-434.3" font-family="Times,serif" font-size="14.00" fill="#000000"> </text>
</g>
<!-- study_admin&#45;&gt;study -->
<g id="edge16" class="edge">
<title>study_admin&#45;&gt;study</title>
<path fill="none" stroke="#000000" d="M638.507,-368.937C609.0411,-350.3246 577.0322,-330.1058 547.1033,-311.2008"/>
<polygon fill="#000000" stroke="#000000" points="548.6292,-308.025 538.3055,-305.6436 544.8909,-313.9432 548.6292,-308.025"/>
<text text-anchor="middle" x="619.3424" y="-327.8" font-family="Times,serif" font-size="14.00" fill="#000000">of_study</text>
</g>
<!-- sequencing_detail -->
<g id="node11" class="node">
<title>sequencing_detail</title>
<path fill="none" stroke="#000000" d="M501.8424,-1111.5C501.8424,-1111.5 889.8424,-1111.5 889.8424,-1111.5 895.8424,-1111.5 901.8424,-1117.5 901.8424,-1123.5 901.8424,-1123.5 901.8424,-1329.5 901.8424,-1329.5 901.8424,-1335.5 895.8424,-1341.5 889.8424,-1341.5 889.8424,-1341.5 501.8424,-1341.5 501.8424,-1341.5 495.8424,-1341.5 489.8424,-1335.5 489.8424,-1329.5 489.8424,-1329.5 489.8424,-1123.5 489.8424,-1123.5 489.8424,-1117.5 495.8424,-1111.5 501.8424,-1111.5"/>
<text text-anchor="middle" x="562.8424" y="-1222.8" font-family="Times,serif" font-size="14.00" fill="#000000">sequencing_detail</text>
<polyline fill="none" stroke="#000000" points="635.8424,-1111.5 635.8424,-1341.5 "/>
<text text-anchor="middle" x="646.3424" y="-1222.8" font-family="Times,serif" font-size="14.00" fill="#000000"> </text>
<polyline fill="none" stroke="#000000" points="656.8424,-1111.5 656.8424,-1341.5 "/>
<text text-anchor="middle" x="768.8424" y="-1326.3" font-family="Times,serif" font-size="14.00" fill="#000000">average_read_length</text>
<polyline fill="none" stroke="#000000" points="656.8424,-1318.5 880.8424,-1318.5 "/>
<text text-anchor="middle" x="768.8424" y="-1303.3" font-family="Times,serif" font-size="14.00" fill="#000000">coverage</text>
<polyline fill="none" stroke="#000000" points="656.8424,-1295.5 880.8424,-1295.5 "/>
<text text-anchor="middle" x="768.8424" y="-1280.3" font-family="Times,serif" font-size="14.00" fill="#000000">genomic_detail_id</text>
<polyline fill="none" stroke="#000000" points="656.8424,-1272.5 880.8424,-1272.5 "/>
<text text-anchor="middle" x="768.8424" y="-1257.3" font-family="Times,serif" font-size="14.00" fill="#000000">library_id</text>
<polyline fill="none" stroke="#000000" points="656.8424,-1249.5 880.8424,-1249.5 "/>
<text text-anchor="middle" x="768.8424" y="-1234.3" font-family="Times,serif" font-size="14.00" fill="#000000">library_layout</text>
<polyline fill="none" stroke="#000000" points="656.8424,-1226.5 880.8424,-1226.5 "/>
<text text-anchor="middle" x="768.8424" y="-1211.3" font-family="Times,serif" font-size="14.00" fill="#000000">library_source</text>
<polyline fill="none" stroke="#000000" points="656.8424,-1203.5 880.8424,-1203.5 "/>
<text text-anchor="middle" x="768.8424" y="-1188.3" font-family="Times,serif" font-size="14.00" fill="#000000">library_strategy</text>
<polyline fill="none" stroke="#000000" points="656.8424,-1180.5 880.8424,-1180.5 "/>
<text text-anchor="middle" x="768.8424" y="-1165.3" font-family="Times,serif" font-size="14.00" fill="#000000">number_of_bp</text>
<polyline fill="none" stroke="#000000" points="656.8424,-1157.5 880.8424,-1157.5 "/>
<text text-anchor="middle" x="768.8424" y="-1142.3" font-family="Times,serif" font-size="14.00" fill="#000000">number_of_reads</text>
<polyline fill="none" stroke="#000000" points="656.8424,-1134.5 880.8424,-1134.5 "/>
<text text-anchor="middle" x="768.8424" y="-1119.3" font-family="Times,serif" font-size="14.00" fill="#000000">reference_genome_assembly</text>
<polyline fill="none" stroke="#000000" points="880.8424,-1111.5 880.8424,-1341.5 "/>
<text text-anchor="middle" x="891.3424" y="-1222.8" font-family="Times,serif" font-size="14.00" fill="#000000"> </text>
</g>
<!-- sequencing_detail&#45;&gt;file -->
<g id="edge9" class="edge">
<title>sequencing_detail&#45;&gt;file</title>
<path fill="none" stroke="#000000" d="M611.3992,-1111.3905C600.7944,-1096.9345 590.012,-1082.2364 579.5893,-1068.0286"/>
<polygon fill="#000000" stroke="#000000" points="582.2353,-1065.7183 573.4982,-1059.7255 576.5911,-1069.8588 582.2353,-1065.7183"/>
<text text-anchor="middle" x="617.8424" y="-1081.8" font-family="Times,serif" font-size="14.00" fill="#000000">of_file</text>
</g>
<!-- study_subject&#45;&gt;study -->
<g id="edge13" class="edge">
<title>study_subject&#45;&gt;study</title>
<path fill="none" stroke="#000000" d="M428.8424,-357.4932C428.8424,-343.7786 428.8424,-329.5421 428.8424,-315.8576"/>
<polygon fill="#000000" stroke="#000000" points="432.3425,-315.5183 428.8424,-305.5184 425.3425,-315.5184 432.3425,-315.5183"/>
<text text-anchor="middle" x="459.3424" y="-327.8" font-family="Times,serif" font-size="14.00" fill="#000000">of_study</text>
</g>
</g>
</svg>
