<?xml version="1.0" encoding="UTF-8" standalone="no"?>
<!DOCTYPE svg PUBLIC "-//W3C//DTD SVG 1.1//EN"
 "http://www.w3.org/Graphics/SVG/1.1/DTD/svg11.dtd">
<!-- Generated by graphviz version 2.48.0 (20210717.1556)
 -->
<!-- Title: Perl Pages: 1 -->
<svg width="1791pt" height="1327pt"
 viewBox="0.00 0.00 1790.50 1327.00" xmlns="http://www.w3.org/2000/svg" xmlns:xlink="http://www.w3.org/1999/xlink">
<g id="graph0" class="graph" transform="scale(1 1) rotate(0) translate(4 1323)">
<title>Perl</title>
<polygon fill="white" stroke="transparent" points="-4,4 -4,-1323 1786.5,-1323 1786.5,4 -4,4"/>
<!-- imaging_detail -->
<g id="node1" class="node">
<title>imaging_detail</title>
<path fill="none" stroke="black" d="M372.5,-1157.5C372.5,-1157.5 611.5,-1157.5 611.5,-1157.5 617.5,-1157.5 623.5,-1163.5 623.5,-1169.5 623.5,-1169.5 623.5,-1260.5 623.5,-1260.5 623.5,-1266.5 617.5,-1272.5 611.5,-1272.5 611.5,-1272.5 372.5,-1272.5 372.5,-1272.5 366.5,-1272.5 360.5,-1266.5 360.5,-1260.5 360.5,-1260.5 360.5,-1169.5 360.5,-1169.5 360.5,-1163.5 366.5,-1157.5 372.5,-1157.5"/>
<text text-anchor="middle" x="410.5" y="-1211.3" font-family="Times,serif" font-size="14.00">imaging_detail</text>
<polyline fill="none" stroke="black" points="460.5,-1157.5 460.5,-1272.5 "/>
<text text-anchor="middle" x="470.5" y="-1211.3" font-family="Times,serif" font-size="14.00"> </text>
<polyline fill="none" stroke="black" points="480.5,-1157.5 480.5,-1272.5 "/>
<text text-anchor="middle" x="542" y="-1257.3" font-family="Times,serif" font-size="14.00">image_id</text>
<polyline fill="none" stroke="black" points="480.5,-1249.5 603.5,-1249.5 "/>
<text text-anchor="middle" x="542" y="-1234.3" font-family="Times,serif" font-size="14.00">image_modality</text>
<polyline fill="none" stroke="black" points="480.5,-1226.5 603.5,-1226.5 "/>
<text text-anchor="middle" x="542" y="-1211.3" font-family="Times,serif" font-size="14.00">instrument_model</text>
<polyline fill="none" stroke="black" points="480.5,-1203.5 603.5,-1203.5 "/>
<text text-anchor="middle" x="542" y="-1188.3" font-family="Times,serif" font-size="14.00">platform</text>
<polyline fill="none" stroke="black" points="480.5,-1180.5 603.5,-1180.5 "/>
<text text-anchor="middle" x="542" y="-1165.3" font-family="Times,serif" font-size="14.00">software_packages</text>
<polyline fill="none" stroke="black" points="603.5,-1157.5 603.5,-1272.5 "/>
<text text-anchor="middle" x="613.5" y="-1211.3" font-family="Times,serif" font-size="14.00"> </text>
</g>
<!-- file -->
<g id="node4" class="node">
<title>file</title>
<path fill="none" stroke="black" d="M390,-898.5C390,-898.5 544,-898.5 544,-898.5 550,-898.5 556,-904.5 556,-910.5 556,-910.5 556,-1047.5 556,-1047.5 556,-1053.5 550,-1059.5 544,-1059.5 544,-1059.5 390,-1059.5 390,-1059.5 384,-1059.5 378,-1053.5 378,-1047.5 378,-1047.5 378,-910.5 378,-910.5 378,-904.5 384,-898.5 390,-898.5"/>
<text text-anchor="middle" x="395" y="-975.3" font-family="Times,serif" font-size="14.00">file</text>
<polyline fill="none" stroke="black" points="412,-898.5 412,-1059.5 "/>
<text text-anchor="middle" x="422" y="-975.3" font-family="Times,serif" font-size="14.00"> </text>
<polyline fill="none" stroke="black" points="432,-898.5 432,-1059.5 "/>
<text text-anchor="middle" x="484" y="-1044.3" font-family="Times,serif" font-size="14.00">cds_url</text>
<polyline fill="none" stroke="black" points="432,-1036.5 536,-1036.5 "/>
<text text-anchor="middle" x="484" y="-1021.3" font-family="Times,serif" font-size="14.00">file_description</text>
<polyline fill="none" stroke="black" points="432,-1013.5 536,-1013.5 "/>
<text text-anchor="middle" x="484" y="-998.3" font-family="Times,serif" font-size="14.00">file_id</text>
<polyline fill="none" stroke="black" points="432,-990.5 536,-990.5 "/>
<text text-anchor="middle" x="484" y="-975.3" font-family="Times,serif" font-size="14.00">file_name</text>
<polyline fill="none" stroke="black" points="432,-967.5 536,-967.5 "/>
<text text-anchor="middle" x="484" y="-952.3" font-family="Times,serif" font-size="14.00">file_size</text>
<polyline fill="none" stroke="black" points="432,-944.5 536,-944.5 "/>
<text text-anchor="middle" x="484" y="-929.3" font-family="Times,serif" font-size="14.00">file_type</text>
<polyline fill="none" stroke="black" points="432,-921.5 536,-921.5 "/>
<text text-anchor="middle" x="484" y="-906.3" font-family="Times,serif" font-size="14.00">md5sum</text>
<polyline fill="none" stroke="black" points="536,-898.5 536,-1059.5 "/>
<text text-anchor="middle" x="546" y="-975.3" font-family="Times,serif" font-size="14.00"> </text>
</g>
<!-- imaging_detail&#45;&gt;file -->
<g id="edge16" class="edge">
<title>imaging_detail&#45;&gt;file</title>
<path fill="none" stroke="black" d="M485.95,-1157.36C483.14,-1131.1 479.74,-1099.26 476.6,-1069.84"/>
<polygon fill="black" stroke="black" points="480.04,-1069.12 475.5,-1059.55 473.08,-1069.87 480.04,-1069.12"/>
<text text-anchor="middle" x="496.5" y="-1081.8" font-family="Times,serif" font-size="14.00">of_file</text>
</g>
<!-- therapeutic_procedure -->
<g id="node2" class="node">
<title>therapeutic_procedure</title>
<path fill="none" stroke="black" d="M1487.5,-1180.5C1487.5,-1180.5 1770.5,-1180.5 1770.5,-1180.5 1776.5,-1180.5 1782.5,-1186.5 1782.5,-1192.5 1782.5,-1192.5 1782.5,-1237.5 1782.5,-1237.5 1782.5,-1243.5 1776.5,-1249.5 1770.5,-1249.5 1770.5,-1249.5 1487.5,-1249.5 1487.5,-1249.5 1481.5,-1249.5 1475.5,-1243.5 1475.5,-1237.5 1475.5,-1237.5 1475.5,-1192.5 1475.5,-1192.5 1475.5,-1186.5 1481.5,-1180.5 1487.5,-1180.5"/>
<text text-anchor="middle" x="1546.5" y="-1211.3" font-family="Times,serif" font-size="14.00">therapeutic_procedure</text>
<polyline fill="none" stroke="black" points="1617.5,-1180.5 1617.5,-1249.5 "/>
<text text-anchor="middle" x="1627.5" y="-1211.3" font-family="Times,serif" font-size="14.00"> </text>
<polyline fill="none" stroke="black" points="1637.5,-1180.5 1637.5,-1249.5 "/>
<text text-anchor="middle" x="1700" y="-1234.3" font-family="Times,serif" font-size="14.00">days_to_treatment</text>
<polyline fill="none" stroke="black" points="1637.5,-1226.5 1762.5,-1226.5 "/>
<text text-anchor="middle" x="1700" y="-1211.3" font-family="Times,serif" font-size="14.00">treatment_outcome</text>
<polyline fill="none" stroke="black" points="1637.5,-1203.5 1762.5,-1203.5 "/>
<text text-anchor="middle" x="1700" y="-1188.3" font-family="Times,serif" font-size="14.00">treatment_type</text>
<polyline fill="none" stroke="black" points="1762.5,-1180.5 1762.5,-1249.5 "/>
<text text-anchor="middle" x="1772.5" y="-1211.3" font-family="Times,serif" font-size="14.00"> </text>
</g>
<!-- alias -->
<g id="node3" class="node">
<title>alias</title>
<path fill="none" stroke="black" d="M1276.5,-1169C1276.5,-1169 1445.5,-1169 1445.5,-1169 1451.5,-1169 1457.5,-1175 1457.5,-1181 1457.5,-1181 1457.5,-1249 1457.5,-1249 1457.5,-1255 1451.5,-1261 1445.5,-1261 1445.5,-1261 1276.5,-1261 1276.5,-1261 1270.5,-1261 1264.5,-1255 1264.5,-1249 1264.5,-1249 1264.5,-1181 1264.5,-1181 1264.5,-1175 1270.5,-1169 1276.5,-1169"/>
<text text-anchor="middle" x="1285.5" y="-1211.3" font-family="Times,serif" font-size="14.00">alias</text>
<polyline fill="none" stroke="black" points="1306.5,-1169 1306.5,-1261 "/>
<text text-anchor="middle" x="1316.5" y="-1211.3" font-family="Times,serif" font-size="14.00"> </text>
<polyline fill="none" stroke="black" points="1326.5,-1169 1326.5,-1261 "/>
<text text-anchor="middle" x="1382" y="-1245.8" font-family="Times,serif" font-size="14.00">CDS_ID</text>
<polyline fill="none" stroke="black" points="1326.5,-1238 1437.5,-1238 "/>
<text text-anchor="middle" x="1382" y="-1222.8" font-family="Times,serif" font-size="14.00">CDS_node</text>
<polyline fill="none" stroke="black" points="1326.5,-1215 1437.5,-1215 "/>
<text text-anchor="middle" x="1382" y="-1199.8" font-family="Times,serif" font-size="14.00">repository_ID</text>
<polyline fill="none" stroke="black" points="1326.5,-1192 1437.5,-1192 "/>
<text text-anchor="middle" x="1382" y="-1176.8" font-family="Times,serif" font-size="14.00">repository_name</text>
<polyline fill="none" stroke="black" points="1437.5,-1169 1437.5,-1261 "/>
<text text-anchor="middle" x="1447.5" y="-1211.3" font-family="Times,serif" font-size="14.00"> </text>
</g>
<!-- alias&#45;&gt;file -->
<g id="edge18" class="edge">
<title>alias&#45;&gt;file</title>
<path fill="none" stroke="black" d="M1264.46,-1210.65C1122.37,-1202.92 850.65,-1177.37 637,-1093 612.3,-1083.25 587.5,-1069.52 564.77,-1054.99"/>
<polygon fill="black" stroke="black" points="566.45,-1051.91 556.16,-1049.38 562.63,-1057.77 566.45,-1051.91"/>
<text text-anchor="middle" x="655.5" y="-1081.8" font-family="Times,serif" font-size="14.00">of_file</text>
</g>
<!-- study -->
<g id="node7" class="node">
<title>study</title>
<path fill="none" stroke="black" d="M980,-0.5C980,-0.5 1164,-0.5 1164,-0.5 1170,-0.5 1176,-6.5 1176,-12.5 1176,-12.5 1176,-126.5 1176,-126.5 1176,-132.5 1170,-138.5 1164,-138.5 1164,-138.5 980,-138.5 980,-138.5 974,-138.5 968,-132.5 968,-126.5 968,-126.5 968,-12.5 968,-12.5 968,-6.5 974,-0.5 980,-0.5"/>
<text text-anchor="middle" x="991.5" y="-65.8" font-family="Times,serif" font-size="14.00">study</text>
<polyline fill="none" stroke="black" points="1015,-0.5 1015,-138.5 "/>
<text text-anchor="middle" x="1025" y="-65.8" font-family="Times,serif" font-size="14.00"> </text>
<polyline fill="none" stroke="black" points="1035,-0.5 1035,-138.5 "/>
<text text-anchor="middle" x="1095.5" y="-123.3" font-family="Times,serif" font-size="14.00">index_date</text>
<polyline fill="none" stroke="black" points="1035,-115.5 1156,-115.5 "/>
<text text-anchor="middle" x="1095.5" y="-100.3" font-family="Times,serif" font-size="14.00">phs_accession</text>
<polyline fill="none" stroke="black" points="1035,-92.5 1156,-92.5 "/>
<text text-anchor="middle" x="1095.5" y="-77.3" font-family="Times,serif" font-size="14.00">study_acronym</text>
<polyline fill="none" stroke="black" points="1035,-69.5 1156,-69.5 "/>
<text text-anchor="middle" x="1095.5" y="-54.3" font-family="Times,serif" font-size="14.00">study_description</text>
<polyline fill="none" stroke="black" points="1035,-46.5 1156,-46.5 "/>
<text text-anchor="middle" x="1095.5" y="-31.3" font-family="Times,serif" font-size="14.00">study_external_url</text>
<polyline fill="none" stroke="black" points="1035,-23.5 1156,-23.5 "/>
<text text-anchor="middle" x="1095.5" y="-8.3" font-family="Times,serif" font-size="14.00">study_title</text>
<polyline fill="none" stroke="black" points="1156,-0.5 1156,-138.5 "/>
<text text-anchor="middle" x="1166" y="-65.8" font-family="Times,serif" font-size="14.00"> </text>
</g>
<!-- alias&#45;&gt;study -->
<g id="edge9" class="edge">
<title>alias&#45;&gt;study</title>
<path fill="none" stroke="black" d="M1401.95,-1168.89C1438.06,-1124.3 1485,-1052.41 1485,-980 1485,-980 1485,-980 1485,-270 1485,-233.46 1491.04,-216.62 1466,-190 1393.97,-113.42 1274.65,-85.39 1186.16,-75.4"/>
<polygon fill="black" stroke="black" points="1186.39,-71.9 1176.07,-74.32 1185.64,-78.86 1186.39,-71.9"/>
<text text-anchor="middle" x="1509.5" y="-678.8" font-family="Times,serif" font-size="14.00">of_study</text>
</g>
<!-- experiment -->
<g id="node10" class="node">
<title>experiment</title>
<path fill="none" stroke="black" d="M459.5,-507C459.5,-507 676.5,-507 676.5,-507 682.5,-507 688.5,-513 688.5,-519 688.5,-519 688.5,-541 688.5,-541 688.5,-547 682.5,-553 676.5,-553 676.5,-553 459.5,-553 459.5,-553 453.5,-553 447.5,-547 447.5,-541 447.5,-541 447.5,-519 447.5,-519 447.5,-513 453.5,-507 459.5,-507"/>
<text text-anchor="middle" x="487" y="-526.3" font-family="Times,serif" font-size="14.00">experiment</text>
<polyline fill="none" stroke="black" points="526.5,-507 526.5,-553 "/>
<text text-anchor="middle" x="536.5" y="-526.3" font-family="Times,serif" font-size="14.00"> </text>
<polyline fill="none" stroke="black" points="546.5,-507 546.5,-553 "/>
<text text-anchor="middle" x="607.5" y="-537.8" font-family="Times,serif" font-size="14.00">design_description</text>
<polyline fill="none" stroke="black" points="546.5,-530 668.5,-530 "/>
<text text-anchor="middle" x="607.5" y="-514.8" font-family="Times,serif" font-size="14.00">protocol</text>
<polyline fill="none" stroke="black" points="668.5,-507 668.5,-553 "/>
<text text-anchor="middle" x="678.5" y="-526.3" font-family="Times,serif" font-size="14.00"> </text>
</g>
<!-- alias&#45;&gt;experiment -->
<g id="edge14" class="edge">
<title>alias&#45;&gt;experiment</title>
<path fill="none" stroke="black" d="M1264.39,-1186.81C1119.37,-1141.01 846.54,-1034.57 697,-847 656.93,-796.73 680.43,-767.86 657,-708 636.32,-655.16 605.33,-596.91 585.91,-562.17"/>
<polygon fill="black" stroke="black" points="588.71,-560.02 580.75,-553.02 582.61,-563.45 588.71,-560.02"/>
<text text-anchor="middle" x="763" y="-868.8" font-family="Times,serif" font-size="14.00">of_experiment</text>
</g>
<!-- study_subject -->
<g id="node12" class="node">
<title>study_subject</title>
<path fill="none" stroke="black" d="M689,-190.5C689,-190.5 919,-190.5 919,-190.5 925,-190.5 931,-196.5 931,-202.5 931,-202.5 931,-339.5 931,-339.5 931,-345.5 925,-351.5 919,-351.5 919,-351.5 689,-351.5 689,-351.5 683,-351.5 677,-345.5 677,-339.5 677,-339.5 677,-202.5 677,-202.5 677,-196.5 683,-190.5 689,-190.5"/>
<text text-anchor="middle" x="723.5" y="-267.3" font-family="Times,serif" font-size="14.00">study_subject</text>
<polyline fill="none" stroke="black" points="770,-190.5 770,-351.5 "/>
<text text-anchor="middle" x="780" y="-267.3" font-family="Times,serif" font-size="14.00"> </text>
<polyline fill="none" stroke="black" points="790,-190.5 790,-351.5 "/>
<text text-anchor="middle" x="850.5" y="-336.3" font-family="Times,serif" font-size="14.00">age_at_enrollment</text>
<polyline fill="none" stroke="black" points="790,-328.5 911,-328.5 "/>
<text text-anchor="middle" x="850.5" y="-313.3" font-family="Times,serif" font-size="14.00">age_unit</text>
<polyline fill="none" stroke="black" points="790,-305.5 911,-305.5 "/>
<text text-anchor="middle" x="850.5" y="-290.3" font-family="Times,serif" font-size="14.00">ethnicity</text>
<polyline fill="none" stroke="black" points="790,-282.5 911,-282.5 "/>
<text text-anchor="middle" x="850.5" y="-267.3" font-family="Times,serif" font-size="14.00">gender</text>
<polyline fill="none" stroke="black" points="790,-259.5 911,-259.5 "/>
<text text-anchor="middle" x="850.5" y="-244.3" font-family="Times,serif" font-size="14.00">race</text>
<polyline fill="none" stroke="black" points="790,-236.5 911,-236.5 "/>
<text text-anchor="middle" x="850.5" y="-221.3" font-family="Times,serif" font-size="14.00">subject_id</text>
<polyline fill="none" stroke="black" points="790,-213.5 911,-213.5 "/>
<text text-anchor="middle" x="850.5" y="-198.3" font-family="Times,serif" font-size="14.00">vital_status</text>
<polyline fill="none" stroke="black" points="911,-190.5 911,-351.5 "/>
<text text-anchor="middle" x="921" y="-267.3" font-family="Times,serif" font-size="14.00"> </text>
</g>
<!-- alias&#45;&gt;study_subject -->
<g id="edge5" class="edge">
<title>alias&#45;&gt;study_subject</title>
<path fill="none" stroke="black" d="M1361,-1168.7C1361,-1121.57 1361,-1045.61 1361,-980 1361,-980 1361,-980 1361,-529 1361,-472.37 1380.71,-444.34 1342,-403 1303.85,-362.27 1011.47,-363.2 941.23,-351.31"/>
<polygon fill="black" stroke="black" points="941.88,-347.87 931.36,-349.11 940.36,-354.7 941.88,-347.87"/>
<text text-anchor="middle" x="1409" y="-773.8" font-family="Times,serif" font-size="14.00">of_study_subject</text>
</g>
<!-- sample -->
<g id="node14" class="node">
<title>sample</title>
<path fill="none" stroke="black" d="M718,-708.5C718,-708.5 946,-708.5 946,-708.5 952,-708.5 958,-714.5 958,-720.5 958,-720.5 958,-834.5 958,-834.5 958,-840.5 952,-846.5 946,-846.5 946,-846.5 718,-846.5 718,-846.5 712,-846.5 706,-840.5 706,-834.5 706,-834.5 706,-720.5 706,-720.5 706,-714.5 712,-708.5 718,-708.5"/>
<text text-anchor="middle" x="734" y="-773.8" font-family="Times,serif" font-size="14.00">sample</text>
<polyline fill="none" stroke="black" points="762,-708.5 762,-846.5 "/>
<text text-anchor="middle" x="772" y="-773.8" font-family="Times,serif" font-size="14.00"> </text>
<polyline fill="none" stroke="black" points="782,-708.5 782,-846.5 "/>
<text text-anchor="middle" x="860" y="-831.3" font-family="Times,serif" font-size="14.00">sample_anatomic_site</text>
<polyline fill="none" stroke="black" points="782,-823.5 938,-823.5 "/>
<text text-anchor="middle" x="860" y="-808.3" font-family="Times,serif" font-size="14.00">sample_collection_day</text>
<polyline fill="none" stroke="black" points="782,-800.5 938,-800.5 "/>
<text text-anchor="middle" x="860" y="-785.3" font-family="Times,serif" font-size="14.00">sample_collection_event</text>
<polyline fill="none" stroke="black" points="782,-777.5 938,-777.5 "/>
<text text-anchor="middle" x="860" y="-762.3" font-family="Times,serif" font-size="14.00">sample_id</text>
<polyline fill="none" stroke="black" points="782,-754.5 938,-754.5 "/>
<text text-anchor="middle" x="860" y="-739.3" font-family="Times,serif" font-size="14.00">sample_tumor_status</text>
<polyline fill="none" stroke="black" points="782,-731.5 938,-731.5 "/>
<text text-anchor="middle" x="860" y="-716.3" font-family="Times,serif" font-size="14.00">sample_type</text>
<polyline fill="none" stroke="black" points="938,-708.5 938,-846.5 "/>
<text text-anchor="middle" x="948" y="-773.8" font-family="Times,serif" font-size="14.00"> </text>
</g>
<!-- alias&#45;&gt;sample -->
<g id="edge20" class="edge">
<title>alias&#45;&gt;sample</title>
<path fill="none" stroke="black" d="M1402.28,-1168.97C1421.02,-1149.87 1444.08,-1128.13 1467,-1111 1480.07,-1101.23 1490.76,-1107.09 1499,-1093 1502.37,-1087.25 1502.62,-1083.6 1499,-1078 1382,-897.21 1127.15,-824.51 968.53,-796.03"/>
<polygon fill="black" stroke="black" points="968.68,-792.5 958.23,-794.22 967.47,-799.4 968.68,-792.5"/>
<text text-anchor="middle" x="1517" y="-975.3" font-family="Times,serif" font-size="14.00">from_sample</text>
</g>
<!-- file&#45;&gt;study -->
<g id="edge8" class="edge">
<title>file&#45;&gt;study</title>
<path fill="none" stroke="black" d="M377.9,-969.1C267.84,-952.62 95,-906.38 95,-778.5 95,-778.5 95,-778.5 95,-270 95,-95.64 699.89,-72.15 957.76,-70.06"/>
<polygon fill="black" stroke="black" points="957.93,-73.56 967.91,-69.99 957.88,-66.56 957.93,-73.56"/>
<text text-anchor="middle" x="119.5" y="-526.3" font-family="Times,serif" font-size="14.00">of_study</text>
</g>
<!-- file&#45;&gt;experiment -->
<g id="edge13" class="edge">
<title>file&#45;&gt;experiment</title>
<path fill="none" stroke="black" d="M525.01,-898.42C528.32,-892.33 531.36,-886.16 534,-880 580.41,-771.54 576.04,-627.3 571.18,-563.6"/>
<polygon fill="black" stroke="black" points="574.64,-563.05 570.34,-553.37 567.67,-563.63 574.64,-563.05"/>
<text text-anchor="middle" x="612" y="-773.8" font-family="Times,serif" font-size="14.00">of_experiment</text>
</g>
<!-- file&#45;&gt;study_subject -->
<g id="edge4" class="edge">
<title>file&#45;&gt;study_subject</title>
<path fill="none" stroke="black" d="M377.84,-961.7C313.76,-944.82 231.75,-911.44 191,-847 157.98,-794.78 170.32,-766.21 191,-708 249.49,-543.37 296.44,-503.99 439,-403 507.09,-354.77 594.8,-322.53 667.17,-302.11"/>
<polygon fill="black" stroke="black" points="668.12,-305.48 676.82,-299.43 666.25,-298.73 668.12,-305.48"/>
<text text-anchor="middle" x="252" y="-678.8" font-family="Times,serif" font-size="14.00">of_study_subject</text>
</g>
<!-- clinical_measure -->
<g id="node13" class="node">
<title>clinical_measure</title>
<path fill="none" stroke="black" d="M212,-731.5C212,-731.5 520,-731.5 520,-731.5 526,-731.5 532,-737.5 532,-743.5 532,-743.5 532,-811.5 532,-811.5 532,-817.5 526,-823.5 520,-823.5 520,-823.5 212,-823.5 212,-823.5 206,-823.5 200,-817.5 200,-811.5 200,-811.5 200,-743.5 200,-743.5 200,-737.5 206,-731.5 212,-731.5"/>
<text text-anchor="middle" x="255.5" y="-773.8" font-family="Times,serif" font-size="14.00">clinical_measure</text>
<polyline fill="none" stroke="black" points="311,-731.5 311,-823.5 "/>
<text text-anchor="middle" x="321" y="-773.8" font-family="Times,serif" font-size="14.00"> </text>
<polyline fill="none" stroke="black" points="331,-731.5 331,-823.5 "/>
<text text-anchor="middle" x="421.5" y="-808.3" font-family="Times,serif" font-size="14.00">age_at_measure</text>
<polyline fill="none" stroke="black" points="331,-800.5 512,-800.5 "/>
<text text-anchor="middle" x="421.5" y="-785.3" font-family="Times,serif" font-size="14.00">clinical_measure_ID</text>
<polyline fill="none" stroke="black" points="331,-777.5 512,-777.5 "/>
<text text-anchor="middle" x="421.5" y="-762.3" font-family="Times,serif" font-size="14.00">clinical_measure_description</text>
<polyline fill="none" stroke="black" points="331,-754.5 512,-754.5 "/>
<text text-anchor="middle" x="421.5" y="-739.3" font-family="Times,serif" font-size="14.00">site_of_measure</text>
<polyline fill="none" stroke="black" points="512,-731.5 512,-823.5 "/>
<text text-anchor="middle" x="522" y="-773.8" font-family="Times,serif" font-size="14.00"> </text>
</g>
<!-- file&#45;&gt;clinical_measure -->
<g id="edge15" class="edge">
<title>file&#45;&gt;clinical_measure</title>
<path fill="none" stroke="black" d="M426.65,-898.29C415.5,-876.27 403.66,-852.89 393.43,-832.68"/>
<polygon fill="black" stroke="black" points="396.49,-830.98 388.85,-823.64 390.25,-834.14 396.49,-830.98"/>
<text text-anchor="middle" x="473" y="-868.8" font-family="Times,serif" font-size="14.00">of_clinical_measure</text>
</g>
<!-- file&#45;&gt;sample -->
<g id="edge19" class="edge">
<title>file&#45;&gt;sample</title>
<path fill="none" stroke="black" d="M549.48,-898.43C566.34,-883.38 581.97,-870.59 592,-865 617.06,-851.02 626.81,-856.16 654,-847 667.64,-842.4 681.78,-837.39 695.86,-832.24"/>
<polygon fill="black" stroke="black" points="697.41,-835.4 705.59,-828.66 694.99,-828.83 697.41,-835.4"/>
<text text-anchor="middle" x="629" y="-868.8" font-family="Times,serif" font-size="14.00">from_sample</text>
</g>
<!-- study_admin -->
<g id="node5" class="node">
<title>study_admin</title>
<path fill="none" stroke="black" d="M961,-213.5C961,-213.5 1183,-213.5 1183,-213.5 1189,-213.5 1195,-219.5 1195,-225.5 1195,-225.5 1195,-316.5 1195,-316.5 1195,-322.5 1189,-328.5 1183,-328.5 1183,-328.5 961,-328.5 961,-328.5 955,-328.5 949,-322.5 949,-316.5 949,-316.5 949,-225.5 949,-225.5 949,-219.5 955,-213.5 961,-213.5"/>
<text text-anchor="middle" x="993.5" y="-267.3" font-family="Times,serif" font-size="14.00">study_admin</text>
<polyline fill="none" stroke="black" points="1038,-213.5 1038,-328.5 "/>
<text text-anchor="middle" x="1048" y="-267.3" font-family="Times,serif" font-size="14.00"> </text>
<polyline fill="none" stroke="black" points="1058,-213.5 1058,-328.5 "/>
<text text-anchor="middle" x="1116.5" y="-313.3" font-family="Times,serif" font-size="14.00">data_access_level</text>
<polyline fill="none" stroke="black" points="1058,-305.5 1175,-305.5 "/>
<text text-anchor="middle" x="1116.5" y="-290.3" font-family="Times,serif" font-size="14.00">data_types</text>
<polyline fill="none" stroke="black" points="1058,-282.5 1175,-282.5 "/>
<text text-anchor="middle" x="1116.5" y="-267.3" font-family="Times,serif" font-size="14.00">file_types</text>
<polyline fill="none" stroke="black" points="1058,-259.5 1175,-259.5 "/>
<text text-anchor="middle" x="1116.5" y="-244.3" font-family="Times,serif" font-size="14.00">species</text>
<polyline fill="none" stroke="black" points="1058,-236.5 1175,-236.5 "/>
<text text-anchor="middle" x="1116.5" y="-221.3" font-family="Times,serif" font-size="14.00">study_type</text>
<polyline fill="none" stroke="black" points="1175,-213.5 1175,-328.5 "/>
<text text-anchor="middle" x="1185" y="-267.3" font-family="Times,serif" font-size="14.00"> </text>
</g>
<!-- study_admin&#45;&gt;study -->
<g id="edge10" class="edge">
<title>study_admin&#45;&gt;study</title>
<path fill="none" stroke="black" d="M1072,-213.36C1072,-193.28 1072,-170.3 1072,-148.73"/>
<polygon fill="black" stroke="black" points="1075.5,-148.61 1072,-138.61 1068.5,-148.61 1075.5,-148.61"/>
<text text-anchor="middle" x="1096.5" y="-160.8" font-family="Times,serif" font-size="14.00">of_study</text>
</g>
<!-- specimen -->
<g id="node6" class="node">
<title>specimen</title>
<path fill="none" stroke="black" d="M1149,-512C1149,-512 1321,-512 1321,-512 1327,-512 1333,-518 1333,-524 1333,-524 1333,-536 1333,-536 1333,-542 1327,-548 1321,-548 1321,-548 1149,-548 1149,-548 1143,-548 1137,-542 1137,-536 1137,-536 1137,-524 1137,-524 1137,-518 1143,-512 1149,-512"/>
<text text-anchor="middle" x="1171.5" y="-526.3" font-family="Times,serif" font-size="14.00">specimen</text>
<polyline fill="none" stroke="black" points="1206,-512 1206,-548 "/>
<text text-anchor="middle" x="1216" y="-526.3" font-family="Times,serif" font-size="14.00"> </text>
<polyline fill="none" stroke="black" points="1226,-512 1226,-548 "/>
<text text-anchor="middle" x="1269.5" y="-526.3" font-family="Times,serif" font-size="14.00">specimen_id</text>
<polyline fill="none" stroke="black" points="1313,-512 1313,-548 "/>
<text text-anchor="middle" x="1323" y="-526.3" font-family="Times,serif" font-size="14.00"> </text>
</g>
<!-- specimen&#45;&gt;study_subject -->
<g id="edge2" class="edge">
<title>specimen&#45;&gt;study_subject</title>
<path fill="none" stroke="black" d="M1225.22,-511.87C1208.74,-484.59 1172.82,-431.46 1128,-403 1057.63,-358.31 1022.46,-383.53 940.9,-352.08"/>
<polygon fill="black" stroke="black" points="941.84,-348.69 931.26,-348.19 939.22,-355.18 941.84,-348.69"/>
<text text-anchor="middle" x="1139" y="-373.8" font-family="Times,serif" font-size="14.00">of_study_subject</text>
</g>
<!-- diagnosis -->
<g id="node8" class="node">
<title>diagnosis</title>
<path fill="none" stroke="black" d="M851.5,-403.5C851.5,-403.5 1106.5,-403.5 1106.5,-403.5 1112.5,-403.5 1118.5,-409.5 1118.5,-415.5 1118.5,-415.5 1118.5,-644.5 1118.5,-644.5 1118.5,-650.5 1112.5,-656.5 1106.5,-656.5 1106.5,-656.5 851.5,-656.5 851.5,-656.5 845.5,-656.5 839.5,-650.5 839.5,-644.5 839.5,-644.5 839.5,-415.5 839.5,-415.5 839.5,-409.5 845.5,-403.5 851.5,-403.5"/>
<text text-anchor="middle" x="874" y="-526.3" font-family="Times,serif" font-size="14.00">diagnosis</text>
<polyline fill="none" stroke="black" points="908.5,-403.5 908.5,-656.5 "/>
<text text-anchor="middle" x="918.5" y="-526.3" font-family="Times,serif" font-size="14.00"> </text>
<polyline fill="none" stroke="black" points="928.5,-403.5 928.5,-656.5 "/>
<text text-anchor="middle" x="1013.5" y="-641.3" font-family="Times,serif" font-size="14.00">age_at_diagnosis</text>
<polyline fill="none" stroke="black" points="928.5,-633.5 1098.5,-633.5 "/>
<text text-anchor="middle" x="1013.5" y="-618.3" font-family="Times,serif" font-size="14.00">days_to_last_known_status</text>
<polyline fill="none" stroke="black" points="928.5,-610.5 1098.5,-610.5 "/>
<text text-anchor="middle" x="1013.5" y="-595.3" font-family="Times,serif" font-size="14.00">days_to_recurrence</text>
<polyline fill="none" stroke="black" points="928.5,-587.5 1098.5,-587.5 "/>
<text text-anchor="middle" x="1013.5" y="-572.3" font-family="Times,serif" font-size="14.00">diagnosis_ID</text>
<polyline fill="none" stroke="black" points="928.5,-564.5 1098.5,-564.5 "/>
<text text-anchor="middle" x="1013.5" y="-549.3" font-family="Times,serif" font-size="14.00">incidence_type</text>
<polyline fill="none" stroke="black" points="928.5,-541.5 1098.5,-541.5 "/>
<text text-anchor="middle" x="1013.5" y="-526.3" font-family="Times,serif" font-size="14.00">last_known_disease_status</text>
<polyline fill="none" stroke="black" points="928.5,-518.5 1098.5,-518.5 "/>
<text text-anchor="middle" x="1013.5" y="-503.3" font-family="Times,serif" font-size="14.00">primary_diagnosis</text>
<polyline fill="none" stroke="black" points="928.5,-495.5 1098.5,-495.5 "/>
<text text-anchor="middle" x="1013.5" y="-480.3" font-family="Times,serif" font-size="14.00">primary_site</text>
<polyline fill="none" stroke="black" points="928.5,-472.5 1098.5,-472.5 "/>
<text text-anchor="middle" x="1013.5" y="-457.3" font-family="Times,serif" font-size="14.00">tumor_grade</text>
<polyline fill="none" stroke="black" points="928.5,-449.5 1098.5,-449.5 "/>
<text text-anchor="middle" x="1013.5" y="-434.3" font-family="Times,serif" font-size="14.00">tumor_morphology</text>
<polyline fill="none" stroke="black" points="928.5,-426.5 1098.5,-426.5 "/>
<text text-anchor="middle" x="1013.5" y="-411.3" font-family="Times,serif" font-size="14.00">tumor_stage</text>
<polyline fill="none" stroke="black" points="1098.5,-403.5 1098.5,-656.5 "/>
<text text-anchor="middle" x="1108.5" y="-526.3" font-family="Times,serif" font-size="14.00"> </text>
</g>
<!-- diagnosis&#45;&gt;study_subject -->
<g id="edge1" class="edge">
<title>diagnosis&#45;&gt;study_subject</title>
<path fill="none" stroke="black" d="M893.29,-403.14C883.4,-388.6 873.47,-374.02 864.02,-360.14"/>
<polygon fill="black" stroke="black" points="866.72,-357.89 858.2,-351.6 860.94,-361.83 866.72,-357.89"/>
<text text-anchor="middle" x="923" y="-373.8" font-family="Times,serif" font-size="14.00">of_study_subject</text>
</g>
<!-- genomic_detail -->
<g id="node9" class="node">
<title>genomic_detail</title>
<path fill="none" stroke="black" d="M12,-1111.5C12,-1111.5 330,-1111.5 330,-1111.5 336,-1111.5 342,-1117.5 342,-1123.5 342,-1123.5 342,-1306.5 342,-1306.5 342,-1312.5 336,-1318.5 330,-1318.5 330,-1318.5 12,-1318.5 12,-1318.5 6,-1318.5 0,-1312.5 0,-1306.5 0,-1306.5 0,-1123.5 0,-1123.5 0,-1117.5 6,-1111.5 12,-1111.5"/>
<text text-anchor="middle" x="51.5" y="-1211.3" font-family="Times,serif" font-size="14.00">genomic_detail</text>
<polyline fill="none" stroke="black" points="103,-1111.5 103,-1318.5 "/>
<text text-anchor="middle" x="113" y="-1211.3" font-family="Times,serif" font-size="14.00"> </text>
<polyline fill="none" stroke="black" points="123,-1111.5 123,-1318.5 "/>
<text text-anchor="middle" x="222.5" y="-1303.3" font-family="Times,serif" font-size="14.00">average_read_length</text>
<polyline fill="none" stroke="black" points="123,-1295.5 322,-1295.5 "/>
<text text-anchor="middle" x="222.5" y="-1280.3" font-family="Times,serif" font-size="14.00">coverage</text>
<polyline fill="none" stroke="black" points="123,-1272.5 322,-1272.5 "/>
<text text-anchor="middle" x="222.5" y="-1257.3" font-family="Times,serif" font-size="14.00">genome_reference_or_accession</text>
<polyline fill="none" stroke="black" points="123,-1249.5 322,-1249.5 "/>
<text text-anchor="middle" x="222.5" y="-1234.3" font-family="Times,serif" font-size="14.00">library_id</text>
<polyline fill="none" stroke="black" points="123,-1226.5 322,-1226.5 "/>
<text text-anchor="middle" x="222.5" y="-1211.3" font-family="Times,serif" font-size="14.00">library_layout</text>
<polyline fill="none" stroke="black" points="123,-1203.5 322,-1203.5 "/>
<text text-anchor="middle" x="222.5" y="-1188.3" font-family="Times,serif" font-size="14.00">library_source</text>
<polyline fill="none" stroke="black" points="123,-1180.5 322,-1180.5 "/>
<text text-anchor="middle" x="222.5" y="-1165.3" font-family="Times,serif" font-size="14.00">library_strategy</text>
<polyline fill="none" stroke="black" points="123,-1157.5 322,-1157.5 "/>
<text text-anchor="middle" x="222.5" y="-1142.3" font-family="Times,serif" font-size="14.00">number_of_bp</text>
<polyline fill="none" stroke="black" points="123,-1134.5 322,-1134.5 "/>
<text text-anchor="middle" x="222.5" y="-1119.3" font-family="Times,serif" font-size="14.00">number_of_reads</text>
<polyline fill="none" stroke="black" points="322,-1111.5 322,-1318.5 "/>
<text text-anchor="middle" x="332" y="-1211.3" font-family="Times,serif" font-size="14.00"> </text>
</g>
<!-- genomic_detail&#45;&gt;file -->
<g id="edge17" class="edge">
<title>genomic_detail&#45;&gt;file</title>
<path fill="none" stroke="black" d="M300.83,-1111.36C323.93,-1093.1 347.64,-1074.36 369.64,-1056.97"/>
<polygon fill="black" stroke="black" points="371.99,-1059.57 377.67,-1050.62 367.65,-1054.08 371.99,-1059.57"/>
<text text-anchor="middle" x="354.5" y="-1081.8" font-family="Times,serif" font-size="14.00">of_file</text>
</g>
<!-- study_funding -->
<g id="node11" class="node">
<title>study_funding</title>
<path fill="none" stroke="black" d="M1225,-248C1225,-248 1445,-248 1445,-248 1451,-248 1457,-254 1457,-260 1457,-260 1457,-282 1457,-282 1457,-288 1451,-294 1445,-294 1445,-294 1225,-294 1225,-294 1219,-294 1213,-288 1213,-282 1213,-282 1213,-260 1213,-260 1213,-254 1219,-248 1225,-248"/>
<text text-anchor="middle" x="1261.5" y="-267.3" font-family="Times,serif" font-size="14.00">study_funding</text>
<polyline fill="none" stroke="black" points="1310,-248 1310,-294 "/>
<text text-anchor="middle" x="1320" y="-267.3" font-family="Times,serif" font-size="14.00"> </text>
<polyline fill="none" stroke="black" points="1330,-248 1330,-294 "/>
<text text-anchor="middle" x="1383.5" y="-278.8" font-family="Times,serif" font-size="14.00">funding_ID</text>
<polyline fill="none" stroke="black" points="1330,-271 1437,-271 "/>
<text text-anchor="middle" x="1383.5" y="-255.8" font-family="Times,serif" font-size="14.00">funding_agency</text>
<polyline fill="none" stroke="black" points="1437,-248 1437,-294 "/>
<text text-anchor="middle" x="1447" y="-267.3" font-family="Times,serif" font-size="14.00"> </text>
</g>
<!-- study_funding&#45;&gt;study -->
<g id="edge6" class="edge">
<title>study_funding&#45;&gt;study</title>
<path fill="none" stroke="black" d="M1305.85,-247.89C1273.1,-223.05 1218.19,-181.39 1169.8,-144.69"/>
<polygon fill="black" stroke="black" points="1171.87,-141.86 1161.79,-138.61 1167.64,-147.44 1171.87,-141.86"/>
<text text-anchor="middle" x="1227.5" y="-160.8" font-family="Times,serif" font-size="14.00">of_study</text>
</g>
<!-- study_subject&#45;&gt;study -->
<g id="edge7" class="edge">
<title>study_subject&#45;&gt;study</title>
<path fill="none" stroke="black" d="M911.08,-190.29C931.32,-175.22 952.42,-159.51 972.43,-144.62"/>
<polygon fill="black" stroke="black" points="974.7,-147.3 980.63,-138.52 970.52,-141.68 974.7,-147.3"/>
<text text-anchor="middle" x="978.5" y="-160.8" font-family="Times,serif" font-size="14.00">of_study</text>
</g>
<!-- sample&#45;&gt;specimen -->
<g id="edge11" class="edge">
<title>sample&#45;&gt;specimen</title>
<path fill="none" stroke="black" d="M958.37,-740.6C1013.6,-721.23 1077.22,-693.65 1128,-657 1166.42,-629.26 1199.8,-584.88 1218.65,-556.87"/>
<polygon fill="black" stroke="black" points="1221.66,-558.67 1224.25,-548.4 1215.82,-554.81 1221.66,-558.67"/>
<text text-anchor="middle" x="1135" y="-678.8" font-family="Times,serif" font-size="14.00">of_specimen</text>
</g>
<!-- sample&#45;&gt;experiment -->
<g id="edge12" class="edge">
<title>sample&#45;&gt;experiment</title>
<path fill="none" stroke="black" d="M705.65,-713.87C690.08,-704.96 677.15,-696.6 670,-690 629.91,-652.99 598.85,-596.94 582.01,-562.22"/>
<polygon fill="black" stroke="black" points="585.1,-560.56 577.65,-553.03 578.78,-563.56 585.1,-560.56"/>
<text text-anchor="middle" x="711" y="-678.8" font-family="Times,serif" font-size="14.00">of_experiment</text>
</g>
<!-- sample&#45;&gt;study_subject -->
<g id="edge3" class="edge">
<title>sample&#45;&gt;study_subject</title>
<path fill="none" stroke="black" d="M779.68,-708.39C770.62,-697.1 761.16,-685.61 752,-675 744.81,-666.67 739.07,-667.23 735,-657 693.29,-552.1 707.9,-512.59 735,-403 738.48,-388.91 743.79,-374.66 749.94,-361.01"/>
<polygon fill="black" stroke="black" points="753.25,-362.2 754.32,-351.66 746.91,-359.23 753.25,-362.2"/>
<text text-anchor="middle" x="783" y="-526.3" font-family="Times,serif" font-size="14.00">of_study_subject</text>
</g>
</g>
</svg>
